<svg width="390" height="277" viewBox="0 0 390 277" fill="none" xmlns="http://www.w3.org/2000/svg">
<path d="M194.632 276.078C302.031 276.078 389.095 261.294 389.095 243.056C389.095 224.818 302.031 210.033 194.632 210.033C87.233 210.033 0.168945 224.818 0.168945 243.056C0.168945 261.294 87.233 276.078 194.632 276.078Z" fill="#C8C1E1"/>
<path d="M243.082 256.622C242.955 256.494 240.175 253.638 241.195 251.93C241.348 251.649 241.552 251.547 241.756 251.573C242.496 251.649 243.312 253.587 243.72 254.735C243.592 253.307 243.414 250.476 244.204 249.533C244.383 249.329 244.587 249.201 244.816 249.201C245.046 249.176 245.25 249.278 245.377 249.456C246.091 250.323 245.454 253.409 245.097 254.862C245.352 254.429 245.734 253.97 246.117 253.919C246.295 253.893 246.448 253.97 246.525 254.097C246.754 254.505 246.448 255.576 245.505 256.647L245.377 256.52C246.295 255.474 246.525 254.48 246.372 254.174C246.321 254.097 246.27 254.072 246.168 254.072C245.683 254.148 245.122 255.194 244.944 255.602L244.765 255.551C244.791 255.5 246.117 250.604 245.275 249.558C245.173 249.431 245.046 249.38 244.867 249.38C244.689 249.38 244.51 249.482 244.383 249.66C243.388 250.859 244.026 255.525 244.026 255.576L243.847 255.627C243.516 254.582 242.496 251.879 241.756 251.802C241.603 251.777 241.476 251.879 241.374 252.083C240.43 253.664 243.21 256.52 243.235 256.545L243.082 256.622Z" fill="#42428E"/>
<path d="M177.317 252.567C177.317 252.567 173.595 248.767 174.869 246.6C176.144 244.432 178.312 251.241 178.312 251.241C178.312 251.241 177.19 243.183 179.51 243.055C181.831 242.928 179.51 251.241 179.51 251.241C179.51 251.241 180.377 249.303 181.219 249.175C182.06 249.048 181.831 250.833 180.326 252.541H177.317V252.567Z" fill="#BED5DC"/>
<path d="M177.598 252.669C177.598 252.669 176.527 251.572 175.66 250.195C174.461 248.308 174.181 246.829 174.818 245.758C175.048 245.35 175.328 245.172 175.66 245.223C176.297 245.299 177.062 246.319 177.904 248.232C178.159 248.818 178.388 249.405 178.567 249.889C178.363 247.773 178.133 243.591 179.281 242.163C179.536 241.857 179.842 241.678 180.199 241.678C180.556 241.653 180.836 241.78 181.04 242.035C182.086 243.336 181.142 247.9 180.632 250.017C181.015 249.379 181.576 248.691 182.137 248.614C182.392 248.589 182.621 248.665 182.723 248.895C183.055 249.507 182.596 251.088 181.219 252.669L181.015 252.49C182.366 250.935 182.723 249.481 182.468 249.022C182.417 248.895 182.315 248.869 182.162 248.895C181.448 248.997 180.607 250.552 180.326 251.164L180.071 251.062C180.097 250.986 182.086 243.769 180.836 242.214C180.683 242.01 180.479 241.933 180.224 241.959C179.944 241.984 179.714 242.112 179.51 242.367C178.057 244.152 178.975 251.037 179 251.113L178.745 251.164C178.261 249.634 176.756 245.631 175.66 245.503C175.456 245.478 175.252 245.605 175.073 245.911C173.696 248.257 177.776 252.465 177.827 252.516L177.598 252.669Z" fill="#42428E"/>
<path d="M87.5314 68.0743C87.5314 68.0743 94.1104 67.7683 95.1559 57.6703C96.2269 47.2918 84.3184 57.6703 84.3184 57.6703L87.5314 68.0743Z" fill="#FDAD9B"/>
<path d="M80.7998 34.9502C81.2078 35.1032 87.8632 36.9137 90.8212 46.9607C93.7792 57.0077 83.8598 49.0772 83.8598 49.0772L80.7998 34.9502Z" fill="#FDAD9B"/>
<path d="M72.0273 173.466C72.0273 173.466 72.1293 177.087 74.5518 178.107C76.9998 179.127 84.0888 180.045 81.4368 182.365C79.9068 183.691 72.7668 182.85 70.7268 182.824C68.7123 182.824 66.7998 183.717 65.2953 182.34C63.6378 180.861 65.2953 173.44 65.2953 173.44C65.2953 173.44 67.0293 174.358 68.6103 174.307C70.9053 174.282 72.0273 173.466 72.0273 173.466Z" fill="#66192D"/>
<path d="M43.9521 173.466C43.9521 173.466 44.0541 177.087 46.4766 178.107C48.9246 179.127 56.0136 180.045 53.3616 182.365C51.8316 183.691 44.6916 182.85 42.6516 182.824C40.6371 182.824 38.7246 183.717 37.2201 182.34C35.5626 180.861 37.2201 173.44 37.2201 173.44C37.2201 173.44 38.9541 174.358 40.5351 174.307C42.8046 174.282 43.9521 173.466 43.9521 173.466Z" fill="#66192D"/>
<path d="M90.1835 74.4238C90.1835 74.4238 90.6425 89.5453 85.7975 118.564C82.304 139.5 78.1985 160.614 76.184 170.737C75.47 174.358 72.41 177.01 68.8145 177.138L66.8765 177.214C62.975 177.367 59.813 174.027 60.0935 170.023L64.9895 101.556L66.188 79.0138L90.1835 74.4238Z" fill="#786AB5"/>
<path d="M46.0429 87.7348C46.2724 89.5708 56.6764 89.3413 69.4264 87.7348C82.1765 86.1283 92.096 83.3488 91.8665 81.5128C91.637 79.6768 81.3604 79.4473 68.6104 81.0538C55.8604 82.6858 45.8134 85.8733 46.0429 87.7348Z" fill="#66192D"/>
<path d="M75.5721 85.2108L48.3636 172.625C47.2161 176.271 43.9266 178.796 40.1781 178.847L38.5461 178.872C34.6956 178.949 31.7376 175.379 32.4261 171.477L47.3181 89.3418C47.5221 88.3728 48.2616 87.5823 49.2051 87.3273C54.2796 85.8738 76.0566 81.6153 75.5721 85.2108Z" fill="#786AB5"/>
<path d="M50.3019 37.3976C50.3019 37.3976 53.9229 27.2231 66.8259 27.6821C79.7289 28.1411 89.47 45.0986 91.867 81.5126C91.867 81.5126 70.7529 76.8716 46.0179 87.6836C45.9924 87.6836 44.6154 52.2386 50.3019 37.3976Z" fill="#FFBA41"/>
<path d="M41.2236 36.7863L50.3527 42.6258C50.3527 42.6258 73.8382 44.9718 80.0602 43.8498C86.2822 42.7278 87.2768 38.1378 87.2768 38.1378C87.2768 38.1378 81.3353 30.0033 70.0642 27.9888C68.9932 27.7848 67.9477 27.7593 66.8002 27.6828C64.8877 27.5553 62.9752 27.6063 61.0882 27.8103C49.9447 29.0088 41.2236 36.7863 41.2236 36.7863Z" fill="#FFBA41"/>
<path d="M63.4081 124.277L62.9746 124.124L68.8141 106.325C70.1656 102.219 72.9451 98.7767 76.6426 96.6602L76.8721 97.0682C73.2766 99.1337 70.5736 102.474 69.2476 106.478L63.4081 124.277Z" fill="#020202"/>
<path d="M75.6493 25.4132L75.6239 25.2602C75.6494 25.2602 77.2813 24.8522 77.7403 23.7302C77.9698 23.1437 77.8678 22.4807 77.4088 21.7157C77.1793 21.3587 76.9753 21.0272 76.7968 20.7467C75.5218 18.7067 75.0374 17.9417 75.3944 16.2842L75.5474 16.3097C75.2159 17.9162 75.6493 18.6047 76.9243 20.6702C77.1028 20.9762 77.3068 21.2822 77.5363 21.6392C78.0208 22.4552 78.1483 23.1692 77.8933 23.8067C77.3833 24.9797 75.7258 25.3877 75.6493 25.4132Z" fill="#66192D"/>
<path d="M75.4451 16.2842C75.4451 16.2842 74.8841 18.8597 76.5926 21.5882C78.3011 24.2912 76.4396 26.2802 74.1191 25.2347C71.7986 24.1892 70.9061 27.1472 67.9481 25.5152C64.9901 23.8577 75.4451 16.2842 75.4451 16.2842Z" fill="#66192D"/>
<path d="M61.7515 27.7081C63.0265 27.5806 64.1485 26.7646 64.6585 25.5916L66.265 21.8686L66.724 20.7976L69.4525 14.4736L68.968 21.0271L68.6875 24.9796L68.611 26.1016C68.5345 27.0196 69.1975 27.8356 70.09 27.9886H70.1155C70.6 28.7791 71.263 30.3856 69.274 31.0231C66.9025 31.7626 63.0775 29.9266 61.7515 27.7081C61.726 27.7336 61.726 27.7336 61.7515 27.7081Z" fill="#FDAD9B"/>
<path d="M66.2395 21.7662C66.2395 21.7917 66.2395 21.8427 66.2395 21.8682C66.3925 23.9848 68.662 24.9793 68.662 24.9793H68.6875L68.968 21.0267C68.2795 20.7717 67.285 20.5167 66.7239 20.7972C66.4179 20.9502 66.214 21.2562 66.2395 21.7662Z" fill="#66192D"/>
<path d="M75.9045 15.5189C75.9045 11.3114 73.1505 7.91992 69.7335 7.91992C66.3165 7.91992 63.5625 11.3369 63.5625 15.5189C63.5625 19.7264 66.3165 23.1179 69.7335 23.1179C73.1505 23.1179 75.9045 19.7264 75.9045 15.5189Z" fill="#FDAD9B"/>
<path d="M64.4034 16.6665C65.0919 17.3295 66.0864 17.406 66.5964 16.8195C67.1064 16.233 66.9534 15.213 66.2394 14.55C65.5509 13.887 64.5564 13.8105 64.0464 14.397C63.5364 14.9835 63.6894 16.0035 64.4034 16.6665Z" fill="#FDAD9B"/>
<path d="M73.0486 20.4404C73.0486 20.4404 70.9321 20.4915 68.8411 19.752C68.8411 19.752 68.6626 21.8174 70.9576 21.9704C72.2836 22.0469 73.0486 20.4404 73.0486 20.4404Z" fill="#DB6B49"/>
<path d="M73.0484 20.4406C73.0484 20.4406 72.5384 20.8741 71.3399 20.8486C70.1414 20.8486 68.8154 19.7266 68.8154 19.7266C68.8154 19.7266 71.3909 20.4406 73.0484 20.4406Z" fill="white"/>
<path d="M70.3193 15.5958C70.3703 15.5958 70.3958 15.5448 70.4213 15.5193C70.4468 15.4428 70.4213 15.3663 70.3448 15.3408C70.2938 15.3153 69.3503 14.8308 68.5343 15.7488C68.4833 15.7998 68.4833 15.9018 68.5343 15.9528C68.5853 16.0038 68.6618 16.0038 68.7383 15.9528C69.3758 15.5193 70.2173 15.5958 70.2428 15.6213C70.2683 15.5958 70.2938 15.5958 70.3193 15.5958Z" fill="#060633"/>
<path d="M69.2236 17.1256C69.2236 17.457 69.4021 17.7375 69.6317 17.7375C69.8867 17.7375 70.0907 17.4826 70.0907 17.1511C70.0907 16.8196 69.9122 16.5391 69.6827 16.5391C69.4277 16.5391 69.2236 16.7941 69.2236 17.1256Z" fill="#060633"/>
<path d="M75.3435 16.3345C75.3945 16.3345 75.42 16.3345 75.471 16.2835C75.522 16.2325 75.522 16.1305 75.471 16.0795C75.4455 16.054 74.7569 15.238 73.6349 15.7735C73.5584 15.799 73.5329 15.8755 73.5584 15.952C73.5839 16.0285 73.6604 16.0285 73.7369 16.0285C74.5019 15.8755 75.2414 16.258 75.2669 16.2835C75.2924 16.309 75.318 16.309 75.3435 16.3345Z" fill="#060633"/>
<path d="M73.7363 17.3293C73.6088 17.6353 73.6598 17.9668 73.8893 18.0688C74.1188 18.1708 74.3993 17.9923 74.5268 17.6863C74.6543 17.3803 74.6033 17.0488 74.3738 16.9468C74.1443 16.8448 73.8638 17.0233 73.7363 17.3293Z" fill="#060633"/>
<path d="M72.3597 9.29701C72.3597 9.29701 72.2322 11.949 68.9427 12.3825C65.6532 12.8415 63.3837 14.2185 63.8172 16.59C64.2507 18.9615 69.5802 23.883 65.6787 25.7955C61.7772 27.708 62.5932 24.138 58.3602 24.9795C54.1272 25.7955 53.3622 20.16 56.2692 16.8705C59.1762 13.581 58.0032 4.91101 68.9427 5.29351C79.8822 5.67601 75.8787 14.397 75.8787 14.397C75.8787 14.397 72.3597 12.204 72.3597 9.29701Z" fill="#66192D"/>
<path d="M64.5311 26.3053L64.5056 26.2288C65.3216 25.8973 65.7806 25.4383 65.9591 24.8263C66.4181 23.0923 64.3781 20.4403 62.5676 18.0943C62.0831 17.4823 61.6241 16.8958 61.2416 16.3348C60.1196 14.7793 60.0176 12.9178 60.9866 11.4643C62.0576 9.85781 64.0721 9.1948 66.2651 9.7048C68.3816 10.1893 69.8351 9.75581 70.7021 9.29681C71.6201 8.81231 72.0536 8.1748 72.0536 8.1748L72.1301 8.22581C72.1046 8.25131 70.3706 10.7503 66.2651 9.7813C64.0976 9.2713 62.1086 9.9343 61.0631 11.5153C60.1196 12.9433 60.1961 14.7283 61.3181 16.2838C61.7261 16.8448 62.1596 17.4313 62.6441 18.0433C64.4546 20.4148 66.5201 23.0668 66.0356 24.8518C65.8571 25.4638 65.3471 25.9738 64.5311 26.3053Z" fill="white"/>
<path d="M74.9103 21.3076C74.5788 21.3076 74.2728 21.2056 73.9668 21.0271C72.6408 20.2111 72.1308 17.7121 72.8448 15.4681C73.2783 14.0911 74.0943 13.0711 75.0123 12.7396C75.5733 12.5356 76.1088 12.5866 76.6188 12.8926C77.9448 13.7086 78.4548 16.2076 77.7408 18.4261C77.3073 19.8031 76.4913 20.8231 75.5733 21.1546C75.3438 21.2821 75.1398 21.3076 74.9103 21.3076ZM73.1253 15.5701C72.4368 17.6866 72.8958 20.0326 74.1198 20.7976C74.5278 21.0526 75.0123 21.1036 75.4713 20.9251C76.3128 20.6191 77.0778 19.6501 77.4858 18.3751C78.1743 16.2586 77.7153 13.9126 76.4913 13.1476C76.0833 12.8926 75.5988 12.8416 75.1398 13.0201C74.2728 13.3261 73.5333 14.2696 73.1253 15.5701Z" fill="#786AB5"/>
<g opacity="0.3">
<path opacity="0.3" d="M65.7041 14.0402C65.2196 16.2077 66.0101 18.5537 67.4637 19.2422C68.9427 19.9562 70.5237 18.7577 71.0337 16.5902C71.5182 14.4227 70.7277 12.0767 69.2742 11.3882C67.7952 10.6742 66.2141 11.8727 65.7041 14.0402Z" fill="white"/>
</g>
<g opacity="0.3">
<path opacity="0.3" d="M72.7934 15.6721C72.3089 17.8651 72.9464 20.2111 74.2724 20.9506C75.5729 21.6901 77.0518 20.5171 77.5363 18.3241C78.0208 16.1311 77.3834 13.7851 76.0574 13.0456C74.7569 12.3061 73.2779 13.4791 72.7934 15.6721Z" fill="white"/>
</g>
<path d="M68.5351 19.523C68.2036 19.523 67.872 19.4465 67.5406 19.2935C65.9086 18.5285 65.0415 16.0295 65.577 13.709C65.883 12.3575 66.6225 11.312 67.566 10.853C68.229 10.547 68.9175 10.5215 69.5805 10.8275C71.2125 11.5925 72.0795 14.0915 71.544 16.412C71.238 17.7635 70.4985 18.809 69.555 19.268C69.198 19.421 68.8665 19.523 68.5351 19.523ZM68.586 10.8785C68.28 10.8785 67.974 10.955 67.6935 11.0825C66.8265 11.4905 66.1381 12.5105 65.8576 13.76C65.3476 15.953 66.1636 18.3245 67.6681 19.0385C68.229 19.2935 68.8411 19.2935 69.4275 19.0385C70.2945 18.6305 70.983 17.6105 71.2635 16.361C71.7735 14.168 70.9575 11.7965 69.453 11.0825C69.1725 10.955 68.8665 10.8785 68.586 10.8785Z" fill="#786AB5"/>
<path d="M73.0743 16.4879C73.0233 16.4879 72.9468 16.4624 72.9213 16.4369C72.8958 16.4114 72.2328 15.9014 71.0853 16.1054C70.9578 16.1309 70.8047 16.0544 70.7792 15.9014C70.7537 15.7739 70.8303 15.6209 70.9833 15.5954C72.3603 15.3149 73.2018 16.0034 73.2528 16.0289C73.3548 16.1309 73.3803 16.2839 73.2783 16.3859C73.2273 16.4369 73.1508 16.4879 73.0743 16.4879Z" fill="#786AB5"/>
<path d="M41.0959 36.9905C40.7899 37.9085 43.1614 39.6425 46.4254 40.841C49.6895 42.0395 52.5965 42.269 52.9025 41.351C53.2085 40.433 50.837 38.699 47.5729 37.5005C44.3344 36.302 41.4274 36.0725 41.0959 36.9905Z" fill="#66192D"/>
<path d="M63.5107 68.8138L63.6127 62.1328C63.6382 61.2148 62.9242 60.4498 62.0062 60.3988C57.3907 60.0673 54.1267 58.6393 52.3672 56.1148C49.8937 52.6213 50.1742 47.2153 50.8372 43.4668C51.1942 41.5543 50.5567 40.2538 48.2362 39.0298C48.2362 39.0298 46.2472 37.9333 43.7737 37.4998C42.7792 37.3213 41.8102 37.7293 41.5552 38.6983C41.1472 40.2028 40.6372 42.5743 40.4077 45.3283C39.8212 51.9073 41.0963 57.6448 44.0797 61.8778C47.7517 67.1053 53.6422 69.9868 61.6492 70.4713C62.6692 70.5733 63.4852 69.8083 63.5107 68.8138Z" fill="#FDAD9B"/>
<g opacity="0.5">
<path opacity="0.5" d="M46.5026 60.1698C46.3241 60.1698 46.1456 60.1443 45.9416 60.0933C45.4316 59.9403 44.9216 59.5833 44.5391 59.0988C43.723 58.0788 43.6466 56.7528 44.3606 56.1663C45.1001 55.5798 46.3496 55.9368 47.1656 56.9568C47.9816 57.9768 48.0581 59.3028 47.3441 59.8893C47.1146 60.0678 46.8086 60.1698 46.5026 60.1698ZM45.2021 56.3448C44.9726 56.3448 44.7941 56.3958 44.6411 56.5233C44.1056 56.9568 44.2331 58.0023 44.8961 58.8183C45.2276 59.2263 45.6611 59.5323 46.0691 59.6598C46.4771 59.7873 46.8341 59.7363 47.0636 59.5323C47.5991 59.0988 47.4716 58.0533 46.8086 57.2373C46.3496 56.6763 45.7376 56.3448 45.2021 56.3448Z" fill="#E08B65"/>
</g>
<path d="M56.2939 85.7205C56.2939 85.7205 81.7174 80.85 89.9794 83.145L86.0269 89.01L71.3134 89.8515L56.2939 85.7205Z" fill="#786AB5"/>
<path d="M66.5452 61.0372H88.4752C88.9342 61.0372 89.3422 60.7567 89.4952 60.3232L94.0597 46.7062C94.2892 46.0177 93.7792 45.3037 93.0397 45.3037H71.9512C70.9822 45.3037 70.1407 45.9157 69.8347 46.8082L65.5507 59.6092C65.3212 60.3232 65.8312 61.0372 66.5452 61.0372Z" fill="#66192D"/>
<path d="M67.9222 61.0362H89.8522C90.3112 61.0362 90.7192 60.7557 90.8722 60.3222L95.4367 46.7052C95.6662 46.0167 95.1562 45.3027 94.4167 45.3027H73.3282C72.3592 45.3027 71.5177 45.9147 71.2117 46.8072L66.9277 59.6082C66.6982 60.3222 67.2082 61.0362 67.9222 61.0362Z" fill="#66192D"/>
<path d="M83.2987 52.7493C83.2987 52.2393 82.7122 52.0098 82.1768 52.0098C81.6668 52.0098 80.7998 52.5708 80.7998 53.3103C80.7998 54.1008 81.4118 54.2028 81.9473 54.2028C82.4828 54.1773 83.2987 53.3868 83.2987 52.7493Z" fill="#FECAFF"/>
<path d="M69.5035 52.188L69.376 52.1625C69.427 51.984 70.4725 48.0825 71.1865 46.8075C71.9006 45.5324 72.7676 45.2775 72.8186 45.252L72.8441 45.3795C72.8441 45.3795 71.9771 45.6345 71.314 46.8585C70.5745 48.108 69.5035 52.1625 69.5035 52.188Z" fill="#553E93"/>
<path d="M67.2848 58.7926L67.1318 58.7671L68.8403 53.6416L68.9933 53.6926L67.2848 58.7926Z" fill="#553E93"/>
<path d="M95.2835 56.1662C95.2835 56.1662 95.6406 59.0222 93.2181 59.3027C90.1326 59.6597 85.9251 56.8802 87.8631 56.6507C89.5971 56.4212 92.1216 56.7527 92.1216 56.7527C92.1216 56.7527 85.6702 55.8347 86.2822 54.4577C86.8941 53.0807 92.4021 53.9477 92.4021 53.9477C92.4021 53.9477 86.2057 52.4177 87.1492 51.3467C88.1181 50.2502 93.1416 51.0152 93.1416 51.0152C93.1416 51.0152 86.9961 49.8677 88.1436 48.6437C89.2911 47.4197 92.3766 48.6947 93.7791 48.9242C95.1051 49.1282 95.4366 50.1227 95.1816 51.4997C95.1816 51.4997 95.6661 53.0297 95.3091 53.8712C95.1561 54.2027 95.4366 54.5852 95.4366 54.8402C95.4621 55.2992 95.2835 56.1662 95.2835 56.1662Z" fill="#FDAD9B"/>
<path d="M60.3232 59.9653C60.3232 59.9653 61.9553 55.0438 64.7348 53.8453C67.5143 52.6468 71.9768 53.2078 70.4213 54.3298C68.8658 55.4518 66.4688 56.3188 66.4688 56.3188C66.4688 56.3188 71.6709 54.7123 71.5179 56.0893C71.3649 57.4663 66.8258 58.8433 66.8258 58.8433C66.8258 58.8433 73.1754 57.4153 72.6144 58.6648C72.0534 59.9143 67.2338 60.9853 67.2338 60.9853C67.2338 60.9853 73.2009 59.8888 72.5124 61.3423C71.8239 62.7958 67.5908 62.2093 67.4378 63.5863C67.2848 64.9633 66.2393 70.3949 62.3378 70.4459L60.3232 59.9653Z" fill="#FDAD9B"/>
<path d="M64.6073 57.4409L64.4033 57.3389C64.8368 56.4464 66.3667 56.1914 66.4432 56.1914L66.4687 56.4209C66.4687 56.4209 64.9898 56.6504 64.6073 57.4409Z" fill="#DD8964"/>
<path d="M64.5818 60.1948L64.4033 60.0673C65.2448 58.9453 66.7493 58.7158 66.8258 58.7158L66.8513 58.9453C66.8258 58.9198 65.3723 59.1238 64.5818 60.1948Z" fill="#DD8964"/>
<path d="M65.1171 62.209L64.9131 62.1325C65.2956 61.138 67.106 60.8575 67.1825 60.832L67.208 61.0615C67.208 61.0615 65.4486 61.342 65.1171 62.209Z" fill="#DD8964"/>
<path d="M92.8867 59.4553C91.9687 59.4553 90.9232 59.2003 90.8467 59.1748L90.8977 58.9453C91.5607 59.0983 93.3966 59.4298 93.9576 58.9708L94.1107 59.1493C93.8302 59.3788 93.3712 59.4553 92.8867 59.4553Z" fill="#DD8964"/>
<path d="M355.971 168.8L290.385 168.953L215.695 170.814L215.491 176.45L287.733 173.313C295 173.568 300.661 180.224 300.381 188.154C300.1 196.11 294.006 202.358 286.738 202.103L214.701 199.629L214.548 203.786L354.951 209.982C364.386 210.314 372.291 200.853 372.648 190.526C373.056 180.198 365.406 169.131 355.971 168.8Z" fill="#FFBA41"/>
<path d="M306.807 188.231C307.164 177.904 299.82 169.285 290.385 168.953L215.695 170.815L215.491 176.45L287.733 173.314C295 173.569 300.661 180.224 300.381 188.155C300.1 196.111 294.006 202.358 286.738 202.103L214.701 199.63L214.548 206.362H289.084C298.519 206.668 306.45 198.559 306.807 188.231Z" fill="#FFBA41"/>
<path d="M287.733 173.313L215.492 176.424C222.02 177.47 223.958 184.1 224.876 187.619C226.712 194.784 221.28 198.915 214.701 199.502V199.604L286.739 202.077C294.006 202.332 300.101 196.085 300.381 188.129C300.662 180.224 295.001 173.568 287.733 173.313Z" fill="#E1DCF7"/>
<path d="M242.966 190.979L242.957 191.361L286.166 192.364L286.175 191.981L242.966 190.979Z" fill="#66192D"/>
<path d="M302.217 199.834C302.013 199.834 301.809 199.757 301.681 199.579C301.477 199.324 301.554 198.967 301.86 198.814C301.911 198.788 306.577 195.983 307.317 188.155C308.082 180.377 301.783 177.368 301.707 177.343C301.401 177.19 301.273 176.858 301.452 176.578C301.63 176.297 302.013 176.195 302.319 176.348C302.599 176.476 309.433 179.714 308.592 188.231C307.776 196.646 302.778 199.604 302.548 199.732C302.472 199.808 302.344 199.834 302.217 199.834Z" fill="#552748"/>
<path d="M269.561 186.763L237.357 187.265L237.363 187.647L269.567 187.146L269.561 186.763Z" fill="#66192D"/>
<path d="M321.291 198.457L309.714 198.049C309.484 198.049 309.28 197.921 309.178 197.717C309.076 197.513 309.076 197.284 309.178 197.08C309.204 197.054 311.193 193.586 312.366 188.945C313.488 184.483 310.453 179.816 310.402 179.765C310.275 179.561 310.249 179.306 310.377 179.102C310.504 178.898 310.708 178.796 310.963 178.771L321.928 179.153C322.132 179.153 322.311 179.255 322.438 179.434C329.297 189.251 321.851 198.125 321.775 198.227C321.673 198.38 321.495 198.457 321.291 198.457ZM310.81 196.799L321.01 197.156C322.106 195.754 327.054 188.563 321.571 180.454L312.085 180.122C313.003 181.882 314.533 185.554 313.615 189.277C312.774 192.694 311.499 195.448 310.81 196.799Z" fill="#552748"/>
<path d="M215.338 205.52L281.256 205.596L355.818 210.11V215.745L283.729 210.033C276.462 210.033 270.571 216.459 270.571 224.415C270.571 232.371 276.436 238.823 283.704 238.848L355.792 238.925V243.081L215.287 242.928C205.852 242.928 198.228 234.539 198.228 224.211C198.253 213.858 205.929 205.494 215.338 205.52Z" fill="#553E93"/>
<path d="M264.171 224.262C264.171 213.934 271.846 205.57 281.256 205.57L355.818 210.084V215.719L283.729 210.007C276.462 210.007 270.571 216.433 270.571 224.389C270.571 232.345 276.436 238.797 283.704 238.822L355.792 238.899V243.055L281.23 242.979C271.795 242.979 264.171 234.589 264.171 224.262Z" fill="#553E93"/>
<path d="M283.755 210.033L355.843 215.72C349.29 216.536 347.097 223.089 346.077 226.583C343.986 233.672 349.264 237.981 355.818 238.823V238.925L283.729 238.848C276.462 238.848 270.597 232.371 270.597 224.415C270.597 216.459 276.487 210.033 283.755 210.033Z" fill="#E1DCF7"/>
<path d="M287.475 229.823L287.475 230.205L345.666 230.267L345.666 229.885L287.475 229.823Z" fill="#66192D"/>
<path d="M301.47 224.117L301.45 224.499L346.068 226.781L346.088 226.399L301.47 224.117Z" fill="#66192D"/>
<path d="M213.604 133.533L280.771 132.182L356.812 135.165L356.94 140.903L283.398 136.644C276.003 136.797 270.138 143.478 270.291 151.587C270.444 159.696 276.589 166.148 283.984 165.995L357.399 164.516L357.475 168.749L214.369 171.63C204.756 171.834 196.8 163.445 196.596 152.939C196.392 142.407 204.016 133.737 213.604 133.533Z" fill="#FF8548"/>
<path d="M263.763 151.587C263.559 141.056 271.158 132.386 280.771 132.182L356.812 135.165L356.94 140.903L283.398 136.644C276.003 136.797 270.138 143.478 270.291 151.587C270.444 159.696 276.589 166.148 283.984 165.995L357.399 164.516L357.475 168.749L281.511 170.279C271.923 170.483 263.967 162.119 263.763 151.587Z" fill="#FF8548"/>
<path d="M283.398 136.67L356.94 140.903C350.285 141.872 348.193 148.604 347.224 152.174C345.261 159.441 350.718 163.725 357.424 164.439V164.541L284.01 166.02C276.615 166.173 270.469 159.722 270.316 151.613C270.138 143.504 276.003 136.823 283.398 136.67Z" fill="#E1DCF7"/>
<path d="M346.873 155.549L287.598 156.696L287.606 157.104L346.881 155.957L346.873 155.549Z" fill="#66192D"/>
<path d="M265.497 163.903C265.395 163.903 265.268 163.878 265.166 163.801C264.962 163.674 260.474 160.512 259.862 151.689C259.25 142.764 265.472 139.474 265.752 139.321C266.033 139.168 266.39 139.296 266.543 139.576C266.696 139.857 266.568 140.214 266.288 140.367C266.058 140.494 260.474 143.478 261.035 151.612C261.621 159.874 265.803 162.807 265.829 162.832C266.084 163.011 266.16 163.368 265.982 163.648C265.854 163.801 265.676 163.903 265.497 163.903Z" fill="#552748"/>
<path d="M301.729 150.576L301.717 150.983L347.216 152.346L347.228 151.938L301.729 150.576Z" fill="#66192D"/>
<path d="M250.171 160.716C248.59 160.716 247.137 159.849 246.397 158.447C245.071 155.948 243.286 150.924 246.193 145.39C246.882 144.064 248.284 143.197 249.84 143.172L252.211 143.121C253.537 143.095 254.761 143.656 255.603 144.702C256.444 145.722 256.75 147.022 256.47 148.297C256.164 149.7 256.138 151.026 256.419 152.224C256.648 153.142 256.903 154.086 257.235 155.03C257.668 156.33 257.464 157.707 256.674 158.829C255.883 159.951 254.634 160.614 253.257 160.64L250.247 160.691C250.247 160.716 250.222 160.716 250.171 160.716ZM249.891 144.37C248.769 144.396 247.749 145.008 247.239 145.951C244.587 151 246.244 155.616 247.442 157.911C247.978 158.931 249.074 159.569 250.247 159.543L253.257 159.492C254.251 159.467 255.169 158.982 255.73 158.166C256.291 157.35 256.444 156.356 256.138 155.412C255.807 154.443 255.526 153.474 255.297 152.505C254.965 151.128 254.991 149.623 255.348 148.042C255.552 147.124 255.322 146.181 254.736 145.441C254.124 144.702 253.231 144.268 252.262 144.294L249.891 144.37Z" fill="#552748"/>
<path d="M159.161 183.462L97.4258 181.601L27.4537 183.233L27.2752 187.976L94.9522 185.273C101.761 185.477 107.065 191.061 106.81 197.768C106.555 204.474 100.843 209.727 94.0343 209.523L26.5357 207.509L26.4082 211.002L157.963 214.955C166.786 215.21 174.206 208.401 174.538 199.706C174.895 190.985 167.984 183.717 159.161 183.462Z" fill="#FF8548"/>
<path d="M112.828 197.819C113.159 189.123 106.249 181.856 97.4258 181.601L27.4537 183.233L27.2752 187.976L94.9523 185.273C101.761 185.477 107.065 191.061 106.81 197.768C106.555 204.474 100.843 209.727 94.0343 209.523L26.5357 207.509L26.4082 211.002L96.2273 213.093C105.101 213.348 112.522 206.514 112.828 197.819Z" fill="#FF8548"/>
<path d="M94.9779 185.272L27.3009 187.975C33.3954 188.842 35.2569 194.427 36.0984 197.41C37.8069 203.454 32.7324 206.922 26.5869 207.432V207.508L94.0854 209.523C100.894 209.727 106.606 204.474 106.861 197.767C107.09 191.086 101.761 185.476 94.9779 185.272Z" fill="#E1DCF7"/>
<path d="M36.3437 200.189L36.333 200.546L90.7993 202.182L90.81 201.825L36.3437 200.189Z" fill="#66192D"/>
<path d="M77.9468 196.613L36.1055 197.249L36.1109 197.606L77.9522 196.97L77.9468 196.613Z" fill="#66192D"/>
<path d="M26.6379 211.308H82.1513L144.932 215.031V219.774L84.2423 215.031C78.1223 215.031 73.1753 220.462 73.1753 227.169C73.1753 233.875 78.1223 239.307 84.2423 239.307H144.932V242.8H26.6379C18.7074 242.8 12.2559 235.762 12.2559 227.067C12.2559 218.346 18.6819 211.308 26.6379 211.308Z" fill="#786AB5"/>
<path d="M67.7441 227.041C67.7441 218.346 74.1701 211.308 82.1261 211.308L146.514 214.597L144.907 219.774L84.2172 215.031C78.0972 215.031 73.1502 220.462 73.1502 227.169C73.1502 233.875 78.0972 239.307 84.2172 239.307H144.907V242.8H82.1261C74.1956 242.8 67.7441 235.737 67.7441 227.041Z" fill="#786AB5"/>
<path d="M84.2174 215.057L144.907 219.774C139.399 220.463 137.563 225.996 136.696 228.929C134.962 234.896 139.399 238.517 144.907 239.231V239.307H84.2174C78.0974 239.307 73.1504 233.876 73.1504 227.169C73.1504 220.463 78.0974 215.057 84.2174 215.057Z" fill="#E1DCF7"/>
<path d="M136.365 231.683H87.3789V232.014H136.365V231.683Z" fill="#66192D"/>
<path d="M40.6117 236.757C40.4587 236.655 36.7357 233.926 36.3787 226.557C36.0217 219.085 41.2747 216.433 41.5042 216.331L41.9377 217.224L41.7337 216.79L41.9377 217.224C41.7337 217.326 37.0417 219.723 37.3732 226.531C37.7047 233.442 41.1727 235.966 41.1982 235.992L40.6117 236.757Z" fill="#552748"/>
<path d="M99.1074 226.899L99.0908 227.23L136.654 229.111L136.671 228.78L99.1074 226.899Z" fill="#66192D"/>
<path d="M25.5923 217.402H28.5758C31.2023 217.402 33.0893 219.876 32.4263 222.4C32.0438 223.879 31.8908 225.562 32.2478 227.271C32.5028 228.495 32.8343 229.668 33.1658 230.713C33.9818 233.289 32.0438 235.915 29.3663 235.915H25.6433C24.1388 235.915 22.7873 235.074 22.0987 233.748C20.6197 230.866 18.8347 225.435 22.0733 219.519C22.7873 218.193 24.1388 217.402 25.5923 217.402Z" fill="#552748"/>
<path d="M353.829 135.445L175.252 133.609C171.427 133.558 168.342 130.778 168.342 127.387V30.028C168.342 26.611 171.402 23.857 175.227 23.806L351.508 21.3835C355.359 21.3325 358.521 24.061 358.597 27.478L360.892 129.07C360.969 132.614 357.781 135.496 353.829 135.445Z" fill="#786AB5"/>
<path d="M353.906 32.3745V123.945C353.906 125.883 352.325 127.464 350.387 127.464H178.823C176.885 127.464 175.304 125.883 175.304 123.945V32.3745C175.304 30.4365 176.885 28.8555 178.823 28.8555H350.361C352.325 28.8555 353.906 30.4365 353.906 32.3745Z" fill="#C8C1E1"/>
<path d="M353.906 116.192V119.099C353.906 120.884 352.452 122.338 350.667 122.338H247.928C247.698 122.287 247.469 122.21 247.265 122.134C254.583 115.019 268.659 103.876 287.886 100.127C289.289 99.8468 290.742 99.6173 292.196 99.4133C293.496 99.2348 294.797 99.1073 296.148 99.0053C296.225 99.0053 296.301 99.0053 296.352 98.9798C300.432 98.6993 304.538 98.8523 308.567 99.2603C309.383 99.3368 310.199 99.4388 311.015 99.5408C312.213 99.6938 313.386 99.8723 314.534 100.051C333.761 103.136 346.077 109.613 353.906 116.192Z" fill="#552748"/>
<path d="M309.382 104.106C311.55 100.765 308.439 100.459 307.444 97.0677L304.384 86.5872L303.492 83.5272L298.239 65.5752L297.219 83.3232L296.607 93.9822L296.403 97.3482C296.275 99.6432 295.638 99.9492 293.904 101.913C293.19 102.703 290.589 105.916 293.929 107.548C296.964 109.002 306.603 108.364 309.382 104.106Z" fill="#FDAD9B"/>
<path d="M308.362 82.5583C308.362 82.5583 325.83 76.4638 323.229 63.4587C320.628 50.4537 307.291 75.2143 307.291 75.2143L306.577 82.0227L308.362 82.5583Z" fill="#66192D"/>
<path d="M304.41 86.3068C304.385 86.4088 304.385 86.5108 304.359 86.5873C303.186 92.1973 296.633 94.0333 296.633 94.0333L296.607 94.0078L297.219 83.3488C299.208 82.9153 301.988 82.5838 303.467 83.5528C304.257 84.0373 304.665 84.9043 304.41 86.3068Z" fill="#66192D"/>
<path d="M281.435 68.2778C282.786 57.9503 290.844 50.4788 299.412 51.6008C307.98 52.7228 313.82 62.0048 312.468 72.3323C311.117 82.6598 303.059 90.1313 294.491 89.0093C285.923 87.9128 280.058 78.6053 281.435 68.2778Z" fill="#FDAD9B"/>
<path d="M310.453 69.8844C310.453 69.8844 305.302 70.9299 303.109 67.0794C300.916 63.2289 299.641 59.9395 290.691 60.2965C281.74 60.628 274.498 55.375 274.881 50.6065C275.263 45.838 280.159 44.2825 284.647 46.552C289.135 48.8215 284.724 43.8235 289.849 40.9675C294.975 38.1115 301.069 46.195 306.042 45.889C311.014 45.5575 326.136 50.173 323.229 63.4584L310.453 69.8844Z" fill="#66192D"/>
<path d="M312.417 73.6841C310.836 74.7041 308.822 74.3726 307.904 72.9446C307.011 71.5166 307.547 69.5531 309.153 68.5586C310.734 67.5386 312.749 67.8702 313.667 69.2981C314.559 70.7006 313.998 72.6641 312.417 73.6841Z" fill="#FDAD9B"/>
<path d="M286.509 53.1817C284.928 53.1817 283.73 52.8757 282.939 52.2637C281.588 51.1928 281.486 50.2238 281.868 49.6883C282.302 49.0508 283.5 48.8213 284.75 49.5608C286.892 50.8102 288.473 50.6063 288.473 50.6063L288.498 50.8103C288.422 50.8103 286.841 51.0143 284.622 49.7393C283.475 49.0763 282.404 49.2548 282.021 49.8158C281.715 50.2748 281.817 51.1162 283.067 52.1107C285.642 54.1507 292.553 51.9832 292.604 51.9577L292.68 52.1617C292.655 52.1617 290.895 52.7227 288.83 53.0032C287.988 53.1052 287.223 53.1817 286.509 53.1817Z" fill="white"/>
<path d="M314.916 49.995C313.08 48.6945 310.836 48.822 308.26 48.975C306.934 49.0515 305.583 49.128 304.104 49.0515C299.641 48.7965 295.944 44.589 295.816 44.1555L296.02 44.1045C296.122 44.3595 299.641 48.618 304.129 48.8475C305.608 48.924 306.96 48.8475 308.26 48.771C310.887 48.618 313.182 48.4905 315.069 49.8165L314.916 49.995Z" fill="white"/>
<path d="M320.067 61.036H320.042C319.379 60.985 318.308 58.996 318.282 58.0015C318.257 57.4915 318.512 57.364 318.665 57.364C319.914 57.1855 320.526 60.2455 320.552 60.373V60.3985V60.424C320.475 60.9085 320.246 61.036 320.067 61.036ZM318.767 57.5424C318.741 57.5424 318.716 57.5424 318.69 57.5424C318.639 57.5424 318.461 57.568 318.486 57.976C318.512 58.9195 319.532 60.781 320.042 60.8065C320.195 60.8065 320.271 60.577 320.322 60.373C320.195 59.557 319.608 57.5424 318.767 57.5424Z" fill="white"/>
<path d="M294.006 69.5278C293.929 69.4768 293.878 69.4003 293.853 69.2983C293.827 69.1198 293.955 68.9668 294.133 68.9668C294.235 68.9668 296.607 68.5333 297.78 71.0578C297.856 71.2108 297.805 71.4148 297.627 71.4913C297.474 71.5678 297.321 71.4913 297.193 71.3383C296.097 69.9868 294.235 69.6043 294.159 69.6043C294.108 69.5788 294.057 69.5533 294.006 69.5278Z" fill="#060633"/>
<path d="M295.383 73.6071C295.179 74.3466 294.593 74.8056 294.057 74.6781C293.522 74.5251 293.266 73.8366 293.47 73.0971C293.674 72.3576 294.261 71.8986 294.797 72.0261C295.307 72.1536 295.562 72.8676 295.383 73.6071Z" fill="#060633"/>
<path d="M282.276 68.5844C282.2 68.5589 282.149 68.5079 282.098 68.4314C282.047 68.2784 282.098 68.0999 282.225 67.9979C282.302 67.9469 283.934 66.5954 285.464 68.3549C285.566 68.4569 285.566 68.6609 285.464 68.7884C285.362 68.9159 285.234 68.9159 285.107 68.8394C283.934 68.0744 282.48 68.4824 282.429 68.5334C282.378 68.5844 282.302 68.6099 282.276 68.5844Z" fill="#060633"/>
<path d="M285.158 71.8483C285.26 72.5878 284.877 73.2507 284.342 73.3272C283.806 73.4037 283.271 72.8428 283.194 72.1033C283.092 71.3638 283.475 70.7008 284.01 70.6243C284.546 70.5223 285.056 71.0833 285.158 71.8483Z" fill="#060633"/>
<path d="M293.522 83.6044C290.717 83.6044 288.498 81.8959 288.473 81.8704C288.371 81.7939 288.371 81.6664 288.447 81.5644C288.524 81.4624 288.651 81.4624 288.753 81.5389C288.932 81.6919 293.114 84.9559 297.27 81.9469C297.372 81.8704 297.5 81.8959 297.576 81.9979C297.653 82.0999 297.627 82.2274 297.525 82.3039C296.174 83.2474 294.771 83.6044 293.522 83.6044Z" fill="#020202"/>
<path d="M297.704 83.1706C297.551 83.1451 297.474 83.0431 297.474 82.9156C297.5 82.5841 297.423 82.0486 296.837 81.2581C296.811 81.2326 296.811 81.2071 296.786 81.2071C296.709 81.1051 296.76 80.9776 296.862 80.9011C296.964 80.8246 297.092 80.8756 297.168 80.9776L297.194 81.0031C297.729 81.7426 297.959 82.4056 297.908 82.9666C297.908 83.0941 297.831 83.1706 297.704 83.1706Z" fill="#020202"/>
<path d="M280.874 81.2319C280.084 81.2319 279.293 81.0024 278.554 80.5434C276.539 79.2939 275.137 76.4889 274.78 73.0464C274.193 67.4619 276.59 61.8519 280.109 60.5769C281.41 60.0924 282.736 60.2454 283.934 60.9849C285.949 62.2344 287.351 65.0394 287.708 68.4819C288.295 74.0664 285.898 79.6764 282.379 80.9514C281.869 81.1299 281.384 81.2319 280.874 81.2319ZM281.614 60.9594C281.18 60.9594 280.772 61.0359 280.339 61.1889C277.075 62.3874 274.882 67.6659 275.443 72.9699C275.774 76.2084 277.075 78.8094 278.911 79.9569C279.931 80.5944 281.053 80.7219 282.175 80.3139C285.439 79.1154 287.632 73.8369 287.071 68.5329C286.739 65.2944 285.439 62.6934 283.603 61.5459C282.965 61.1634 282.302 60.9594 281.614 60.9594Z" fill="white"/>
<g opacity="0.3">
<path opacity="0.3" d="M305.175 68.5585C305.277 73.888 302.268 78.988 298.468 79.9315C294.669 80.875 291.507 77.305 291.405 71.95C291.303 66.6205 294.312 61.5205 298.111 60.577C301.911 59.6335 305.073 63.2035 305.175 68.5585Z" fill="white"/>
</g>
<g opacity="0.3">
<path opacity="0.3" d="M287.758 68.9159C287.86 74.2709 285.157 79.5239 281.715 80.5949C278.272 81.6914 275.416 78.2234 275.314 72.8429C275.212 67.4879 277.915 62.2349 281.358 61.1639C284.8 60.0929 287.656 63.5609 287.758 68.9159Z" fill="white"/>
</g>
<path d="M296.99 80.1605C295.791 80.1605 294.644 79.7525 293.649 78.9875C291.66 77.4575 290.462 74.6525 290.385 71.3375C290.258 65.6255 293.547 60.1684 297.729 59.1739C299.412 58.7659 301.044 59.1229 302.421 60.1939C304.41 61.724 305.609 64.529 305.685 67.844C305.813 73.556 302.523 79.013 298.341 80.0075C297.882 80.1095 297.423 80.1605 296.99 80.1605ZM299.055 59.6585C298.673 59.6585 298.265 59.7094 297.882 59.8114C293.981 60.7294 290.921 65.906 291.048 71.312C291.125 74.3975 292.247 77.075 294.057 78.452C295.281 79.3955 296.709 79.7015 298.188 79.3445C302.09 78.4265 305.15 73.25 305.022 67.844C304.946 64.7585 303.824 62.081 302.013 60.7039C301.095 60.0154 300.101 59.6585 299.055 59.6585Z" fill="white"/>
<path d="M291.813 70.8279C291.736 70.8279 291.66 70.8024 291.583 70.7769C288.982 69.6804 287.121 70.6239 287.121 70.6239C286.815 70.7769 286.458 70.6749 286.279 70.3689C286.126 70.0629 286.228 69.7059 286.534 69.5274C286.636 69.4764 288.931 68.3034 292.068 69.6294C292.374 69.7569 292.527 70.1139 292.399 70.4454C292.272 70.6749 292.042 70.8279 291.813 70.8279Z" fill="white"/>
<path d="M323.305 63.611L323.152 63.305C325.677 62.03 325.039 59.2504 325.014 59.2249L325.345 59.1484C325.371 59.1739 326.085 62.2085 323.305 63.611Z" fill="#66192D"/>
<path d="M325.142 67.3087C325.117 67.2832 323.765 65.2177 322.312 64.8862L322.388 64.5547C323.995 64.9117 325.372 67.0282 325.448 67.1302L325.142 67.3087Z" fill="#66192D"/>
<g opacity="0.5">
<path opacity="0.5" d="M252.288 81.3338H204.246C202.869 81.3338 201.747 80.2118 201.747 78.8348V51.0908C201.747 49.7138 202.869 48.5918 204.246 48.5918H252.288C253.665 48.5918 254.787 49.7138 254.787 51.0908V78.8348C254.787 80.2118 253.665 81.3338 252.288 81.3338Z" fill="#FF443C"/>
</g>
<path d="M241.629 72.3328H193.587C192.21 72.3328 191.088 71.2108 191.088 69.8338V42.0898C191.088 40.7128 192.21 39.5908 193.587 39.5908H241.629C243.006 39.5908 244.128 40.7128 244.128 42.0898V69.8338C244.153 71.2108 243.006 72.3328 241.629 72.3328Z" fill="#FF443C"/>
<path d="M241.169 111.423V111.449C241.041 112.29 240.939 113.234 240.837 114.305C240.633 116.472 240.48 119.099 240.429 122.057H213.654C213.807 113.999 214.598 108.491 214.649 108.134L216.842 108.414L227.475 109.74L227.883 109.791L228.393 109.868L240.327 111.347L241.169 111.423Z" fill="#F18C7E"/>
<path d="M214.598 108.134C214.598 108.134 214.955 91.0748 217.607 88.1678C220.233 85.2863 240.174 87.5048 241.679 91.6358C243.158 95.7413 241.194 111.424 241.194 111.424L214.598 108.134Z" fill="#F18C7E"/>
<path d="M226.303 116.498C226.175 116.498 226.048 116.396 226.048 116.269C226.048 116.192 225.971 114.458 226.303 112.546C226.762 109.919 227.756 108.364 229.261 107.93C234.82 106.273 237.905 103.009 237.931 102.958C238.033 102.856 238.186 102.856 238.288 102.932C238.39 103.034 238.39 103.187 238.313 103.289C238.186 103.417 235.1 106.706 229.414 108.389C226.252 109.333 226.558 116.167 226.558 116.218C226.583 116.371 226.456 116.498 226.303 116.498C226.328 116.498 226.328 116.498 226.303 116.498Z" fill="#E08B65"/>
<path d="M242.19 95.5121C242.19 95.5121 243.006 69.0686 240.277 68.6351C236.274 67.9721 234.693 78.9371 234.004 86.8931C233.341 94.8236 242.19 95.5121 242.19 95.5121Z" fill="#F18C7E"/>
<path d="M232.525 80.6715C233.978 80.9265 235.406 80.4675 236.095 88.551C236.426 92.58 236.707 105.305 232.907 104.642C229.108 104.004 227.807 89.5965 227.807 89.5965C227.807 89.5965 227.884 106.121 224.569 104.387C221.254 102.653 219.979 89.5965 219.979 89.5965C219.979 89.5965 220.973 105.687 217.174 103.596C213.374 101.505 212.201 92.937 212.533 89.265C212.941 84.675 216.281 84.3945 219.877 84.165C219.877 84.165 223.421 81.972 225.767 82.38C226.609 82.533 229.72 80.187 232.525 80.6715Z" fill="#FDAD9B"/>
<path d="M240.838 114.331C240.838 114.331 244.612 111.22 247.111 105.202C249.61 99.1581 255.195 93.2421 253.588 90.8706C251.982 88.4736 244.025 93.8031 241.399 99.1836C238.798 104.513 240.838 114.331 240.838 114.331Z" fill="#F18C7E"/>
<path d="M353.906 118.691V123.944C353.906 125.882 352.325 127.463 350.387 127.463H178.823C176.885 127.463 175.304 125.882 175.304 123.944V120.451C196.061 120.119 313.335 119.074 353.906 118.691Z" fill="#FF443C"/>
<path d="M340.907 122.424L186.505 123.277L186.512 124.654L340.915 123.801L340.907 122.424Z" fill="#C8C1E1"/>
<path d="M264.044 122.822L263.865 124.199L186.498 124.633V123.256L264.044 122.822Z" fill="#FF8548"/>
<path d="M261.392 123.511C261.392 122.236 262.412 121.216 263.687 121.216C264.962 121.216 265.982 122.236 265.982 123.511C265.982 124.786 264.962 125.806 263.687 125.806C262.412 125.806 261.392 124.786 261.392 123.511Z" fill="#FF8548"/>
<path d="M330.471 35.103C330.471 34.1595 331.236 33.3945 332.179 33.3945C333.123 33.3945 333.888 34.1595 333.888 35.103C333.888 36.0465 333.123 36.8115 332.179 36.8115C331.236 36.8115 330.471 36.0465 330.471 35.103Z" fill="#FFBA41"/>
<path d="M336.616 35.103C336.616 34.1595 337.381 33.3945 338.325 33.3945C339.268 33.3945 340.033 34.1595 340.033 35.103C340.033 36.0465 339.268 36.8115 338.325 36.8115C337.381 36.8115 336.616 36.0465 336.616 35.103Z" fill="#F22525"/>
<path d="M342.94 35.103C342.94 34.1595 343.705 33.3945 344.649 33.3945C345.592 33.3945 346.357 34.1595 346.357 35.103C346.357 36.0465 345.592 36.8115 344.649 36.8115C343.68 36.8115 342.94 36.0465 342.94 35.103Z" fill="#553E93"/>
<path d="M219.929 61.3925L221.688 57.2615C221.943 56.7005 222.632 56.4965 223.142 56.8535L225.488 58.562C226.023 58.9445 226.788 58.6895 226.967 58.0775L228.318 53.7425C228.471 53.2325 229.032 52.9265 229.568 53.1305L230.868 53.5895C231.276 53.717 231.71 53.5895 231.965 53.258L232.169 52.9775C232.73 52.238 233.903 52.6205 233.903 53.564V61.826C233.903 62.3615 233.469 62.795 232.934 62.795H220.821C220.133 62.744 219.674 62.03 219.929 61.3925Z" fill="#FF8548"/>
<path d="M234.642 65.4478H234.617L198.534 64.8613C197.591 64.8358 196.826 64.1218 196.749 63.1783L196.01 52.6978C195.984 52.1878 196.137 51.7288 196.469 51.3463C196.8 50.9638 197.259 50.7598 197.769 50.7598L234.591 50.0713C235.076 50.0713 235.535 50.2498 235.892 50.5813C236.249 50.9128 236.427 51.3718 236.427 51.8818V63.6628C236.427 64.1473 236.223 64.6063 235.892 64.9633C235.586 65.2693 235.127 65.4478 234.642 65.4478ZM234.642 50.4283H234.617L197.795 51.1168C197.387 51.1168 197.03 51.2953 196.749 51.6013C196.469 51.9073 196.341 52.2898 196.367 52.6978L197.106 63.1783C197.157 63.9433 197.769 64.5298 198.534 64.5298L234.617 65.1163C235.025 65.1163 235.382 64.9633 235.662 64.7083C235.943 64.4533 236.096 64.0708 236.096 63.6628V51.8818C236.096 51.4993 235.943 51.1168 235.662 50.8363C235.407 50.5558 235.05 50.4283 234.642 50.4283Z" fill="#FECAFF"/>
<path d="M213.936 58.7919H200.88C200.6 58.7919 200.141 58.4859 200.115 58.2053C200.039 57.6188 200.6 57.4658 200.88 57.4658L213.936 57.7463C214.217 57.7463 214.446 57.9758 214.446 58.2563C214.446 58.5624 214.217 58.7919 213.936 58.7919Z" fill="#FECAFF"/>
<path d="M210.544 56.3445H200.701C200.497 56.3445 200.14 56.1149 200.115 55.8854C200.064 55.4264 200.472 55.2734 200.701 55.2734L210.544 55.5029C210.748 55.5029 210.927 55.6814 210.927 55.9109C210.927 56.1659 210.748 56.3445 210.544 56.3445Z" fill="#FECAFF"/>
<path d="M210.544 61.2654H200.701C200.497 61.2654 200.14 61.0359 200.115 60.8064C200.064 60.3473 200.472 60.1943 200.701 60.1943L210.544 60.4238C210.748 60.4238 210.927 60.6023 210.927 60.8319C210.927 61.0869 210.748 61.2654 210.544 61.2654Z" fill="#FECAFF"/>
<path d="M210.417 44.6395H197.361C197.08 44.6395 196.621 44.3335 196.596 44.053C196.519 43.4665 197.08 43.3135 197.361 43.3135L210.417 43.594C210.697 43.594 210.927 43.8235 210.927 44.104C210.927 44.41 210.697 44.6395 210.417 44.6395Z" fill="#FECAFF"/>
<path d="M207.026 47.113H197.183C196.953 47.113 196.622 46.8835 196.596 46.654C196.545 46.195 196.953 46.042 197.183 46.042L207.026 46.2715C207.255 46.2715 207.408 46.45 207.408 46.6795C207.434 46.909 207.255 47.113 207.026 47.113Z" fill="#FECAFF"/>
<path d="M234.565 199.043C235.483 200.7 244.816 215.133 242.853 229.235L232.704 225.563L228.062 206.54L234.565 199.043Z" fill="#FDAD9B"/>
<path d="M194.071 193.127C194.071 193.127 200.293 181.958 215.465 185.044C230.638 188.129 238.9 209.855 234.794 252.848C234.794 252.848 210.697 243.26 179.357 250.987C179.357 250.987 184.508 209.345 194.071 193.127Z" fill="#FF8548"/>
<path d="M182.494 188.613L193.153 199.247C193.153 199.247 220.489 206.642 228.088 206.54C235.687 206.463 238.671 200.904 238.671 200.904C238.671 200.904 232.27 190.755 219.291 186.165C218.067 185.732 216.792 185.349 215.466 185.018C213.222 184.482 210.952 184.176 208.683 184.023C195.27 183.258 182.494 188.613 182.494 188.613Z" fill="#FF8548"/>
<path d="M182.494 188.613C180.785 190.475 183.412 192.489 186.37 195.422C189.302 198.354 192.362 200.063 193.153 199.247C193.969 198.431 192.235 195.371 189.277 192.438C186.344 189.506 183.284 187.746 182.494 188.613Z" fill="#66192D"/>
<path d="M191.726 199.298C191.726 199.298 191.879 197.181 189.201 194.453C187.595 192.821 185.555 191.75 184.178 191.163C183.362 190.806 182.418 191.214 182.112 192.03L181.245 194.223L185.223 196.773L191.726 199.298Z" fill="#FDAD9B"/>
<path d="M210.57 238.72C210.57 238.72 177.675 220.896 165.894 240.352C157.173 254.734 170.28 268.147 218.934 266.796C218.934 266.796 223.753 264.552 222.58 252.847C222.121 248.206 210.57 238.72 210.57 238.72Z" fill="#786AB5"/>
<path d="M210.57 238.721C210.57 238.721 254.379 220.769 263.049 231.989C273.02 244.892 263.457 266.771 217.277 258.942L211.641 252.822L210.57 238.721Z" fill="#786AB5"/>
<path d="M219.01 266.848L218.908 266.695C224.008 263.048 222.631 253.69 222.529 252.899L189.328 240.812L189.379 240.634L222.682 252.746V252.797C222.682 252.925 224.391 262.997 219.01 266.848Z" fill="#020202"/>
<path d="M222.861 256.061C222.861 256.061 230.945 256.392 234.719 258.254C238.518 260.115 236.478 264.654 228.777 264.527C221.076 264.399 221.663 263.252 221.663 263.252C221.663 263.252 223.142 259.274 222.861 256.061Z" fill="#66192D"/>
<path d="M212.534 239.562C215.211 239.562 217.404 238.874 219.189 237.548C222.555 235.023 223.167 230.969 222.683 228.266L219.47 226.404C219.317 225.512 213.095 228.801 213.12 228.801C213.095 228.801 210.162 229.668 199.988 224.466C192.899 220.845 189.329 215.72 189.074 208.758C188.87 203.531 191.216 200.573 191.751 199.298C191.828 199.119 188.334 195.626 188.436 195.269L185.81 193.943C185.886 193.637 183.285 192.617 183.336 192.54L181.322 194.274C180.327 196.595 178.21 201.899 178.465 209.192C178.746 216.791 181.883 227.246 195.194 234.054C202.436 237.726 208.122 239.562 212.534 239.562Z" fill="#FDAD9B"/>
<path d="M214.7 239.996H243.082C243.668 239.996 244.204 239.613 244.382 239.052L250.273 221.432C250.579 220.539 249.916 219.621 248.972 219.621H221.662C220.412 219.621 219.316 220.412 218.933 221.585L213.374 238.185C213.094 239.078 213.757 239.996 214.7 239.996Z" fill="#66192D"/>
<path d="M216.46 239.996H244.841C245.428 239.996 245.963 239.613 246.142 239.052L252.032 221.432C252.338 220.539 251.675 219.621 250.732 219.621H223.421C222.172 219.621 221.075 220.412 220.693 221.585L215.134 238.185C214.853 239.078 215.542 239.996 216.46 239.996Z" fill="#66192D"/>
<path d="M236.35 229.235C236.35 228.572 235.585 228.291 234.897 228.291C234.234 228.291 233.112 229.031 233.137 229.974C233.137 230.994 233.928 231.122 234.616 231.122C235.305 231.122 236.35 230.102 236.35 229.235Z" fill="#FECAFF"/>
<path d="M206.031 237.497H244.867V239.996H205.215C204.756 239.996 204.373 239.614 204.373 239.155C204.373 238.237 205.113 237.497 206.031 237.497Z" fill="#66192D"/>
<path d="M218.5 228.546L218.321 228.495C218.372 228.291 219.724 223.191 220.642 221.559C221.56 219.902 222.707 219.57 222.758 219.545L222.809 219.723C222.809 219.723 221.687 220.055 220.82 221.636C219.902 223.268 218.5 228.495 218.5 228.546Z" fill="#553E93"/>
<path d="M214.292 237.599V237.42C215.21 237.42 215.465 237.038 215.465 237.038L217.658 230.459L217.836 230.51L215.618 237.114C215.618 237.14 215.337 237.599 214.292 237.599Z" fill="#553E93"/>
<path d="M187.008 224.288C186.906 224.288 186.804 224.262 186.702 224.237C186.09 224.084 185.427 223.472 184.942 222.63C184.228 221.381 184.203 220.08 184.891 219.672C185.095 219.545 185.376 219.519 185.656 219.596C186.268 219.749 186.931 220.361 187.416 221.202C188.13 222.452 188.155 223.752 187.467 224.16C187.339 224.262 187.186 224.288 187.008 224.288ZM185.274 222.477C185.682 223.217 186.294 223.752 186.804 223.905C187.008 223.956 187.161 223.956 187.288 223.88C187.798 223.599 187.696 222.452 187.11 221.406C186.702 220.667 186.09 220.131 185.58 219.978C185.376 219.927 185.223 219.927 185.095 220.004C184.585 220.31 184.662 221.432 185.274 222.477Z" fill="#E08B65"/>
<path d="M208.453 184.024C210.315 183.973 211.743 183.769 212.814 182.519L216.129 178.618L217.098 177.47L222.784 170.789L219.801 178.618L218.016 183.31L217.455 184.789C217.072 185.809 217.582 186.268 217.939 187.441C218.092 187.925 219.061 190.858 216.511 190.883C213.324 190.909 209.32 187.211 208.428 184.024C208.428 184.024 208.428 184.024 208.453 184.024Z" fill="#FDAD9B"/>
<path d="M215.211 176.118C215.211 176.118 208.963 170.1 212.559 165.026C216.18 159.951 217.072 173.16 217.072 173.16L216.052 176.22L215.211 176.118Z" fill="#66192D"/>
<path d="M216.154 178.49C216.154 178.541 216.129 178.592 216.129 178.618C215.542 181.244 217.99 183.31 217.99 183.31H218.016L219.801 178.618C219.036 178.057 217.914 177.368 217.098 177.496C216.664 177.547 216.333 177.827 216.154 178.49Z" fill="#66192D"/>
<path d="M229.415 175.226C230.817 170.534 228.828 165.765 224.978 164.567C221.127 163.394 216.843 166.224 215.441 170.942C214.038 175.634 216.027 180.402 219.878 181.601C223.728 182.774 227.987 179.918 229.415 175.226Z" fill="#FDAD9B"/>
<path d="M216.742 170.253C216.742 170.253 218.73 171.707 220.413 170.483C222.096 169.259 223.269 168.086 226.992 169.973C230.741 171.86 234.821 171.018 235.586 168.902C236.351 166.785 234.566 165.153 232.22 165.255C229.874 165.357 232.704 164.082 231.072 161.838C229.44 159.62 225.284 161.915 223.244 160.793C221.179 159.696 213.86 158.727 212.56 165L216.742 170.253Z" fill="#66192D"/>
<path d="M215.186 171.503C215.67 172.242 216.588 172.497 217.251 172.064C217.914 171.63 218.042 170.687 217.557 169.947C217.073 169.208 216.155 168.953 215.492 169.386C214.854 169.82 214.701 170.763 215.186 171.503Z" fill="#FDAD9B"/>
<path d="M231.455 168.162C229.874 168.162 227.757 166.249 227.655 166.147L227.834 165.943C227.859 165.969 230.358 168.213 231.786 167.83C232.347 167.703 232.653 167.422 232.602 167.142C232.551 166.861 232.169 166.632 231.608 166.683C230.384 166.81 229.721 166.402 229.695 166.377L229.848 166.147C229.848 166.147 230.46 166.53 231.582 166.402C232.322 166.326 232.806 166.708 232.883 167.091C232.934 167.422 232.704 167.881 231.863 168.085C231.735 168.136 231.608 168.162 231.455 168.162Z" fill="white"/>
<path d="M225.003 162.91C224.493 162.91 223.957 162.833 223.447 162.629C222.784 162.374 222.223 162.068 221.688 161.788C220.617 161.227 219.699 160.742 218.704 160.946L218.653 160.666C219.75 160.462 220.693 160.946 221.815 161.533C222.351 161.813 222.912 162.119 223.549 162.374C225.462 163.114 227.68 162.043 227.808 161.915L228.012 162.094C227.884 162.247 226.507 162.91 225.003 162.91Z" fill="white"/>
<path d="M214.446 164.694C214.395 164.694 214.37 164.694 214.344 164.668C214.242 164.643 214.115 164.515 214.191 164.184L214.217 164.133C214.37 163.903 215.16 162.832 215.721 163.189C215.798 163.24 215.951 163.368 215.798 163.648C215.594 164.031 214.88 164.694 214.446 164.694ZM214.446 164.286C214.421 164.388 214.446 164.413 214.446 164.413C214.523 164.439 214.905 164.26 215.288 163.852C215.543 163.572 215.568 163.444 215.568 163.419C215.339 163.291 214.778 163.852 214.446 164.286Z" fill="white"/>
<path d="M223.83 173.313C223.881 173.313 223.906 173.288 223.932 173.237C223.983 173.16 223.957 173.084 223.881 173.033C223.83 173.007 222.912 172.37 221.918 173.211C221.867 173.262 221.841 173.364 221.892 173.415C221.943 173.492 222.02 173.466 222.096 173.441C222.836 173.058 223.677 173.262 223.728 173.288C223.753 173.313 223.779 173.313 223.83 173.313Z" fill="#060633"/>
<path d="M222.453 174.792C222.402 175.149 222.555 175.455 222.81 175.506C223.065 175.557 223.32 175.302 223.371 174.945C223.422 174.588 223.269 174.282 223.014 174.231C222.759 174.18 222.504 174.435 222.453 174.792Z" fill="#060633"/>
<path d="M228.981 175.175C229.006 175.175 229.057 175.175 229.083 175.15C229.134 175.099 229.159 174.997 229.108 174.946C229.083 174.92 228.649 174.002 227.655 174.487C227.604 174.512 227.553 174.589 227.578 174.665C227.604 174.742 227.655 174.767 227.706 174.742C228.343 174.64 228.879 175.099 228.904 175.124C228.955 175.15 228.955 175.175 228.981 175.175Z" fill="#060633"/>
<path d="M227.145 176.016C226.966 176.322 226.992 176.679 227.196 176.807C227.425 176.934 227.731 176.807 227.935 176.501C228.114 176.195 228.088 175.838 227.884 175.71C227.655 175.583 227.323 175.71 227.145 176.016Z" fill="#060633"/>
<path d="M222.886 179.765C221.994 179.765 220.642 179.51 219.852 178.082C219.826 178.031 219.852 177.98 219.903 177.929C219.954 177.903 220.005 177.929 220.056 177.98C221.254 180.071 223.728 179.459 223.753 179.459C223.804 179.433 223.855 179.484 223.881 179.535C223.906 179.586 223.855 179.637 223.804 179.663C223.779 179.663 223.422 179.765 222.886 179.765Z" fill="#020202"/>
<path d="M219.648 178.465H219.622C219.571 178.439 219.546 178.388 219.546 178.337C219.622 178.082 219.852 177.827 220.234 177.623H220.26C220.311 177.598 220.362 177.598 220.413 177.649C220.438 177.7 220.438 177.751 220.387 177.802C220.387 177.802 220.362 177.802 220.362 177.827C219.954 178.057 219.826 178.286 219.775 178.414C219.75 178.414 219.699 178.465 219.648 178.465Z" fill="#020202"/>
<path d="M231.381 200.47L230.945 200.613L232.619 205.7L233.055 205.557L231.381 200.47Z" fill="#66192D"/>
<path d="M227.961 181.04C227.426 181.04 226.941 180.836 226.559 180.454C225.309 179.204 225.36 176.348 226.686 174.053C227.502 172.651 228.65 171.707 229.746 171.58C230.409 171.503 230.996 171.682 231.455 172.141C232.704 173.39 232.653 176.246 231.327 178.541C230.511 179.944 229.364 180.887 228.267 181.015C228.165 181.04 228.063 181.04 227.961 181.04ZM230.052 171.886C229.976 171.886 229.874 171.886 229.797 171.911C228.803 172.039 227.732 172.906 226.967 174.232C225.717 176.399 225.64 179.102 226.788 180.25C227.17 180.632 227.681 180.811 228.242 180.734C229.236 180.607 230.307 179.74 231.072 178.414C232.322 176.246 232.398 173.543 231.251 172.396C230.894 172.039 230.486 171.886 230.052 171.886Z" fill="white"/>
<g opacity="0.3">
<path opacity="0.3" d="M219.266 170.713C218.195 172.982 218.501 175.762 219.929 176.884C221.357 178.031 223.397 177.113 224.468 174.818C225.539 172.549 225.233 169.769 223.805 168.647C222.351 167.525 220.311 168.443 219.266 170.713Z" fill="white"/>
</g>
<g opacity="0.3">
<path opacity="0.3" d="M226.584 174.257C225.513 176.552 225.666 179.306 226.916 180.454C228.165 181.601 230.052 180.658 231.123 178.363C232.194 176.068 232.041 173.314 230.792 172.166C229.542 171.044 227.655 171.962 226.584 174.257Z" fill="white"/>
</g>
<path d="M221.509 177.496C220.948 177.496 220.413 177.317 219.954 176.935C218.373 175.685 218.016 172.727 219.163 170.279C219.826 168.851 220.872 167.908 222.045 167.627C222.835 167.449 223.6 167.602 224.238 168.112C225.818 169.361 226.176 172.319 225.028 174.767C224.365 176.195 223.32 177.139 222.147 177.419C221.943 177.47 221.713 177.496 221.509 177.496ZM222.682 167.882C222.504 167.882 222.325 167.908 222.121 167.959C221.076 168.214 220.081 169.132 219.469 170.458C218.373 172.753 218.679 175.583 220.158 176.731C220.719 177.164 221.382 177.317 222.07 177.139C223.116 176.884 224.11 175.966 224.722 174.64C225.819 172.345 225.513 169.514 224.034 168.367C223.626 168.061 223.167 167.882 222.682 167.882Z" fill="white"/>
<path d="M226.763 175.226C226.686 175.226 226.584 175.175 226.533 175.124C226.507 175.099 225.895 174.359 224.595 174.308C224.442 174.308 224.314 174.181 224.314 174.002C224.314 173.849 224.442 173.722 224.62 173.722C226.201 173.773 226.966 174.716 226.992 174.767C227.094 174.895 227.069 175.073 226.941 175.175C226.89 175.201 226.839 175.226 226.763 175.226Z" fill="white"/>
<path d="M114.46 134.935C114.46 134.935 102.73 150.082 103.521 161.812C104.311 173.516 118.209 164.158 118.209 164.158L119.407 136.414L114.46 134.935Z" fill="#FDAD9B"/>
<path d="M98.3952 239.816C98.3952 239.816 98.4972 243.258 96.2277 244.355C93.9582 245.451 87.2517 246.701 89.9037 248.766C91.4082 249.965 98.1913 248.766 100.104 248.664C102.016 248.562 103.878 249.302 105.229 247.925C106.734 246.42 104.77 239.459 104.77 239.459C104.77 239.459 103.164 240.402 101.659 240.453C99.4918 240.53 98.3952 239.816 98.3952 239.816Z" fill="#66192D"/>
<path d="M77.4342 239.791C77.4342 239.791 77.5362 243.233 75.2667 244.33C72.9973 245.426 66.2908 246.676 68.9428 248.741C70.4473 249.94 77.2303 248.741 79.1428 248.639C81.0553 248.537 82.9167 249.277 84.2682 247.9C85.7727 246.395 83.8092 239.434 83.8092 239.434C83.8092 239.434 82.2027 240.377 80.6982 240.428C78.5563 240.505 77.4342 239.791 77.4342 239.791Z" fill="#66192D"/>
<path d="M74.9349 234.105C76.6434 211.537 77.0513 196.314 84.1658 186.547C91.9688 175.837 112.93 168.264 121.013 167.805C134.171 167.04 140.393 169.003 140.393 169.003C150.287 189.556 134.783 192.285 123.334 192.846C122.951 192.871 122.569 192.897 122.186 192.897C115.25 193.33 102.908 195.09 98.2419 201.975C94.5444 207.432 91.9944 215.082 90.8979 234.844C90.6939 238.644 87.5064 241.576 83.7069 241.474C83.7324 241.5 74.3229 242.214 74.9349 234.105Z" fill="#553E93"/>
<path d="M93.6271 235.252C93.3976 212.633 92.7091 201.082 99.4921 191.06C103.853 184.609 110.406 179.764 119 176.602C125.12 174.358 132.311 172.981 140.394 172.497C153.552 171.732 159.494 170.125 159.494 170.125C170.153 196.441 131.163 190.857 121.014 202.076C116.603 206.972 111.12 216.254 110.024 236.017C109.82 239.816 106.632 242.749 102.833 242.647C102.833 242.672 93.7036 243.539 93.6271 235.252Z" fill="#553E93"/>
<path d="M93.7028 213.042H93.5498C93.5498 212.914 94.2383 199.45 96.4823 194.733C99.3383 188.765 107.651 182.543 116.219 179.917L116.27 180.07C107.728 182.671 99.4913 188.868 96.6353 194.784C94.3658 199.476 93.7028 212.914 93.7028 213.042Z" fill="#020202"/>
<path d="M150.135 128.381C150.135 128.381 144.525 118.793 131.622 121.751C118.693 124.684 113.44 137.893 112.522 169.564C112.522 169.564 124.482 169.13 155.898 179.534C159.621 180.758 165.078 179.789 163.165 173.44C159.595 161.659 156.153 138.148 150.135 128.381Z" fill="#FF443C"/>
<path d="M164.338 131.161L151.053 133.66C151.053 133.66 127.822 140.52 121.32 140.596C114.817 140.647 112.114 135.904 112.114 135.904C112.114 135.904 117.367 127.005 128.358 122.797C129.378 122.389 130.474 122.058 131.596 121.752C133.509 121.242 135.447 120.808 137.385 120.783C159.315 120.528 164.338 131.161 164.338 131.161Z" fill="#FF443C"/>
<path d="M164.338 131.161C164.618 132.206 161.839 133.965 158.116 135.062C154.393 136.158 151.155 136.209 150.849 135.164C150.568 134.118 153.348 132.359 157.071 131.262C160.793 130.166 164.057 130.115 164.338 131.161Z" fill="#66192D"/>
<path d="M137.359 120.782C135.931 120.91 134.554 120.247 133.763 119.074L131.264 115.376L130.55 114.305L126.292 108.007L128.153 115.019L129.275 119.227L129.607 120.425C129.862 121.394 129.352 122.414 128.383 122.771H128.357C128 123.74 127.592 125.602 129.913 125.882C132.616 126.239 136.364 123.434 137.359 120.782C137.384 120.782 137.384 120.782 137.359 120.782Z" fill="#FDAD9B"/>
<path d="M134.121 105.278C134.121 105.278 134.07 106.502 135.192 108.772C136.849 112.087 133.126 114.305 131.902 113.515C131.749 113.413 130.78 107.42 130.78 107.42L131.928 106.426L134.121 105.278Z" fill="#66192D"/>
<path d="M131.265 115.249C131.265 115.3 131.265 115.326 131.291 115.377C131.546 117.697 129.302 119.253 129.302 119.253H129.276L128.154 115.045C128.843 114.637 129.863 114.153 130.551 114.331C130.908 114.382 131.189 114.688 131.265 115.249Z" fill="#66192D"/>
<path d="M119.484 110.455C118.617 105.89 120.912 101.632 124.609 100.918C128.307 100.204 132.005 103.34 132.872 107.905C133.739 112.469 131.443 116.728 127.746 117.442C124.048 118.13 120.351 115.019 119.484 110.455Z" fill="#FDAD9B"/>
<path d="M122.34 103.366C122.569 103.596 122.34 108.033 130.398 107.548C138.456 107.064 131.928 98.4192 126.063 99.3117C117.622 100.587 117.469 106.452 118.668 108.339C119.841 110.2 122.34 103.366 122.34 103.366Z" fill="#66192D"/>
<path d="M133.458 95.8433C133.458 95.8433 130.372 98.8778 133.509 100.586C136.645 102.295 144.321 101.836 142.995 105.992C141.669 110.123 140.955 116.039 144.754 116.039C148.554 116.039 150.823 115.325 152.863 117.952C154.903 120.578 161.227 117.518 160.029 114.152C158.83 110.786 163.956 106.63 160.896 103.901C157.836 101.173 151.333 99.5153 149.038 95.6393C146.769 91.7123 135.982 93.4718 133.458 95.8433Z" fill="#66192D"/>
<path d="M129.25 106.349C129.25 106.349 133.1 109.129 132.641 112.801C132.641 112.801 134.121 110.404 134.019 109.639C133.917 108.874 132.896 106.222 132.896 106.222L129.25 106.349Z" fill="#66192D"/>
<path d="M132.208 109.333C131.596 110.2 130.55 110.48 129.862 109.945C129.199 109.409 129.148 108.287 129.76 107.42C130.372 106.553 131.417 106.273 132.106 106.808C132.794 107.344 132.845 108.466 132.208 109.333Z" fill="#FDAD9B"/>
<path d="M152.735 117.978C151.741 114.255 149.548 114.076 147.228 113.898C146.31 113.821 145.341 113.745 144.448 113.464C144.015 113.337 143.709 113.082 143.556 112.75C143.148 111.909 143.632 110.583 144.168 109.053C144.984 106.834 145.876 104.284 144.525 102.321C141.873 98.5211 137.895 98.3426 137.844 98.3426C135.523 98.4956 134.299 98.2406 134.172 97.5521C134.044 96.8636 135.115 96.0986 135.523 95.9456C138.787 94.7981 142.536 94.3391 147.992 98.6486C152.302 102.04 151.996 103.953 151.614 106.375C151.537 106.911 151.435 107.472 151.41 108.058C151.384 108.543 151.486 108.874 151.715 109.129C152.251 109.69 153.424 109.665 154.546 109.665C156.025 109.639 157.529 109.639 157.937 110.787C158.269 111.705 157.886 112.776 157.529 113.821C157.172 114.892 156.841 115.912 157.249 116.626C157.529 117.085 158.116 117.391 159.034 117.57L158.983 117.85C157.963 117.672 157.325 117.315 157.019 116.779C156.535 115.963 156.892 114.892 157.274 113.745C157.606 112.75 157.963 111.705 157.682 110.889C157.351 109.92 155.999 109.92 154.546 109.945C153.348 109.971 152.123 109.971 151.511 109.333C151.231 109.027 151.103 108.594 151.129 108.058C151.18 107.446 151.257 106.885 151.333 106.35C151.69 104.029 151.97 102.168 147.814 98.8781C142.459 94.6451 138.787 95.1041 135.6 96.2006C135.217 96.3281 134.325 97.0166 134.427 97.4756C134.478 97.7051 134.911 98.2406 137.818 98.0621C137.869 98.0621 142 98.2406 144.729 102.142C146.182 104.233 145.188 106.936 144.397 109.129C143.862 110.608 143.403 111.883 143.76 112.597C143.887 112.878 144.142 113.056 144.499 113.158C145.366 113.439 146.31 113.515 147.228 113.592C149.65 113.77 151.945 113.949 152.99 117.876L152.735 117.978Z" fill="white"/>
<path d="M129.021 105.075C126.522 105.075 124.915 103.341 124.89 103.341L125.068 103.162C125.094 103.188 127.006 105.228 129.888 104.743L129.939 104.998C129.633 105.049 129.327 105.075 129.021 105.075Z" fill="white"/>
<path d="M121.728 115.427C121.218 115.529 120.708 115.453 120.198 115.223C119.382 114.866 118.719 114.127 118.362 113.234C117.699 111.526 118.336 109.69 119.79 109.129C120.402 108.899 121.09 108.925 121.753 109.205C122.569 109.562 123.232 110.302 123.589 111.194C124.252 112.903 123.615 114.739 122.161 115.3C122.008 115.376 121.855 115.402 121.728 115.427ZM120.223 109.18C120.096 109.205 119.968 109.231 119.841 109.282C118.489 109.817 117.903 111.551 118.515 113.183C118.846 114.05 119.484 114.764 120.249 115.096C120.861 115.376 121.498 115.376 122.085 115.172C123.436 114.637 124.023 112.903 123.411 111.271C123.079 110.404 122.442 109.69 121.677 109.358C121.192 109.129 120.682 109.078 120.223 109.18Z" fill="#786AB5"/>
<path d="M128.027 113.285C127.517 113.387 127.007 113.311 126.497 113.081C125.681 112.724 125.018 111.985 124.661 111.092C123.998 109.384 124.635 107.548 126.089 106.987C126.701 106.757 127.389 106.783 128.052 107.063C128.868 107.42 129.531 108.16 129.888 109.052C130.551 110.761 129.914 112.597 128.46 113.158C128.307 113.234 128.154 113.26 128.027 113.285ZM126.522 107.038C126.395 107.063 126.267 107.089 126.14 107.14C124.788 107.675 124.202 109.409 124.814 111.041C125.145 111.908 125.783 112.622 126.548 112.954C127.16 113.234 127.797 113.234 128.384 113.03C129.735 112.495 130.322 110.761 129.71 109.129C129.378 108.262 128.741 107.548 127.976 107.216C127.491 106.987 127.007 106.936 126.522 107.038Z" fill="#786AB5"/>
<path d="M122.824 111.654C122.799 111.654 122.773 111.654 122.748 111.628C122.722 111.603 122.722 111.552 122.748 111.501C122.773 111.475 123.538 110.71 125.068 110.634C125.119 110.634 125.145 110.659 125.145 110.71C125.145 110.761 125.119 110.787 125.068 110.787C123.589 110.838 122.85 111.577 122.85 111.603C122.85 111.654 122.85 111.654 122.824 111.654Z" fill="#786AB5"/>
<path d="M123.513 115.224C123.513 115.224 125.808 114.841 127.95 113.617C127.95 113.617 128.562 115.836 126.114 116.448C124.686 116.805 123.513 115.224 123.513 115.224Z" fill="#DB6B49"/>
<path d="M123.513 115.224C123.513 115.224 124.15 115.581 125.451 115.326C126.751 115.071 127.95 113.592 127.95 113.592C127.95 113.592 125.323 114.892 123.513 115.224Z" fill="white"/>
<path d="M125.552 109.384C125.501 109.384 125.45 109.358 125.425 109.307C125.374 109.231 125.4 109.129 125.476 109.103C125.527 109.078 126.445 108.364 127.541 109.18C127.618 109.231 127.618 109.333 127.567 109.384C127.516 109.46 127.439 109.46 127.363 109.409C126.572 109.078 125.705 109.333 125.654 109.358C125.603 109.384 125.578 109.384 125.552 109.384Z" fill="#060633"/>
<path d="M127.082 110.837C127.159 111.194 127.006 111.526 126.751 111.602C126.496 111.653 126.215 111.424 126.139 111.067C126.062 110.71 126.215 110.378 126.47 110.302C126.725 110.225 126.98 110.48 127.082 110.837Z" fill="#060633"/>
<path d="M120.275 111.22C120.224 111.246 120.173 111.22 120.147 111.195C120.071 111.144 120.071 111.042 120.096 110.991C120.122 110.94 120.708 109.92 122.009 110.277C122.085 110.302 122.136 110.379 122.136 110.455C122.111 110.532 122.034 110.583 121.958 110.583C121.091 110.583 120.377 111.144 120.351 111.169C120.326 111.195 120.3 111.195 120.275 111.22Z" fill="#060633"/>
<path d="M122.237 111.959C122.441 112.265 122.441 112.622 122.212 112.775C121.982 112.928 121.651 112.8 121.421 112.494C121.217 112.188 121.217 111.831 121.447 111.678C121.676 111.551 122.008 111.678 122.237 111.959Z" fill="#060633"/>
<path d="M159.876 159.262C155.082 166.172 149.166 169.972 136.595 172.267L136.11 164.209C151.436 158.573 153.144 140.29 152.354 135.674C152.277 135.241 152.456 134.807 152.813 134.527C153.986 133.634 157.02 131.798 162.452 131.696C162.936 131.696 163.37 132.002 163.497 132.487C165.741 141.004 165.512 151.102 159.876 159.262Z" fill="#FDAD9B"/>
<g opacity="0.3">
<path opacity="0.3" d="M155.005 161.685C154.801 161.685 154.597 161.634 154.393 161.557C153.399 161.124 153.042 159.696 153.603 158.37C153.934 157.605 154.495 156.993 155.158 156.738C155.592 156.559 156.051 156.559 156.433 156.712C157.428 157.146 157.785 158.574 157.224 159.9C156.892 160.665 156.331 161.277 155.668 161.532C155.464 161.634 155.235 161.685 155.005 161.685ZM155.847 157.018C155.668 157.018 155.515 157.044 155.337 157.12C154.801 157.35 154.317 157.86 154.036 158.523C153.577 159.645 153.807 160.818 154.572 161.149C154.852 161.277 155.184 161.251 155.515 161.124C156.051 160.894 156.535 160.384 156.816 159.721C157.275 158.599 157.045 157.426 156.28 157.095C156.153 157.069 156 157.018 155.847 157.018Z" fill="#E08B65"/>
</g>
<path d="M136.11 164.209C136.11 164.209 128.639 163.775 126.726 165.382C124.788 166.988 123.539 170.482 124.941 169.742C126.344 169.003 127.874 167.575 127.874 167.575C127.874 167.575 124.737 170.813 125.808 171.221C126.879 171.629 129.582 168.799 129.582 168.799C129.582 168.799 126.165 172.93 127.287 173.006C128.435 173.057 131.01 169.895 131.01 169.895C131.01 169.895 127.976 173.873 129.302 173.899C130.628 173.924 131.775 170.584 132.872 170.992C133.943 171.4 137.028 173.746 138.507 170.89L136.11 164.209Z" fill="#FDAD9B"/>
<path d="M127.975 167.626L127.822 167.524C127.848 167.473 128.613 166.427 129.429 166.453V166.631H129.403C128.689 166.631 127.975 167.6 127.975 167.626Z" fill="#DD8964"/>
<path d="M129.684 168.824L129.531 168.722C129.557 168.671 130.271 167.651 131.418 167.447L131.444 167.626C130.398 167.804 129.684 168.799 129.684 168.824Z" fill="#DD8964"/>
<path d="M131.112 169.895L130.959 169.793C130.984 169.742 131.902 168.493 132.769 168.595L132.744 168.773C131.979 168.697 131.112 169.895 131.112 169.895Z" fill="#DD8964"/>
<path d="M128.077 175.684H103.317C102.807 175.684 102.348 175.352 102.169 174.868L97.0183 159.491C96.7633 158.726 97.3498 157.91 98.1658 157.91H121.983C123.079 157.91 124.023 158.599 124.38 159.619L129.225 174.103C129.48 174.893 128.893 175.684 128.077 175.684Z" fill="#66192D"/>
<path d="M126.522 175.685H101.761C101.251 175.685 100.792 175.353 100.614 174.869L95.4626 159.492C95.2076 158.727 95.7941 157.911 96.6101 157.911H120.427C121.524 157.911 122.467 158.6 122.824 159.62L127.669 174.104C127.924 174.894 127.338 175.685 126.522 175.685Z" fill="#66192D"/>
<path d="M109.182 166.3C109.182 165.714 109.845 165.484 110.431 165.484C111.018 165.484 111.987 166.122 111.961 166.938C111.961 167.83 111.273 167.932 110.686 167.932C110.1 167.932 109.182 167.04 109.182 166.3Z" fill="#FECAFF"/>
<path d="M135.625 173.517H101.735V175.684H136.339C136.747 175.684 137.078 175.353 137.078 174.945C137.078 174.154 136.415 173.517 135.625 173.517Z" fill="#66192D"/>
<path d="M124.762 165.688C124.762 165.637 123.538 161.098 122.748 159.67C121.983 158.267 121.014 157.987 121.014 157.987L121.065 157.834C121.116 157.834 122.085 158.14 122.901 159.593C123.691 161.021 124.89 165.458 124.941 165.637L124.762 165.688Z" fill="#553E93"/>
<path d="M128.434 173.593C127.516 173.593 127.287 173.185 127.287 173.16L125.349 167.371L125.502 167.32L127.44 173.083C127.44 173.083 127.644 173.415 128.46 173.415V173.593H128.434Z" fill="#553E93"/>
<path d="M166.454 30.9969C166.454 30.9969 165.459 39.7179 167.448 39.6414C169.437 39.5649 173.492 35.8419 181.397 36.6834C189.302 37.5504 198.966 39.5649 205.137 29.3649C211.308 19.1649 198.023 15.7734 198.023 15.7734L166.454 30.9969Z" fill="#553E93"/>
<path d="M183.335 30.87L143.249 32.9865L142.484 31.176L181.627 3.99294L220.489 0.626953L221.177 2.23345L183.335 30.87Z" fill="#786AB5"/>
<path d="M157.249 62.2608C157.453 61.4703 158.218 61.0113 158.957 61.2408C159.697 61.4703 160.13 62.2863 159.926 63.0513C159.722 63.8418 158.957 64.3008 158.218 64.0713C157.478 63.8418 157.045 63.0258 157.249 62.2608Z" fill="#FF8548"/>
<path d="M158.473 62.6431C157.019 62.5411 156.841 76.4386 156.841 76.4386C156.841 76.4386 157.784 76.8976 158.243 76.7956C158.702 76.6936 158.932 74.8066 158.932 74.8066L159.008 76.7701C159.008 76.7701 160.589 76.8211 161.125 76.4131C161.099 76.4131 160.742 62.8216 158.473 62.6431Z" fill="#FF8548"/>
<path d="M157.937 61.6229L157.733 33.2669C157.427 30.6914 158.575 28.1669 160.717 26.6879L178.133 14.5754C178.516 14.3204 179.051 14.3969 179.306 14.7794C179.434 14.9579 179.383 15.2384 179.204 15.3659L160.742 28.2179C159.314 29.2124 158.549 30.8954 158.753 32.6039L158.983 61.9544L157.937 61.6229Z" fill="#FF8548"/>
<g opacity="0.5">
<path opacity="0.5" d="M198.635 113.669H183.641C181.933 113.669 180.53 112.266 180.53 110.558V89.9792C180.53 88.2707 181.933 86.8682 183.641 86.8682H198.635C200.344 86.8682 201.746 88.2707 201.746 89.9792V110.558C201.746 112.292 200.344 113.669 198.635 113.669Z" fill="#FF443C"/>
</g>
<path d="M197.743 95.9715H184.687C184.407 95.9715 183.948 95.6655 183.922 95.385C183.846 94.7985 184.407 94.6455 184.687 94.6455L197.743 94.926C198.024 94.926 198.253 95.1555 198.253 95.436C198.253 95.7165 198.024 95.9715 197.743 95.9715Z" fill="#FECAFF"/>
<path d="M194.352 93.4978H184.509C184.279 93.4978 183.948 93.2683 183.922 93.0388C183.871 92.5798 184.279 92.4268 184.509 92.4268L194.352 92.6563C194.556 92.6563 194.734 92.8348 194.734 93.0643C194.76 93.3193 194.581 93.4978 194.352 93.4978Z" fill="#FECAFF"/>
<path d="M194.352 98.4197H184.509C184.279 98.4197 183.948 98.1901 183.922 97.9606C183.871 97.5016 184.279 97.3486 184.509 97.3486L194.352 97.5781C194.556 97.5781 194.734 97.7566 194.734 97.9861C194.76 98.2412 194.581 98.4197 194.352 98.4197Z" fill="#FECAFF"/>
<path d="M197.743 105.789H184.687C184.407 105.789 183.948 105.483 183.922 105.202C183.846 104.616 184.407 104.463 184.687 104.463L197.743 104.743C198.024 104.743 198.253 104.973 198.253 105.253C198.253 105.559 198.024 105.789 197.743 105.789Z" fill="#FECAFF"/>
<path d="M194.352 103.342H184.509C184.279 103.342 183.948 103.112 183.922 102.883C183.871 102.424 184.279 102.271 184.509 102.271L194.352 102.5C194.556 102.5 194.734 102.679 194.734 102.908C194.76 103.163 194.581 103.342 194.352 103.342Z" fill="#FECAFF"/>
<path d="M194.352 108.262H184.509C184.279 108.262 183.948 108.033 183.922 107.803C183.871 107.344 184.279 107.191 184.509 107.191L194.352 107.421C194.556 107.421 194.734 107.599 194.734 107.829C194.76 108.084 194.581 108.262 194.352 108.262Z" fill="#FECAFF"/>
</svg>
