<?xml version="1.0" encoding="utf-8"?>
<!-- Generator: Adobe Illustrator 25.2.3, SVG Export Plug-In . SVG Version: 6.00 Build 0)  -->
<svg version="1.1" id="Layer_1" xmlns="http://www.w3.org/2000/svg" xmlns:xlink="http://www.w3.org/1999/xlink" x="0px" y="0px"
	 viewBox="0 0 500 500" style="enable-background:new 0 0 500 500;" xml:space="preserve">
<style type="text/css">
	.st0{display:none;}
	.st1{display:inline;fill:#FFFFFF;}
	.st2{clip-path:url(#SVGID_2_);fill:#BBDEF2;}
	.st3{clip-path:url(#SVGID_4_);}
	.st4{fill:#D9ECF4;}
	.st5{clip-path:url(#SVGID_6_);fill:#EF6A30;}
	.st6{clip-path:url(#SVGID_8_);}
	.st7{fill:#140B38;}
	.st8{fill:#F49F9F;}
	.st9{fill:#EA6C6C;}
	.st10{fill:#E87777;}
	.st11{clip-path:url(#SVGID_10_);}
	.st12{fill:#22386B;}
	.st13{fill:#FFFFFF;}
	.st14{clip-path:url(#SVGID_12_);}
	.st15{fill:#5F9048;}
	.st16{fill:#58C3ED;}
	.st17{fill:#2E6011;}
	.st18{fill:#EEF4FF;}
	.st19{clip-path:url(#SVGID_14_);}
	.st20{fill:#EBF3F7;}
	.st21{fill:#7CC0D8;}
	.st22{clip-path:url(#SVGID_16_);}
	.st23{fill:#FDFFFF;}
	.st24{fill:#EF6A30;}
	.st25{fill:#B1E1F2;}
</style>
<g id="BACKGROUND" class="st0">
	<rect class="st1" width="500" height="500"/>
</g>
<g>
	<defs>
		<path id="SVGID_1_" d="M491.9,205.8c0,0-62,50.6-62.5,55.5c-6.5,58.5-38.5,109.3-84.6,141v86.6H196.7v-55.1
			c-92-17-161.7-97.6-161.7-194.5C35,143.2,103.6,63,194.5,45.2v-7.9h120v21.8c40.8,18.5,74.1,50.4,94.5,90.1l56.9-26.8L491.9,205.8
			z"/>
	</defs>
	<clipPath id="SVGID_2_">
		<use xlink:href="#SVGID_1_"  style="overflow:visible;"/>
	</clipPath>
	<circle class="st2" cx="232.8" cy="239.2" r="197.8"/>
</g>
<g>
	<defs>
		<path id="SVGID_3_" d="M491.9,205.8c0,0-62,50.6-62.5,55.5c-6.5,58.5-38.5,109.3-84.6,141v86.6H196.7v-55.1
			c-92-17-161.7-97.6-161.7-194.5C35,143.2,103.6,63,194.5,45.2v-7.9h120v21.8c40.8,18.5,74.1,50.4,94.5,90.1l56.9-26.8L491.9,205.8
			z"/>
	</defs>
	<clipPath id="SVGID_4_">
		<use xlink:href="#SVGID_3_"  style="overflow:visible;"/>
	</clipPath>
	<g class="st3">
		<g>
			<g>
				<path class="st4" d="M69.6,323.3c-38.1,0-69-31-69-69c0-38.1,31-69,69-69c38.1,0,69,31,69,69
					C138.7,292.3,107.7,323.3,69.6,323.3z M69.6,188.3c-36.4,0-66,29.6-66,66s29.6,66,66,66s66-29.6,66-66S106,188.3,69.6,188.3z"/>
			</g>
			<g>
				<path class="st4" d="M69.6,315.1c-33.5,0-60.8-27.3-60.8-60.8s27.3-60.8,60.8-60.8s60.8,27.3,60.8,60.8S103.2,315.1,69.6,315.1z
					 M69.6,196.5c-31.8,0-57.7,25.9-57.7,57.7S37.8,312,69.6,312s57.7-25.9,57.7-57.7S101.5,196.5,69.6,196.5z"/>
			</g>
			<g>
				<g>
					<path class="st4" d="M77.6,299.9H60.2v-14c-0.9-0.6-1.8-1.2-2.7-1.8l-0.9,4.8H39v-27.6h19v1.5c0,6.7,6.8,8,10.9,8.2
						c2.1,0,5.8-0.5,5.8-3.5c0-1.7-4.6-3.3-9-4.9c-9.6-3.4-24.1-8.6-24.1-24.1c0-13.2,9.1-20.1,18.6-21.3v-8.7h17.4v11.2
						c1.2,0.6,2.2,1.4,3.1,2.2l0.5-3.6H99v26.9H80.3v-1.5c0-5.9-3.8-9.8-9.8-9.8c-1.8,0-4.5,1.2-4.5,3.7c0,2.9,5.1,4.8,11,7
						c9.8,3.7,23.3,8.7,23.3,23.4c0,14.7-11.4,20.5-22.7,21.2C77.6,289.2,77.6,299.9,77.6,299.9z M63.3,296.8h11.3v-10.4h1.5
						c5-0.1,21.2-1.7,21.2-18.2c0-12.6-11.3-16.8-21.3-20.5c-7-2.6-13-4.9-13-9.9c0-4.1,3.9-6.7,7.5-6.7c7.1,0,12.1,4.5,12.7,11.3
						h12.7v-20.7h-12l-1.2,8.7l-2.2-3.7c-1.1-1.8-2.8-3.3-5-4.4l-0.9-0.4v-10H63.3v8.4l-1.4,0.1c-6.4,0.5-17.2,4.9-17.2,18.4
						c0,13.4,12.2,17.7,22,21.2c6.2,2.2,11,3.9,11,7.7c0,4.1-3.3,6.5-9,6.5c-8-0.4-13-4-13.7-9.8H42v21.5h12l1.4-7.5l2,1.8
						c1.6,1.4,3.3,2.6,5,3.6l0.8,0.4L63.3,296.8L63.3,296.8z"/>
				</g>
			</g>
		</g>
		<g>
			<path class="st4" d="M360.5,253.1h-14.2v-15.3h-8.2v15.3h-14.2v-15.3h-19.7v-19.1h7.2v-51.3h-7.2v-19h19.7V133h14.2v15.3h8.2V133
				h14.2v15.8c19.1,2.5,23.2,13.3,23.2,22.1c0,9.8-2.6,15.2-9.6,19c8.8,3.7,13.8,11.3,13.8,21.2c0,16.5-8.5,24.7-27.4,26.3V253.1z
				 M349.4,250h8.1v-15.4l1.4-0.1c18.2-1.2,25.9-8.2,25.9-23.4c0-13.3-9.5-18-15.2-19.5l-4.4-1.2l4.2-1.7
				c8.4-3.4,11.1-7.7,11.1-17.7c0-11.3-7.3-17.7-21.8-19.3l-1.4-0.1v-15.5h-8.1v15.3h-14.3v-15.3H327v15.3h-19.7v12.9h7.2v57.4h-7.2
				v13H327V250h8.1v-15.3h14.3V250z M348.4,221.7H337v-24.6h11c7.2,0,11.9,4.9,11.9,12.4C360,217.4,354,221.7,348.4,221.7z
				 M340.1,218.6h8.3c4.2,0,8.5-3.1,8.5-9.1c0-5.9-3.3-9.3-8.8-9.3h-8V218.6z M346.1,186.2H337v-21.6h9.3c0.6,0,1.2,0.1,1.8,0.2
				c4.8,0.8,7.9,4.8,7.9,10.4c0,4.3-0.8,10.1-8,10.9C347.5,186.2,346.8,186.2,346.1,186.2z M340.1,183.2h6c0.6,0,1.1,0,1.6-0.1
				c3.8-0.5,5.3-2.7,5.3-7.9c0-4.1-2-6.8-5.4-7.4c-0.4-0.1-0.8-0.1-1.3-0.1h-6.2V183.2z"/>
		</g>
		<g>
			<g>
				<path class="st4" d="M391.5,376.3c-2.6,0-5.2-0.2-7.8-0.6c-16.3-2.6-31.1-13.3-38.7-28c-4.9-9.4-6.8-20.3-8.8-30.8
					c-2.7-14.9-5.3-29.1-15.5-39c-9.7-9.4-24.5-13.2-46.7-12c-2.8,0.2-5.6,0.3-8.4,0.5c-14.3,1-29.1,2-42.7-2.9
					c-16.3-6-30.4-20.8-39.7-41.8c-5-11.2-8.3-23.1-11.6-34.6c-1.9-6.8-3.9-13.9-6.2-20.7c-7.5-22.3-17.6-37.7-30.6-47
					c-21.9-15.7-55.2-13-74.3,6l-2.2-2.2c20.1-20,55.2-22.8,78.3-6.3c13.6,9.7,24,25.6,31.7,48.6c2.3,6.9,4.3,14,6.3,20.8
					c3.2,11.4,6.6,23.2,11.5,34.2c9,20.2,22.4,34.5,38,40.2c13,4.8,27.4,3.7,41.4,2.8c2.8-0.2,5.7-0.4,8.5-0.6
					c14.5-0.8,35.4-0.3,49,12.9c10.9,10.6,13.7,25.8,16.4,40.6c1.9,10.3,3.8,20.9,8.5,29.9c7.1,13.8,21.1,23.9,36.4,26.3
					c15.4,2.4,31.7-2.9,42.8-13.9l2.2,2.2C419.3,370.8,405.4,376.3,391.5,376.3z"/>
			</g>
			<g>
				<path class="st4" d="M113,103.2c-6.6,0-5.6,10.2,0.9,10.2C120.5,113.3,119.5,103.2,113,103.2z"/>
			</g>
			<g>
				<path class="st4" d="M337.5,310c-6.6,0-5.6,10.2,0.9,10.2S344,310,337.5,310z"/>
			</g>
			<g>
				<path class="st4" d="M366.4,365c-6.6,0-5.6,10.2,0.9,10.2S372.9,365,366.4,365z"/>
			</g>
			<g>
				<path class="st4" d="M290.4,261.3c-6.6,0-5.6,10.2,0.9,10.2C297.9,271.4,296.9,261.3,290.4,261.3z"/>
			</g>
			<g>
				<path class="st4" d="M186.1,222.2c-6.6,0-5.6,10.2,0.9,10.2C193.6,232.3,192.7,222.2,186.1,222.2z"/>
			</g>
		</g>
		<g>
			<g>
				<path class="st4" d="M186.6,465.4c-29.6,0-53.7-24.1-53.7-53.7S157,358,186.6,358s53.7,24.1,53.7,53.7S216.2,465.4,186.6,465.4z
					 M186.6,360.4c-28.3,0-51.3,23-51.3,51.3s23,51.3,51.3,51.3s51.3-23,51.3-51.3C237.9,383.4,214.9,360.4,186.6,360.4z"/>
			</g>
			<g>
				<path class="st4" d="M186.6,459c-26.1,0-47.3-21.2-47.3-47.3c0-26.1,21.2-47.3,47.3-47.3s47.3,21.2,47.3,47.3
					C233.9,437.8,212.7,459,186.6,459z M186.6,366.8c-24.8,0-44.9,20.2-44.9,44.9s20.2,44.9,44.9,44.9c24.8,0,44.9-20.2,44.9-44.9
					S211.3,366.8,186.6,366.8z"/>
			</g>
			<g>
				<g>
					<path class="st4" d="M192.8,447.2h-13.5v-10.9c-0.7-0.4-1.4-0.9-2.1-1.4l-0.7,3.7h-13.7v-21.5h14.8v1.2c0,5.2,5.3,6.2,8.4,6.4
						c1.7,0,4.5-0.4,4.5-2.7c0-1.3-3.6-2.6-7-3.8c-7.5-2.7-18.7-6.7-18.7-18.8c0-10.2,7.1-15.6,14.5-16.6V376h13.5v8.7
						c0.9,0.5,1.7,1.1,2.4,1.7l0.4-2.8h13.8v20.9h-14.6v-1.2c0-4.6-3-7.6-7.6-7.6c-1.4,0-3.5,0.9-3.5,2.8c0,2.3,4,3.7,8.6,5.5
						c7.6,2.9,18.1,6.8,18.1,18.2c0,11.4-8.9,16-17.6,16.5L192.8,447.2L192.8,447.2z M181.6,444.8h8.8v-8.1h1.2
						c3.9-0.1,16.5-1.3,16.5-14.2c0-9.8-8.8-13.1-16.6-16c-5.4-2-10.1-3.8-10.1-7.7c0-3.2,3-5.2,5.9-5.2c5.6,0,9.4,3.5,9.9,8.8h9.9
						v-16.1h-9.3l-1,6.8l-1.7-2.9c-0.8-1.4-2.2-2.6-3.9-3.4l-0.7-0.3v-7.8h-8.8v6.6l-1.1,0.1c-5,0.4-13.4,3.8-13.4,14.3
						c0,10.4,9.5,13.8,17.2,16.5c4.8,1.7,8.6,3.1,8.6,6c0,3.2-2.6,5.1-7,5.1c-6.2-0.3-10.1-3.1-10.7-7.6h-10.1v16.7h9.4l1.1-5.8
						l1.6,1.4c1.3,1.1,2.5,2,3.9,2.8l0.6,0.3v9.7H181.6z"/>
				</g>
			</g>
		</g>
	</g>
</g>
<g>
	<defs>
		<path id="SVGID_5_" d="M491.9,205.8c0,0-62,50.6-62.5,55.5c-6.5,58.5-38.5,109.3-84.6,141v86.6H196.7v-55.1
			c-92-17-161.7-97.6-161.7-194.5C35,143.2,103.6,63,194.5,45.2v-7.9h120v21.8c40.8,18.5,74.1,50.4,94.5,90.1l56.9-26.8L491.9,205.8
			z"/>
	</defs>
	<clipPath id="SVGID_6_">
		<use xlink:href="#SVGID_5_"  style="overflow:visible;"/>
	</clipPath>
	<polygon class="st5" points="482.5,203.4 450.8,189.4 385.2,327 345.2,268.2 305.7,348.9 121.3,348.9 4.9,465.3 -16.9,443.5 
		108.6,318.1 286.5,318.1 340.8,207.1 380.5,265.4 422.7,176.9 392.3,163.4 460.5,129.2 	"/>
</g>
<g>
	<defs>
		<path id="SVGID_7_" d="M491.9,205.8c0,0-62,50.6-62.5,55.5c-6.5,58.5-38.5,109.3-84.6,141v86.6H196.7v-55.1
			c-92-17-161.7-97.6-161.7-194.5C35,143.2,103.6,63,194.5,45.2v-7.9h120v21.8c40.8,18.5,74.1,50.4,94.5,90.1l56.9-26.8L491.9,205.8
			z"/>
	</defs>
	<clipPath id="SVGID_8_">
		<use xlink:href="#SVGID_7_"  style="overflow:visible;"/>
	</clipPath>
	<g class="st6">
		<path class="st7" d="M186.9,131.7c-2-0.3-4.4-0.9-6.9-2.1c-11-4.8-19.3-2.7-19.3-2.7l-8.8,12.4c0,0,0.7-7-3.7-8.7
			c-1.5-0.5-3.2,0.4-4.6,2.1c0.5-3.7,0.3-8.5-0.4-13.8c-1.1-7.7,8.2-8.3,8.2-8.3s-3.5-3.8,4.9-7.5c8.3-3.7,17.3,7.6,29.1,11.8
			c11.9,4.2,16.1,2.2,13.8,9.1C197.4,129.3,193.5,132.6,186.9,131.7z"/>
		<path class="st8" d="M168.4,167.9c-0.5,0.2-1,0.4-1.5,0.5c-9.7,2.7-17-5.8-17.4-6.3c0.2,0.7,3.4,11,14,13l-4.8,9.5l-20.7-21
			l3.6-8.3l3.1-7.2c-5.3-5-4-11.9-1.2-15.4c1.4-1.7,3.1-2.6,4.6-2.1c4.4,1.6,3.7,8.7,3.7,8.7l8.8-12.4c0,0,8.3-2.1,19.3,2.7
			c2.6,1.1,4.9,1.8,6.9,2.1c-1,4.9-4.9,22.8-12.2,31.5l0,0l0,0c-1.3,1.6-2.8,2.9-4.4,3.7C169.6,167.3,169,167.6,168.4,167.9z"/>
		<path class="st7" d="M166.9,168.4l-3.4,6.8c-10.6-2-13.8-12.3-14-13C149.9,162.5,157.2,171.1,166.9,168.4z"/>
		<path class="st9" d="M175.2,141.9c0,0,0.6,14.1-0.1,15.9c-0.8,1.7-5.9-2.4-5.9-2.4l-3.5-0.6L175.2,141.9z"/>
		<path class="st10" d="M147.7,133.2c-0.9-0.5-1.9-0.4-2.8,0.1c-0.9,0.6-1.4,1.6-1.9,2.6c-0.3,0.7,0.7,1.2,1,0.5s0.7-1.5,1.3-2.1
			c0.7-0.5,1.4-0.6,2,0c1.4,1.3,1.3,3.2,0.9,4.8c-0.2,0.7-0.4,1.5-0.8,2.1c-0.3,0.5-1,1.1-1.6,1.1c-0.7-0.1-0.7-1.1-0.6-1.6
			c0.1-0.3,0.2-0.8,0.5-0.9c0.1-0.1,0.5-0.1,0.5,0c0.3,0.7,1.4,0.3,1.1-0.4c-0.3-0.7-1.2-1-1.9-0.8c-0.8,0.3-1.2,1.2-1.3,2
			s0,1.7,0.6,2.2c0.7,0.6,1.7,0.6,2.4,0.1c1.6-0.9,2.2-2.9,2.5-4.6C149.9,136.7,149.5,134.3,147.7,133.2z"/>
		<path class="st7" d="M164.5,160.1c-2.4-0.6-4.6-2.4-5.7-4.6c-0.1-0.3-0.4-0.5-0.7-0.3c-0.3,0.1-0.5,0.5-0.3,0.7
			c1.3,2.7,3.7,4.6,6.6,5.4C165,161.4,165.2,160.3,164.5,160.1z"/>
		<path class="st7" d="M172.2,134.2c-2.3-1.1-4.8-1.5-7.3-1.3c-0.9,0.1-1.7,0.9-1.6,1.9c0.1,0.9,0.9,1.6,1.9,1.6
			c0.3,0,0.5,0,0.8-0.1c0.1,0,0.8,0,0.8,0c-0.3,0-0.3,0-0.1,0h0.1c0.2,0,0.3,0,0.5,0s0.5,0.1,0.7,0.1s0.5,0.1,0.7,0.1
			c0.1,0,0.3,0.1,0.4,0.1c0.1,0,0.3,0,0.3,0.1c-0.2-0.1-0.3-0.1-0.1,0h0.1c0.1,0.1,0.3,0.1,0.4,0.2c0.3,0.1,0.5,0.2,0.7,0.3
			c0.8,0.4,1.9,0,2.3-0.8C173.4,135.6,173.1,134.6,172.2,134.2z"/>
		<path class="st7" d="M186.5,142.3c0-0.1-0.1-0.3-0.1-0.4c-0.1-0.3-0.3-0.5-0.5-0.7c-1.5-1.6-3.5-2.6-5.6-3c-0.9-0.2-1.9,0.5-2,1.4
			s0.4,1.8,1.4,2c0.2,0,0.4,0.1,0.7,0.2c0.6,0.2,1.2,0.5,1.8,0.8c0.6,0.4,1.1,0.8,1.5,1.3c0.3,0.3,0.9,0.4,1.2,0.4
			c0.4,0,0.9-0.3,1.2-0.6C186.4,143.2,186.6,142.7,186.5,142.3z"/>
		<circle class="st7" cx="166.6" cy="141" r="2.6"/>
		<circle class="st7" cx="180.4" cy="146.2" r="2.6"/>
	</g>
</g>
<g>
	<defs>
		<path id="SVGID_9_" d="M491.9,205.8c0,0-62,50.6-62.5,55.5c-6.5,58.5-38.5,109.3-84.6,141v86.6H196.7v-55.1
			c-92-17-161.7-97.6-161.7-194.5C35,143.2,103.6,63,194.5,45.2v-7.9h120v21.8c40.8,18.5,74.1,50.4,94.5,90.1l56.9-26.8L491.9,205.8
			z"/>
	</defs>
	<clipPath id="SVGID_10_">
		<use xlink:href="#SVGID_9_"  style="overflow:visible;"/>
	</clipPath>
	<g class="st11">
		<path class="st12" d="M272.3,437.8c-0.6-0.1-1.1-0.2-1.6-0.3c-7-1.8-1.5-5.7-1.5-5.7L248,335c0,0,9.1-12.5-2.4-21.6
			c-12.7-10-47.5-16.3-48.9-16.6c1.5,0.5,40.9,12.9,48.1,24.1c0.8,1.3,1.4,3.7,1.7,7.1l0,0c2.5,26-8.7,105-8.7,105
			c0.9,1.8-0.4,3.6-0.4,3.6c3.2,4.3,0.8,6.5,0.8,6.5c-0.9,0.2-1.7,0.4-2.6,0.5c-8.1,1.4-17.1,1.1-21.4,0.9c-1.6-0.1-2.5-0.2-2.5-0.2
			c-3.3-2.4,0-4.9,0-4.9l-5.2-96.5c-2.4-3.5,0-5.3,0-5.3s-46-3.3-68.5-7.8s-20.5-26-20.5-26l38-15.4c2.7,0.9,4.2,1.3,4.2,1.3
			l0.7-1.5c0,0,8.6,3.5,15.7-2.3c0,0,9.9,6.3,12.5,5.9c1.2-0.2-0.3-3.1-2.2-6.1c0.3,0.3,6.7,6.5,8,3.2c0.3-0.8,0-1.8-0.7-3
			c0-0.1,0.1-0.3,0.2-0.5h2.4h6.6h3.6h2.4c0,0,72,6.3,77.3,35.5c2.5,13.8,6.3,107.7,6.3,107.7s3.7,2.5,0,3.8c0,0,4.2,3.5,1.6,4.9
			c0,0-0.3,0-0.9,0.1C290,437.8,278.7,438.8,272.3,437.8z"/>
		<path class="st7" d="M245.6,313.4c11.5,9.1,2.4,21.6,2.4,21.6l-1.5-7l0,0c-0.3-3.3-0.9-5.8-1.7-7.1c-7.2-11.2-46.6-23.6-48.1-24.1
			C198.1,297.1,232.9,303.4,245.6,313.4z"/>
		<path class="st7" d="M221.7,323.6c-4.6,3.2-8.8,6.9-12.5,11.1c-0.5,0.5,0.4,1.3,0.9,0.7c3.7-4.1,7.8-7.7,12.3-10.9
			C222.9,324.1,222.3,323.2,221.7,323.6z"/>
		<path class="st7" d="M212.5,323.1c-1.7,3-3.5,6-5.4,8.9c-0.4,0.6,0.5,1.3,0.9,0.7c2-3,3.8-6,5.5-9.1
			C213.9,323,212.8,322.5,212.5,323.1z"/>
		<path class="st7" d="M216.8,337.5c-0.1-0.3-0.5-0.5-0.7-0.3l-5.1,2.5c-0.3,0.1-0.5,0.4-0.3,0.7c0.1,0.3,0.5,0.5,0.7,0.3
			c1.7-0.8,3.4-1.7,5.1-2.5C216.8,338.1,216.9,337.8,216.8,337.5z"/>
		<path class="st7" d="M311.9,453.5c9.4,0.3,18.4,6.5,15.6,11.7s-19.7,7.7-19.7,7.7l-34.5-17.4l-0.9-17.7c6.4,1,17.7,0.1,20.9-0.2
			v0.4L311.9,453.5z"/>
		<path class="st7" d="M255.8,461.8c9.9,0.3,19.4,6.8,16.4,12.3s-20.7,8.1-20.7,8.1l-36.4-18.4l-1-19.3c4.3,0.2,13.3,0.4,21.4-0.9
			l0.7,1.7L255.8,461.8z"/>
		<path class="st13" d="M266.3,469.7c-1.1-1.9-2.7-3.4-4.7-4.4c-0.7-0.3-1.1,0.7-0.5,1c1.8,0.9,3.3,2.3,4.2,4
			c0.2,0.3,0.6,0.3,0.8,0.1C266.4,470.3,266.4,470,266.3,469.7z"/>
		<path class="st13" d="M266.5,472.2c-0.3,0-0.5,0.3-0.5,0.6c0,0.1,0,0.1,0,0.2v0.1c0,0.1,0,0.2,0,0.3c0,0.1,0,0.2-0.1,0.4v0.1
			c0,0,0,0,0,0.1c-0.1,0.2-0.2,0.4-0.3,0.6c0,0.1-0.1,0.2-0.2,0.3c0,0,0,0,0,0.1l0,0c0,0.1-0.1,0.1-0.1,0.1
			c-0.2,0.2-0.2,0.6,0.1,0.8c0.2,0.2,0.6,0.2,0.8-0.1c0.7-0.9,1-2,1-3.1C267.1,472.4,266.8,472.1,266.5,472.2z"/>
		<path class="st13" d="M321.6,460.5c-0.7-1.5-1.9-2.7-3.3-3.3c-0.3-0.1-0.6,0-0.8,0.3c-0.1,0.3,0,0.6,0.3,0.8
			c0.2,0.1,0.3,0.2,0.5,0.2c0.1,0,0.1,0.1,0.2,0.1h0.1c0,0,0,0,0.1,0c0.3,0.2,0.6,0.4,0.8,0.7c0.1,0.1,0.1,0.1,0.2,0.2l0,0l0,0
			l0.1,0.1c0.1,0.1,0.2,0.3,0.3,0.4c0.1,0.1,0.2,0.3,0.3,0.4c0,0,0,0.1,0.1,0.1c0,0,0.1,0.2,0,0c0,0.1,0.1,0.2,0.1,0.3
			c0.1,0.3,0.4,0.5,0.7,0.3C321.6,461.1,321.8,460.8,321.6,460.5z"/>
		<path class="st13" d="M321.9,463.3c0-0.1-0.2-0.3-0.3-0.3c-0.3-0.1-0.6,0-0.8,0.3c-0.1,0.2-0.2,0.4-0.3,0.5
			c-0.2,0.3-0.4,0.5-0.6,0.7l0,0c-0.1,0.1-0.2,0.2-0.2,0.4c0,0.1,0,0.3,0.1,0.4s0.2,0.2,0.4,0.2c0.1,0,0.3,0,0.4-0.1
			c0.5-0.5,1-1,1.2-1.7C321.9,463.6,321.9,463.5,321.9,463.3z"/>
		<path class="st13" d="M308.7,469.7c-8.4-4.4-16.9-8.9-25.3-13.3l-7.3-3.8c-0.7-0.3-1.1,0.7-0.5,1c8.4,4.4,16.9,8.9,25.3,13.3
			l7.3,3.8C308.8,471.1,309.3,470,308.7,469.7z"/>
		<path class="st13" d="M253.5,478c-9.4-4.6-18.7-9.4-28-14.2c-2.6-1.4-5.2-2.7-7.8-4.1c-0.7-0.3-1.1,0.7-0.5,1
			c9.2,4.9,18.5,9.7,27.9,14.4c2.6,1.3,5.3,2.6,7.9,4C253.7,479.3,254.2,478.3,253.5,478z"/>
		<path class="st7" d="M232.3,433.6c-5.6,1.2-11.3,2.4-16.9,3.6c-0.7,0.2-0.6,1.3,0.1,1.1c5.6-1.3,11.2-2.5,16.9-3.6
			C233.1,434.5,233,433.4,232.3,433.6z"/>
		<path class="st7" d="M232.5,437.4c-3.8,0.5-7.6,1-11.4,1.4c-0.7,0.1-0.6,1.2,0.1,1.1c3.8-0.5,7.6-1,11.4-1.4
			C233.3,438.4,233.2,437.3,232.5,437.4z"/>
		<path class="st7" d="M288.6,426.7c-5.2,1-10.5,1.9-15.8,2.5c-0.7,0.1-0.6,1.2,0.1,1.1c5.3-0.7,10.6-1.5,15.8-2.5
			C289.4,427.7,289.3,426.5,288.6,426.7z"/>
		<path class="st7" d="M287.8,430.5c-3.5,0.6-7,1-10.5,1.2c-0.7,0-0.6,1.2,0.1,1.1c3.5-0.1,7.1-0.5,10.5-1.2
			C288.6,431.5,288.5,430.3,287.8,430.5z"/>
	</g>
</g>
<g>
	<defs>
		<path id="SVGID_11_" d="M491.9,205.8c0,0-62,50.6-62.5,55.5c-6.5,58.5-38.5,109.3-84.6,141v86.6H196.7v-55.1
			c-92-17-161.7-97.6-161.7-194.5C35,143.2,103.6,63,194.5,45.2v-7.9h120v21.8c40.8,18.5,74.1,50.4,94.5,90.1l56.9-26.8L491.9,205.8
			z"/>
	</defs>
	<clipPath id="SVGID_12_">
		<use xlink:href="#SVGID_11_"  style="overflow:visible;"/>
	</clipPath>
	<g class="st14">
		<path class="st13" d="M171.9,187.9l-3.6,50L147,189.8c1.3-2.6,3.3-3.9,5.2-4.6c3.3-1.2,6.5-0.5,6.5-0.5s3.9-1.1,8.5,0.5
			C168.7,185.7,170.3,186.6,171.9,187.9z"/>
		<path class="st15" d="M208.8,236v49.6h-47.3l-1.2,2.7l-0.7,1.5c0,0-1.6-0.5-4.2-1.3l-38,15.4c-5-0.9-3.1-6.3-3.1-6.3
			c-1.7-3.2,1.6-3.8,1.6-3.8l1.5-19.7c-10.1-4.8-18.4-9.9-19.6-14.5c-3.2-12.7-0.4-66.9-0.4-66.9c-1-3.5,1.4-5.9,1.4-5.9
			S96,184,96,181.5c-0.1-2.5,34-18.1,34.5-18.3c-1.1,5.2-3.8,21.2,1.4,33.7l9.2-0.8l-5.8,7.8l33.1,34l14.8-44.4l-6.4-4.3l7.2-4.5
			c-1-8.6-8.9-20.9-9.2-21.4l0,0l0,0c0.5,0.1,16.4,2.6,19.1,4.5c2.8,2-1.1,4.1-1.1,4.1s3.3,1.8,2.1,3.5L208.8,236z"/>
		<path class="st16" d="M154.5,261.7l-25.8-20.5l-3.1-37.7l-2.5,39.1L154.5,261.7z"/>
		<polygon class="st7" points="199.8,245.8 206.4,285.6 202.8,285.6 202.8,264.6 193,246 193.3,196 		"/>
		<path class="st8" d="M186.4,285.9c1.9,3,3.4,5.8,2.2,6.1c-2.6,0.5-12.5-5.9-12.5-5.9c-7,5.8-15.7,2.3-15.7,2.3l6.6-15.3
			c0,0,11.8-2.3,14-2.1c2.1,0.2,13,9.6,13.3,11.2c0.2,1.1-0.2,2.5-0.5,3.3c-0.1,0.2-0.1,0.4-0.2,0.5c0.7,1.1,1,2.2,0.7,3
			C193.1,292.4,186.7,286.2,186.4,285.9z"/>
		<path class="st17" d="M183.9,184.6l-7.2,4.5l6.4,4.3l-14.8,44.4l2.7-37.3l0.9-12.7c0,0-1.2-14.4-3.6-20c0.6-0.2,1.2-0.5,1.9-0.9
			c1.6-0.8,3-2.1,4.4-3.7C175,163.8,182.9,176,183.9,184.6z"/>
		<path class="st18" d="M171.9,187.9c-1.6-1.3-3.2-2.2-4.7-2.7c-4.6-1.7-8.5-0.5-8.5-0.5l4.8-9.5l3.4-6.8c0.5-0.1,1-0.3,1.5-0.5
			C170.7,173.5,171.9,187.9,171.9,187.9z"/>
		<polygon class="st7" points="166.1,191.5 171,200.6 168.3,237.9 155.4,208.7 156.1,192.8 		"/>
		<path class="st17" d="M130.5,163.3c0.2-1.1,0.4-1.7,0.4-1.7l10.7-6.2l0,0l-3.6,8.3c-3.3,10.9,9,26.2,9,26.2l8.3,18.9l12.9,29.2
			l-33.1-34l5.8-7.8l-9.2,0.8C126.7,184.4,129.3,168.5,130.5,163.3L130.5,163.3z"/>
		<path class="st7" d="M167.2,185.2l-1.1,6.3l-10,1.3l-3.9-7.6c3.3-1.2,6.5-0.5,6.5-0.5S162.6,183.5,167.2,185.2z"/>
		<path class="st18" d="M158.7,184.6c0,0-3.2-0.7-6.5,0.5c-1.9,0.7-3.9,2.1-5.2,4.6c0,0-12.3-15.3-9-26.2L158.7,184.6z"/>
		<polygon class="st7" points="128.8,241.3 154.5,261.7 123.2,242.7 125.7,203.6 		"/>
		<path class="st7" d="M108.1,187.1c-2.3-1.1-4.5-2.2-6.6-3.5c-0.6-0.4-1.1,0.7-0.5,1c2.2,1.2,4.4,2.4,6.6,3.5
			C108.3,188.5,108.8,187.5,108.1,187.1z"/>
		<path class="st7" d="M104.6,190.6c-1-0.1-2,0-3,0.1c-0.3,0-0.6,0.3-0.5,0.6c0,0.3,0.3,0.6,0.6,0.5c0.5,0,0.9-0.1,1.4-0.1
			c0.2,0,0.4,0,0.7,0c0.1,0,0.2,0,0.3,0h0.1l0,0l0,0h0.1c0.2,0,0.3,0,0.4-0.1s0.2-0.2,0.2-0.4C105.1,191,104.9,190.6,104.6,190.6z"
			/>
		<path class="st7" d="M191.5,170.9c-0.2-0.2-0.6-0.2-0.8,0.1c-1.1,1.2-2.2,2.2-3.6,3.2c-0.3,0.2-0.3,0.5-0.1,0.8s0.5,0.3,0.8,0.1
			c1.4-1,2.7-2.1,3.8-3.4C191.8,171.4,191.7,171.1,191.5,170.9z"/>
		<path class="st7" d="M192,176c-1.4,0.5-2.9,1-4.3,1.5c-0.7,0.2-0.3,1.3,0.4,1.1c1.4-0.5,2.9-1,4.3-1.5
			C193.1,176.8,192.7,175.7,192,176z"/>
		<path class="st7" d="M171.9,186.9c-2.2-1.3-4.4-2.7-7-3.1c-2.2-0.3-4,0.2-5.9,1.1c-0.1-0.1-0.2-0.2-0.4-0.3
			c-2.3-0.4-4.6-0.2-6.8,0.6c-1.8,0.7-4.4,2-4.7,4.2c-0.1,0.7,1,0.9,1.1,0.2c0.2-0.9,0.9-1.6,1.7-2.1c0.8-0.6,1.7-1,2.7-1.4
			c1.6-0.6,3.4-0.7,5.1-0.5c-0.4,0.4,0.2,1.1,0.8,0.8c1-0.6,2-1.2,3.1-1.5c1.2-0.3,2.4-0.3,3.6,0c2.3,0.5,4.3,1.7,6.3,2.9
			C172,188.3,172.5,187.3,171.9,186.9z"/>
		<path class="st7" d="M154.9,287.9c-9.5-3.7-19-7.5-28.5-11.2c-2.7-1.1-5.4-2.1-8.1-3.2c-0.7-0.3-1.2,0.8-0.5,1
			c9.5,3.7,19,7.5,28.5,11.2c2.7,1.1,5.4,2.1,8.1,3.2C155.1,289.2,155.6,288.2,154.9,287.9z"/>
		<path class="st7" d="M168.5,270.9c-10.7-7.3-21.4-14.6-32.1-21.8c-3-2.1-6-4.1-9.1-6.2c-0.6-0.4-1.3,0.5-0.7,0.9
			c10.7,7.3,21.4,14.6,32.1,21.8c3,2.1,6,4.1,9.1,6.2C168.4,272.1,169.1,271.3,168.5,270.9z"/>
		<path class="st9" d="M186.9,285.9c-2.3-2-4.6-4.1-6.9-6.1c-0.6-0.5-1.3,0.4-0.7,0.9c2.3,2,4.6,4.1,6.9,6.1
			C186.8,287.2,187.5,286.4,186.9,285.9z"/>
		<path class="st9" d="M192.8,284.8c-3-2.8-5.9-5.6-8.9-8.3c-0.5-0.5-1.3,0.4-0.7,0.9c3,2.8,5.9,5.6,8.9,8.3
			C192.6,286.2,193.3,285.3,192.8,284.8z"/>
	</g>
</g>
<g>
	<defs>
		<path id="SVGID_13_" d="M491.9,205.8c0,0-62,50.6-62.5,55.5c-6.5,58.5-38.5,109.3-84.6,141v86.6H196.7v-55.1
			c-92-17-161.7-97.6-161.7-194.5C35,143.2,103.6,63,194.5,45.2v-7.9h120v21.8c40.8,18.5,74.1,50.4,94.5,90.1l56.9-26.8L491.9,205.8
			z"/>
	</defs>
	<clipPath id="SVGID_14_">
		<use xlink:href="#SVGID_13_"  style="overflow:visible;"/>
	</clipPath>
	<g class="st19">
		<polygon class="st20" points="174.5,297.9 264.9,297.9 285.5,232.6 212.9,232.6 193.8,293.8 173.2,293.8 		"/>
		<polygon class="st4" points="285.5,232.6 210.7,297.9 264.9,297.9 		"/>
		<path class="st21" d="M265.9,292.9H195c-0.8,0-0.7,1.1,0.1,1.1H266C266.8,294,266.6,292.9,265.9,292.9z"/>
	</g>
</g>
<g>
	<defs>
		<path id="SVGID_15_" d="M491.9,205.8c0,0-62,50.6-62.5,55.5c-6.5,58.5-38.5,109.3-84.6,141v86.6H196.7v-55.1
			c-92-17-161.7-97.6-161.7-194.5C35,143.2,103.6,63,194.5,45.2v-7.9h120v21.8c40.8,18.5,74.1,50.4,94.5,90.1l56.9-26.8L491.9,205.8
			z"/>
	</defs>
	<clipPath id="SVGID_16_">
		<use xlink:href="#SVGID_15_"  style="overflow:visible;"/>
	</clipPath>
	<g class="st22">
		<g>
			<path class="st16" d="M308.4,53.8v5.5H207v-5.5c0-6.6,5.4-12,12-12h77.4C303,41.8,308.4,47.2,308.4,53.8z"/>
			<circle class="st12" cx="297.4" cy="50.5" r="4.3"/>
			<circle class="st8" cx="280.6" cy="50.5" r="4.3"/>
			<circle class="st23" cx="262.8" cy="50.5" r="4.3"/>
			<path class="st13" d="M308.4,59.3v139.5c0,6.9-5.4,12.5-12,12.5h-28.8l-21.4,17.2l1.6-17.2H219c-6.6,0-12-5.6-12-12.5V59.3H308.4
				z"/>
		</g>
		<polygon class="st15" points="224.6,66.9 216.4,81.1 232.8,81.1 		"/>
		<polygon class="st24" points="224.6,107.1 232.8,92.9 216.4,92.9 		"/>
		<rect x="237.6" y="66.9" class="st25" width="40.7" height="5.2"/>
		<rect x="237.6" y="75.3" class="st25" width="63" height="5.8"/>
		<rect x="237.6" y="92.9" class="st25" width="40.7" height="5.2"/>
		<rect x="237.6" y="101.3" class="st25" width="63" height="5.8"/>
		<polygon class="st15" points="224.6,113.7 216.4,128 232.8,128 		"/>
		<polygon class="st15" points="224.6,139.8 216.4,154 232.8,154 		"/>
		<rect x="237.6" y="113.7" class="st25" width="40.7" height="5.2"/>
		<rect x="237.6" y="122.1" class="st25" width="63" height="5.8"/>
		<rect x="237.6" y="139.8" class="st25" width="40.7" height="5.2"/>
		<rect x="237.6" y="148.1" class="st25" width="63" height="5.8"/>
		<polygon class="st24" points="223.8,177.8 232,163.6 215.6,163.6 		"/>
		<rect x="236.8" y="163.5" class="st25" width="40.7" height="5.2"/>
		<rect x="236.8" y="171.9" class="st25" width="63" height="5.8"/>
		<polygon class="st15" points="223.8,184.4 215.6,198.6 232,198.6 		"/>
		<rect x="236.8" y="184.4" class="st25" width="40.7" height="5.2"/>
		<rect x="236.8" y="192.7" class="st25" width="63" height="5.8"/>
	</g>
</g>
<g>
	<g>
		<g>
			<g>
				<circle class="st16" cx="279.6" cy="388.2" r="2.7"/>
				<circle class="st16" cx="290.8" cy="388.2" r="2.7"/>
				<circle class="st16" cx="302" cy="388.2" r="2.7"/>
				<circle class="st16" cx="313.1" cy="388.2" r="2.7"/>
				<circle class="st16" cx="324.3" cy="388.2" r="2.7"/>
			</g>
			<g>
				<circle class="st16" cx="279.6" cy="399.5" r="2.7"/>
				<circle class="st16" cx="290.8" cy="399.5" r="2.7"/>
				<circle class="st16" cx="302" cy="399.5" r="2.7"/>
				<circle class="st16" cx="313.1" cy="399.5" r="2.7"/>
				<circle class="st16" cx="324.3" cy="399.5" r="2.7"/>
			</g>
		</g>
		<g>
			<g>
				<circle class="st16" cx="279.6" cy="355.4" r="2.7"/>
				<circle class="st16" cx="290.8" cy="355.4" r="2.7"/>
				<circle class="st16" cx="302" cy="355.4" r="2.7"/>
				<circle class="st16" cx="313.1" cy="355.4" r="2.7"/>
				<circle class="st16" cx="324.3" cy="355.4" r="2.7"/>
			</g>
			<g>
				<circle class="st16" cx="279.6" cy="366.7" r="2.7"/>
				<circle class="st16" cx="290.8" cy="366.7" r="2.7"/>
				<circle class="st16" cx="302" cy="366.7" r="2.7"/>
				<circle class="st16" cx="313.1" cy="366.7" r="2.7"/>
				<circle class="st16" cx="324.3" cy="366.7" r="2.7"/>
			</g>
			<g>
				<circle class="st16" cx="279.6" cy="378" r="2.7"/>
				<circle class="st16" cx="290.8" cy="378" r="2.7"/>
				<circle class="st16" cx="302" cy="378" r="2.7"/>
				<circle class="st16" cx="313.1" cy="378" r="2.7"/>
				<circle class="st16" cx="324.3" cy="378" r="2.7"/>
			</g>
		</g>
	</g>
	<g>
		<g>
			<g>
				<circle class="st13" cx="67" cy="245.6" r="2.7"/>
				<circle class="st13" cx="78.1" cy="245.6" r="2.7"/>
				<circle class="st13" cx="89.3" cy="245.6" r="2.7"/>
				<circle class="st13" cx="100.4" cy="245.6" r="2.7"/>
				<circle class="st13" cx="111.6" cy="245.6" r="2.7"/>
			</g>
			<g>
				<circle class="st13" cx="67" cy="256.9" r="2.7"/>
				<circle class="st13" cx="78.1" cy="256.9" r="2.7"/>
				<circle class="st13" cx="89.3" cy="256.9" r="2.7"/>
				<circle class="st13" cx="100.4" cy="256.9" r="2.7"/>
				<circle class="st13" cx="111.6" cy="256.9" r="2.7"/>
			</g>
		</g>
		<g>
			<g>
				<circle class="st13" cx="67" cy="212.8" r="2.7"/>
				<circle class="st13" cx="78.1" cy="212.8" r="2.7"/>
				<circle class="st13" cx="89.3" cy="212.8" r="2.7"/>
				<circle class="st13" cx="100.4" cy="212.8" r="2.7"/>
				<circle class="st13" cx="111.6" cy="212.8" r="2.7"/>
			</g>
			<g>
				<circle class="st13" cx="67" cy="224.1" r="2.7"/>
				<circle class="st13" cx="78.1" cy="224.1" r="2.7"/>
				<circle class="st13" cx="89.3" cy="224.1" r="2.7"/>
				<circle class="st13" cx="100.4" cy="224.1" r="2.7"/>
				<circle class="st13" cx="111.6" cy="224.1" r="2.7"/>
			</g>
			<g>
				<circle class="st13" cx="67" cy="235.4" r="2.7"/>
				<circle class="st13" cx="78.1" cy="235.4" r="2.7"/>
				<circle class="st13" cx="89.3" cy="235.4" r="2.7"/>
				<circle class="st13" cx="100.4" cy="235.4" r="2.7"/>
				<circle class="st13" cx="111.6" cy="235.4" r="2.7"/>
			</g>
		</g>
	</g>
	<g>
		<g>
			<g>
				<circle class="st13" cx="343.7" cy="120.6" r="2.7"/>
				<circle class="st13" cx="354.9" cy="120.6" r="2.7"/>
				<circle class="st13" cx="366" cy="120.6" r="2.7"/>
				<circle class="st13" cx="377.2" cy="120.6" r="2.7"/>
				<circle class="st13" cx="388.4" cy="120.6" r="2.7"/>
			</g>
			<g>
				<circle class="st13" cx="343.7" cy="131.9" r="2.7"/>
				<circle class="st13" cx="354.9" cy="131.9" r="2.7"/>
				<circle class="st13" cx="366" cy="131.9" r="2.7"/>
				<circle class="st13" cx="377.2" cy="131.9" r="2.7"/>
				<circle class="st13" cx="388.4" cy="131.9" r="2.7"/>
			</g>
		</g>
		<g>
			<g>
				<circle class="st13" cx="343.7" cy="87.7" r="2.7"/>
				<circle class="st13" cx="354.9" cy="87.7" r="2.7"/>
				<circle class="st13" cx="366" cy="87.7" r="2.7"/>
				<circle class="st13" cx="377.2" cy="87.7" r="2.7"/>
				<circle class="st13" cx="388.4" cy="87.7" r="2.7"/>
			</g>
			<g>
				<circle class="st13" cx="343.7" cy="99.1" r="2.7"/>
				<circle class="st13" cx="354.9" cy="99.1" r="2.7"/>
				<circle class="st13" cx="366" cy="99.1" r="2.7"/>
				<circle class="st13" cx="377.2" cy="99.1" r="2.7"/>
				<circle class="st13" cx="388.4" cy="99.1" r="2.7"/>
			</g>
			<g>
				<circle class="st13" cx="343.7" cy="110.4" r="2.7"/>
				<circle class="st13" cx="354.9" cy="110.4" r="2.7"/>
				<circle class="st13" cx="366" cy="110.4" r="2.7"/>
				<circle class="st13" cx="377.2" cy="110.4" r="2.7"/>
				<circle class="st13" cx="388.4" cy="110.4" r="2.7"/>
			</g>
		</g>
	</g>
	<g>
		<g>
			<g>
				<circle class="st16" cx="166.5" cy="72.7" r="2.7"/>
				<circle class="st16" cx="177.7" cy="72.7" r="2.7"/>
				<circle class="st16" cx="188.8" cy="72.7" r="2.7"/>
				<circle class="st16" cx="200" cy="72.7" r="2.7"/>
				<circle class="st16" cx="211.2" cy="72.7" r="2.7"/>
			</g>
			<g>
				<circle class="st16" cx="166.5" cy="84" r="2.7"/>
				<circle class="st16" cx="177.7" cy="84" r="2.7"/>
				<circle class="st16" cx="188.8" cy="84" r="2.7"/>
				<circle class="st16" cx="200" cy="84" r="2.7"/>
				<circle class="st16" cx="211.2" cy="84" r="2.7"/>
			</g>
		</g>
		<g>
			<g>
				<circle class="st16" cx="166.5" cy="39.8" r="2.7"/>
				<circle class="st16" cx="177.7" cy="39.8" r="2.7"/>
				<circle class="st16" cx="188.8" cy="39.8" r="2.7"/>
				<circle class="st16" cx="200" cy="39.8" r="2.7"/>
				<circle class="st16" cx="211.2" cy="39.8" r="2.7"/>
			</g>
			<g>
				<circle class="st16" cx="166.5" cy="51.1" r="2.7"/>
				<circle class="st16" cx="177.7" cy="51.1" r="2.7"/>
				<circle class="st16" cx="188.8" cy="51.1" r="2.7"/>
				<circle class="st16" cx="200" cy="51.1" r="2.7"/>
				<circle class="st16" cx="211.2" cy="51.1" r="2.7"/>
			</g>
			<g>
				<circle class="st16" cx="166.5" cy="62.5" r="2.7"/>
				<circle class="st16" cx="177.7" cy="62.5" r="2.7"/>
				<circle class="st16" cx="188.8" cy="62.5" r="2.7"/>
				<circle class="st16" cx="200" cy="62.5" r="2.7"/>
				<circle class="st16" cx="211.2" cy="62.5" r="2.7"/>
			</g>
		</g>
	</g>
</g>
</svg>
