<?xml version="1.0" encoding="utf-8"?>
<!-- Generator: Adobe Illustrator 25.2.3, SVG Export Plug-In . SVG Version: 6.00 Build 0)  -->
<svg version="1.1" xmlns="http://www.w3.org/2000/svg" xmlns:xlink="http://www.w3.org/1999/xlink" x="0px" y="0px"
	 viewBox="0 0 500 500" style="enable-background:new 0 0 500 500;" xml:space="preserve">
<style type="text/css">
	.st0{fill:#FFFFFF;}
	.st1{fill:#E0E0E0;}
	.st2{opacity:0.3;}
	.st3{fill:none;}
	.st4{fill-rule:evenodd;clip-rule:evenodd;fill:#E0E0E0;}
	.st5{fill:#EBEBEB;}
	.st6{display:none;}
	.st7{display:inline;fill:#EBEBEB;}
	.st8{fill:#263238;}
	.st9{fill:#E8505B;}
	.st10{fill:#5F9048;}
	.st11{fill:#455A64;}
	.st12{fill:#FAFAFA;}
	.st13{fill:#FFBE9D;}
	.st14{opacity:0.6;}
	.st15{fill:#EB996E;}
	.st16{font-family:'MazzardH-SemiBold';}
	.st17{font-size:11px;}
</style>
<g id="Background_Complete">
	<g>
		<g>
			<g>
				<rect x="68.7" y="116.4" class="st0" width="125.2" height="83.8"/>
			</g>
		</g>
		<g>
			<g>
				<g>
					<path class="st1" d="M193.9,200.3c0,0,0-0.5,0-1.5c0-1,0-2.5,0-4.4c0-3.9,0-9.6,0-16.9c0-14.6-0.1-35.5-0.1-61l0.2,0.2
						c-34.5,0-78,0-125.2,0h0l0.2-0.2c0,29.9,0,58.3,0,83.8l-0.2-0.2c36.9,0,68.1,0.1,90.2,0.1c11,0,19.8,0,25.8,0.1
						c3,0,5.3,0,6.9,0c0.8,0,1.4,0,1.8,0C193.7,200.2,193.9,200.3,193.9,200.3s-0.2,0-0.6,0c-0.4,0-1,0-1.7,0c-1.6,0-3.8,0-6.8,0
						c-6,0-14.7,0-25.7,0.1c-22.1,0-53.4,0.1-90.3,0.1l-0.2,0v-0.2c0-25.6,0-54,0-83.8l0-0.2h0.2h0c47.2,0,90.7,0,125.2,0l0.2,0
						l0,0.2c0,25.6-0.1,46.5-0.1,61.1c0,7.3,0,13,0,16.8c0,1.9,0,3.4,0,4.4C194,199.8,193.9,200.3,193.9,200.3z"/>
				</g>
			</g>
		</g>
	</g>
	<g>
		<g>
			<g>
				<path class="st1" d="M68.7,123.9c0-0.1,28-0.2,62.6-0.2c34.6,0,62.6,0.1,62.6,0.2c0,0.1-28,0.2-62.6,0.2
					C96.7,124.1,68.7,124,68.7,123.9z"/>
			</g>
		</g>
	</g>
	<g>
		<g class="st2">
			<g>
				<path class="st1" d="M73.7,120.1c0,0.6-0.4,1-1,1c-0.6,0-1-0.4-1-1s0.4-1,1-1C73.2,119.1,73.7,119.6,73.7,120.1z"/>
			</g>
		</g>
		<g class="st2">
			<g>
				<circle class="st1" cx="76.1" cy="120.1" r="1"/>
			</g>
		</g>
		<g class="st2">
			<g>
				<path class="st1" d="M80.5,120.1c0,0.6-0.4,1-1,1c-0.6,0-1-0.4-1-1s0.4-1,1-1C80.1,119.1,80.5,119.6,80.5,120.1z"/>
			</g>
		</g>
	</g>
	<g>
		<g>
			<rect x="79.5" y="132.6" class="st1" width="33.4" height="33.4"/>
		</g>
	</g>
	<g>
		<g>
			<g>
				<path class="st1" d="M176.8,142.1c0,0.1-13,0.2-29.1,0.2c-16.1,0-29.1-0.1-29.1-0.2c0-0.1,13-0.2,29.1-0.2
					C163.8,141.9,176.8,142,176.8,142.1z"/>
			</g>
		</g>
	</g>
	<g>
		<g>
			<g>
				<path class="st1" d="M176.8,148.3c0,0.1-13,0.2-29.1,0.2c-16.1,0-29.1-0.1-29.1-0.2c0-0.1,13-0.2,29.1-0.2
					C163.8,148.1,176.8,148.2,176.8,148.3z"/>
			</g>
		</g>
	</g>
	<g>
		<g>
			<g>
				<path class="st1" d="M176.8,154.5c0,0.1-13,0.2-29.1,0.2c-16.1,0-29.1-0.1-29.1-0.2s13-0.2,29.1-0.2
					C163.8,154.3,176.8,154.4,176.8,154.5z"/>
			</g>
		</g>
	</g>
	<g>
		<g>
			<g>
				<path class="st1" d="M153,160.7c0,0-0.5,0.1-1.4,0.1c-1,0-2.2,0-3.7,0.1c-3.1,0-7.4,0.1-12.2,0.1c-4.7,0-9,0-12.2-0.1
					c-1.5,0-2.7-0.1-3.7-0.1c-0.9,0-1.4-0.1-1.4-0.1c0,0,0.5-0.1,1.4-0.1c1,0,2.2,0,3.7-0.1c3.1,0,7.4-0.1,12.2-0.1
					c4.7,0,9,0,12.2,0.1c1.5,0,2.7,0.1,3.7,0.1C152.5,160.6,153,160.7,153,160.7z"/>
			</g>
		</g>
	</g>
	<g>
		<g>
			<rect x="81.6" y="177.3" class="st1" width="15.7" height="15.7"/>
		</g>
	</g>
	<g>
		<g>
			<rect x="110.1" y="177.3" class="st1" width="15.7" height="15.7"/>
		</g>
	</g>
	<g>
		<g>
			<rect x="138.5" y="177.3" class="st1" width="15.7" height="15.7"/>
		</g>
	</g>
	<g>
		<g>
			<rect x="167" y="177.3" class="st1" width="15.7" height="15.7"/>
		</g>
	</g>
	<g>
		<g>
			<g>
				<g>
					<g>
						<g>
							<path class="st3" d="M428.1,143.7c-0.8,1.1-1.7,2-2.7,2.8l0.7,3.5l-5.4,2.4l-2.1-2.9c-1.3,0.2-2.6,0.2-3.9,0.1l-2,3l-5.5-2.1
								l0.5-3.5c-1.1-0.8-2-1.7-2.8-2.7l-3.5,0.7l-2.4-5.4l2.9-2.1c-0.2-1.3-0.2-2.6-0.1-3.9l-3-2l2.1-5.5l3.5,0.5
								c0.8-1.1,1.7-2,2.7-2.8l-0.7-3.5l5.4-2.4l2.1,2.9c1.3-0.2,2.6-0.2,3.9-0.1l2-3l5.5,2.1l-0.5,3.5c1.1,0.8,2,1.7,2.8,2.7
								l3.5-0.7l2.4,5.4l-2.9,2.1c0.2,1.3,0.2,2.6,0.1,3.9l3,2l-2.1,5.5L428.1,143.7L428.1,143.7z M422.1,137.6
								c1.3-3.3-0.4-6.9-3.6-8.2c-3.3-1.3-6.9,0.4-8.2,3.6c-1.3,3.3,0.4,6.9,3.6,8.2C417.2,142.5,420.9,140.9,422.1,137.6z"/>
						</g>
					</g>
				</g>
			</g>
		</g>
		<g>
			<g>
				<g>
					<g>
						<g>
							<g>
								<path class="st1" d="M422.1,137.6c0,0-0.1,0.6-0.7,1.4c-0.6,0.8-1.7,2-3.4,2.5c-0.9,0.3-1.9,0.4-3,0.2
									c-1.1-0.2-2.2-0.7-3.1-1.5c-0.5-0.4-0.9-0.9-1.2-1.4c-0.4-0.5-0.6-1.1-0.8-1.8c-0.4-1.3-0.3-2.7,0.2-4.1
									c0.5-1.3,1.4-2.4,2.6-3.1c0.6-0.4,1.2-0.6,1.8-0.8c0.6-0.2,1.2-0.3,1.9-0.2c1.2,0,2.4,0.4,3.3,1c0.9,0.6,1.6,1.3,2.1,2.1
									c1,1.6,1,3.2,0.9,4.2C422.4,137.1,422.1,137.6,422.1,137.6c0,0,0.2-0.5,0.3-1.5c0.1-1,0-2.5-0.9-4c-0.5-0.7-1.1-1.5-2-2
									c-0.9-0.5-2-0.9-3.1-0.9c-0.6,0-1.2,0.1-1.8,0.2c-0.6,0.2-1.2,0.4-1.7,0.8c-1.1,0.7-1.9,1.7-2.4,3c-0.5,1.3-0.5,2.6-0.2,3.8
									c0.2,0.6,0.4,1.2,0.7,1.7c0.3,0.5,0.7,1,1.2,1.3c0.9,0.8,1.9,1.2,2.9,1.4c1,0.2,2,0.1,2.9-0.1c1.7-0.5,2.8-1.6,3.4-2.3
									C421.9,138.2,422.1,137.6,422.1,137.6z"/>
							</g>
						</g>
					</g>
				</g>
			</g>
		</g>
		<g>
			<g>
				<g>
					<g>
						<g>
							<g>
								<path class="st1" d="M428.1,143.7c0,0,0.1,0,0.2,0c0.2,0,0.4,0,0.7,0.1c0.6,0.1,1.5,0.2,2.7,0.4l-0.1,0
									c0.5-1.4,1.2-3.3,2.1-5.5l0,0.1c-0.9-0.6-1.9-1.3-3-2l-0.1,0l0-0.1c0.1-1.2,0.1-2.5-0.1-3.8l0-0.1l0.1,0
									c0.9-0.7,1.9-1.4,2.9-2.1l0,0.2c-0.8-1.7-1.6-3.5-2.4-5.4l0.2,0.1c-1.1,0.2-2.3,0.5-3.5,0.7l-0.1,0l-0.1-0.1
									c-0.7-0.9-1.7-1.8-2.8-2.6l-0.1-0.1l0-0.1c0.2-1.1,0.3-2.3,0.5-3.5l0.1,0.2c-1.7-0.7-3.6-1.4-5.5-2.1l0.2-0.1
									c-0.6,0.9-1.3,1.9-2,3l-0.1,0.1l-0.1,0c-1.2-0.1-2.5-0.1-3.8,0.1l-0.1,0l-0.1-0.1c-0.7-0.9-1.4-1.9-2.1-2.9l0.2,0.1
									c-1.7,0.8-3.5,1.6-5.4,2.4l0.1-0.2c0.2,1.1,0.5,2.3,0.7,3.5l0,0.1l-0.1,0.1c-0.9,0.8-1.9,1.7-2.6,2.8l0,0l0,0
									c-0.1,0,0.2-0.1-0.2,0.1l0,0l0,0l0,0l0,0l-0.1,0l-0.1,0l-0.2,0l-0.4-0.1l-0.9-0.1c-0.6-0.1-1.2-0.2-1.8-0.3l0.2-0.1
									c-0.7,1.9-1.4,3.7-2.1,5.5l-0.1-0.2c1,0.7,2,1.3,3,2l0.1,0.1l0,0.1c-0.1,1.3-0.1,2.6,0.1,3.8l0,0.1l-0.1,0.1
									c-1,0.7-1.9,1.4-2.9,2.1l0.1-0.2c0.8,1.8,1.6,3.7,2.4,5.4l-0.2-0.1c1.2-0.2,2.4-0.5,3.5-0.7l0.1,0l0.1,0.1
									c0.8,1,1.7,1.9,2.8,2.6l0.1,0.1l0,0.1c-0.2,1.2-0.4,2.4-0.5,3.5l-0.1-0.2c1.9,0.8,3.8,1.5,5.5,2.1l-0.2,0.1c0.7-1,1.4-2,2-3
									l0-0.1l0.1,0c1.4,0.1,2.6,0.1,3.8-0.1l0.1,0l0,0.1c0.8,1,1.5,2,2.1,2.9l-0.1,0c2.1-0.9,3.9-1.7,5.4-2.4l0,0.1
									c-0.3-1.4-0.5-2.6-0.7-3.5l0,0l0,0c1-0.8,1.7-1.5,2.1-2c0.2-0.2,0.3-0.4,0.5-0.6C428,143.7,428.1,143.7,428.1,143.7
									c0,0,0,0.1-0.1,0.2c-0.1,0.1-0.2,0.3-0.4,0.6c-0.4,0.5-1,1.2-2.1,2.1l0-0.1c0.2,1,0.4,2.1,0.7,3.5l0,0.1l-0.1,0
									c-1.5,0.7-3.3,1.5-5.4,2.4l-0.1,0l-0.1-0.1c-0.7-0.9-1.4-1.8-2.1-2.9l0.1,0c-1.2,0.2-2.5,0.3-3.9,0.1l0.1-0.1
									c-0.6,0.9-1.3,1.9-2,3l-0.1,0.1l-0.1,0c-1.7-0.7-3.6-1.4-5.5-2.1l-0.1,0l0-0.1c0.2-1.1,0.3-2.3,0.5-3.5l0.1,0.2
									c-1-0.7-2-1.6-2.8-2.7l0.2,0.1c-1.1,0.2-2.3,0.5-3.5,0.7l-0.1,0l-0.1-0.1c-0.8-1.8-1.6-3.6-2.4-5.4l-0.1-0.1l0.1-0.1
									c0.9-0.7,1.9-1.4,2.9-2.1l-0.1,0.2c-0.2-1.3-0.2-2.6-0.1-3.9l0.1,0.2c-1-0.7-2-1.3-3-2l-0.1-0.1l0.1-0.1
									c0.7-1.8,1.4-3.7,2.1-5.5l0.1-0.1l0.1,0c0.6,0.1,1.2,0.2,1.8,0.3l0.9,0.1l0.4,0.1l0.2,0l0.1,0l0.1,0l0,0l0,0l0,0l0,0
									c-0.3,0.1-0.1,0-0.2,0.1l0,0l0,0c0.8-1.1,1.7-2.1,2.7-2.8l-0.1,0.2c-0.2-1.2-0.5-2.4-0.7-3.5l0-0.1l0.1-0.1
									c1.9-0.8,3.7-1.6,5.4-2.4l0.1-0.1l0.1,0.1c0.7,1,1.5,2,2.1,2.9l-0.2-0.1c1.3-0.2,2.7-0.2,3.9-0.1l-0.2,0.1c0.7-1,1.4-2,2-3
									l0.1-0.1l0.1,0c1.9,0.7,3.8,1.5,5.5,2.1l0.1,0l0,0.1c-0.2,1.2-0.4,2.4-0.5,3.5l-0.1-0.1c1.1,0.8,2.1,1.7,2.8,2.7l-0.1-0.1
									c1.2-0.2,2.4-0.5,3.5-0.7l0.1,0l0,0.1c0.8,1.9,1.6,3.7,2.4,5.4l0,0.1l-0.1,0.1c-1,0.7-2,1.5-2.9,2.1l0-0.1
									c0.2,1.4,0.2,2.7,0.1,3.9l0-0.1c1.1,0.7,2.1,1.4,3,2l0.1,0l0,0.1c-0.9,2.2-1.6,4.1-2.2,5.5l0,0l0,0c-1.1-0.2-2-0.3-2.6-0.4
									c-0.3,0-0.5-0.1-0.7-0.1C428.2,143.7,428.1,143.7,428.1,143.7z"/>
							</g>
						</g>
					</g>
				</g>
			</g>
		</g>
	</g>
	<g>
		<g>
			<g>
				<g>
					<g>
						<path class="st4" d="M459.6,126.8c-0.6,0.9-1.4,1.7-2.2,2.3l0.6,2.9l-4.5,2l-1.8-2.4c-1,0.2-2.1,0.2-3.2,0.1l-1.7,2.5
							l-4.6-1.8l0.4-2.9c-0.9-0.6-1.7-1.4-2.3-2.2l-2.9,0.6l-2-4.5l2.4-1.8c-0.2-1-0.2-2.1-0.1-3.2l-2.5-1.7l1.8-4.6l2.9,0.4
							c0.6-0.9,1.4-1.7,2.2-2.3l-0.6-2.9l4.5-2l1.8,2.4c1-0.2,2.1-0.2,3.2-0.1l1.7-2.5l4.6,1.8l-0.4,2.9c0.9,0.6,1.7,1.4,2.3,2.2
							l2.9-0.6l2,4.5l-2.4,1.8c0.2,1,0.2,2.1,0.1,3.2l2.5,1.7l-1.8,4.6L459.6,126.8L459.6,126.8z M454.6,121.8c1-2.7-0.3-5.8-3-6.8
							c-2.7-1-5.8,0.3-6.8,3c-1,2.7,0.3,5.8,3,6.8C450.5,125.9,453.6,124.5,454.6,121.8z"/>
					</g>
				</g>
			</g>
		</g>
	</g>
	<g>
		<g>
			<g>
				<g>
					<g>
						<path class="st4" d="M440.2,99.5c-1,1.4-2.2,2.6-3.5,3.6l0.9,4.6l-7,3.1l-2.8-3.7c-1.6,0.3-3.3,0.3-5,0.1l-2.6,3.9l-7.2-2.8
							l0.7-4.6c-1.4-1-2.6-2.2-3.6-3.5l-4.6,0.9l-3.1-7l3.7-2.8c-0.3-1.6-0.3-3.3-0.1-5l-3.9-2.6l2.8-7.2l4.6,0.7
							c1-1.4,2.2-2.6,3.5-3.6l-0.9-4.6l7-3.1l2.8,3.7c1.6-0.3,3.3-0.3,5-0.1l2.6-3.9l7.2,2.8L436,73c1.4,1,2.6,2.2,3.6,3.5l4.6-0.9
							l3.1,7l-3.7,2.8c0.3,1.6,0.3,3.3,0.1,5l3.9,2.6l-2.8,7.2L440.2,99.5L440.2,99.5z M432.4,91.6c1.6-4.3-0.5-9-4.7-10.7
							c-4.3-1.6-9,0.5-10.7,4.7c-1.6,4.3,0.5,9,4.7,10.7C426,98,430.8,95.9,432.4,91.6z"/>
					</g>
				</g>
			</g>
		</g>
	</g>
	<g>
		<g>
			<g>
				<path class="st1" d="M369.6,61.4c0,0,0.2-0.2,0.5-0.6c0.4-0.4,0.9-0.9,1.5-1.5c1.3-1.3,3.1-3,5.1-4.9l0,0l0,0.3
					c-2-1.9-3.8-3.6-5.1-4.8c-0.6-0.6-1.1-1.1-1.5-1.5c-0.4-0.4-0.5-0.6-0.5-0.6c0,0,0.2,0.2,0.6,0.5c0.4,0.4,1,0.9,1.6,1.4
					c1.3,1.2,3.2,2.9,5.2,4.8l0.1,0.1l-0.1,0.1l0,0c-2,1.9-3.8,3.6-5.2,4.9c-0.6,0.6-1.2,1.1-1.6,1.4
					C369.9,61.2,369.6,61.4,369.6,61.4z"/>
			</g>
		</g>
	</g>
	<g>
		<g>
			<g>
				<path class="st1" d="M354,47.6c0,0-0.2,0.2-0.5,0.6c-0.4,0.4-0.9,0.9-1.5,1.5c-1.3,1.3-3.1,3-5.1,4.9l0,0l0-0.3
					c2,1.9,3.8,3.6,5.1,4.8c0.6,0.6,1.1,1.1,1.5,1.5c0.4,0.4,0.5,0.6,0.5,0.6c0,0-0.2-0.2-0.6-0.5c-0.4-0.4-1-0.9-1.6-1.4
					c-1.3-1.2-3.2-2.9-5.2-4.8l-0.1-0.1l0.1-0.1l0,0c2-1.9,3.8-3.6,5.2-4.9c0.6-0.6,1.2-1.1,1.6-1.4C353.8,47.8,354,47.6,354,47.6z"
					/>
			</g>
		</g>
	</g>
	<g>
		<g>
			<g>
				<path class="st1" d="M358,64.6c-0.1,0,1.5-4.6,3.7-10.3c2.1-5.6,3.9-10.2,4-10.2c0.1,0-1.5,4.6-3.7,10.3
					C359.9,60.1,358.1,64.6,358,64.6z"/>
			</g>
		</g>
	</g>
	<g>
		<g>
			<g>
				<path class="st1" d="M387.4,74.5c0,0,0-0.3,0-0.8c0-0.5,0-1.3,0-2.2c0-1.9,0-4.8,0-8.4c0-7.2,0-17.5-0.1-30l0.1,0.1
					c-14.5,0-32,0-50.8,0h0l0.2-0.2c0,15,0,29.1,0,41.4l-0.2-0.2c15.1,0,27.7,0.1,36.7,0.1c4.5,0,8,0,10.4,0c1.2,0,2.1,0,2.8,0
					c0.3,0,0.5,0,0.7,0C387.3,74.5,387.4,74.5,387.4,74.5s-0.1,0-0.2,0c-0.2,0-0.4,0-0.7,0c-0.6,0-1.5,0-2.7,0c-2.4,0-5.9,0-10.4,0
					c-8.9,0-21.6,0-36.8,0.1l-0.2,0l0-0.2c0-12.3,0-26.4,0-41.4v-0.2h0.2h0c18.8,0,36.2,0,50.8,0l0.1,0l0,0.1
					c0,12.5-0.1,22.8-0.1,30.1c0,3.6,0,6.4,0,8.4c0,1,0,1.7,0,2.2C387.4,74.2,387.4,74.5,387.4,74.5z"/>
			</g>
		</g>
	</g>
	<g>
		<g>
			<g>
				<path class="st1" d="M387.8,39.2c0,0.1-11.5,0.2-25.6,0.2c-14.1,0-25.6-0.1-25.6-0.2c0-0.1,11.5-0.2,25.6-0.2
					C376.3,39.1,387.8,39.1,387.8,39.2z"/>
			</g>
		</g>
	</g>
	<g>
		<g>
			<g>
				<path class="st1" d="M340.7,36.2c0,0.4-0.3,0.7-0.7,0.7c-0.4,0-0.7-0.3-0.7-0.7c0-0.4,0.3-0.7,0.7-0.7
					C340.4,35.5,340.7,35.8,340.7,36.2z"/>
			</g>
		</g>
		<g>
			<g>
				<ellipse class="st1" cx="342.5" cy="36.2" rx="0.7" ry="0.7"/>
			</g>
		</g>
		<g>
			<g>
				<path class="st1" d="M345.7,36.2c0,0.4-0.3,0.7-0.7,0.7c-0.4,0-0.7-0.3-0.7-0.7c0-0.4,0.3-0.7,0.7-0.7
					C345.4,35.5,345.7,35.8,345.7,36.2z"/>
			</g>
		</g>
	</g>
	<g>
		<g>
			<g>
				<rect x="171.8" y="53" class="st0" width="117.4" height="47.7"/>
			</g>
		</g>
		<g>
			<g>
				<g>
					<path class="st1" d="M289.2,100.7c0,0,0-0.3,0-0.9c0-0.6,0-1.4,0-2.5c0-2.2,0-5.4,0-9.5c0-8.2,0-20.1-0.1-34.9l0.1,0.1
						c-29.9,0-71.4,0-117.4,0.1h0L172,53c0,16.7,0,32.8,0,47.7l-0.2-0.2c34,0,63.3,0.1,84.2,0.1c10.4,0,18.7,0,24.4,0
						c2.8,0,5,0,6.5,0c0.7,0,1.3,0,1.7,0C289,100.7,289.2,100.7,289.2,100.7s-0.2,0-0.6,0c-0.4,0-0.9,0-1.7,0c-1.5,0-3.7,0-6.5,0
						c-5.7,0-14,0-24.4,0c-20.9,0-50.2,0.1-84.3,0.1l-0.2,0v-0.2c0-14.9,0-31,0-47.7v-0.2h0.2h0c45.9,0,87.5,0,117.4,0.1l0.1,0
						l0,0.1c0,14.8-0.1,26.7-0.1,34.9c0,4.1,0,7.3,0,9.5c0,1.1,0,1.9,0,2.5C289.2,100.4,289.2,100.7,289.2,100.7z"/>
				</g>
			</g>
		</g>
	</g>
	<g>
		<g>
			<g>
				<path class="st1" d="M172,59.5c0-0.1,26.2-0.2,58.6-0.2c32.4,0,58.6,0.1,58.6,0.2c0,0.1-26.2,0.2-58.6,0.2
					C198.2,59.7,172,59.6,172,59.5z"/>
			</g>
		</g>
	</g>
	<g>
		<g class="st2">
			<g>
				<path class="st5" d="M176.9,56.6c0,0.5-0.4,0.9-0.9,0.9c-0.5,0-0.9-0.4-0.9-0.9c0-0.5,0.4-0.9,0.9-0.9
					C176.5,55.7,176.9,56.1,176.9,56.6z"/>
			</g>
		</g>
		<g class="st2">
			<g>
				<path class="st5" d="M179.8,56.6c0,0.5-0.4,0.9-0.9,0.9c-0.5,0-0.9-0.4-0.9-0.9c0-0.5,0.4-0.9,0.9-0.9
					C179.4,55.7,179.8,56.1,179.8,56.6z"/>
			</g>
		</g>
		<g class="st2">
			<g>
				<circle class="st5" cx="181.8" cy="56.6" r="0.9"/>
			</g>
		</g>
	</g>
	<g>
		<g>
			<rect x="181.8" y="67.2" class="st1" width="28.4" height="28.4"/>
		</g>
	</g>
	<g>
		<g>
			<g>
				<g>
					<path class="st1" d="M281.1,74.8c0,0.1-14.6,0.2-32.6,0.2c-18,0-32.6-0.1-32.6-0.2c0-0.1,14.6-0.2,32.6-0.2
						C266.5,74.6,281.1,74.7,281.1,74.8z"/>
				</g>
			</g>
		</g>
		<g>
			<g>
				<g>
					<path class="st1" d="M281.1,80.6c0,0.1-14.6,0.2-32.6,0.2c-18,0-32.6-0.1-32.6-0.2c0-0.1,14.6-0.2,32.6-0.2
						C266.5,80.4,281.1,80.5,281.1,80.6z"/>
				</g>
			</g>
		</g>
		<g>
			<g>
				<g>
					<path class="st1" d="M257.9,86.4c0,0-0.1,0-0.4,0c-0.3,0-0.7,0-1.2,0c-1.1,0-2.6,0-4.5,0.1c-3.8,0-9.1,0-14.8,0.1
						c-5.8,0-11,0-14.8-0.1c-1.9,0-3.4,0-4.5-0.1c-0.5,0-0.9,0-1.2,0c-0.3,0-0.4,0-0.4,0c0,0,0.1,0,0.4,0c0.3,0,0.7,0,1.2,0
						c1.1,0,2.6,0,4.5-0.1c3.8,0,9.1,0,14.8-0.1c5.8,0,11,0,14.8,0.1c1.9,0,3.4,0,4.5,0.1c0.5,0,0.9,0,1.2,0
						C257.7,86.3,257.9,86.4,257.9,86.4z"/>
				</g>
			</g>
		</g>
	</g>
</g>
<g id="Background_Simple" class="st6">
	<path class="st7" d="M433.4,94.4l-2.5-4.1c-20.1-32.6-56.2-52.4-94.4-50.4c-5.4,0.3-10.7,1-16,2.1c-35.2,7.4-65.8,33.7-78.5,67.3
		c-7.5,19.8-9.5,42.6-23.7,58.3c-18.4,20.4-49.7,21.1-77.2,20.2c-27.5-0.8-58.8-0.1-77.2,20.4c-11.5,12.9-15.1,31.1-14.2,48.3
		c2.5,45.6,34.6,86.3,75.5,106.6c40.9,20.3,89,22.1,133.8,13.2c62.7-12.5,122.3-46.8,158.2-99.7C453,223.7,462.1,151.6,433.4,94.4z"
		/>
	<path class="st7" d="M179.6,105.7c-9.9-9.9-27.3-16.8-39.1-9.3l1.7-0.9c-12.5,6.2-20.6,20.4-19.3,34.3c1.3,13.9,12,26.5,25.6,29.8
		c13.6,3.3,29-3.2,36-15.2C191.5,132.2,189.5,115.5,179.6,105.7z"/>
</g>
<g id="Floor">
	<g>
		<path class="st8" d="M472.9,445.1c0,0.1-99.8,0.3-222.9,0.3c-123.1,0-222.9-0.1-222.9-0.3s99.8-0.3,222.9-0.3
			C373.1,444.8,472.9,444.9,472.9,445.1z"/>
	</g>
</g>
<g id="Screens">
	<g>
		<rect x="295" y="135.4" class="st1" width="140.1" height="114.2"/>
	</g>
	<g>
		<rect x="285.1" y="142.7" class="st5" width="140.1" height="114.2"/>
	</g>
	<g>
		<g>
			<rect x="271.3" y="150.6" class="st0" width="143.9" height="117.2"/>
		</g>
		<g>
			<g>
				<path class="st8" d="M415.2,267.8c0,0,0-0.7,0-2.2c0-1.4,0-3.5,0-6.3c0-5.5,0-13.5-0.1-23.7c0-20.5-0.1-49.7-0.1-85l0.2,0.2
					c-41.2,0-90.6,0-143.9,0h0l0.3-0.3c0,42.4,0,82.4,0,117.2l-0.2-0.2c42.8,0,78.7,0.1,104,0.1c12.6,0,22.6,0,29.4,0.1
					c3.4,0,6,0,7.8,0c0.9,0,1.5,0,2,0C415,267.8,415.2,267.8,415.2,267.8s-0.2,0-0.7,0c-0.5,0-1.1,0-2,0c-1.8,0-4.4,0-7.7,0
					c-6.8,0-16.7,0-29.4,0.1c-25.3,0-61.3,0.1-104.1,0.1l-0.2,0l0-0.2c0-34.8,0-74.8,0-117.2v-0.3h0.3h0c53.2,0,102.7,0,143.9,0
					l0.2,0l0,0.2c0,35.4-0.1,64.7-0.1,85.2c0,10.2,0,18.2-0.1,23.7c0,2.7,0,4.8,0,6.2C415.2,267.1,415.2,267.8,415.2,267.8z"/>
			</g>
		</g>
	</g>
	<g>
		<path class="st9" d="M287.6,256.4L286,257l1.5,0.6v0.6l-2.2-0.8v-0.6l2.2-0.8V256.4z"/>
		<path class="st9" d="M289.2,254.7h0.6l-1.5,4.4h-0.6L289.2,254.7z"/>
		<path class="st9" d="M293,255.4v3.2h-0.8v-1.3h-1.5v1.3H290v-3.2h0.8v1.3h1.5v-1.3H293z"/>
		<path class="st9" d="M294.5,256h-1v-0.6h2.8v0.6h-1v2.6h-0.8V256z"/>
		<path class="st9" d="M299.6,258.6l0-1.9l-1,1.6h-0.3l-1-1.6v1.9h-0.7v-3.2h0.6l1.2,2l1.2-2h0.6l0,3.2H299.6z"/>
		<path class="st9" d="M301.1,255.4h0.8v2.6h1.6v0.6h-2.4V255.4z"/>
		<path class="st9" d="M306,256.7v0.6l-2.2,0.8v-0.6l1.5-0.6l-1.5-0.6v-0.6L306,256.7z"/>
	</g>
	<g>
		<g>
			<path class="st8" d="M415.2,160.4c0,0.1-32.1,0.3-71.7,0.3c-39.6,0-71.7-0.1-71.7-0.3c0-0.1,32.1-0.3,71.7-0.3
				C383.1,160.1,415.2,160.2,415.2,160.4z"/>
		</g>
	</g>
	<g>
		<g>
			<path class="st8" d="M276.2,155.2c0,0.5-0.4,0.9-0.9,0.9c-0.5,0-0.9-0.4-0.9-0.9c0-0.5,0.4-0.9,0.9-0.9
				C275.7,154.3,276.2,154.7,276.2,155.2z"/>
		</g>
		<g>
			<circle class="st8" cx="278.8" cy="155.2" r="0.9"/>
		</g>
		<g>
			<path class="st8" d="M283.2,155.2c0,0.5-0.4,0.9-0.9,0.9c-0.5,0-0.9-0.4-0.9-0.9c0-0.5,0.4-0.9,0.9-0.9
				C282.8,154.3,283.2,154.7,283.2,155.2z"/>
		</g>
	</g>
	<g>
		<g>
			<path class="st1" d="M281,268.8c-0.1,0-0.3-24.3-0.3-54.3c0-30,0.1-54.3,0.3-54.3s0.3,24.3,0.3,54.3
				C281.2,244.5,281.1,268.8,281,268.8z"/>
		</g>
	</g>
	<g>
		<g>
			<rect x="80.2" y="54.8" class="st10" width="59.3" height="42.2"/>
		</g>
	</g>
	<g>
		<g>
			<g>
				<path class="st0" d="M139.9,61c0,0.1-13.4,0.3-29.9,0.3c-16.5,0-29.9-0.1-29.9-0.3c0-0.1,13.4-0.3,29.9-0.3
					C126.6,60.8,139.9,60.9,139.9,61z"/>
			</g>
		</g>
	</g>
	<g>
		<g>
			<g>
				<path class="st0" d="M85,58c0,0.4-0.4,0.7-0.8,0.7c-0.4,0-0.8-0.3-0.8-0.7c0-0.4,0.4-0.7,0.8-0.7C84.7,57.3,85,57.6,85,58z"/>
			</g>
		</g>
		<g>
			<g>
				<path class="st0" d="M88,58c0,0.4-0.4,0.7-0.8,0.7c-0.4,0-0.8-0.3-0.8-0.7c0-0.4,0.4-0.7,0.8-0.7C87.6,57.3,88,57.6,88,58z"/>
			</g>
		</g>
		<g>
			<g>
				<ellipse class="st0" cx="90.1" cy="58" rx="0.8" ry="0.7"/>
			</g>
		</g>
	</g>
	<g>
		<g>
			<rect x="402.4" y="216.3" class="st10" width="53.6" height="38.2"/>
		</g>
	</g>
	<g>
		<g>
			<g>
				<g>
					<path class="st0" d="M456.4,222c0,0.1-12.1,0.2-27,0.2c-14.9,0-27-0.1-27-0.2c0-0.1,12.1-0.2,27-0.2
						C444.3,221.8,456.4,221.9,456.4,222z"/>
				</g>
			</g>
		</g>
		<g>
			<g>
				<g>
					<path class="st0" d="M406.8,219.2c0,0.3-0.3,0.6-0.7,0.6c-0.4,0-0.7-0.3-0.7-0.6c0-0.3,0.3-0.6,0.7-0.6
						C406.4,218.6,406.8,218.8,406.8,219.2z"/>
				</g>
			</g>
			<g>
				<g>
					<path class="st0" d="M409.4,219.2c0,0.3-0.3,0.6-0.7,0.6s-0.7-0.3-0.7-0.6c0-0.3,0.3-0.6,0.7-0.6S409.4,218.8,409.4,219.2z"/>
				</g>
			</g>
			<g>
				<g>
					<path class="st0" d="M412,219.2c0,0.3-0.3,0.6-0.7,0.6c-0.4,0-0.7-0.3-0.7-0.6c0-0.3,0.3-0.6,0.7-0.6
						C411.7,218.6,412,218.8,412,219.2z"/>
				</g>
			</g>
		</g>
	</g>
	<g>
		<g>
			<rect x="51.8" y="215.8" class="st10" width="39.5" height="28.1"/>
		</g>
	</g>
	<g>
		<g>
			<g>
				<g>
					<path class="st0" d="M91.6,219.9c0,0.1-8.9,0.1-19.9,0.1c-11,0-19.9-0.1-19.9-0.1s8.9-0.1,19.9-0.1
						C82.7,219.8,91.6,219.9,91.6,219.9z"/>
				</g>
			</g>
		</g>
		<g>
			<g>
				<g>
					<path class="st0" d="M55,217.9c0,0.3-0.2,0.5-0.5,0.5c-0.3,0-0.5-0.2-0.5-0.5c0-0.3,0.2-0.5,0.5-0.5
						C54.8,217.4,55,217.6,55,217.9z"/>
				</g>
			</g>
			<g>
				<g>
					<path class="st0" d="M56.9,217.9c0,0.3-0.2,0.5-0.5,0.5c-0.3,0-0.5-0.2-0.5-0.5c0-0.3,0.2-0.5,0.5-0.5
						C56.7,217.4,56.9,217.6,56.9,217.9z"/>
				</g>
			</g>
			<g>
				<g>
					<path class="st0" d="M58.9,217.9c0,0.3-0.2,0.5-0.5,0.5c-0.3,0-0.5-0.2-0.5-0.5c0-0.3,0.2-0.5,0.5-0.5
						C58.6,217.4,58.9,217.6,58.9,217.9z"/>
				</g>
			</g>
		</g>
	</g>
	<g>
		<g>
			<g>
				<g>
					<path class="st10" d="M338.2,126.5c0,0,0-0.3,0-0.8c0-0.5,0-1.3,0-2.3c0-2,0-4.9-0.1-8.6c0-7.4-0.1-18-0.1-31l0.2,0.2
						c-18,0-41,0-65.9,0.1h0l0.3-0.3c0,15.1,0,29.5,0,42.6l-0.2-0.2c19.3,0,35.8,0.1,47.4,0.1c5.8,0,10.4,0,13.6,0.1
						c1.6,0,2.8,0,3.6,0c0.4,0,0.7,0,0.9,0C338.1,126.5,338.2,126.5,338.2,126.5c0,0-0.1,0-0.3,0c-0.2,0-0.5,0-0.9,0
						c-0.8,0-2,0-3.6,0c-3.2,0-7.8,0-13.5,0.1c-11.7,0-28.2,0.1-47.6,0.1l-0.2,0l0-0.2c0-13.1,0-27.4,0-42.6l0-0.3h0.3h0
						c24.9,0,47.8,0,65.9,0.1l0.2,0l0,0.2c0,13-0.1,23.7-0.1,31.1c0,3.7,0,6.5-0.1,8.5c0,1,0,1.7,0,2.2
						C338.2,126.3,338.2,126.5,338.2,126.5z"/>
				</g>
			</g>
		</g>
		<g>
			<g>
				<g>
					<path class="st10" d="M338.2,90.3c0,0.1-14.8,0.3-33,0.3c-18.2,0-33-0.1-33-0.3c0-0.1,14.8-0.3,33-0.3
						C323.4,90,338.2,90.1,338.2,90.3z"/>
				</g>
			</g>
		</g>
		<g>
			<g>
				<g>
					<path class="st10" d="M277.2,87.2c0,0.4-0.4,0.7-0.8,0.7c-0.4,0-0.8-0.3-0.8-0.7s0.4-0.7,0.8-0.7
						C276.8,86.5,277.2,86.8,277.2,87.2z"/>
				</g>
			</g>
			<g>
				<g>
					<path class="st10" d="M280.1,87.2c0,0.4-0.4,0.7-0.8,0.7c-0.4,0-0.8-0.3-0.8-0.7s0.4-0.7,0.8-0.7
						C279.7,86.5,280.1,86.8,280.1,87.2z"/>
				</g>
			</g>
			<g>
				<g>
					<path class="st10" d="M283,87.2c0,0.4-0.4,0.7-0.8,0.7c-0.4,0-0.8-0.3-0.8-0.7s0.4-0.7,0.8-0.7C282.7,86.5,283,86.8,283,87.2z"
						/>
				</g>
			</g>
		</g>
	</g>
</g>
<g id="Character">
	<g>
		<g>
			<g>
				<g>
					<g>
						<path class="st11" d="M147.9,271.9l26.1,88.2c1.2,3.9,4.8,6.6,8.8,6.6l106,0.3c5.6,0,10.1-4.7,9.8-10.3l0,0
							c-0.3-5.2-4.6-9.3-9.8-9.3h-40.5L215.9,257h-56.8C151.3,257,145.7,264.5,147.9,271.9z"/>
					</g>
				</g>
			</g>
			<g>
				<g>
					<g>
						<g>
							<path class="st8" d="M237.6,354.7c0,0.2-10.8,0.4-24.1,0.4c-13.3,0-24.1-0.2-24.1-0.4c0-0.2,10.8-0.4,24.1-0.4
								C226.8,354.3,237.6,354.5,237.6,354.7z"/>
						</g>
					</g>
				</g>
			</g>
			<g>
				<g>
					<g>
						<g>
							<path class="st8" d="M155.7,259.8c0.2-0.1,7.4,21,16.1,47.2c8.7,26.1,15.6,47.3,15.4,47.4c-0.2,0.1-7.4-21-16.1-47.2
								C162.4,281.1,155.5,259.8,155.7,259.8z"/>
						</g>
					</g>
				</g>
			</g>
		</g>
		<g>
			<polygon class="st11" points="233.2,445.1 226.7,444.9 226.7,366.7 233.2,366.7 			"/>
		</g>
		<g>
			<polygon class="st11" points="199.9,444.7 260,444.7 232.7,435.3 226.3,435.3 			"/>
		</g>
	</g>
	<g>
		<g>
			<g>
				<g>
					<g>
						<g>
							<g>
								<path class="st10" d="M184.6,236.8l9.9,49.7l-1.8,37.3l66.9-11.1l-2.6-32.6l-0.1-27l16.4,31.8l12.8-24.7l-23.4-42.3l0,0
									c-4.3-4.4-9.3-7.7-15.3-9.9c-2.9-1.1-6-1.7-9.6-1.8v0c-7.7,2.4-15.4,2.4-23.2,0c-0.9,0.1-2.2,0.2-3.9,0.4
									c-0.1,0-0.2,0-0.3,0c-14.2,1.7-25,13.5-25.8,27.8L184.6,236.8z"/>
							</g>
						</g>
					</g>
				</g>
			</g>
			<g>
				<g>
					<g>
						<path class="st10" d="M210.9,206.5c0,0-27.5,0.2-30.9,29.2l-0.5,21.3l23.7-0.2L210.9,206.5z"/>
					</g>
				</g>
			</g>
		</g>
	</g>
	<g>
		<g>
			<g>
				<g>
					<path class="st12" d="M276.5,243.8c0,0.2-21.6,0.4-48.3,0.4c-26.7,0-48.3-0.2-48.3-0.4c0-0.2,21.6-0.4,48.3-0.4
						C254.9,243.4,276.5,243.6,276.5,243.8z"/>
				</g>
			</g>
		</g>
	</g>
	<g>
		<g>
			<g>
				<g>
					<path class="st12" d="M276.5,248.4c0,0.2-21.6,0.4-48.3,0.4c-26.7,0-48.3-0.2-48.3-0.4c0-0.2,21.6-0.4,48.3-0.4
						C254.9,248,276.5,248.2,276.5,248.4z"/>
				</g>
			</g>
		</g>
	</g>
	<g>
		<g>
			<g>
				<g>
					<path class="st12" d="M275,240c0,0.2-21.3,0.4-47.5,0.4c-26.2,0-47.5-0.2-47.5-0.4c0-0.2,21.3-0.4,47.5-0.4
						C253.7,239.6,275,239.8,275,240z"/>
				</g>
			</g>
		</g>
	</g>
	<g>
		<g>
			<g>
				<g>
					<path class="st8" d="M256.7,284.8c-0.2,0-0.1-11.8,0.2-26.3c0.3-14.5,0.7-26.3,1-26.3c0.2,0,0.1,11.8-0.2,26.3
						C257.3,273,256.9,284.8,256.7,284.8z"/>
				</g>
			</g>
		</g>
	</g>
	<g>
		<g>
			<g>
				<path class="st13" d="M247.3,265.7c0,0,13,0.9,15.3,4.4c2.3,3.4,5.9,13.2,4.6,13.3c-1.4,0.1-2.3-0.7-2.3-0.7l-3.6-6.3
					c0,0,0.6,6.1-1.6,6.2c-2.1,0.1-12.7,2.2-12.7,2.2L247.3,265.7z"/>
			</g>
		</g>
	</g>
	<g>
		<g>
			<g>
				<path class="st10" d="M179.6,251.3l0,33.5c0.4,7.8,7.8,13.4,15.4,11.8l52.4-10.8l-0.1-21.5L202,273l-0.6-22.7L179.6,251.3z"/>
			</g>
		</g>
	</g>
	<g>
		<g>
			<g>
				<g>
					<path class="st8" d="M209.5,293.9c0,0,0.2-0.1,0.7-0.2c0.5-0.1,1.2-0.3,2-0.5c1.8-0.4,4.4-0.9,7.7-1.6
						c6.7-1.4,16.1-3.3,27.3-5.6l-0.3,0.3c0-6.7,0-14.2,0-22.1l0.4,0.4c-3,0.6-6.1,1.2-9.2,1.8c-13.2,2.5-25.6,4.9-36,6.9l-0.4,0.1
						l0-0.4c0.3-10,0.6-18.3,0.8-24.2c0.1-2.9,0.2-5.1,0.3-6.7c0-0.7,0.1-1.3,0.1-1.8c0-0.4,0.1-0.6,0.1-0.6c0,0,0,0.2,0,0.6
						c0,0.5,0,1,0,1.8c0,1.6-0.1,3.9-0.1,6.8c-0.1,5.9-0.3,14.2-0.6,24.2l-0.4-0.3c10.4-2,22.8-4.4,36-7c3.2-0.6,6.3-1.2,9.2-1.8
						l0.4-0.1l0,0.4c0,7.9,0,15.3,0,22.1l0,0.3l-0.3,0.1c-11.2,2.2-20.6,4-27.3,5.3c-3.3,0.6-5.9,1.1-7.7,1.4
						c-0.9,0.1-1.5,0.3-2.1,0.4C209.7,293.9,209.5,293.9,209.5,293.9z"/>
				</g>
			</g>
		</g>
	</g>
	<g>
		<g>
			<g>
				<g>
					<path class="st8" d="M239.5,206.5c0,0,0.1,0.2,0.2,0.5c0.1,0.3,0.3,0.8,0.4,1.5c0.3,1.3,0.4,3.3-0.2,5.6
						c-0.6,2.3-2.2,4.9-4.5,7c-2.4,2.2-5.8,3.6-9.5,3.6c-3.7,0-7.2-1.5-9.4-3.8c-2.2-2.3-3.2-5.2-3.5-7.6c-0.3-2.4,0.2-4.4,0.7-5.6
						c0.2-0.6,0.5-1.1,0.7-1.4c0.2-0.3,0.3-0.5,0.3-0.4c0.1,0-0.3,0.7-0.7,1.9c-0.4,1.2-0.7,3.1-0.4,5.4c0.3,2.3,1.3,5,3.5,7.2
						c2.1,2.2,5.4,3.6,8.9,3.6c3.5,0,6.8-1.3,9.1-3.4c2.3-2,3.8-4.4,4.5-6.7c0.7-2.2,0.6-4.2,0.5-5.4
						C239.7,207.2,239.4,206.5,239.5,206.5z"/>
				</g>
			</g>
		</g>
	</g>
	<g>
		<g>
			<g>
				<g>
					<path class="st12" d="M242,287.6c-0.1,0-0.1-1.3,0-3.3c0.1-2,0.2-4.8,0.2-7.9c0-3.1,0-5.9-0.1-7.9c-0.1-2-0.1-3.3,0-3.3
						c0.1,0,0.3,1.2,0.5,3.3c0.2,2,0.3,4.9,0.3,8c0,3.1-0.2,5.9-0.4,8C242.4,286.3,242.1,287.6,242,287.6z"/>
				</g>
			</g>
		</g>
	</g>
	<g>
		<g>
			<g>
				<g>
					<path class="st12" d="M239.3,288.1c-0.1,0-0.1-1.3-0.1-3.3c0-2.3,0.1-5,0.1-7.9c0-2.9,0-5.6,0-7.9c0-2,0-3.3,0.1-3.3
						c0.1,0,0.3,1.2,0.4,3.3c0.1,2,0.2,4.8,0.2,7.9c0,3.1-0.1,5.9-0.3,7.9C239.6,286.9,239.4,288.1,239.3,288.1z"/>
				</g>
			</g>
		</g>
	</g>
	<g>
		<g>
			<path class="st10" d="M291.8,421.2l9.9,27.3l14.1,19.3c1,1.4,0.6,3.4-0.8,4.3l0,0c-0.8,0.5-1.8,0.6-2.7,0.2
				c-5.7-2.4-26.5-11.1-27.1-13.1c-0.7-2.4-14.1-31.7-14.1-31.7L291.8,421.2z"/>
		</g>
	</g>
	<g class="st14">
		<g>
			<path class="st0" d="M315,472.1l-30.5-14.7l0.4,1.1c0.4,1,1.1,1.8,2,2.3c2.5,1.3,9.5,4.9,25.2,11.5
				C313.1,472.8,314.1,472.7,315,472.1L315,472.1z"/>
		</g>
	</g>
	<g class="st14">
		<g>
			<g>
				<path class="st0" d="M286.6,446.5c0.9,0.2,1.5,1.1,1.3,2c-0.2,0.9-1.1,1.5-2,1.3c-0.9-0.2-1.6-1.3-1.4-2.1
					c0.3-0.8,1.4-1.5,2.2-1.1"/>
			</g>
		</g>
	</g>
	<g>
		<g>
			<g>
				<path class="st8" d="M304.2,462.7c0.2,0,0.2-1.6,1.6-3c1.3-1.4,2.9-1.6,2.9-1.8c0-0.1-0.4-0.2-1.1,0c-0.7,0.2-1.5,0.6-2.3,1.4
					c-0.7,0.8-1.1,1.7-1.2,2.4C304,462.3,304.1,462.7,304.2,462.7z"/>
			</g>
		</g>
	</g>
	<g>
		<g>
			<g>
				<path class="st8" d="M307.5,465.6c0.2,0.1,0.7-1.2,1.9-2.1c1.2-1,2.5-1.2,2.5-1.4c0-0.2-1.5-0.2-2.9,0.9
					C307.7,464.1,307.3,465.6,307.5,465.6z"/>
			</g>
		</g>
	</g>
	<g>
		<g>
			<g>
				<path class="st8" d="M298.8,459.5c0.2,0.1,1-1.8,2.8-3.4c1.8-1.7,3.7-2.3,3.6-2.5c0-0.2-2.2,0.2-4.1,2
					C299.2,457.3,298.6,459.4,298.8,459.5z"/>
			</g>
		</g>
	</g>
	<g>
		<g>
			<g>
				<path class="st8" d="M295.1,451.4c0.1,0.1,1.4-1.1,3.3-1.9c1.9-0.9,3.6-1,3.6-1.1c0-0.2-1.8-0.3-3.9,0.6
					C296.1,449.8,295,451.3,295.1,451.4z"/>
			</g>
		</g>
	</g>
	<g>
		<g>
			<g>
				<path class="st8" d="M292,443.5c0.1,0.1,1.3-1.4,3.4-2.1c2.1-0.8,3.9-0.3,3.9-0.5c0-0.1-0.4-0.3-1.2-0.4c-0.8-0.1-1.9-0.1-3,0.3
					c-1.1,0.4-2,1-2.5,1.6C292.1,443,291.9,443.4,292,443.5z"/>
			</g>
		</g>
	</g>
	<g>
		<g>
			<g>
				<path class="st8" d="M294.7,439.9c0,0,0-0.4-0.4-1c-0.3-0.6-0.9-1.5-1.9-2.4c-0.5-0.4-1-0.9-1.9-1c-0.4,0-1,0.3-1.2,0.7
					c-0.2,0.5-0.1,1,0,1.4c0.7,1.7,2.8,2.8,4.8,2.3c2-0.5,3.3-2.3,3.5-4.1c0-0.4,0-1-0.4-1.3c-0.4-0.4-1-0.4-1.4-0.1
					c-0.8,0.4-1.1,1.1-1.4,1.6c-0.6,1.1-0.9,2.1-1,2.8c-0.1,0.7-0.1,1.1-0.1,1.1c0.1,0,0.2-1.6,1.5-3.7c0.3-0.5,0.7-1.1,1.3-1.4
					c0.3-0.1,0.6-0.1,0.7,0.1c0.2,0.2,0.3,0.5,0.2,0.9c-0.2,1.5-1.4,3.1-3.1,3.5c-1.7,0.4-3.6-0.5-4.1-1.9c-0.1-0.3-0.2-0.7-0.1-1
					c0.1-0.3,0.3-0.4,0.6-0.4c0.6,0,1.2,0.4,1.7,0.8C294.1,438.4,294.6,440,294.7,439.9z"/>
			</g>
		</g>
	</g>
	<g>
		<path class="st10" d="M333.6,414.1l-0.9,22.2c0,0,22.2,8.3,22.5,12.4l-43-0.1l-0.1-34.6L333.6,414.1z"/>
	</g>
	<g class="st14">
		<g>
			<path class="st0" d="M319.5,434.4c-0.8,0.2-1.4,1.2-1.2,2c0.2,0.8,1.1,1.4,2,1.2c0.8-0.2,1.6-1.3,1.3-2.1c-0.3-0.8-1.4-1.5-2.2-1
				"/>
		</g>
	</g>
	<g class="st14">
		<path class="st0" d="M312.2,448.6l0-3.4l41.4,1.4c0,0,1.9,0.8,1.7,2.2L312.2,448.6z"/>
	</g>
	<g>
		<g>
			<path class="st8" d="M333.5,436.1c0,0.2-1.1,0.3-2.1,1c-1.1,0.6-1.6,1.6-1.8,1.5c-0.2,0,0.1-1.3,1.4-2.1
				C332.3,435.6,333.5,435.9,333.5,436.1z"/>
		</g>
	</g>
	<g>
		<g>
			<path class="st8" d="M338,437.9c0,0.2-0.9,0.6-1.6,1.4c-0.7,0.9-0.9,1.8-1.1,1.8c-0.2,0-0.3-1.2,0.6-2.3
				C336.8,437.8,338,437.7,338,437.9z"/>
		</g>
	</g>
	<g>
		<g>
			<path class="st8" d="M340.5,443.4c-0.2,0-0.5-1,0.1-2.2c0.5-1.2,1.5-1.6,1.6-1.4c0.1,0.2-0.5,0.8-1,1.7
				C340.8,442.4,340.8,443.3,340.5,443.4z"/>
		</g>
	</g>
	<g>
		<g>
			<path class="st8" d="M333.1,431c-0.1,0.2-1.1-0.1-2.2,0c-1.2,0.1-2.1,0.4-2.2,0.3c-0.1-0.2,0.8-0.9,2.2-1
				C332.2,430.2,333.2,430.8,333.1,431z"/>
		</g>
	</g>
	<g class="st2">
		<polygon points="333.5,418.5 333.3,422.5 312.2,422.2 312.1,418.6 		"/>
	</g>
	<g>
		<g>
			<path class="st8" d="M333.2,426.5c0,0.1-0.8,0.2-2.2,0c-0.7-0.1-1.4-0.3-2.3-0.7c-0.4-0.2-0.8-0.4-1.2-0.7
				c-0.2-0.1-0.4-0.3-0.6-0.5c-0.2-0.2-0.4-0.8-0.1-1.1c0.2-0.3,0.6-0.5,0.9-0.5c0.3,0,0.6,0.1,0.8,0.1c0.5,0.1,0.9,0.3,1.3,0.5
				c0.8,0.4,1.5,0.9,2,1.3c1,0.9,1.3,1.7,1.3,1.8c-0.1,0.1-0.6-0.6-1.6-1.4c-0.5-0.4-1.2-0.8-1.9-1.1c-0.4-0.2-0.8-0.3-1.2-0.4
				c-0.5-0.1-0.8-0.1-1,0.1c0,0.1,0,0.1,0,0.2c0.1,0.1,0.3,0.2,0.5,0.4c0.4,0.2,0.8,0.5,1.1,0.7c0.7,0.4,1.5,0.6,2.1,0.8
				C332.4,426.3,333.2,426.4,333.2,426.5z"/>
		</g>
	</g>
	<g>
		<g>
			<path class="st8" d="M332.9,426.8c-0.1,0-0.5-0.7-0.6-2.1c0-0.7,0-1.5,0.3-2.4c0.1-0.4,0.3-0.9,0.6-1.3c0.3-0.4,0.6-1,1.4-1.1
				c0.4,0,0.8,0.3,0.9,0.6c0.1,0.3,0.2,0.5,0.2,0.8c0.1,0.5,0.1,1,0,1.5c-0.1,0.9-0.5,1.7-0.9,2.2c-0.8,1.1-1.7,1.4-1.7,1.3
				c-0.1-0.1,0.7-0.5,1.3-1.6c0.3-0.5,0.6-1.2,0.7-2c0-0.4,0-0.8,0-1.2c-0.1-0.5-0.2-0.8-0.4-0.8c-0.2,0-0.6,0.3-0.8,0.7
				c-0.2,0.4-0.4,0.8-0.5,1.2c-0.3,0.8-0.4,1.5-0.4,2.1C332.8,426,333,426.8,332.9,426.8z"/>
		</g>
	</g>
	<g>
		<g>
			<g>
				<g>
					<g>
						<path class="st8" d="M312.2,307.8c-25.4,2.6-59.1,6.1-59.1,6.1l4.6,41.4c0,0,49.5-13.1,49.2-12c-0.4,1.1,2.3,88.1,2.3,88.1
							h29.8l0.6-98.5C339.7,318,326.9,306.3,312.2,307.8z"/>
					</g>
				</g>
			</g>
			<g>
				<g>
					<g>
						<path class="st8" d="M192.2,324.5v12.8c0,8.7,10,18,18.7,18h6.8c5.3,0,13.7-3.9,18-7l2.6-1.9l31.1,96.2c0,0,35.5-6.4,35.5-7.5
							c0-1.1-24.1-78.8-35.2-114.9c-4.5-14.7-20.3-23.3-34.9-18.3c-0.5,0.2-1,0.4-1.5,0.6C217.3,309,192.2,324.5,192.2,324.5z"/>
					</g>
				</g>
			</g>
			<g>
				<g>
					<g>
						<g>
							<path class="st11" d="M304.8,435.2c0,0-0.1-0.1-0.2-0.3c-0.1-0.3-0.2-0.6-0.4-1c-0.3-0.9-0.8-2.2-1.4-4
								c-1.2-3.5-2.8-8.5-4.8-14.8c-4-12.5-9.3-29.9-15.1-49.1c-2.9-9.6-5.6-18.8-8.1-27.1c-1.2-4.2-2.4-8.1-3.5-11.8
								c-0.6-1.9-1.1-3.6-1.6-5.4c-0.5-1.7-1-3.4-1.6-4.9c-1.2-3-3.1-5.3-5-7.1c-1.9-1.8-3.7-3.1-5.3-4.1c-1.5-1-2.7-1.8-3.6-2.3
								c-0.4-0.2-0.7-0.4-0.9-0.6c-0.2-0.1-0.3-0.2-0.3-0.2c0,0,0.1,0,0.3,0.2c0.3,0.1,0.6,0.3,1,0.5c0.9,0.5,2.1,1.2,3.6,2.2
								c1.6,1,3.4,2.3,5.4,4c1.9,1.8,3.9,4.1,5.2,7.2c0.7,1.5,1.2,3.2,1.7,4.9c0.5,1.7,1.1,3.5,1.6,5.3c1.1,3.7,2.3,7.7,3.6,11.8
								c2.5,8.3,5.3,17.5,8.2,27.1c5.8,19.2,11,36.5,14.8,49.2c1.9,6.2,3.5,11.3,4.6,14.9c0.5,1.7,1,3.1,1.3,4
								c0.1,0.4,0.2,0.8,0.3,1.1C304.8,435.1,304.8,435.2,304.8,435.2z"/>
						</g>
					</g>
				</g>
			</g>
			<g>
				<g>
					<g>
						<g>
							<path class="st11" d="M312.3,330.9c0.2,0.1-1.5,2.7-2.9,6.1c-1.4,3.4-2,6.4-2.3,6.4c-0.2,0,0.1-3.1,1.6-6.7
								C310.1,333.2,312.1,330.8,312.3,330.9z"/>
						</g>
					</g>
				</g>
			</g>
			<g>
				<g>
					<g>
						<g>
							<path class="st11" d="M318,334.9c0.1,0.2-2.5,1.3-5.1,3.4c-2.7,2.1-4.4,4.3-4.6,4.2c-0.2-0.1,1.3-2.6,4.1-4.8
								C315.1,335.5,317.9,334.7,318,334.9z"/>
						</g>
					</g>
				</g>
			</g>
			<g>
				<g>
					<g>
						<g>
							<path class="st11" d="M269.6,442.7c-0.2,0.1-8.6-25.7-18.7-57.5c-10.2-31.8-18.2-57.7-18-57.7c0.2-0.1,8.6,25.7,18.7,57.5
								C261.7,416.8,269.8,442.6,269.6,442.7z"/>
						</g>
					</g>
				</g>
			</g>
		</g>
	</g>
	<g>
		<g>
			<g>
				<polygon class="st11" points="231.5,292.6 333.1,293.6 352.1,240 278.1,240.5 261,288.7 231.5,289.1 				"/>
			</g>
		</g>
		<g>
			<path class="st0" d="M308.5,271.4c-2.3-0.3-3.8-2.4-3.5-4.7c0.3-2.3,2.4-3.8,4.7-3.5c2.3,0.3,3.8,2.4,3.5,4.7
				C312.9,270.1,310.8,271.7,308.5,271.4z"/>
		</g>
	</g>
	<g>
		<g>
			<g>
				<path class="st8" d="M223.2,147.6c1-3.6,3.6-5.3,7.1-6.5c3.5-1.2,7.6-0.5,10.5,1.7c2,1.5,3.5,3.7,5.8,4.5
					c3.8,1.3,8.3-1.5,12,0.2c2.2,1,3.4,3.7,2.9,6c-0.6,2.3-2.9,4.1-5.3,4c2.5,0.9,3.3,4.5,1.8,6.7c-1.5,2.2-4.5,3.1-7.1,2.6
					c-2.6-0.5-4.9-2.1-6.9-3.9c-2-1.8-3.8-3.8-5.9-5.4c-2.1-1.6-4.7-2.8-7.4-2.7c-3.6,0.2-6.7,2.9-8.3,6.1s-2,6.9-2.2,10.5
					c-0.2,3.6-0.3,7.3-1.3,10.7c-0.1,0.4-0.3,0.9-0.7,1c-0.6,0.2-1.1-0.4-1.4-1c-3.3-6.1-5.4-12.8-6.1-19.7c-0.4-4-0.3-7.8,1.9-11.1
					C214.9,147.9,220.5,145.4,223.2,147.6"/>
			</g>
		</g>
		<g>
			<g>
				<g>
					<g>
						<g>
							<g>
								<g>
									<g>
										<g>
											<g>
												<g>
													<g>
														<g>
															<g>
																<g>
																	<path class="st13" d="M216.2,164.3l-1.8,40.5c-0.3,6.9,0.6,17.1,11.5,17.1l0,0c9.5-0.7,12.3-9.6,12.5-16
																		c0.1-3,0.3-5.6,0.3-5.9c0,0,10.3-0.5,11.6-10.7c0.6-4.9,1-15.1,1.2-24.4c0.3-9.9-7.2-18.4-17-19.4l-1-0.1
																		C222.8,144.9,216.4,153.6,216.2,164.3z"/>
																</g>
															</g>
														</g>
													</g>
												</g>
											</g>
										</g>
									</g>
								</g>
								<g>
									<g>
										<g>
											<g>
												<g>
													<g>
														<g>
															<g>
																<g>
																	<path class="st15" d="M238.7,199.8c0,0-6.5-0.2-12.9-5.2c0,0,2.4,7.7,12.6,7.8L238.7,199.8z"/>
																</g>
															</g>
														</g>
													</g>
												</g>
											</g>
										</g>
									</g>
								</g>
							</g>
						</g>
					</g>
					<g>
						<g>
							<g>
								<g>
									<g>
										<g>
											<g>
												<g>
													<g>
														<g>
															<g>
																<g>
																	<g>
																		<g>
																			<g>
																				<path class="st8" d="M247.8,171.4c-0.1,0.8-0.8,1.4-1.6,1.3c-0.8,0-1.4-0.7-1.4-1.5c0.1-0.8,0.8-1.4,1.6-1.3
																					C247.2,170,247.8,170.7,247.8,171.4z"/>
																			</g>
																		</g>
																	</g>
																</g>
															</g>
														</g>
													</g>
												</g>
											</g>
											<g>
												<g>
													<g>
														<g>
															<g>
																<g>
																	<g>
																		<g>
																			<g>
																				<g>
																					<path class="st8" d="M248.8,169.7c-0.2,0.2-1.2-0.8-2.8-0.9c-1.6-0.2-2.8,0.5-2.9,0.3
																						c-0.1-0.1,0.1-0.4,0.7-0.7c0.5-0.3,1.4-0.6,2.4-0.5c1,0.1,1.8,0.6,2.2,1C248.7,169.2,248.9,169.6,248.8,169.7z
																						"/>
																				</g>
																			</g>
																		</g>
																	</g>
																</g>
															</g>
														</g>
													</g>
												</g>
											</g>
										</g>
										<g>
											<g>
												<g>
													<g>
														<g>
															<g>
																<g>
																	<g>
																		<g>
																			<g>
																				<path class="st8" d="M232.4,170.3c-0.1,0.8-0.8,1.4-1.6,1.3c-0.8,0-1.4-0.7-1.4-1.5c0.1-0.8,0.8-1.4,1.6-1.3
																					C231.8,168.9,232.4,169.5,232.4,170.3z"/>
																			</g>
																		</g>
																	</g>
																</g>
															</g>
														</g>
													</g>
												</g>
											</g>
											<g>
												<g>
													<g>
														<g>
															<g>
																<g>
																	<g>
																		<g>
																			<g>
																				<g>
																					<path class="st8" d="M233.4,168.3c-0.2,0.2-1.2-0.8-2.8-0.9c-1.6-0.2-2.8,0.5-2.9,0.3
																						c-0.1-0.1,0.1-0.4,0.7-0.7c0.5-0.3,1.4-0.6,2.4-0.5c1,0.1,1.8,0.6,2.2,1C233.3,167.9,233.5,168.3,233.4,168.3z
																						"/>
																				</g>
																			</g>
																		</g>
																	</g>
																</g>
															</g>
														</g>
													</g>
												</g>
											</g>
										</g>
										<g>
											<g>
												<g>
													<g>
														<g>
															<g>
																<g>
																	<g>
																		<g>
																			<g>
																				<path class="st8" d="M237.8,180.5c0-0.1,1-0.2,2.6-0.2c0.4,0,0.8,0,0.9-0.3c0.1-0.3,0-0.7-0.1-1.2
																					c-0.3-1-0.6-2.1-0.9-3.2c-1.2-4.5-2-8.2-1.8-8.2c0.2,0,1.3,3.6,2.5,8.1c0.3,1.1,0.6,2.2,0.8,3.2
																					c0.1,0.5,0.3,1,0,1.6c-0.1,0.3-0.5,0.5-0.7,0.5c-0.3,0.1-0.5,0-0.7,0C238.8,180.7,237.8,180.6,237.8,180.5z"/>
																			</g>
																		</g>
																	</g>
																</g>
															</g>
														</g>
													</g>
												</g>
											</g>
										</g>
										<g>
											<g>
												<g>
													<g>
														<g>
															<g>
																<g>
																	<g>
																		<g>
																			<g>
																				<path class="st8" d="M233.1,181.1c0.3,0,0.1,1.7,1.4,3.1c1.3,1.4,3.2,1.4,3.1,1.6c0,0.1-0.4,0.3-1.2,0.2
																					c-0.8-0.1-1.8-0.4-2.6-1.2c-0.8-0.8-1.1-1.9-1.1-2.6C232.7,181.5,233,181.1,233.1,181.1z"/>
																			</g>
																		</g>
																	</g>
																</g>
															</g>
														</g>
													</g>
												</g>
											</g>
										</g>
									</g>
								</g>
							</g>
							<g>
								<g>
									<g>
										<g>
											<g>
												<g>
													<g>
														<g>
															<g>
																<path class="st8" d="M234.4,162.3c-0.2,0.4-1.7,0-3.6,0.1c-1.9,0-3.4,0.4-3.6,0c-0.1-0.2,0.2-0.6,0.9-0.9
																	c0.6-0.3,1.6-0.6,2.7-0.6c1.1,0,2.1,0.3,2.7,0.6C234.2,161.7,234.5,162.1,234.4,162.3z"/>
															</g>
														</g>
													</g>
												</g>
											</g>
										</g>
									</g>
								</g>
							</g>
							<g>
								<g>
									<g>
										<g>
											<g>
												<g>
													<g>
														<g>
															<g>
																<path class="st8" d="M248.7,165.1c-0.3,0.3-1.4-0.2-2.6-0.3c-1.3-0.2-2.4,0-2.6-0.4c-0.1-0.2,0.1-0.5,0.6-0.8
																	c0.5-0.3,1.3-0.5,2.2-0.4c0.9,0.1,1.6,0.5,2,0.9C248.7,164.6,248.8,164.9,248.7,165.1z"/>
															</g>
														</g>
													</g>
												</g>
											</g>
										</g>
									</g>
								</g>
							</g>
						</g>
					</g>
				</g>
			</g>
		</g>
		<g>
			<g>
				<g>
					<g>
						<g>
							<g>
								<g>
									<g>
										<g>
											<g>
												<path class="st13" d="M216.2,171.9c-0.2-0.1-6.8-2.8-7.3,4.2c-0.5,7,6.6,6.1,6.6,5.9
													C215.6,181.8,216.2,171.9,216.2,171.9z"/>
											</g>
										</g>
									</g>
								</g>
							</g>
						</g>
					</g>
				</g>
			</g>
			<g>
				<g>
					<g>
						<g>
							<g>
								<g>
									<g>
										<g>
											<g>
												<g>
													<path class="st15" d="M213.6,179.2c0,0-0.1,0.1-0.3,0.2c-0.2,0.1-0.6,0.1-0.9,0c-0.7-0.3-1.3-1.5-1.2-2.8
														c0-0.6,0.2-1.2,0.5-1.7c0.3-0.5,0.6-0.8,1-0.9c0.4-0.1,0.6,0.2,0.7,0.4c0.1,0.2,0,0.3,0.1,0.4c0,0,0.2-0.1,0.1-0.4
														c0-0.1-0.1-0.3-0.2-0.5c-0.2-0.1-0.4-0.2-0.7-0.2c-0.5,0-1.1,0.5-1.4,1c-0.3,0.5-0.5,1.2-0.6,1.9
														c-0.1,1.4,0.6,2.8,1.5,3.1c0.5,0.2,0.9,0,1.1-0.1C213.6,179.3,213.7,179.2,213.6,179.2z"/>
												</g>
											</g>
										</g>
									</g>
								</g>
							</g>
						</g>
					</g>
				</g>
			</g>
		</g>
		<g>
			<g>
				<path class="st8" d="M253.8,163c-4.6,0.7-9.5-1-12.7-4.3c-2.3-2.4-3.8-5.6-6.8-6.9c-2-0.9-4.4-0.7-6.4,0.2
					c-2,0.9-3.7,2.3-5.3,3.9c1.4,5.4-0.5,11-2.4,16.2c-0.2,0.6-0.5,1.2-1,1.5c-0.9,0.5-2.1-0.1-2.7-0.9c-1-1.3-1.3-3.1-1.4-4.7
					c-0.3-3.8,0-7.7,1.3-11.3c1.2-3.6,3.4-6.9,6.4-9.3c3.8-2.9,8.7-4.1,13.5-3.5c4.7,0.6,9.2,2.8,12.6,6.1c1.6,1.5,3.1,3.3,3.7,5.4"
					/>
			</g>
		</g>
	</g>
</g>
<g id="Plant">
	<g>
		<g>
			<path class="st10" d="M58.3,378.1c3.6-1.8,7.8-2.1,11.7-1.4c2.1,0.4,4.3,1,5.8,2.6c1.4,1.6,1.7,4.4,0.1,5.8
				c-1,0.8-2.4,0.9-3.7,0.9c-3.1,0-6.5-0.6-9,1.3c-1.4,1.1-2.4,2.8-4,3.4c-1.7,0.5-3.5-0.5-4.4-2c-0.9-1.5-0.9-3.4-0.5-5
				C54.3,383.6,54.7,379.9,58.3,378.1z"/>
		</g>
	</g>
	<g>
		<g>
			<path class="st10" d="M50.2,362.3c2.2,3.1,6.4,2.1,8.4,0.2c2-1.9,2.8-4.7,3.6-7.3c1.7-6,3.5-12.3,2.2-18.4
				c-0.4-1.8-1.1-3.6-2.4-5c-1.3-1.4-3.3-2.2-5.1-1.7c-2.1,0.6-3.5,2.7-4.4,4.6c-2.8,5.9-4.3,12.3-4.3,18.8
				C48.1,356.6,48.4,359.8,50.2,362.3"/>
		</g>
	</g>
	<g>
		<g>
			<path class="st10" d="M44.2,366.8c2.4-2.8,2.8-6.9,1.8-10.4c-1.1-3.5-3.4-6.5-6.2-9c-3.2-2.9-7-5.1-11.1-6.5
				c-1.6-0.6-3.3-1-5-0.8c-1.7,0.2-3.4,1-4.2,2.5c-1.2,2.2,0,4.9,1.2,7.1c2.1,3.9,4.6,7.6,7.3,11.1c2.2,2.8,4.7,5.6,8,6.8
				c3.3,1.3,6.8,1.1,8.5-1.2"/>
		</g>
	</g>
	<g>
		<g>
			<g>
				<path class="st8" d="M50,409.3c0,0,0.1-0.5,0.2-1.4c0.1-1,0.2-2.3,0.4-3.9c0.2-1.6,0.4-3.6,0.9-5.7c0.4-2.1,1.2-4.4,2.1-6.7
					c0.9-2.3,2.1-4.4,3.4-6c1.3-1.7,2.9-2.9,4.3-3.6c1.4-0.7,2.7-1,3.6-1.1c0.9-0.1,1.4-0.2,1.4-0.2c0,0-0.5,0-1.4,0
					c-0.9,0.1-2.3,0.3-3.8,1c-1.5,0.7-3.2,1.9-4.6,3.6c-1.4,1.7-2.6,3.8-3.5,6.2c-0.9,2.3-1.6,4.6-2,6.8c-0.4,2.1-0.6,4.1-0.8,5.7
					c-0.1,1.6-0.2,3-0.2,3.9C50,408.8,50,409.3,50,409.3z"/>
			</g>
		</g>
	</g>
	<g>
		<g>
			<g>
				<path class="st8" d="M50.3,406.3c0,0,0-0.2,0-0.7c0-0.5,0-1.1,0-1.9c0-1.6,0-4,0.1-6.9c0.1-5.8,0.6-12.1,1.6-20.9
					c0.9-8.3,2.1-18,3.4-24.3c0.3-1.4,0.6-2.7,0.8-3.8c0.3-1.1,0.5-2.1,0.7-2.9c0.2-0.7,0.3-1.3,0.4-1.8c0.1-0.4,0.1-0.6,0.1-0.6
					c0,0-0.1,0.2-0.2,0.6c-0.1,0.5-0.3,1.1-0.5,1.8c-0.2,0.8-0.5,1.7-0.8,2.9c-0.3,1.1-0.6,2.4-0.9,3.8c-1.3,5.7-2.6,13.7-3.6,22.5
					c-1,8.9-1.4,16.9-1.4,22.8c0,2.9,0,5.3,0.1,6.9c0,0.8,0.1,1.4,0.1,1.9C50.2,406.1,50.2,406.3,50.3,406.3z"/>
			</g>
		</g>
	</g>
	<g>
		<g>
			<g>
				<path class="st8" d="M50.3,390.8c0,0,0-0.7,0-2c-0.1-1.3-0.2-3.1-0.6-5.3c-0.4-2.2-0.9-4.9-1.7-7.7c-0.4-1.3-1.2-4.5-3.2-9.2
					c-2.7-6.4-6.3-11.6-9.5-14.8c-0.7-0.9-1.6-1.5-2.2-2.1c-0.3-0.3-0.6-0.6-1-0.8c-0.3-0.2-0.6-0.4-0.9-0.6c-1-0.7-1.6-1.1-1.7-1.1
					c-0.1,0.1,2.3,1.6,5.4,4.8c3.1,3.3,6.6,8.4,9.3,14.7c1.5,3.4,2.5,6.5,3.3,9.1c0.8,2.8,1.4,5.5,1.8,7.7c0.4,2.2,0.6,4,0.8,5.3
					C50.2,390.1,50.3,390.8,50.3,390.8z"/>
			</g>
		</g>
	</g>
	<g>
		<g>
			<polygon class="st8" points="35.3,418.2 36.8,439.5 64.3,439.5 65.8,418.2 			"/>
		</g>
	</g>
	<g>
		<g>
			<rect x="32.6" y="409.8" class="st8" width="36.5" height="8.4"/>
		</g>
	</g>
	<g>
		<g>
			<polygon class="st11" points="32.6,438.7 32.6,441 34.3,441 68.5,441 68.5,438.7 			"/>
		</g>
	</g>
	<g>
		<g>
			<polygon class="st11" points="36,445.1 34.3,441 67.2,441 65.2,445.1 			"/>
		</g>
	</g>
	<g>
		<g>
			<g>
				<path class="st1" d="M65.3,425.2c0,0,0,0.1-0.1,0.2c-0.1,0.1-0.2,0.3-0.4,0.5c-0.4,0.5-0.9,1.2-1.6,2l-0.1,0.1l-0.1-0.1
					c-1-1.4-2.3-3.2-3.9-5.4h0.2c-1.2,1.7-2.5,3.5-3.9,5.5l-0.1,0.2l-0.1-0.2c-1.4-1.7-3-3.5-4.6-5.5l0.3,0
					c-0.1,0.1-0.2,0.2-0.3,0.3c-1.4,1.8-2.8,3.5-4.1,5.1l-0.1,0.2l-0.1-0.2c-1.4-2-2.7-3.8-3.9-5.5l0.2,0c-1.9,2.2-3.5,4-4.8,5.4
					l-0.1,0.1l-0.1-0.1c-0.6-1.1-1.1-1.9-1.5-2.5c-0.2-0.3-0.3-0.5-0.4-0.7c-0.1-0.2-0.1-0.2-0.1-0.2c0,0,0.1,0.1,0.2,0.2
					c0.1,0.2,0.3,0.4,0.4,0.6c0.4,0.6,0.9,1.4,1.6,2.5l-0.1,0c1.2-1.4,2.8-3.3,4.7-5.5l0.1-0.1l0.1,0.1c1.2,1.7,2.5,3.5,3.9,5.4
					l-0.3,0c1.3-1.6,2.7-3.4,4.1-5.1c0.1-0.1,0.2-0.2,0.3-0.3l0.1-0.2l0.1,0.2c1.6,1.9,3.1,3.8,4.6,5.5l-0.3,0
					c1.4-2,2.7-3.8,3.9-5.4l0.1-0.2l0.1,0.2c1.5,2.2,2.9,4.1,3.8,5.5l-0.1,0c0.7-0.8,1.3-1.5,1.7-2c0.2-0.2,0.3-0.4,0.4-0.5
					C65.2,425.2,65.3,425.2,65.3,425.2z"/>
			</g>
		</g>
	</g>
	<g>
		<g>
			<g>
				<path class="st11" d="M66.2,418c0,0.1-6.9,0.2-15.3,0.2c-8.5,0-15.3-0.1-15.3-0.2c0-0.1,6.9-0.2,15.3-0.2
					C59.3,417.9,66.2,417.9,66.2,418z"/>
			</g>
		</g>
	</g>
	<g>
		<g>
			<g>
				<path class="st8" d="M67.6,441.3c0,0.1-7.5,0.2-16.7,0.2c-9.2,0-16.7-0.1-16.7-0.2c0-0.1,7.5-0.2,16.7-0.2
					C60.1,441.1,67.6,441.2,67.6,441.3z"/>
			</g>
		</g>
	</g>
</g>
<g id="Devices">
	<g>
		<polygon class="st8" points="391.7,195.6 372.7,275.2 378,275.2 396.8,195.6 		"/>
	</g>
	<g>
		<path class="st8" d="M384.4,248c-0.3,1.5,8.6,44.9,8.6,44.9h-4.3l-6.8-34.4L384.4,248z"/>
	</g>
	<g>
		<rect x="358.6" y="350.3" class="st10" width="89.2" height="94.6"/>
	</g>
	<g>
		<rect x="447.8" y="364.1" class="st8" width="4.4" height="4.4"/>
	</g>
	<g>
		<rect x="447.8" y="378.1" class="st8" width="4.4" height="4.4"/>
	</g>
	<g>
		<rect x="447.8" y="392" class="st8" width="4.4" height="4.4"/>
	</g>
	<g>
		<rect x="447.8" y="405.9" class="st8" width="4.4" height="4.4"/>
	</g>
	<g>
		<g>
			<path class="st8" d="M452.4,393.3c0,0,0.5-0.1,1.3-0.3c0.9-0.1,2.1-0.4,3.8-0.4c1.6,0,3.6,0.3,5.4,1.4c0.9,0.6,1.8,1.4,2.3,2.5
				c0.6,1.1,0.8,2.3,0.7,3.6c-0.1,1.2-0.5,2.4-1.1,3.4c-0.6,1-1.4,1.8-2.3,2.4c-1.7,1.3-3.6,1.8-5.2,2.1c-1.6,0.2-2.9,0.2-3.8,0.1
				c-0.9-0.1-1.4-0.2-1.4-0.2c0,0,0.5,0,1.4,0c0.9,0,2.2,0,3.7-0.3c1.5-0.3,3.3-0.9,5-2.1c1.6-1.2,3.1-3.2,3.2-5.5
				c0.1-1.2-0.1-2.3-0.6-3.3c-0.5-1-1.3-1.7-2.1-2.3c-1.7-1.1-3.6-1.4-5.2-1.5c-1.6,0-2.8,0.1-3.7,0.2
				C452.9,393.2,452.4,393.3,452.4,393.3z"/>
		</g>
	</g>
	<g>
		<g>
			<path class="st8" d="M451.3,379.4c0,0,0.1-0.1,0.4-0.3c0.3-0.1,0.7-0.3,1.3-0.5c1.2-0.4,3-0.7,5.1-0.3c0.5,0.1,1.1,0.3,1.6,0.6
				c0.5,0.3,1,0.9,1.2,1.6c0.4,1.3-0.1,2.8-1,4c-0.5,0.6-1.1,1.1-1.8,1.4c-0.7,0.3-1.7,0.3-2.4-0.1c-0.7-0.4-1.4-1.2-1.4-2.1
				c0-0.9,0.6-1.8,1.4-2.2c0.8-0.4,1.7-0.4,2.6-0.3c0.8,0.2,1.6,0.6,2.2,1.1c1.3,1,2.1,2.5,2.2,4c0.2,1.5-0.4,2.9-1.1,4
				c-0.8,1.1-1.8,1.8-2.7,2.3c-2,1-3.8,1.2-5,1.3c-0.6,0-1.1,0.1-1.4,0.1c-0.3,0-0.5,0-0.5,0c0,0,0.7-0.1,1.9-0.2
				c1.2-0.2,2.9-0.4,4.8-1.4c0.9-0.5,1.9-1.2,2.6-2.2c0.7-1,1.2-2.3,1-3.7c-0.2-1.4-0.9-2.7-2.1-3.6c-0.6-0.5-1.3-0.8-2-1
				c-0.7-0.2-1.5-0.1-2.2,0.2c-0.7,0.3-1.1,1-1.1,1.7c0,0.7,0.5,1.3,1.1,1.7c0.6,0.4,1.4,0.4,2,0.1c0.7-0.2,1.2-0.7,1.6-1.2
				c0.9-1,1.3-2.4,1-3.6c-0.3-1.2-1.4-1.8-2.5-2c-2.1-0.5-3.8-0.2-5,0.1C451.9,379.2,451.3,379.5,451.3,379.4z"/>
		</g>
	</g>
	<g>
		<g>
			<path class="st8" d="M451.3,365.8c0,0,0.3-0.1,1-0.2c0.6,0,1.6,0,2.7,0.4c1.1,0.4,2.3,1.1,3.3,2.2c1,1.2,1.7,2.8,1.7,4.6
				c0.1,1.8-0.5,3.5-1.4,4.7c-0.9,1.2-2.1,2-3.2,2.4c-1.1,0.4-2,0.5-2.6,0.5c-0.6,0-1-0.1-1-0.1c0-0.1,1.5,0.1,3.5-0.8
				c1-0.5,2.1-1.2,2.9-2.4c0.9-1.2,1.4-2.7,1.3-4.4c-0.1-1.7-0.7-3.2-1.6-4.3c-0.9-1.1-2.1-1.8-3.1-2.2
				C452.8,365.6,451.3,366,451.3,365.8z"/>
		</g>
	</g>
	<g>
		<g>
			<path class="st8" d="M385.1,300.1c0,0,0.4,0.6,0.8,1.8c0.4,1.2,0.8,3,1.2,5.4c0.4,2.4,0.7,5.3,1,8.6c0.3,3.4,0.6,7.2,1.1,11.5
				c0.1,1.1,0.3,2.1,0.5,3.2c0.2,1.1,0.5,2.2,1,3.2c0.5,1,1.3,1.9,2.2,2.7c0.9,0.8,1.8,1.6,2.9,2.2c2.1,1.3,4.6,2.2,7.2,2.5
				c2.6,0.3,5.4-0.1,7.9-1.4c2.5-1.2,4.5-3.6,5.1-6.4c0.3-1.4,0.2-2.9-0.3-4.3c-0.5-1.4-1.5-2.5-2.8-3.3c-1.2-0.8-2.7-1.3-4.2-1.4
				c-1.5-0.1-3.1,0.3-4.3,1.3c-0.6,0.5-1.1,1-1.4,1.7c-0.3,0.7-0.4,1.4-0.3,2.2c0.3,1.5,1.4,2.8,2.8,3.5c1.4,0.8,3,1.1,4.6,1.3
				c1.6,0.2,3.2,0.3,4.7,0.3c3.2,0.1,6.3-0.2,9.3-0.5c6.1-0.7,12-1.7,17.6-1.7c5.6-0.1,11.1,0.7,15.7,3c2.3,1.1,4.3,2.6,5.8,4.4
				c1.6,1.8,2.6,3.9,3,6c0.9,4.3-0.1,8.3-1.7,11.3c-1.7,3-4,5-5.9,6.3c-2,1.3-3.7,2.1-4.9,2.5c-1.2,0.4-1.8,0.6-1.8,0.6
				s0.2-0.1,0.5-0.2c0.3-0.1,0.8-0.3,1.3-0.5c1.2-0.5,2.9-1.2,4.8-2.6c1.9-1.4,4.2-3.4,5.8-6.3c1.6-2.9,2.5-6.9,1.6-11
				c-0.5-2-1.4-4.1-3-5.8c-1.5-1.7-3.5-3.2-5.7-4.2c-4.5-2.2-9.9-3-15.5-2.9c-5.6,0.1-11.5,1.1-17.6,1.7c-3.1,0.3-6.2,0.6-9.4,0.5
				c-1.6,0-3.2-0.1-4.8-0.3c-1.6-0.2-3.3-0.5-4.7-1.3c-1.5-0.8-2.7-2.2-3-3.9c-0.2-0.8,0-1.7,0.3-2.5c0.4-0.8,0.9-1.4,1.6-1.9
				c1.3-1,3-1.4,4.6-1.4c1.6,0.1,3.2,0.6,4.5,1.5c1.3,0.9,2.4,2.1,3,3.6c0.6,1.5,0.6,3.1,0.3,4.5c-0.7,3-2.8,5.4-5.4,6.7
				c-2.6,1.3-5.5,1.7-8.1,1.4c-2.7-0.3-5.2-1.2-7.4-2.5c-1.1-0.7-2.1-1.4-2.9-2.3c-0.9-0.9-1.7-1.7-2.3-2.8c-0.5-1.1-0.8-2.2-1-3.3
				c-0.2-1.1-0.4-2.2-0.5-3.2c-0.5-4.2-0.8-8.1-1.1-11.5c-0.3-3.4-0.6-6.3-0.9-8.6c-0.3-2.4-0.7-4.2-1.1-5.4
				c-0.2-0.6-0.3-1.1-0.5-1.3C385.1,300.2,385.1,300.1,385.1,300.1z"/>
		</g>
	</g>
	<g>
		<g>
			<path class="st8" d="M442.7,441c0,0,0-0.1,0-0.4c0-0.3,0-0.7,0-1.2c0-1.1,0-2.6,0-4.7c0-4.1,0-10.1-0.1-17.7
				c0-15.2-0.1-36.9-0.1-62.9l0.2,0.2c-23.6,0-51.2,0-80.7,0h0l0.3-0.3c0,32,0,61.8,0,86.9l-0.2-0.2c24.2,0,44.3,0.1,58.4,0.1
				c7.1,0,12.6,0,16.4,0.1c1.9,0,3.3,0,4.3,0C442.2,440.9,442.7,441,442.7,441s-0.5,0-1.5,0c-1,0-2.4,0-4.3,0c-3.8,0-9.3,0-16.3,0.1
				c-14.1,0-34.3,0.1-58.6,0.1l-0.2,0l0-0.2c0-25.1,0-55,0-86.9l0-0.3h0.3h0c29.4,0,57,0,80.7,0h0.2l0,0.2c0,26-0.1,47.8-0.1,63
				c0,7.6,0,13.6-0.1,17.7c0,2,0,3.6,0,4.6c0,0.5,0,0.9,0,1.2C442.8,440.8,442.7,441,442.7,441z"/>
		</g>
	</g>
	<g>
		<g>
			<path class="st8" d="M420,364.7c0,0.2-0.2,0.4-0.4,0.4c-0.2,0-0.4-0.2-0.4-0.4c0-0.2,0.2-0.4,0.4-0.4
				C419.8,364.3,420,364.5,420,364.7z"/>
		</g>
		<g>
			<path class="st8" d="M422.3,364.7c0,0.2-0.2,0.4-0.4,0.4c-0.2,0-0.4-0.2-0.4-0.4c0-0.2,0.2-0.4,0.4-0.4
				C422.1,364.3,422.3,364.5,422.3,364.7z"/>
		</g>
		<g>
			<path class="st8" d="M424.6,364.7c0,0.2-0.2,0.4-0.4,0.4c-0.2,0-0.4-0.2-0.4-0.4c0-0.2,0.2-0.4,0.4-0.4
				C424.4,364.3,424.6,364.5,424.6,364.7z"/>
		</g>
		<g>
			<path class="st8" d="M426.9,364.7c0,0.2-0.2,0.4-0.4,0.4c-0.2,0-0.4-0.2-0.4-0.4c0-0.2,0.2-0.4,0.4-0.4
				C426.7,364.3,426.9,364.5,426.9,364.7z"/>
		</g>
		<g>
			<path class="st8" d="M429.1,364.7c0,0.2-0.2,0.4-0.4,0.4c-0.2,0-0.4-0.2-0.4-0.4c0-0.2,0.2-0.4,0.4-0.4
				C429,364.3,429.1,364.5,429.1,364.7z"/>
		</g>
		<g>
			<path class="st8" d="M431.4,364.7c0,0.2-0.2,0.4-0.4,0.4c-0.2,0-0.4-0.2-0.4-0.4c0-0.2,0.2-0.4,0.4-0.4
				C431.2,364.3,431.4,364.5,431.4,364.7z"/>
		</g>
		<g>
			<path class="st8" d="M433.7,364.7c0,0.2-0.2,0.4-0.4,0.4c-0.2,0-0.4-0.2-0.4-0.4c0-0.2,0.2-0.4,0.4-0.4
				C433.5,364.3,433.7,364.5,433.7,364.7z"/>
		</g>
		<g>
			<circle class="st8" cx="432.2" cy="366.3" r="0.4"/>
		</g>
		<g>
			<circle class="st8" cx="429.9" cy="366.3" r="0.4"/>
		</g>
		<g>
			<path class="st8" d="M428,366.3c0,0.2-0.2,0.4-0.4,0.4c-0.2,0-0.4-0.2-0.4-0.4c0-0.2,0.2-0.4,0.4-0.4
				C427.8,365.9,428,366,428,366.3z"/>
		</g>
		<g>
			<circle class="st8" cx="425.2" cy="366.3" r="0.4"/>
		</g>
		<g>
			<circle class="st8" cx="422.9" cy="366.3" r="0.4"/>
		</g>
		<g>
			<path class="st8" d="M421,366.3c0,0.2-0.2,0.4-0.4,0.4c-0.2,0-0.4-0.2-0.4-0.4c0-0.2,0.2-0.4,0.4-0.4
				C420.8,365.9,421,366,421,366.3z"/>
		</g>
		<g>
			<path class="st8" d="M420,368c0,0.2-0.2,0.4-0.4,0.4c-0.2,0-0.4-0.2-0.4-0.4c0-0.2,0.2-0.4,0.4-0.4
				C419.8,367.6,420,367.8,420,368z"/>
		</g>
		<g>
			<path class="st8" d="M422.3,368c0,0.2-0.2,0.4-0.4,0.4c-0.2,0-0.4-0.2-0.4-0.4c0-0.2,0.2-0.4,0.4-0.4
				C422.1,367.6,422.3,367.8,422.3,368z"/>
		</g>
		<g>
			<path class="st8" d="M424.6,368c0,0.2-0.2,0.4-0.4,0.4c-0.2,0-0.4-0.2-0.4-0.4c0-0.2,0.2-0.4,0.4-0.4
				C424.4,367.6,424.6,367.8,424.6,368z"/>
		</g>
		<g>
			<path class="st8" d="M426.9,368c0,0.2-0.2,0.4-0.4,0.4c-0.2,0-0.4-0.2-0.4-0.4c0-0.2,0.2-0.4,0.4-0.4
				C426.7,367.6,426.9,367.8,426.9,368z"/>
		</g>
		<g>
			<path class="st8" d="M429.1,368c0,0.2-0.2,0.4-0.4,0.4c-0.2,0-0.4-0.2-0.4-0.4c0-0.2,0.2-0.4,0.4-0.4
				C429,367.6,429.1,367.8,429.1,368z"/>
		</g>
		<g>
			<path class="st8" d="M431.4,368c0,0.2-0.2,0.4-0.4,0.4c-0.2,0-0.4-0.2-0.4-0.4c0-0.2,0.2-0.4,0.4-0.4
				C431.2,367.6,431.4,367.8,431.4,368z"/>
		</g>
		<g>
			<path class="st8" d="M433.7,368c0,0.2-0.2,0.4-0.4,0.4c-0.2,0-0.4-0.2-0.4-0.4c0-0.2,0.2-0.4,0.4-0.4
				C433.5,367.6,433.7,367.8,433.7,368z"/>
		</g>
		<g>
			<path class="st8" d="M432.7,369.5c0,0.2-0.2,0.4-0.4,0.4c-0.2,0-0.4-0.2-0.4-0.4c0-0.2,0.2-0.4,0.4-0.4
				C432.5,369.1,432.7,369.3,432.7,369.5z"/>
		</g>
		<g>
			<path class="st8" d="M430.3,369.5c0,0.2-0.2,0.4-0.4,0.4c-0.2,0-0.4-0.2-0.4-0.4c0-0.2,0.2-0.4,0.4-0.4
				C430.1,369.1,430.3,369.3,430.3,369.5z"/>
		</g>
		<g>
			<path class="st8" d="M428,369.5c0,0.2-0.2,0.4-0.4,0.4c-0.2,0-0.4-0.2-0.4-0.4c0-0.2,0.2-0.4,0.4-0.4
				C427.8,369.1,428,369.3,428,369.5z"/>
		</g>
		<g>
			<path class="st8" d="M425.7,369.5c0,0.2-0.2,0.4-0.4,0.4c-0.2,0-0.4-0.2-0.4-0.4c0-0.2,0.2-0.4,0.4-0.4
				C425.5,369.1,425.7,369.3,425.7,369.5z"/>
		</g>
		<g>
			<path class="st8" d="M423.3,369.5c0,0.2-0.2,0.4-0.4,0.4c-0.2,0-0.4-0.2-0.4-0.4c0-0.2,0.2-0.4,0.4-0.4
				C423.1,369.1,423.3,369.3,423.3,369.5z"/>
		</g>
		<g>
			<path class="st8" d="M421,369.5c0,0.2-0.2,0.4-0.4,0.4c-0.2,0-0.4-0.2-0.4-0.4c0-0.2,0.2-0.4,0.4-0.4
				C420.8,369.1,421,369.3,421,369.5z"/>
		</g>
		<g>
			<path class="st8" d="M420,371.3c0,0.2-0.2,0.4-0.4,0.4c-0.2,0-0.4-0.2-0.4-0.4c0-0.2,0.2-0.4,0.4-0.4
				C419.8,370.8,420,371,420,371.3z"/>
		</g>
		<g>
			<path class="st8" d="M422.3,371.3c0,0.2-0.2,0.4-0.4,0.4c-0.2,0-0.4-0.2-0.4-0.4c0-0.2,0.2-0.4,0.4-0.4
				C422.1,370.8,422.3,371,422.3,371.3z"/>
		</g>
		<g>
			<path class="st8" d="M424.6,371.3c0,0.2-0.2,0.4-0.4,0.4c-0.2,0-0.4-0.2-0.4-0.4c0-0.2,0.2-0.4,0.4-0.4
				C424.4,370.8,424.6,371,424.6,371.3z"/>
		</g>
		<g>
			<path class="st8" d="M426.9,371.3c0,0.2-0.2,0.4-0.4,0.4c-0.2,0-0.4-0.2-0.4-0.4c0-0.2,0.2-0.4,0.4-0.4
				C426.7,370.8,426.9,371,426.9,371.3z"/>
		</g>
		<g>
			<path class="st8" d="M429.1,371.3c0,0.2-0.2,0.4-0.4,0.4c-0.2,0-0.4-0.2-0.4-0.4c0-0.2,0.2-0.4,0.4-0.4
				C429,370.8,429.1,371,429.1,371.3z"/>
		</g>
		<g>
			<path class="st8" d="M431.4,371.3c0,0.2-0.2,0.4-0.4,0.4c-0.2,0-0.4-0.2-0.4-0.4c0-0.2,0.2-0.4,0.4-0.4
				C431.2,370.8,431.4,371,431.4,371.3z"/>
		</g>
		<g>
			<path class="st8" d="M433.7,371.3c0,0.2-0.2,0.4-0.4,0.4c-0.2,0-0.4-0.2-0.4-0.4c0-0.2,0.2-0.4,0.4-0.4
				C433.5,370.8,433.7,371,433.7,371.3z"/>
		</g>
		<g>
			<circle class="st8" cx="432.2" cy="372.8" r="0.4"/>
		</g>
		<g>
			<circle class="st8" cx="429.9" cy="372.8" r="0.4"/>
		</g>
		<g>
			<path class="st8" d="M428,372.8c0,0.2-0.2,0.4-0.4,0.4c-0.2,0-0.4-0.2-0.4-0.4s0.2-0.4,0.4-0.4C427.8,372.4,428,372.6,428,372.8z
				"/>
		</g>
		<g>
			<circle class="st8" cx="425.2" cy="372.8" r="0.4"/>
		</g>
		<g>
			<circle class="st8" cx="422.9" cy="372.8" r="0.4"/>
		</g>
		<g>
			<path class="st8" d="M421,372.8c0,0.2-0.2,0.4-0.4,0.4c-0.2,0-0.4-0.2-0.4-0.4s0.2-0.4,0.4-0.4C420.8,372.4,421,372.6,421,372.8z
				"/>
		</g>
	</g>
	<g>
		<g>
			<path class="st1" d="M388.5,271.3c0,0,0.6,0,1.6,0.3c1,0.3,2.5,1.1,3.9,2.6c1.4,1.5,2.6,3.8,3.5,6.6c0.9,2.8,1.7,6,2.2,9.7
				c1.1,7.3,1.3,16.1,0.6,25.8c-0.2,2.4-0.8,5-2.2,7.1c-0.7,1.1-1.7,2-2.8,2.7c-1.1,0.7-2.5,1.1-3.9,0.9c-1.4-0.1-2.7-0.7-3.7-1.7
				c-0.5-0.5-0.9-1.1-1.1-1.8c-0.2-0.7-0.2-1.5,0-2.2c0.4-1.4,1.4-2.6,2.8-3.1c0.7-0.3,1.5-0.2,2.2,0c0.7,0.3,1.3,0.7,1.8,1.3
				c0.9,1.2,1.2,2.7,1,4.1c-0.2,1.4-0.8,2.7-1.4,3.9c-1.4,2.4-3.4,4.4-5.7,5.7c-4.7,2.7-10.5,2.6-14.8,0.2c-2.2-1.2-4-2.8-5.4-4.7
				c-1.4-1.8-2.5-3.8-3.3-5.9c-1.6-4.1-2-8.1-2.2-11.8c-0.2-3.7,0-7-0.4-9.9c-0.2-1.4-0.5-2.8-0.9-3.9c-0.4-1.2-1-2.1-1.7-2.9
				c-1.3-1.6-2.7-2.4-3.7-2.7c-1-0.3-1.6-0.3-1.6-0.4c0,0,0.6,0,1.6,0.3c1,0.3,2.5,1.1,3.8,2.7c0.7,0.8,1.3,1.8,1.7,3
				c0.5,1.2,0.8,2.5,1,4c0.4,2.9,0.2,6.2,0.4,9.9c0.2,3.6,0.7,7.7,2.2,11.7c0.8,2,1.8,4,3.2,5.7c1.4,1.8,3.2,3.4,5.3,4.5
				c4.2,2.3,9.8,2.4,14.3-0.2c2.2-1.3,4.2-3.2,5.5-5.6c0.6-1.2,1.2-2.4,1.4-3.7c0.2-1.3-0.1-2.7-0.9-3.8c-0.4-0.5-0.9-0.9-1.5-1.2
				c-0.6-0.2-1.3-0.2-1.9,0c-1.2,0.4-2.1,1.6-2.5,2.8c-0.4,1.2,0.1,2.6,1,3.5c0.9,0.9,2.1,1.4,3.4,1.6c1.3,0.1,2.5-0.2,3.6-0.9
				c1.1-0.6,2-1.6,2.7-2.6c1.4-2.1,1.9-4.5,2.2-6.9c0.7-9.6,0.5-18.4-0.5-25.6c-0.5-3.6-1.3-6.9-2.1-9.6c-0.8-2.8-2-5-3.4-6.5
				c-1.4-1.5-2.8-2.3-3.8-2.6C389.1,271.3,388.5,271.3,388.5,271.3z"/>
		</g>
	</g>
	<g>
		<rect x="347.4" y="285.8" class="st1" width="33.2" height="6.3"/>
	</g>
	<g>
		<rect x="97.5" y="351.2" class="st8" width="43.3" height="93.3"/>
	</g>
	<g>
		<g>
			<path class="st11" d="M137.1,434.6c0,0,0-0.1,0-0.4c0-0.3,0-0.7,0-1.2c0-1,0-2.5,0-4.5c0-3.9,0-9.6-0.1-16.7
				c0-14.2-0.1-34.2-0.1-57.5l0.2,0.2c-11.2,0-23.5,0-36.2,0h0l0.3-0.3c0,31.2-0.1,59.5-0.1,80.2l-0.2-0.2c11.2,0,20.2,0.1,26.5,0.1
				c3.1,0,5.6,0,7.2,0c0.8,0,1.4,0,1.9,0C136.9,434.6,137.1,434.6,137.1,434.6s-0.2,0-0.6,0c-0.4,0-1.1,0-1.9,0c-1.7,0-4.1,0-7.2,0
				c-6.3,0-15.4,0.1-26.6,0.1l-0.2,0l0-0.2c0-20.8,0-49.1-0.1-80.2l0-0.3h0.3h0c12.7,0,25,0,36.2,0h0.2l0,0.2
				c0,23.4-0.1,43.4-0.1,57.7c0,7.1-0.1,12.7-0.1,16.6c0,1.9,0,3.4,0,4.4c0,0.5,0,0.9,0,1.1C137.1,434.5,137.1,434.6,137.1,434.6z"
				/>
		</g>
	</g>
	<g>
		<g>
			<path class="st11" d="M134.9,361.2c0,0,0-0.3,0-1c0-0.7,0-1.6-0.1-2.7l0.1,0.1c-5.6,0.1-17.6,0.1-31.5,0.1h0
				c0.1-0.1-0.3,0.3,0.3-0.3v0v0v0v0v0v0.1v0.1v0.2l0,0.5c0,0.3,0,0.6,0,0.9c0,0.6,0,1.2,0,1.8l-0.3-0.3c8.8,0,16.7,0.1,22.3,0.1
				c2.8,0,5.1,0.1,6.7,0.1c0.8,0,1.4,0,1.8,0C134.7,361.2,134.9,361.2,134.9,361.2c0,0-0.2,0-0.6,0c-0.5,0-1,0-1.8,0
				c-1.6,0-3.9,0-6.6,0.1c-5.7,0.1-13.6,0.1-22.5,0.1l-0.3,0l0-0.3c0-0.6,0-1.2,0-1.8c0-0.3,0-0.6,0-0.9l0-0.5v-0.2v-0.1v-0.1v0v0v0
				v0v0c0.5-0.5,0.1-0.1,0.3-0.3h0c13.9,0,25.9,0.1,31.5,0.1l0.1,0l0,0.1c0,1.2,0,2.1-0.1,2.8C134.9,360.9,134.9,361.2,134.9,361.2z
				"/>
		</g>
	</g>
	<g>
		<g>
			<path class="st11" d="M106.5,363.9c0,0.1-0.7,0.3-1.5,0.3c-0.8,0-1.5-0.1-1.5-0.3s0.7-0.3,1.5-0.3
				C105.9,363.6,106.5,363.7,106.5,363.9z"/>
		</g>
	</g>
	<g>
		<g>
			<path class="st11" d="M134,368.7c0,0.1-6.7,0.3-15,0.3c-8.3,0-15-0.1-15-0.3s6.7-0.3,15-0.3C127.3,368.4,134,368.5,134,368.7z"/>
		</g>
	</g>
	<g>
		<g>
			<path class="st11" d="M134.2,374.5c0,0.1-6.6,0.3-14.7,0.3c-8.1,0-14.7-0.1-14.7-0.3c0-0.1,6.6-0.3,14.7-0.3
				C127.6,374.2,134.2,374.3,134.2,374.5z"/>
		</g>
	</g>
	<g>
		<circle class="st10" cx="119.1" cy="388.1" r="2.4"/>
	</g>
	<g>
		<g>
			<path class="st11" d="M112.3,388c0,0.1-1.4,0.3-3.2,0.3c-1.8,0-3.2-0.1-3.2-0.3c0-0.1,1.4-0.3,3.2-0.3
				C110.9,387.7,112.3,387.8,112.3,388z"/>
		</g>
	</g>
	<g>
		<g>
			<path class="st11" d="M131.7,387.3c0,0.1-1.4,0.3-3,0.3c-1.7,0-3-0.1-3-0.3c0-0.1,1.4-0.3,3-0.3
				C130.3,387.1,131.7,387.2,131.7,387.3z"/>
		</g>
	</g>
	<g>
		<g>
			<path class="st8" d="M99,398c0,0-0.6,0-1.6-0.3c-1-0.3-2.6-0.8-4.3-2c-1.7-1.1-3.6-2.9-5.2-5.4c-1.6-2.5-2.9-5.6-3.8-9.2
				c-0.9-3.6-1.5-7.6-1.2-11.9c0.3-4.3,1.6-9,4.5-12.9c1.4-2,3.3-3.8,5.4-5.2c1.1-0.7,2.3-1.3,3.5-1.7c1.2-0.4,2.5-0.7,3.9-0.9
				c2.6-0.4,5.3-0.3,8.1-0.5c2.7-0.2,5.5-0.6,7.9-1.8c2.5-1.2,4.4-3.4,4.9-6c0.6-2.6-0.1-5.4-1.8-7.3c-1.7-1.9-4.2-3.1-6.6-3
				c-1.2,0.1-2.4,0.5-3.3,1.2c-0.9,0.7-1.5,1.9-1.4,3c0.2,2.3,2.3,4.2,4.5,4.3c2.2,0.2,4.3-1,5.7-2.6c1.4-1.6,2.2-3.5,2.8-5.4
				c0.5-1.9,0.9-3.8,1.2-5.6c1-7.3,0.7-13.2,0.5-17.3c-0.1-2-0.2-3.6-0.2-4.7c0-0.5,0-0.9-0.1-1.2c0-0.3,0-0.4,0-0.4
				c0,0,0,0.1,0.1,0.4c0,0.3,0.1,0.7,0.1,1.2c0.1,1.1,0.2,2.7,0.3,4.7c0.2,4.1,0.6,10.1-0.4,17.4c-0.3,1.8-0.6,3.7-1.1,5.7
				c-0.5,1.9-1.4,3.9-2.8,5.6c-1.5,1.6-3.6,2.9-6.1,2.7c-2.4-0.1-4.7-2.1-4.9-4.7c-0.1-1.3,0.5-2.6,1.6-3.4c1-0.8,2.3-1.3,3.6-1.4
				c2.6-0.2,5.3,1.1,7.1,3.1c1.8,2,2.5,5,1.9,7.8c-0.3,1.4-0.9,2.7-1.8,3.8c-0.9,1.1-2.1,2-3.3,2.6c-2.6,1.3-5.4,1.7-8.1,1.9
				c-2.7,0.2-5.4,0.1-8,0.5c-1.3,0.2-2.6,0.5-3.8,0.9c-1.2,0.4-2.3,1-3.4,1.7c-2.1,1.4-3.9,3.1-5.3,5c-2.9,3.9-4.2,8.4-4.5,12.7
				c-0.3,4.3,0.2,8.3,1.1,11.8c0.9,3.5,2.1,6.6,3.7,9.1c1.5,2.5,3.4,4.2,5,5.4c1.7,1.2,3.2,1.7,4.2,2.1c0.5,0.2,0.9,0.2,1.2,0.3
				C98.9,398,99,398,99,398z"/>
		</g>
	</g>
	<g>
		<rect x="84.2" y="206.5" class="st8" width="102.6" height="70.5"/>
	</g>
	<g>
		<rect x="127.6" y="267.4" class="st8" width="14" height="26.6"/>
	</g>
</g>
<g id="Desk">
	<g>
		<polygon class="st8" points="94.5,292.9 94.5,302.5 147.4,302.5 147.4,444.9 152.3,444.9 152.3,302.5 373.4,303.6 373.4,444.9 
			378.1,444.9 378.1,303.3 412.3,303.6 412.3,292.1 		"/>
	</g>
	<g>
		<polygon class="st8" points="128.3,300.6 149.2,315.7 147.4,317.4 126.4,301.5 		"/>
	</g>
	<g>
		<polygon class="st8" points="397.8,302 373.6,319.3 375.4,321 399.8,302.9 		"/>
	</g>
	<g>
		<rect x="171.4" y="289.4" class="st8" width="54.7" height="4"/>
	</g>
	<text transform="matrix(1 0 0 1 83.9535 81.399)" class="st0 st16 st17">Academy</text>
	<text transform="matrix(1 0 0 1 419.2032 241.7379)" class="st0 st16 st17">TGI</text>
	<text transform="matrix(1 0 0 1 56.4062 235.396)" class="st0 st16 st17">Tutor</text>
</g>
</svg>
