<?xml version="1.0" encoding="utf-8"?>
<!-- Generator: Adobe Illustrator 25.2.3, SVG Export Plug-In . SVG Version: 6.00 Build 0)  -->
<svg version="1.1" id="Layer_1" xmlns="http://www.w3.org/2000/svg" xmlns:xlink="http://www.w3.org/1999/xlink" x="0px" y="0px"
	 viewBox="0 0 3400 2000" style="enable-background:new 0 0 3400 2000;" xml:space="preserve">
<style type="text/css">
	.st0{fill:#657285;}
	.st1{fill:#EAEAEA;}
	.st2{fill:#364154;}
	.st3{fill:#B8C1C9;}
	.st4{fill:#D5D6DA;}
	.st5{fill:#FFFFFF;}
	.st6{fill:#5F9048;}
	.st7{fill:#264914;}
	.st8{fill:#131F2D;}
	.st9{fill:#163560;}
	.st10{fill:#893927;}
	.st11{fill:#ED7D2B;}
	.st12{fill:#F99746;}
	.st13{fill:#632217;}
	.st14{fill:#B05638;}
	.st15{fill:#FF7955;}
	.st16{fill:#A0462D;}
	.st17{fill:#EF6343;}
	.st18{display:none;fill:#131F2D;}
</style>
<g>
	<polygon class="st0" points="2469.4,1324 1169.1,1324 1395.6,417.7 2696,417.7 	"/>
	<polygon class="st1" points="2442.6,1287.1 1212.6,1287.1 1422.4,454.7 2660.8,454.7 	"/>
</g>
<polygon class="st2" points="2494.6,1324 2469.4,1324 2696,417.7 2721.1,417.7 "/>
<g>
	<g>
		
			<ellipse transform="matrix(0.3827 -0.9239 0.9239 0.3827 269.636 2742.3845)" class="st3" cx="2187" cy="1169.4" rx="70.3" ry="70.3"/>
		<g>
			<path class="st3" d="M2425.7,1130.2h-116.4c-4.2,0-7.7,3.5-7.7,7.7l0,0c0,4.2,3.5,7.7,7.7,7.7h116.4c4.2,0,7.7-3.5,7.7-7.7l0,0
				C2433.4,1133.6,2429.9,1130.2,2425.7,1130.2z"/>
			<path class="st3" d="M2425.7,1161.8h-116.4c-4.2,0-7.7,3.5-7.7,7.7l0,0c0,4.2,3.5,7.7,7.7,7.7h116.4c4.2,0,7.7-3.5,7.7-7.7l0,0
				C2433.4,1165.2,2429.9,1161.8,2425.7,1161.8z"/>
			<path class="st3" d="M2425.7,1193.3h-116.4c-4.2,0-7.7,3.5-7.7,7.7c0,4.2,3.5,7.7,7.7,7.7h116.4c4.2,0,7.7-3.5,7.7-7.7
				C2433.4,1196.8,2429.9,1193.3,2425.7,1193.3z"/>
		</g>
		<path class="st0" d="M2122.6,1168.4h64.4V1104C2151.4,1104,2122.6,1132.9,2122.6,1168.4z"/>
		<path class="st3" d="M2251.3,1170.5H2187h0h-64.4c0,35.5,28.8,64.4,64.4,64.4l0,0c0,0,0,0,0,0c0,0,0,0,0,0l0,0
			C2222.5,1234.8,2251.3,1206,2251.3,1170.5z"/>
		<g>
			<path class="st4" d="M2175.8,1135.3h-34.9c-2,0-3.6,1.6-3.6,3.6c0,2,1.6,3.6,3.6,3.6h34.9c2,0,3.6-1.6,3.6-3.6
				C2179.4,1136.9,2177.8,1135.3,2175.8,1135.3z"/>
			<path class="st4" d="M2148.9,1148.5h-8c-2,0-3.6,1.6-3.6,3.6c0,2,1.6,3.6,3.6,3.6h8c2,0,3.6-1.6,3.6-3.6
				C2152.5,1150.1,2150.8,1148.5,2148.9,1148.5z"/>
		</g>
		<g>
			<path class="st4" d="M2227.7,1186.2h-34.9c-2,0-3.6,1.6-3.6,3.6c0,2,1.6,3.6,3.6,3.6h34.9c2,0,3.6-1.6,3.6-3.6
				C2231.3,1187.8,2229.7,1186.2,2227.7,1186.2z"/>
			<path class="st4" d="M2200.7,1199.4h-8c-2,0-3.6,1.6-3.6,3.6l0,0c0,2,1.6,3.6,3.6,3.6h8c2,0,3.6-1.6,3.6-3.6l0,0
				C2204.3,1201,2202.7,1199.4,2200.7,1199.4z"/>
		</g>
	</g>
	<g>
		
			<ellipse transform="matrix(0.9871 -0.1602 0.1602 0.9871 -164.2386 301.4331)" class="st0" cx="1787.6" cy="1169.4" rx="70.3" ry="70.3"/>
		<g>
			<path class="st3" d="M1909.8,1145.5h116.4c4.2,0,7.7-3.5,7.7-7.7c0-4.2-3.5-7.7-7.7-7.7h-116.4c-4.2,0-7.7,3.5-7.7,7.7
				C1902.2,1142,1905.6,1145.5,1909.8,1145.5z"/>
			<path class="st3" d="M2026.3,1161.7h-116.4c-4.2,0-7.7,3.5-7.7,7.7c0,4.2,3.5,7.7,7.7,7.7h116.4c4.2,0,7.7-3.5,7.7-7.7
				C2034,1165.2,2030.5,1161.7,2026.3,1161.7z"/>
			<path class="st3" d="M2026.3,1193.3h-116.4c-4.2,0-7.7,3.5-7.7,7.7l0,0c0,4.2,3.5,7.7,7.7,7.7h116.4c4.2,0,7.7-3.5,7.7-7.7l0,0
				C2034,1196.8,2030.5,1193.3,2026.3,1193.3z"/>
		</g>
		<path class="st3" d="M1787.6,1170.6l-64.4-0.8c0,0.3,0,0.5,0,0.8c0,35.5,28.8,64.4,64.4,64.4c12.7,0,24.6-3.7,34.5-10
			L1787.6,1170.6z"/>
		<g>
			<path class="st4" d="M1789.9,1190.8H1755c-2,0-3.6,1.6-3.6,3.6v0c0,2,1.6,3.6,3.6,3.6h34.9c2,0,3.6-1.6,3.6-3.6v0
				C1793.5,1192.5,1791.9,1190.8,1789.9,1190.8z"/>
			<path class="st4" d="M1762.9,1204h-8c-2,0-3.6,1.6-3.6,3.6c0,2,1.6,3.6,3.6,3.6h8c2,0,3.6-1.6,3.6-3.6
				C1766.6,1205.6,1764.9,1204,1762.9,1204z"/>
		</g>
	</g>
	<g>
		<circle class="st3" cx="1384.7" cy="1169.4" r="70.3"/>
		<path class="st0" d="M1384.7,1105.1c-35.5,0-64.4,28.8-64.4,64.4c0,24.3,13.5,45.5,33.5,56.5c10.3-19.1,30.9-56.5,30.9-56.5
			l30.5,56.7c20.2-10.9,33.9-32.2,33.9-56.7C1449,1133.9,1420.2,1105.1,1384.7,1105.1z"/>
		<g>
			<path class="st3" d="M1623.4,1130.2H1507c-4.2,0-7.7,3.5-7.7,7.7v0c0,4.2,3.5,7.7,7.7,7.7h116.5c4.2,0,7.7-3.5,7.7-7.7v0
				C1631.1,1133.6,1627.6,1130.2,1623.4,1130.2z"/>
			<path class="st3" d="M1623.4,1161.8H1507c-4.2,0-7.7,3.5-7.7,7.7c0,4.2,3.5,7.7,7.7,7.7h116.5c4.2,0,7.7-3.5,7.7-7.7
				C1631.1,1165.2,1627.6,1161.8,1623.4,1161.8z"/>
			<path class="st3" d="M1623.4,1193.3H1507c-4.2,0-7.7,3.5-7.7,7.7c0,4.2,3.5,7.7,7.7,7.7h116.5c4.2,0,7.7-3.5,7.7-7.7
				C1631.1,1196.8,1627.6,1193.3,1623.4,1193.3z"/>
		</g>
		<g>
			<path class="st4" d="M1387.1,1138.7h-34.9c-2,0-3.6,1.6-3.6,3.6c0,2,1.6,3.6,3.6,3.6h34.9c2,0,3.6-1.6,3.6-3.6
				C1390.7,1140.3,1389,1138.7,1387.1,1138.7z"/>
			<path class="st4" d="M1360.1,1151.8h-8c-2,0-3.6,1.6-3.6,3.6l0,0c0,2,1.6,3.6,3.6,3.6h8c2,0,3.6-1.6,3.6-3.6l0,0
				C1363.7,1153.5,1362.1,1151.8,1360.1,1151.8z"/>
		</g>
	</g>
</g>
<g>
	<path class="st4" d="M1849.7,1042.4h586.7c12,0,22.5-8.2,25.4-19.9l93.4-380.6c4-16.5-8.4-32.4-25.4-32.4h-584.8
		c-12,0-22.5,8.2-25.4,19.8l-95.2,380.6C1820.2,1026.4,1832.7,1042.4,1849.7,1042.4z"/>
	<path class="st3" d="M2468.6,886.9c0,0-91.9-70.5-173.8-8.9c-82,61.7-192.5,5.5-241.2,0c-84.7-9.5-160.1,19.1-188.2,50.4
		l-23.6,94.3h593.4L2468.6,886.9z"/>
	<polygon class="st5" points="2394.5,825.6 2399.1,825.6 2435.2,678.9 2430.6,678.9 	"/>
	<polygon class="st5" points="2199.3,888.6 2203.9,888.6 2240.2,741.8 2235.6,741.8 	"/>
	<polygon class="st5" points="2022.2,855.4 2026.7,855.4 2063.3,708.6 2058.7,708.6 	"/>
	<path class="st5" d="M2374,701.4h35c2.1,0,4.2-1.7,4.7-3.8l0,0c0.5-2.1-0.8-3.8-2.9-3.8h-35c-2.1,0-4.2,1.7-4.7,3.8l0,0
		C2370.6,699.7,2371.9,701.4,2374,701.4z"/>
	<path class="st5" d="M2370.6,715.1h35.1c2.1,0,4.2-1.7,4.7-3.8l0,0c0.5-2.1-0.8-3.8-2.9-3.8h-35c-2.1,0-4.2,1.7-4.7,3.8l0,0
		C2367.2,713.4,2368.5,715.1,2370.6,715.1z"/>
	<path class="st5" d="M2178.7,776.1h35.1c2.1,0,4.2-1.7,4.8-3.8l0,0c0.5-2.1-0.8-3.8-2.9-3.8h-35.1c-2.1,0-4.2,1.7-4.8,3.8l0,0
		C2175.3,774.4,2176.6,776.1,2178.7,776.1z"/>
	<path class="st5" d="M2175.4,789.6h35.1c2.1,0,4.2-1.7,4.8-3.8l0,0c0.5-2.1-0.8-3.8-2.9-3.8h-35.1c-2.1,0-4.2,1.7-4.8,3.8l0,0
		C2172,787.9,2173.3,789.6,2175.4,789.6z"/>
	<path class="st5" d="M2004.2,720.8h35.1c2.1,0,4.2-1.7,4.8-3.8l0,0c0.5-2.1-0.8-3.8-2.9-3.8h-35.1c-2.1,0-4.2,1.7-4.8,3.8l0,0
		C2000.8,719.1,2002.1,720.8,2004.2,720.8z"/>
	<path class="st5" d="M2000.9,734.3h35.1c2.1,0,4.2-1.7,4.8-3.8l0,0c0.5-2.1-0.8-3.8-2.9-3.8h-35.1c-2.1,0-4.2,1.7-4.8,3.8l0,0
		C1997.5,732.5,1998.8,734.3,2000.9,734.3z"/>
</g>
<polygon class="st6" points="1348.5,1042.4 1440.7,1042.4 1536.2,663.1 1446.6,663.1 "/>
<polygon class="st6" points="1466,1042.4 1558.2,1042.4 1626.9,767 1534.7,767 "/>
<polygon class="st6" points="1583.5,1042.4 1675.6,1042.4 1789.6,590.8 1697.5,590.8 "/>
<g>
	<path class="st7" d="M1740,672.3c-12,0-21.7-9.7-21.7-21.7c0-12,9.7-21.7,21.7-21.7c12,0,21.7,9.7,21.7,21.7
		C1761.7,662.5,1752,672.3,1740,672.3z M1740,637.3c-7.3,0-13.3,6-13.3,13.3c0,7.3,6,13.3,13.3,13.3s13.3-6,13.3-13.3
		C1753.3,643.3,1747.4,637.3,1740,637.3z"/>
	<path class="st7" d="M1749.3,637.3c-1.1,0-2.1-0.4-3-1.2c-1.6-1.6-1.6-4.3,0-5.9l67.6-67.6h742c2.3,0,4.2,1.9,4.2,4.2
		c0,2.3-1.9,4.2-4.2,4.2h-738.5l-65.1,65.1C1751.4,636.9,1750.4,637.3,1749.3,637.3z"/>
</g>
<path class="st6" d="M2555.9,546h-701.4c-12.9,0-23.3-10.4-23.3-23.3l0,0c0-12.9,10.4-23.3,23.3-23.3h701.4
	c12.9,0,23.3,10.4,23.3,23.3l0,0C2579.2,535.5,2568.8,546,2555.9,546z"/>
<g>
	<path class="st8" d="M646.1,1519.9c22.9-23.4,63.2-39.5,109.8-41.4v-68.9h-80.4c-1.8,0-3.4-1.6-4.4-4c-0.7-1.7-1.1-3.8-1.1-6v-3.5
		c0-5.5,2.5-10,5.5-10h80.4v-192.6c0-5.1,4.2-9.2,9.2-9.2l0,0c5.1,0,9.2,4.2,9.2,9.2v192.6h80.4c3,0,5.5,4.5,5.5,10v3.5
		c0,2.3-0.4,4.5-1.2,6.2c-1,2.3-2.6,3.8-4.3,3.8h-80.4v68.9c46.6,1.9,86.9,18,109.8,41.4c1.7,1.7,3.2,3.4,4.7,5.2H641.4
		C642.8,1523.3,644.4,1521.6,646.1,1519.9z"/>
</g>
<path class="st9" d="M1009.3,1479.2c0,0,2.8,45.2,11.5,45.8c1.2,0.1,44.3,0.1,44.3,0.1l55.1-0.3c0,0-0.4-13.3-16.5-16.1
	c-16.1-2.8-43.1-14.1-52.8-35.4C1040.7,1450.9,1009.3,1479.2,1009.3,1479.2z"/>
<path class="st8" d="M791.1,1147.3c7.9,13.3,17,25.8,26.3,37.7c29,36.6,60.5,66.7,66,95.3c1.1,5.7,2.8,11.8,5.1,18.2
	c2.3,6.5,5.1,13.4,8.4,20.5c12.3,26.7,30.7,56.6,49,83.9c31.7,47,57.7,78.6,57.7,78.6s8.3,6.5,32.1,6.5c6.6,0,28.9-3.6,28.9-3.6
	c-2.2-5.5-28.5-67.9-60.5-147.3c-13-32.2-26.8-66.5-40.1-99.5c-1.8-4.4-3.5-8.8-5.3-13.2c-4.1-10.1-8.1-20.1-12-29.8
	c-30-74.5-53.9-133.9-53.9-133.9s-119.9-45.4-132.3-16C750.5,1069,758.9,1092.7,791.1,1147.3z"/>
<rect x="995" y="1022.7" class="st1" width="181.5" height="502.3"/>
<rect x="1169" y="1022.7" transform="matrix(-1 -1.224647e-16 1.224647e-16 -1 2467.8296 2547.8289)" class="st3" width="129.8" height="502.3"/>
<rect x="982.7" y="1012.6" class="st3" width="187.5" height="10.1"/>
<rect x="1170.2" y="1012.6" class="st3" width="142" height="10.1"/>
<path class="st10" d="M979.9,945c0,0,26,14.8,33.3,14.8c7.3,0,35.9-5.5,43.8-1.5c8,4.1,22.4,20.5,25.1,25.8
	c4.9,9.6-19.6,5.4-31.1-2.8c-1.7-1.2-3.8-1.6-5.8-1.2c-6,1.3-18.4,3.6-24.4,1.3c-8.1-3-50.6-6.3-50.6-6.3L979.9,945z"/>
<path class="st11" d="M782,743.6c0,0,27,191.6,71.6,208.8c22,8.5,119.4,27.7,148.2,29.6c0,0,7.1-5.7,5.3-29c0,0-102-37.4-116.5-57.8
	c-21.6-30.3,13.4-123.8-13.7-152.3C849.9,714.4,804.3,702.1,782,743.6z"/>
<path class="st11" d="M882.5,1350.1c0,0-38.1,24.5-34.4,32.4c0.5,1.1,21.5,38.7,21.5,38.7l27.1,47.9c0,0,11.4-6.8,6-22.2
	c-5.4-15.4-8.7-44.5,5.2-63.4C922.5,1363.8,882.5,1350.1,882.5,1350.1z"/>
<path class="st2" d="M904.2,1397.1c0,0-26.8-24.9-31-40.3c0,0,98-117.5,119.3-143.8c1-1.2,0.7-2.5-0.6-4
	c-16.1-18.1-194.4-54.9-217.8-91.2c-8-12.5-12.6-24.4-15.1-34.7c-5.3-22.1-1.1-37.4-1.1-37.4l178.2-5.2c0,0,148.3,92.4,165.1,155.3
	C1118.1,1258.8,904.2,1397.1,904.2,1397.1z"/>
<path class="st8" d="M991.9,1209c-16.1-18.1-194.4-54.9-217.8-91.2c-8-12.5-12.6-24.4-15.1-34.7v-22.5l75.7-11.9
	c0,0,21.5,66.1,85.1,90.9C979.4,1162.7,990.7,1203.8,991.9,1209z"/>
<path class="st10" d="M887.4,731.5c-36,9.3-95.8-24.1-95.8-24.1s23.2-15.6,31.8-49.8c0.4-1.7,0.8-3.5,1.2-5.3
	c3.8-0.8,10.9-2.3,18.5-3.9l27.5,24.7c0,0-0.6,10.2-4.1,27.8c-0.6,3.1-1.3,6.4-2.1,9.9C879.2,719.9,887.4,731.5,887.4,731.5z"/>
<path class="st12" d="M753.4,880.9c5.2,69.4-1.6,175,4.2,193.3c5.1,15.8,62.6,6.4,85.6,1.1c8.5-1.9,18.8-4.7,29.5-8
	c29.7-9.2,62-22.3,65.5-32.1c0.1-0.4,0.2-0.8,0.3-1.1c0.3-1.4,0.2-2.7-0.1-4.1c-1.2-5-5.6-10.3-6.1-22.6c-0.6-13.7-0.5-29.9-1-47.3
	c0-2-0.1-4.1-0.3-6l0-0.7c0-0.4,0-0.7,0-1.1c-0.5-19.4-1.5-39.8-2.7-60c-0.7-12.7-1.6-25.3-2.6-37.3c-2.6-31.1-6.1-58.8-10.7-76.3
	c-7.5-28.5-24.2-47.1-39.3-60.7l-11-9.4c-12.2,2.7-26.7,0.9-39.8-5.3c-14.2-6.7-19-11.5-21.5-9.7C770.8,718.8,747.3,796,753.4,880.9
	z"/>
<path class="st11" d="M872.8,1067.3c29.7-9.2,62-22.3,65.5-32.1c0.1-0.4,0.2-0.8,0.3-1.1c0-1.4,0-2.7-0.1-4.1
	c-1.2-5-5.6-10.3-6.1-22.6c-0.6-13.7-0.5-29.9-1-47.3c0-2-0.1-4.1-0.3-6l0-0.7c0-0.4,0-0.7,0-1.1L811,799.3
	C811,799.3,730.4,967.3,872.8,1067.3z"/>
<path class="st13" d="M870.6,673c0,0-0.6,10.2-4.1,27.8c-26.9-8.7-39.1-33-43.1-43.3c0.4-1.7,0.8-3.5,1.2-5.3
	c3.8-0.8,10.9-2.3,18.5-3.9L870.6,673z"/>
<path class="st10" d="M874.2,688.5c0,0-58.6-9.8-52-46.2c6.7-36.4,3.6-62.2,41.3-57.5c37.7,4.7,42.4,19.9,43.2,32.6
	C907.4,630.1,889.7,690.1,874.2,688.5z"/>
<polygon class="st8" points="1002.6,1003.7 1149,1003.7 1188.8,875 1194,876.6 1152,1012.6 1002.6,1012.6 "/>
<path class="st10" d="M963.8,1007.4c0,0,48,12.7,66,11.3c18-1.3,33-9.9,35.2-14.4c2.3-4.5,7-12.4-5.2-10.9
	c-12.2,1.5-29,4.1-29.5,1.7c-0.5-2.4,10-2.1,10-2.1s3.2-4.6-0.8-4.8c-4-0.2-15.7-3.3-20-1.2c-4.3,2.2-8.3,10.2-11.5,9.8
	c-3.2-0.3-40.2-16.7-40.2-16.7L963.8,1007.4z"/>
<path class="st12" d="M793.9,753.1c0,0,5.7,193.4,48.2,215.4c21,10.8,115.6,40.7,144,45.8c0,0,7.6-4.9,8.5-28.3
	c0,0-97.3-48.5-109.4-70.3c-18.1-32.5,27-121.6,3.2-152.9C864.6,731.6,820.6,714.4,793.9,753.1z"/>
<path class="st8" d="M823.4,657.6c0,0-0.7-12.5,7-19.7c0,0-2.7-12.5,2.3-14.6c5-2.1,6,8.5,8.3,6.8c2.3-1.7,12.4-9.5,16.7-21.1
	c4.3-11.6,44,2.4,48.6,4.5c4.6,2.1,19.5-5.6,22.4-11.8c0,0-8.3-6.6-12-11.6c-3.7-5-29.7-38.4-66.1-28.9
	c-36.3,9.5-41.3,26.8-39.2,41.7C813.5,618,808.5,652.6,823.4,657.6z"/>
<path class="st14" d="M890.9,1122.3L890.9,1122.3c-55.1,0-109.6-11.2-160.3-32.8l-32.9-14c-29.9-12.7-63,9.2-63,41.6v16.3v28.3v18.2
	c0,6.1,5,11.1,11.1,11.1h245.1c6.1,0,11.1-5,11.1-11.1v-46.5C902,1127.3,897,1122.3,890.9,1122.3z"/>
<path class="st6" d="M2337.6,1070.7c-72,9.5-14.2,64.4-124.1,180.8c-79.4,84.2-194.8-17.9-284,68.5
	c-77.5,75.1,17.8,204.8,17.8,204.8l467.7,0C2634.5,1365.9,2397.6,1062.8,2337.6,1070.7z"/>
<g>
	<path class="st15" d="M1861.8,1422.8c-1.9,3-4.6,4.1-8,3.9c0,0,0,0,0,0c-6.2-0.3-14.5-5.1-23.1-11c-1.1-0.8-2.1-1.4-3-2
		c-0.2-0.1-0.5-0.3-0.7-0.4c-0.2-0.1-0.4-0.2-0.6-0.3c-8.9-5.2-9.6-2-27.1-11c-19.9-10.2-23.3-20.3-22.7-23.7
		c0.5-2.8,10.2-0.3,21,2.5c0.5,0.1,1.1,0.3,1.6,0.4c1.4,0.4,2.9,0.7,4.4,1.1c13,3.2,17.7-0.1,33.8-6.6c13-5.3,68.6-43.4,68.6-43.4
		l13.5,27c0,0-46.4,23.3-51.1,35c-2.5,6.3-0.8,11.9-2.4,17.7c-0.1,0.4-0.2,0.8-0.3,1.2C1864.7,1416.4,1863.7,1419.8,1861.8,1422.8z"
		/>
	<path class="st8" d="M1861.8,1422.8c-1.9,3-4.6,4.1-8,3.9c0,0,0,0,0,0c-6.3-0.8-14.5-5.4-23-11.1c-1.1-0.7-2.1-1.4-3.1-1.9
		c-0.2-0.1-0.5-0.3-0.7-0.4c-0.2-0.1-0.4-0.2-0.6-0.3c-8.9-5.2-9.6-2-27.1-11c-19.9-10.2-23.3-20.3-22.7-23.7
		c0.5-2.8,10.2-0.3,21,2.5c1.9,2.6,11.4,14.4,27.5,20.6c14.1,5.5,30.6,7.1,40.9,10.6c-0.1,0.4-0.2,0.8-0.3,1.2
		C1864.7,1416.4,1863.7,1419.8,1861.8,1422.8z"/>
	<path class="st15" d="M1908.6,1517c-1.3,9.3-14.5,8.4-29.3,5.6c-14.8-2.8-11.1,1.3-32,0.1c-20.9-1.2-27.6-8.6-28.4-11.6
		c-0.7-2.7,9.5-4.2,20.4-6.1c1.4-0.2,2.8-0.5,4.1-0.7c12.3-2.2,21-10.7,31.9-17.9c10.4-6.8,24.9-33.1,24.9-33.1l28.6,0.7
		c0,0-13.7,23.5-19,33.7c-3.1,6-2.5,13.6-1.8,19.6C1908.7,1510.5,1909.1,1513.7,1908.6,1517z"/>
	<path class="st8" d="M1879.6,1523.7c-14.9-2.3-11,1.6-31.9,1.1c-20.9-0.5-27.9-11.2-28.8-14.2c-0.8-2.7,5.2-3.4,16-5.6l4.3-0.9
		c0,0,13.2,11.2,30.5,10.1c14.1-0.9,28.6-6.2,38.3-6.9c0.5,3.2,1,6.5,0.6,9.7C1907.6,1526.4,1894.5,1526,1879.6,1523.7z"/>
	<path class="st15" d="M1964.1,1090.5c0,0-6.8-16.6-14.3-17.3c-7.5-0.7-31.2-4.4-32.9-1c-1.7,3.4,0,15.6,5.1,20
		c5.1,4.4,36.7,11.5,36.7,11.5L1964.1,1090.5z"/>
	<path class="st16" d="M2016.6,1240l-140.6,106.5c0,0,1.8,9.3,7,17.2c4.7,7.3,13.5,14.6,13.5,14.6s147.6-60.4,171.2-96.7
		C2091.1,1245.4,2016.6,1240,2016.6,1240z"/>
	<path class="st14" d="M2247.1,1249.3c0,0-179.5-50.2-218.1-35.4c-38.6,14.8-144.1,256-144.1,256s2.9,3.4,10.3,5.7
		c6.9,2.2,23.3,1.1,23.3,1.1s101.6-97,112.9-124.4c11.3-27.3,15-53,27.8-51.1c12.8,1.9,167,53.4,199.3,16c32.3-37.4,20.9-83,20.9-83
		L2247.1,1249.3z"/>
	<path class="st8" d="M2145,982.3c-2.8-5.8-6-16.2-7.5-34.6c0.2,1.8,3.4,25.1,12.4,38.2c36.7,24.1,107.1,104.6,105.7,119.9
		c0,0,24.8-42,25.2-42.3c0,0,45.7-58.2-8.5-91.5c-27.5-16.9-27.4-38.7-26.3-57.5c1.2-18.9-7.5-100.1-62.7-78.9c0,0-8.9-3.9-12.8-3.3
		c0,0,3.2,0.6,4.9,2.3c-6.4-0.4-15.5,0.1-23.2,4.4C2132,850.6,2113.9,953.7,2145,982.3z"/>
	<path class="st15" d="M2152.1,987.1c-0.2,0.1,17.7,9.4,31.2,5.7c12.7-3.5,21-19.9,20.8-19.9c-5.4-1.1-6.9-8.4-6.8-40.1l-2.4,0.5
		l-40.8,8.1c0,0,0.9,12.8,1,24.9C2155,976.4,2154.4,986.1,2152.1,987.1z"/>
	<path class="st17" d="M2154,941.3c0,0,0.9,12.8,1,24.9c22.8-0.6,34.9-21.5,39.8-33L2154,941.3z"/>
	<path class="st8" d="M2199,928.8c0,0,12-18.9,14.8-35.1c2-11.5-3.8-54.3-46.8-48.2c0,0-12.5,1.2-24.2,9.2
		c-9.3,6.3-22.8,19.9-7.7,57.2l3.9,12.6L2199,928.8z"/>
	<path class="st15" d="M2146.4,952.8c0,0,54,0.9,54.1-32.8c0-33.6,7-56.2-27.5-58.2c-34.5-2-41.2,10.8-43.9,22.1
		C2126.3,895.1,2132.3,951.7,2146.4,952.8z"/>
	<path class="st8" d="M2210.5,861.6c0,0-50-18.7-61.7-1.3c-3.5-3-9.8-5.2-18.2,4.9c-12.5,15.2-1.4,42-1.4,42c5.1,0.6,6.4-17,9-25.6
		c2-6.5,8.8-13.1,12-15.9c4.7,10.6,17.7,36,35.5,40.6c22.7,5.8,32.5-0.2,32.5-0.2S2214.1,885.8,2210.5,861.6z"/>
	<path class="st2" d="M2294.4,1261c-2.9,8.1-11.8,10.2-23.8,8.8c-22.8-2.7-56.7-18-81.2-28.6c-37.3-16.1-70.1-6.7-81.9-16.9
		c-11.9-10.3,29.4-27.4,7.4-133.6c-7.5-36,39.8-113.2,39.8-113.2s3.3,20.9,49.4-4.5c0.2-0.1,19.4,25.4,36.6,58
		c18.9,35.9,37,79.2,31.7,101.6C2262.2,1175.1,2302.8,1237.5,2294.4,1261z"/>
	<path class="st2" d="M2154.6,977.4l-27.9,114.6c0,0-3.5,6.2-8.9,15c-12.8,20.7-36.4,55.8-51.6,59.3c-7.5,1.8-23.4-4.5-40.9-13.3
		c-33.2-16.8-72.5-43.1-72.5-43.1c-2.5-15.2,10.7-27.7,10.7-27.7s79.6,29.9,87.5,30.5c17.2,1.2,34.8-82,50.9-109.7
		C2113.5,982.9,2154.6,977.4,2154.6,977.4z"/>
	<path class="st5" d="M2158.4,932.4c0,0-1,4.3-11.6,3.6c0,0-8.9-0.6-8.7-5.2C2138.1,930.8,2146.8,927.4,2158.4,932.4z"/>
	<path class="st8" d="M2294.4,1261c-2.9,8.1-11.8,10.2-23.8,8.8c-15.8-6.9-84.1-33.3-83.3-51.3c1.1-26.5,13.1-27.4,4.7-60.1
		c-6.8-26.3,56.3-75.2,66.3-85.8c18.9,35.9,19.4,37.6,14.1,59.9C2262.2,1175.1,2302.8,1237.5,2294.4,1261z"/>
	<path class="st8" d="M2117.8,1106.9c-12.8,20.7-36.4,55.8-51.6,59.3c-7.5,1.8-23.4-4.5-40.9-13.3c12.8,3.3,25.3,3.2,37.4,2
		c13.1-1.3,16.9-17.4,37.7-41.5C2113.9,1097.8,2117.2,1101.8,2117.8,1106.9z"/>
	<path class="st15" d="M2181.1,1157.7c0,0-11.4-8.9-22.2-6.8s-16.1,9.5-15.7,12.9c0.4,3.4,6.1,12.9,14.4,13.8
		c8.3,0.8,31.8-5.1,31.8-5.1L2181.1,1157.7z"/>
	<path class="st2" d="M2204,972.9c0,0,44,2.7,59.3,24c21.5,29.9,72.9,163,48.6,180c-27.5,19.2-133.9-0.6-133.9-0.6
		s-3.2-15.2,1.3-22.5c4.5-7.3,77.9-19.2,81.3-22.6s-42.3-66.1-42.3-76.2C2218.1,1044.9,2204,972.9,2204,972.9z"/>
</g>
<g>
	<polygon class="st6" points="2169.6,1217.5 2007.4,1217.5 1978.2,1115.6 2140.1,1115.6 	"/>
	<polygon class="st6" points="2006.4,1213.6 2220,1213.6 2220,1217.5 2007.4,1217.5 	"/>
</g>
<path class="st5" d="M2058.9,1164.9c-1-3.6,1-6.5,4.6-6.5c3.6,0,7.3,2.9,8.3,6.5c1,3.6-1,6.5-4.6,6.5
	C2063.7,1171.4,2060,1168.5,2058.9,1164.9z"/>
<path class="st18" d="M2695.7,1526.3H602.5c-1.6,0-2.9-1.1-2.9-2.5l0,0c0-1.4,1.3-2.5,2.9-2.5h2093.2c1.6,0,2.9,1.1,2.9,2.5l0,0
	C2698.6,1525.1,2697.3,1526.3,2695.7,1526.3z"/>
</svg>
