<?xml version="1.0" encoding="utf-8"?>
<!-- Generator: Adobe Illustrator 25.2.3, SVG Export Plug-In . SVG Version: 6.00 Build 0)  -->
<svg version="1.1" xmlns="http://www.w3.org/2000/svg" xmlns:xlink="http://www.w3.org/1999/xlink" x="0px" y="0px"
	 viewBox="0 0 750 500" style="enable-background:new 0 0 750 500;" xml:space="preserve">
<style type="text/css">
	.st0{display:none;}
	.st1{display:inline;fill:#FAF2EF;}
	.st2{opacity:0.8;}
	.st3{fill:#F0F7EB;}
	.st4{fill:#1B3431;}
	.st5{fill:#414F50;}
	.st6{fill:#FFFFFF;}
	.st7{fill:#E9CEC2;}
	.st8{fill:#78B1DE;}
	.st9{fill:#468280;}
	.st10{fill:#E2534D;}
	.st11{fill:#DD615C;}
	.st12{fill:#EFE3DF;}
	.st13{fill:#F4AD4B;}
	.st14{fill:#D76751;}
	.st15{clip-path:url(#SVGID_2_);}
	.st16{fill:#F5BF69;}
	.st17{fill:#5A918E;}
	.st18{fill:#BA4131;}
	.st19{fill:#F49D8B;}
	.st20{fill:#D37363;}
	.st21{fill:#285B5C;}
	.st22{fill:#D57635;}
	.st23{fill:#5F9048;}
	.st24{fill:#4E88AF;}
</style>
<g id="BACKGROUND" class="st0">
	<rect x="0.2" class="st1" width="750" height="500"/>
</g>
<g id="OBJECTS">
	<g>
		<g class="st2">
			<g>
				<g>
					<g>
						<g>
							<path class="st3" d="M248.7,73.7c6.2,3.4,2.8,11.8-4.1,10.1l0,0C238.4,80.4,241.8,72.1,248.7,73.7z"/>
						</g>
					</g>
				</g>
			</g>
			<g>
				<g>
					<path class="st3" d="M277.9,70.7c2.3,5.5-0.2,11.8-5.6,14.1c-5.5,2.3-11.8-0.2-14.1-5.6c-2.3-5.5,0.2-11.8,5.6-14.1
						C269.3,62.8,275.6,65.3,277.9,70.7z"/>
				</g>
			</g>
			<g>
				<g>
					
						<ellipse transform="matrix(0.9776 -0.2104 0.2104 0.9776 -0.4866 129.586)" class="st3" cx="608.8" cy="67.1" rx="7.8" ry="7.8"/>
				</g>
			</g>
		</g>
		<g class="st2">
			<g>
				<g>
					<g>
						<g>
							<path class="st3" d="M242.5,409.3c4.6,5.4-1.7,12-7.5,8l0,0C230.4,411.8,236.6,405.2,242.5,409.3z"/>
						</g>
					</g>
				</g>
			</g>
			<g>
				<g>
					<path class="st3" d="M270.8,417c0.2,5.9-4.4,10.9-10.3,11.1c-5.9,0.2-10.9-4.4-11.1-10.3c-0.2-5.9,4.4-10.9,10.3-11.1
						C265.6,406.5,270.5,411.1,270.8,417z"/>
				</g>
			</g>
		</g>
		<g>
			<path class="st3" d="M650.1,181.7c0-58.5-48.7-122.5-109.2-126.4c-1.1-0.1-2.1-0.1-3.2-0.2c-86.8-4-93.5,101.9-172,113.8
				c-78.6,11.9-138.6-48.4-232.6-9C48.5,195.2,25.7,393.8,273.8,401.8C472.2,408.1,650.1,356.1,650.1,181.7z"/>
		</g>
	</g>
	<ellipse class="st3" cx="382.2" cy="447.1" rx="328" ry="13.2"/>
	<g>
		<g>
			<g>
				<g>
					<g>
						<g>
							<path class="st4" d="M631.5,106.6v257.3c0,8.2-6.6,14.8-14.8,14.8H134.5c-8.2,0-14.8-6.6-14.8-14.8V106.6
								c0-8.2,6.6-14.8,14.8-14.8h482.2C624.9,91.8,631.5,98.4,631.5,106.6z"/>
						</g>
					</g>
				</g>
			</g>
		</g>
	</g>
	<g>
		<g>
			<g>
				<g>
					<g>
						<g>
							<g>
								<g>
									<rect x="337.1" y="378.7" class="st5" width="76.8" height="53"/>
								</g>
							</g>
						</g>
					</g>
					<path class="st4" d="M449,448.1H302c-9.4,0-12.4-10.4-4-13.9l17.8-7.3c6.7-2.7,14-4.2,21.5-4.2h76.4c7.5,0,14.8,1.4,21.5,4.2
						l17.8,7.3C461.4,437.6,458.4,448.1,449,448.1z"/>
					<g>
						<g>
							<g>
								<g>
									<g>
										<polygon class="st4" points="413.9,387.1 337.1,400.6 337.1,378.7 413.9,378.7 										"/>
									</g>
								</g>
							</g>
						</g>
					</g>
				</g>
				<path class="st5" d="M631.5,329.4v34.5c0,8.2-6.6,14.8-14.8,14.8H134.5c-8.2,0-14.8-6.6-14.8-14.8v-34.5H631.5z"/>
			</g>
		</g>
	</g>
	<rect x="119.7" y="329.4" class="st4" width="511.8" height="18.5"/>
	<g>
		<g>
			<g>
				<g>
					<g>
						<g>
							<path class="st4" d="M403.8,367.9h-56.5c-3.8,0-6.8-3.1-6.8-6.8v-0.2c0-3.8,3.1-6.8,6.8-6.8h56.5c3.8,0,6.8,3.1,6.8,6.8v0.2
								C410.7,364.8,407.6,367.9,403.8,367.9z"/>
						</g>
					</g>
				</g>
			</g>
		</g>
	</g>
	<g>
		<g>
			<g>
				<g>
					<g>
						<path class="st3" d="M613.4,115.5v213.9H137.7V115.5c0-3.2,2.6-5.7,5.7-5.7h464.2C610.8,109.8,613.4,112.4,613.4,115.5z"/>
					</g>
				</g>
			</g>
		</g>
	</g>
	<g>
		<g>
			<g>
				<g>
					<g>
						<g>
							<path class="st6" d="M613.4,115.5v19.8H137.7v-19.8c0-3.2,2.6-5.7,5.7-5.7h464.2C610.8,109.8,613.4,112.4,613.4,115.5z"/>
						</g>
					</g>
				</g>
			</g>
		</g>
		<path class="st7" d="M543.3,125.5H181.1c-1.2,0-2.1-1-2.1-2.1v-1.7c0-1.2,1-2.1,2.1-2.1h362.2c1.2,0,2.1,1,2.1,2.1v1.7
			C545.4,124.5,544.5,125.5,543.3,125.5z"/>
		<polygon class="st4" points="157.8,117.1 150.4,123.2 157.8,128.1 		"/>
		<polygon class="st4" points="163.9,117.1 171.4,123.2 163.9,128.1 		"/>
		<g>
			<g>
				<g>
					<g>
						<path class="st8" d="M580.9,122.6c0,2.9-2.4,5.3-5.3,5.3c-2.9,0-5.3-2.4-5.3-5.3c0-2.9,2.4-5.3,5.3-5.3
							C578.6,117.3,580.9,119.7,580.9,122.6z"/>
					</g>
				</g>
			</g>
			<g>
				<g>
					<path class="st9" d="M564.8,122.6c0,2.9-2.4,5.3-5.3,5.3c-2.9,0-5.3-2.4-5.3-5.3c0-2.9,2.4-5.3,5.3-5.3
						C562.5,117.3,564.8,119.7,564.8,122.6z"/>
				</g>
				<g>
					<g>
						<g>
							<path class="st10" d="M597,122.6c0,2.9-2.4,5.3-5.3,5.3c-2.9,0-5.3-2.4-5.3-5.3c0-2.9,2.4-5.3,5.3-5.3
								C594.7,117.3,597,119.7,597,122.6z"/>
						</g>
					</g>
				</g>
			</g>
		</g>
	</g>
	<g>
		<g>
			<g>
				<g>
					<path class="st6" d="M542.3,148.1v167c0,3.4-2.8,6.2-6.2,6.2H216.5c-3.4,0-6.2-2.8-6.2-6.2v-167c0-4.5,3.6-8.1,8.1-8.1h315.7
						C538.6,139.9,542.3,143.6,542.3,148.1z"/>
				</g>
			</g>
			<g>
				<g>
					<g>
						<g>
							
								<ellipse transform="matrix(0.923 -0.3849 0.3849 0.923 -83.6238 132.2508)" class="st11" cx="288.6" cy="275" rx="9.3" ry="9.3"/>
						</g>
					</g>
					<g>
						<g>
							<g>
								<g>
									<path class="st6" d="M293,280.4c-0.2,0-0.5-0.1-0.7-0.3l-8.7-8.7c-0.4-0.4-0.4-1,0-1.4c0.4-0.4,1-0.4,1.4,0l8.7,8.7
										c0.4,0.4,0.4,1,0,1.4C293.5,280.3,293.2,280.4,293,280.4z"/>
								</g>
							</g>
						</g>
						<g>
							<g>
								<g>
									<path class="st6" d="M284.2,280.4c-0.2,0-0.5-0.1-0.7-0.3c-0.4-0.4-0.4-1,0-1.4l8.7-8.7c0.4-0.4,1-0.4,1.4,0
										c0.4,0.4,0.4,1,0,1.4l-8.7,8.7C284.7,280.3,284.5,280.4,284.2,280.4z"/>
								</g>
							</g>
						</g>
					</g>
				</g>
				<g>
					<g>
						<g>
							<path class="st4" d="M269.8,270.3H251c-0.7,0-1.2,0.5-1.2,1.2v10.4c0,0.7,0.5,1.2,1.2,1.2h18.8c0.7,0,1.2-0.5,1.2-1.2v-10.4
								C271,270.8,270.5,270.3,269.8,270.3z M253,275c-0.9,0-1.6-0.7-1.6-1.6c0-0.9,0.7-1.6,1.6-1.6c0.9,0,1.6,0.7,1.6,1.6
								C254.7,274.3,253.9,275,253,275z M260.4,281c-2.5,0-4.5-2-4.5-4.5c0-2.5,2-4.5,4.5-4.5c2.5,0,4.5,2,4.5,4.5
								C264.9,279,262.9,281,260.4,281z"/>
						</g>
					</g>
					<g>
						<g>
							<path class="st4" d="M264.8,267.5v2.8h-2.2v-1.4c0-0.2-0.1-0.3-0.3-0.3h-3.8c-0.2,0-0.3,0.1-0.3,0.3v1.4H256v-2.8
								c0-0.3,0.2-0.6,0.6-0.6h7.6C264.5,266.9,264.8,267.2,264.8,267.5z"/>
						</g>
					</g>
				</g>
				<g>
					<g>
						<g>
							<path class="st4" d="M237.4,279.9H236c-1,0-1.8-0.8-1.8-1.8v-9.7c0-1,0.8-1.8,1.8-1.8h1.5c1,0,1.8,0.8,1.8,1.8v9.7
								C239.2,279.1,238.4,279.9,237.4,279.9z"/>
						</g>
					</g>
					<g>
						<g>
							<path class="st4" d="M236.9,283h-0.3c-0.2,0-0.4-0.2-0.4-0.4v-5.5c0-0.2,0.2-0.4,0.4-0.4h0.3c0.2,0,0.4,0.2,0.4,0.4v5.5
								C237.2,282.9,237.1,283,236.9,283z"/>
						</g>
					</g>
					<g>
						<g>
							<path class="st4" d="M241,283.5h-8.7c-0.4,0-0.8-0.3-0.8-0.8v-0.6c0-0.4,0.3-0.8,0.8-0.8h8.7c0.4,0,0.8,0.4,0.8,0.8v0.6
								C241.8,283.1,241.5,283.5,241,283.5z"/>
						</g>
					</g>
				</g>
			</g>
			<g>
				<g>
					<path class="st12" d="M528.5,207.1h-69.8c-1.8,0-3.3-1.5-3.3-3.3v-36.3c0-1.8,1.5-3.3,3.3-3.3h69.8c1.8,0,3.3,1.5,3.3,3.3v36.3
						C531.8,205.7,530.3,207.1,528.5,207.1z"/>
				</g>
			</g>
			<g>
				<g>
					<path class="st12" d="M530,242.7h-72.8c-1.1,0-2-0.9-2-2l0,0c0-1.1,0.9-2,2-2H530c1.1,0,2,0.9,2,2l0,0
						C532,241.8,531.1,242.7,530,242.7z"/>
				</g>
				<g>
					<path class="st12" d="M530,225.6h-72.8c-1.1,0-2-0.9-2-2l0,0c0-1.1,0.9-2,2-2H530c1.1,0,2,0.9,2,2l0,0
						C532,224.7,531.1,225.6,530,225.6z"/>
				</g>
				<g>
					<path class="st12" d="M530,259.8h-72.8c-1.1,0-2-0.9-2-2l0,0c0-1.1,0.9-2,2-2H530c1.1,0,2,0.9,2,2l0,0
						C532,258.9,531.1,259.8,530,259.8z"/>
				</g>
			</g>
			<g>
				<g>
					<path class="st12" d="M305,242.7h-72.8c-1.1,0-2-0.9-2-2l0,0c0-1.1,0.9-2,2-2H305c1.1,0,2,0.9,2,2l0,0
						C307,241.8,306.1,242.7,305,242.7z"/>
				</g>
				<g>
					<path class="st12" d="M305,225.6h-72.8c-1.1,0-2-0.9-2-2l0,0c0-1.1,0.9-2,2-2H305c1.1,0,2,0.9,2,2l0,0
						C307,224.7,306.1,225.6,305,225.6z"/>
				</g>
				<g>
					<path class="st12" d="M305,259.8h-72.8c-1.1,0-2-0.9-2-2l0,0c0-1.1,0.9-2,2-2H305c1.1,0,2,0.9,2,2l0,0
						C307,258.9,306.1,259.8,305,259.8z"/>
				</g>
			</g>
			<g>
				<path class="st4" d="M542.3,297.3V315c0,3.4-2.8,6.2-6.2,6.2H216.5c-3.4,0-6.2-2.8-6.2-6.2v-17.7H542.3z"/>
			</g>
			<g>
				<g>
					<g>
						<path class="st6" d="M509.6,306.1v-2.5h3.1v-2.2h-4.2c-0.6,0-1.1,0.5-1.1,1.1v3.5H509.6z"/>
					</g>
				</g>
				<g>
					<g>
						<path class="st6" d="M509.6,310.4h-2.2v3.7c0,0.6,0.5,1.1,1.1,1.1h4.2v-2.2h-3.1V310.4z"/>
					</g>
				</g>
				<g>
					<g>
						<path class="st6" d="M519.1,306.1h2.2v-3.5c0-0.6-0.5-1.1-1.1-1.1h-4v2.2h2.9V306.1z"/>
					</g>
				</g>
				<g>
					<g>
						<path class="st6" d="M519.1,310.4v2.6h-2.9v2.2h4c0.6,0,1.1-0.5,1.1-1.1v-3.7H519.1z"/>
					</g>
				</g>
			</g>
			<g>
				<g>
					<polygon class="st6" points="229.6,308.3 229.6,301.4 235.6,304.9 241.5,308.3 235.6,311.8 229.6,315.2 					"/>
				</g>
			</g>
			<g>
				<g>
					<g>
						<path class="st6" d="M262.9,314.7h-2c-0.5,0-0.8-0.4-0.8-0.8V303c0-0.5,0.4-0.8,0.8-0.8h2c0.5,0,0.8,0.4,0.8,0.8v10.9
							C263.8,314.3,263.4,314.7,262.9,314.7z"/>
					</g>
				</g>
				<g>
					<g>
						<path class="st6" d="M270.7,314.7h-2c-0.5,0-0.8-0.4-0.8-0.8V303c0-0.5,0.4-0.8,0.8-0.8h2c0.5,0,0.8,0.4,0.8,0.8v10.9
							C271.5,314.3,271.1,314.7,270.7,314.7z"/>
					</g>
				</g>
			</g>
			<g>
				<g>
					<g>
						<rect x="210.3" y="291.9" class="st7" width="332" height="5.4"/>
					</g>
				</g>
				<g>
					<g>
						<rect x="210.3" y="291.9" class="st10" width="107" height="5.4"/>
					</g>
				</g>
			</g>
			<g>
				<g>
					<g>
						<path class="st4" d="M489.2,270.7h3.7v8.2h5v2.9h-8.8V270.7z"/>
					</g>
					<g>
						<path class="st4" d="M499,270.7h3.7v11.1H499V270.7z"/>
					</g>
					<g>
						<path class="st4" d="M516.4,270.7l-4.7,11.1H508l-4.7-11.1h4l2.7,6.5l2.7-6.5H516.4z"/>
					</g>
					<g>
						<path class="st4" d="M526,279v2.8h-9.2v-11.1h9v2.8h-5.3v1.3h4.7v2.7h-4.7v1.5H526z"/>
					</g>
				</g>
				<g>
					<path class="st10" d="M483,276.2c0,2.5-2,4.6-4.6,4.6c-2.5,0-4.6-2-4.6-4.6c0-2.5,2-4.6,4.6-4.6C481,271.6,483,273.7,483,276.2
						z"/>
				</g>
			</g>
			<g>
				<g>
					<g>
						<g>
							<path class="st8" d="M294.6,183.4c0,7-2.7,13.4-7,18.3c-5,5.5-12.2,9-20.2,9c-15.1,0-27.3-12.2-27.3-27.3
								c0-3.7,0.8-7.3,2.1-10.5l25.1,10.5l-1.3-27.2c0.4,0,0.9,0,1.3,0C282.4,156.2,294.6,168.4,294.6,183.4z"/>
						</g>
					</g>
					<g>
						<g>
							<path class="st13" d="M263.4,151.7c-8.1,0.4-15.3,4.3-20.1,10.3c-1.5,1.9-2.8,4.1-3.8,6.4l25.1,10.5L263.4,151.7z"/>
						</g>
					</g>
				</g>
				<g>
					<g>
						<path class="st14" d="M294.6,183.4c0,7-2.7,13.4-7,18.3l-20.2-18.3l-1.3-27.2c0.4,0,0.9,0,1.3,0
							C282.4,156.2,294.6,168.4,294.6,183.4z"/>
					</g>
				</g>
			</g>
		</g>
		<g>
			<defs>
				<rect id="SVGID_1_" x="298.8" y="51.2" width="171.7" height="240.4"/>
			</defs>
			<clipPath id="SVGID_2_">
				<use xlink:href="#SVGID_1_"  style="overflow:visible;"/>
			</clipPath>
			<g class="st15">
				<g>
					<g>
						<path class="st4" d="M396.4,79.5c-1.6-2.7-5.4-7.3-13.3-7.8c0,0-9.4-4.2-20.4,2.9c-11.2,7.3-7.3,25.3-11.2,38.7
							c-2.9,10.2-9.7,33.8-9.7,33.8s8.4,0.1,22.3-0.8c13.9-0.9,34.1,0.8,34.1,0.8s-4.6-19.8-3.4-29.2c1-7.7,1.6-13.4,3.1-23.8
							C398.9,88.3,399.3,84.2,396.4,79.5z"/>
					</g>
					<g>
						<path class="st4" d="M378.2,71.2c0,0-1.2-14-13.1-12.1c-13.7,2.2-10.5,18.3,0,21C376.4,83,378.2,71.2,378.2,71.2z"/>
					</g>
					<g>
						<path class="st16" d="M360.1,77c0.1,0,0.2-0.1,0.3-0.2c6.2-7.8,17-6.5,17.2-6.5c0.3,0,0.5-0.1,0.5-0.4c0-0.3-0.1-0.5-0.4-0.5
							c-0.1,0-2.9-0.4-6.5,0.3c-3.4,0.6-8.1,2.2-11.5,6.5c-0.2,0.2-0.1,0.5,0.1,0.7C359.9,77,360,77,360.1,77z"/>
					</g>
				</g>
				<g>
					<g>
						<path class="st17" d="M383.8,147.8c0.2,1,0.5,1.9,0.7,2.9c0.2,1,0.5,1.9,0.7,2.9c0.5,1.9,1,3.8,1.5,5.7c0.5,1.9,1,3.8,1.6,5.7
							c0.5,1.9,1.1,3.8,1.6,5.7c1.1,3.8,2.3,7.6,3.6,11.4c0.6,1.9,1.3,3.8,2,5.7c0.7,1.9,1.4,3.9,2.2,5.8l0.6,1.5
							c0.2,0.5,0.4,1,0.7,1.5c0.2,0.5,0.5,1.1,0.7,1.6c0.2,0.5,0.5,1.1,0.8,1.7l0.2,0.4l0.3,0.5l0.5,0.9c0.2,0.3,0.4,0.6,0.6,0.9
							c0.2,0.3,0.4,0.6,0.6,0.9c0.4,0.5,0.8,1.1,1.1,1.6l0.6,0.8c0.2,0.2,0.4,0.5,0.6,0.7c1.5,1.9,3,3.5,4.5,5.1
							c1.5,1.6,3,3,4.6,4.4c3.1,2.8,6.2,5.4,9.4,7.9c1.6,1.3,3.2,2.5,4.8,3.7c0.8,0.6,1.6,1.2,2.5,1.8c0.4,0.3,0.8,0.6,1.2,0.9
							l1.3,0.9c4.3,2.9,10.1,1.8,13-2.5c2.6-3.8,2-8.8-1.1-11.9l-0.2-0.2l-4-3.9c-1.3-1.3-2.7-2.7-4-4c-2.6-2.7-5.2-5.3-7.7-8
							c-1.2-1.3-2.4-2.7-3.5-4c-1.1-1.3-2.2-2.6-3-3.8c-0.1-0.1-0.2-0.3-0.3-0.4l-0.3-0.4c-0.2-0.3-0.3-0.5-0.5-0.8
							c-0.1-0.1-0.1-0.2-0.2-0.3c-0.1-0.1-0.1-0.2-0.2-0.3l-0.2-0.3l-0.1-0.2l-0.1-0.2c-0.1-0.3-0.3-0.6-0.4-1
							c-0.1-0.4-0.3-0.7-0.4-1.1c-0.1-0.4-0.3-0.8-0.5-1.2l-0.5-1.2c-1.2-3.3-2.4-6.9-3.5-10.4c-1.1-3.6-2.2-7.2-3.3-10.9l-6.5-22
							c-1.8-6-8.1-9.4-14-7.7C385.9,136.1,382.6,142,383.8,147.8L383.8,147.8z"/>
					</g>
					<g>
						<g>
							<polygon class="st6" points="433.4,178.5 429.7,178.7 432,180.5 							"/>
						</g>
						<g>
							<path class="st14" d="M431.5,180.3l-29.6,39.5c-0.9,1.2-0.6,2.9,0.5,3.7l27.1,20.4c1.2,0.9,2.9,0.6,3.7-0.5l29.7-39.5
								c0.9-1.2,0.6-2.9-0.5-3.7l-27.1-20.4C434.1,178.9,432.4,179.1,431.5,180.3z"/>
						</g>
						<g>
							<path class="st18" d="M458.5,197.3L425.7,241l4.1,3.1c1,0.8,2.4,0.6,3.2-0.5l30.1-40.1c0.8-1,0.6-2.4-0.5-3.2L458.5,197.3z"
								/>
						</g>
						<g>
							<g>
								<g>
									<g>
										<path class="st19" d="M451.6,218.9l1.4-2c0,0,1.9,5-1,7.8c-2.8,2.8-5.8,6.8-7.3,8.6c-1.5,1.8-3.8,6.3-5.7,6.7
											c-1.9,0.4-3.4-0.6-5.5-2.8c-2.1-2.2-0.9-3.6,0.9-3.4c2,0.2,4.5,1.2,4.5,1.2s-0.7-0.8-3.6-3.2c-3.1-2.6-1.1-4.1,0.9-3.7
											c2.8,0.6,7,2.4,7,2.4s-3.3-2.6-5.5-4.3c-2.2-1.7,0.5-3.8,4.4-1.7c3.9,2.1,4.1,1.5,4.1,1.5s-0.7-1.1-3.4-3
											c-2.7-1.9-3.3-4.4-1.1-4.3c2.1,0.1,7.3,3.4,7.3,3.4l1.1-1.5C450.8,219.9,451,219.6,451.6,218.9z"/>
									</g>
								</g>
							</g>
						</g>
						<g>
							
								<rect x="431.6" y="195.6" transform="matrix(-0.7996 -0.6005 0.6005 -0.7996 670.5731 621.0127)" class="st18" width="14.5" height="6"/>
						</g>
					</g>
				</g>
				<g>
					<g>
						<g>
							<g>
								<g>
									<g>
										<path class="st19" d="M379.6,257.6c0.6,9.7,1.9,18,3.5,25.5c0.5,2.2,1,4.3,1.5,6.4c0.1,0.5,0.2,0.9,0.4,1.4v0
											c1.1,3.9,2.2,7.6,3.4,11.3c0.2,0.6,0.4,1.2,0.6,1.8c1.4,4.1,2.9,8.1,4.4,12.3c2.5,6.8,5.1,14,7.6,22.2
											c0,0-1.7,19.5,1.2,40.4h27.3l-4.5-41.8l-0.2-2.3l-0.4-3.6l-1.1-20.5l-0.5-8.5l-0.4-6.8l-0.5-10.1l-0.9-16.3l-41.7-16.4
											c0.1,1.6,0.1,3.1,0.2,4.6C379.6,257.3,379.6,257.4,379.6,257.6z"/>
									</g>
								</g>
							</g>
						</g>
						<g>
							<g>
								<path class="st20" d="M388.4,302.1c0.2,0.6,0.4,1.2,0.6,1.8c1.4,4.1,2.9,8.1,4.4,12.3c12.2-1.6,23.1-3.9,29.9-5.5l-0.5-8.5
									H388.4z"/>
							</g>
						</g>
						<g>
							<g>
								<g>
									<g>
										<path class="st20" d="M425.1,337c-3.7,1.7-8.6,1.8-9.7,1.8h-0.2c-0.6,0-1.1-0.5-1.1-1.1c0-0.6,0.5-1.1,1.1-1.1h0
											c2,0,6.7-0.3,9.6-1.9L425.1,337z"/>
									</g>
								</g>
							</g>
						</g>
					</g>
					<g>
						<g>
							<g>
								<g>
									<g>
										<path class="st19" d="M346.9,302.1c0,0.6,0,1.2,0,1.8c0.1,4,0.2,8.1,0.3,12.5c0.2,5.7,0.3,11.8,0.6,18.2
											c0,0.8,0.1,1.6,0.1,2.5c0.1,1.8,0.1,3.6,0.2,5.4l0.7,36.3h24.3c0.1-0.7,0.2-1.4,0.4-2.1c4.6-26.1-1.3-38.6-1.3-38.6
											c2.1-5.6,4.1-12.7,5.8-20.4c0.9-4.2,1.8-8.6,2.5-13c0.1-0.9,0.3-1.7,0.4-2.6c0.6-3.8,1.1-7.6,1.5-11.3v0
											c0.1-0.5,0.1-0.9,0.1-1.4c0.2-2.1,0.4-4.3,0.5-6.3c0.7-9.9,0.4-18.8-1.2-25l-2.3-0.5l-2.6-0.5l-30.9-6.2
											c0,0,0,14.7,0.6,40.5C346.7,294.7,346.8,298.3,346.9,302.1z"/>
									</g>
								</g>
							</g>
						</g>
						<g>
							<g>
								<path class="st20" d="M346.9,302.1c0,0.6,0,1.2,0,1.8c0.1,4,0.2,8.1,0.3,12.5c9.1,1.9,19.9,2,30.7,1.3
									c0.9-4.2,1.8-8.6,2.5-13c0.1-0.9,0.3-1.7,0.4-2.6H346.9z"/>
							</g>
						</g>
						<g>
							<g>
								<g>
									<g>
										<path class="st20" d="M358.8,337.7c0,0.6-0.5,1.1-1.1,1.1h-0.2c-1.1,0-5.9-0.1-9.6-1.7c0-0.8-0.1-1.6-0.1-2.5
											c2.9,1.7,7.8,2.1,9.8,2h0C358.3,336.6,358.8,337.1,358.8,337.7z"/>
									</g>
								</g>
							</g>
						</g>
					</g>
					<g>
						<g>
							<g>
								<g>
									<path class="st4" d="M338.9,307.5c0,0,68.4,12.7,97.3-8.9c0,0-0.8-2.3-1.8-5.3c-0.2-0.5-0.4-1.1-0.6-1.6
										c-0.1-0.4-0.3-0.8-0.4-1.2c-0.5-1.5-1-3-1.5-4.3c-0.5-1.5-0.9-2.7-1.2-3.5c-0.1-0.4-0.3-0.9-0.4-1.3
										c-2.5-8.2-6.7-21.9-9.8-32.4v0c-0.3-0.9-0.5-1.8-0.8-2.7c-0.1-0.2-0.1-0.5-0.2-0.7c-0.6-1.9-1.1-3.9-1.7-6
										c-0.4-1.5-0.8-2.9-1.2-4.4c-0.3-1.1-0.6-2.3-0.9-3.5c-0.1-0.5-0.3-1.1-0.4-1.6c-1.7-6.5-3.2-12.9-4.4-18
										c-0.1-0.5-0.2-0.9-0.3-1.3c-1.3-5.4-2.1-9-2.1-9c-27.5,6.8-57.6,5.8-57.6,5.8s-1.1,3.9-2.5,10.4c-0.1,0.4-0.2,0.9-0.3,1.3
										c-1.3,6.1-2.8,14.1-3.9,23.1c0,0.3-0.1,0.6-0.1,0.9c0,0.2,0,0.4-0.1,0.6c-0.1,0.9-0.2,1.7-0.3,2.6
										c-0.2,1.9-0.4,3.9-0.6,5.9v0c-0.1,1.3-0.2,2.8-0.3,4.3c-0.2,2.1-0.4,4.3-0.5,6.7c-0.1,1.1-0.2,2.2-0.3,3.2
										c-0.6,6.9-1.2,14.2-1.6,19.7c0,0.5-0.1,0.9-0.1,1.4c-0.2,2.4-0.6,7.8-0.8,12.3c0,0.6-0.1,1.2-0.1,1.7
										C339.1,305,338.9,307.5,338.9,307.5z"/>
								</g>
							</g>
						</g>
						<g>
							<g>
								<g>
									<g>
										<path class="st5" d="M402.7,217c0.2-0.2,0.4-0.3,0.6-0.4c0.8,1.3,1.6,2.6,2.3,3.9c-0.9,0.7-2.1,0.6-3-0.2
											C401.8,219.3,401.8,217.9,402.7,217z"/>
									</g>
								</g>
								<g>
									<g>
										<circle class="st5" cx="394.8" cy="220.5" r="2.3"/>
									</g>
								</g>
								<g>
									<g>
										<path class="st5" d="M383.3,223.6c0.9,0.9,2.3,0.9,3.2,0c0.9-0.9,0.9-2.3,0-3.2c-0.9-0.9-2.3-0.9-3.2,0
											C382.5,221.3,382.5,222.7,383.3,223.6z"/>
									</g>
								</g>
								<g>
									<g>
										<path class="st5" d="M373.3,224.6c0.9,0.9,2.3,0.9,3.2,0c0.9-0.9,0.9-2.3,0-3.2c-0.9-0.9-2.3-0.9-3.2,0
											C372.4,222.3,372.4,223.8,373.3,224.6z"/>
									</g>
								</g>
								<g>
									<g>
										<path class="st5" d="M366.5,222.2c0.7,0.9,0.6,2.2-0.2,3c-0.2,0.2-0.5,0.4-0.8,0.5C366,224.6,366.4,223.4,366.5,222.2z"/>
									</g>
								</g>
							</g>
							<g>
								<g>
									<g>
										<path class="st5" d="M404,230.9c0.9,0.9,2.4,0.9,3.3,0c0.9-0.9,0.9-2.4,0-3.3c-0.9-0.9-2.4-0.9-3.3,0
											C403.1,228.5,403.1,230,404,230.9z"/>
									</g>
								</g>
								<g>
									<g>
										<path class="st5" d="M394.3,232.8c0.9,0.9,2.4,0.9,3.3,0c0.9-0.9,0.9-2.4,0-3.3c-0.9-0.9-2.4-0.9-3.3,0
											C393.4,230.4,393.4,231.9,394.3,232.8z"/>
									</g>
								</g>
								<g>
									<g>
										<path class="st5" d="M384.2,234.3c0.9,0.9,2.4,0.9,3.3,0c0.9-0.9,0.9-2.4,0-3.3c-0.9-0.9-2.4-0.9-3.3,0
											C383.3,231.9,383.3,233.4,384.2,234.3z"/>
									</g>
								</g>
								<g>
									<g>
										<path class="st5" d="M373.9,235.3c0.9,0.9,2.4,0.9,3.3,0c0.9-0.9,0.9-2.4,0-3.3c-0.9-0.9-2.4-0.9-3.3,0
											C373,232.9,373,234.4,373.9,235.3z"/>
									</g>
								</g>
								<g>
									<g>
										<path class="st5" d="M363.5,235.9c0.9,0.9,2.4,0.9,3.3,0c0.9-0.9,0.9-2.4,0-3.3c-0.9-0.9-2.4-0.9-3.3,0
											C362.6,233.5,362.5,234.9,363.5,235.9z"/>
									</g>
								</g>
							</g>
							<g>
								<g>
									<g>
										<path class="st5" d="M414.9,239.3c0.8,0.8,2,0.9,2.9,0.4c-0.4-1.5-0.8-2.9-1.2-4.4c-0.6,0-1.2,0.2-1.7,0.7
											C414,236.8,414,238.3,414.9,239.3z"/>
									</g>
								</g>
								<g>
									<g>
										<path class="st5" d="M405.4,241.6c0.9,0.9,2.4,1,3.4,0c0.9-0.9,1-2.4,0-3.4c-0.9-0.9-2.4-1-3.4,0
											C404.4,239.2,404.4,240.7,405.4,241.6z"/>
									</g>
								</g>
								<g>
									<g>
										<path class="st5" d="M395.4,243.6c0.9,0.9,2.4,1,3.4,0c0.9-0.9,1-2.4,0-3.4c-0.9-0.9-2.4-1-3.4,0
											C394.5,241.1,394.4,242.6,395.4,243.6z"/>
									</g>
								</g>
								<g>
									<g>
										<path class="st5" d="M385,245c0.9,0.9,2.4,1,3.4,0c0.9-0.9,1-2.4,0-3.4c-0.9-0.9-2.4-1-3.4,0
											C384.1,242.6,384.1,244.1,385,245z"/>
									</g>
								</g>
								<g>
									<g>
										<path class="st5" d="M374.5,246c0.9,0.9,2.4,1,3.4,0c0.9-0.9,1-2.4,0-3.4c-0.9-0.9-2.4-1-3.4,0
											C373.6,243.6,373.5,245.1,374.5,246z"/>
									</g>
								</g>
								<g>
									<g>
										<path class="st5" d="M363.8,246.5c0.9,0.9,2.4,1,3.4,0c0.9-0.9,1-2.4,0-3.4c-0.9-0.9-2.4-1-3.4,0
											C362.9,244,362.9,245.6,363.8,246.5z"/>
									</g>
								</g>
								<g>
									<g>
										<path class="st5" d="M353.1,246.5c0.9,0.9,2.4,1,3.4,0c0.9-0.9,1-2.4,0-3.4c-0.9-0.9-2.4-1-3.4,0
											C352.2,244,352.2,245.5,353.1,246.5z"/>
									</g>
								</g>
								<g>
									<g>
										<path class="st5" d="M343.7,246.6c0.8,0.2,1.6,0,2.2-0.6c0.9-0.9,0.9-2.2,0.2-3.2c-0.7,0.2-1.4,0.4-2.1,0.6
											c0,0.2,0,0.4-0.1,0.6C343.9,244.8,343.8,245.7,343.7,246.6z"/>
									</g>
								</g>
							</g>
							<g>
								<g>
									<g>
										<path class="st5" d="M416.5,250c0.9,1,2.5,1,3.5,0c0.3-0.3,0.5-0.6,0.6-1v0c-0.3-0.9-0.5-1.8-0.8-2.7
											c-0.9-0.8-2.3-0.7-3.2,0.2C415.5,247.4,415.5,249,416.5,250z"/>
									</g>
								</g>
								<g>
									<g>
										<path class="st5" d="M406.7,252.3c0.9,1,2.5,1,3.5,0c1-0.9,1-2.5,0-3.5c-0.9-1-2.5-1-3.5,0
											C405.8,249.8,405.8,251.4,406.7,252.3z"/>
									</g>
								</g>
								<g>
									<g>
										<path class="st5" d="M396.5,254.3c0.9,1,2.5,1,3.5,0c1-0.9,1-2.5,0-3.5c-0.9-1-2.5-1-3.5,0
											C395.5,251.7,395.5,253.3,396.5,254.3z"/>
									</g>
								</g>
								<g>
									<g>
										<path class="st5" d="M385.9,255.7c0.9,1,2.5,1,3.5,0c1-0.9,1-2.5,0-3.5c-0.9-1-2.5-1-3.5,0
											C385,253.2,384.9,254.7,385.9,255.7z"/>
									</g>
								</g>
								<g>
									<g>
										<path class="st5" d="M375.1,256.7c0.9,1,2.5,1,3.5,0c1-0.9,1-2.5,0-3.5c-0.9-1-2.5-1-3.5,0
											C374.1,254.2,374.1,255.7,375.1,256.7z"/>
									</g>
								</g>
								<g>
									<g>
										<path class="st5" d="M364.1,257.1c0.9,1,2.5,1,3.5,0c1-0.9,1-2.5,0-3.5c-0.9-1-2.5-1-3.5,0
											C363.2,254.6,363.2,256.2,364.1,257.1z"/>
									</g>
								</g>
								<g>
									<g>
										<path class="st5" d="M353.2,257.1c0.9,1,2.5,1,3.5,0c1-0.9,1-2.5,0-3.5c-0.9-1-2.5-1-3.5,0
											C352.3,254.5,352.2,256.1,353.2,257.1z"/>
									</g>
								</g>
								<g>
									<g>
										<path class="st5" d="M342.8,256.8c0.9,0.6,2.2,0.5,3-0.3c1-0.9,1-2.5,0-3.5c-0.7-0.7-1.8-0.9-2.7-0.5
											C343,253.8,342.9,255.3,342.8,256.8z"/>
									</g>
								</g>
							</g>
							<g>
								<g>
									<g>
										<path class="st5" d="M418,260.6c1,1,2.5,1,3.5,0.1c1-1,1-2.5,0.1-3.5c-1-1-2.5-1-3.5-0.1
											C417.1,258.1,417.1,259.6,418,260.6z"/>
									</g>
								</g>
								<g>
									<g>
										<path class="st5" d="M408,263c1,1,2.5,1,3.5,0.1c1-1,1-2.5,0.1-3.5c-1-1-2.5-1-3.5-0.1C407.1,260.4,407.1,262,408,263z"/>
									</g>
								</g>
								<g>
									<g>
										<path class="st5" d="M397.6,265c1,1,2.5,1,3.5,0.1c1-1,1-2.5,0.1-3.5c-1-1-2.5-1-3.5-0.1C396.6,262.4,396.6,264,397.6,265
											z"/>
									</g>
								</g>
								<g>
									<g>
										<path class="st5" d="M386.7,266.4c1,1,2.5,1,3.5,0.1c1-1,1-2.5,0.1-3.5c-1-1-2.5-1-3.5-0.1
											C385.8,263.8,385.8,265.4,386.7,266.4z"/>
									</g>
								</g>
								<g>
									<g>
										<path class="st5" d="M375.7,267.3c1,1,2.5,1,3.5,0.1c1-1,1-2.5,0.1-3.5c-1-1-2.5-1-3.5-0.1
											C374.7,264.8,374.7,266.3,375.7,267.3z"/>
									</g>
								</g>
								<g>
									<g>
										<path class="st5" d="M364.5,267.8c1,1,2.5,1,3.5,0.1c1-1,1-2.5,0.1-3.5c-1-1-2.5-1-3.5-0.1S363.5,266.8,364.5,267.8z"/>
									</g>
								</g>
								<g>
									<g>
										<path class="st5" d="M353.3,267.6c1,1,2.5,1,3.5,0.1c1-1,1-2.5,0.1-3.5c-1-1-2.5-1-3.5-0.1
											C352.3,265.1,352.3,266.6,353.3,267.6z"/>
									</g>
								</g>
								<g>
									<g>
										<path class="st5" d="M342,266.7c0.1,0.1,0.1,0.2,0.2,0.3c1,1,2.5,1,3.5,0.1c1-1,1-2.5,0.1-3.5c-1-1-2.5-1-3.5-0.1
											c0,0,0,0,0,0C342.2,264.5,342.1,265.6,342,266.7z"/>
									</g>
								</g>
							</g>
							<g>
								<g>
									<g>
										<path class="st5" d="M419.6,271.3c1,1,2.6,1.1,3.6,0.1c1-1,1.1-2.6,0.1-3.6c-1-1-2.6-1.1-3.6-0.1
											C418.7,268.7,418.6,270.3,419.6,271.3z"/>
									</g>
								</g>
								<g>
									<g>
										<path class="st5" d="M409.4,273.7c1,1,2.6,1.1,3.6,0.1c1-1,1.1-2.6,0.1-3.6c-1-1-2.6-1.1-3.6-0.1
											C408.4,271.1,408.4,272.7,409.4,273.7z"/>
									</g>
								</g>
								<g>
									<g>
										<path class="st5" d="M398.7,275.6c1,1,2.6,1.1,3.6,0.1s1.1-2.6,0.1-3.6c-1-1-2.6-1.1-3.6-0.1
											C397.7,273,397.7,274.6,398.7,275.6z"/>
									</g>
								</g>
								<g>
									<g>
										<path class="st5" d="M387.6,277.1c1,1,2.6,1.1,3.6,0.1c1-1,1.1-2.6,0.1-3.6c-1-1-2.6-1.1-3.6-0.1S386.6,276.1,387.6,277.1
											z"/>
									</g>
								</g>
								<g>
									<g>
										<path class="st5" d="M376.2,278c1,1,2.6,1.1,3.6,0.1c1-1,1.1-2.6,0.1-3.6c-1-1-2.6-1.1-3.6-0.1
											C375.3,275.4,375.3,277,376.2,278z"/>
									</g>
								</g>
								<g>
									<g>
										<path class="st5" d="M364.8,278.4c1,1,2.6,1.1,3.6,0.1c1-1,1.1-2.6,0.1-3.6c-1-1-2.6-1.1-3.6-0.1
											C363.9,275.7,363.8,277.4,364.8,278.4z"/>
									</g>
								</g>
								<g>
									<g>
										<path class="st5" d="M353.4,278.2c1,1,2.6,1.1,3.6,0.1c1-1,1.1-2.6,0.1-3.6c-1-1-2.6-1.1-3.6-0.1
											C352.4,275.6,352.4,277.2,353.4,278.2z"/>
									</g>
								</g>
								<g>
									<g>
										<path class="st5" d="M342,277.5c1,1,2.6,1.1,3.6,0.1c1-1,1.1-2.6,0.1-3.6c-1-1-2.6-1.1-3.6-0.1
											C341.1,274.8,341.1,276.5,342,277.5z"/>
									</g>
								</g>
							</g>
							<g>
								<g>
									<g>
										<path class="st5" d="M421.2,282c1,1,2.7,1.1,3.7,0.1c1-1,1.1-2.7,0.1-3.7c-1-1-2.7-1.1-3.7-0.1
											C420.2,279.3,420.2,281,421.2,282z"/>
									</g>
								</g>
								<g>
									<g>
										<path class="st5" d="M410.7,284.4c1,1,2.7,1.1,3.7,0.1c1-1,1.1-2.7,0.1-3.7c-1-1-2.7-1.1-3.7-0.1
											C409.8,281.7,409.7,283.4,410.7,284.4z"/>
									</g>
								</g>
								<g>
									<g>
										<path class="st5" d="M399.8,286.3c1,1,2.7,1.1,3.7,0.1c1-1,1.1-2.7,0.1-3.7c-1-1-2.7-1.1-3.7-0.1
											C398.8,283.6,398.8,285.3,399.8,286.3z"/>
									</g>
								</g>
								<g>
									<g>
										<path class="st5" d="M388.4,287.8c1,1,2.7,1.1,3.7,0.1c1-1,1.1-2.7,0.1-3.7c-1-1-2.7-1.1-3.7-0.1
											C387.5,285.1,387.4,286.7,388.4,287.8z"/>
									</g>
								</g>
								<g>
									<g>
										<path class="st5" d="M376.8,288.7c1,1,2.7,1.1,3.7,0.1c1-1,1.1-2.7,0.1-3.7c-1-1-2.7-1.1-3.7-0.1
											C375.9,286,375.8,287.6,376.8,288.7z"/>
									</g>
								</g>
								<g>
									<g>
										<path class="st5" d="M365.1,289c1,1,2.7,1.1,3.7,0.1c1-1,1.1-2.7,0.1-3.7c-1-1-2.7-1.1-3.7-0.1
											C364.2,286.3,364.1,288,365.1,289z"/>
									</g>
								</g>
								<g>
									<g>
										<path class="st5" d="M353.4,288.8c1,1,2.7,1.1,3.7,0.1c1-1,1.1-2.7,0.1-3.7c-1-1-2.7-1.1-3.7-0.1
											C352.5,286.1,352.4,287.8,353.4,288.8z"/>
									</g>
								</g>
								<g>
									<g>
										<path class="st5" d="M341.9,288c1,1,2.7,1.1,3.7,0.1c1-1,1.1-2.7,0.1-3.7c-1-1-2.7-1.1-3.7-0.1
											C340.9,285.3,340.9,287,341.9,288z"/>
									</g>
								</g>
							</g>
							<g>
								<g>
									<g>
										<path class="st5" d="M432,289.7c0.4,0.4,0.8,0.7,1.3,0.8c-0.5-1.5-1-3-1.5-4.3C431.1,287.2,431.1,288.8,432,289.7z"/>
									</g>
								</g>
								<g>
									<g>
										<path class="st5" d="M422.8,292.7c1,1.1,2.7,1.1,3.8,0.1c1.1-1,1.1-2.7,0.1-3.8c-1-1.1-2.7-1.1-3.8-0.1
											C421.8,289.9,421.7,291.6,422.8,292.7z"/>
									</g>
								</g>
								<g>
									<g>
										<path class="st5" d="M412.1,295.1c1,1.1,2.7,1.1,3.8,0.1c1.1-1,1.1-2.7,0.1-3.8c-1-1.1-2.7-1.1-3.8-0.1
											C411.1,292.4,411,294.1,412.1,295.1z"/>
									</g>
								</g>
								<g>
									<g>
										<path class="st5" d="M400.8,297.1c1,1.1,2.7,1.1,3.8,0.1c1.1-1,1.1-2.7,0.1-3.8c-1-1.1-2.7-1.1-3.8-0.1
											C399.9,294.3,399.8,296,400.8,297.1z"/>
									</g>
								</g>
								<g>
									<g>
										<path class="st5" d="M389.3,298.5c1,1.1,2.7,1.1,3.8,0.1c1.1-1,1.1-2.7,0.1-3.8c-1-1.1-2.7-1.1-3.8-0.1
											C388.3,295.7,388.2,297.4,389.3,298.5z"/>
									</g>
								</g>
								<g>
									<g>
										<path class="st5" d="M377.4,299.3c1,1.1,2.7,1.1,3.8,0.1c1.1-1,1.1-2.7,0.1-3.8c-1-1.1-2.7-1.1-3.8-0.1
											C376.5,296.6,376.4,298.3,377.4,299.3z"/>
									</g>
								</g>
								<g>
									<g>
										<path class="st5" d="M365.5,299.6c1,1.1,2.7,1.1,3.8,0.1c1.1-1,1.1-2.7,0.1-3.8c-1-1.1-2.7-1.1-3.8-0.1
											C364.5,296.9,364.5,298.6,365.5,299.6z"/>
									</g>
								</g>
								<g>
									<g>
										<path class="st5" d="M353.5,299.4c1,1.1,2.7,1.1,3.8,0.1c1.1-1,1.1-2.7,0.1-3.8c-1-1.1-2.7-1.1-3.8-0.1
											C352.6,296.6,352.5,298.3,353.5,299.4z"/>
									</g>
								</g>
								<g>
									<g>
										<path class="st5" d="M341.7,298.5c1,1.1,2.7,1.1,3.8,0.1c1.1-1,1.1-2.7,0.1-3.8c-1-1.1-2.7-1.1-3.8-0.1
											C340.8,295.8,340.7,297.5,341.7,298.5z"/>
									</g>
								</g>
							</g>
						</g>
						<g>
							<g>
								<g>
									<g>
										<path class="st5" d="M339.3,301.8c7.5,1.1,16.5,2,26.3,2.4c5,0.2,9.9,0.2,14.6,0.1c10.2-0.3,19.7-1.3,28.5-3
											c9.4-1.8,18-4.5,25.7-8c-0.2-0.5-0.4-1.1-0.6-1.6c-22.1,10.1-48.3,11.6-68.1,10.8c-9.8-0.4-18.8-1.4-26.3-2.4
											C339.3,300.6,339.3,301.2,339.3,301.8z"/>
									</g>
								</g>
							</g>
						</g>
						<g>
							<g>
								<g>
									<g>
										<g>
											<path class="st5" d="M367.8,218.7c0,0.4-0.1,0.9-0.1,1.4c-0.3,3.2-1.2,6.8-3.2,10.3c-3.8,6.7-10.7,11.2-20.5,13.6
												c0.1-0.5,0.1-1,0.2-1.4c9.1-2.3,15.6-6.6,19.2-12.8c1.8-3.2,2.7-6.5,3-9.6c0-0.5,0.1-0.9,0.1-1.4c0.3-5.5-1-9.8-1-9.8
												c-0.1-0.4,0.1-0.7,0.4-0.8c0.4-0.1,0.7,0.1,0.9,0.4C366.8,208.8,368.2,213.1,367.8,218.7z"/>
										</g>
									</g>
								</g>
							</g>
							<g>
								<g>
									<g>
										<g>
											<path class="st5" d="M410.8,212.2c-2.4,1.1-4.9,2.1-7.5,2.9c-0.4,0.1-0.9,0.3-1.3,0.4c-10.5,3.1-22.1,4.2-31.5,4.5
												c-0.9,0-1.9,0-2.8,0.1c-0.5,0-0.9,0-1.4,0c-0.3,0-0.7,0-1,0c-6.9,0-13-0.4-17.3-0.7c0.1-0.5,0.2-0.9,0.3-1.3
												c4.5,0.4,10.9,0.7,18.1,0.7c0.5,0,0.9,0,1.4,0c0.9,0,1.8,0,2.6-0.1c9.3-0.3,20.8-1.3,31.1-4.4h0c0.4-0.1,0.9-0.3,1.3-0.4
												c2.7-0.9,5.2-1.8,7.7-3C410.6,211.3,410.7,211.8,410.8,212.2z"/>
										</g>
									</g>
								</g>
							</g>
							<g>
								<g>
									<g>
										<g>
											<path class="st5" d="M415.7,231.8c-4.5-1.5-8.3-5.2-11.3-10.9c-1-1.8-1.7-3.6-2.3-5.3c-0.2-0.4-0.3-0.9-0.4-1.3h0
												c-1-3-1.4-5.3-1.5-5.4c-0.1-0.4,0.2-0.7,0.5-0.8c0.4-0.1,0.7,0.2,0.8,0.5c0,0,0.4,2.2,1.4,5.3c0.1,0.4,0.3,0.8,0.5,1.3
												c0.6,1.6,1.3,3.3,2.3,5.1c2.7,5.1,5.9,8.4,9.7,9.9C415.4,230.7,415.5,231.2,415.7,231.8z"/>
										</g>
									</g>
								</g>
							</g>
						</g>
					</g>
				</g>
				<g>
					<g>
						<g>
							<g>
								<path class="st17" d="M412.5,175c0,0.1,0,0.1-0.1,0.2c-0.2,0.7-0.4,1.3-0.7,1.9c-1.6,3.8-4.4,7-5.5,8.2
									c-0.3,0.3-0.5,0.5-0.5,0.5c0,0,0,0,0,0.1c0,0.2,0,0.4,0.1,0.6c0.1,0.8,0.2,1.8,0.4,2.9c2.7,12.5,2.5,13,3.6,18.3
									c-30.7,9.6-59.9,4.6-59.9,4.6c0.9-16.8,1.9-10.1,0.1-22.4c-0.9-5.9-3.3-14.7-6.4-23.6c-0.1-0.3-0.2-0.7-0.4-1
									c-1-2.6-2-5.2-3-7.7c-4.7-10.9-5.4-23.1,5.8-26.8c2.7-0.9,5.8-1.6,8.7-2.3c0.8-0.2,1.6-0.3,2.3-0.5c4.1-0.8,7.4-1.2,7.4-1.2
									l19.8,0.2c1.9,0.2,3.7,0.5,5.3,0.8c1.4,0.2,2.6,0.5,3.8,0.9c10.1,2.8,10.4,8.1,12.3,17.7c0.5,2.7,1.3,5.4,2.1,8
									c0.3,0.8,0.5,1.6,0.8,2.4C410.8,164.4,413.6,170.9,412.5,175z"/>
							</g>
							<g>
								<g>
									<path class="st21" d="M407.4,183.9c0.2,0,0.4-0.1,0.5-0.2c7.4-9.4,4.8-15.3,2.9-19.5c-0.4-0.8-0.7-1.6-0.9-2.3
										c-1.7-4.9-5.5-19.5-5.6-19.6c-0.1-0.3-0.4-0.5-0.8-0.5c-0.3,0.1-0.5,0.4-0.5,0.8c0,0.1,3.9,14.8,5.6,19.7
										c0.3,0.8,0.6,1.5,1,2.4c1.9,4.2,4.2,9.4-2.7,18.2c-0.2,0.3-0.2,0.7,0.1,0.9C407.1,183.8,407.2,183.9,407.4,183.9z"/>
								</g>
							</g>
							<g>
								<path class="st21" d="M408.6,201.9l1.2,5.8c0,0-30.4,10.4-60.8,4.7l1-5.4C350,207,374.2,211.8,408.6,201.9z"/>
							</g>
						</g>
					</g>
					<g>
						<g>
							<path class="st19" d="M384.1,128.9l1.9,17.5c-7.2-1.4-22.1-11.3-22.2-19.1L384.1,128.9z"/>
						</g>
					</g>
					<g>
						<g>
							<g>
								<path class="st21" d="M405.7,185.8C405.7,185.8,405.7,185.8,405.7,185.8c0,0.3,0.1,0.5,0.1,0.7c-3.6,0.8-8.3,0.9-13.7-0.1
									c-10.8-2.1-19.6,2.9-19.7,2.9c-0.1,0.1-0.2,0.1-0.3,0.1c-0.2,0-0.4-0.1-0.5-0.3c-0.2-0.3-0.1-0.6,0.2-0.7
									c0.4-0.2,9.2-5.2,20.4-3c5.7,1.1,10.4,0.9,13.9,0C405.9,185.6,405.7,185.8,405.7,185.8z"/>
							</g>
						</g>
					</g>
					<g>
						<g>
							<g>
								<path class="st21" d="M388.9,158.1c-6.6,0-20.1-9.5-20.6-9.9c-0.2-0.2-0.3-0.5-0.1-0.8c0.2-0.2,0.5-0.3,0.8-0.1
									c0.1,0.1,13.8,9.7,20,9.7c6,0,7.3-6.5,7.3-6.6c0.1-0.3,0.3-0.5,0.6-0.4c0.3,0.1,0.5,0.3,0.4,0.6
									C397.3,150.7,395.8,158.1,388.9,158.1z"/>
							</g>
						</g>
					</g>
				</g>
				<g>
					<g>
						<path class="st17" d="M354.9,149l-0.9,1.4l-1,1.5c-0.7,1-1.3,2-1.9,3c-1.3,2-2.6,4.1-3.8,6.1c-1.3,2-2.5,4.1-3.7,6.2
							c-1.2,2.1-2.4,4.1-3.6,6.2c-1.2,2.1-2.3,4.2-3.4,6.3c-1.1,2.1-2.2,4.2-3.2,6.3c-1,2.1-2,4.2-3,6.3c-0.9,2.1-1.8,4.2-2.6,6.3
							l0.5-4.6c0.2,2.5,0.8,5.1,1.6,7.8c0.8,2.6,1.9,5.3,3.2,7.8c0.7,1.3,1.4,2.6,2.1,3.8c0.8,1.3,1.6,2.5,2.4,3.7
							c1.7,2.4,3.6,4.8,5.5,7l0.1,0.1c3.3,3.7,3,9.3-0.6,12.7c-3.5,3.1-8.7,3-12.1-0.1c-2.8-2.6-5.4-5.4-7.8-8.3
							c-1.2-1.5-2.4-3-3.5-4.6c-1.1-1.6-2.1-3.2-3.1-4.9c-2-3.3-3.7-6.9-5.2-10.6c-1.4-3.8-2.5-7.7-3.1-11.9
							c-0.2-1.4-0.1-2.8,0.3-4.1l0.2-0.5c0.8-2.6,1.7-5.1,2.7-7.6c1-2.5,2-4.9,3-7.3c1.1-2.4,2.1-4.8,3.3-7.1
							c1.1-2.3,2.3-4.6,3.5-6.9c2.4-4.6,4.9-9.1,7.4-13.5c1.3-2.2,2.6-4.4,4-6.6c0.7-1.1,1.4-2.2,2.1-3.3c0.3-0.5,0.7-1.1,1.1-1.6
							l1.1-1.7c3.5-5.2,10.5-6.6,15.7-3.1c5.2,3.5,6.6,10.4,3.2,15.6L354.9,149z"/>
					</g>
					<g>
						<g>
							<g>
								<path class="st21" d="M324.9,230.6c0.2,0,0.4-0.1,0.5-0.4c3.6-9.7,12.7-10.6,12.8-10.6c0.3,0,0.5-0.3,0.5-0.6
									c0-0.3-0.3-0.5-0.6-0.5c-0.1,0-9.9,0.9-13.8,11.3c-0.1,0.3,0,0.6,0.3,0.7C324.7,230.6,324.8,230.6,324.9,230.6z"/>
							</g>
						</g>
						<g>
							<path class="st21" d="M329,230c0,0.5-0.3,1-0.9,1c-0.5,0-1-0.3-1-0.9c0-0.5,0.3-1,0.9-1C328.5,229.1,328.9,229.5,329,230z"/>
						</g>
						<g>
							<g>
								<path class="st21" d="M333.4,229.9c0.1,0,0.3-0.1,0.4-0.2c0.2-0.2,0.2-0.6,0-0.8l-4.8-4.9c-0.2-0.2-0.6-0.2-0.8,0
									c-0.2,0.2-0.2,0.6,0,0.8l4.8,4.9C333.1,229.8,333.2,229.9,333.4,229.9z"/>
							</g>
						</g>
					</g>
					<g>
						<g>
							<path class="st21" d="M343.3,168.6c0.2,0,0.4-0.1,0.5-0.3l11.8-18.7c0.2-0.3,0.1-0.6-0.2-0.8c-0.3-0.2-0.6-0.1-0.8,0.2
								l-11.8,18.7c-0.2,0.3-0.1,0.6,0.2,0.8C343.1,168.6,343.2,168.6,343.3,168.6z"/>
						</g>
					</g>
					<g>
						<g>
							<path class="st21" d="M352.8,154.1c0,0,0.1,0,0.1,0l4.7-1.3c0.3-0.1,0.5-0.4,0.4-0.7c-0.1-0.3-0.4-0.5-0.7-0.4l-4.7,1.3
								c-0.3,0.1-0.5,0.4-0.4,0.7C352.3,153.9,352.5,154.1,352.8,154.1z"/>
						</g>
					</g>
					<g>
						<g>
							<g>
								<path class="st21" d="M328,197.1c0.2,0,0.5-0.2,0.5-0.4c0.1-0.3-0.1-0.6-0.4-0.7c-2.3-0.6-7-0.2-7.1-0.2
									c-0.3,0-0.5,0.3-0.5,0.6c0,0.3,0.3,0.5,0.6,0.5c0,0,4.6-0.4,6.8,0.1C327.9,197.1,327.9,197.1,328,197.1z"/>
							</g>
						</g>
						<g>
							<g>
								<path class="st21" d="M328,197.1c0.1,0,0.3-0.1,0.4-0.2c0.2-0.2,0.2-0.6,0-0.8c-1-1-4-3.3-4.2-3.4c-0.2-0.2-0.6-0.1-0.8,0.1
									c-0.2,0.2-0.1,0.6,0.1,0.8c0,0,3.1,2.3,4,3.3C327.7,197.1,327.8,197.1,328,197.1z"/>
							</g>
						</g>
					</g>
					<g>
						<g>
							<path class="st19" d="M349.8,227.1c0.9-0.2,2.5-0.6,4.5-0.5c2.9,0.1,5.4,1.8,6.8,2.4c1.4,0.6-0.4,2.4-2.8,2.1
								c-2.4-0.3-4.4-0.1-5.3,0.1c0,0,3,0.1,4.8,0.9c0.8,0.3,1.9,0.7,3,1.1c0.5,0.2,1,0.4,1.4,0.7c0.8,0.4,1.3,0.9,1.3,1.5
								c0,0.9-1.4,0.9-3.1,0.8c-0.7-0.1-1.4-0.1-2.1-0.2c-0.3,0-0.6,0-0.8-0.1c-2.5-0.1-3.6-0.5-5.6-0.2c0,0,2.4,0.4,3.7,1.2
								c0.2,0.1,0.5,0.3,0.7,0.4c0.5,0.3,1,0.6,1.6,0.9c0.9,0.6,1.8,1.1,2.2,1.6c0.7,0.9-1.8,1.8-4.2,1.1c-0.9-0.3-1.6-0.6-2.2-1
								c-0.7-0.3-1.2-0.6-1.8-0.8c-0.1,0-0.1,0-0.2,0c-0.3,0-0.6,0-1,0.1c0,0,0.6,0.4,1.3,0.9c0,0,0,0,0,0c0,0,0.1,0.1,0.1,0.1
								c0.5,0.3,0.9,0.7,1.3,1c0.7,0.6,1.6,2,1.9,3.1c0.2,0.7,0.2,1.2-0.2,1.5c-0.4,0.3-1.3-0.1-2.3-0.6c-1.5-0.8-3.3-1.9-4.6-2
								c-2.1-0.1-5.8-0.5-11.1-1.4c-4.2-0.7-7.6-4.8-8.4-6.7c-0.2-0.5-0.5-0.9-0.5-0.9c2.7-4.2,6.1-7.7,10.3-10.3c0,0,1-0.5,2.3-0.9
								c1.3-0.5,2.8-0.9,4-1c0.5,0,0.9,0,1.3,0.1l1.2,0.2l-0.9,5.1L349.8,227.1z"/>
						</g>
					</g>
				</g>
				<g>
					<g>
						<g>
							<g>
								<g>
									<g>
										<g>
											<path class="st19" d="M384.3,131.8c-7.4,13.6-20.3-1.6-20.6-4.9c2.8-7.9,2.2-16.4,2.2-16.4l19,7.4
												c-0.1,0.6-0.1,1.1-0.2,1.7c-0.3,2.6-0.6,5.3-0.6,8.1C384.1,129,384.2,130.3,384.3,131.8z"/>
										</g>
									</g>
								</g>
								<g>
									<g>
										<g>
											<path class="st4" d="M384.1,127.6c-10-2.5-16.3-13.1-16.3-13.1l16.9,5C384.4,122.1,384.1,124.8,384.1,127.6z"/>
										</g>
									</g>
								</g>
							</g>
							<g>
								<g>
									<g>
										<g>
											<g>
												<g>
													<g>
														<g>
															<g>
																<g>
																	<path class="st20" d="M389.5,103.7c0,0,1.6-4.7,5.4-3.5c3.8,1.2,3.7,13.9-3.6,13.4L389.5,103.7z"/>
																</g>
															</g>
														</g>
													</g>
												</g>
											</g>
											<g>
												<g>
													<g>
														<path class="st16" d="M385.6,117c-0.4-3.5,2.2-6.6,5.7-7c3.5-0.4,6.6,2.2,7,5.7c0.4,3.5-2.2,6.6-5.7,7
															C389.1,123.1,386,120.5,385.6,117z M386.5,116.9c0.3,3,3,5.1,6,4.8c3-0.3,5.1-3,4.8-6c-0.3-3-3-5.1-6-4.8
															C388.4,111.3,386.2,114,386.5,116.9z"/>
													</g>
												</g>
											</g>
											<g>
												<g>
													<g>
														<g>
															<g>
																<path class="st19" d="M365.6,112c1.9,5.1,15.1,11.2,20.6,8.8c3.3-1.5,6.3-4.6,8-11.3c0,0,0-0.1,0-0.1
																	c0.1-0.4,0.2-0.8,0.3-1.2c0.2-0.7,0.3-1.4,0.4-2.1c0-0.2,0.1-0.3,0.1-0.5c0.1-0.4,0.1-0.8,0.2-1.2
																	c0.1-0.5,0.1-0.9,0.1-1.3c0.3-6.8,0.7-14.5-5.5-18.8c-6.2-4.3-15.9-5.6-21.5,0.5c0,0-4.2,5.3-4.1,15.2
																	C364.2,109.8,364.2,108.3,365.6,112z"/>
															</g>
														</g>
													</g>
												</g>
											</g>
											<g>
												<g>
													<g>
														<g>
															<path class="st20" d="M382,114.2c0.2,0,0.3,0,0.3,0c0.2,0,0.4-0.2,0.3-0.4c0-0.2-0.2-0.4-0.4-0.3
																c-0.1,0-1.4,0.1-2.2-1c-0.1-0.2-0.4-0.2-0.5-0.1c-0.2,0.1-0.2,0.4-0.1,0.5C380.2,114,381.4,114.2,382,114.2z"/>
														</g>
													</g>
												</g>
											</g>
											<g>
												<g>
													<g>
														<g>
															<path class="st4" d="M384.9,111.9c0.5,0,0.8,0,0.8,0c0.2,0,0.4-0.2,0.3-0.4c0-0.2-0.2-0.4-0.4-0.3
																c-0.2,0-4.6,0.7-5.5-3.9c0-0.2-0.2-0.3-0.5-0.3c-0.2,0-0.3,0.2-0.3,0.5C380.2,111.3,383.4,111.9,384.9,111.9z"/>
														</g>
													</g>
												</g>
											</g>
											<g>
												<g>
													<g>
														<g>
															<g>
																<path class="st4" d="M384.9,107.6c-0.2,0-0.5,0-0.7,0c-0.3,0-0.4-0.3-0.4-0.5c0-0.3,0.3-0.4,0.5-0.4
																	c1,0.1,1.7-0.3,2.1-0.6c-1.4-2-2-6.9-2-7.1c0-0.3,0.1-0.5,0.4-0.5c0.3,0,0.5,0.1,0.5,0.4c0.2,1.5,0.9,5.7,2.1,7
																	c0.2,0.2,0.2,0.4,0,0.6C387.3,106.4,386.4,107.5,384.9,107.6z"/>
															</g>
														</g>
													</g>
												</g>
											</g>
											<g>
												<g>
													<g>
														<g>
															<g>
																<g>
																	<path class="st20" d="M394.2,109.3c0.1-0.4,0.2-0.8,0.3-1.2c0.2-0.7,0.3-1.4,0.4-2.1c0-0.2,0.1-0.3,0.1-0.5
																		c-0.1,0-0.2,0-0.3,0c-2.6-0.1-4.7,0.6-4.7,1.7C389.8,108.2,391.8,109.1,394.2,109.3z"/>
																</g>
															</g>
														</g>
													</g>
												</g>
											</g>
											<g>
												<g>
													<g>
														<g>
															<g>
																<g>
																	<path class="st20" d="M369.9,105.9c0,1,2,2,4.6,2.1c2.6,0.1,4.7-0.6,4.7-1.7c0-1-2-2-4.6-2.1
																		C372.1,104.1,369.9,104.9,369.9,105.9z"/>
																</g>
															</g>
														</g>
													</g>
												</g>
											</g>
											<g>
												<g>
													<g>
														<g>
															<g>
																<path class="st6" d="M378.8,107.8c-3.4,0.2-6.4-2.3-6.6-5.8c-0.2-3.4,2.3-6.4,5.8-6.6c3.4-0.2,6.4,2.3,6.6,5.8
																	C384.8,104.6,382.2,107.6,378.8,107.8z M377.9,96.3c-2.9,0.2-5.1,2.7-4.9,5.7c0.2,2.9,2.7,5.1,5.7,4.9
																	c2.9-0.2,5.1-2.7,4.9-5.7C383.4,98.3,380.9,96.1,377.9,96.3z"/>
															</g>
														</g>
													</g>
												</g>
												<g>
													<g>
														<g>
															<g>
																<path class="st6" d="M393.1,108.7c-3.4,0.2-6.4-2.3-6.6-5.8c-0.2-3.4,2.3-6.4,5.8-6.6c3.4-0.2,6.4,2.3,6.6,5.8
																	C399.1,105.4,396.5,108.4,393.1,108.7z M392.3,97.2c-2.9,0.2-5.1,2.7-4.9,5.7c0.2,2.9,2.7,5.1,5.7,4.9
																	c2.9-0.2,5.1-2.7,4.9-5.7C397.7,99.2,395.2,97,392.3,97.2z"/>
															</g>
														</g>
													</g>
												</g>
												<g>
													<g>
														<g>
															<g>
																<path class="st6" d="M386.5,102.7c-0.9-1.1-2-0.3-2.1-0.2l-0.5-0.7c0.7-0.5,2.2-1,3.4,0.3L386.5,102.7z"/>
															</g>
														</g>
													</g>
												</g>
												<g>
													<g>
														<g>
															<g>
																<path class="st6" d="M372.7,100.3c-0.1,0-0.3,0-0.4-0.1c0,0-0.8-0.7-4.1-1c-0.3,0-0.4-0.2-0.4-0.5
																	c0-0.3,0.3-0.4,0.5-0.4c3.8,0.3,4.6,1.1,4.7,1.3c0.2,0.2,0.1,0.5-0.1,0.6C372.9,100.2,372.8,100.3,372.7,100.3z"/>
															</g>
														</g>
													</g>
												</g>
												<g>
													<g>
														<g>
															<g>
																<path class="st6" d="M398.4,102.5c-0.1,0-0.2,0-0.3-0.1c-0.7-0.4-2-0.5-2.5-0.5c-0.3,0-0.5-0.2-0.5-0.5
																	c0-0.3,0.2-0.5,0.5-0.5c0.1,0,1.9,0,3,0.7c0.2,0.1,0.3,0.4,0.1,0.6C398.7,102.4,398.6,102.5,398.4,102.5z"/>
															</g>
														</g>
													</g>
												</g>
											</g>
											<g>
												<g>
													<g>
														<g>
															<g>
																<path class="st4" d="M382,93c0,0-1.9-2.1-4.7-1.5c-1.5,0.3-1.4,1.9,0.4,1.9c1.3,0,1.9,0.1,3.1,0.8
																	C382.1,94.8,382.5,93.4,382,93z"/>
															</g>
														</g>
													</g>
												</g>
											</g>
											<g>
												<g>
													<g>
														<g>
															<g>
																<path class="st4" d="M389.1,93.6c0,0,2.1-1.8,4.8-0.9c1.5,0.5,1.1,2-0.6,1.9c-1.3-0.1-1.9-0.1-3.2,0.4
																	C388.9,95.4,388.6,94,389.1,93.6z"/>
															</g>
														</g>
													</g>
												</g>
											</g>
											<g>
												<g>
													<g>
														<g>
															<g>
																<g>
																	<path class="st19" d="M366.6,98.8c0,0-2.2-4-6.2-2.4c-4.1,1.7-2.7,15.7,5.3,14.3L366.6,98.8z"/>
																</g>
															</g>
														</g>
													</g>
												</g>
											</g>
											<g>
												<path class="st16" d="M359.9,108c0.2,0.3,0.4,0.5,0.6,0.8c-2.6,0.6-4.4,3.1-4.1,5.8c0.3,3,3,5.1,6,4.8
													c3-0.3,5.1-3,4.8-6c-0.2-2-1.5-3.7-3.3-4.4c-1.2-0.4-1.3-0.9-1.4-1.3c2.9,0.3,5.3,2.6,5.6,5.7c0.4,3.5-2.2,6.6-5.7,7
													c-3.5,0.4-6.6-2.2-7-5.7C355.1,111.8,357.1,109,359.9,108z"/>
											</g>
											<g>
												<g>
													<g>
														<g>
															<g>
																<g>
																	<g>
																		<path class="st4" d="M364.7,105.2c0,0.2-0.1,0.4-0.3,0.5c0,0-0.1,0-0.1,0c-0.2,0-0.3-0.1-0.4-0.3
																			c0,0-0.3-1.4-1.2-2.6c-0.8,0.7-1.4,1.3-1.4,1.3c-0.1,0.1-0.2,0.1-0.3,0.1c-0.1,0-0.2,0-0.3-0.1
																			c-0.1-0.1-0.1-0.4,0-0.5c0,0,0.7-0.7,1.5-1.3c-0.6-0.6-1.3-1.1-2.3-1.3c-0.2,0-0.3-0.2-0.3-0.5
																			c0-0.2,0.2-0.3,0.5-0.3C363.7,101,364.7,105.1,364.7,105.2z"/>
																	</g>
																</g>
															</g>
														</g>
													</g>
												</g>
											</g>
											<g>
												<g>
													<g>
														<g>
															<g>
																<g>
																	<path class="st4" d="M378.1,101.2c-0.1,0.9,0.3,1.7,0.9,1.7c0.5,0,1-0.7,1.1-1.6c0.1-0.9-0.3-1.7-0.9-1.7
																		C378.7,99.6,378.2,100.3,378.1,101.2z"/>
																</g>
															</g>
														</g>
													</g>
												</g>
											</g>
											<g>
												<g>
													<g>
														<g>
															<g>
																<g>
																	<path class="st4" d="M388.5,102.1c-0.1,0.9,0.3,1.7,0.9,1.7c0.5,0,1-0.7,1.1-1.6c0.1-0.9-0.3-1.7-0.9-1.7
																		C389,100.4,388.5,101.1,388.5,102.1z"/>
																</g>
															</g>
														</g>
													</g>
												</g>
											</g>
										</g>
									</g>
								</g>
							</g>
						</g>
					</g>
					<g>
						<path class="st4" d="M386.2,91.7c1.7,0.1,3.2,0,4.3-0.2l0.6-4l0.9,3.5c3.3-1.4,3.5-4.3,3.5-4.3s-1.7-16.1-25.5-5.3
							C369.9,81.4,369.5,90.4,386.2,91.7z"/>
					</g>
					<g>
						<path class="st4" d="M372.8,84.8c0,0-1.5,11.9-6.8,13.3c0,0-1.2-1.2-3.3-2c-2.1-0.8,7.3-18.7,10.2-14.5
							C373.4,82.2,372.8,84.8,372.8,84.8z"/>
					</g>
					<g>
						<path class="st4" d="M363.9,96.2c0,0,2.6,1.3,2.9,4.9c0.4,3.6,0.8,12.4,5.1,14.2c0,0-1.6-1.1-2.8-8.5
							c-0.8-5,2.5-11.3-0.1-13.4C366.5,91.3,363.9,96.2,363.9,96.2z"/>
					</g>
				</g>
			</g>
		</g>
	</g>
	<g>
		<g>
			<g>
				<path class="st17" d="M128.1,304.2c-0.7,0-1.2-0.5-1.2-1.2c-0.2-12.5,9.8-18,10.2-18.2c0.6-0.3,1.3-0.1,1.6,0.5
					c0.3,0.6,0.1,1.3-0.5,1.6l0,0c0,0-2.3,1.3-4.6,3.9c-3,3.4-4.4,7.5-4.4,12.1C129.3,303.6,128.8,304.2,128.1,304.2
					C128.1,304.2,128.1,304.2,128.1,304.2z"/>
			</g>
			<g>
				<g>
					<g>
						<path class="st21" d="M124.2,273.1c0,0-14-26.4,36.2-44.9c2.6-1,5.2,1.3,4.6,4C161.8,245.9,151.5,278.1,124.2,273.1z"/>
					</g>
					<g>
						<path class="st21" d="M110.5,301.8c-0.1,0-0.1,0-0.2,0c-0.7-0.1-1.1-0.7-1-1.4c3.5-24,21.4-35.2,23.4-36.4
							c0.6-0.3,1.3-0.2,1.7,0.4c0.3,0.6,0.2,1.3-0.4,1.6l0,0c-0.8,0.5-5.3,3.3-10.1,8.6c-6.6,7.4-10.7,16.2-12.1,26
							C111.6,301.4,111,301.8,110.5,301.8z"/>
					</g>
				</g>
				<g>
					<path class="st21" d="M117.8,301.8C117.8,301.8,117.8,301.8,117.8,301.8c-0.7,0-1.2-0.6-1.2-1.3c0.5-10.3-6-19.6-6.1-19.7
						c-0.4-0.5-0.3-1.3,0.3-1.7c0.5-0.4,1.3-0.3,1.7,0.3c0.3,0.4,7.1,10.1,6.5,21.2C119,301.3,118.5,301.8,117.8,301.8z"/>
				</g>
				<g>
					<path class="st17" d="M121.3,303.6C121.3,303.6,121.3,303.6,121.3,303.6c-0.7,0-1.2-0.6-1.2-1.2l1-39.1c0-0.7,0.6-1.2,1.2-1.2
						c0.7,0,1.2,0.6,1.2,1.2l-1,39.1C122.5,303.1,121.9,303.6,121.3,303.6z"/>
				</g>
				<g>
					<path class="st21" d="M112.9,281.5c0,0-28.5,9-37.7-43.6c-0.5-2.7,2.2-4.9,4.8-3.8C92.9,239.6,122.7,255.6,112.9,281.5z"/>
				</g>
				<g>
					<path class="st17" d="M131.3,291.6c0,0,25.6,15.4,46.8-33.7c1.1-2.5-1-5.3-3.8-4.8C160.5,255.5,127.8,264.2,131.3,291.6z"/>
				</g>
				<g>
					<path class="st17" d="M126.7,276.8c-2,4.1-8,3.6-9.3-0.7c-6.1-19.4-16.2-60.5,4.8-65.2C145.8,205.6,137.9,253.6,126.7,276.8z"
						/>
				</g>
				<g>
					<path class="st21" d="M121.8,279.4C121.8,279.4,121.8,279.4,121.8,279.4c-0.4,0-0.7-0.3-0.7-0.7l2.2-54.9
						c0-0.4,0.3-0.6,0.7-0.6c0.4,0,0.6,0.3,0.6,0.7l-2.2,54.9C122.4,279.1,122.1,279.4,121.8,279.4z"/>
				</g>
				<g>
					<path class="st21" d="M132,291.7c-0.2,0-0.4-0.1-0.5-0.2c-0.2-0.3-0.2-0.7,0.1-0.9l30.4-24.9c0.3-0.2,0.7-0.2,0.9,0.1
						c0.2,0.3,0.2,0.7-0.1,0.9l-30.4,24.9C132.3,291.7,132.2,291.7,132,291.7z"/>
				</g>
			</g>
			<g>
				<polygon class="st13" points="154,299.2 152.3,307 151.7,309.5 150.6,314.9 150,317.4 145.1,340 100.7,340 95.8,317.4 
					95.2,314.9 94.1,309.5 93.5,307 91.8,299.2 				"/>
			</g>
			<polygon class="st22" points="152.3,307 151.7,309.5 94.1,309.5 93.5,307 			"/>
			<polygon class="st22" points="150.6,314.9 150,317.4 95.8,317.4 95.2,314.9 			"/>
		</g>
		<g>
			<g>
				<g>
					<path class="st18" d="M157.4,408.6H87.3c-0.4,0-0.8-0.4-0.8-0.8v-4.1c0-0.4,0.4-0.8,0.8-0.8h70.1c0.4,0,0.8,0.4,0.8,0.8v4.1
						C158.2,408.2,157.8,408.6,157.4,408.6z"/>
				</g>
			</g>
			<g>
				<path class="st14" d="M89.7,340h65.5c1.1,0,2,0.9,2,2v8.1c0,1.1-0.9,2-2,2H89.7c-1.1,0-2-0.9-2-2V342
					C87.7,340.9,88.6,340,89.7,340z"/>
			</g>
			<g>
				<polygon class="st14" points="112.8,352 110.8,358.4 83,448 77.6,448 95.2,360.3 96.9,352 				"/>
			</g>
			<g>
				<g>
					<polygon class="st18" points="96.9,352 112.8,352 110.8,358.4 95.2,360.3 					"/>
				</g>
			</g>
			<g>
				<polygon class="st14" points="167.4,448 162,448 133.4,355.8 132.2,352 148.1,352 148.6,354 148.6,354 				"/>
			</g>
			<g>
				<g>
					<g>
						<polygon class="st18" points="148.6,354 133.4,355.8 132.2,352 148.1,352 						"/>
					</g>
				</g>
			</g>
			<g>
				<g>
					<g>
						<path class="st14" d="M157.6,396.3H87.1c-0.3,0-0.6-0.3-0.6-0.6v-4.5c0-0.3,0.3-0.6,0.6-0.6h70.5c0.3,0,0.6,0.3,0.6,0.6v4.5
							C158.2,396,157.9,396.3,157.6,396.3z"/>
					</g>
				</g>
			</g>
		</g>
	</g>
	<g>
		<g>
			<path class="st14" d="M586.4,423v27H469c-7.4,0-13.5-6-13.5-13.5c0-3.7,1.5-7.1,4-9.5c2.4-2.4,5.8-4,9.5-4H586.4z"/>
			<path class="st18" d="M586.4,423v27h-105c-7.5,0-13.5-6-13.5-13.5c0-3.7,1.5-7.1,4-9.5c2.4-2.4,5.8-4,9.5-4H586.4z"/>
			<path class="st6" d="M586.4,445.8H478.6c-3.6,0-6.6-2.9-6.6-6.6v-5.4c0-3.6,2.9-6.6,6.6-6.6h107.9V445.8z"/>
		</g>
		<g>
			<g>
				<g>
					<g>
						<path class="st7" d="M481.1,432.2l105.4-0.1l0-1.4l-105.4,0.1c-0.4,0-0.7,0.3-0.7,0.7l0,0
							C480.4,431.9,480.7,432.2,481.1,432.2z"/>
					</g>
				</g>
			</g>
		</g>
		<g>
			<g>
				<g>
					<g>
						<path class="st7" d="M481.1,436.8l105.4-0.1l0-1.4l-105.4,0.1c-0.4,0-0.7,0.3-0.7,0.7l0,0
							C480.4,436.5,480.7,436.8,481.1,436.8z"/>
					</g>
				</g>
			</g>
		</g>
		<g>
			<g>
				<g>
					<g>
						<path class="st7" d="M481.1,441.7l105.4-0.1l0-1.4l-105.4,0.1c-0.4,0-0.7,0.3-0.7,0.7v0C480.4,441.4,480.7,441.7,481.1,441.7z
							"/>
					</g>
				</g>
			</g>
		</g>
	</g>
	<g>
		<g>
			<path class="st13" d="M607.5,396.2v27H490c-7.4,0-13.5-6-13.5-13.5c0-3.7,1.5-7.1,4-9.5c2.4-2.4,5.8-4,9.5-4H607.5z"/>
			<path class="st22" d="M607.5,396.2v27h-105c-7.5,0-13.5-6-13.5-13.5c0-3.7,1.5-7.1,4-9.5c2.4-2.4,5.8-4,9.5-4H607.5z"/>
			<path class="st6" d="M607.5,419H499.6c-3.6,0-6.6-2.9-6.6-6.6v-5.4c0-3.6,2.9-6.6,6.6-6.6h107.9V419z"/>
		</g>
		<g>
			<g>
				<g>
					<g>
						<path class="st7" d="M502.1,405.4l105.4-0.1l0-1.4L502.1,404c-0.4,0-0.7,0.3-0.7,0.7l0,0C501.4,405.1,501.7,405.4,502.1,405.4
							z"/>
					</g>
				</g>
			</g>
		</g>
		<g>
			<g>
				<g>
					<g>
						<path class="st7" d="M502.1,410l105.4-0.1l0-1.4l-105.4,0.1c-0.4,0-0.7,0.3-0.7,0.7l0,0C501.4,409.7,501.7,410,502.1,410z"/>
					</g>
				</g>
			</g>
		</g>
		<g>
			<g>
				<g>
					<g>
						<path class="st7" d="M502.1,414.9l105.4-0.1l0-1.4l-105.4,0.1c-0.4,0-0.7,0.3-0.7,0.7l0,0
							C501.4,414.6,501.7,414.9,502.1,414.9z"/>
					</g>
				</g>
			</g>
		</g>
	</g>
	<path class="st3" d="M590.7,369.5v27H473.3c-7.4,0-13.5-6-13.5-13.5c0-3.7,1.5-7.1,4-9.5c2.4-2.4,5.8-4,9.5-4H590.7z"/>
	<path class="st23" d="M590.7,369.5v27h-105c-7.5,0-13.5-6-13.5-13.5c0-3.7,1.5-7.1,4-9.5c2.4-2.4,5.8-4,9.5-4H590.7z"/>
	<path class="st6" d="M590.7,392.3H482.8c-3.6,0-6.6-2.9-6.6-6.6v-5.4c0-3.6,2.9-6.6,6.6-6.6h107.9V392.3z"/>
	<g>
		<g>
			<g>
				<g>
					<path class="st7" d="M485.4,378.7l105.4-0.1l0-1.4l-105.4,0.1c-0.4,0-0.7,0.3-0.7,0.7l0,0C484.7,378.4,485,378.7,485.4,378.7z"
						/>
				</g>
			</g>
		</g>
	</g>
	<g>
		<g>
			<g>
				<g>
					<path class="st7" d="M485.4,383.3l105.4-0.1l0-1.4l-105.4,0.1c-0.4,0-0.7,0.3-0.7,0.7l0,0C484.7,383,485,383.3,485.4,383.3z"/>
				</g>
			</g>
		</g>
	</g>
	<g>
		<g>
			<g>
				<g>
					<path class="st7" d="M485.4,388.1l105.4-0.1l0-1.4l-105.4,0.1c-0.4,0-0.7,0.3-0.7,0.7l0,0C484.7,387.8,485,388.1,485.4,388.1z"
						/>
				</g>
			</g>
		</g>
	</g>
	<polygon class="st14" points="561.9,377.2 561.9,390.4 566,386.3 570.3,390.6 570.3,377.1 	"/>
	<g>
		<g>
			<g>
				<g>
					<g>
						<ellipse class="st7" cx="77.6" cy="117.4" rx="29" ry="28.7"/>
					</g>
				</g>
			</g>
			<g>
				<ellipse class="st8" cx="77.6" cy="113.7" rx="29" ry="28.7"/>
			</g>
			<g>
				<g>
					<g>
						<g>
							<ellipse class="st6" cx="77.6" cy="113.7" rx="23.6" ry="23.3"/>
						</g>
					</g>
				</g>
			</g>
			<g>
				<g>
					<g>
						<path class="st7" d="M101.2,113.7c0,0.6,0,1.2-0.1,1.8c-1-12-11.1-21.5-23.5-21.5c-12.4,0-22.6,9.5-23.5,21.5
							c0-0.6-0.1-1.2-0.1-1.8c0-12.9,10.6-23.3,23.6-23.3C90.6,90.4,101.2,100.9,101.2,113.7z"/>
					</g>
				</g>
			</g>
		</g>
		<g>
			<g>
				<g>
					<path class="st4" d="M77.6,116.1c-0.2,0-0.4-0.1-0.5-0.2l-11.6-15.4c-0.2-0.3-0.1-0.6,0.1-0.8c0.3-0.2,0.6-0.1,0.8,0.1l11.3,15
						l12.8-5.6c0.3-0.1,0.6,0,0.8,0.3c0.1,0.3,0,0.6-0.3,0.8l-13.3,5.8C77.7,116.1,77.7,116.1,77.6,116.1z"/>
				</g>
			</g>
		</g>
	</g>
	<g>
		<g>
			<g>
				<g>
					<g>
						<g>
							<g>
								<g>
									<g>
										<g>
											<g>
												<polygon class="st19" points="672.5,398.2 678.2,402.9 671.6,413.2 666,408.5 												"/>
											</g>
										</g>
									</g>
								</g>
							</g>
						</g>
					</g>
				</g>
			</g>
			<g>
				<g>
					<g>
						<g>
							<g>
								<g>
									<g>
										<g>
											<g>
												<g>
													<g>
														<path class="st4" d="M672.2,448.2l23.8-37.5c-0.3-0.6-1-1.2-1.8-1.8c-3-2.2-8.7-4.5-12.2-6c-0.4-0.2-0.8-0.3-1.1-0.5
															c-0.6-0.3-1-0.5-1.4-0.7c-2.6-1.7-3.6,0.9-3.6,0.9c1.3,6.2-7,6.9-6.8,10.6c0,0,0.1,1.6,0.9,6.2
															c0.8,4.7-0.7,10.9-1.6,16.3c-1.2,7,0.1,10.1,1.5,11.4C671,448.2,672.2,448.2,672.2,448.2z"/>
													</g>
												</g>
											</g>
										</g>
									</g>
								</g>
							</g>
						</g>
					</g>
				</g>
				<g>
					<g>
						<g>
							<g>
								<g>
									<g>
										<g>
											<g>
												<g>
													<g>
														<path class="st5" d="M672.2,448.2l23.8-37.5c-0.3-0.6-1-1.2-1.8-1.8l-24.3,38.3C671,448.2,672.2,448.2,672.2,448.2z"
															/>
													</g>
												</g>
											</g>
										</g>
									</g>
								</g>
							</g>
						</g>
					</g>
				</g>
				<g>
					<g>
						<g>
							<g>
								<g>
									<g>
										<g>
											<g>
												<g>
													<g>
														<g>
															<path class="st5" d="M693.6,414.6l0.7-1.1c-2,0.3-4.6,0.1-7.3-1.8c-3.6-2.5-4.7-6.3-5-8.7c-0.4-0.2-0.8-0.3-1.1-0.5
																c0.2,2.5,1.2,7,5.5,10.1C689,414.3,691.5,414.7,693.6,414.6z"/>
														</g>
													</g>
												</g>
											</g>
										</g>
									</g>
								</g>
							</g>
						</g>
					</g>
				</g>
				<g>
					<g>
						<g>
							<g>
								<g>
									<g>
										<g>
											<g>
												<g>
													<g>
														<path class="st6" d="M672.6,420.2c0.2-0.3,0.1-0.6-0.1-0.9c-0.3-0.3-0.7-0.3-1,0l-2.1,2c-0.3,0.3-0.3,0.7,0,1
															c0.3,0.3,0.7,0.3,1,0l2.1-2C672.6,420.3,672.6,420.3,672.6,420.2z"/>
													</g>
												</g>
											</g>
										</g>
									</g>
								</g>
							</g>
						</g>
					</g>
				</g>
				<g>
					<g>
						<g>
							<g>
								<g>
									<g>
										<g>
											<g>
												<g>
													<g>
														<path class="st6" d="M672.5,423.4c0.2-0.3,0.1-0.6-0.1-0.9c-0.3-0.3-0.7-0.3-1,0l-2.1,2c-0.3,0.3-0.3,0.7,0,1
															c0.3,0.3,0.7,0.3,1,0l2.1-2C672.4,423.5,672.5,423.5,672.5,423.4z"/>
													</g>
												</g>
											</g>
										</g>
									</g>
								</g>
							</g>
						</g>
					</g>
				</g>
				<g>
					<g>
						<g>
							<g>
								<g>
									<g>
										<g>
											<g>
												<g>
													<g>
														<path class="st6" d="M672.3,426.6c0.2-0.3,0.1-0.6-0.1-0.9c-0.3-0.3-0.7-0.3-1,0l-2.1,2c-0.3,0.3-0.3,0.7,0,1
															c0.3,0.3,0.7,0.3,1,0l2.1-2C672.2,426.7,672.3,426.7,672.3,426.6z"/>
													</g>
												</g>
											</g>
										</g>
									</g>
								</g>
							</g>
						</g>
					</g>
				</g>
				<g>
					<g>
						<g>
							<g>
								<g>
									<g>
										<g>
											<g>
												<g>
													<g>
														<path class="st6" d="M671.9,429.9c0.2-0.3,0.1-0.6-0.1-0.9c-0.3-0.3-0.7-0.3-1,0l-2.1,2c-0.3,0.3-0.3,0.7,0,1
															c0.3,0.3,0.7,0.3,1,0l2.1-2C671.8,430,671.9,430,671.9,429.9z"/>
													</g>
												</g>
											</g>
										</g>
									</g>
								</g>
							</g>
						</g>
					</g>
				</g>
				<g>
					<g>
						<g>
							<g>
								<g>
									<g>
										<g>
											<g>
												<g>
													<g>
														<path class="st6" d="M671.2,433.3c0.2-0.3,0.1-0.6-0.1-0.9c-0.3-0.3-0.7-0.3-1,0l-2.1,2c-0.3,0.3-0.3,0.7,0,1
															c0.3,0.3,0.7,0.3,1,0l2.1-2C671.1,433.4,671.1,433.4,671.2,433.3z"/>
													</g>
												</g>
											</g>
										</g>
									</g>
								</g>
							</g>
						</g>
					</g>
				</g>
			</g>
			<g>
				<g>
					<g>
						<g>
							<path class="st14" d="M604.1,331.5c0,0.1,0,0.2,0,0.3c0,0,0.2,0.4,0.6,1.2c2.9,5.4,15.7,28.6,31.5,50.4
								c2.3,3.1,4.6,6.3,7,9.3c1.1,1.3,2.1,2.6,3.2,3.9c4.6,5.6,8.5,9.1,13,12c0.5,0.3,0.9,0.6,1.4,0.9c0.9,0.6,1.9,1.1,2.9,1.7
								c0.5,0.3,0.9,0.5,1.4,0.8c0,0,7.1-7.5,10.5-14.8c0,0-0.9-1.5-2.4-4c-0.3-0.5-0.6-1-0.9-1.6c-1-1.7-2.2-3.6-3.5-5.8
								c-5.8-9.6-13.5-22.8-16.4-28.9c-2.1-4.5-4.6-9.4-7.5-14.3c-0.5-0.9-1.1-1.9-1.6-2.8c-0.1-0.1-0.1-0.2-0.2-0.3
								c-3.8-6.3-8.1-12.3-12.6-16.8l10.2-60.3l0.6-3.8l-22.6-8l-1.3-0.5l-5.4-1.9c0,0-0.4,2-1.1,5.4c-0.1,0.4-0.2,0.8-0.3,1.3
								C607.8,270.4,601.1,309,604.1,331.5z"/>
						</g>
					</g>
				</g>
			</g>
			<g>
				<g>
					<g>
						<g>
							<g>
								<g>
									<g>
										<g>
											<path class="st18" d="M659.5,408.5c0.5,0.3,0.9,0.6,1.4,0.9l8.7-11.6l0.8-1.1l2.8-3.7c-0.3-0.5-0.6-1-0.9-1.6l-2.7,3.6
												l-0.8,1.1L659.5,408.5z"/>
										</g>
									</g>
								</g>
							</g>
						</g>
					</g>
				</g>
			</g>
			<g>
				<g>
					<g>
						<g>
							<g>
								<g>
									<g>
										<g>
											<g>
												<path class="st18" d="M604.1,331.5c0,0.1,0,0.2,0,0.3c0,0,0.2,0.4,0.6,1.2c5.1-1,9.1-3.5,9.3-3.6
													c0.3-0.2,0.4-0.7,0.2-1.1c-0.2-0.4-0.7-0.4-1.1-0.2C613.2,328,609.2,330.6,604.1,331.5z"/>
											</g>
										</g>
									</g>
								</g>
							</g>
						</g>
					</g>
				</g>
			</g>
			<g>
				<path class="st18" d="M624.7,324.7c0.1,0.1,11.4,11.4,44.1,71.4c0.3,0.5,0.6,1.1,0.9,1.6l0.8-1.1c-0.3-0.5-0.6-1.1-0.9-1.6
					c-30.3-55.7-42-69-43.8-71c2.7-9.9,10.8-60.3,11.2-62.5c0.1-0.3-0.2-0.6-0.5-0.7c-0.3-0.1-0.6,0.2-0.7,0.5
					c-0.1,0.5-8.7,53.8-11.2,62.7C624.5,324.3,624.5,324.6,624.7,324.7z"/>
			</g>
		</g>
		<g>
			<g>
				<g>
					<g>
						<g>
							<g>
								<g>
									<g>
										<g>
											<g>
												<path class="st14" d="M678.6,233.5c0,0,1.7,16.1-2,25.1c-3.7,9-51.2,4.4-63.3-3.7c-5-3.3,5.6-33.9,5.6-33.9L678.6,233.5
													z"/>
											</g>
										</g>
									</g>
								</g>
							</g>
						</g>
					</g>
				</g>
			</g>
			<g>
				<g>
					<g>
						<g>
							<g>
								<g>
									<g>
										<g>
											<g>
												<g>
													<path class="st18" d="M610.8,254.9c0.7-0.1,1.4-0.3,2.1-0.5c1.1-0.4,2.1-0.9,3.1-1.5c1-0.7,2-1.4,2.8-2.3
														c5.2-5.3,6.8-13.3,6.8-13.7c0.1-0.3-0.2-0.6-0.5-0.7c-0.3-0.1-0.7,0.2-0.7,0.5c0,0.1-1.6,8.4-6.9,13.4
														c-0.7,0.6-1.4,1.2-2.2,1.7c-0.9,0.6-1.9,1.1-3,1.4c-0.4,0.1-0.9,0.3-1.3,0.4C611,254,610.9,254.5,610.8,254.9z"/>
												</g>
											</g>
										</g>
									</g>
								</g>
							</g>
						</g>
					</g>
				</g>
			</g>
			<g>
				<g>
					<g>
						<g>
							<g>
								<g>
									<g>
										<g>
											<g>
												<g>
													<path class="st18" d="M640.1,259.4c0,0.3,0.2,0.6,0.6,0.6c0,0,0,0,0,0c0.3,0,0.6-0.2,0.6-0.6c0.1-2.2,0.2-4.5,0.4-6.7
														c0-0.4,0-0.8,0.1-1.2c0.5-7.4,1.1-14.6,1.5-19.7c0-0.4,0.1-0.8,0.1-1.2c0.1-1.1,0.2-2.1,0.3-3
														c-0.4-0.1-0.8-0.1-1.2-0.2c-0.1,0.8-0.2,1.8-0.3,3c0,0.4-0.1,0.8-0.1,1.2c-0.5,5.1-1.1,12.2-1.5,19.6
														c0,0.4-0.1,0.8-0.1,1.2C640.4,254.8,640.2,257.1,640.1,259.4z"/>
												</g>
											</g>
										</g>
									</g>
								</g>
							</g>
						</g>
					</g>
				</g>
			</g>
			<g>
				<g>
					<g>
						<g>
							<g>
								<g>
									<g>
										<g>
											<g>
												<g>
													<path class="st18" d="M638.4,251.6c0.2,0.1,1,0.5,2.1,0.8c0.4,0.1,0.8,0.2,1.2,0.3c0.4,0.1,0.8,0.1,1.2,0.2
														c0.7,0,1.5,0,2-0.3c0.7-0.4,1.2-1,1.4-1.9c0.4-2.3,1.4-11.7,2-18.3c0-0.4,0.1-0.8,0.1-1.2c0.1-1.1,0.2-2,0.3-2.8
														c-0.4,0-0.8-0.1-1.2-0.2c-0.1,0.8-0.2,1.8-0.3,2.9c0,0.4-0.1,0.8-0.1,1.2c-0.6,6.6-1.6,16-2,18.2
														c-0.1,0.5-0.3,0.8-0.7,1c-0.6,0.3-1.6,0.2-2.6,0c-0.4-0.1-0.8-0.2-1.2-0.3c-0.7-0.2-1.3-0.5-1.7-0.7
														c-0.3-0.1-0.7,0-0.8,0.3C638,251.2,638.1,251.5,638.4,251.6z"/>
												</g>
											</g>
										</g>
									</g>
								</g>
							</g>
						</g>
					</g>
				</g>
			</g>
		</g>
		<g>
			<g>
				<g>
					<g>
						<g>
							<g>
								<g>
									<g>
										<g>
											<polygon class="st19" points="658.8,419.6 657.6,429.2 645.4,429.2 644.7,419.1 											"/>
										</g>
									</g>
								</g>
							</g>
						</g>
					</g>
				</g>
			</g>
			<g>
				<g>
					<g>
						<g>
							<g>
								<g>
									<g>
										<g>
											<g>
												<path class="st14" d="M643.4,254V418l0.2,2.6h18.1c0.2-1.2,0.6-3.1,1.2-5.6c0.1-0.5,0.3-1.1,0.4-1.7
													c2.4-10,6.4-27.1,7.1-42c1-21.2,0.7-48.8,0.7-48.8c2.1-15.8,5.3-50,6.9-67.5c0-0.4,0.1-0.8,0.1-1.2
													c0.5-5.9,0.9-9.6,0.9-9.6c-2.9-1.2-8.2-0.4-13.8,1.2c-0.4,0.1-0.8,0.2-1.2,0.4C654,248.9,643.4,254,643.4,254z"/>
											</g>
										</g>
									</g>
								</g>
							</g>
						</g>
					</g>
				</g>
			</g>
			<g>
				<g>
					<g>
						<g>
							<g>
								<g>
									<g>
										<g>
											<path class="st18" d="M643.4,413.4v1.7h19.5c0.1-0.5,0.3-1.1,0.4-1.7H643.4z"/>
										</g>
									</g>
								</g>
							</g>
						</g>
					</g>
				</g>
			</g>
			<g>
				<g>
					<g>
						<g>
							<g>
								<g>
									<g>
										<g>
											<g>
												<path class="st18" d="M643.4,326.3v1.6c2.1,0.5,4.5,0.7,6.8,0.7c4.2,0,7.9-0.6,8.1-0.6c0.4-0.1,0.7-0.5,0.6-0.9
													c-0.1-0.4-0.5-0.7-0.9-0.6C658,326.5,649.1,327.9,643.4,326.3z"/>
											</g>
										</g>
									</g>
								</g>
							</g>
						</g>
					</g>
				</g>
			</g>
			<g>
				<g>
					<g>
						<g>
							<g>
								<g>
									<g>
										<g>
											<g>
												<path class="st18" d="M659.8,415.1h1.2c0.1-0.5,0.2-1.1,0.3-1.7c1.6-8.5,4.5-24.4,6-34.7c2.1-14.4,1.1-54.3,1.1-55.9
													c1.6-13.7,4.9-60.8,4.9-61.2c0-0.3-0.2-0.6-0.6-0.7c-0.3,0-0.6,0.2-0.6,0.6c0,0.5-3.3,47.6-4.9,61.2c0,0,0,0.1,0,0.1
													c0,0.4,1.1,41.2-1.1,55.7c-1.5,10.4-4.5,26.4-6.1,34.9C660,414,659.9,414.6,659.8,415.1z"/>
											</g>
										</g>
									</g>
								</g>
							</g>
						</g>
					</g>
				</g>
			</g>
			<g>
				<g>
					<g>
						<g>
							<g>
								<g>
									<g>
										<g>
											<g>
												<g>
													<g>
														<path class="st4" d="M640.7,445.5c0,0.1,0,0.2,0,0.3c0,0.5,0,0.9,0.1,1.3c0,0.8,0.1,1.3,0.1,1.3l27.5,0
															c0,0,0.1-1.1,0-2.6c-0.2-2.8-1.1-7.2-4.9-10.2c-5.2-4-3.2-3.2-4.3-5c-0.1-0.2-1.1-3.3-1.2-3.5
															c-0.9-1.9-1.7-2.8-6.6-2.8c-6.5,0-7.1,3.2-7.8,4.8c-0.3,0.7-0.7,2.1-1.1,3.9c-0.2,0.7-0.3,1.4-0.5,2.2
															c-0.4,1.9-0.8,3.9-1,5.4C640.8,442.3,640.7,444.1,640.7,445.5z"/>
													</g>
												</g>
											</g>
										</g>
									</g>
								</g>
							</g>
						</g>
					</g>
					<g>
						<g>
							<g>
								<g>
									<g>
										<g>
											<g>
												<g>
													<g>
														<g>
															<path class="st5" d="M640.7,445.5c0,0.1,0,0.2,0,0.3c0,0.5,0,0.9,0.1,1.3c1.3-0.9,2.3-2.2,2.9-3.7
																c1.7-4.6-0.9-10.2-1-10.4l-0.1,0c-0.2,0.7-0.3,1.4-0.5,2.2c0.6,1.9,1.3,5.1,0.3,7.8
																C642.1,443.9,641.5,444.8,640.7,445.5z"/>
														</g>
													</g>
												</g>
											</g>
										</g>
									</g>
								</g>
							</g>
						</g>
					</g>
					<g>
						<g>
							<g>
								<g>
									<g>
										<g>
											<g>
												<g>
													<g>
														<path class="st5" d="M640.7,445.8c0,1.6,0.2,2.6,0.2,2.6l27.5,0c0,0,0.1-1.1,0-2.6H640.7z"/>
													</g>
												</g>
											</g>
										</g>
									</g>
								</g>
							</g>
						</g>
					</g>
				</g>
				<g>
					<g>
						<g>
							<g>
								<g>
									<g>
										<g>
											<g>
												<g>
													<g>
														<path class="st6" d="M650.5,432.9c0.1,0,0.1,0,0.2,0c3.5-0.9,6.3-0.1,6.4-0.1c0.4,0.1,0.8-0.1,1-0.5
															c0.1-0.4-0.1-0.8-0.5-1c-0.1,0-3.3-0.9-7.2,0.1c-0.4,0.1-0.7,0.5-0.6,1C649.9,432.6,650.2,432.9,650.5,432.9z"/>
													</g>
												</g>
											</g>
										</g>
									</g>
								</g>
							</g>
						</g>
					</g>
				</g>
				<g>
					<g>
						<g>
							<g>
								<g>
									<g>
										<g>
											<g>
												<g>
													<path class="st6" d="M649.9,429.8c0.1,0,0.1,0,0.2,0c3.5-0.9,6.3-0.1,6.4-0.1c0.4,0.1,0.8-0.1,1-0.5
														c0.1-0.4-0.1-0.8-0.5-1c-0.1,0-3.3-0.9-7.2,0.1c-0.4,0.1-0.7,0.5-0.6,1C649.3,429.6,649.6,429.8,649.9,429.8z"/>
												</g>
											</g>
										</g>
									</g>
								</g>
							</g>
						</g>
					</g>
				</g>
				<g>
					<g>
						<g>
							<g>
								<g>
									<g>
										<g>
											<g>
												<g>
													<g>
														<path class="st6" d="M651.7,435.3c0.1,0,0.1,0,0.2,0c3.5-0.9,6.3-0.1,6.4-0.1c0.4,0.1,0.8-0.1,1-0.5
															c0.1-0.4-0.1-0.8-0.5-1c-0.1,0-3.3-0.9-7.2,0.1c-0.4,0.1-0.7,0.5-0.6,1C651.1,435.1,651.4,435.3,651.7,435.3z"/>
													</g>
												</g>
											</g>
										</g>
									</g>
								</g>
							</g>
						</g>
					</g>
				</g>
				<g>
					<g>
						<g>
							<g>
								<g>
									<g>
										<g>
											<g>
												<g>
													<path class="st6" d="M653.1,438.2c0.1,0,0.1,0,0.2,0c3.5-0.9,6.3-0.1,6.4-0.1c0.4,0.1,0.8-0.1,1-0.5
														c0.1-0.4-0.1-0.8-0.5-1c-0.1,0-3.3-0.9-7.2,0.1c-0.4,0.1-0.7,0.5-0.6,1C652.4,437.9,652.8,438.2,653.1,438.2z"/>
												</g>
											</g>
										</g>
									</g>
								</g>
							</g>
						</g>
					</g>
				</g>
			</g>
			<g>
				<g>
					<g>
						<g>
							<g>
								<g>
									<g>
										<g>
											<g>
												<g>
													<path class="st18" d="M660.6,236.9c0.1,0.3,0.9,4.6,3.4,9c1.5,2.6,3.5,5.2,6.3,7c2.3,1.5,4.9,2.3,7.8,2.3
														c0-0.4,0.1-0.8,0.1-1.2c-2.7,0-5.1-0.7-7.2-2.1c-2.5-1.6-4.3-3.9-5.7-6.3c-2.5-4.3-3.4-8.8-3.4-8.8
														c-0.1-0.3-0.4-0.6-0.7-0.5C660.7,236.3,660.5,236.6,660.6,236.9z"/>
												</g>
											</g>
										</g>
									</g>
								</g>
							</g>
						</g>
					</g>
				</g>
			</g>
		</g>
	</g>
	<g>
		<g>
			<g>
				<g>
					<path class="st19" d="M617.2,145l-0.7,3.1l-0.8,3.2c-0.5,2.1-1.1,4.3-1.7,6.4c-1.2,4.3-2.4,8.5-3.8,12.5c-0.3,1-0.7,2-1.1,3
						c-0.4,1-0.7,2-1.1,3c-0.8,1.9-1.6,3.8-2.4,5.6c-0.9,1.8-1.8,3.5-2.7,5c-0.9,1.5-1.9,2.8-2.8,3.6c-0.4,0.4-0.8,0.7-1.1,1
						c-0.3,0.2-0.5,0.3-0.6,0.3c0,0-0.1,0-0.1,0c0,0,0,0,0,0c0,0,0,0,0,0c0,0,0,0,0,0l0,0c0,0,0,0,0,0l0.1,0l0.2,0
						c0.5,0,0.8,0.1,1.1,0.2c0.1,0,0.3,0.1,0.4,0.1c0.1,0,0.2,0.1,0.3,0.1c0.3,0.1,0.5,0.2,0.6,0.3c0.1,0.1,0.1,0.1,0,0
						c0,0-0.1-0.1-0.2-0.1c-0.4-0.3-1-0.8-1.6-1.4c-0.6-0.6-1.3-1.3-2-2c-1.4-1.5-2.8-3.1-4.2-4.8c-5.6-6.7-11.1-14.1-16.8-21.1
						l-12,7.1c0.2,0.6,0.5,1.1,0.7,1.7c0.2,0.5,0.5,1.1,0.7,1.6c0.5,1.1,1,2.2,1.5,3.2c1.1,2.1,2.1,4.2,3.3,6.3
						c2.3,4.2,4.7,8.3,7.5,12.4c1.4,2,2.8,4.1,4.5,6.1c0.8,1,1.7,2,2.7,3.1c1,1.1,2,2.1,3.5,3.3c0.4,0.3,0.8,0.6,1.2,0.9
						c0.4,0.3,0.9,0.6,1.5,1c0.6,0.3,1.3,0.7,2.1,1c0.2,0.1,0.5,0.2,0.7,0.2c0.3,0.1,0.5,0.2,0.8,0.2c0.6,0.1,1.2,0.3,2,0.3l0.3,0
						l0.2,0l0.2,0l0.4,0c0.3,0,0.6,0,0.9,0c0.6,0,1.1-0.1,1.7-0.1c1.1-0.1,2.3-0.4,3.3-0.7c2.1-0.6,4.1-1.5,5.7-2.6
						c1.7-1,3.1-2.2,4.3-3.4c2.5-2.4,4.3-4.8,5.8-7.2c1.6-2.4,2.8-4.8,4-7.2c1.1-2.4,2.1-4.8,3-7.1c0.9-2.4,1.7-4.7,2.4-7.1
						c1.4-4.7,2.6-9.5,3.5-14.2c0.5-2.4,0.9-4.8,1.2-7.2c0.2-1.2,0.4-2.4,0.5-3.6l0.2-1.8l0.1-0.9l0.1-1L617.2,145z"/>
				</g>
			</g>
		</g>
	</g>
	<g>
		<g>
			<g>
				<g>
					<g>
						<path class="st20" d="M600,202.2c0.3,0,0.5-0.2,0.5-0.5c0.4-4-0.6-10-0.7-10.3c0-0.3-0.3-0.5-0.6-0.4c-0.3,0-0.5,0.3-0.4,0.6
							c0,0.1,1,6.2,0.7,10C599.4,201.9,599.6,202.2,600,202.2C599.9,202.2,599.9,202.2,600,202.2z"/>
					</g>
				</g>
			</g>
		</g>
		<g>
			<g>
				<g>
					<g>
						<path class="st20" d="M603.4,198.5c0.1,0,0.2,0,0.3-0.1c0.2-0.2,0.3-0.5,0.1-0.7c0,0-2.8-3.7-4.1-5.9
							c-0.2-0.3-0.5-0.3-0.7-0.2c-0.3,0.2-0.3,0.5-0.2,0.7c1.3,2.2,4,5.8,4.1,6C603.1,198.4,603.2,198.5,603.4,198.5z"/>
					</g>
				</g>
			</g>
		</g>
	</g>
	<g>
		<g>
			<g>
				<g>
					<path class="st23" d="M609.2,166.5l0.6,0.2c0,0,0,0,0,0l1.1,0.3l19.8,5.3c0,0,14.3-37.3-2.8-43.4c0,0-6.8-2.6-12.3,11.2
						c-0.1,0.2-0.2,0.4-0.3,0.6c0,0,0,0.1,0,0.1c-0.1,0.2-0.1,0.3-0.2,0.5c0,0.1,0,0.1-0.1,0.2c-3.1,8.5-5.3,21.8-5.8,24.4
						c0,0,0,0.1,0,0.1C609.2,166.3,609.2,166.5,609.2,166.5z"/>
				</g>
			</g>
		</g>
	</g>
	<g>
		<g>
			<g>
				<g>
					<path class="st24" d="M609.2,166.5l0.6,0.2c0,0,0,0,0,0c2.5-0.2,4.7-1.7,6.1-3.5c2-2.7,2-5.8,0-8.1c-0.9-1-1.3-1.9-1.2-2.6
						c0.1-1.1,1.1-1.9,2.2-2.8c1.5-1.3,3.2-2.7,2.6-5c-0.4-1.9-1.7-3.2-3.6-3.8c-0.1,0-0.3-0.1-0.5-0.1c0,0,0,0.1,0,0.1
						c-0.1,0.2-0.1,0.3-0.2,0.5c0.2,0,0.3,0.1,0.5,0.1c1.6,0.5,2.8,1.6,3.1,3.3c0.5,2-0.9,3.1-2.4,4.4c-1.1,1-2.3,1.9-2.4,3.3
						c-0.1,1,0.4,2,1.4,3.1c2.1,2.4,1.4,5.3,0,7.2c-1.3,1.8-3.6,3.1-6,3.2c0,0,0,0.1,0,0.1C609.2,166.3,609.2,166.5,609.2,166.5z"/>
				</g>
			</g>
		</g>
	</g>
	<g>
		<g>
			<g>
				<g>
					<g>
						<g>
							<g>
								<g>
									<path class="st5" d="M607.5,168.1h-69c-1,0-1.7-0.8-1.7-1.7v-2.7c0-1,0.8-1.7,1.7-1.7h69c1,0,1.7,0.8,1.7,1.7v2.7
										C609.2,167.3,608.4,168.1,607.5,168.1z"/>
								</g>
							</g>
						</g>
					</g>
				</g>
				<g>
					<g>
						<g>
							<g>
								<g>
									<path class="st4" d="M589.5,168.1h-50.2c-1.2,0-2.3-0.7-2.8-1.8l-13.7-30c-0.9-2,0.5-4.3,2.8-4.3h50.2
										c1.2,0,2.3,0.7,2.8,1.8l13.7,30C593.1,165.8,591.7,168.1,589.5,168.1z"/>
								</g>
							</g>
						</g>
					</g>
				</g>
				<g>
					<g>
						<g>
							<g>
								<g>
									<path class="st5" d="M559.2,150.1c0,2.4-2,4.4-4.4,4.4c-2.4,0-4.4-2-4.4-4.4s2-4.4,4.4-4.4
										C557.2,145.7,559.2,147.7,559.2,150.1z"/>
								</g>
							</g>
						</g>
					</g>
				</g>
			</g>
			<g>
				<g>
					<g>
						<g>
							<g>
								<path class="st19" d="M576.1,172.3c-1.8,2.4-4.7,3.5-7.6,3c-1.4-0.2-3-0.7-4.6-1.5c-1.1-0.6-2.5-1.6-3.5-1.5
									c-2.4,0.3-3.3-1.4-3.9-1.6c-0.6,0.3-1.4,0.5-2.4,0.4c-1.3-0.1-2.3-0.6-2.9-0.9c0,0,0,0,0,0c-2.4,0-4.5,0.1-5.2-0.4
									c-1.4-0.9-2.7-10.3-0.4-10.7c3.1-0.5,1.5,6.4,4.3,7.7c0,0-2.1-8.7,1.4-9.3c2.4-0.4,2.7,8.2,5.3,9.8c0,0-2.4-8,0.2-9.3
									c2.6-1.3,2.6,8.4,5.2,8.7c0.5,0-2.1-6.9,0.9-7.2c3.1-0.4,1.4,7.9,10.4,7.7C576.9,167,578.4,169.3,576.1,172.3z"/>
							</g>
						</g>
					</g>
				</g>
			</g>
		</g>
	</g>
	<g>
		<g>
			<g>
				<g>
					<g>
						<g>
							<g>
								<g>
									<g>
										<g>
											<path class="st23" d="M612.7,231.5c0.7,0.6,1.4,1.2,2.2,1.8c0.2,0.1,0.4,0.3,0.6,0.4c1.2,0.9,2.6,1.8,4,2.7
												c0.2,0.1,0.4,0.2,0.6,0.4c5.4,3.1,12.1,5.5,19.4,6.9c1.7,0.3,3.4,0.6,5.2,0.8c2,0.2,4,0.4,6,0.5c1.5,0.1,3,0.1,4.5,0.1
												c0.3,0,0.6,0,0.9,0c8.8-0.3,17.8-2.1,25.9-6c0.1,0,0.2-0.1,0.3-0.2c0.1-0.2,0.1-0.3,0.2-0.5c1.7-5,3.4-16.8,4.6-26.8
												c0-0.2,0.1-0.5,0.1-0.7c0.6-4.4,1-8.4,1.3-11.2c0-0.3,0.1-0.5,0.1-0.8c0.1-0.5,0.1-0.9,0.1-1.3c0.2-1.6,0.3-3.1,0.4-4.7
												c0.5-7.5,0.4-15,0-22.9l-0.1-1.3c0-0.1,0-0.2,0-0.4c0-0.2,0-0.5,0-0.7c-0.1-2.2-0.2-4.4-0.4-6.7c0-0.2,0-0.5,0-0.7v0
												c0-0.6-0.1-1.3-0.1-1.9c0-0.3,0-0.6-0.1-1c-0.2-2.9-0.4-5.9-0.6-9c-0.7-11.1-3.7-18.8-9-22.3c-0.2-0.2-0.5-0.3-0.7-0.4
												c0,0,0,0,0,0c-1.3-0.7-2.6-1.2-4.2-1.5c-0.2,0-0.3-0.1-0.5-0.1c-0.2,0-0.5-0.1-0.7-0.1c-2.2-0.4-4.1-1-5.7-1.6
												c-0.2-0.1-0.4-0.1-0.5-0.2c-0.2-0.1-0.4-0.2-0.7-0.3c-0.3-0.1-0.7-0.3-1-0.4c-0.3-0.1-0.5-0.3-0.8-0.4
												c-2.6-1.3-4.1-2.6-4.1-2.6h-18.3c-1.6,2.3-3.6,3.7-5.7,4.8c-0.2,0.1-0.5,0.2-0.7,0.3c-0.4,0.2-0.7,0.3-1.1,0.4
												c-0.9,0.3-1.7,0.6-2.6,0.9c-0.2,0.1-0.5,0.1-0.7,0.2c-5.2,1.5-10,2.5-11.2,8.6c-0.6,2.9,0.5,7.7,1.4,15.5
												c0,0.3,0.1,0.6,0.1,0.9c0.2,1.4,0.3,2.9,0.4,4.5c0,0.3,0,0.5,0.1,0.8c0.3,4,0.5,8.6,0.4,13.9c0,1.5-0.1,3.1-0.2,4.7
												c-0.1,1.5-0.2,3.1-0.3,4.7c-0.1,1.5-0.3,3.1-0.4,4.7c-0.1,1.4-0.3,2.8-0.5,4.3c-0.1,0.9-0.2,1.9-0.4,2.8v0
												c0,0.3-0.1,0.5-0.1,0.8c0,0.3-0.1,0.7-0.1,1c-0.2,1.4-0.4,3-0.7,4.9c0,0.2-0.1,0.5-0.1,0.7c-0.3,2.2-0.7,4.6-1.2,7.2
												c0,0.2-0.1,0.5-0.1,0.7c-0.8,4.9-1.8,10.3-2.8,15.3c-0.1,0.3-0.1,0.6-0.2,0.9C614.1,225.4,613.4,228.7,612.7,231.5z"/>
										</g>
									</g>
								</g>
							</g>
						</g>
					</g>
				</g>
			</g>
		</g>
	</g>
	<g>
		<g>
			<g>
				<path class="st4" d="M634,90.3c0,0-5.2-2.3-5-6.2c0.2-2.7,2.5-2.3,2.5-2.3s-3.2-3.9-1.8-5.5c1.4-1.6,2.7,0,2.7,0s-0.9-8,1.6-9.1
					c2.5-1.1,4.1,2.7,4.1,2.7s2.5-6.2,6.4-5.7c3.9,0.5,3.2,3.4,3.2,3.4s4.6-3,8.9-1.1c4.3,1.8,2.3,4.3,2.3,4.3s5,0.7,7.5,3.4
					c2.5,2.7-1.1,5-1.1,5s5,1.1,5,4.8c0,3.7-3.9,2.7-3.9,2.7s5,6.8,2.3,9.6c-2.7,2.7-5-1.4-5-1.4s5.6,10.3,1.5,12.4
					c-4.1,2.1-7.5-3.7-7.5-3.7L634,90.3z"/>
				<g>
					<g>
						<g>
							<g>
								<g>
									<path class="st20" d="M640.2,94.1c0,0-1.4-5.2-5.6-4.2c-4.2,1-5,14.8,2.9,14.8L640.2,94.1z"/>
								</g>
							</g>
						</g>
					</g>
				</g>
				<g>
					<g>
						<g>
							<g>
								<g>
									<path class="st19" d="M660.3,119.7c0,0,1,1.8-6.8,3.9c-4.1,1.1-9,0.1-11.5-1.4c-1-0.6-1.6-1-1.6-1c1.3-5.9,0.2-9.7,0-10.6
										c0-0.1-0.1-0.2-0.1-0.2l20.2-10L660.3,119.7z"/>
								</g>
							</g>
						</g>
					</g>
				</g>
				<g>
					<g>
						<g>
							<g>
								<g>
									<path class="st4" d="M657.6,108.3c0,0-4.9,13.3-15.6,14c-1-0.6-1.6-1-1.6-1c1.3-5.9,0.2-9.7,0-10.6L657.6,108.3z"/>
								</g>
							</g>
						</g>
					</g>
				</g>
				<g>
					<g>
						<g>
							<g>
								<path class="st19" d="M649.8,115.2c-8.3,1.5-14.9-2.1-15.6-9.2c-0.2-1.7-0.2-4.2-0.2-6.8c0,0,0-0.1,0-0.1c0-0.6,0-1.1,0-1.7
									c0-0.4,0-0.8,0-1.2c0.1-4.6,0.2-8.8,0.2-8.8c1.3-11.5,12.7-15.6,21.8-11.2c9.1,4.5,5.4,18.4,5.3,25.2
									C661.1,108.3,656.9,113.9,649.8,115.2z"/>
							</g>
						</g>
					</g>
				</g>
				<path class="st6" d="M648.1,101.6c0,0-1.2,3.8-4.3,4.4c-3.5,0.7-4.3-3.7-4.3-3.7L648.1,101.6z"/>
				<path class="st4" d="M650.4,90.3c2.4,0.5,3-2,0.9-3.3c-1-0.6-2-1.1-3.1-1.1c-3.1,0-3.2,2.2-1.6,3.1
					C647.2,89.3,649,90,650.4,90.3z"/>
				<path class="st4" d="M637,89c-2.4,0.2-2.8-2.4-0.5-3.4c1-0.5,2.2-0.9,3.2-0.7c3.1,0.4,2.9,2.5,1.3,3.2
					C640.2,88.4,638.4,88.9,637,89z"/>
				<g>
					<g>
						<g>
							<g>
								<g>
									<path class="st20" d="M634.8,99.3c-0.3,0-0.6-0.1-0.9-0.1c0,0,0-0.1,0-0.1c0-0.6,0-1.1,0-1.7c0-0.4,0-0.8,0-1.2
										c0.4,0,0.8,0,1.2,0c2.1,0.2,3.7,1,3.7,1.8C638.7,98.9,636.9,99.5,634.8,99.3z"/>
								</g>
							</g>
						</g>
					</g>
				</g>
				<g>
					<g>
						<g>
							<g>
								<g>
									<path class="st4" d="M641.8,100c-0.1,0-0.1,0-0.2-0.1c-1.9-1.3-2.2-2-2.3-2.1c0-0.1,0-0.2,0-0.4l2.7-4.1c0,0,0,0,0,0
										c0.6-0.7,0.7-2.1,0.8-3.8c0-0.2,0.2-0.4,0.4-0.4c0.2,0,0.4,0.2,0.4,0.4c-0.1,1.8-0.2,3.3-0.9,4.2l-2.6,3.9
										c0.2,0.2,0.7,0.8,1.9,1.6c0.2,0.1,0.2,0.3,0.1,0.5C642.1,100,642,100,641.8,100z"/>
								</g>
							</g>
						</g>
					</g>
				</g>
				<g>
					<g>
						<g>
							<g>
								<g>
									<path class="st20" d="M656.7,97.7c-0.1,0.8-1.8,1.4-3.9,1.2c-2.1-0.2-3.7-1-3.7-1.8c0.1-0.8,1.8-1.4,3.9-1.2
										C655.1,96.1,656.7,96.9,656.7,97.7z"/>
								</g>
							</g>
						</g>
					</g>
				</g>
				<g>
					<path class="st4" d="M634.1,88.2L634.1,88.2c-0.3-2.4-0.5-6.8,3.4-11.2c5.7-6.6,17.5-6.2,22.2,0.5C664.3,84.2,662,90,662,90
						s-1.9,0.7-2.8,4.4l-2.5-0.1c0,0-0.9-3.1,0-8.1c1-5-7.9-10.1-13.9-8.9c-6,1.1-7.9,6.6-7.9,6.6S634.2,85.9,634.1,88.2z"/>
				</g>
				<g>
					<g>
						<g>
							<path class="st4" d="M653.6,80.1c0,0-4.2-1.6-6.2-0.8c-2,0.8-5,1.8-7.2,0.2c-2.2-1.6-4.8,3.1-4.8,3.1s2.8-8.4,9.8-6.7
								C652.1,77.8,652.1,77.1,653.6,80.1z"/>
						</g>
					</g>
				</g>
				<g>
					<g>
						<g>
							<g>
								<g>
									<path class="st20" d="M642.8,107.6c-0.2,0-0.3-0.1-0.3-0.1c-0.2-0.1-0.3-0.3-0.2-0.5c0.1-0.2,0.3-0.3,0.5-0.2
										c0.1,0,1.3,0.5,2.3-0.4c0.2-0.1,0.4-0.1,0.5,0c0.1,0.2,0.1,0.4,0,0.5C644.5,107.9,643.3,107.8,642.8,107.6z"/>
								</g>
							</g>
						</g>
					</g>
				</g>
				<g>
					<g>
						<g>
							<g>
								<g>
									<path class="st19" d="M659.7,92.1c0,0,2.4-3.8,6.3-1.9c3.9,1.9,1.6,15.6-6.2,13.7L659.7,92.1z"/>
								</g>
							</g>
						</g>
					</g>
				</g>
				<g>
					<g>
						<g>
							<g>
								<g>
									<g>
										<path class="st4" d="M661.4,99C661.3,99,661.3,99,661.4,99c-0.3-0.1-0.4-0.3-0.3-0.5c0.1-0.2,1.3-4.1,4.9-4.7
											c0.2,0,0.4,0.1,0.4,0.3c0,0.2-0.1,0.4-0.3,0.4c-3.2,0.5-4.3,4.1-4.3,4.2C661.7,98.9,661.5,99.1,661.4,99z"/>
									</g>
								</g>
							</g>
						</g>
					</g>
					<g>
						<g>
							<g>
								<g>
									<g>
										<path class="st4" d="M664.7,97.8c-0.1,0-0.2,0-0.3-0.1c0,0-0.7-0.8-1.5-1.6c-0.1-0.1-0.2-0.4,0-0.5c0.1-0.1,0.4-0.2,0.5,0
											c0.9,0.8,1.6,1.6,1.6,1.6c0.1,0.2,0.1,0.4,0,0.5C664.9,97.8,664.8,97.8,664.7,97.8z"/>
									</g>
								</g>
							</g>
						</g>
					</g>
				</g>
				<g>
					<g>
						<g>
							<g>
								<g>
									<path class="st4" d="M648.5,94.3c0,0.8-0.4,1.5-0.9,1.5c-0.5,0-0.9-0.7-0.8-1.5c0-0.8,0.4-1.5,0.9-1.5
										C648.1,92.8,648.5,93.5,648.5,94.3z"/>
								</g>
							</g>
						</g>
					</g>
				</g>
				<g>
					<g>
						<g>
							<g>
								<g>
									<path class="st4" d="M638.8,94.3c0,0.8-0.4,1.5-0.9,1.5c-0.5,0-0.9-0.7-0.8-1.5c0-0.8,0.4-1.5,0.9-1.5
										C638.5,92.8,638.8,93.5,638.8,94.3z"/>
								</g>
							</g>
						</g>
					</g>
				</g>
			</g>
		</g>
	</g>
	<g>
		<g>
			<g>
				<g>
					<path class="st24" d="M649.3,130.7c7.3,0,12.9-8,13.2-8.3c0.2-0.2,0.1-0.6-0.1-0.7c-0.2-0.2-0.6-0.1-0.7,0.1
						c-0.1,0.1-5.8,8.2-12.8,7.9c-6.9-0.3-8.5-5.8-8.6-6c-0.1-0.3-0.4-0.4-0.6-0.4c-0.3,0.1-0.4,0.4-0.4,0.6c0,0.1,1.9,6.4,9.5,6.7
						C649,130.7,649.2,130.7,649.3,130.7z"/>
				</g>
			</g>
		</g>
	</g>
	<g>
		<g>
			<g>
				<g>
					<path class="st24" d="M636.8,225.4c6.9,0,14.4-1.9,22.3-5.8c10.9-5.3,18.8-12.5,18.9-12.6c0.2-0.2,0.2-0.5,0-0.7
						c-0.2-0.2-0.5-0.2-0.7,0c-0.1,0.1-7.9,7.2-18.6,12.4c-9.9,4.8-24.3,9.1-36.9,1.9c-0.2-0.1-0.6-0.1-0.7,0.2
						c-0.1,0.2-0.1,0.6,0.2,0.7C625.9,224.1,631.1,225.4,636.8,225.4z"/>
				</g>
			</g>
		</g>
	</g>
	<g>
		<g>
			<g>
				<g>
					<path class="st24" d="M635.3,219.6C635.3,219.6,635.3,219.6,635.3,219.6c10.8-0.2,19.5-14.5,19.9-15.1c0.1-0.2,0.1-0.6-0.2-0.7
						c-0.2-0.1-0.6-0.1-0.7,0.2c-0.1,0.1-8.8,14.4-19,14.6c-0.3,0-0.5,0.2-0.5,0.5C634.8,219.4,635,219.6,635.3,219.6z"/>
				</g>
			</g>
		</g>
	</g>
	<g>
		<g>
			<g>
				<g>
					<g>
						<path class="st24" d="M620.1,191.1c1.5-0.6,2.9-1.4,4.1-2.5c2.9-2.5,3.9-5.5,2.7-8.4c-0.2-0.6-0.5-1.1-0.7-1.6
							c-2.4-5.9-2.7-6.5-0.6-14.9c0.7-2.6,0.3-4.9-0.9-6.7c-0.9-1.2-2-2.1-3.2-2.6c0,0.3,0,0.5,0.1,0.8c1,0.5,1.9,1.3,2.6,2.2
							c1.1,1.6,1.4,3.7,0.8,6.1c-2.1,8.6-1.8,9.4,0.6,15.3c0.2,0.5,0.4,1,0.7,1.6c1.4,3.5-0.9,6.3-2.5,7.6c-1,0.9-2.3,1.6-3.5,2.2v0
							C620.2,190.6,620.2,190.8,620.1,191.1z"/>
					</g>
				</g>
			</g>
		</g>
		<g>
			<g>
				<g>
					<g>
						<path class="st24" d="M675.9,196.5c1.5,2.3,4.2,4,7.8,4c1.5,0,3-0.3,4.7-0.9c0-0.3,0.1-0.5,0.1-0.8c-5.7,2.2-10,0.4-12-2.7
							c-1.9-3-1.4-6.4,1.3-8.5c3.7-2.8,2.7-5,1.7-7.4c-1-2.3-2.1-4.8,0.5-8.4c1.5-2.1,3.3-3.4,5.4-3.8c1.3-0.2,2.5-0.1,3.6,0.2
							c0-0.2,0-0.5,0-0.7c-1.1-0.3-2.4-0.4-3.7-0.1c-2.3,0.4-4.3,1.8-5.8,4.1c-2.7,4-1.5,6.8-0.5,9.1c1,2.3,1.8,4.1-1.5,6.6
							C674.1,189.6,674.1,193.7,675.9,196.5z"/>
					</g>
				</g>
			</g>
		</g>
		<g>
			<g>
				<g>
					<g>
						<path class="st24" d="M643.6,193c1.1,3.3,4.4,5.4,8,5.2c0.5,0,1.1-0.1,1.7-0.2c4.7-0.9,10.6-4.2,13.5-8.9
							c2.3-3.6,2.7-7.7,1.1-11.8c-2.3-6.1-3.2-11.5-2.7-15.7c0.3-2.4-1-4.7-3.2-5.6c-2.3-1-4.8-0.4-6.3,1.5
							c-0.1,0.1-0.2,0.2-0.3,0.3c-4.1,5-3.2,9.5-2.4,13.4c0.8,4.1,1.5,7.6-3.8,10.9C644.4,185.1,642.3,189.2,643.6,193z
							 M649.6,182.7c5.6-3.6,4.9-7.5,4.1-11.7c-0.8-4-1.6-8,2.3-12.8c0.1-0.1,0.2-0.2,0.2-0.3c0.7-0.9,1.7-1.4,2.7-1.6
							c0.9-0.2,1.9-0.1,2.8,0.3c2,0.9,3.1,2.8,2.8,4.9c-0.3,2.4-0.1,5.1,0.5,8.2c0.5,2.4,1.2,5,2.3,7.8c1.5,4,1.1,7.7-1.1,11.2
							c-3.2,5-10,8.4-14.7,8.8c-3.2,0.2-6.3-1.7-7.3-4.7C643.1,189.3,645.1,185.5,649.6,182.7z"/>
					</g>
				</g>
			</g>
		</g>
		<g>
			<g>
				<g>
					<g>
						<path class="st24" d="M621,149c0,0.3,0.1,0.6,0.1,0.9c2.1,1.4,4.3,1.8,6.1,1.8c0.9,0,1.7-0.1,2.4-0.2c4.7-0.9,8.4-4.3,8.8-6.7
							c0.2-0.9-0.2-1.7-0.9-2.1c-4.2-2.6-5.5-6.1-4.7-13.1c0.2-1.9-0.2-3.5-1.3-4.8c-0.2,0.1-0.5,0.1-0.7,0.2c0,0.1,0.1,0.1,0.1,0.2
							c1,1.1,1.4,2.6,1.2,4.4c-0.8,7.4,0.5,11,5,13.8c0.5,0.3,0.7,0.8,0.6,1.4c-0.4,2.2-4,5.3-8.3,6.2
							C627.4,151.2,624.1,151.3,621,149z"/>
					</g>
				</g>
			</g>
		</g>
		<g>
			<g>
				<g>
					<g>
						<path class="st24" d="M644.5,155.1c0.6,1.1,1.9,1.7,3.3,1.7c0.5,0,0.9-0.1,1.4-0.2c2.4-0.7,3.7-3,3.5-6.1
							c-0.2-3.2,1.7-4.3,3.5-5.4c1.6-1,3.3-1.9,2.6-4.4c-0.5-1.9-1.9-3-4-3.2c-2.5-0.3-5,0.8-6.6,2.8
							C645.4,143.7,642,150.8,644.5,155.1z M648.7,140.7c1.3-1.6,3.3-2.6,5.3-2.6c0.2,0,0.5,0,0.7,0c1.9,0.2,3,1.1,3.4,2.7
							c0.5,1.9-0.7,2.6-2.3,3.6c-1.8,1.1-4.1,2.4-3.9,6.1c0.2,2.8-1,4.8-3,5.4c-1.5,0.5-3.2,0-3.9-1.2
							C642.7,150.8,646.1,144,648.7,140.7z"/>
					</g>
				</g>
			</g>
		</g>
		<g>
			<g>
				<g>
					<g>
						<path class="st24" d="M629.7,176.7c0,1.8,0.4,3.4,1.5,4.4c1.6,1.5,3.3,2.3,4.7,2.3c0.6,0,1.1-0.2,1.6-0.5
							c1.3-0.9,1.4-3.1,0.2-5.9c-1.4-3.3,0.8-4.8,3-6.3c1.9-1.3,3.9-2.7,3.5-5.2c-0.3-1.8-1.6-2.9-3.9-3.2c-3.8-0.4-7.4,1.9-8.7,5.5
							C630.6,170.6,629.7,174,629.7,176.7z M632.2,168c0.5-1.5,1.5-2.8,2.8-3.7c1.3-0.9,2.8-1.4,4.3-1.4c0.3,0,0.6,0,0.9,0.1
							c2,0.2,3,1.1,3.3,2.6c0.4,2.1-1.4,3.3-3.2,4.5c-2.3,1.6-4.8,3.3-3.2,7.1c1.1,2.5,1.1,4.4,0,5.1c-1.2,0.8-3.4,0.1-5.4-1.8
							C629.7,178.9,629.9,174.4,632.2,168z"/>
					</g>
				</g>
			</g>
		</g>
		<g>
			<g>
				<g>
					<g>
						<path class="st24" d="M617.9,205.6c2.9-0.4,3.5,1.1,4.4,3.4c0.8,2,1.8,4.5,4.9,5.9c1.1,0.5,2.1,0.7,3.2,0.7
							c2.8,0,5.3-1.5,6.8-3.5c2-2.7,2-5.8,0-8.1c-0.9-1-1.3-1.9-1.2-2.6c0.1-1.1,1.1-1.9,2.2-2.8c1.5-1.2,3.2-2.7,2.6-5
							c-0.4-1.9-1.7-3.2-3.6-3.8c-3.2-0.9-7.2,0.5-10.3,3.6c-2.7,2.6-5.5,3.4-7.5,3.6c0,0.2-0.1,0.5-0.1,0.7c2.2-0.2,5.3-1,8.1-3.8
							c2.4-2.3,5.3-3.7,7.8-3.7c0.6,0,1.2,0.1,1.8,0.2c1.6,0.5,2.8,1.6,3.1,3.3c0.5,2-0.9,3.1-2.4,4.4c-1.1,0.9-2.3,1.9-2.4,3.3
							c-0.1,1,0.4,2,1.4,3.1c2.1,2.4,1.4,5.3,0,7.2c-1.9,2.5-5.7,4.2-9.2,2.6c-2.9-1.3-3.8-3.6-4.6-5.6c-0.9-2.2-1.7-4.2-4.9-3.8
							C617.9,205.1,617.9,205.4,617.9,205.6z"/>
					</g>
				</g>
			</g>
		</g>
		<g>
			<g>
				<g>
					<g>
						<path class="st24" d="M658,202.4c0,1.2,0.5,2.2,1.5,2.7c0.5,0.3,1.1,0.4,1.8,0.4c1.5,0,3.3-0.6,4.9-1.8
							c1.6-1.2,2.9-0.8,4.7-0.1c1.7,0.6,3.9,1.4,7,0.7c3.5-0.8,4.6-3.6,4.2-6c-0.4-2.1-2.1-4.2-5-3.9c-2.1,0.2-3.6,1-4.9,1.6
							c-2,1-3.8,1.8-7.1,0.9c-1.7-0.5-3.1-0.3-4.3,0.5C658.4,198.9,658,202.2,658,202.4C658,202.4,658,202.4,658,202.4z
							 M658.7,202.4c0-0.3,0.5-3.2,2.5-4.5c1-0.7,2.3-0.8,3.8-0.4c3.6,1,5.6,0.1,7.6-0.9c1.3-0.6,2.7-1.3,4.7-1.5
							c2.5-0.3,4,1.5,4.3,3.4c0.3,2-0.7,4.5-3.7,5.2c-2.9,0.6-4.9-0.1-6.6-0.7c-1-0.4-1.9-0.7-2.9-0.7c-0.8,0-1.6,0.2-2.5,0.9
							c-2.1,1.6-4.6,2.1-6,1.4C659.1,204.1,658.7,203.4,658.7,202.4z"/>
					</g>
				</g>
			</g>
		</g>
		<g>
			<g>
				<g>
					<g>
						<path class="st24" d="M679.5,227c-3.1,3.3-3,7.7-1.1,10.1c0.9,1.1,2.1,1.8,3.5,1.9c0.1,0,0.2-0.1,0.3-0.2
							c0.1-0.2,0.1-0.3,0.2-0.5c-1.4,0-2.6-0.5-3.5-1.6c-1.7-2.1-1.7-6.2,1.1-9.2c2.9-3.1,1.4-4.5-0.1-6.1c-1.4-1.4-2.9-2.9-2-6
							c0.5-1.5,1.4-2.7,2.7-3.3c1.2-0.6,2.5-0.8,3.8-0.8c1,0,1.9,0.1,2.6,0.2c0-0.2,0.1-0.5,0.1-0.7c-1.9-0.3-4.6-0.5-6.8,0.6
							c-1.5,0.8-2.5,2-3,3.8c-1,3.5,0.7,5.3,2.1,6.7C681,223.4,682,224.4,679.5,227z"/>
					</g>
				</g>
			</g>
		</g>
		<g>
			<g>
				<g>
					<g>
						<path class="st24" d="M619.4,236.4c0.2,0.1,0.4,0.2,0.6,0.4c0.2-1,1-3.2,2.8-4.4c1.5-1,3.5-1.1,6-0.3c3.2,1.1,4.4,2.7,5.5,4.2
							c1.8,2.5,3.1,3.8,9.7,1.2c2.5-1,4.7-1.4,6.6-1.4c3,0,5.1,1.1,6,2.5c1.1,1.8,0.6,4.1-1.5,6.3c0.3,0,0.6,0,0.9,0
							c1.9-2.3,2.4-4.7,1.1-6.6c-1.6-2.6-6.5-4.1-13.4-1.4c-6.4,2.5-7.3,1.2-8.9-1c-1.1-1.5-2.4-3.4-5.8-4.5
							c-2.6-0.9-4.8-0.8-6.6,0.3C620.5,233.1,619.7,235.2,619.4,236.4z"/>
					</g>
				</g>
			</g>
		</g>
		<g>
			<g>
				<g>
					<g>
						<path class="st24" d="M659.3,233.6c0.5,2,2.9,4,5.6,4c0.1,0,0.2,0,0.4,0c4.2-0.3,7.1-3,8.3-7.6c0.9-3.6,1.3-7.2-1.7-9.5
							c0,0,0,0-0.1,0c-0.1-0.1-3.7-1.8-6.3-0.7c-1.1,0.5-1.9,1.3-2.3,2.6c-0.8,2.2-0.4,3.8-0.1,4.9c0.4,1.4,0.5,2-1.7,2.9
							C659.7,230.9,658.9,232.1,659.3,233.6z M661.6,230.9c2.6-1.1,2.5-2.1,2.1-3.7c-0.3-1.1-0.6-2.5,0.1-4.5c0.4-1.1,1-1.8,2-2.2
							c2.3-0.9,5.4,0.5,5.7,0.6c2.2,1.6,2.6,4.2,1.4,8.7c-0.8,3.1-2.7,6.8-7.7,7.1c-2.5,0.2-4.8-1.7-5.3-3.5
							C659.7,232.3,660.2,231.4,661.6,230.9z"/>
					</g>
				</g>
			</g>
		</g>
		<g>
			<g>
				<g>
					<g>
						<path class="st24" d="M614.9,233.4c0.2,0.1,0.4,0.3,0.6,0.4c1.7-1.3,2.7-3,2.8-4.9c0.2-3.1-1.8-6.2-3.2-7.9
							c-0.1,0.3-0.1,0.6-0.2,0.9c1.3,1.7,2.8,4.4,2.7,7C617.4,230.6,616.6,232.1,614.9,233.4C614.9,233.3,614.9,233.3,614.9,233.4z"
							/>
					</g>
				</g>
			</g>
		</g>
	</g>
	<g>
		<g>
			<path class="st19" d="M648,188.8l0.8,0.6l0.8,0.5l1.5,1c1,0.6,2,1.3,3,1.9c2,1.2,4.1,2.4,6.2,3.5c4.2,2.3,8.6,4.3,13.3,6.1
				c2.4,0.9,4.8,1.7,7.5,2.3c2.7,0.6,5.5,1.1,8.8,1.1c1.6,0,3.4-0.1,5.2-0.5c1.8-0.4,3.8-1,5.7-1.9c1-0.5,1.9-1.1,2.8-1.7
				c0.4-0.3,0.9-0.7,1.3-1.1c0.2-0.2,0.4-0.4,0.6-0.6l0.1-0.1c0.1-0.1,0.2-0.2,0.3-0.4c0.2-0.2,0.4-0.5,0.6-0.7
				c0.4-0.5,0.7-1,0.9-1.4c0.1-0.2,0.2-0.5,0.3-0.7c0.1-0.2,0.2-0.4,0.3-0.6l0.1-0.3l0.1-0.3c0.1-0.2,0.1-0.4,0.2-0.5
				c0.1-0.3,0.2-0.6,0.2-0.9c0.1-0.3,0.1-0.5,0.1-0.8c0.2-1,0.2-1.7,0.2-2.4c0-0.7,0-1.2-0.1-1.7c0-0.5-0.1-1-0.2-1.4
				c-0.3-1.7-0.6-3.1-0.9-4.4c-0.3-1.3-0.7-2.5-1.1-3.7c-0.8-2.4-1.6-4.6-2.4-6.8c-1.7-4.4-3.4-8.6-5.3-12.8
				c-1.8-4.2-3.7-8.3-5.6-12.4c-1-2-1.9-4.1-2.9-6.1l-1.5-3.1l-1.5-3.1c-2.7-5.5-9.3-7.7-14.8-5.1c-5.5,2.7-7.7,9.3-5.1,14.8
				c0.1,0.1,0.1,0.2,0.2,0.4l0.1,0.1l1.5,2.8l1.5,2.9c1,1.9,2,3.9,3,5.8c2,3.9,3.9,7.8,5.8,11.7c1.9,3.9,3.7,7.8,5.3,11.7
				c0.8,1.9,1.6,3.8,2.3,5.7c0,0,0,0.1,0,0.1c-0.8-0.1-1.6-0.2-2.5-0.4c-1.7-0.3-3.5-0.8-5.3-1.4c-3.6-1.2-7.4-2.8-11.1-4.6
				c-1.8-0.9-3.7-1.9-5.5-2.9c-0.9-0.5-1.8-1-2.7-1.5l-1.3-0.8l-1.2-0.8l-0.3-0.2c-4.3-2.6-9.8-1.3-12.5,2.9
				C642.8,180.7,644,186.1,648,188.8z"/>
		</g>
	</g>
	<g>
		<g>
			<g>
				<path class="st20" d="M695.7,190c0.2,0,0.3-0.1,0.4-0.2c0.1-0.2,0.1-0.5-0.2-0.7c-2.9-1.8-7.5-3.2-7.7-3.2
					c-0.3-0.1-0.5,0.1-0.6,0.3c-0.1,0.3,0.1,0.5,0.3,0.6c0,0,4.7,1.4,7.4,3.1C695.5,190,695.6,190,695.7,190z"/>
			</g>
		</g>
		<g>
			<g>
				<path class="st20" d="M688.6,186.9c0.1,0,0.2,0,0.3-0.1c1.9-1.2,5.4-0.9,5.4-0.9c0.3,0,0.5-0.2,0.5-0.5c0-0.3-0.2-0.5-0.5-0.5
					c-0.2,0-3.8-0.3-6,1.1c-0.2,0.1-0.3,0.5-0.2,0.7C688.3,186.8,688.4,186.9,688.6,186.9z"/>
			</g>
		</g>
	</g>
	<g>
		<g>
			<g>
				<g>
					<g>
						<g>
							<path class="st19" d="M638.4,175.2c3.7,3,2.3,8.5,6.2,10.3c2.9,1.4,8.5,2.1,11.8-2.5c2.4-3.3,2.3-7.7,0.1-11.1
								c-2.1-3.2-5.5-7.9-9.1-11c-5.6-4.9-12.1-8.3-13.1-6.3c-1,2,4.9,4.3,6.9,7.5c0,0-1-0.9-1.8,0.7c-0.8,1.5-0.2,2.8-0.2,2.8
								s-1.2,0.4-1.5,1.3c-0.3,1,0.2,2.3,0.2,2.3s-1.8,0.7-1.9,2.1C635.7,172.8,635.9,173.2,638.4,175.2z"/>
						</g>
					</g>
				</g>
			</g>
		</g>
		<g>
			<g>
				<g>
					<g>
						<path class="st19" d="M657.9,175.6c0,0-2.7-11.8-6.3-13.3c-3.7-1.5-5.3-1.6-5.3-1.6L657.9,175.6z"/>
					</g>
				</g>
			</g>
		</g>
	</g>
	<g>
		<g>
			<g>
				<g>
					<path class="st4" d="M661.6,176.1c0,0-3.3,9.7-9.6,15.1c-1.4,0-3-1.1-3.9-2.2c0,0,6.5-5.6,9.9-15.5
						C659.6,173.9,660.8,174.8,661.6,176.1z"/>
				</g>
			</g>
		</g>
		<g>
			<g>
				<g>
					<path class="st4" d="M654.2,175.6c-1.3,2-0.2,5,2.4,6.7c2.6,1.7,5.8,1.4,7.1-0.6c1.3-2,0.2-5-2.4-6.7
						C658.6,173.3,655.4,173.6,654.2,175.6z"/>
				</g>
			</g>
		</g>
		<g>
			<g>
				<g>
					<g>
						<g>
							<g>
								<g>
									<g>
										<g>
											<g>
												<g>
													<path class="st6" d="M657.3,181.2c1.9,1.2,4.2,1,5.1-0.4c0.9-1.4,0.1-3.6-1.8-4.8c-1.9-1.2-4.2-1-5.1,0.4
														C654.6,177.9,655.4,180,657.3,181.2z"/>
												</g>
											</g>
										</g>
									</g>
								</g>
							</g>
						</g>
					</g>
				</g>
			</g>
		</g>
	</g>
	<g>
		<g>
			<path class="st23" d="M677.1,171l1.6-0.6l0.6-0.3l10.8-4.3l0.7-0.3l11.9-4.7c-0.7-2.2-1.6-4.5-3.9-9.4c-0.2-0.4-0.4-0.8-0.6-1.3
				c-1.3-2.8-3-6.3-5.3-10.9c-1.6-3.3-3.2-5.5-4.8-7.1c-0.2-0.2-0.3-0.3-0.5-0.5c-1-1-2.1-1.7-3.2-2.4c-4.9-3-11.3-2.5-15.5,1.4
				c-2.1,1.9-3.8,4.8-4,8.8C664.3,149.9,677.1,171,677.1,171z"/>
		</g>
	</g>
	<g>
		<g>
			<g>
				<g>
					<path class="st24" d="M664.3,127.5c0.6,4.4,3.4,11.8,8.3,12.8c1.2,0.3,2.5-0.2,3.5-1.2c0.3-0.3,0.6-0.7,0.8-1.2
						c1.1-2.2,0.3-4.7-2.1-6.7c-2.5-2.1-2-4.2-1.5-6.3c0.1-0.3,0.2-0.7,0.2-1c-0.2,0-0.5-0.1-0.7-0.1c-0.1,0.3-0.1,0.7-0.2,1
						c-0.5,2.1-1,4.6,1.8,7c2.1,1.8,2.8,4,1.9,5.9c-0.7,1.4-2.2,2.3-3.5,2c-4.5-1-7.1-8.1-7.7-12.3c-0.3-2,0.3-4,1.5-5.4
						c-0.2-0.1-0.4-0.2-0.7-0.3C664.5,123.3,664,125.4,664.3,127.5z"/>
				</g>
			</g>
		</g>
	</g>
	<g>
		<g>
			<g>
				<g>
					<path class="st24" d="M678.4,169c0.1,0.5,0.2,0.9,0.3,1.3l0.6-0.3c-0.1-0.4-0.2-0.8-0.2-1.2c-0.8-4-1.6-8,2.3-12.8
						c0.1-0.1,0.2-0.2,0.2-0.3c0.7-0.9,1.7-1.4,2.7-1.6c0.9-0.2,1.9-0.1,2.8,0.3c2,0.9,3.1,2.8,2.8,4.9c-0.2,1.9-0.2,4.1,0.2,6.4
						l0.7-0.3c-0.3-2.2-0.4-4.3-0.1-6.1c0.3-2.4-1-4.7-3.2-5.6c-2.3-1-4.8-0.4-6.3,1.5c-0.1,0.1-0.2,0.2-0.3,0.3
						C676.8,160.6,677.7,165,678.4,169z"/>
				</g>
			</g>
		</g>
	</g>
	<g>
		<g>
			<g>
				<g>
					<path class="st24" d="M683.5,148.8c0.7,0.6,1.5,0.7,2.3,0.3c4.3-2.2,7.7-1.6,13,2.2c-0.2-0.4-0.4-0.8-0.6-1.3
						c-5-3.4-8.4-3.8-12.7-1.6c-0.5,0.3-1,0.2-1.5-0.2c-1.7-1.5-2.4-6.2-1-10.3c0.6-1.7,2-4.3,5.1-5.9c-0.2-0.2-0.3-0.3-0.5-0.5
						c-2,1.1-3.3,2.6-4.2,4c-0.5,0.8-0.8,1.5-1,2.2C680.7,142.2,681.7,147.1,683.5,148.8z"/>
				</g>
			</g>
		</g>
	</g>
	<g>
		<g>
			<g>
				<path class="st24" d="M677.1,171.5c0.1,0,0.2,0,0.2-0.1c0.2-0.1,0.3-0.4,0.2-0.7l-10.9-20.4c-0.1-0.2-0.4-0.3-0.7-0.2
					c-0.2,0.1-0.3,0.4-0.2,0.7l10.9,20.4C676.7,171.4,676.9,171.5,677.1,171.5z"/>
			</g>
		</g>
		<g>
			<g>
				<path class="st24" d="M668.8,155.9c0.2,0,0.4-0.2,0.5-0.4c0.1-0.3-0.1-0.5-0.4-0.6l-3.4-0.7c-0.3-0.1-0.5,0.1-0.6,0.4
					c-0.1,0.3,0.1,0.5,0.4,0.6l3.4,0.7C668.8,155.9,668.8,155.9,668.8,155.9z"/>
			</g>
		</g>
	</g>
</g>
</svg>
