<svg width="698" height="504" viewBox="0 0 698 504" fill="none" xmlns="http://www.w3.org/2000/svg">
<g filter="url(#filter0_d)">
<mask id="mask0" mask-type="alpha" maskUnits="userSpaceOnUse" x="136" y="97" width="426" height="357">
<rect x="136" y="97" width="426" height="357" rx="10" fill="white"/>
<rect x="137" y="98" width="424" height="355" rx="9" stroke="black" stroke-opacity="0.1" stroke-width="2"/>
</mask>
<g mask="url(#mask0)">
</g>
<path d="M398.286 349.733H398.346C398.745 349.733 399.084 349.394 399.064 348.996L397.967 301.555L394.737 301.177L397.489 348.996C397.529 349.414 397.867 349.733 398.286 349.733Z" fill="#B0D4FF"/>
<path d="M417.106 349.733H417.166C417.565 349.733 417.904 349.394 417.884 348.996L416.787 301.555L413.558 301.177L416.309 348.996C416.349 349.414 416.708 349.733 417.106 349.733Z" fill="#95C0F4"/>
<path d="M365.17 349.733H365.11C364.711 349.733 364.373 349.394 364.392 348.996L365.489 301.555L368.719 301.177L365.967 348.996C365.928 349.414 365.589 349.733 365.17 349.733Z" fill="#B0D4FF"/>
<path d="M419.26 298.61V266.093C419.26 260.382 414.615 255.745 408.893 255.745H385.426C379.704 255.745 375.059 260.382 375.059 266.093V299.844L419.26 298.61Z" fill="#B0D4FF"/>
<path d="M370.832 303.744H416.15C417.865 303.744 419.26 302.351 419.26 300.639V298.609H370.832V303.744Z" fill="#95C0F4"/>
<path d="M365.389 303.744H399.661C400.937 303.744 401.974 302.709 401.974 301.436V300.898C401.974 299.625 400.937 298.59 399.661 298.59H365.389C364.113 298.59 363.076 299.625 363.076 300.898V301.436C363.096 302.709 364.133 303.744 365.389 303.744Z" fill="#CAE5FF"/>
<path d="M444.38 127.51H309.104V244.064H444.38V127.51Z" fill="#95C0F4"/>
<path d="M441.749 129.44H311.677V241.736H441.749V129.44Z" fill="#DFEDFB"/>
<path d="M357.134 178.315H328.644V142.774L333.468 138.436H357.134V178.315Z" fill="white"/>
<path d="M328.644 142.774H333.309L333.468 138.436L328.644 142.774Z" fill="#B0D4FF"/>
<path d="M347.464 141.898H338.333V142.336H347.464V141.898Z" fill="#B0D4FF"/>
<path d="M349.598 143.191H336.18V143.629H349.598V143.191Z" fill="#B0D4FF"/>
<path d="M354.303 151.549H332.013V152.106H354.303V151.549Z" fill="#B0D4FF"/>
<path d="M354.303 153.241H332.013V153.798H354.303V153.241Z" fill="#B0D4FF"/>
<path d="M354.303 154.933H332.013V155.49H354.303V154.933Z" fill="#B0D4FF"/>
<path d="M354.303 156.624H332.013V157.181H354.303V156.624Z" fill="#B0D4FF"/>
<path d="M354.303 174.753H332.013V175.31H354.303V174.753Z" fill="#B0D4FF"/>
<path d="M390.051 227.587H361.561V192.066L366.385 187.728H390.051V227.587Z" fill="white"/>
<path d="M361.561 192.066H366.226L366.385 187.728L361.561 192.066Z" fill="#B0D4FF"/>
<path d="M380.362 191.17H371.23V191.608H380.362V191.17Z" fill="#B0D4FF"/>
<path d="M382.515 192.483H369.097V192.921H382.515V192.483Z" fill="#B0D4FF"/>
<path d="M387.22 200.842H364.93V201.399H387.22V200.842Z" fill="#B0D4FF"/>
<path d="M387.22 202.533H364.93V203.09H387.22V202.533Z" fill="#B0D4FF"/>
<path d="M387.22 204.225H364.93V204.782H387.22V204.225Z" fill="#B0D4FF"/>
<path d="M387.22 205.916H364.93V206.473H387.22V205.916Z" fill="#B0D4FF"/>
<path d="M387.22 211.13H364.93V211.687H387.22V211.13Z" fill="#B0D4FF"/>
<path d="M387.22 212.821H364.93V213.379H387.22V212.821Z" fill="#B0D4FF"/>
<path d="M387.22 214.792H364.93V215.349H387.22V214.792Z" fill="#B0D4FF"/>
<path d="M406.12 138.436H390.39V152.286H406.12V138.436Z" fill="#B0D4FF"/>
<path d="M397.587 140.087C397.587 139.709 397.886 139.391 398.285 139.391C398.683 139.391 398.983 139.689 398.983 140.087C398.983 140.465 398.683 140.784 398.285 140.784C397.886 140.784 397.587 140.465 397.587 140.087Z" fill="#FFA412"/>
<path d="M405.648 156.635L389.955 157.729L390.921 171.546L406.614 170.452L405.648 156.635Z" fill="white"/>
<path d="M397.268 159.729C397.248 159.35 397.527 159.012 397.906 158.992C398.284 158.972 398.623 159.251 398.643 159.629C398.663 160.007 398.384 160.345 398.005 160.365C397.626 160.385 397.307 160.107 397.268 159.729Z" fill="#B0D4FF"/>
<path d="M353.331 207.661L337.638 208.755L338.604 222.572L354.297 221.479L353.331 207.661Z" fill="white"/>
<path d="M344.972 210.752C344.952 210.374 345.231 210.036 345.61 210.016C345.988 209.996 346.327 210.274 346.347 210.652C346.367 211.031 346.088 211.369 345.709 211.389C345.331 211.409 344.992 211.13 344.972 210.752Z" fill="#B0D4FF"/>
<path d="M333.543 217.587L317.813 217.748L317.956 231.597L333.685 231.436L333.543 217.587Z" fill="white"/>
<path d="M325.056 220.185C325.056 219.807 325.355 219.488 325.734 219.488C326.112 219.488 326.431 219.787 326.431 220.165C326.431 220.543 326.132 220.861 325.753 220.861C325.355 220.881 325.056 220.563 325.056 220.185Z" fill="#B0D4FF"/>
<path d="M413.97 164.985L411.529 178.619L427.015 181.381L429.455 167.747L413.97 164.985Z" fill="#EEF6FF"/>
<path d="M420.795 168.125C420.855 167.807 421.174 167.588 421.493 167.648C421.812 167.707 422.031 168.026 421.971 168.344C421.911 168.662 421.592 168.881 421.273 168.822C420.955 168.762 420.735 168.443 420.795 168.125Z" fill="#78ACEA"/>
<path d="M381.106 156.357L365.467 158.047L366.96 171.817L382.599 170.128L381.106 156.357Z" fill="#EEF6FF"/>
<path d="M372.905 159.131C372.865 158.812 373.104 158.514 373.443 158.474C373.782 158.434 374.061 158.673 374.101 159.011C374.141 159.33 373.902 159.628 373.563 159.668C373.224 159.688 372.945 159.469 372.905 159.131Z" fill="#78ACEA"/>
<path d="M340.233 189.088L324.849 192.361L327.742 205.907L343.127 202.633L340.233 189.088Z" fill="#BAE8E3"/>
<path d="M332.631 193.061C332.352 192.882 332.272 192.504 332.451 192.225C332.631 191.946 333.01 191.867 333.289 192.046C333.568 192.225 333.648 192.603 333.468 192.882C333.289 193.16 332.91 193.24 332.631 193.061Z" fill="#FFA412"/>
<path d="M381.538 152.286H366.545V142.236L370.692 138.436H381.538V152.286Z" fill="white"/>
<path d="M366.465 142.236H370.552L370.692 138.436L366.465 142.236Z" fill="#B0D4FF"/>
<path d="M374.101 139.709C374.101 139.431 374.32 139.212 374.599 139.212C374.878 139.212 375.098 139.431 375.098 139.709C375.098 139.988 374.878 140.207 374.599 140.207C374.32 140.207 374.101 139.988 374.101 139.709Z" fill="#B0D4FF"/>
<path d="M425.301 234.512H410.328V224.463L414.475 220.662H425.301V234.512Z" fill="white"/>
<path d="M410.248 224.463H414.335L414.475 220.662L410.248 224.463Z" fill="#B0D4FF"/>
<path d="M417.864 221.956C417.864 221.677 418.084 221.458 418.363 221.458C418.642 221.458 418.861 221.677 418.861 221.956C418.861 222.234 418.642 222.453 418.363 222.453C418.084 222.433 417.864 222.214 417.864 221.956Z" fill="#B0D4FF"/>
<path d="M432.139 214.573H417.146V204.543L421.293 200.723H432.139V214.573Z" fill="white"/>
<path d="M417.066 204.543H421.174L421.293 200.723L417.066 204.543Z" fill="#B0D4FF"/>
<path d="M424.702 202.016C424.702 201.737 424.921 201.519 425.201 201.519C425.48 201.519 425.699 201.737 425.699 202.016C425.699 202.295 425.48 202.514 425.201 202.514C424.921 202.514 424.702 202.275 424.702 202.016Z" fill="#B0D4FF"/>
<path d="M412.362 214.573H397.389V204.543L401.536 200.723H412.362V214.573Z" fill="#BAE8E3"/>
<path d="M397.309 204.543H401.396L401.535 200.723L397.309 204.543Z" fill="#A1D6CE"/>
<path d="M404.925 202.016C404.925 201.737 405.144 201.519 405.423 201.519C405.702 201.519 405.922 201.737 405.922 202.016C405.922 202.295 405.702 202.514 405.423 202.514C405.144 202.514 404.925 202.275 404.925 202.016Z" fill="#F99746"/>
<path d="M436.366 148.823H421.373V138.774L425.52 134.973H436.366V148.823Z" fill="#BAE8E3"/>
<path d="M421.293 138.774H425.4L425.52 134.973L421.293 138.774Z" fill="#A1D6CE"/>
<path d="M428.929 136.247C428.929 135.968 429.148 135.749 429.427 135.749C429.706 135.749 429.926 135.968 429.926 136.247C429.926 136.525 429.706 136.744 429.427 136.744C429.148 136.744 428.929 136.525 428.929 136.247Z" fill="#F99746"/>
<path d="M288.23 124.684H259.74C258.424 124.684 257.367 123.609 257.367 122.315V94.8534C257.367 93.54 258.444 92.4854 259.74 92.4854H288.23C289.546 92.4854 290.603 93.5599 290.603 94.8534V122.296C290.603 123.609 289.526 124.684 288.23 124.684Z" fill="#C0D8FB"/>
<path d="M286.994 123.29H260.976C259.78 123.29 258.803 122.315 258.803 121.121V96.047C258.803 94.853 259.78 93.8779 260.976 93.8779H286.994C288.191 93.8779 289.168 94.853 289.168 96.047V121.121C289.168 122.315 288.191 123.29 286.994 123.29Z" fill="#DFEBFD"/>
<path d="M273.277 96.8235C273.277 96.4454 273.576 96.127 273.975 96.127C274.354 96.127 274.673 96.4255 274.673 96.8235C274.673 97.2016 274.374 97.52 273.975 97.52C273.596 97.5001 273.277 97.2016 273.277 96.8235Z" fill="#B7D3F3"/>
<path d="M278.84 97.7986C279.019 97.4603 279.438 97.3409 279.777 97.5399C280.115 97.719 280.235 98.1369 280.036 98.4752C279.856 98.8135 279.438 98.9329 279.099 98.7339C278.78 98.5349 278.66 98.117 278.84 97.7986Z" fill="#B7D3F3"/>
<path d="M283.605 101.56C283.924 101.361 284.343 101.44 284.562 101.759C284.761 102.077 284.682 102.495 284.363 102.714C284.044 102.913 283.625 102.833 283.406 102.515C283.186 102.196 283.286 101.779 283.605 101.56Z" fill="#B7D3F3"/>
<path d="M285.958 107.41C286.336 107.41 286.655 107.709 286.655 108.107C286.655 108.485 286.356 108.803 285.958 108.803C285.579 108.803 285.26 108.505 285.26 108.107C285.28 107.709 285.579 107.41 285.958 107.41Z" fill="#B7D3F3"/>
<path d="M284.761 114.196C285.02 114.455 285.02 114.893 284.761 115.171C284.502 115.43 284.063 115.43 283.784 115.171C283.525 114.913 283.525 114.475 283.784 114.196C284.063 113.918 284.482 113.918 284.761 114.196Z" fill="#B7D3F3"/>
<path d="M280.435 118.514C280.694 118.773 280.694 119.211 280.435 119.489C280.176 119.748 279.737 119.748 279.458 119.489C279.199 119.231 279.199 118.793 279.458 118.514C279.737 118.256 280.156 118.256 280.435 118.514Z" fill="#B7D3F3"/>
<path d="M273.277 120.743C273.277 120.365 273.576 120.047 273.975 120.047C274.354 120.047 274.673 120.345 274.673 120.743C274.673 121.141 274.374 121.44 273.975 121.44C273.596 121.44 273.277 121.141 273.277 120.743Z" fill="#B7D3F3"/>
<path d="M269.091 97.7986C268.911 97.4603 268.493 97.3409 268.154 97.5399C267.815 97.719 267.695 98.1369 267.895 98.4752C268.074 98.8135 268.493 98.9329 268.832 98.7339C269.151 98.5349 269.27 98.117 269.091 97.7986Z" fill="#B7D3F3"/>
<path d="M264.325 101.56C264.006 101.361 263.588 101.44 263.368 101.759C263.169 102.077 263.249 102.495 263.568 102.714C263.887 102.913 264.306 102.833 264.525 102.515C264.724 102.196 264.644 101.779 264.325 101.56Z" fill="#B7D3F3"/>
<path d="M261.973 107.41C261.594 107.41 261.275 107.709 261.275 108.107C261.275 108.485 261.574 108.803 261.973 108.803C262.352 108.803 262.671 108.505 262.671 108.107C262.651 107.709 262.352 107.41 261.973 107.41Z" fill="#B7D3F3"/>
<path d="M263.169 114.196C262.91 114.455 262.91 114.893 263.169 115.171C263.428 115.43 263.867 115.43 264.146 115.171C264.405 114.913 264.405 114.475 264.146 114.196C263.867 113.918 263.428 113.918 263.169 114.196Z" fill="#B7D3F3"/>
<path d="M267.496 118.514C267.237 118.773 267.237 119.211 267.496 119.489C267.755 119.748 268.194 119.748 268.473 119.489C268.732 119.231 268.732 118.793 268.473 118.514C268.194 118.256 267.755 118.256 267.496 118.514Z" fill="#B7D3F3"/>
<path d="M273.796 108.107C273.796 107.729 274.095 107.41 274.494 107.41C274.873 107.41 275.192 107.709 275.192 108.107C275.192 108.485 274.892 108.803 274.494 108.803C274.095 108.783 273.796 108.485 273.796 108.107Z" fill="#B7D3F3"/>
<path d="M274.553 99.5098H274.374V108.107H274.553V99.5098Z" fill="#B7D3F3"/>
<path d="M278.792 104.284L274.229 107.86L274.573 108.299L279.136 104.722L278.792 104.284Z" fill="#B7D3F3"/>
<path d="M463.641 348.042C463.501 349.892 460.889 349.912 457.938 349.574C454.968 349.236 455.765 349.972 451.618 350.032C447.471 350.091 446.036 348.718 445.836 348.121C445.657 347.604 447.651 347.146 449.784 346.629C450.043 346.569 450.322 346.489 450.602 346.43C453.014 345.813 454.609 344.022 456.663 342.45C458.616 340.957 461.128 335.564 461.128 335.564L466.791 335.306C466.791 335.306 464.398 340.141 463.501 342.211C462.983 343.445 463.202 344.937 463.421 346.091C463.561 346.748 463.681 347.385 463.641 348.042Z" fill="#FFB27D"/>
<path d="M457.939 349.554C454.968 349.216 455.765 349.952 451.618 350.012C447.471 350.072 446.036 348.699 445.836 348.102C445.657 347.584 447.651 347.127 449.784 346.609L449.804 346.649C449.804 346.649 452.476 348.082 455.885 347.743C458.676 347.465 461.507 346.311 463.441 346.092C463.561 346.729 463.681 347.365 463.641 348.022C463.501 349.893 460.889 349.913 457.939 349.554Z" fill="#233862"/>
<path d="M502.778 348.419C502.639 350.27 500.027 350.289 497.076 349.951C494.105 349.613 494.903 350.349 490.756 350.429C486.609 350.488 485.174 349.115 484.974 348.538C484.795 348.021 486.788 347.563 488.922 347.046C489.181 346.986 489.46 346.906 489.739 346.847C492.152 346.23 493.747 344.439 495.8 342.847C497.754 341.354 495.8 332.519 495.8 332.519L502.041 331.922C502.041 331.922 501.742 339.364 501.742 342.728C501.742 344.061 502.36 345.334 502.579 346.489C502.699 347.125 502.818 347.762 502.778 348.419Z" fill="#FFB27D"/>
<path d="M497.076 349.952C494.106 349.613 494.903 350.35 490.756 350.429C486.609 350.489 485.174 349.116 484.974 348.539C484.795 348.021 486.788 347.563 488.922 347.046L488.942 347.086C488.942 347.086 491.613 348.519 495.023 348.161C497.814 347.882 500.645 346.708 502.559 346.509C502.679 347.146 502.798 347.782 502.758 348.439C502.639 350.27 500.027 350.29 497.076 349.952Z" fill="#233862"/>
<path d="M484.595 195.846C483.518 191.448 485.074 189.399 486.489 188.304C487.147 186.692 487.905 185.518 488.682 185.08C490.098 184.284 491.792 184.185 492.989 184.265C492.69 183.946 492.092 183.827 492.092 183.827C492.829 183.727 494.464 184.444 494.464 184.444C504.712 180.503 506.307 195.548 506.108 199.05C505.888 202.553 505.928 206.672 511.252 209.418C521.42 214.672 507.882 234.492 507.882 234.492C508.141 231.666 495.082 216.761 488.264 212.284C486.609 209.836 486.011 205.538 485.971 205.199C486.25 208.622 486.848 210.533 487.366 211.607C484.236 208.742 483.758 201.896 484.595 195.846Z" fill="#A9453D"/>
<path d="M488.642 212.502C488.602 212.522 491.932 214.234 494.424 213.557C496.776 212.92 498.312 209.876 498.272 209.856C497.275 209.657 496.996 208.284 497.016 202.413L496.557 202.493L488.981 203.985C488.981 203.985 489.16 206.373 489.16 208.602C489.18 210.512 489.061 212.303 488.642 212.502Z" fill="#FFB27D"/>
<path d="M489.001 204.005C489.001 204.005 489.18 206.393 489.18 208.622C493.427 208.503 495.66 204.642 496.577 202.513L489.001 204.005Z" fill="#ED975D"/>
<path d="M458.178 338.569C457.799 339.723 458.636 340.937 459.853 340.977L462.803 341.116L465.934 341.216C466.711 341.236 467.469 340.897 467.967 340.3C470.459 337.236 478.155 327.047 482.821 312.221C482.96 311.804 483.1 311.386 483.239 310.968C486.33 301.993 492.71 290.749 496.079 280.561C496.617 278.929 497.096 277.416 497.534 275.964C497.674 275.506 497.814 275.048 497.933 274.591C500.405 265.994 501.123 260.342 501.801 254.312L477.497 254.511C477.497 254.492 472.373 294.192 458.178 338.569Z" fill="#5F9048"/>
<path d="M480.907 240.561C480.966 252.103 479.212 257.058 479.212 257.058C479.212 257.058 489.619 262.331 501.98 258.451C502.12 258.411 512.228 256.103 512.228 256.103C512.029 255.645 510.175 247.864 509.975 247.426C507.364 241.834 505.39 239.367 505.071 237.655C504.493 234.451 504.493 231.128 504.772 227.984C505.529 219.686 507.762 212.8 507.762 212.8C504.393 212.044 501.243 210.691 497.734 209.377C496.936 210.372 494.464 211.427 492.331 211.387C489.858 211.328 489.061 210.273 489.201 209.139C486.569 210.591 484.475 211.964 484.475 211.964C482.242 215.825 477.717 219.586 477.398 225.516C477.298 226.969 480.887 240.242 480.907 240.561Z" fill="white"/>
<path d="M501.801 241.835C502.858 243.328 504.891 252.462 509.975 253.596C507.364 247.089 505.39 244.243 505.071 242.253C504.493 238.512 504.493 234.651 504.772 231.01C503.077 228.044 501.801 226.015 501.801 226.015C501.661 225.537 499.11 217.617 498.292 224.701C497.455 231.786 500.605 240.164 501.801 241.835Z" fill="#5F9AA8"/>
<path d="M487.585 206.134C487.585 206.134 497.613 206.294 497.613 200.065C497.613 193.836 498.909 189.657 492.51 189.279C486.11 188.901 484.854 191.289 484.355 193.359C483.857 195.448 484.973 205.935 487.585 206.134Z" fill="#FFB27D"/>
<path d="M487.944 189.14C487.944 189.14 490.696 196.463 494.903 197.538C499.109 198.612 500.944 197.498 500.944 197.498C500.944 197.498 497.714 194.931 497.036 190.453C497.056 190.453 490.018 185.657 487.944 189.14Z" fill="#A9453D"/>
<path d="M488.642 189.717C488.642 189.717 486.589 191.349 486.091 192.941C485.592 194.533 485.373 197.796 484.416 197.677C484.416 197.677 482.342 192.702 484.675 189.896C487.127 186.931 488.642 189.717 488.642 189.717Z" fill="#A9453D"/>
<path d="M471.815 248.562L467.07 262.989L469.782 264.064L477.597 251.328L471.815 248.562Z" fill="#FFB27D"/>
<path d="M484.574 211.109C484.574 211.109 478.992 213.318 477.377 216.761C475.762 220.204 473.31 243.327 472.333 245.715C471.356 248.103 470.618 249.974 470.618 249.974C470.618 249.974 473.429 252.342 476.26 252.521C479.092 252.7 484.574 211.109 484.574 211.109Z" fill="#ED8232"/>
<path d="M489.181 209.119C489.181 209.119 483.379 223.427 483.199 226.313C483.02 229.198 482.522 273.655 482.522 273.655C482.522 273.655 482.86 275.705 478.933 274.849C475.005 273.993 473.988 273.138 473.988 273.138C473.988 273.138 477.737 245.715 476.72 236.183C475.703 226.651 484.575 211.089 484.575 211.089L489.181 209.119Z" fill="#ED8232"/>
<path d="M462.823 341.116L466.213 341.216C466.811 341.236 467.409 340.977 467.788 340.499C470.081 337.733 478.036 327.405 482.821 312.202C482.96 311.784 483.1 311.366 483.239 310.948C486.33 301.973 492.71 290.729 496.079 280.541C496.617 278.909 497.096 277.396 497.535 275.944C497.674 275.486 497.814 275.028 497.933 274.571L494.345 271.864C494.345 271.864 483.598 289.237 480.269 305.575C477.398 319.783 465.834 336.878 462.823 341.116Z" fill="#376320"/>
<path d="M493.985 307.107C493.925 314.629 494.284 331.385 495.201 339.584C495.281 340.34 495.919 340.897 496.677 340.897H499.209C500.286 340.897 501.083 340.897 501.601 340.877C502.06 340.877 502.459 340.539 502.538 340.081C505.051 327.265 506.865 316.639 508.181 307.445C509.277 299.744 510.274 293.157 511.032 287.465C511.789 281.754 512.328 276.958 512.507 272.919C512.527 272.282 512.567 271.665 512.567 271.068C512.587 270.471 512.587 269.874 512.587 269.297L491.593 267.247C491.872 281.197 494.025 302.49 493.985 307.107Z" fill="#5F9048"/>
<path d="M499.209 340.897C500.166 340.897 500.904 340.897 501.442 340.877C502 340.877 502.479 340.479 502.578 339.922C505.091 327.186 506.885 316.599 508.201 307.445C509.297 299.744 510.294 293.157 511.052 287.466C511.809 281.755 512.348 276.959 512.527 272.919L504.831 277.436C504.831 277.436 509.756 279.168 507.882 292.282C505.988 305.416 501.821 339.047 499.209 340.897Z" fill="#376320"/>
<path d="M498.213 272.799C498.213 272.799 499.688 278.133 504.812 277.456C509.936 276.779 517.213 273.715 517.213 273.715C517.213 273.715 515.02 266.81 512.308 257.755C509.019 246.79 504.932 232.641 503.018 223.726C502.479 221.219 502.1 219.129 501.981 217.637L497.734 209.418C497.734 209.418 491.394 223.607 491.055 227.169C490.716 230.731 498.213 272.799 498.213 272.799Z" fill="#ED8232"/>
<path d="M503.336 226.632L497.734 209.398C497.754 209.398 504.811 211.488 508.36 213.279C508.36 213.279 510.573 216.145 511.949 222.731C511.949 222.731 513.405 238.552 510.155 244.343C510.155 244.343 499.927 246.393 483.538 240.761V237.02C483.538 237.02 501.442 237.955 505.11 238.373L503.336 226.632Z" fill="#FFB27D"/>
<path d="M498.451 234.651C498.671 240.442 500.046 251.685 512.208 257.695C512.248 257.715 512.268 257.735 512.308 257.735C509.018 246.77 504.931 232.621 503.017 223.706C500.784 227.049 498.332 231.467 498.451 234.651Z" fill="#EF6A30"/>
<path d="M497.734 209.418C497.734 209.418 508.122 210.154 510.634 215.706C513.126 221.278 513.923 239.765 510.753 245.218C510.753 245.218 506.367 246.472 498.611 245.019C498.512 244.999 498.412 244.979 498.332 244.959C498.332 244.959 495.86 238.91 498.073 237.716C498.073 237.716 504.613 238.054 503.935 235.905C503.217 233.756 497.734 209.418 497.734 209.418Z" fill="#ED8232"/>
<path d="M471.675 239.368L471.974 240.343L489.02 235.049C489.02 235.049 489.24 234.791 489.14 234.452C489.02 234.074 488.721 234.074 488.721 234.074L471.675 239.368Z" fill="#A9453D"/>
<path d="M470.459 240.283L471.675 239.367L471.994 240.342L470.459 240.283Z" fill="#A9453D"/>
<path d="M467.748 262.591C467.748 262.591 463.422 264.979 462.863 266.79C462.285 268.601 462.684 272.421 463.362 272.362C464.04 272.302 465.076 268.282 465.635 267.984C466.193 267.685 466.99 266.849 466.99 267.466C466.99 268.083 466.412 269.218 466.711 269.397C467.01 269.576 467.908 267.805 468.526 267.466C469.144 267.128 469.423 264.322 470.021 263.566C470.639 262.81 467.748 262.591 467.748 262.591Z" fill="#FFB27D"/>
<path d="M483.558 237.039C483.558 237.039 479.69 234.671 478.076 235.029C476.461 235.387 472.314 238.392 474.307 239.029C476.301 239.666 477.916 238.989 478.674 239.467C479.431 239.944 480.009 240.8 483.558 240.78C487.107 240.78 483.558 237.039 483.558 237.039Z" fill="#FFB27D"/>
<path d="M179.432 211.508C178.774 210.254 193.567 205.757 193.807 218.075C193.807 218.075 221.52 217.398 208.281 201.976C203.696 196.642 204.174 192.225 204.314 188.125C204.453 184.026 201.463 172.086 191.195 173.28C191.195 173.28 188.503 172.185 185.154 173.917C177.538 177.877 160.471 216.045 179.432 211.508Z" fill="#163560"/>
<path d="M224.729 225.278C224.729 225.278 226.524 222.532 227.979 222.492C229.435 222.432 232.126 221.676 231.907 222.213C231.688 222.751 230.013 222.81 229.853 223.129C229.694 223.447 232.326 223.945 233.083 223.984C233.841 224.044 235.615 223.984 235.556 224.362C235.496 224.741 232.346 226.293 230.133 226.074C227.919 225.855 225.168 226.711 225.168 226.711L224.729 225.278Z" fill="#FFB27D"/>
<path d="M198.632 226.154C198.632 226.154 199.609 228.084 201.383 230.313C203.536 232.999 206.826 236.084 210.973 236.701C212.947 236.999 214.901 236.561 216.675 235.785C221.719 233.556 225.508 228.422 225.508 228.422C226.405 225.994 224.949 224.363 224.949 224.363C224.949 224.363 214.781 226.651 213.804 226.154C212.827 225.676 207.185 209.418 205.829 207.368C204.474 205.318 199.888 204.264 199.888 204.264L198.632 226.154Z" fill="#D0F7BC"/>
<path d="M201.403 230.333C203.556 233.019 206.846 236.104 210.993 236.721C212.967 237.019 214.92 236.582 216.695 235.805C216.496 235.825 211.471 236.442 209.458 232.86C207.404 229.199 205.191 223.408 202.16 225.338C200.845 226.154 200.904 228.243 201.403 230.333Z" fill="#ABDD8A"/>
<path d="M160.67 335.783C160.67 335.783 157.56 338.608 158.178 340.618C158.776 342.628 161.587 343.961 161.966 346.429C162.345 348.877 163.86 350.23 165.216 350.23C166.572 350.23 171.716 350.23 171.716 350.23C171.716 350.23 172.712 348.499 170.3 347.981C167.868 347.464 166.97 344.578 167.11 341.892C167.269 339.205 166.891 335.643 166.891 335.643L161.747 334.449L160.67 335.783Z" fill="#233862"/>
<path d="M186.948 336.997C186.948 336.997 185.831 348.977 187.187 349.654L204.632 349.614C204.632 349.614 204.632 347.604 201.821 347.166C199.01 346.728 194.105 345.076 193.268 341.435C192.451 337.773 186.948 336.997 186.948 336.997Z" fill="#233862"/>
<path d="M174.526 251.028C178.115 242.989 180.308 240.68 179.89 238.193C179.571 236.342 180.847 203.587 180.847 203.587C181.265 203.447 182.123 203.328 182.601 203.228C184.076 202.91 185.293 201.875 185.791 200.442C186.409 198.731 186.888 196.204 186.868 193.06L187.326 193.159L195.062 194.691C195.062 194.691 194.883 197.119 194.883 199.408C194.883 199.428 194.883 199.447 194.883 199.467C194.883 201.457 196.179 203.209 198.093 203.766C199.069 204.044 199.927 204.283 199.927 204.283C199.927 204.283 202.758 212.382 203.316 220.681C203.854 228.999 198.152 232.601 203.356 249.217C208.659 266.172 172.553 255.486 174.526 251.028Z" fill="#FFB27D"/>
<path d="M195.063 194.691C195.063 194.691 194.883 197.119 194.883 199.408C190.557 199.288 188.264 195.348 187.327 193.159L195.063 194.691Z" fill="#E8945B"/>
<path d="M196.518 196.861C196.518 196.861 186.291 197.02 186.271 190.672C186.271 184.304 184.935 180.045 191.474 179.667C198.014 179.289 199.29 181.717 199.808 183.846C200.326 185.975 199.17 196.642 196.518 196.861Z" fill="#FFB27D"/>
<path d="M196.139 179.488C196.139 179.488 193.328 186.95 189.042 188.065C184.735 189.159 182.881 188.025 182.881 188.025C182.881 188.025 186.171 185.418 186.868 180.841C186.848 180.841 194.026 175.946 196.139 179.488Z" fill="#163560"/>
<path d="M195.441 180.105C195.441 180.105 197.515 180.881 198.372 182.394C199.21 183.866 199.927 185.837 199.748 188.244C199.748 188.244 201.861 183.17 199.489 180.304C196.977 177.24 195.441 180.105 195.441 180.105Z" fill="#163560"/>
<path d="M194.285 192.9C194.285 192.9 194.983 193.836 196.399 193.756C197.535 193.696 197.974 192.721 197.974 192.721C197.974 192.721 195.88 192.224 194.285 192.9Z" fill="#EBF3FA"/>
<path d="M173.53 218.074C173.53 218.074 173.271 221.736 173.53 226.114C173.71 229.019 176.66 232.92 177.079 233.895C178.136 236.322 179.312 236.701 179.312 236.701L188.463 238.949L191.693 239.745L201.841 236.72C201.841 236.72 206.467 223.825 204.613 216.582C202.759 209.318 199.927 204.283 199.927 204.283C199.927 204.283 191.633 212.383 180.847 203.587L173.53 218.074Z" fill="#D0F7BC"/>
<path d="M176.222 227.308C176.401 230.213 176.66 232.919 177.079 233.894C178.136 236.322 179.312 236.7 179.312 236.7L188.463 238.949L192.451 237.775C192.451 237.775 179.172 235.765 180.648 224.362L176.222 227.308Z" fill="#F2CCAA"/>
<path d="M201.204 238.671C201.204 238.671 206.228 254.292 206.547 259.626C206.866 264.939 196.937 335.206 196.538 337.654C196.16 339.962 193.289 341.435 193.289 341.435C193.289 341.435 191.973 342.211 190.079 341.673C187.467 340.937 186.629 340.061 186.629 340.061C186.629 340.061 182.722 289.953 185.134 272.063C187.566 254.173 187.586 238.691 187.586 238.691L201.204 238.671Z" fill="#EF6A30"/>
<path d="M179.891 238.193C179.891 238.193 172.215 248.462 171.497 255.407C170.779 262.352 170.38 286.749 168.845 293.515C167.33 300.281 161.728 313.316 161.728 334.43C161.728 334.43 162.306 335.644 164.1 336.28C164.678 336.479 165.436 336.678 166.194 336.858C167.669 337.196 169.204 336.479 169.862 335.106C173.65 327.505 185.712 302.968 186.33 297.873C186.769 294.272 190.577 270.411 198.871 256.422C200.865 253.059 197.655 239.706 197.655 239.706L179.891 238.193Z" fill="#ED8232"/>
<path d="M194.504 193.08C194.504 193.08 194.683 193.836 196.557 193.717C196.557 193.717 198.133 193.617 198.073 192.802C198.073 192.782 196.557 192.205 194.504 193.08Z" fill="white"/>
<path d="M202 236.263C202 236.263 199.987 237.855 195.979 237.934C191.194 238.034 179.311 236.72 179.311 236.72C179.311 236.72 178.793 238.193 178.813 239.745C178.813 239.745 193.308 243.387 201.721 240.282C201.701 240.263 202.798 238.233 202 236.263Z" fill="#233862"/>
<path d="M194.943 239.587C194.943 238.234 195.92 237.119 197.136 237.119C198.333 237.119 199.33 238.234 199.33 239.587C199.33 240.94 198.353 242.054 197.136 242.054C195.92 242.054 194.943 240.94 194.943 239.587ZM195.661 239.587C195.661 240.542 196.319 241.338 197.117 241.338C197.914 241.338 198.572 240.562 198.572 239.587C198.572 238.632 197.914 237.836 197.117 237.836C196.319 237.836 195.661 238.612 195.661 239.587Z" fill="white"/>
<path d="M181.398 218.775L163.696 239.066L178.553 251.978L196.254 231.686L181.398 218.775Z" fill="#B5453C"/>
<path d="M182.662 239.128C182.662 239.128 188.105 239.765 188.085 241.058C188.065 242.352 186.729 244.998 186.051 245.118C185.373 245.237 181.625 241.536 181.625 241.536L182.662 239.128Z" fill="#FFB27D"/>
<path d="M180.847 203.587C180.847 203.587 173.59 204.104 170.798 210.85C168.007 217.616 162.724 228.959 162.724 230.87C162.724 232.78 165.674 238.671 181.525 242.054C181.525 242.054 183.16 240.322 183.06 238.969C183.06 238.969 173.171 230.492 173.191 229.497C173.251 227.626 174.806 225.139 183.499 216.462C185.871 214.094 180.847 203.587 180.847 203.587Z" fill="#D0F7BC"/>
<path d="M261.136 349.852H261.076C260.677 349.852 260.338 349.514 260.358 349.116L261.455 301.674L264.685 301.296L261.933 349.116C261.893 349.534 261.535 349.852 261.136 349.852Z" fill="#B0D4FF"/>
<path d="M242.294 349.852H242.234C241.835 349.852 241.497 349.514 241.516 349.116L242.613 301.674L245.843 301.296L243.092 349.116C243.052 349.534 242.713 349.852 242.294 349.852Z" fill="#95C0F4"/>
<path d="M294.252 349.852H294.312C294.711 349.852 295.05 349.514 295.03 349.116L293.933 301.674L290.703 301.296L293.455 349.116C293.494 349.534 293.833 349.852 294.252 349.852Z" fill="#B0D4FF"/>
<path d="M240.161 298.729V266.212C240.161 260.501 244.807 255.864 250.529 255.864H273.995C279.717 255.864 284.363 260.501 284.363 266.212V299.963L240.161 298.729Z" fill="#B0D4FF"/>
<path d="M288.589 303.863H243.271C241.557 303.863 240.161 302.47 240.161 300.758V298.729H288.589V303.863Z" fill="#95C0F4"/>
<path d="M294.012 303.863H259.74C258.464 303.863 257.427 302.828 257.427 301.555V301.017C257.427 299.744 258.464 298.709 259.74 298.709H294.012C295.288 298.709 296.325 299.744 296.325 301.017V301.555C296.325 302.848 295.288 303.863 294.012 303.863Z" fill="#B0D4FF"/>
<path d="M292.697 290.63C289.327 296.461 285.101 298.729 285.101 298.729H267.516C267.516 298.729 295.249 286.172 292.697 290.63Z" fill="#376320"/>
<path d="M279.179 335.823C278.72 336.34 278.66 336.937 278.88 337.554C279.298 338.708 280.694 340.002 282.289 341.295C282.488 341.454 282.688 341.614 282.827 341.753C282.867 341.793 282.907 341.832 282.947 341.872C282.987 341.892 283.007 341.932 283.047 341.952C284.542 343.325 283.984 343.643 286.675 346.449C289.746 349.653 291.859 349.693 292.477 349.414C292.995 349.176 291.959 347.464 290.802 345.574C290.742 345.474 290.683 345.395 290.643 345.295C290.483 345.036 290.344 344.778 290.184 344.539C288.848 342.25 289.187 341.176 289.506 337.753C289.765 334.987 293.833 322.271 293.833 322.271L287.931 321.256C287.931 321.256 286.157 331.385 284.203 332.937C283.166 333.773 281.99 333.773 280.973 334.39C280.893 334.43 280.833 334.469 280.774 334.529C280.215 334.907 279.637 335.305 279.179 335.823Z" fill="#FFB27D"/>
<path d="M279.179 335.822C278.72 336.34 278.66 336.937 278.88 337.554C279.398 338.708 280.754 340.001 282.309 341.275C282.508 341.434 282.688 341.593 282.847 341.753C282.887 341.792 282.927 341.832 282.967 341.872C283.007 341.892 283.027 341.932 283.066 341.952C284.562 343.325 284.004 343.643 286.695 346.449C289.765 349.653 291.879 349.693 292.497 349.414C293.015 349.175 291.979 347.464 290.822 345.573C290.224 345.355 287.433 344.22 285.339 341.534C283.485 339.166 282.249 336.141 280.993 334.39C280.913 334.429 280.853 334.469 280.794 334.529C280.215 334.907 279.637 335.305 279.179 335.822Z" fill="#233862"/>
<path d="M326.71 332.141C327.069 333.952 329.66 333.653 332.571 332.957C335.462 332.241 334.784 333.096 338.911 332.639C343.039 332.181 344.275 330.649 344.414 330.032C344.534 329.494 342.48 329.295 340.307 329.037C340.028 328.997 339.749 328.977 339.49 328.937C337.017 328.619 335.223 327.047 332.97 325.733C330.857 324.5 327.687 319.465 327.687 319.465L322.024 319.903C322.024 319.903 324.995 324.4 326.132 326.35C326.809 327.504 326.77 329.017 326.69 330.191C326.61 330.848 326.57 331.504 326.71 332.141Z" fill="#FFB27D"/>
<path d="M332.551 332.957C335.442 332.241 334.764 333.097 338.892 332.639C343.019 332.181 344.255 330.649 344.394 330.032C344.514 329.495 342.46 329.296 340.287 329.037L340.267 329.077C340.267 329.077 337.795 330.828 334.366 330.908C331.574 330.967 328.604 330.171 326.67 330.211C326.63 330.848 326.59 331.505 326.71 332.142C327.069 333.972 329.66 333.654 332.551 332.957Z" fill="#233862"/>
<path d="M305.038 296.062L299.754 310.271L292.856 328.818C292.856 328.818 290.982 328.997 289.188 328.479C287.533 328.002 285.639 326.748 285.639 326.748C285.639 326.748 287.553 306.848 291.121 295.406C292.039 292.48 293.055 290.092 294.192 288.759C299.734 282.232 305.038 296.062 305.038 296.062Z" fill="#376320"/>
<path d="M299.655 273.496C296.186 272.382 286.317 273.814 276.388 275.745L274.314 272.322L252.882 270.65C252.882 270.65 245.804 286.312 249.672 296.282C250.25 297.754 251.366 298.69 253.3 298.709H253.619C253.619 298.709 266.379 298.709 270.526 298.709C281.193 298.709 293.076 291.386 294.631 291.088C297.143 290.59 298.16 295.605 300.672 300.898C303.184 306.172 324.358 324.281 324.358 324.281C324.358 324.281 327.607 324.321 328.963 323.803C330.399 323.266 330.937 322.57 330.937 322.57C330.937 322.57 307.47 276.023 299.655 273.496Z" fill="#5F9048"/>
<path d="M273.476 210.055C270.725 208.622 266.558 208.423 265.88 208.323C257.766 207.229 252.861 219.01 252.582 222.592C252.044 229.179 248.574 230.174 243.65 234.293C233.801 242.551 236.692 252.163 242.075 255.725C245.305 257.874 250.987 255.725 250.987 255.725C251.067 255.785 266.558 247.089 274.174 242.89C285.638 241.258 280.474 213.716 273.476 210.055Z" fill="#233862"/>
<path d="M267.794 239.308C267.834 239.328 264.046 240.621 261.514 239.507C259.121 238.452 257.327 234.532 257.367 234.532C258.443 234.472 259.64 233.537 260.557 227.328L261.015 227.487L268.771 230.273C268.771 230.273 268.213 232.761 267.854 235.129C267.535 237.119 267.375 239.029 267.794 239.308Z" fill="#FFB27D"/>
<path d="M268.771 230.293C268.771 230.293 268.213 232.78 267.854 235.148C263.388 234.352 261.654 229.915 261.016 227.507L268.771 230.293Z" fill="#ED975D"/>
<path d="M269.928 232.76C269.928 232.76 259.302 231.328 260.298 224.741C261.295 218.154 260.578 213.537 267.416 214.154C274.235 214.791 275.172 217.497 275.391 219.766C275.571 222.054 272.7 232.959 269.928 232.76Z" fill="#FFB27D"/>
<path d="M274.972 216.164C274.972 216.164 268.173 222.014 263.548 222.492C258.922 222.969 257.168 221.477 257.168 221.477C257.168 221.477 259.899 219.208 261.534 215.567C262.013 214.492 263.03 213.756 264.206 213.656C267.535 213.378 273.796 213.238 274.972 216.164Z" fill="#233862"/>
<path d="M270.726 215.647C270.726 215.647 272.998 217.836 273.716 219.467C274.414 221.039 274.613 224.801 274.055 226.293C274.055 226.293 277.604 219.408 275.59 216.064C273.477 212.522 270.726 215.647 270.726 215.647Z" fill="#233862"/>
<path d="M276.727 254.929C276.408 276.381 276.647 271.904 274.294 273.934C273.736 274.431 272.141 274.71 270.048 274.849C263.448 275.287 251.865 274.192 251.426 272.979C249.911 268.78 250.987 267.466 249.711 261.019C249.572 260.342 249.412 259.586 249.233 258.79C248.176 254.372 247.14 252.86 250.908 245.755C254.317 239.308 257.846 234.094 258.165 234.273C267.137 239.586 267.875 235.129 267.875 235.129C267.875 235.129 276.886 244.462 276.727 254.929Z" fill="white"/>
<path d="M299.754 310.251L292.856 328.798C292.856 328.798 290.982 328.977 289.188 328.46C287.533 327.982 285.639 326.728 285.639 326.728C285.639 326.728 287.553 306.828 291.121 295.386L299.754 310.251Z" fill="#5F9048"/>
<path d="M267.834 235.129C267.834 235.129 277.065 236.701 278.162 240.661C279.238 244.641 285.638 267.964 285.638 267.964C285.638 267.964 280.933 268.8 278.78 266.651C276.606 264.481 271.223 246.552 271.223 246.552L267.834 235.129Z" fill="white"/>
<path d="M270.047 274.85C263.448 275.287 251.864 274.193 251.426 272.979C249.91 268.78 250.987 267.467 249.711 261.019L252.881 252.084C252.881 252.084 252.363 262.034 255.293 264.661C258.224 267.288 267.336 269.715 268.751 271.904C269.449 272.959 269.908 274.014 270.047 274.85Z" fill="#EBF3FF"/>
<path d="M262.491 270.67C262.491 270.67 268.991 269.218 270.048 269.795C271.104 270.372 273.656 272.461 273.975 273.198C274.294 273.934 271.643 272.64 270.765 272.421C270.207 272.262 268.732 272.78 267.994 273.018C264.924 274.033 263.049 273.516 263.049 273.516L262.491 270.67Z" fill="#FFB27D"/>
<path d="M258.125 234.293C258.125 234.293 249.393 234.83 246.362 239.029C242.115 244.959 233.662 270.193 238.507 273.576C243.95 277.376 263.309 274.571 263.309 274.571C263.309 274.571 263.947 271.566 263.05 270.113C262.153 268.66 247.598 266.312 246.92 265.635C246.243 264.959 255.314 252.561 255.314 250.551C255.334 248.521 258.125 234.293 258.125 234.293Z" fill="white"/>
<path d="M270.347 271.605C270.347 271.605 271.702 273.357 272.161 273.576C272.6 273.794 272.899 273.735 272.899 273.735L271.982 272.083L270.347 271.605Z" fill="#FFB27D"/>
<path d="M270.048 269.795L274.015 271.705C274.015 271.705 273.856 271.984 273.357 271.964C272.879 271.944 271.643 271.486 271.643 271.486L270.048 269.795Z" fill="#FFB27D"/>
<path d="M272.161 276.262H303.503L312.933 252.859H281.631L272.161 276.262Z" fill="#EF6A30"/>
<path d="M303.861 275.347H262.491V276.262H303.503L303.861 275.347Z" fill="#ED7D2B"/>
<path d="M295.587 264.561C295.826 263.745 295.348 263.068 294.53 263.068C293.713 263.068 292.856 263.745 292.616 264.561C292.377 265.377 292.856 266.053 293.673 266.053C294.491 266.053 295.348 265.377 295.587 264.561Z" fill="white"/>
<path d="M435.849 350.727H435.949C436.487 350.727 436.926 350.27 436.906 349.693L435.45 283.266L431.184 282.749L434.832 349.713C434.852 350.27 435.291 350.727 435.849 350.727Z" fill="#78ACEA"/>
<path d="M262.651 350.727H262.551C262.013 350.727 261.574 350.27 261.594 349.693L263.05 283.266L267.316 282.749L263.668 349.693C263.648 350.27 263.189 350.727 262.651 350.727Z" fill="#78ACEA"/>
<path d="M440.992 284.481H258.225C256.73 284.481 255.514 283.267 255.514 281.774V279.167C255.514 277.675 256.73 276.461 258.225 276.461H440.992C442.488 276.461 443.704 277.675 443.704 279.167V281.774C443.704 283.287 442.488 284.481 440.992 284.481Z" fill="#78ACEA"/>
<path d="M218.39 162.633C217.692 145.579 232.027 137.997 246.661 137.997C261.295 137.997 277.245 141.778 278.621 164.464C279.518 179.051 271.723 188.026 249.273 188.026C241.697 188.026 235.815 186.832 231.309 184.702L220.084 194.652L225.587 180.901C220.742 176.384 218.669 169.976 218.39 162.633Z" fill="#DFEDFB"/>
<path d="M551.246 350.648C551.246 350.648 551.665 347.444 552.622 345.534C553.579 343.623 559.64 344.837 559.64 344.837C559.64 344.837 560.856 345.872 561.115 350.728L551.246 350.648Z" fill="#233862"/>
<path d="M530.551 350.609C531.987 349.733 531.169 343.246 531.169 343.246C531.169 343.246 524.51 337.932 523.613 341.992C522.716 346.052 517.292 347.882 514.222 348.38C512.109 348.718 511.451 349.892 511.231 350.589H530.551V350.609Z" fill="#233862"/>
<path d="M544.328 303.445C544.049 304.938 543.889 306.152 543.849 307.027C543.231 319.067 533.701 346.588 531.986 347.225C529.355 348.22 525.188 346.111 523.015 345.414C522.117 345.136 521.499 344.22 521.699 343.305C526.424 321.654 528.158 290.45 528.776 272.003C529.095 262.71 530.69 256.282 530.69 256.282C530.69 256.282 553.938 250.093 554.077 257.914C554.217 264.839 546.401 292.003 544.328 303.445Z" fill="#5F9048"/>
<path d="M544.327 303.445L528.796 271.984C529.115 262.69 530.71 256.263 530.71 256.263C530.71 256.263 553.957 250.074 554.097 257.894C554.216 264.839 546.401 292.003 544.327 303.445Z" fill="#376320"/>
<path d="M539.144 257.934L551.425 346.828C551.425 346.828 556.828 348.121 561.015 347.086C561.015 347.086 564.604 299.804 564.305 288.381C564.006 276.959 566.897 257.795 563.647 255.686C560.437 253.556 539.144 257.934 539.144 257.934Z" fill="#5F9048"/>
<path d="M566.059 256.442C566.119 257.238 565.601 257.974 564.823 258.193C563.109 258.69 561.135 259.029 557.327 259.825C553.738 260.561 548.933 261.218 543.012 261.257C533.601 261.317 530.032 258.073 530.032 258.073C529.634 258.073 530.252 256.123 530.81 246.77C530.989 243.606 531.189 239.586 531.308 234.512C531.428 229.955 531.508 224.522 531.508 218.094C531.528 210.353 543.53 202.035 543.749 202.035C543.749 203.15 545.504 205.199 548.215 205.378C551.425 205.597 555.373 203.985 555.373 202.135C555.373 202.115 561.195 211.428 563.248 221.338C564.325 226.333 563.886 226.214 566.059 256.442Z" fill="#D0F7BC"/>
<path d="M543.75 202.035C543.75 202.035 532.585 201.936 529.893 205.697C527.202 209.458 521.32 229.677 524.391 236.423C527.461 243.149 533.223 233.637 536.413 229.517C539.623 225.398 543.75 202.035 543.75 202.035Z" fill="#D0F7BC"/>
<path d="M543.65 200.344V201.498C543.65 201.498 543.331 205.1 547.777 205.617C552.223 206.155 555.513 204.941 555.393 202.175C554.995 200.025 554.616 197.817 554.596 196.026C554.576 195.369 554.636 194.652 554.755 193.876L546.142 193.697L543.61 194.115L543.65 200.344Z" fill="#FFB27D"/>
<path d="M543.61 194.115L543.65 200.344C544.567 200.762 545.604 201.021 546.76 201.021C550.708 201.021 553.28 198.115 554.616 196.026C554.596 195.369 554.656 194.652 554.775 193.876L546.162 193.697L543.61 194.115Z" fill="#E2915A"/>
<path d="M555.413 192.483C554.416 197.856 547.478 197.677 544.487 197.338C543.65 197.239 543.111 197.139 543.111 197.139C542.154 196.881 541.636 195.388 541.377 193.438C540.878 189.557 541.496 183.866 542.154 182.413C543.151 180.224 545.005 177.856 551.984 179.568C558.982 181.259 556.689 185.597 555.413 192.483Z" fill="#FFB27D"/>
<path d="M532.346 217.119C532.346 217.119 528.019 226.631 528.159 229.497C528.159 229.497 530.292 229.417 532.346 230.034C535.715 231.029 532.346 217.119 532.346 217.119Z" fill="#ABDD8A"/>
<path d="M540.021 177.299C540.021 177.299 543.091 177.061 546.719 175.489C549.67 174.215 553.379 175.608 554.575 176.245C554.535 176.046 554.455 175.787 554.276 175.528C554.276 175.528 554.814 175.906 554.894 176.444C554.954 176.484 554.974 176.503 554.954 176.523C554.954 176.523 555.572 176.404 555.971 176.583C555.971 176.583 555.691 176.543 555.592 176.722C555.572 176.742 555.572 176.762 555.552 176.762C560.137 178.971 560.576 186.215 559.081 187.906C557.306 189.916 554.615 194.493 554.615 194.493C554.615 194.493 554.395 193.399 554.714 191.627C555.033 189.856 553.498 189.856 551.564 189.04C549.63 188.225 551.245 185.976 549.551 184.603C547.856 183.23 541.635 184.046 541.715 182.991C539.422 182.155 540.021 177.538 540.021 177.299Z" fill="#233862"/>
<path d="M556.828 234.93C555.014 242.233 535.295 246.014 530.81 246.77C530.989 243.606 531.188 239.586 531.308 234.512L556.828 234.93Z" fill="#ABDD8A"/>
<path d="M552.502 237.318C552.681 237.318 556.888 236.701 557.626 236.323C558.363 235.945 561.813 231.069 559.56 229.836C557.307 228.582 551.266 233.577 551.266 233.577L552.502 237.318Z" fill="#FFB27D"/>
<path d="M526.982 238.75C526.982 238.75 543.191 239.626 554.077 237.298C554.077 237.298 554.356 234.154 550.927 232.761C550.927 232.761 533.96 229.179 529.893 230.174C525.826 231.189 526.982 238.75 526.982 238.75Z" fill="#D0F7BC"/>
<path d="M564.245 226.054C560.876 230.113 556.47 233.417 551.625 234.193C551.585 234.133 550.149 231.964 550.429 228.78C550.548 227.308 551.047 225.616 552.203 223.825C552.562 223.268 552.881 222.631 553.16 221.915C555.812 215.169 555.413 202.174 555.413 202.174C555.413 202.174 566.658 203.348 570.167 208.343C572.3 211.388 569.549 219.646 564.245 226.054Z" fill="#D0F7BC"/>
<path d="M544.487 197.339C543.65 197.239 543.112 197.14 543.112 197.14C542.155 196.881 541.636 195.389 541.377 193.438C543.151 193.876 543.969 195.249 544.328 195.846C544.467 196.085 544.507 196.682 544.487 197.339Z" fill="#E2915A"/>
<path d="M539.942 200.364C539.942 200.364 536.054 193.956 539.084 193.677C542.115 193.399 543.311 195.448 543.75 196.185C544.188 196.941 543.63 200.324 543.63 200.324L539.942 200.364Z" fill="#FFB27D"/>
<path d="M554.755 228.562C554.636 229.378 554.396 230.114 554.097 230.79C553.14 232.9 551.625 234.193 551.625 234.193C541.537 229.656 539.503 214.035 539.144 205.458C539.004 202.015 539.144 199.707 539.144 199.707C543.69 198.194 544.966 200.821 544.966 200.821C544.966 200.821 550.349 213.577 553.12 221.915C554.197 225.079 554.895 227.626 554.755 228.562Z" fill="#D0F7BC"/>
<path d="M564.245 226.054C560.875 230.114 556.469 233.418 551.624 234.194C541.536 229.656 539.502 214.035 539.144 205.458C539.144 205.458 543.909 222.751 550.408 228.781C551.585 229.875 552.821 230.592 554.077 230.791C554.077 230.791 562.271 228.482 563.986 226.293C564.125 226.134 564.205 226.074 564.245 226.054Z" fill="#ABDD8A"/>
<path d="M380.461 276.481H349.139L339.709 253.078H370.991L380.461 276.481Z" fill="#376320"/>
<path d="M348.761 275.565H390.151V276.481H349.14L348.761 275.565Z" fill="#376320"/>
<path d="M357.035 264.78C356.796 263.964 357.275 263.287 358.092 263.287C358.909 263.287 359.767 263.964 360.006 264.78C360.245 265.596 359.767 266.272 358.949 266.272C358.132 266.272 357.275 265.596 357.035 264.78Z" fill="white"/>
<rect x="135" y="370" width="431" height="84" fill="#5F9048" fill-opacity="0.69"/>
</g>
<defs>
<filter id="filter0_d" x="0" y="0" width="698" height="504" filterUnits="userSpaceOnUse" color-interpolation-filters="sRGB">
<feFlood flood-opacity="0" result="BackgroundImageFix"/>
<feColorMatrix in="SourceAlpha" type="matrix" values="0 0 0 0 0 0 0 0 0 0 0 0 0 0 0 0 0 0 127 0" result="hardAlpha"/>
<feOffset dy="20"/>
<feGaussianBlur stdDeviation="15"/>
<feComposite in2="hardAlpha" operator="out"/>
<feColorMatrix type="matrix" values="0 0 0 0 0 0 0 0 0 0 0 0 0 0 0 0 0 0 0.1 0"/>
<feBlend mode="normal" in2="BackgroundImageFix" result="effect1_dropShadow"/>
<feBlend mode="normal" in="SourceGraphic" in2="effect1_dropShadow" result="shape"/>
</filter>
</defs>
</svg>
