<svg width="542" height="419" viewBox="0 0 542 419" fill="none" xmlns="http://www.w3.org/2000/svg">
<g filter="url(#filter0_d)">
<mask id="mask0" mask-type="alpha" maskUnits="userSpaceOnUse" x="80" y="12" width="426" height="357">
<rect x="80" y="12" width="426" height="357" rx="10" fill="white"/>
<rect x="81" y="13" width="424" height="355" rx="9" stroke="black" stroke-opacity="0.1" stroke-width="2"/>
</mask>
<g mask="url(#mask0)">
</g>
<path d="M96.0106 256.963C96.0256 256.978 475.811 256.918 475.811 256.918C488.313 230.264 488.298 217.246 489.714 201.97C497.577 117.54 433.938 104.567 415.29 101.045C358.203 90.2694 384.186 36.9322 235.429 46.9404C221.798 47.8585 189.654 55.2631 178.568 60.064C170.796 63.4202 141.529 78.4702 132.929 103.92C130.218 111.956 129.57 121.017 132.296 131.085C141.981 166.693 116.737 164.646 98.3001 181.623C73.688 204.258 76.2636 241.296 96.0106 256.963Z" fill="#EBF3FA"/>
<path d="M322.234 256.933H322.279C322.58 256.933 322.836 256.677 322.821 256.376L321.993 220.497L319.553 220.211L321.631 256.376C321.661 256.692 321.918 256.933 322.234 256.933Z" fill="#B0D4FF"/>
<path d="M336.453 256.933H336.498C336.799 256.933 337.055 256.677 337.04 256.376L336.212 220.497L333.771 220.211L335.85 256.376C335.88 256.692 336.151 256.933 336.453 256.933Z" fill="#95C0F4"/>
<path d="M297.215 256.933H297.17C296.869 256.933 296.613 256.677 296.628 256.376L297.456 220.497L299.896 220.211L297.818 256.376C297.787 256.692 297.531 256.933 297.215 256.933Z" fill="#B0D4FF"/>
<path d="M338.08 218.269V193.678C338.08 189.358 334.57 185.852 330.248 185.852H312.519C308.196 185.852 304.687 189.358 304.687 193.678V219.202L338.08 218.269Z" fill="#B0D4FF"/>
<path d="M301.493 222.152H335.73C337.025 222.152 338.08 221.099 338.08 219.805V218.27H301.493V222.152Z" fill="#95C0F4"/>
<path d="M297.381 222.152H323.273C324.237 222.152 325.021 221.369 325.021 220.406V220C325.021 219.037 324.237 218.254 323.273 218.254H297.381C296.417 218.254 295.634 219.037 295.634 220V220.406C295.649 221.369 296.432 222.152 297.381 222.152Z" fill="#CAE5FF"/>
<path d="M357.059 88.8701H254.86V177.018H357.059V88.8701Z" fill="#95C0F4"/>
<path d="M355.07 90.3301H256.803V175.257H355.07V90.3301Z" fill="#DFEDFB"/>
<path d="M291.145 127.293H269.621V100.414L273.266 97.1328H291.145V127.293Z" fill="white"/>
<path d="M269.621 100.414H273.146L273.266 97.1328L269.621 100.414Z" fill="#B0D4FF"/>
<path d="M283.84 99.752H276.941V100.083H283.84V99.752Z" fill="#B0D4FF"/>
<path d="M285.452 100.729H275.314V101.061H285.452V100.729Z" fill="#B0D4FF"/>
<path d="M289.007 107.051H272.167V107.472H289.007V107.051Z" fill="#B0D4FF"/>
<path d="M289.007 108.33H272.167V108.751H289.007V108.33Z" fill="#B0D4FF"/>
<path d="M289.007 109.609H272.167V110.031H289.007V109.609Z" fill="#B0D4FF"/>
<path d="M289.007 110.889H272.167V111.31H289.007V110.889Z" fill="#B0D4FF"/>
<path d="M289.007 124.6H272.167V125.021H289.007V124.6Z" fill="#B0D4FF"/>
<path d="M316.014 164.556H294.489V137.692L298.134 134.411H316.014V164.556Z" fill="white"/>
<path d="M294.489 137.692H298.014L298.134 134.411L294.489 137.692Z" fill="#B0D4FF"/>
<path d="M308.694 137.015H301.795V137.346H308.694V137.015Z" fill="#B0D4FF"/>
<path d="M310.321 138.008H300.184V138.339H310.321V138.008Z" fill="#B0D4FF"/>
<path d="M313.875 144.329H297.035V144.751H313.875V144.329Z" fill="#B0D4FF"/>
<path d="M313.875 145.608H297.035V146.03H313.875V145.608Z" fill="#B0D4FF"/>
<path d="M313.875 146.888H297.035V147.309H313.875V146.888Z" fill="#B0D4FF"/>
<path d="M313.875 148.167H297.035V148.588H313.875V148.167Z" fill="#B0D4FF"/>
<path d="M313.875 152.11H297.035V152.532H313.875V152.11Z" fill="#B0D4FF"/>
<path d="M313.875 153.39H297.035V153.811H313.875V153.39Z" fill="#B0D4FF"/>
<path d="M313.875 154.879H297.035V155.3H313.875V154.879Z" fill="#B0D4FF"/>
<path d="M328.154 97.1328H316.27V107.608H328.154V97.1328Z" fill="#B0D4FF"/>
<path d="M321.707 98.3822C321.707 98.0963 321.933 97.8555 322.234 97.8555C322.536 97.8555 322.761 98.0812 322.761 98.3822C322.761 98.6682 322.536 98.909 322.234 98.909C321.933 98.909 321.707 98.6682 321.707 98.3822Z" fill="#FFA412"/>
<path d="M327.783 110.898L315.927 111.725L316.657 122.174L328.513 121.347L327.783 110.898Z" fill="white"/>
<path d="M321.467 113.236C321.452 112.95 321.662 112.695 321.949 112.679C322.235 112.664 322.491 112.875 322.506 113.161C322.521 113.447 322.31 113.703 322.024 113.718C321.738 113.733 321.497 113.522 321.467 113.236Z" fill="#B0D4FF"/>
<path d="M288.273 149.488L276.417 150.314L277.147 160.764L289.003 159.937L288.273 149.488Z" fill="white"/>
<path d="M281.958 151.824C281.943 151.538 282.154 151.282 282.44 151.267C282.726 151.252 282.982 151.463 282.997 151.749C283.012 152.035 282.801 152.291 282.515 152.306C282.229 152.321 281.973 152.11 281.958 151.824Z" fill="#B0D4FF"/>
<path d="M273.337 156.993L261.454 157.115L261.561 167.589L273.445 167.467L273.337 156.993Z" fill="white"/>
<path d="M266.91 158.958C266.91 158.672 267.136 158.432 267.422 158.432C267.708 158.432 267.949 158.657 267.949 158.943C267.949 159.229 267.724 159.47 267.437 159.47C267.136 159.485 266.91 159.244 266.91 158.958Z" fill="#B0D4FF"/>
<path d="M345.78 119.303L334.081 117.214L332.237 127.525L343.936 129.614L345.78 119.303Z" fill="#EEF6FF"/>
<path d="M339.24 119.586C339.285 119.346 339.526 119.18 339.767 119.225C340.008 119.27 340.174 119.511 340.129 119.752C340.083 119.993 339.842 120.158 339.601 120.113C339.36 120.068 339.195 119.827 339.24 119.586Z" fill="#78ACEA"/>
<path d="M309.256 110.687L297.44 111.965L298.568 122.379L310.384 121.101L309.256 110.687Z" fill="#EEF6FF"/>
<path d="M303.06 112.785C303.03 112.544 303.211 112.319 303.467 112.288C303.723 112.258 303.934 112.439 303.964 112.695C303.994 112.936 303.813 113.161 303.557 113.191C303.301 113.206 303.09 113.041 303.06 112.785Z" fill="#78ACEA"/>
<path d="M278.388 135.448L266.766 137.924L268.951 148.168L280.574 145.692L278.388 135.448Z" fill="#BAE8E3"/>
<path d="M272.634 138.445C272.423 138.31 272.363 138.024 272.498 137.813C272.634 137.603 272.92 137.542 273.131 137.678C273.342 137.813 273.402 138.099 273.266 138.31C273.131 138.521 272.845 138.581 272.634 138.445Z" fill="#FFA412"/>
<path d="M309.581 107.608H298.254V100.007L301.387 97.1328H309.581V107.608Z" fill="white"/>
<path d="M298.194 100.007H301.282L301.388 97.1328L298.194 100.007Z" fill="#B0D4FF"/>
<path d="M303.963 98.096C303.963 97.8853 304.129 97.7197 304.34 97.7197C304.55 97.7197 304.716 97.8853 304.716 98.096C304.716 98.3067 304.55 98.4722 304.34 98.4722C304.129 98.4722 303.963 98.3067 303.963 98.096Z" fill="#B0D4FF"/>
<path d="M342.643 169.794H331.331V162.194L334.464 159.319H342.643V169.794Z" fill="white"/>
<path d="M331.271 162.194H334.359L334.465 159.319L331.271 162.194Z" fill="#B0D4FF"/>
<path d="M337.025 160.298C337.025 160.087 337.191 159.922 337.402 159.922C337.613 159.922 337.779 160.087 337.779 160.298C337.779 160.509 337.613 160.674 337.402 160.674C337.191 160.659 337.025 160.494 337.025 160.298Z" fill="#B0D4FF"/>
<path d="M347.811 154.714H336.484V147.129L339.617 144.239H347.811V154.714Z" fill="white"/>
<path d="M336.424 147.129H339.527L339.617 144.239L336.424 147.129Z" fill="#B0D4FF"/>
<path d="M342.193 145.218C342.193 145.007 342.359 144.842 342.57 144.842C342.781 144.842 342.947 145.007 342.947 145.218C342.947 145.429 342.781 145.594 342.57 145.594C342.359 145.594 342.193 145.414 342.193 145.218Z" fill="#B0D4FF"/>
<path d="M332.868 154.714H321.556V147.129L324.689 144.239H332.868V154.714Z" fill="#BAE8E3"/>
<path d="M321.496 147.129H324.584L324.689 144.239L321.496 147.129Z" fill="#A1D6CE"/>
<path d="M327.25 145.218C327.25 145.007 327.416 144.842 327.627 144.842C327.837 144.842 328.003 145.007 328.003 145.218C328.003 145.429 327.837 145.594 327.627 145.594C327.416 145.594 327.25 145.414 327.25 145.218Z" fill="#F99746"/>
<path d="M351.003 104.989H339.676V97.3892L342.809 94.5146H351.003V104.989Z" fill="#BAE8E3"/>
<path d="M339.616 97.3892H342.719L342.809 94.5146L339.616 97.3892Z" fill="#A1D6CE"/>
<path d="M345.385 95.4778C345.385 95.2671 345.55 95.1016 345.761 95.1016C345.972 95.1016 346.138 95.2671 346.138 95.4778C346.138 95.6885 345.972 95.8541 345.761 95.8541C345.55 95.8541 345.385 95.6885 345.385 95.4778Z" fill="#F99746"/>
<path d="M239.089 86.7327H217.565C216.571 86.7327 215.772 85.92 215.772 84.9418V64.1728C215.772 63.1795 216.586 62.3818 217.565 62.3818H239.089C240.083 62.3818 240.882 63.1945 240.882 64.1728V84.9267C240.882 85.92 240.068 86.7327 239.089 86.7327Z" fill="#C0D8FB"/>
<path d="M238.156 85.6794H218.499C217.595 85.6794 216.857 84.942 216.857 84.039V65.076C216.857 64.173 217.595 63.4355 218.499 63.4355H238.156C239.06 63.4355 239.798 64.173 239.798 65.076V84.039C239.798 84.942 239.06 85.6794 238.156 85.6794Z" fill="#DFEBFD"/>
<path d="M227.792 65.6625C227.792 65.3765 228.018 65.1357 228.319 65.1357C228.605 65.1357 228.846 65.3615 228.846 65.6625C228.846 65.9484 228.62 66.1892 228.319 66.1892C228.033 66.1742 227.792 65.9484 227.792 65.6625Z" fill="#B7D3F3"/>
<path d="M231.995 66.4005C232.13 66.1447 232.447 66.0544 232.703 66.2049C232.959 66.3403 233.049 66.6564 232.899 66.9122C232.763 67.1681 232.447 67.2584 232.191 67.1079C231.95 66.9574 231.859 66.6413 231.995 66.4005Z" fill="#B7D3F3"/>
<path d="M235.594 69.2442C235.835 69.0937 236.151 69.1539 236.317 69.3947C236.468 69.6355 236.407 69.9515 236.166 70.117C235.925 70.2675 235.609 70.2073 235.443 69.9665C235.278 69.7258 235.353 69.4097 235.594 69.2442Z" fill="#B7D3F3"/>
<path d="M237.371 73.6689C237.657 73.6689 237.898 73.8947 237.898 74.1957C237.898 74.4816 237.672 74.7224 237.371 74.7224C237.085 74.7224 236.844 74.4967 236.844 74.1957C236.859 73.8947 237.085 73.6689 237.371 73.6689Z" fill="#B7D3F3"/>
<path d="M236.468 78.8006C236.664 78.9962 236.664 79.3273 236.468 79.538C236.272 79.7337 235.941 79.7337 235.73 79.538C235.534 79.3424 235.534 79.0113 235.73 78.8006C235.941 78.5899 236.257 78.5899 236.468 78.8006Z" fill="#B7D3F3"/>
<path d="M233.199 82.0667C233.395 82.2623 233.395 82.5934 233.199 82.8041C233.004 82.9998 232.672 82.9998 232.461 82.8041C232.265 82.6085 232.265 82.2774 232.461 82.0667C232.672 81.871 232.989 81.871 233.199 82.0667Z" fill="#B7D3F3"/>
<path d="M227.792 83.7523C227.792 83.4664 228.018 83.2256 228.319 83.2256C228.605 83.2256 228.846 83.4513 228.846 83.7523C228.846 84.0533 228.62 84.2791 228.319 84.2791C228.033 84.2791 227.792 84.0533 227.792 83.7523Z" fill="#B7D3F3"/>
<path d="M224.629 66.4005C224.494 66.1447 224.177 66.0544 223.921 66.2049C223.665 66.3403 223.575 66.6564 223.725 66.9122C223.861 67.1681 224.177 67.2584 224.433 67.1079C224.674 66.9574 224.765 66.6413 224.629 66.4005Z" fill="#B7D3F3"/>
<path d="M221.029 69.2451C220.788 69.0946 220.471 69.1548 220.306 69.3956C220.155 69.6364 220.215 69.9525 220.456 70.118C220.697 70.2685 221.014 70.2083 221.179 69.9675C221.33 69.7267 221.27 69.4107 221.029 69.2451Z" fill="#B7D3F3"/>
<path d="M219.252 73.6699C218.966 73.6699 218.725 73.8957 218.725 74.1967C218.725 74.4826 218.951 74.7234 219.252 74.7234C219.538 74.7234 219.779 74.4977 219.779 74.1967C219.764 73.8957 219.538 73.6699 219.252 73.6699Z" fill="#B7D3F3"/>
<path d="M220.156 78.8026C219.96 78.9982 219.96 79.3293 220.156 79.54C220.351 79.7357 220.683 79.7357 220.894 79.54C221.09 79.3444 221.09 79.0133 220.894 78.8026C220.683 78.5919 220.351 78.5919 220.156 78.8026Z" fill="#B7D3F3"/>
<path d="M223.424 82.0676C223.228 82.2633 223.228 82.5944 223.424 82.8051C223.62 83.0008 223.951 83.0008 224.162 82.8051C224.358 82.6095 224.358 82.2783 224.162 82.0676C223.951 81.872 223.62 81.872 223.424 82.0676Z" fill="#B7D3F3"/>
<path d="M228.184 74.1957C228.184 73.9097 228.41 73.6689 228.711 73.6689C228.997 73.6689 229.238 73.8947 229.238 74.1957C229.238 74.4816 229.012 74.7224 228.711 74.7224C228.41 74.7074 228.184 74.4816 228.184 74.1957Z" fill="#B7D3F3"/>
<path d="M228.756 67.6943H228.62V74.1959H228.756V67.6943Z" fill="#B7D3F3"/>
<path d="M231.951 71.304L228.504 74.0088L228.764 74.3402L232.212 71.6354L231.951 71.304Z" fill="#B7D3F3"/>
<path d="M371.61 255.653C371.504 257.053 369.531 257.068 367.302 256.812C365.058 256.556 365.66 257.113 362.527 257.158C359.394 257.204 358.31 256.165 358.159 255.714C358.023 255.322 359.53 254.976 361.141 254.585C361.337 254.54 361.548 254.48 361.759 254.434C363.581 253.968 364.786 252.613 366.338 251.424C367.814 250.296 369.712 246.217 369.712 246.217L373.99 246.021C373.99 246.021 372.182 249.679 371.504 251.244C371.113 252.177 371.278 253.306 371.444 254.179C371.549 254.675 371.64 255.157 371.61 255.653Z" fill="#FFB27D"/>
<path d="M367.302 256.797C365.058 256.542 365.66 257.098 362.527 257.144C359.394 257.189 358.31 256.15 358.159 255.699C358.023 255.307 359.53 254.961 361.141 254.57L361.156 254.6C361.156 254.6 363.175 255.684 365.75 255.428C367.859 255.217 369.998 254.344 371.459 254.179C371.549 254.66 371.64 255.142 371.61 255.639C371.504 257.053 369.531 257.068 367.302 256.797Z" fill="#233862"/>
<path d="M401.177 255.94C401.072 257.34 399.098 257.355 396.869 257.099C394.625 256.843 395.227 257.4 392.094 257.46C388.961 257.506 387.877 256.467 387.726 256.031C387.591 255.639 389.097 255.293 390.709 254.902C390.904 254.857 391.115 254.797 391.326 254.751C393.149 254.285 394.354 252.93 395.905 251.726C397.381 250.598 395.905 243.915 395.905 243.915L400.62 243.464C400.62 243.464 400.394 249.093 400.394 251.636C400.394 252.644 400.861 253.608 401.026 254.48C401.117 254.962 401.207 255.444 401.177 255.94Z" fill="#FFB27D"/>
<path d="M396.869 257.1C394.625 256.844 395.227 257.401 392.094 257.461C388.961 257.506 387.877 256.468 387.726 256.031C387.591 255.64 389.097 255.294 390.709 254.902L390.724 254.933C390.724 254.933 392.742 256.016 395.318 255.745C397.427 255.535 399.565 254.647 401.011 254.496C401.102 254.978 401.192 255.459 401.162 255.956C401.072 257.341 399.098 257.356 396.869 257.1Z" fill="#233862"/>
<path d="M387.44 140.552C386.627 137.226 387.802 135.676 388.871 134.848C389.368 133.629 389.941 132.741 390.528 132.41C391.598 131.808 392.878 131.732 393.782 131.793C393.556 131.552 393.104 131.462 393.104 131.462C393.661 131.386 394.896 131.928 394.896 131.928C402.639 128.948 403.844 140.326 403.693 142.975C403.527 145.624 403.557 148.739 407.579 150.816C415.261 154.789 405.033 169.779 405.033 169.779C405.229 167.642 395.363 156.369 390.212 152.983C388.962 151.132 388.51 147.881 388.48 147.625C388.691 150.214 389.143 151.659 389.534 152.471C387.169 150.304 386.808 145.127 387.44 140.552Z" fill="#A9453D"/>
<path d="M390.498 153.149C390.468 153.164 392.984 154.458 394.866 153.947C396.644 153.465 397.804 151.162 397.774 151.147C397.02 150.997 396.809 149.958 396.825 145.519L396.478 145.579L390.754 146.707C390.754 146.707 390.89 148.513 390.89 150.199C390.905 151.644 390.815 152.998 390.498 153.149Z" fill="#FFB27D"/>
<path d="M390.77 146.723C390.77 146.723 390.905 148.528 390.905 150.214C394.113 150.124 395.8 147.204 396.493 145.594L390.77 146.723Z" fill="#ED975D"/>
<path d="M367.483 248.49C367.196 249.363 367.829 250.281 368.748 250.311L370.977 250.417L373.342 250.492C373.929 250.507 374.502 250.251 374.878 249.8C376.761 247.482 382.575 239.776 386.1 228.564C386.205 228.248 386.311 227.932 386.416 227.616C388.751 220.828 393.571 212.325 396.116 204.619C396.523 203.385 396.885 202.242 397.216 201.143C397.321 200.797 397.427 200.451 397.517 200.104C399.385 193.603 399.927 189.329 400.439 184.769L382.078 184.919C382.078 184.904 378.207 214.929 367.483 248.49Z" fill="#2A4E96"/>
<path d="M384.654 174.369C384.699 183.098 383.373 186.846 383.373 186.846C383.373 186.846 391.236 190.834 400.575 187.899C400.68 187.869 408.317 186.123 408.317 186.123C408.166 185.777 406.765 179.893 406.615 179.562C404.641 175.333 403.15 173.466 402.909 172.172C402.472 169.749 402.472 167.236 402.683 164.858C403.256 158.582 404.943 153.375 404.943 153.375C402.397 152.803 400.017 151.779 397.366 150.786C396.764 151.539 394.896 152.336 393.284 152.306C391.417 152.261 390.814 151.463 390.919 150.605C388.931 151.704 387.35 152.743 387.35 152.743C385.663 155.662 382.244 158.507 382.003 162.992C381.927 164.09 384.638 174.129 384.654 174.369Z" fill="white"/>
<path d="M400.439 175.332C401.237 176.461 402.774 183.369 406.615 184.227C404.642 179.306 403.15 177.154 402.909 175.649C402.473 172.819 402.473 169.899 402.683 167.145C401.403 164.903 400.439 163.368 400.439 163.368C400.334 163.007 398.406 157.017 397.788 162.374C397.156 167.732 399.535 174.068 400.439 175.332Z" fill="#5F9AA8"/>
<path d="M389.7 148.332C389.7 148.332 397.276 148.453 397.276 143.742C397.276 139.031 398.255 135.871 393.42 135.585C388.585 135.299 387.636 137.105 387.259 138.67C386.883 140.25 387.726 148.182 389.7 148.332Z" fill="#FFB27D"/>
<path d="M389.971 135.48C389.971 135.48 392.049 141.019 395.228 141.831C398.406 142.644 399.792 141.801 399.792 141.801C399.792 141.801 397.351 139.86 396.839 136.474C396.854 136.474 391.537 132.847 389.971 135.48Z" fill="#A9453D"/>
<path d="M390.498 135.916C390.498 135.916 388.947 137.15 388.57 138.354C388.193 139.558 388.028 142.026 387.305 141.936C387.305 141.936 385.738 138.174 387.501 136.052C389.353 133.809 390.498 135.916 390.498 135.916Z" fill="#A9453D"/>
<path d="M377.785 180.419L374.2 191.33L376.249 192.143L382.153 182.511L377.785 180.419Z" fill="#FFB27D"/>
<path d="M387.426 152.095C387.426 152.095 383.208 153.765 381.988 156.369C380.768 158.973 378.915 176.461 378.177 178.267C377.439 180.073 376.882 181.487 376.882 181.487C376.882 181.487 379.006 183.278 381.145 183.414C383.283 183.549 387.426 152.095 387.426 152.095Z" fill="#F99746"/>
<path d="M390.904 150.59C390.904 150.59 386.521 161.411 386.386 163.593C386.25 165.775 385.874 199.397 385.874 199.397C385.874 199.397 386.13 200.947 383.162 200.3C380.195 199.653 379.427 199.006 379.427 199.006C379.427 199.006 382.259 178.267 381.49 171.058C380.722 163.849 387.425 152.08 387.425 152.08L390.904 150.59Z" fill="#F99746"/>
<path d="M370.992 250.417L373.553 250.492C374.005 250.507 374.457 250.312 374.743 249.95C376.475 247.858 382.485 240.048 386.1 228.549C386.205 228.233 386.311 227.917 386.416 227.601C388.751 220.814 393.571 212.31 396.116 204.605C396.523 203.371 396.885 202.227 397.216 201.128C397.321 200.782 397.427 200.436 397.517 200.09L394.806 198.043C394.806 198.043 386.687 211.182 384.172 223.538C382.003 234.283 373.267 247.211 370.992 250.417Z" fill="#1E3D70"/>
<path d="M394.535 224.696C394.49 230.385 394.761 243.057 395.454 249.258C395.514 249.829 395.996 250.251 396.568 250.251H398.481C399.295 250.251 399.897 250.251 400.289 250.236C400.635 250.236 400.937 249.98 400.997 249.634C402.895 239.942 404.265 231.905 405.259 224.952C406.088 219.127 406.841 214.146 407.413 209.842C407.986 205.522 408.393 201.895 408.528 198.84C408.543 198.358 408.573 197.892 408.573 197.44C408.588 196.989 408.588 196.537 408.588 196.101L392.728 194.551C392.938 205.101 394.565 221.204 394.535 224.696Z" fill="#2A4E96"/>
<path d="M398.481 250.251C399.204 250.251 399.762 250.251 400.168 250.236C400.59 250.236 400.952 249.935 401.027 249.513C402.925 239.881 404.281 231.875 405.275 224.952C406.103 219.127 406.856 214.146 407.429 209.841C408.001 205.522 408.408 201.895 408.543 198.84L402.729 202.256C402.729 202.256 406.449 203.566 405.034 213.484C403.603 223.417 400.455 248.851 398.481 250.251Z" fill="#1E3D70"/>
<path d="M397.727 198.751C397.727 198.751 398.842 202.784 402.713 202.272C406.584 201.761 412.082 199.443 412.082 199.443C412.082 199.443 410.425 194.221 408.377 187.373C405.891 179.08 402.803 168.38 401.357 161.637C400.951 159.741 400.665 158.161 400.574 157.032L397.366 150.816C397.366 150.816 392.576 161.547 392.32 164.241C392.064 166.935 397.727 198.751 397.727 198.751Z" fill="#F99746"/>
<path d="M401.599 163.834L397.366 150.801C397.381 150.801 402.713 152.381 405.394 153.736C405.394 153.736 407.066 155.903 408.106 160.884C408.106 160.884 409.205 172.849 406.75 177.229C406.75 177.229 399.023 178.779 386.642 174.52V171.69C386.642 171.69 400.168 172.398 402.939 172.714L401.599 163.834Z" fill="#FFB27D"/>
<path d="M397.908 169.9C398.074 174.279 399.113 182.782 408.302 187.327C408.332 187.343 408.347 187.358 408.377 187.358C405.892 179.065 402.804 168.364 401.358 161.622C399.671 164.15 397.818 167.492 397.908 169.9Z" fill="#ED7D2B"/>
<path d="M397.367 150.816C397.367 150.816 405.215 151.373 407.113 155.572C408.995 159.786 409.598 173.768 407.203 177.891C407.203 177.891 403.889 178.839 398.03 177.741C397.955 177.726 397.879 177.711 397.819 177.696C397.819 177.696 395.951 173.12 397.623 172.217C397.623 172.217 402.564 172.473 402.052 170.848C401.509 169.223 397.367 150.816 397.367 150.816Z" fill="#F99746"/>
<path d="M377.68 173.466L377.906 174.204L390.784 170.2C390.784 170.2 390.95 170.005 390.874 169.749C390.784 169.463 390.558 169.463 390.558 169.463L377.68 173.466Z" fill="#A9453D"/>
<path d="M376.761 174.159L377.68 173.467L377.921 174.204L376.761 174.159Z" fill="#A9453D"/>
<path d="M374.712 191.029C374.712 191.029 371.444 192.835 371.022 194.205C370.585 195.574 370.886 198.464 371.398 198.419C371.911 198.374 372.694 195.334 373.116 195.108C373.537 194.882 374.14 194.25 374.14 194.717C374.14 195.183 373.703 196.041 373.929 196.176C374.155 196.312 374.833 194.972 375.3 194.717C375.767 194.461 375.977 192.339 376.429 191.767C376.896 191.195 374.712 191.029 374.712 191.029Z" fill="#FFB27D"/>
<path d="M386.657 171.705C386.657 171.705 383.735 169.914 382.515 170.185C381.294 170.456 378.162 172.729 379.668 173.21C381.174 173.692 382.394 173.18 382.966 173.541C383.539 173.902 383.976 174.55 386.657 174.535C389.338 174.535 386.657 171.705 386.657 171.705Z" fill="#FFB27D"/>
<path d="M156.893 152.396C156.396 151.447 167.573 148.046 167.754 157.362C167.754 157.362 188.69 156.85 178.689 145.187C175.225 141.153 175.586 137.812 175.691 134.712C175.797 131.612 173.538 122.582 165.78 123.485C165.78 123.485 163.747 122.657 161.216 123.966C155.463 126.961 142.569 155.827 156.893 152.396Z" fill="#163560"/>
<path d="M191.115 162.81C191.115 162.81 192.471 160.733 193.57 160.703C194.67 160.658 196.703 160.086 196.538 160.493C196.372 160.899 195.107 160.944 194.986 161.185C194.866 161.426 196.854 161.802 197.426 161.832C197.999 161.877 199.339 161.832 199.294 162.118C199.249 162.404 196.869 163.578 195.197 163.412C193.525 163.247 191.447 163.894 191.447 163.894L191.115 162.81Z" fill="#FFB27D"/>
<path d="M171.398 163.472C171.398 163.472 172.136 164.932 173.477 166.617C175.104 168.649 177.589 170.982 180.722 171.448C182.213 171.674 183.689 171.343 185.03 170.756C188.841 169.071 191.703 165.188 191.703 165.188C192.38 163.352 191.281 162.117 191.281 162.117C191.281 162.117 183.599 163.848 182.861 163.472C182.123 163.111 177.86 150.815 176.836 149.265C175.812 147.715 172.347 146.917 172.347 146.917L171.398 163.472Z" fill="#B0D0FF"/>
<path d="M173.493 166.633C175.119 168.665 177.605 170.998 180.738 171.464C182.229 171.69 183.705 171.359 185.046 170.772C184.895 170.787 181.099 171.254 179.578 168.545C178.026 165.775 176.354 161.396 174.065 162.856C173.071 163.473 173.116 165.053 173.493 166.633Z" fill="#98BAF4"/>
<path d="M142.72 246.383C142.72 246.383 140.37 248.52 140.837 250.04C141.289 251.561 143.412 252.569 143.699 254.435C143.985 256.286 145.13 257.31 146.154 257.31C147.178 257.31 151.064 257.31 151.064 257.31C151.064 257.31 151.817 256 149.995 255.609C148.157 255.218 147.479 253.035 147.585 251.004C147.705 248.972 147.419 246.278 147.419 246.278L143.533 245.375L142.72 246.383Z" fill="#233862"/>
<path d="M162.572 247.301C162.572 247.301 161.728 256.361 162.752 256.873L175.932 256.842C175.932 256.842 175.932 255.322 173.808 254.991C171.684 254.66 167.979 253.411 167.346 250.657C166.729 247.888 162.572 247.301 162.572 247.301Z" fill="#233862"/>
<path d="M153.188 182.285C155.899 176.205 157.556 174.459 157.24 172.578C156.999 171.178 157.963 146.406 157.963 146.406C158.279 146.3 158.927 146.21 159.288 146.135C160.403 145.894 161.322 145.111 161.698 144.028C162.165 142.734 162.527 140.822 162.512 138.444L162.858 138.52L168.702 139.678C168.702 139.678 168.567 141.515 168.567 143.245C168.567 143.26 168.567 143.275 168.567 143.29C168.567 144.795 169.546 146.12 170.992 146.541C171.73 146.752 172.378 146.933 172.378 146.933C172.378 146.933 174.516 153.058 174.938 159.334C175.345 165.625 171.037 168.349 174.968 180.915C178.975 193.738 151.697 185.656 153.188 182.285Z" fill="#FFB27D"/>
<path d="M168.703 139.678C168.703 139.678 168.567 141.514 168.567 143.245C165.299 143.155 163.566 140.175 162.858 138.52L168.703 139.678Z" fill="#E8945B"/>
<path d="M169.802 141.319C169.802 141.319 162.075 141.439 162.06 136.638C162.06 131.822 161.05 128.602 165.991 128.316C170.931 128.03 171.895 129.866 172.287 131.476C172.679 133.087 171.805 141.153 169.802 141.319Z" fill="#FFB27D"/>
<path d="M169.516 128.18C169.516 128.18 167.392 133.824 164.153 134.667C160.9 135.494 159.499 134.637 159.499 134.637C159.499 134.637 161.984 132.665 162.512 129.203C162.496 129.203 167.919 125.501 169.516 128.18Z" fill="#163560"/>
<path d="M168.988 128.647C168.988 128.647 170.555 129.234 171.202 130.377C171.835 131.491 172.377 132.981 172.242 134.802C172.242 134.802 173.838 130.964 172.046 128.797C170.148 126.479 168.988 128.647 168.988 128.647Z" fill="#163560"/>
<path d="M168.115 138.324C168.115 138.324 168.642 139.032 169.712 138.972C170.57 138.926 170.902 138.189 170.902 138.189C170.902 138.189 169.32 137.813 168.115 138.324Z" fill="#EBF3FA"/>
<path d="M152.435 157.363C152.435 157.363 152.239 160.132 152.435 163.443C152.57 165.64 154.799 168.59 155.116 169.327C155.914 171.164 156.803 171.449 156.803 171.449L163.716 173.15L166.157 173.752L173.823 171.465C173.823 171.465 177.318 161.712 175.917 156.234C174.516 150.741 172.377 146.933 172.377 146.933C172.377 146.933 166.111 153.058 157.963 146.406L152.435 157.363Z" fill="#B0D0FF"/>
<path d="M154.469 164.346C154.604 166.543 154.8 168.59 155.116 169.327C155.915 171.163 156.803 171.449 156.803 171.449L163.717 173.15L166.73 172.262C166.73 172.262 156.698 170.742 157.813 162.118L154.469 164.346Z" fill="#F2CCAA"/>
<path d="M173.342 172.938C173.342 172.938 177.138 184.753 177.379 188.786C177.62 192.804 170.119 245.946 169.817 247.797C169.531 249.543 167.362 250.657 167.362 250.657C167.362 250.657 166.368 251.244 164.937 250.837C162.964 250.28 162.331 249.618 162.331 249.618C162.331 249.618 159.379 211.722 161.202 198.192C163.039 184.662 163.054 172.954 163.054 172.954H173.342V172.938Z" fill="#ED7D2B"/>
<path d="M157.24 172.577C157.24 172.577 151.44 180.343 150.898 185.595C150.356 190.848 150.055 209.299 148.895 214.416C147.75 219.533 143.518 229.391 143.518 245.359C143.518 245.359 143.954 246.277 145.31 246.759C145.747 246.909 146.319 247.06 146.892 247.195C148.006 247.451 149.166 246.909 149.663 245.871C152.525 240.122 161.638 221.565 162.105 217.712C162.436 214.988 165.313 196.943 171.579 186.363C173.085 183.82 170.66 173.721 170.66 173.721L157.24 172.577Z" fill="#F99746"/>
<path d="M168.28 138.459C168.28 138.459 168.416 139.031 169.832 138.941C169.832 138.941 171.022 138.866 170.976 138.249C170.976 138.234 169.832 137.797 168.28 138.459Z" fill="white"/>
<path d="M173.944 171.118C173.944 171.118 172.423 172.322 169.395 172.382C165.78 172.458 156.803 171.464 156.803 171.464C156.803 171.464 156.411 172.578 156.426 173.752C156.426 173.752 167.377 176.506 173.733 174.158C173.718 174.143 174.546 172.608 173.944 171.118Z" fill="#233862"/>
<path d="M168.611 173.631C168.611 172.607 169.349 171.765 170.268 171.765C171.172 171.765 171.925 172.607 171.925 173.631C171.925 174.654 171.187 175.497 170.268 175.497C169.349 175.497 168.611 174.654 168.611 173.631ZM169.154 173.631C169.154 174.353 169.651 174.955 170.253 174.955C170.856 174.955 171.353 174.368 171.353 173.631C171.353 172.908 170.856 172.306 170.253 172.306C169.651 172.306 169.154 172.893 169.154 173.631Z" fill="white"/>
<path d="M145.006 173.237L156.229 183.002L169.603 167.656L158.379 157.891L145.006 173.237Z" fill="#B5453C"/>
<path d="M159.334 173.285C159.334 173.285 163.446 173.767 163.431 174.745C163.416 175.723 162.407 177.725 161.895 177.815C161.383 177.905 158.551 175.106 158.551 175.106L159.334 173.285Z" fill="#FFB27D"/>
<path d="M157.962 146.406C157.962 146.406 152.48 146.798 150.371 151.9C148.262 157.017 144.271 165.595 144.271 167.04C144.271 168.485 146.5 172.939 158.474 175.498C158.474 175.498 159.71 174.189 159.634 173.165C159.634 173.165 152.163 166.754 152.178 166.001C152.224 164.587 153.398 162.705 159.966 156.144C161.758 154.353 157.962 146.406 157.962 146.406Z" fill="#B0D0FF"/>
<path d="M218.62 257.024H218.575C218.274 257.024 218.018 256.768 218.033 256.467L218.861 220.588L221.301 220.302L219.223 256.467C219.193 256.783 218.922 257.024 218.62 257.024Z" fill="#B0D4FF"/>
<path d="M204.386 257.024H204.341C204.039 257.024 203.783 256.768 203.798 256.467L204.627 220.588L207.067 220.302L204.988 256.467C204.958 256.783 204.702 257.024 204.386 257.024Z" fill="#95C0F4"/>
<path d="M243.639 257.024H243.684C243.986 257.024 244.242 256.768 244.227 256.467L243.398 220.588L240.958 220.302L243.037 256.467C243.067 256.783 243.323 257.024 243.639 257.024Z" fill="#B0D4FF"/>
<path d="M202.774 218.36V193.768C202.774 189.449 206.284 185.942 210.607 185.942H228.335C232.658 185.942 236.168 189.449 236.168 193.768V219.293L202.774 218.36Z" fill="#B0D4FF"/>
<path d="M239.361 222.243H205.124C203.829 222.243 202.774 221.19 202.774 219.895V218.36H239.361V222.243Z" fill="#95C0F4"/>
<path d="M243.458 222.244H217.566C216.602 222.244 215.818 221.461 215.818 220.498V220.091C215.818 219.128 216.602 218.346 217.566 218.346H243.458C244.422 218.346 245.205 219.128 245.205 220.091V220.498C245.205 221.476 244.422 222.244 243.458 222.244Z" fill="#B0D4FF"/>
<path d="M242.463 212.235C239.918 216.644 236.725 218.36 236.725 218.36H223.439C223.439 218.36 244.391 208.863 242.463 212.235Z" fill="#233862"/>
<path d="M232.251 246.413C231.905 246.804 231.86 247.256 232.025 247.722C232.342 248.595 233.396 249.574 234.601 250.552C234.752 250.672 234.902 250.793 235.008 250.898C235.038 250.928 235.068 250.958 235.098 250.988C235.128 251.003 235.143 251.033 235.173 251.048C236.303 252.087 235.881 252.328 237.915 254.45C240.234 256.873 241.831 256.903 242.298 256.692C242.69 256.512 241.906 255.217 241.033 253.788C240.988 253.712 240.942 253.652 240.912 253.577C240.792 253.381 240.686 253.186 240.566 253.005C239.557 251.274 239.813 250.462 240.054 247.873C240.249 245.781 243.322 236.164 243.322 236.164L238.864 235.396C238.864 235.396 237.523 243.057 236.047 244.231C235.264 244.863 234.375 244.863 233.607 245.329C233.547 245.36 233.501 245.39 233.456 245.435C233.035 245.721 232.598 246.022 232.251 246.413Z" fill="#FFB27D"/>
<path d="M232.251 246.413C231.905 246.804 231.86 247.256 232.025 247.722C232.417 248.595 233.441 249.573 234.616 250.536C234.767 250.657 234.902 250.777 235.023 250.898C235.053 250.928 235.083 250.958 235.113 250.988C235.143 251.003 235.158 251.033 235.188 251.048C236.318 252.087 235.896 252.327 237.93 254.449C240.249 256.872 241.846 256.903 242.313 256.692C242.705 256.511 241.921 255.217 241.048 253.787C240.596 253.622 238.487 252.764 236.906 250.732C235.505 248.941 234.571 246.654 233.622 245.329C233.562 245.359 233.517 245.389 233.471 245.434C233.035 245.72 232.598 246.021 232.251 246.413Z" fill="#233862"/>
<path d="M268.161 243.629C268.432 244.998 270.39 244.773 272.589 244.246C274.773 243.704 274.261 244.351 277.379 244.005C280.497 243.659 281.431 242.5 281.536 242.034C281.627 241.627 280.075 241.477 278.433 241.281C278.223 241.251 278.012 241.236 277.816 241.206C275.948 240.965 274.592 239.776 272.89 238.783C271.294 237.85 268.899 234.042 268.899 234.042L264.621 234.373C264.621 234.373 266.865 237.774 267.724 239.249C268.236 240.122 268.206 241.266 268.146 242.154C268.085 242.651 268.055 243.147 268.161 243.629Z" fill="#FFB27D"/>
<path d="M272.574 244.246C274.758 243.704 274.246 244.352 277.364 244.005C280.482 243.659 281.416 242.5 281.521 242.034C281.612 241.627 280.06 241.477 278.418 241.281L278.403 241.311C278.403 241.311 276.536 242.636 273.945 242.696C271.836 242.741 269.592 242.139 268.131 242.169C268.101 242.651 268.07 243.147 268.161 243.629C268.432 245.014 270.39 244.773 272.574 244.246Z" fill="#233862"/>
<path d="M251.788 216.343L247.796 227.089L242.584 241.115C242.584 241.115 241.169 241.251 239.813 240.86C238.563 240.498 237.132 239.55 237.132 239.55C237.132 239.55 238.578 224.5 241.274 215.846C241.967 213.634 242.735 211.828 243.594 210.82C247.781 205.883 251.788 216.343 251.788 216.343Z" fill="#233862"/>
<path d="M247.721 199.276C245.1 198.433 237.644 199.517 230.143 200.977L228.577 198.388L212.384 197.124C212.384 197.124 207.037 208.968 209.959 216.508C210.396 217.622 211.24 218.329 212.701 218.345H212.942C212.942 218.345 222.582 218.345 225.715 218.345C233.773 218.345 242.75 212.806 243.925 212.58C245.823 212.204 246.591 215.997 248.489 220C250.387 223.988 266.383 237.684 266.383 237.684C266.383 237.684 268.839 237.714 269.863 237.323C270.947 236.916 271.354 236.389 271.354 236.389C271.354 236.389 253.626 201.188 247.721 199.276Z" fill="#2B478B"/>
<path d="M227.943 151.297C225.864 150.213 222.716 150.063 222.204 149.988C216.074 149.16 212.368 158.07 212.158 160.779C211.751 165.76 209.13 166.513 205.41 169.628C197.969 175.874 200.153 183.143 204.22 185.837C206.66 187.462 210.953 185.837 210.953 185.837C211.013 185.882 222.716 179.305 228.47 176.13C237.131 174.895 233.23 154.066 227.943 151.297Z" fill="#233862"/>
<path d="M223.651 173.42C223.681 173.436 220.819 174.414 218.906 173.571C217.098 172.773 215.743 169.808 215.773 169.808C216.586 169.763 217.49 169.056 218.183 164.36L218.529 164.481L224.389 166.588C224.389 166.588 223.967 168.469 223.696 170.26C223.455 171.765 223.334 173.21 223.651 173.42Z" fill="#FFB27D"/>
<path d="M224.389 166.603C224.389 166.603 223.967 168.484 223.696 170.275C220.322 169.673 219.011 166.317 218.529 164.496L224.389 166.603Z" fill="#ED975D"/>
<path d="M225.263 168.469C225.263 168.469 217.234 167.385 217.987 162.404C218.74 157.422 218.198 153.931 223.365 154.397C228.516 154.879 229.224 156.926 229.39 158.641C229.525 160.372 227.356 168.619 225.263 168.469Z" fill="#FFB27D"/>
<path d="M229.074 155.917C229.074 155.917 223.938 160.342 220.443 160.703C216.949 161.065 215.623 159.936 215.623 159.936C215.623 159.936 217.687 158.22 218.922 155.466C219.283 154.653 220.051 154.096 220.94 154.021C223.456 153.81 228.185 153.705 229.074 155.917Z" fill="#233862"/>
<path d="M225.864 155.526C225.864 155.526 227.581 157.181 228.124 158.415C228.651 159.604 228.801 162.449 228.38 163.578C228.38 163.578 231.061 158.37 229.54 155.842C227.943 153.163 225.864 155.526 225.864 155.526Z" fill="#233862"/>
<path d="M230.399 185.235C230.158 201.459 230.339 198.072 228.562 199.607C228.14 199.984 226.935 200.194 225.353 200.3C220.368 200.631 211.616 199.803 211.285 198.885C210.14 195.709 210.954 194.716 209.99 189.84C209.884 189.328 209.764 188.756 209.628 188.154C208.83 184.813 208.047 183.669 210.893 178.297C213.469 173.42 216.135 169.477 216.376 169.613C223.154 173.631 223.712 170.26 223.712 170.26C223.712 170.26 230.52 177.318 230.399 185.235Z" fill="white"/>
<path d="M247.796 227.073L242.584 241.1C242.584 241.1 241.169 241.235 239.813 240.844C238.563 240.483 237.132 239.535 237.132 239.535C237.132 239.535 238.578 224.485 241.274 215.831L247.796 227.073Z" fill="#2B478B"/>
<path d="M223.681 170.26C223.681 170.26 230.655 171.449 231.483 174.444C232.296 177.454 237.131 195.092 237.131 195.092C237.131 195.092 233.577 195.724 231.95 194.099C230.308 192.459 226.241 178.898 226.241 178.898L223.681 170.26Z" fill="white"/>
<path d="M225.353 200.3C220.367 200.631 211.616 199.804 211.285 198.886C210.14 195.71 210.953 194.717 209.989 189.84L212.384 183.083C212.384 183.083 211.993 190.608 214.207 192.595C216.421 194.581 223.305 196.417 224.374 198.073C224.901 198.87 225.248 199.668 225.353 200.3Z" fill="#EBF3FF"/>
<path d="M219.645 197.14C219.645 197.14 224.555 196.041 225.353 196.477C226.152 196.914 228.08 198.494 228.321 199.051C228.562 199.608 226.558 198.63 225.895 198.464C225.474 198.344 224.359 198.735 223.802 198.916C221.482 199.683 220.066 199.292 220.066 199.292L219.645 197.14Z" fill="#FFB27D"/>
<path d="M216.346 169.628C216.346 169.628 209.748 170.034 207.459 173.21C204.25 177.695 197.864 196.778 201.524 199.337C205.636 202.211 220.262 200.089 220.262 200.089C220.262 200.089 220.744 197.817 220.066 196.718C219.388 195.619 208.393 193.843 207.88 193.332C207.368 192.82 214.222 183.444 214.222 181.924C214.237 180.389 216.346 169.628 216.346 169.628Z" fill="white"/>
<path d="M225.579 197.847C225.579 197.847 226.603 199.171 226.95 199.337C227.281 199.502 227.507 199.457 227.507 199.457L226.814 198.208L225.579 197.847Z" fill="#FFB27D"/>
<path d="M225.353 196.478L228.35 197.922C228.35 197.922 228.229 198.133 227.853 198.118C227.491 198.103 226.558 197.757 226.558 197.757L225.353 196.478Z" fill="#FFB27D"/>
<path d="M226.95 201.369H250.628L257.753 183.67H234.105L226.95 201.369Z" fill="#F99746"/>
<path d="M250.899 200.677H219.645V201.369H250.628L250.899 200.677Z" fill="#ED7D2B"/>
<path d="M244.648 192.519C244.829 191.902 244.468 191.391 243.85 191.391C243.232 191.391 242.585 191.902 242.404 192.519C242.223 193.136 242.585 193.648 243.202 193.648C243.82 193.648 244.468 193.136 244.648 192.519Z" fill="white"/>
<path d="M350.613 257.686H350.688C351.095 257.686 351.426 257.34 351.411 256.904L350.311 206.667L347.088 206.275L349.844 256.919C349.859 257.34 350.191 257.686 350.613 257.686Z" fill="#78ACEA"/>
<path d="M219.765 257.686H219.689C219.283 257.686 218.951 257.34 218.966 256.904L220.066 206.667L223.289 206.275L220.533 256.904C220.518 257.34 220.171 257.686 219.765 257.686Z" fill="#78ACEA"/>
<path d="M354.499 207.585H216.421C215.291 207.585 214.372 206.667 214.372 205.538V203.566C214.372 202.438 215.291 201.52 216.421 201.52H354.499C355.628 201.52 356.547 202.438 356.547 203.566V205.538C356.547 206.682 355.628 207.585 354.499 207.585Z" fill="#78ACEA"/>
<path d="M186.326 115.433C185.799 102.535 196.629 96.8008 207.685 96.8008C218.741 96.8008 230.791 99.6603 231.83 116.817C232.508 127.849 226.618 134.636 209.658 134.636C203.934 134.636 199.491 133.734 196.087 132.123L187.606 139.648L191.764 129.249C188.103 125.832 186.537 120.986 186.326 115.433Z" fill="#DFEDFB"/>
<path d="M437.794 257.625C437.794 257.625 438.11 255.202 438.833 253.758C439.556 252.313 444.135 253.231 444.135 253.231C444.135 253.231 445.054 254.013 445.25 257.686L437.794 257.625Z" fill="#233862"/>
<path d="M422.159 257.595C423.244 256.933 422.626 252.027 422.626 252.027C422.626 252.027 417.595 248.008 416.917 251.079C416.24 254.149 412.142 255.533 409.823 255.91C408.226 256.165 407.729 257.053 407.563 257.58H422.159V257.595Z" fill="#233862"/>
<path d="M432.568 221.927C432.357 223.056 432.236 223.974 432.206 224.636C431.739 233.741 424.539 254.556 423.244 255.037C421.256 255.79 418.108 254.194 416.466 253.668C415.788 253.457 415.321 252.765 415.472 252.072C419.041 235.698 420.352 212.1 420.819 198.148C421.06 191.12 422.265 186.259 422.265 186.259C422.265 186.259 439.828 181.578 439.933 187.493C440.039 192.73 434.134 213.273 432.568 221.927Z" fill="#213F7A"/>
<path d="M432.567 221.927L420.833 198.133C421.074 191.104 422.279 186.243 422.279 186.243C422.279 186.243 439.842 181.563 439.947 187.477C440.038 192.73 434.133 213.273 432.567 221.927Z" fill="#233862"/>
<path d="M428.651 187.507L437.93 254.735C437.93 254.735 442.012 255.713 445.175 254.931C445.175 254.931 447.886 219.172 447.66 210.533C447.434 201.894 449.618 187.401 447.163 185.806C444.738 184.196 428.651 187.507 428.651 187.507Z" fill="#213F7A"/>
<path d="M448.986 186.378C449.031 186.98 448.639 187.537 448.052 187.703C446.757 188.079 445.265 188.335 442.388 188.937C439.677 189.493 436.047 189.99 431.574 190.02C424.464 190.065 421.768 187.612 421.768 187.612C421.467 187.612 421.934 186.137 422.355 179.064C422.491 176.671 422.641 173.631 422.732 169.793C422.822 166.347 422.882 162.238 422.882 157.377C422.898 151.522 431.965 145.231 432.131 145.231C432.131 146.074 433.456 147.624 435.505 147.76C437.93 147.925 440.912 146.706 440.912 145.307C440.912 145.292 445.311 152.335 446.862 159.83C447.675 163.607 447.344 163.517 448.986 186.378Z" fill="#B0D0FF"/>
<path d="M432.131 145.232C432.131 145.232 423.696 145.156 421.662 148.001C419.629 150.845 415.186 166.136 417.505 171.238C419.825 176.325 424.178 169.131 426.588 166.016C429.013 162.9 432.131 145.232 432.131 145.232Z" fill="#B0D0FF"/>
<path d="M432.055 143.952V144.825C432.055 144.825 431.814 147.549 435.172 147.941C438.531 148.347 441.017 147.429 440.926 145.337C440.625 143.712 440.339 142.041 440.324 140.687C440.309 140.19 440.354 139.648 440.444 139.061L433.937 138.926L432.024 139.242L432.055 143.952Z" fill="#FFB27D"/>
<path d="M432.024 139.242L432.055 143.952C432.747 144.269 433.531 144.464 434.404 144.464C437.387 144.464 439.33 142.267 440.339 140.687C440.324 140.19 440.369 139.648 440.459 139.061L433.952 138.926L432.024 139.242Z" fill="#E2915A"/>
<path d="M440.942 138.008C440.189 142.071 434.947 141.936 432.688 141.68C432.055 141.605 431.649 141.529 431.649 141.529C430.926 141.334 430.534 140.205 430.338 138.73C429.962 135.795 430.429 131.491 430.926 130.392C431.679 128.737 433.08 126.946 438.351 128.24C443.638 129.519 441.906 132.8 440.942 138.008Z" fill="#FFB27D"/>
<path d="M423.514 156.64C423.514 156.64 420.246 163.834 420.351 166.001C420.351 166.001 421.963 165.941 423.514 166.407C426.06 167.16 423.514 156.64 423.514 156.64Z" fill="#98BAF4"/>
<path d="M429.314 126.525C429.314 126.525 431.633 126.344 434.375 125.155C436.604 124.192 439.406 125.245 440.31 125.727C440.279 125.576 440.219 125.381 440.084 125.185C440.084 125.185 440.49 125.471 440.55 125.877C440.596 125.908 440.611 125.923 440.596 125.938C440.596 125.938 441.063 125.847 441.364 125.983C441.364 125.983 441.153 125.953 441.078 126.088C441.063 126.103 441.063 126.118 441.048 126.118C444.512 127.789 444.843 133.267 443.714 134.546C442.373 136.066 440.34 139.528 440.34 139.528C440.34 139.528 440.174 138.7 440.415 137.361C440.656 136.021 439.496 136.021 438.035 135.404C436.574 134.787 437.794 133.086 436.514 132.048C435.233 131.01 430.534 131.627 430.594 130.829C428.862 130.197 429.314 126.705 429.314 126.525Z" fill="#233862"/>
<path d="M442.011 170.11C440.64 175.633 425.744 178.493 422.354 179.065C422.49 176.672 422.641 173.632 422.731 169.794L442.011 170.11Z" fill="#98BAF4"/>
<path d="M438.743 171.915C438.879 171.915 442.057 171.448 442.614 171.163C443.172 170.877 445.778 167.189 444.076 166.256C442.373 165.308 437.81 169.086 437.81 169.086L438.743 171.915Z" fill="#FFB27D"/>
<path d="M419.462 172.998C419.462 172.998 431.708 173.661 439.932 171.9C439.932 171.9 440.143 169.522 437.553 168.468C437.553 168.468 424.734 165.759 421.662 166.512C418.589 167.279 419.462 172.998 419.462 172.998Z" fill="#B0D0FF"/>
<path d="M447.615 163.398C445.069 166.468 441.741 168.966 438.08 169.553C438.05 169.508 436.966 167.868 437.177 165.46C437.267 164.346 437.644 163.067 438.517 161.712C438.788 161.291 439.029 160.809 439.24 160.268C441.243 155.166 440.942 145.338 440.942 145.338C440.942 145.338 449.437 146.226 452.088 150.003C453.7 152.306 451.621 158.552 447.615 163.398Z" fill="#B0D0FF"/>
<path d="M432.688 141.679C432.055 141.604 431.648 141.529 431.648 141.529C430.925 141.333 430.534 140.204 430.338 138.729C431.678 139.061 432.296 140.099 432.567 140.551C432.673 140.731 432.703 141.183 432.688 141.679Z" fill="#E2915A"/>
<path d="M429.254 143.968C429.254 143.968 426.317 139.122 428.606 138.911C430.896 138.7 431.8 140.251 432.131 140.807C432.462 141.379 432.041 143.938 432.041 143.938L429.254 143.968Z" fill="#FFB27D"/>
<path d="M440.445 165.293C440.355 165.91 440.174 166.467 439.948 166.978C439.225 168.574 438.081 169.552 438.081 169.552C430.459 166.12 428.922 154.306 428.651 147.82C428.546 145.216 428.651 143.47 428.651 143.47C432.086 142.326 433.05 144.313 433.05 144.313C433.05 144.313 437.117 153.96 439.21 160.266C440.024 162.659 440.551 164.585 440.445 165.293Z" fill="#B0D0FF"/>
<path d="M447.615 163.397C445.07 166.467 441.741 168.966 438.081 169.553C430.459 166.121 428.922 154.307 428.651 147.82C428.651 147.82 432.251 160.899 437.162 165.459C438.05 166.287 438.984 166.828 439.933 166.979C439.933 166.979 446.124 165.233 447.419 163.578C447.525 163.457 447.585 163.412 447.615 163.397Z" fill="#98BAF4"/>
<path d="M308.768 201.535H285.105L277.98 183.836H301.614L308.768 201.535Z" fill="#2B478B"/>
<path d="M284.818 200.843H316.088V201.535H285.105L284.818 200.843Z" fill="#2B478B"/>
<path d="M291.07 192.685C290.889 192.068 291.251 191.557 291.868 191.557C292.486 191.557 293.134 192.068 293.314 192.685C293.495 193.302 293.134 193.814 292.516 193.814C291.898 193.814 291.251 193.302 291.07 192.685Z" fill="white"/>
<path d="M500.846 257.234V257.385C500.846 257.626 500.62 257.821 500.349 257.821H66.0215C65.7504 257.821 65.5244 257.626 65.5244 257.385V257.234C65.5244 256.993 65.7504 256.798 66.0215 256.798H500.349C500.62 256.798 500.846 256.993 500.846 257.234Z" fill="#2E3552"/>
<rect x="79" y="285" width="431" height="84" fill="#5F9048" fill-opacity="0.69"/>
</g>
<defs>
<filter id="filter0_d" x="0" y="0" width="542" height="419" filterUnits="userSpaceOnUse" color-interpolation-filters="sRGB">
<feFlood flood-opacity="0" result="BackgroundImageFix"/>
<feColorMatrix in="SourceAlpha" type="matrix" values="0 0 0 0 0 0 0 0 0 0 0 0 0 0 0 0 0 0 127 0" result="hardAlpha"/>
<feOffset dy="20"/>
<feGaussianBlur stdDeviation="15"/>
<feComposite in2="hardAlpha" operator="out"/>
<feColorMatrix type="matrix" values="0 0 0 0 0 0 0 0 0 0 0 0 0 0 0 0 0 0 0.1 0"/>
<feBlend mode="normal" in2="BackgroundImageFix" result="effect1_dropShadow"/>
<feBlend mode="normal" in="SourceGraphic" in2="effect1_dropShadow" result="shape"/>
</filter>
</defs>
</svg>
