<svg width="438" height="438" viewBox="0 0 438 438" fill="none" xmlns="http://www.w3.org/2000/svg">
<mask id="mask0" mask-type="alpha" maskUnits="userSpaceOnUse" x="4" y="71" width="426" height="357">
<rect x="4" y="71" width="426" height="357" rx="10" fill="white"/>
<rect x="5" y="72" width="424" height="355" rx="9" stroke="black" stroke-opacity="0.1" stroke-width="2"/>
</mask>
<g mask="url(#mask0)">
</g>
<g clip-path="url(#clip0)">
<path d="M203.932 382.812C299.628 382.812 377.205 305.235 377.205 209.539C377.205 113.843 299.628 36.2666 203.932 36.2666C108.236 36.2666 30.6592 113.843 30.6592 209.539C30.6592 305.235 108.236 382.812 203.932 382.812Z" fill="#BBDEF2"/>
<path d="M60.9694 283.211C27.5938 283.211 0.525391 256.055 0.525391 222.767C0.525391 189.392 27.6814 162.323 60.9694 162.323C94.345 162.323 121.413 189.479 121.413 222.767C121.501 256.055 94.345 283.211 60.9694 283.211ZM60.9694 164.951C29.083 164.951 3.15339 190.881 3.15339 222.767C3.15339 254.654 29.083 280.583 60.9694 280.583C92.8558 280.583 118.785 254.654 118.785 222.767C118.785 190.881 92.8558 164.951 60.9694 164.951Z" fill="#D9ECF4"/>
<path d="M60.9698 276.028C31.6238 276.028 7.70898 252.114 7.70898 222.768C7.70898 193.422 31.6238 169.507 60.9698 169.507C90.3158 169.507 114.231 193.422 114.231 222.768C114.231 252.114 90.4034 276.028 60.9698 276.028ZM60.9698 172.135C33.113 172.135 10.4246 194.823 10.4246 222.68C10.4246 250.537 33.113 273.313 60.9698 273.313C88.8266 273.313 111.515 250.624 111.515 222.768C111.515 194.911 88.9142 172.135 60.9698 172.135Z" fill="#D9ECF4"/>
<path d="M67.9777 262.713H52.7353V250.449C51.9469 249.923 51.1585 249.398 50.3701 248.872L49.5817 253.077H34.1641V228.899H50.8081V230.213C50.8081 236.082 56.7649 237.221 60.3565 237.396C62.1961 237.396 65.4373 236.958 65.4373 234.33C65.4373 232.841 61.4077 231.44 57.5533 230.038C49.1437 227.06 36.4417 222.504 36.4417 208.926C36.4417 197.363 44.4133 191.319 52.7353 190.268V182.646H67.9777V192.458C69.0289 192.983 69.9049 193.684 70.6933 194.385L71.1313 191.231H86.7241V214.796H70.3429V213.482C70.3429 208.313 67.0141 204.897 61.7581 204.897C60.1813 204.897 57.8161 205.948 57.8161 208.138C57.8161 210.678 62.2837 212.343 67.4521 214.27C76.0369 217.511 87.8629 221.891 87.8629 234.768C87.8629 247.646 77.8765 252.726 67.9777 253.34V262.713ZM55.4509 259.997H65.3497V250.887H66.6637C71.0437 250.799 85.2349 249.398 85.2349 234.944C85.2349 223.906 75.3361 220.227 66.5761 216.986C60.4441 214.708 55.1881 212.693 55.1881 208.313C55.1881 204.722 58.6045 202.444 61.7581 202.444C67.9777 202.444 72.3577 206.386 72.8833 212.343H84.0085V194.21H73.4965L72.4453 201.831L70.5181 198.59C69.5545 197.013 68.0653 195.699 66.1381 194.735L65.3497 194.385V185.625H55.4509V192.983L54.2245 193.071C48.6181 193.509 39.1573 197.363 39.1573 209.189C39.1573 220.928 49.8445 224.694 58.4293 227.76C63.8605 229.688 68.0653 231.177 68.0653 234.506C68.0653 238.097 65.1745 240.2 60.1813 240.2C53.1733 239.849 48.7933 236.696 48.1801 231.615H36.7921V250.449H47.3041L48.5305 243.879L50.2825 245.456C51.6841 246.682 53.1733 247.733 54.6625 248.609L55.3633 248.96V259.997H55.4509Z" fill="#D9ECF4"/>
<path d="M315.798 221.715H303.359V208.313H296.176V221.715H283.737V208.313H266.479V191.581H272.787V146.642H266.479V129.998H283.737V116.508H296.176V129.911H303.359V116.508H315.798V130.349C332.53 132.539 336.121 141.999 336.121 149.708C336.121 158.293 333.844 163.023 327.712 166.352C335.421 169.593 339.801 176.251 339.801 184.923C339.801 199.377 332.355 206.561 315.798 207.962V221.715ZM306.075 219H313.17V205.509L314.397 205.422C330.34 204.371 337.085 198.239 337.085 184.923C337.085 173.273 328.763 169.155 323.77 167.841L319.915 166.79L323.595 165.301C330.953 162.323 333.318 158.556 333.318 149.796C333.318 139.897 326.923 134.291 314.221 132.889L312.995 132.801V119.223H305.899V132.626H293.373V119.223H286.452V132.626H269.195V143.927H275.502V194.209H269.195V205.597H286.452V219H293.548V205.597H306.075V219ZM305.199 194.209H295.212V172.659H304.848C311.155 172.659 315.273 176.952 315.273 183.522C315.36 190.442 310.104 194.209 305.199 194.209ZM297.928 191.493H305.199C308.878 191.493 312.645 188.778 312.645 183.522C312.645 178.353 309.754 175.375 304.936 175.375H297.928V191.493ZM303.184 163.111H295.212V144.189H303.359C303.885 144.189 304.41 144.277 304.936 144.365C309.141 145.065 311.856 148.569 311.856 153.475C311.856 157.242 311.155 162.323 304.848 163.023C304.41 163.111 303.797 163.111 303.184 163.111ZM297.928 160.483H303.184C303.709 160.483 304.147 160.483 304.585 160.395C307.914 159.957 309.228 158.03 309.228 153.475C309.228 149.883 307.476 147.518 304.498 146.993C304.147 146.905 303.797 146.905 303.359 146.905H297.928V160.483Z" fill="#D9ECF4"/>
<path d="M342.953 329.639C340.676 329.639 338.398 329.464 336.121 329.114C321.842 326.836 308.877 317.463 302.219 304.586C297.927 296.351 296.263 286.803 294.511 277.605C292.146 264.553 289.868 252.113 280.933 243.441C272.436 235.207 259.471 231.878 240.023 232.929C237.571 233.104 235.118 233.192 232.665 233.367C220.138 234.243 207.173 235.119 195.26 230.827C180.981 225.571 168.63 212.606 160.483 194.21C156.103 184.399 153.212 173.974 150.321 163.9C148.657 157.943 146.905 151.724 144.89 145.767C138.32 126.232 129.472 112.742 118.084 104.595C98.8999 90.8418 69.7291 93.207 52.9975 109.851L51.0703 107.924C68.6779 90.4038 99.4255 87.951 119.661 102.405C131.575 110.902 140.685 124.831 147.43 144.979C149.445 151.023 151.197 157.243 152.949 163.199C155.752 173.186 158.731 183.523 163.023 193.159C170.907 210.854 182.646 223.381 196.311 228.374C207.699 232.579 220.313 231.615 232.577 230.827C235.03 230.651 237.571 230.476 240.023 230.301C252.725 229.6 271.034 230.038 282.948 241.601C292.496 250.887 294.949 264.202 297.314 277.167C298.978 286.19 300.643 295.475 304.76 303.359C310.979 315.448 323.243 324.296 336.646 326.398C350.137 328.501 364.415 323.858 374.139 314.222L376.066 316.149C367.306 324.821 355.13 329.639 342.953 329.639Z" fill="#D9ECF4"/>
<path d="M98.9874 90.4033C93.2058 90.4033 94.0818 99.3385 99.7758 99.3385C105.557 99.2509 104.681 90.4033 98.9874 90.4033Z" fill="#D9ECF4"/>
<path d="M295.649 271.561C289.868 271.561 290.744 280.496 296.438 280.496C302.132 280.496 301.343 271.561 295.649 271.561Z" fill="#D9ECF4"/>
<path d="M320.966 319.74C315.184 319.74 316.06 328.675 321.754 328.675C327.448 328.675 326.66 319.74 320.966 319.74Z" fill="#D9ECF4"/>
<path d="M254.39 228.899C248.608 228.899 249.484 237.835 255.178 237.835C260.96 237.747 260.084 228.899 254.39 228.899Z" fill="#D9ECF4"/>
<path d="M163.023 194.647C157.242 194.647 158.118 203.583 163.812 203.583C169.593 203.495 168.805 194.647 163.023 194.647Z" fill="#D9ECF4"/>
<path d="M163.461 407.691C137.532 407.691 116.42 386.579 116.42 360.65C116.42 334.72 137.532 313.608 163.461 313.608C189.391 313.608 210.502 334.72 210.502 360.65C210.502 386.579 189.391 407.691 163.461 407.691ZM163.461 315.711C138.67 315.711 118.522 335.859 118.522 360.65C118.522 385.44 138.67 405.588 163.461 405.588C188.252 405.588 208.4 385.44 208.4 360.65C208.4 335.859 188.252 315.711 163.461 315.711Z" fill="#D9ECF4"/>
<path d="M163.461 402.084C140.598 402.084 122.026 383.513 122.026 360.65C122.026 337.786 140.598 319.215 163.461 319.215C186.325 319.215 204.896 337.786 204.896 360.65C204.896 383.513 186.325 402.084 163.461 402.084ZM163.461 321.317C141.736 321.317 124.129 339.012 124.129 360.65C124.129 382.287 141.824 399.982 163.461 399.982C185.186 399.982 202.794 382.287 202.794 360.65C202.794 339.012 185.098 321.317 163.461 321.317Z" fill="#D9ECF4"/>
<path d="M168.892 391.747H157.066V382.199C156.453 381.848 155.84 381.41 155.227 380.972L154.614 384.214H142.612V365.38H155.577V366.431C155.577 370.986 160.22 371.862 162.935 372.037C164.425 372.037 166.877 371.687 166.877 369.672C166.877 368.533 163.724 367.394 160.745 366.343C154.175 363.978 144.364 360.474 144.364 349.874C144.364 340.939 150.584 336.209 157.066 335.333V329.376H168.892V336.997C169.681 337.435 170.381 337.961 170.995 338.486L171.345 336.034H183.434V354.342H170.644V353.291C170.644 349.261 168.016 346.633 163.987 346.633C162.76 346.633 160.921 347.422 160.921 349.086C160.921 351.101 164.425 352.327 168.454 353.904C175.112 356.444 184.31 359.861 184.31 369.847C184.31 379.834 176.514 383.863 168.892 384.301V391.747ZM159.081 389.645H166.79V382.549H167.841C171.258 382.462 182.295 381.41 182.295 370.11C182.295 361.525 174.586 358.634 167.753 356.094C163.023 354.342 158.906 352.765 158.906 349.349C158.906 346.546 161.534 344.794 164.074 344.794C168.98 344.794 172.309 347.86 172.747 352.502H181.419V338.399H173.272L172.396 344.356L170.907 341.815C170.206 340.589 168.98 339.538 167.491 338.837L166.877 338.574V331.741H159.169V337.523L158.205 337.61C153.825 337.961 146.467 340.939 146.467 350.137C146.467 359.248 154.789 362.226 161.534 364.591C165.739 366.08 169.067 367.307 169.067 369.847C169.067 372.65 166.79 374.315 162.935 374.315C157.504 374.052 154.088 371.599 153.562 367.657H144.715V382.286H152.949L153.913 377.206L155.314 378.432C156.453 379.396 157.504 380.184 158.731 380.885L159.256 381.148V389.645H159.081Z" fill="#D9ECF4"/>
<path d="M422.67 178.179L394.9 165.915L337.435 286.452L302.395 234.944L267.793 305.637H106.259L4.29211 407.603L-14.8047 388.506L95.1333 278.656H250.974L298.54 181.42L333.318 232.491L370.285 154.965L343.654 143.139L403.398 113.18L422.67 178.179Z" fill="#EA6C6C"/>
<path d="M163.724 115.369C161.972 115.107 159.869 114.581 157.679 113.53C148.043 109.325 140.772 111.165 140.772 111.165L133.064 122.027C133.064 122.027 133.677 115.895 129.822 114.406C128.508 113.968 127.019 114.756 125.793 116.245C126.231 113.004 126.056 108.799 125.442 104.157C124.479 97.4115 132.626 96.8859 132.626 96.8859C132.626 96.8859 129.56 93.5571 136.918 90.3159C144.189 87.0747 152.073 96.9735 162.41 100.653C172.834 104.332 176.513 102.58 174.498 108.624C172.922 113.267 169.505 116.158 163.724 115.369Z" fill="#140B38"/>
<path d="M147.518 147.08C147.08 147.255 146.642 147.431 146.204 147.518C137.707 149.883 131.312 142.437 130.962 141.999C131.137 142.613 133.94 151.635 143.226 153.387L139.021 161.709L120.888 143.313L124.041 136.043L126.757 129.735C122.114 125.355 123.253 119.311 125.706 116.245C126.932 114.756 128.421 113.967 129.735 114.405C133.59 115.807 132.977 122.027 132.977 122.027L140.685 111.164C140.685 111.164 147.956 109.325 157.592 113.529C159.87 114.493 161.885 115.106 163.637 115.369C162.761 119.661 159.344 135.342 152.949 142.963C151.811 144.365 150.497 145.503 149.095 146.204C148.569 146.555 148.044 146.817 147.518 147.08Z" fill="#F49F9F"/>
<path d="M146.204 147.519L143.226 153.476C133.94 151.724 131.137 142.701 130.962 142.088C131.312 142.351 137.707 149.884 146.204 147.519Z" fill="#140B38"/>
<path d="M153.475 124.305C153.475 124.305 154.001 136.656 153.388 138.233C152.687 139.722 148.219 136.131 148.219 136.131L145.153 135.605L153.475 124.305Z" fill="#EA6C6C"/>
<path d="M129.385 116.683C128.596 116.245 127.72 116.333 126.932 116.771C126.143 117.297 125.705 118.173 125.267 119.049C125.005 119.662 125.881 120.1 126.143 119.487C126.406 118.873 126.757 118.173 127.282 117.647C127.895 117.209 128.509 117.121 129.034 117.647C130.261 118.786 130.173 120.45 129.823 121.852C129.647 122.465 129.472 123.166 129.122 123.691C128.859 124.129 128.246 124.655 127.72 124.655C127.107 124.567 127.107 123.691 127.195 123.253C127.282 122.991 127.37 122.553 127.633 122.465C127.72 122.377 128.071 122.377 128.071 122.465C128.333 123.078 129.297 122.728 129.034 122.115C128.771 121.501 127.983 121.239 127.37 121.414C126.669 121.677 126.319 122.465 126.231 123.166C126.143 123.867 126.231 124.655 126.757 125.093C127.37 125.619 128.246 125.619 128.859 125.181C130.261 124.392 130.786 122.64 131.049 121.151C131.312 119.749 130.961 117.647 129.385 116.683Z" fill="#E87777"/>
<path d="M144.102 140.248C141.999 139.722 140.072 138.145 139.109 136.218C139.021 135.955 138.758 135.78 138.495 135.955C138.233 136.043 138.057 136.393 138.233 136.568C139.371 138.934 141.474 140.598 144.014 141.299C144.54 141.386 144.715 140.423 144.102 140.248Z" fill="#140B38"/>
<path d="M150.847 117.559C148.832 116.596 146.642 116.245 144.452 116.42C143.664 116.508 142.963 117.209 143.05 118.085C143.138 118.873 143.839 119.486 144.715 119.486C144.978 119.486 145.153 119.486 145.416 119.399C145.503 119.399 146.116 119.399 146.116 119.399C145.854 119.399 145.854 119.399 146.029 119.399H146.116C146.292 119.399 146.379 119.399 146.554 119.399C146.73 119.399 146.992 119.486 147.168 119.486C147.343 119.486 147.606 119.574 147.781 119.574C147.868 119.574 148.044 119.662 148.131 119.662C148.219 119.662 148.394 119.662 148.394 119.749C148.219 119.662 148.131 119.662 148.306 119.749H148.394C148.482 119.837 148.657 119.837 148.744 119.924C149.007 120.012 149.182 120.1 149.358 120.187C150.058 120.538 151.022 120.187 151.372 119.486C151.898 118.786 151.635 117.91 150.847 117.559Z" fill="#140B38"/>
<path d="M163.374 124.655C163.374 124.567 163.286 124.392 163.286 124.304C163.199 124.042 163.023 123.867 162.848 123.691C161.534 122.29 159.782 121.414 157.943 121.063C157.154 120.888 156.278 121.501 156.191 122.29C156.103 123.078 156.541 123.867 157.417 124.042C157.592 124.042 157.767 124.129 158.03 124.217C158.556 124.392 159.081 124.655 159.607 124.918C160.133 125.268 160.571 125.618 160.921 126.056C161.184 126.319 161.709 126.407 161.972 126.407C162.323 126.407 162.761 126.144 163.023 125.881C163.286 125.443 163.461 125.005 163.374 124.655Z" fill="#140B38"/>
<path d="M145.942 125.793C147.2 125.793 148.219 124.774 148.219 123.516C148.219 122.258 147.2 121.238 145.942 121.238C144.684 121.238 143.664 122.258 143.664 123.516C143.664 124.774 144.684 125.793 145.942 125.793Z" fill="#140B38"/>
<path d="M158.031 130.349C159.288 130.349 160.308 129.329 160.308 128.072C160.308 126.814 159.288 125.794 158.031 125.794C156.773 125.794 155.753 126.814 155.753 128.072C155.753 129.329 156.773 130.349 158.031 130.349Z" fill="#140B38"/>
<path d="M238.534 383.513C238.009 383.426 237.571 383.338 237.133 383.25C231.001 381.674 235.819 378.257 235.819 378.257L217.248 293.46C217.248 293.46 225.219 282.51 215.145 274.539C204.02 265.779 173.535 260.26 172.309 259.997C173.623 260.435 208.137 271.298 214.444 281.109C215.145 282.248 215.671 284.35 215.934 287.328C218.124 310.104 208.312 379.308 208.312 379.308C209.101 380.885 207.962 382.462 207.962 382.462C210.765 386.229 208.663 388.156 208.663 388.156C207.874 388.331 207.174 388.506 206.385 388.594C199.29 389.82 191.406 389.558 187.639 389.382C186.237 389.295 185.449 389.207 185.449 389.207C182.558 387.105 185.449 384.915 185.449 384.915L180.894 300.381C178.791 297.315 180.894 295.738 180.894 295.738C180.894 295.738 140.598 292.847 120.888 288.905C101.178 284.963 102.93 266.129 102.93 266.129L136.218 252.639C138.583 253.427 139.897 253.778 139.897 253.778L140.51 252.464C140.51 252.464 148.044 255.53 154.263 250.449C154.263 250.449 162.936 255.968 165.213 255.617C166.264 255.442 164.95 252.902 163.286 250.274C163.549 250.536 169.155 255.968 170.294 253.077C170.557 252.376 170.294 251.5 169.681 250.449C169.681 250.361 169.768 250.186 169.856 250.011H171.958H177.74H180.894H182.996C182.996 250.011 246.068 255.53 250.711 281.109C252.901 293.198 256.23 375.454 256.23 375.454C256.23 375.454 259.471 377.644 256.23 378.783C256.23 378.783 259.909 381.849 257.631 383.075C257.631 383.075 257.368 383.075 256.843 383.163C254.04 383.513 244.141 384.389 238.534 383.513Z" fill="#22386B"/>
<path d="M215.145 274.539C225.219 282.51 217.247 293.46 217.247 293.46L215.933 287.328C215.671 284.437 215.145 282.247 214.444 281.109C208.137 271.297 173.623 260.435 172.309 259.997C173.535 260.26 204.02 265.779 215.145 274.539Z" fill="#140B38"/>
<path d="M194.209 283.474C190.18 286.277 186.5 289.518 183.259 293.197C182.821 293.635 183.61 294.336 184.048 293.81C187.289 290.219 190.88 287.065 194.822 284.262C195.26 283.912 194.735 283.123 194.209 283.474Z" fill="#140B38"/>
<path d="M186.149 283.036C184.66 285.664 183.083 288.292 181.419 290.832C181.068 291.358 181.857 291.971 182.207 291.446C183.959 288.818 185.536 286.19 187.025 283.474C187.376 282.948 186.412 282.51 186.149 283.036Z" fill="#140B38"/>
<path d="M189.916 295.651C189.828 295.388 189.478 295.213 189.303 295.388L184.835 297.578C184.572 297.666 184.397 297.928 184.572 298.191C184.66 298.454 185.01 298.629 185.186 298.454C186.675 297.753 188.164 296.965 189.653 296.264C189.916 296.176 190.004 295.914 189.916 295.651Z" fill="#140B38"/>
<path d="M273.224 397.266C281.458 397.529 289.342 402.96 286.89 407.515C284.437 412.071 269.632 414.261 269.632 414.261L239.41 399.018L238.622 383.513C244.228 384.389 254.127 383.601 256.93 383.338V383.688L273.224 397.266Z" fill="#140B38"/>
<path d="M224.08 404.537C232.752 404.8 241.074 410.494 238.446 415.312C235.818 420.13 220.313 422.407 220.313 422.407L188.427 406.289L187.551 389.382C191.318 389.557 199.202 389.733 206.297 388.594L206.91 390.083L224.08 404.537Z" fill="#140B38"/>
<path d="M233.278 411.458C232.315 409.793 230.913 408.479 229.161 407.603C228.548 407.341 228.198 408.217 228.723 408.479C230.3 409.268 231.614 410.494 232.402 411.983C232.578 412.246 232.928 412.246 233.103 412.071C233.366 411.983 233.366 411.721 233.278 411.458Z" fill="white"/>
<path d="M233.454 413.648C233.191 413.648 233.016 413.911 233.016 414.174C233.016 414.261 233.016 414.261 233.016 414.349V414.436C233.016 414.524 233.016 414.612 233.016 414.699C233.016 414.787 233.016 414.874 232.928 415.05V415.137C232.928 415.137 232.928 415.137 232.928 415.225C232.84 415.4 232.753 415.575 232.665 415.75C232.665 415.838 232.578 415.926 232.49 416.013C232.49 416.013 232.49 416.013 232.49 416.101C232.49 416.188 232.402 416.188 232.402 416.188C232.227 416.364 232.227 416.714 232.49 416.889C232.665 417.064 233.016 417.064 233.191 416.802C233.804 416.013 234.067 415.05 234.067 414.086C233.979 413.823 233.716 413.56 233.454 413.648Z" fill="white"/>
<path d="M281.721 403.398C281.108 402.084 280.057 401.033 278.83 400.507C278.568 400.42 278.305 400.507 278.13 400.77C278.042 401.033 278.13 401.296 278.392 401.471C278.568 401.559 278.655 401.646 278.83 401.646C278.918 401.646 278.918 401.734 279.006 401.734H279.093C279.093 401.734 279.093 401.734 279.181 401.734C279.444 401.909 279.706 402.084 279.882 402.347C279.969 402.435 279.969 402.435 280.057 402.522L280.144 402.61C280.232 402.697 280.32 402.873 280.407 402.96C280.495 403.048 280.582 403.223 280.67 403.311C280.67 403.311 280.67 403.398 280.758 403.398C280.758 403.398 280.845 403.573 280.758 403.398C280.758 403.486 280.845 403.573 280.845 403.661C280.933 403.924 281.196 404.099 281.458 403.924C281.721 403.924 281.896 403.661 281.721 403.398Z" fill="white"/>
<path d="M281.984 405.851C281.984 405.764 281.809 405.589 281.721 405.589C281.458 405.501 281.195 405.589 281.02 405.851C280.933 406.027 280.845 406.202 280.757 406.289C280.582 406.552 280.407 406.727 280.232 406.903C280.144 406.99 280.057 407.078 280.057 407.253C280.057 407.341 280.057 407.516 280.144 407.603C280.232 407.691 280.319 407.779 280.495 407.779C280.582 407.779 280.757 407.779 280.845 407.691C281.283 407.253 281.721 406.815 281.896 406.202C281.984 406.114 281.984 406.027 281.984 405.851Z" fill="white"/>
<path d="M270.421 411.458C263.063 407.604 255.617 403.661 248.258 399.807L241.863 396.478C241.25 396.216 240.9 397.092 241.425 397.354C248.784 401.209 256.23 405.151 263.588 409.005L269.983 412.334C270.509 412.684 270.947 411.721 270.421 411.458Z" fill="white"/>
<path d="M222.066 418.729C213.832 414.699 205.685 410.494 197.538 406.29C195.26 405.063 192.983 403.924 190.705 402.698C190.092 402.435 189.742 403.311 190.267 403.574C198.326 407.866 206.473 412.071 214.708 416.188C216.985 417.327 219.35 418.466 221.628 419.692C222.241 419.868 222.679 418.992 222.066 418.729Z" fill="white"/>
<path d="M203.494 379.834C198.589 380.885 193.596 381.936 188.69 382.987C188.077 383.163 188.164 384.126 188.778 383.951C193.683 382.812 198.589 381.761 203.582 380.797C204.195 380.622 204.108 379.658 203.494 379.834Z" fill="#140B38"/>
<path d="M203.669 383.163C200.341 383.601 197.012 384.039 193.683 384.389C193.07 384.477 193.157 385.44 193.771 385.353C197.099 384.915 200.428 384.477 203.757 384.126C204.37 384.039 204.283 383.075 203.669 383.163Z" fill="#140B38"/>
<path d="M252.813 373.789C248.258 374.665 243.615 375.454 238.972 375.979C238.359 376.067 238.447 377.03 239.06 376.943C243.703 376.33 248.345 375.629 252.901 374.753C253.514 374.665 253.426 373.614 252.813 373.789Z" fill="#140B38"/>
<path d="M252.113 377.118C249.047 377.644 245.981 377.994 242.915 378.17C242.301 378.17 242.389 379.221 243.002 379.133C246.068 379.046 249.222 378.695 252.2 378.082C252.813 377.994 252.726 376.943 252.113 377.118Z" fill="#140B38"/>
<path d="M150.584 164.601L147.43 208.401L128.771 166.265C129.91 163.988 131.662 162.849 133.327 162.236C136.217 161.184 139.021 161.798 139.021 161.798C139.021 161.798 142.437 160.834 146.467 162.236C147.781 162.674 149.182 163.462 150.584 164.601Z" fill="white"/>
<path d="M182.909 206.737V250.186H141.474L140.423 252.551L139.81 253.865C139.81 253.865 138.408 253.427 136.13 252.727L102.842 266.217C98.4623 265.429 100.127 260.698 100.127 260.698C98.6375 257.895 101.528 257.369 101.528 257.369L102.842 240.112C93.9947 235.907 86.7239 231.44 85.6727 227.41C82.8695 216.285 85.3223 168.806 85.3223 168.806C84.4463 165.74 86.5487 163.637 86.5487 163.637C86.5487 163.637 84.0959 161.185 84.0959 158.995C84.0083 156.805 113.88 143.139 114.318 142.964C113.354 147.519 110.989 161.535 115.544 172.485L123.604 171.784L118.523 178.617L147.518 208.401L160.483 169.507L154.877 165.74L161.184 161.798C160.308 154.264 153.388 143.489 153.125 143.051C153.563 143.139 167.491 145.329 169.856 146.993C172.309 148.745 168.893 150.585 168.893 150.585C168.893 150.585 171.783 152.162 170.732 153.651L182.909 206.737Z" fill="#58C3ED"/>
<path d="M135.341 229.25L112.741 211.292L110.025 178.267L107.835 212.518L135.341 229.25Z" fill="#58C3ED"/>
<path d="M175.025 215.321L180.807 250.186H177.653V231.79L169.068 215.496L169.331 171.696L175.025 215.321Z" fill="#140B38"/>
<path d="M163.287 250.449C164.951 253.077 166.265 255.53 165.214 255.793C162.936 256.231 154.264 250.624 154.264 250.624C148.132 255.705 140.511 252.639 140.511 252.639L146.292 239.236C146.292 239.236 156.629 237.221 158.556 237.397C160.396 237.572 169.944 245.806 170.207 247.208C170.382 248.171 170.032 249.398 169.769 250.099C169.682 250.274 169.682 250.449 169.594 250.537C170.207 251.5 170.47 252.464 170.207 253.165C169.156 256.143 163.55 250.712 163.287 250.449Z" fill="#F49F9F"/>
<path d="M161.096 161.71L154.789 165.652L160.395 169.419L147.431 208.313L149.796 175.639L150.584 164.513C150.584 164.513 149.533 151.899 147.431 146.993C147.956 146.818 148.482 146.555 149.095 146.205C150.497 145.504 151.723 144.365 152.949 142.964C153.3 143.489 160.22 154.177 161.096 161.71Z" fill="#27ADD6"/>
<path d="M150.585 164.601C149.183 163.462 147.781 162.674 146.467 162.236C142.438 160.747 139.021 161.798 139.021 161.798L143.226 153.476L146.205 147.519C146.643 147.431 147.081 147.256 147.519 147.081C149.533 151.987 150.585 164.601 150.585 164.601Z" fill="#EEF4FF"/>
<path d="M145.503 167.755L149.796 175.726L147.43 208.401L136.13 182.822L136.743 168.894L145.503 167.755Z" fill="#140B38"/>
<path d="M114.318 143.051C114.493 142.088 114.668 141.562 114.668 141.562L124.042 136.131L120.888 143.402C117.997 152.95 128.772 166.353 128.772 166.353L136.043 182.909L147.343 208.488L118.348 178.704L123.428 171.872L115.369 172.572C110.989 161.535 113.267 147.606 114.318 143.051Z" fill="#27ADD6"/>
<path d="M146.467 162.236L145.504 167.755L136.744 168.893L133.327 162.236C136.218 161.184 139.021 161.798 139.021 161.798C139.021 161.798 142.438 160.746 146.467 162.236Z" fill="#140B38"/>
<path d="M139.021 161.71C139.021 161.71 136.218 161.097 133.327 162.148C131.663 162.761 129.911 163.988 128.772 166.178C128.772 166.178 117.997 152.775 120.888 143.227L139.021 161.71Z" fill="#EEF4FF"/>
<path d="M112.828 211.38L135.342 229.25L107.923 212.606L110.113 178.354L112.828 211.38Z" fill="#140B38"/>
<path d="M94.6951 163.901C92.6803 162.937 90.7531 161.973 88.9135 160.835C88.3879 160.484 87.9499 161.448 88.4755 161.711C90.4027 162.762 92.3299 163.813 94.2571 164.777C94.8703 165.127 95.3083 164.251 94.6951 163.901Z" fill="#140B38"/>
<path d="M91.6291 166.966C90.7531 166.878 89.8771 166.966 89.0011 167.054C88.7383 167.054 88.4755 167.316 88.5631 167.579C88.5631 167.842 88.8259 168.105 89.0887 168.017C89.5267 168.017 89.8771 167.93 90.3151 167.93C90.4903 167.93 90.6655 167.93 90.9283 167.93C91.0159 167.93 91.1035 167.93 91.1911 167.93H91.2787H91.3663C91.5415 167.93 91.6291 167.93 91.7167 167.842C91.8043 167.754 91.8919 167.667 91.8919 167.492C92.0671 167.316 91.8919 166.966 91.6291 166.966Z" fill="#140B38"/>
<path d="M167.754 149.709C167.578 149.534 167.228 149.534 167.053 149.797C166.089 150.848 165.126 151.724 163.899 152.6C163.636 152.775 163.636 153.038 163.812 153.301C163.987 153.563 164.25 153.563 164.512 153.388C165.739 152.512 166.878 151.549 167.841 150.41C168.016 150.147 167.929 149.884 167.754 149.709Z" fill="#140B38"/>
<path d="M168.192 154.177C166.965 154.615 165.651 155.053 164.425 155.491C163.812 155.666 164.162 156.63 164.775 156.454C166.002 156.016 167.316 155.578 168.542 155.14C169.155 154.878 168.805 153.914 168.192 154.177Z" fill="#140B38"/>
<path d="M150.584 163.725C148.657 162.586 146.73 161.359 144.452 161.009C142.525 160.746 140.948 161.184 139.284 161.973C139.196 161.885 139.108 161.797 138.933 161.71C136.918 161.359 134.904 161.535 132.976 162.235C131.4 162.849 129.122 163.987 128.859 165.915C128.772 166.528 129.735 166.703 129.823 166.09C129.998 165.301 130.611 164.688 131.312 164.25C132.013 163.725 132.801 163.374 133.677 163.024C135.079 162.498 136.656 162.411 138.145 162.586C137.794 162.936 138.32 163.549 138.846 163.287C139.722 162.761 140.598 162.235 141.561 161.973C142.612 161.71 143.664 161.71 144.715 161.973C146.73 162.411 148.482 163.462 150.234 164.513C150.672 164.951 151.11 164.075 150.584 163.725Z" fill="#140B38"/>
<path d="M135.692 252.201C127.37 248.959 119.048 245.631 110.726 242.389C108.361 241.426 105.996 240.55 103.631 239.586C103.018 239.323 102.58 240.287 103.193 240.462C111.515 243.703 119.837 247.032 128.159 250.273C130.524 251.237 132.889 252.113 135.254 253.077C135.868 253.339 136.306 252.463 135.692 252.201Z" fill="#140B38"/>
<path d="M147.605 237.309C138.232 230.914 128.859 224.52 119.486 218.212C116.858 216.373 114.23 214.621 111.514 212.781C110.989 212.431 110.375 213.219 110.901 213.57C120.274 219.964 129.647 226.359 139.021 232.666C141.649 234.506 144.277 236.258 146.992 238.098C147.518 238.36 148.131 237.66 147.605 237.309Z" fill="#140B38"/>
<path d="M163.725 250.449C161.71 248.697 159.695 246.857 157.68 245.105C157.155 244.667 156.541 245.455 157.067 245.893C159.082 247.645 161.097 249.485 163.111 251.237C163.637 251.587 164.25 250.887 163.725 250.449Z" fill="#EA6C6C"/>
<path d="M168.893 249.485C166.265 247.032 163.725 244.579 161.097 242.214C160.659 241.776 159.958 242.565 160.483 243.003C163.111 245.455 165.652 247.908 168.28 250.273C168.718 250.711 169.331 249.923 168.893 249.485Z" fill="#EA6C6C"/>
<path d="M152.861 260.961H232.052L250.097 203.758H186.5L169.768 257.369H151.723L152.861 260.961Z" fill="#EBF3F7"/>
<path d="M250.097 203.758L184.572 260.961H232.051L250.097 203.758Z" fill="#D9ECF4"/>
<path d="M232.928 256.581H170.82C170.119 256.581 170.207 257.545 170.907 257.545H233.016C233.717 257.545 233.541 256.581 232.928 256.581Z" fill="#7CC0D8"/>
<path d="M270.158 47.1292V51.9472H181.332V47.1292C181.332 41.3476 186.062 36.6172 191.844 36.6172H259.646C265.428 36.6172 270.158 41.3476 270.158 47.1292Z" fill="#58C3ED"/>
<path d="M260.523 48.0053C262.603 48.0053 264.289 46.3188 264.289 44.2385C264.289 42.1581 262.603 40.4717 260.523 40.4717C258.442 40.4717 256.756 42.1581 256.756 44.2385C256.756 46.3188 258.442 48.0053 260.523 48.0053Z" fill="#22386B"/>
<path d="M245.806 48.0053C247.886 48.0053 249.573 46.3188 249.573 44.2385C249.573 42.1581 247.886 40.4717 245.806 40.4717C243.726 40.4717 242.039 42.1581 242.039 44.2385C242.039 46.3188 243.726 48.0053 245.806 48.0053Z" fill="#F49F9F"/>
<path d="M230.213 48.0053C232.293 48.0053 233.98 46.3188 233.98 44.2385C233.98 42.1581 232.293 40.4717 230.213 40.4717C228.133 40.4717 226.446 42.1581 226.446 44.2385C226.446 46.3188 228.133 48.0053 230.213 48.0053Z" fill="#FDFFFF"/>
<path d="M270.158 51.9473V174.149C270.158 180.194 265.428 185.099 259.646 185.099H234.418L215.671 200.166L217.073 185.099H191.844C186.062 185.099 181.332 180.194 181.332 174.149V51.9473H270.158Z" fill="white"/>
<path d="M196.75 58.6045L189.566 71.0437H203.933L196.75 58.6045Z" fill="#58C3ED"/>
<path d="M196.75 93.8201L203.933 81.3809H189.566L196.75 93.8201Z" fill="#EA6C6C"/>
<path d="M243.791 58.6045H208.138V63.1597H243.791V58.6045Z" fill="#B1E1F2"/>
<path d="M263.326 65.9629H208.138V71.0437H263.326V65.9629Z" fill="#B1E1F2"/>
<path d="M243.791 81.3809H208.138V85.9361H243.791V81.3809Z" fill="#B1E1F2"/>
<path d="M263.326 88.7393H208.138V93.8201H263.326V88.7393Z" fill="#B1E1F2"/>
<path d="M196.75 99.6016L189.566 112.128H203.933L196.75 99.6016Z" fill="#58C3ED"/>
<path d="M196.75 122.465L189.566 134.904H203.933L196.75 122.465Z" fill="#58C3ED"/>
<path d="M243.791 99.6016H208.138V104.157H243.791V99.6016Z" fill="#B1E1F2"/>
<path d="M263.326 106.96H208.138V112.041H263.326V106.96Z" fill="#B1E1F2"/>
<path d="M243.791 122.465H208.138V127.02H243.791V122.465Z" fill="#B1E1F2"/>
<path d="M263.326 129.736H208.138V134.817H263.326V129.736Z" fill="#B1E1F2"/>
<path d="M196.048 155.754L203.232 143.314H188.865L196.048 155.754Z" fill="#EA6C6C"/>
<path d="M243.09 143.227H207.437V147.782H243.09V143.227Z" fill="#B1E1F2"/>
<path d="M262.625 150.585H207.437V155.666H262.625V150.585Z" fill="#B1E1F2"/>
<path d="M196.048 161.535L188.865 173.974H203.232L196.048 161.535Z" fill="#58C3ED"/>
<path d="M243.09 161.535H207.437V166.09H243.09V161.535Z" fill="#B1E1F2"/>
<path d="M262.625 168.806H207.437V173.886H262.625V168.806Z" fill="#B1E1F2"/>
<path d="M244.929 342.429C246.235 342.429 247.294 341.37 247.294 340.063C247.294 338.757 246.235 337.698 244.929 337.698C243.622 337.698 242.563 338.757 242.563 340.063C242.563 341.37 243.622 342.429 244.929 342.429Z" fill="#58C3ED"/>
<path d="M254.74 342.429C256.046 342.429 257.105 341.37 257.105 340.063C257.105 338.757 256.046 337.698 254.74 337.698C253.434 337.698 252.375 338.757 252.375 340.063C252.375 341.37 253.434 342.429 254.74 342.429Z" fill="#58C3ED"/>
<path d="M264.551 342.429C265.857 342.429 266.916 341.37 266.916 340.063C266.916 338.757 265.857 337.698 264.551 337.698C263.244 337.698 262.186 338.757 262.186 340.063C262.186 341.37 263.244 342.429 264.551 342.429Z" fill="#58C3ED"/>
<path d="M274.274 342.429C275.581 342.429 276.64 341.37 276.64 340.063C276.64 338.757 275.581 337.698 274.274 337.698C272.968 337.698 271.909 338.757 271.909 340.063C271.909 341.37 272.968 342.429 274.274 342.429Z" fill="#58C3ED"/>
<path d="M284.086 342.429C285.392 342.429 286.451 341.37 286.451 340.063C286.451 338.757 285.392 337.698 284.086 337.698C282.78 337.698 281.721 338.757 281.721 340.063C281.721 341.37 282.78 342.429 284.086 342.429Z" fill="#58C3ED"/>
<path d="M244.929 352.327C246.235 352.327 247.294 351.268 247.294 349.962C247.294 348.656 246.235 347.597 244.929 347.597C243.622 347.597 242.563 348.656 242.563 349.962C242.563 351.268 243.622 352.327 244.929 352.327Z" fill="#58C3ED"/>
<path d="M254.74 352.327C256.046 352.327 257.105 351.268 257.105 349.962C257.105 348.656 256.046 347.597 254.74 347.597C253.434 347.597 252.375 348.656 252.375 349.962C252.375 351.268 253.434 352.327 254.74 352.327Z" fill="#58C3ED"/>
<path d="M264.551 352.327C265.857 352.327 266.916 351.268 266.916 349.962C266.916 348.656 265.857 347.597 264.551 347.597C263.244 347.597 262.186 348.656 262.186 349.962C262.186 351.268 263.244 352.327 264.551 352.327Z" fill="#58C3ED"/>
<path d="M274.274 352.327C275.581 352.327 276.64 351.268 276.64 349.962C276.64 348.656 275.581 347.597 274.274 347.597C272.968 347.597 271.909 348.656 271.909 349.962C271.909 351.268 272.968 352.327 274.274 352.327Z" fill="#58C3ED"/>
<path d="M284.086 352.327C285.392 352.327 286.451 351.268 286.451 349.962C286.451 348.656 285.392 347.597 284.086 347.597C282.78 347.597 281.721 348.656 281.721 349.962C281.721 351.268 282.78 352.327 284.086 352.327Z" fill="#58C3ED"/>
<path d="M244.929 313.696C246.235 313.696 247.294 312.637 247.294 311.331C247.294 310.025 246.235 308.966 244.929 308.966C243.622 308.966 242.563 310.025 242.563 311.331C242.563 312.637 243.622 313.696 244.929 313.696Z" fill="#58C3ED"/>
<path d="M254.74 313.696C256.046 313.696 257.105 312.637 257.105 311.331C257.105 310.025 256.046 308.966 254.74 308.966C253.434 308.966 252.375 310.025 252.375 311.331C252.375 312.637 253.434 313.696 254.74 313.696Z" fill="#58C3ED"/>
<path d="M264.551 313.696C265.857 313.696 266.916 312.637 266.916 311.331C266.916 310.025 265.857 308.966 264.551 308.966C263.244 308.966 262.186 310.025 262.186 311.331C262.186 312.637 263.244 313.696 264.551 313.696Z" fill="#58C3ED"/>
<path d="M274.274 313.696C275.581 313.696 276.64 312.637 276.64 311.331C276.64 310.025 275.581 308.966 274.274 308.966C272.968 308.966 271.909 310.025 271.909 311.331C271.909 312.637 272.968 313.696 274.274 313.696Z" fill="#58C3ED"/>
<path d="M284.086 313.696C285.392 313.696 286.451 312.637 286.451 311.331C286.451 310.025 285.392 308.966 284.086 308.966C282.78 308.966 281.721 310.025 281.721 311.331C281.721 312.637 282.78 313.696 284.086 313.696Z" fill="#58C3ED"/>
<path d="M244.929 323.595C246.235 323.595 247.294 322.536 247.294 321.229C247.294 319.923 246.235 318.864 244.929 318.864C243.622 318.864 242.563 319.923 242.563 321.229C242.563 322.536 243.622 323.595 244.929 323.595Z" fill="#58C3ED"/>
<path d="M254.74 323.595C256.046 323.595 257.105 322.536 257.105 321.229C257.105 319.923 256.046 318.864 254.74 318.864C253.434 318.864 252.375 319.923 252.375 321.229C252.375 322.536 253.434 323.595 254.74 323.595Z" fill="#58C3ED"/>
<path d="M264.551 323.595C265.857 323.595 266.916 322.536 266.916 321.229C266.916 319.923 265.857 318.864 264.551 318.864C263.244 318.864 262.186 319.923 262.186 321.229C262.186 322.536 263.244 323.595 264.551 323.595Z" fill="#58C3ED"/>
<path d="M274.274 323.595C275.581 323.595 276.64 322.536 276.64 321.229C276.64 319.923 275.581 318.864 274.274 318.864C272.968 318.864 271.909 319.923 271.909 321.229C271.909 322.536 272.968 323.595 274.274 323.595Z" fill="#58C3ED"/>
<path d="M284.086 323.595C285.392 323.595 286.451 322.536 286.451 321.229C286.451 319.923 285.392 318.864 284.086 318.864C282.78 318.864 281.721 319.923 281.721 321.229C281.721 322.536 282.78 323.595 284.086 323.595Z" fill="#58C3ED"/>
<path d="M244.929 333.494C246.235 333.494 247.294 332.435 247.294 331.129C247.294 329.823 246.235 328.764 244.929 328.764C243.622 328.764 242.563 329.823 242.563 331.129C242.563 332.435 243.622 333.494 244.929 333.494Z" fill="#58C3ED"/>
<path d="M254.74 333.494C256.046 333.494 257.105 332.435 257.105 331.129C257.105 329.823 256.046 328.764 254.74 328.764C253.434 328.764 252.375 329.823 252.375 331.129C252.375 332.435 253.434 333.494 254.74 333.494Z" fill="#58C3ED"/>
<path d="M264.551 333.494C265.857 333.494 266.916 332.435 266.916 331.129C266.916 329.823 265.857 328.764 264.551 328.764C263.244 328.764 262.186 329.823 262.186 331.129C262.186 332.435 263.244 333.494 264.551 333.494Z" fill="#58C3ED"/>
<path d="M274.274 333.494C275.581 333.494 276.64 332.435 276.64 331.129C276.64 329.823 275.581 328.764 274.274 328.764C272.968 328.764 271.909 329.823 271.909 331.129C271.909 332.435 272.968 333.494 274.274 333.494Z" fill="#58C3ED"/>
<path d="M284.086 333.494C285.392 333.494 286.451 332.435 286.451 331.129C286.451 329.823 285.392 328.764 284.086 328.764C282.78 328.764 281.721 329.823 281.721 331.129C281.721 332.435 282.78 333.494 284.086 333.494Z" fill="#58C3ED"/>
<path d="M58.6914 217.511C59.9976 217.511 61.0566 216.452 61.0566 215.145C61.0566 213.839 59.9976 212.78 58.6914 212.78C57.3851 212.78 56.3262 213.839 56.3262 215.145C56.3262 216.452 57.3851 217.511 58.6914 217.511Z" fill="white"/>
<path d="M68.415 217.511C69.7213 217.511 70.7802 216.452 70.7802 215.145C70.7802 213.839 69.7213 212.78 68.415 212.78C67.1087 212.78 66.0498 213.839 66.0498 215.145C66.0498 216.452 67.1087 217.511 68.415 217.511Z" fill="white"/>
<path d="M78.2265 217.511C79.5328 217.511 80.5917 216.452 80.5917 215.145C80.5917 213.839 79.5328 212.78 78.2265 212.78C76.9203 212.78 75.8613 213.839 75.8613 215.145C75.8613 216.452 76.9203 217.511 78.2265 217.511Z" fill="white"/>
<path d="M87.9502 217.511C89.2564 217.511 90.3154 216.452 90.3154 215.145C90.3154 213.839 89.2564 212.78 87.9502 212.78C86.6439 212.78 85.585 213.839 85.585 215.145C85.585 216.452 86.6439 217.511 87.9502 217.511Z" fill="white"/>
<path d="M97.7607 217.511C99.067 217.511 100.126 216.452 100.126 215.145C100.126 213.839 99.067 212.78 97.7607 212.78C96.4544 212.78 95.3955 213.839 95.3955 215.145C95.3955 216.452 96.4544 217.511 97.7607 217.511Z" fill="white"/>
<path d="M58.6914 227.409C59.9976 227.409 61.0566 226.35 61.0566 225.044C61.0566 223.738 59.9976 222.679 58.6914 222.679C57.3851 222.679 56.3262 223.738 56.3262 225.044C56.3262 226.35 57.3851 227.409 58.6914 227.409Z" fill="white"/>
<path d="M68.415 227.409C69.7213 227.409 70.7802 226.35 70.7802 225.044C70.7802 223.738 69.7213 222.679 68.415 222.679C67.1087 222.679 66.0498 223.738 66.0498 225.044C66.0498 226.35 67.1087 227.409 68.415 227.409Z" fill="white"/>
<path d="M78.2265 227.409C79.5328 227.409 80.5917 226.35 80.5917 225.044C80.5917 223.738 79.5328 222.679 78.2265 222.679C76.9203 222.679 75.8613 223.738 75.8613 225.044C75.8613 226.35 76.9203 227.409 78.2265 227.409Z" fill="white"/>
<path d="M87.9502 227.409C89.2564 227.409 90.3154 226.35 90.3154 225.044C90.3154 223.738 89.2564 222.679 87.9502 222.679C86.6439 222.679 85.585 223.738 85.585 225.044C85.585 226.35 86.6439 227.409 87.9502 227.409Z" fill="white"/>
<path d="M97.7607 227.409C99.067 227.409 100.126 226.35 100.126 225.044C100.126 223.738 99.067 222.679 97.7607 222.679C96.4544 222.679 95.3955 223.738 95.3955 225.044C95.3955 226.35 96.4544 227.409 97.7607 227.409Z" fill="white"/>
<path d="M58.6914 188.778C59.9976 188.778 61.0566 187.719 61.0566 186.413C61.0566 185.107 59.9976 184.048 58.6914 184.048C57.3851 184.048 56.3262 185.107 56.3262 186.413C56.3262 187.719 57.3851 188.778 58.6914 188.778Z" fill="white"/>
<path d="M68.415 188.778C69.7213 188.778 70.7802 187.719 70.7802 186.413C70.7802 185.107 69.7213 184.048 68.415 184.048C67.1087 184.048 66.0498 185.107 66.0498 186.413C66.0498 187.719 67.1087 188.778 68.415 188.778Z" fill="white"/>
<path d="M78.2265 188.778C79.5328 188.778 80.5917 187.719 80.5917 186.413C80.5917 185.107 79.5328 184.048 78.2265 184.048C76.9203 184.048 75.8613 185.107 75.8613 186.413C75.8613 187.719 76.9203 188.778 78.2265 188.778Z" fill="white"/>
<path d="M87.9502 188.778C89.2564 188.778 90.3154 187.719 90.3154 186.413C90.3154 185.107 89.2564 184.048 87.9502 184.048C86.6439 184.048 85.585 185.107 85.585 186.413C85.585 187.719 86.6439 188.778 87.9502 188.778Z" fill="white"/>
<path d="M97.7607 188.778C99.067 188.778 100.126 187.719 100.126 186.413C100.126 185.107 99.067 184.048 97.7607 184.048C96.4544 184.048 95.3955 185.107 95.3955 186.413C95.3955 187.719 96.4544 188.778 97.7607 188.778Z" fill="white"/>
<path d="M58.6914 198.677C59.9976 198.677 61.0566 197.618 61.0566 196.312C61.0566 195.005 59.9976 193.946 58.6914 193.946C57.3851 193.946 56.3262 195.005 56.3262 196.312C56.3262 197.618 57.3851 198.677 58.6914 198.677Z" fill="white"/>
<path d="M68.415 198.677C69.7213 198.677 70.7802 197.618 70.7802 196.312C70.7802 195.005 69.7213 193.946 68.415 193.946C67.1087 193.946 66.0498 195.005 66.0498 196.312C66.0498 197.618 67.1087 198.677 68.415 198.677Z" fill="white"/>
<path d="M78.2265 198.677C79.5328 198.677 80.5917 197.618 80.5917 196.312C80.5917 195.005 79.5328 193.946 78.2265 193.946C76.9203 193.946 75.8613 195.005 75.8613 196.312C75.8613 197.618 76.9203 198.677 78.2265 198.677Z" fill="white"/>
<path d="M87.9502 198.677C89.2564 198.677 90.3154 197.618 90.3154 196.312C90.3154 195.005 89.2564 193.946 87.9502 193.946C86.6439 193.946 85.585 195.005 85.585 196.312C85.585 197.618 86.6439 198.677 87.9502 198.677Z" fill="white"/>
<path d="M97.7607 198.677C99.067 198.677 100.126 197.618 100.126 196.312C100.126 195.005 99.067 193.946 97.7607 193.946C96.4544 193.946 95.3955 195.005 95.3955 196.312C95.3955 197.618 96.4544 198.677 97.7607 198.677Z" fill="white"/>
<path d="M58.6914 208.576C59.9976 208.576 61.0566 207.517 61.0566 206.211C61.0566 204.905 59.9976 203.846 58.6914 203.846C57.3851 203.846 56.3262 204.905 56.3262 206.211C56.3262 207.517 57.3851 208.576 58.6914 208.576Z" fill="white"/>
<path d="M68.415 208.576C69.7213 208.576 70.7802 207.517 70.7802 206.211C70.7802 204.905 69.7213 203.846 68.415 203.846C67.1087 203.846 66.0498 204.905 66.0498 206.211C66.0498 207.517 67.1087 208.576 68.415 208.576Z" fill="white"/>
<path d="M78.2265 208.576C79.5328 208.576 80.5917 207.517 80.5917 206.211C80.5917 204.905 79.5328 203.846 78.2265 203.846C76.9203 203.846 75.8613 204.905 75.8613 206.211C75.8613 207.517 76.9203 208.576 78.2265 208.576Z" fill="white"/>
<path d="M87.9502 208.576C89.2564 208.576 90.3154 207.517 90.3154 206.211C90.3154 204.905 89.2564 203.846 87.9502 203.846C86.6439 203.846 85.585 204.905 85.585 206.211C85.585 207.517 86.6439 208.576 87.9502 208.576Z" fill="white"/>
<path d="M97.7607 208.576C99.067 208.576 100.126 207.517 100.126 206.211C100.126 204.905 99.067 203.846 97.7607 203.846C96.4544 203.846 95.3955 204.905 95.3955 206.211C95.3955 207.517 96.4544 208.576 97.7607 208.576Z" fill="white"/>
<path d="M301.081 108.011C302.387 108.011 303.446 106.952 303.446 105.645C303.446 104.339 302.387 103.28 301.081 103.28C299.775 103.28 298.716 104.339 298.716 105.645C298.716 106.952 299.775 108.011 301.081 108.011Z" fill="white"/>
<path d="M310.893 108.011C312.199 108.011 313.258 106.952 313.258 105.645C313.258 104.339 312.199 103.28 310.893 103.28C309.586 103.28 308.527 104.339 308.527 105.645C308.527 106.952 309.586 108.011 310.893 108.011Z" fill="white"/>
<path d="M320.616 108.011C321.922 108.011 322.981 106.952 322.981 105.645C322.981 104.339 321.922 103.28 320.616 103.28C319.31 103.28 318.251 104.339 318.251 105.645C318.251 106.952 319.31 108.011 320.616 108.011Z" fill="white"/>
<path d="M330.427 108.011C331.733 108.011 332.792 106.952 332.792 105.645C332.792 104.339 331.733 103.28 330.427 103.28C329.12 103.28 328.062 104.339 328.062 105.645C328.062 106.952 329.12 108.011 330.427 108.011Z" fill="white"/>
<path d="M340.238 108.011C341.544 108.011 342.603 106.952 342.603 105.645C342.603 104.339 341.544 103.28 340.238 103.28C338.932 103.28 337.873 104.339 337.873 105.645C337.873 106.952 338.932 108.011 340.238 108.011Z" fill="white"/>
<path d="M301.081 117.909C302.387 117.909 303.446 116.85 303.446 115.544C303.446 114.238 302.387 113.179 301.081 113.179C299.775 113.179 298.716 114.238 298.716 115.544C298.716 116.85 299.775 117.909 301.081 117.909Z" fill="white"/>
<path d="M310.893 117.909C312.199 117.909 313.258 116.85 313.258 115.544C313.258 114.238 312.199 113.179 310.893 113.179C309.586 113.179 308.527 114.238 308.527 115.544C308.527 116.85 309.586 117.909 310.893 117.909Z" fill="white"/>
<path d="M320.616 117.909C321.922 117.909 322.981 116.85 322.981 115.544C322.981 114.238 321.922 113.179 320.616 113.179C319.31 113.179 318.251 114.238 318.251 115.544C318.251 116.85 319.31 117.909 320.616 117.909Z" fill="white"/>
<path d="M330.427 117.909C331.733 117.909 332.792 116.85 332.792 115.544C332.792 114.238 331.733 113.179 330.427 113.179C329.12 113.179 328.062 114.238 328.062 115.544C328.062 116.85 329.12 117.909 330.427 117.909Z" fill="white"/>
<path d="M340.238 117.909C341.544 117.909 342.603 116.85 342.603 115.544C342.603 114.238 341.544 113.179 340.238 113.179C338.932 113.179 337.873 114.238 337.873 115.544C337.873 116.85 338.932 117.909 340.238 117.909Z" fill="white"/>
<path d="M301.081 79.1904C302.387 79.1904 303.446 78.1314 303.446 76.8252C303.446 75.5189 302.387 74.46 301.081 74.46C299.775 74.46 298.716 75.5189 298.716 76.8252C298.716 78.1314 299.775 79.1904 301.081 79.1904Z" fill="white"/>
<path d="M310.893 79.1904C312.199 79.1904 313.258 78.1314 313.258 76.8252C313.258 75.5189 312.199 74.46 310.893 74.46C309.586 74.46 308.527 75.5189 308.527 76.8252C308.527 78.1314 309.586 79.1904 310.893 79.1904Z" fill="white"/>
<path d="M320.616 79.1904C321.922 79.1904 322.981 78.1314 322.981 76.8252C322.981 75.5189 321.922 74.46 320.616 74.46C319.31 74.46 318.251 75.5189 318.251 76.8252C318.251 78.1314 319.31 79.1904 320.616 79.1904Z" fill="white"/>
<path d="M330.427 79.1904C331.733 79.1904 332.792 78.1314 332.792 76.8252C332.792 75.5189 331.733 74.46 330.427 74.46C329.12 74.46 328.062 75.5189 328.062 76.8252C328.062 78.1314 329.12 79.1904 330.427 79.1904Z" fill="white"/>
<path d="M340.238 79.1904C341.544 79.1904 342.603 78.1314 342.603 76.8252C342.603 75.5189 341.544 74.46 340.238 74.46C338.932 74.46 337.873 75.5189 337.873 76.8252C337.873 78.1314 338.932 79.1904 340.238 79.1904Z" fill="white"/>
<path d="M301.081 89.1767C302.387 89.1767 303.446 88.1177 303.446 86.8115C303.446 85.5052 302.387 84.4463 301.081 84.4463C299.775 84.4463 298.716 85.5052 298.716 86.8115C298.716 88.1177 299.775 89.1767 301.081 89.1767Z" fill="white"/>
<path d="M310.893 89.1767C312.199 89.1767 313.258 88.1177 313.258 86.8115C313.258 85.5052 312.199 84.4463 310.893 84.4463C309.586 84.4463 308.527 85.5052 308.527 86.8115C308.527 88.1177 309.586 89.1767 310.893 89.1767Z" fill="white"/>
<path d="M320.616 89.1767C321.922 89.1767 322.981 88.1177 322.981 86.8115C322.981 85.5052 321.922 84.4463 320.616 84.4463C319.31 84.4463 318.251 85.5052 318.251 86.8115C318.251 88.1177 319.31 89.1767 320.616 89.1767Z" fill="white"/>
<path d="M330.427 89.1767C331.733 89.1767 332.792 88.1177 332.792 86.8115C332.792 85.5052 331.733 84.4463 330.427 84.4463C329.12 84.4463 328.062 85.5052 328.062 86.8115C328.062 88.1177 329.12 89.1767 330.427 89.1767Z" fill="white"/>
<path d="M340.238 89.1767C341.544 89.1767 342.603 88.1177 342.603 86.8115C342.603 85.5052 341.544 84.4463 340.238 84.4463C338.932 84.4463 337.873 85.5052 337.873 86.8115C337.873 88.1177 338.932 89.1767 340.238 89.1767Z" fill="white"/>
<path d="M301.081 99.0751C302.387 99.0751 303.446 98.0162 303.446 96.7099C303.446 95.4037 302.387 94.3447 301.081 94.3447C299.775 94.3447 298.716 95.4037 298.716 96.7099C298.716 98.0162 299.775 99.0751 301.081 99.0751Z" fill="white"/>
<path d="M310.893 99.0751C312.199 99.0751 313.258 98.0162 313.258 96.7099C313.258 95.4037 312.199 94.3447 310.893 94.3447C309.586 94.3447 308.527 95.4037 308.527 96.7099C308.527 98.0162 309.586 99.0751 310.893 99.0751Z" fill="white"/>
<path d="M320.616 99.0751C321.922 99.0751 322.981 98.0162 322.981 96.7099C322.981 95.4037 321.922 94.3447 320.616 94.3447C319.31 94.3447 318.251 95.4037 318.251 96.7099C318.251 98.0162 319.31 99.0751 320.616 99.0751Z" fill="white"/>
<path d="M330.427 99.0751C331.733 99.0751 332.792 98.0162 332.792 96.7099C332.792 95.4037 331.733 94.3447 330.427 94.3447C329.12 94.3447 328.062 95.4037 328.062 96.7099C328.062 98.0162 329.12 99.0751 330.427 99.0751Z" fill="white"/>
<path d="M340.238 99.0751C341.544 99.0751 342.603 98.0162 342.603 96.7099C342.603 95.4037 341.544 94.3447 340.238 94.3447C338.932 94.3447 337.873 95.4037 337.873 96.7099C337.873 98.0162 338.932 99.0751 340.238 99.0751Z" fill="white"/>
<path d="M145.853 66.0507C147.16 66.0507 148.219 64.9918 148.219 63.6855C148.219 62.3792 147.16 61.3203 145.853 61.3203C144.547 61.3203 143.488 62.3792 143.488 63.6855C143.488 64.9918 144.547 66.0507 145.853 66.0507Z" fill="#58C3ED"/>
<path d="M155.665 66.0507C156.971 66.0507 158.03 64.9918 158.03 63.6855C158.03 62.3792 156.971 61.3203 155.665 61.3203C154.359 61.3203 153.3 62.3792 153.3 63.6855C153.3 64.9918 154.359 66.0507 155.665 66.0507Z" fill="#58C3ED"/>
<path d="M165.389 66.0507C166.695 66.0507 167.754 64.9918 167.754 63.6855C167.754 62.3792 166.695 61.3203 165.389 61.3203C164.082 61.3203 163.023 62.3792 163.023 63.6855C163.023 64.9918 164.082 66.0507 165.389 66.0507Z" fill="#58C3ED"/>
<path d="M175.199 66.0507C176.505 66.0507 177.564 64.9918 177.564 63.6855C177.564 62.3792 176.505 61.3203 175.199 61.3203C173.893 61.3203 172.834 62.3792 172.834 63.6855C172.834 64.9918 173.893 66.0507 175.199 66.0507Z" fill="#58C3ED"/>
<path d="M185.011 66.0507C186.317 66.0507 187.376 64.9918 187.376 63.6855C187.376 62.3792 186.317 61.3203 185.011 61.3203C183.704 61.3203 182.646 62.3792 182.646 63.6855C182.646 64.9918 183.704 66.0507 185.011 66.0507Z" fill="#58C3ED"/>
<path d="M145.853 75.9491C147.16 75.9491 148.219 74.8902 148.219 73.5839C148.219 72.2777 147.16 71.2188 145.853 71.2188C144.547 71.2188 143.488 72.2777 143.488 73.5839C143.488 74.8902 144.547 75.9491 145.853 75.9491Z" fill="#58C3ED"/>
<path d="M155.665 75.9491C156.971 75.9491 158.03 74.8902 158.03 73.5839C158.03 72.2777 156.971 71.2188 155.665 71.2188C154.359 71.2188 153.3 72.2777 153.3 73.5839C153.3 74.8902 154.359 75.9491 155.665 75.9491Z" fill="#58C3ED"/>
<path d="M165.389 75.9491C166.695 75.9491 167.754 74.8902 167.754 73.5839C167.754 72.2777 166.695 71.2188 165.389 71.2188C164.082 71.2188 163.023 72.2777 163.023 73.5839C163.023 74.8902 164.082 75.9491 165.389 75.9491Z" fill="#58C3ED"/>
<path d="M175.199 75.9491C176.505 75.9491 177.564 74.8902 177.564 73.5839C177.564 72.2777 176.505 71.2188 175.199 71.2188C173.893 71.2188 172.834 72.2777 172.834 73.5839C172.834 74.8902 173.893 75.9491 175.199 75.9491Z" fill="#58C3ED"/>
<path d="M185.011 75.9491C186.317 75.9491 187.376 74.8902 187.376 73.5839C187.376 72.2777 186.317 71.2188 185.011 71.2188C183.704 71.2188 182.646 72.2777 182.646 73.5839C182.646 74.8902 183.704 75.9491 185.011 75.9491Z" fill="#58C3ED"/>
<path d="M145.853 37.2304C147.16 37.2304 148.219 36.1715 148.219 34.8652C148.219 33.5589 147.16 32.5 145.853 32.5C144.547 32.5 143.488 33.5589 143.488 34.8652C143.488 36.1715 144.547 37.2304 145.853 37.2304Z" fill="#58C3ED"/>
<path d="M155.665 37.2304C156.971 37.2304 158.03 36.1715 158.03 34.8652C158.03 33.5589 156.971 32.5 155.665 32.5C154.359 32.5 153.3 33.5589 153.3 34.8652C153.3 36.1715 154.359 37.2304 155.665 37.2304Z" fill="#58C3ED"/>
<path d="M165.389 37.2304C166.695 37.2304 167.754 36.1715 167.754 34.8652C167.754 33.5589 166.695 32.5 165.389 32.5C164.082 32.5 163.023 33.5589 163.023 34.8652C163.023 36.1715 164.082 37.2304 165.389 37.2304Z" fill="#58C3ED"/>
<path d="M175.199 37.2304C176.505 37.2304 177.564 36.1715 177.564 34.8652C177.564 33.5589 176.505 32.5 175.199 32.5C173.893 32.5 172.834 33.5589 172.834 34.8652C172.834 36.1715 173.893 37.2304 175.199 37.2304Z" fill="#58C3ED"/>
<path d="M185.011 37.2304C186.317 37.2304 187.376 36.1715 187.376 34.8652C187.376 33.5589 186.317 32.5 185.011 32.5C183.704 32.5 182.646 33.5589 182.646 34.8652C182.646 36.1715 183.704 37.2304 185.011 37.2304Z" fill="#58C3ED"/>
<path d="M145.853 47.1288C147.16 47.1288 148.219 46.0699 148.219 44.7636C148.219 43.4574 147.16 42.3984 145.853 42.3984C144.547 42.3984 143.488 43.4574 143.488 44.7636C143.488 46.0699 144.547 47.1288 145.853 47.1288Z" fill="#58C3ED"/>
<path d="M155.665 47.1288C156.971 47.1288 158.03 46.0699 158.03 44.7636C158.03 43.4574 156.971 42.3984 155.665 42.3984C154.359 42.3984 153.3 43.4574 153.3 44.7636C153.3 46.0699 154.359 47.1288 155.665 47.1288Z" fill="#58C3ED"/>
<path d="M165.389 47.1288C166.695 47.1288 167.754 46.0699 167.754 44.7636C167.754 43.4574 166.695 42.3984 165.389 42.3984C164.082 42.3984 163.023 43.4574 163.023 44.7636C163.023 46.0699 164.082 47.1288 165.389 47.1288Z" fill="#58C3ED"/>
<path d="M175.199 47.1288C176.505 47.1288 177.564 46.0699 177.564 44.7636C177.564 43.4574 176.505 42.3984 175.199 42.3984C173.893 42.3984 172.834 43.4574 172.834 44.7636C172.834 46.0699 173.893 47.1288 175.199 47.1288Z" fill="#58C3ED"/>
<path d="M185.011 47.1288C186.317 47.1288 187.376 46.0699 187.376 44.7636C187.376 43.4574 186.317 42.3984 185.011 42.3984C183.704 42.3984 182.646 43.4574 182.646 44.7636C182.646 46.0699 183.704 47.1288 185.011 47.1288Z" fill="#58C3ED"/>
<path d="M145.853 57.1152C147.16 57.1152 148.219 56.0562 148.219 54.75C148.219 53.4437 147.16 52.3848 145.853 52.3848C144.547 52.3848 143.488 53.4437 143.488 54.75C143.488 56.0562 144.547 57.1152 145.853 57.1152Z" fill="#58C3ED"/>
<path d="M155.665 57.1152C156.971 57.1152 158.03 56.0562 158.03 54.75C158.03 53.4437 156.971 52.3848 155.665 52.3848C154.359 52.3848 153.3 53.4437 153.3 54.75C153.3 56.0562 154.359 57.1152 155.665 57.1152Z" fill="#58C3ED"/>
<path d="M165.389 57.1152C166.695 57.1152 167.754 56.0562 167.754 54.75C167.754 53.4437 166.695 52.3848 165.389 52.3848C164.082 52.3848 163.023 53.4437 163.023 54.75C163.023 56.0562 164.082 57.1152 165.389 57.1152Z" fill="#58C3ED"/>
<path d="M175.199 57.1152C176.505 57.1152 177.564 56.0562 177.564 54.75C177.564 53.4437 176.505 52.3848 175.199 52.3848C173.893 52.3848 172.834 53.4437 172.834 54.75C172.834 56.0562 173.893 57.1152 175.199 57.1152Z" fill="#58C3ED"/>
<path d="M185.011 57.1152C186.317 57.1152 187.376 56.0562 187.376 54.75C187.376 53.4437 186.317 52.3848 185.011 52.3848C183.704 52.3848 182.646 53.4437 182.646 54.75C182.646 56.0562 183.704 57.1152 185.011 57.1152Z" fill="#58C3ED"/>
</g>
<rect y="344" width="431" height="84" fill="white" fill-opacity="0.72"/>
<defs>
<clipPath id="clip0">
<rect width="438" height="438" fill="white"/>
</clipPath>
</defs>
</svg>
