<?xml version="1.0" encoding="utf-8"?>
<!-- Generator: Adobe Illustrator 25.2.3, SVG Export Plug-In . SVG Version: 6.00 Build 0)  -->
<svg version="1.1" id="_x3C_Layer_x3E_" xmlns="http://www.w3.org/2000/svg" xmlns:xlink="http://www.w3.org/1999/xlink" x="0px"
	 y="0px" viewBox="0 0 5673.5 6564.4" style="enable-background:new 0 0 5673.5 6564.4;" xml:space="preserve">
<style type="text/css">
	.st0{fill:#C8C1E1;}
	.st1{fill:#42428E;}
	.st2{fill:#BED5DC;}
	.st3{fill:#FDAD9B;}
	.st4{fill:#66192D;}
	.st5{fill:#5F9048;}
	.st6{fill:#EF6A30;}
	.st7{fill:#020202;}
	.st8{fill:#DB6B49;}
	.st9{fill:#FFFFFF;}
	.st10{fill:#060633;}
	.st11{fill:#786AB5;}
	.st12{opacity:0.3;}
	.st13{opacity:0.5;}
	.st14{fill:#E08B65;}
	.st15{fill:#FECAFF;}
	.st16{fill:#553E93;}
	.st17{fill:#DD8964;}
	.st18{fill:#E1DCF7;}
	.st19{fill:#552748;}
	.st20{fill:#245010;}
	.st21{fill:#FF443C;}
	.st22{fill:#F18C7E;}
	.st23{fill:#FF8548;}
	.st24{fill:#FFBA41;}
	.st25{fill:#F22525;}
</style>
<ellipse class="st0" cx="2856.1" cy="4144.8" rx="2689.5" ry="456.7"/>
<path class="st1" d="M3526.2,4332.4c-1.8-1.8-40.2-41.3-26.1-64.9c2.1-3.9,4.9-5.3,7.8-4.9c10.2,1.1,21.5,27.9,27.2,43.7
	c-1.8-19.7-4.2-58.9,6.7-71.9c2.5-2.8,5.3-4.6,8.5-4.6c3.2-0.4,6,1.1,7.8,3.5c9.9,12,1.1,54.7-3.9,74.8c3.5-6,8.8-12.3,14.1-13
	c2.5-0.4,4.6,0.7,5.6,2.5c3.2,5.6-1.1,20.5-14.1,35.3l-1.8-1.8c12.7-14.5,15.9-28.2,13.8-32.4c-0.7-1.1-1.4-1.4-2.8-1.4
	c-6.7,1.1-14.5,15.5-16.9,21.2l-2.5-0.7c0.4-0.7,18.7-68.4,7.1-82.9c-1.4-1.8-3.2-2.5-5.6-2.5c-2.5,0-4.9,1.4-6.7,3.9
	c-13.8,16.6-4.9,81.1-4.9,81.8l-2.5,0.7c-4.6-14.5-18.7-51.8-28.9-52.9c-2.1-0.4-3.9,1.1-5.3,3.9c-13,21.9,25.4,61.4,25.7,61.7
	L3526.2,4332.4z"/>
<g>
	<path class="st2" d="M2616.6,4276.3c0,0-51.5-52.5-33.9-82.5c17.6-30,47.6,64.2,47.6,64.2s-15.5-111.4,16.6-113.2
		c32.1-1.8,0,113.2,0,113.2s12-26.8,23.6-28.6c11.6-1.8,8.5,22.9-12.3,46.6h-41.6L2616.6,4276.3L2616.6,4276.3z"/>
</g>
<g>
	<path class="st1" d="M2620.5,4277.7c0,0-14.8-15.2-26.8-34.2c-16.6-26.1-20.5-46.6-11.6-61.4c3.2-5.6,7.1-8.1,11.6-7.4
		c8.8,1.1,19.4,15.2,31,41.6c3.5,8.1,6.7,16.2,9.2,22.9c-2.8-29.3-6-87.1,9.9-106.9c3.5-4.2,7.8-6.7,12.7-6.7
		c4.9-0.4,8.8,1.4,11.6,4.9c14.5,18,1.4,81.1-5.6,110.4c5.3-8.8,13-18.3,20.8-19.4c3.5-0.4,6.7,0.7,8.1,3.9
		c4.6,8.5-1.8,30.3-20.8,52.2l-2.8-2.5c18.7-21.5,23.6-41.6,20.1-48c-0.7-1.8-2.1-2.1-4.2-1.8c-9.9,1.4-21.5,22.9-25.4,31.4
		l-3.5-1.4c0.4-1.1,27.9-100.9,10.6-122.4c-2.1-2.8-4.9-3.9-8.5-3.5c-3.9,0.4-7.1,2.1-9.9,5.6c-20.1,24.7-7.4,119.9-7.1,121
		l-3.5,0.7c-6.7-21.2-27.5-76.5-42.7-78.3c-2.8-0.4-5.6,1.4-8.1,5.6c-19,32.4,37.4,90.6,38.1,91.3L2620.5,4277.7z"/>
</g>
<g>
	<path class="st3" d="M1374.9,1724.7c0,0,91-4.2,105.4-143.9c14.8-143.5-149.9,0-149.9,0L1374.9,1724.7z"/>
</g>
<g>
	<path class="st3" d="M1281.8,1266.6c5.6,2.1,97.7,27.2,138.6,166.1c40.9,139-96.3,29.3-96.3,29.3L1281.8,1266.6z"/>
</g>
<g>
	<path class="st4" d="M1160.5,3182.3c0,0,1.4,50.1,34.9,64.2c33.9,14.1,131.9,26.8,95.2,58.9c-21.2,18.3-119.9,6.7-148.1,6.3
		c-27.9,0-54.3,12.3-75.1-6.7c-22.9-20.5,0-123.1,0-123.1s24,12.7,45.8,12C1144.9,3193.6,1160.5,3182.3,1160.5,3182.3z"/>
</g>
<g>
	<path class="st4" d="M772.2,3182.3c0,0,1.4,50.1,34.9,64.2c33.9,14.1,131.9,26.8,95.2,58.9c-21.2,18.3-119.9,6.7-148.1,6.3
		c-27.9,0-54.3,12.3-75.1-6.7c-22.9-20.5,0-123.1,0-123.1s24,12.7,45.8,12C756.3,3193.6,772.2,3182.3,772.2,3182.3z"/>
</g>
<g>
	<path class="st5" d="M1411.6,1812.6c0,0,6.3,209.1-60.7,610.5c-48.3,289.5-105.1,581.6-133,721.6c-9.9,50.1-52.2,86.8-101.9,88.5
		l-26.8,1.1c-54,2.1-97.7-44.1-93.8-99.5l67.7-946.9l16.6-311.8L1411.6,1812.6z"/>
</g>
<g>
	<path class="st4" d="M801.1,1996.7c3.2,25.4,147.1,22.2,323.4,0s313.5-60.7,310.4-86.1s-145.3-28.6-321.6-6.3
		C936.9,1926.8,797.9,1970.9,801.1,1996.7z"/>
</g>
<g>
	<path class="st5" d="M1209.5,1961.7l-376.3,1209c-15.9,50.4-61.4,85.3-113.2,86.1l-22.6,0.4c-53.3,1.1-94.2-48.3-84.6-102.3
		l206-1136c2.8-13.4,13-24.3,26.1-27.9C915,1970.9,1216.2,1912,1209.5,1961.7z"/>
</g>
<g>
	<path class="st6" d="M860,1300.5c0,0,50.1-140.7,228.5-134.4c178.5,6.3,313.2,240.9,346.3,744.5c0,0-292-64.2-634.1,85.3
		C800.4,1996,781.3,1505.7,860,1300.5z"/>
</g>
<g>
	<path class="st6" d="M734.4,1292l126.3,80.8c0,0,324.8,32.4,410.9,16.9c86.1-15.5,99.8-79,99.8-79s-82.2-112.5-238.1-140.4
		c-14.8-2.8-29.3-3.2-45.1-4.2c-26.5-1.8-52.9-1.1-79,1.8C855,1184.5,734.4,1292,734.4,1292z"/>
</g>
<g>
	<path class="st7" d="M1041.3,2502l-6-2.1l80.8-246.2c18.7-56.8,57.1-104.4,108.3-133.7l3.2,5.6c-49.7,28.6-87.1,74.8-105.4,130.1
		L1041.3,2502z"/>
</g>
<g>
	<g>
		<path class="st4" d="M1210.5,1134.7l-0.4-2.1c0.4,0,22.9-5.6,29.3-21.2c3.2-8.1,1.8-17.3-4.6-27.9c-3.2-4.9-6-9.5-8.5-13.4
			c-17.6-28.2-24.3-38.8-19.4-61.7l2.1,0.4c-4.6,22.2,1.4,31.7,19,60.3c2.5,4.2,5.3,8.5,8.5,13.4c6.7,11.3,8.5,21.2,4.9,30
			C1234.5,1128.7,1211.6,1134.4,1210.5,1134.7z"/>
	</g>
	<g>
		<path class="st4" d="M1207.7,1008.5c0,0-7.8,35.6,15.9,73.4c23.6,37.4-2.1,64.9-34.2,50.4c-32.1-14.5-44.4,26.5-85.3,3.9
			C1063.1,1113.2,1207.7,1008.5,1207.7,1008.5z"/>
	</g>
	<g>
		<path class="st3" d="M1018.3,1166.5c17.6-1.8,33.2-13,40.2-29.3l22.2-51.5l6.3-14.8l37.7-87.5l-6.7,90.6l-3.9,54.7l-1.1,15.5
			c-1.1,12.7,8.1,24,20.5,26.1h0.4c6.7,10.9,15.9,33.2-11.6,42C1089.6,1222.5,1036.7,1197.2,1018.3,1166.5
			C1018,1166.8,1018,1166.8,1018.3,1166.5z"/>
	</g>
	<g>
		<path class="st4" d="M1080.4,1084.3c0,0.4,0,1.1,0,1.4c2.1,29.3,33.5,43,33.5,43h0.4l3.9-54.7c-9.5-3.5-23.3-7.1-31-3.2
			C1082.9,1073,1080,1077.2,1080.4,1084.3z"/>
	</g>
	<g>
		<path class="st3" d="M1214.1,997.9c0-58.2-38.1-105.1-85.3-105.1c-47.3,0-85.3,47.3-85.3,105.1c0,58.2,38.1,105.1,85.3,105.1
			C1176,1103,1214.1,1056.1,1214.1,997.9z"/>
	</g>
	<g>
		<path class="st3" d="M1055,1013.8c9.5,9.2,23.3,10.2,30.3,2.1s4.9-22.2-4.9-31.4c-9.5-9.2-23.3-10.2-30.3-2.1
			C1043,990.5,1045.1,1004.6,1055,1013.8z"/>
	</g>
	<g>
		<path class="st8" d="M1174.6,1066c0,0-29.3,0.7-58.2-9.5c0,0-2.5,28.6,29.3,30.7C1164,1088.2,1174.6,1066,1174.6,1066z"/>
	</g>
	<g>
		<path class="st9" d="M1174.6,1066c0,0-7.1,6-23.6,5.6c-16.6,0-34.9-15.5-34.9-15.5S1151.6,1066,1174.6,1066z"/>
	</g>
	<g>
		<g>
			<path class="st10" d="M1136.8,999c0.7,0,1.1-0.7,1.4-1.1c0.4-1.1,0-2.1-1.1-2.5c-0.7-0.4-13.8-7.1-25,5.6c-0.7,0.7-0.7,2.1,0,2.8
				c0.7,0.7,1.8,0.7,2.8,0c8.8-6,20.5-4.9,20.8-4.6C1136.1,999,1136.5,999,1136.8,999z"/>
		</g>
	</g>
	<g>
		<path class="st10" d="M1121.7,1020.1c0,4.6,2.5,8.5,5.6,8.5c3.5,0,6.3-3.5,6.3-8.1c0-4.6-2.5-8.5-5.6-8.5
			C1124.5,1012,1121.7,1015.5,1121.7,1020.1z"/>
	</g>
	<g>
		<g>
			<path class="st10" d="M1206.3,1009.2c0.7,0,1.1,0,1.8-0.7c0.7-0.7,0.7-2.1,0-2.8c-0.4-0.4-9.9-11.6-25.4-4.2
				c-1.1,0.4-1.4,1.4-1.1,2.5c0.4,1.1,1.4,1.1,2.5,1.1c10.6-2.1,20.8,3.2,21.2,3.5C1205.6,1008.8,1205.9,1008.8,1206.3,1009.2z"/>
		</g>
	</g>
	<g>
		<path class="st10" d="M1184.1,1022.9c-1.8,4.2-1.1,8.8,2.1,10.2c3.2,1.4,7.1-1.1,8.8-5.3c1.8-4.2,1.1-8.8-2.1-10.2
			C1189.7,1016.2,1185.8,1018.7,1184.1,1022.9z"/>
	</g>
	<g>
		<path class="st4" d="M1165,911.8c0,0-1.8,36.7-47.3,42.7c-45.5,6.3-76.9,25.4-70.9,58.2c6,32.8,79.7,100.9,25.7,127.3
			c-54,26.5-42.7-22.9-101.2-11.3c-58.5,11.3-69.1-66.7-28.9-112.1c40.2-45.5,24-165.4,175.3-160.1c151.3,5.3,95.9,125.9,95.9,125.9
			S1165,952,1165,911.8z"/>
	</g>
	<g>
		<path class="st9" d="M1056.8,1147.1l-0.4-1.1c11.3-4.6,17.6-10.9,20.1-19.4c6.3-24-21.9-60.7-46.9-93.1
			c-6.7-8.5-13-16.6-18.3-24.3c-15.5-21.5-16.9-47.3-3.5-67.4c14.8-22.2,42.7-31.4,73-24.3c29.3,6.7,49.4,0.7,61.4-5.6
			c12.7-6.7,18.7-15.5,18.7-15.5l1.1,0.7c-0.4,0.4-24.3,34.9-81.1,21.5c-30-7.1-57.5,2.1-71.9,24c-13,19.7-12,44.4,3.5,65.9
			c5.6,7.8,11.6,15.9,18.3,24.3c25,32.8,53.6,69.5,46.9,94.2C1075.1,1135.4,1068.1,1142.5,1056.8,1147.1z"/>
	</g>
	<g>
		<g>
			<path class="st11" d="M1200.3,1077.9c-4.6,0-8.8-1.4-13-3.9c-18.3-11.3-25.4-45.8-15.5-76.9l0,0c6-19,17.3-33.2,30-37.7
				c7.8-2.8,15.2-2.1,22.2,2.1c18.3,11.3,25.4,45.8,15.5,76.5c-6,19-17.3,33.2-30,37.7C1206.3,1077.6,1203.5,1077.9,1200.3,1077.9z
				 M1175.6,998.6c-9.5,29.3-3.2,61.7,13.8,72.3c5.6,3.5,12.3,4.2,18.7,1.8c11.6-4.2,22.2-17.6,27.9-35.3
				c9.5-29.3,3.2-61.7-13.8-72.3c-5.6-3.5-12.3-4.2-18.7-1.8C1191.5,967.6,1181.3,980.6,1175.6,998.6L1175.6,998.6z"/>
		</g>
	</g>
	<g class="st12">
		<path class="st9" d="M1073,977.4c-6.7,30,4.2,62.4,24.3,71.9c20.5,9.9,42.3-6.7,49.4-36.7c6.7-30-4.2-62.4-24.3-71.9
			C1101.9,930.9,1080,947.5,1073,977.4z"/>
	</g>
	<g class="st12">
		<path class="st9" d="M1171,1000c-6.7,30.3,2.1,62.8,20.5,73c18,10.2,38.4-6,45.1-36.3c6.7-30.3-2.1-62.8-20.5-73
			C1198.2,953.5,1177.7,969.7,1171,1000z"/>
	</g>
	<g>
		<g>
			<path class="st11" d="M1112.1,1053.3c-4.6,0-9.2-1.1-13.8-3.2c-22.6-10.6-34.6-45.1-27.2-77.2l0,0c4.2-18.7,14.5-33.2,27.5-39.5
				c9.2-4.2,18.7-4.6,27.9-0.4c22.6,10.6,34.6,45.1,27.2,77.2c-4.2,18.7-14.5,33.2-27.5,39.5
				C1121.3,1051.9,1116.7,1053.3,1112.1,1053.3z M1112.8,933.7c-4.2,0-8.5,1.1-12.3,2.8c-12,5.6-21.5,19.7-25.4,37l0,0
				c-7.1,30.3,4.2,63.1,25,73c7.8,3.5,16.2,3.5,24.3,0c12-5.6,21.5-19.7,25.4-37c7.1-30.3-4.2-63.1-25-73
				C1121,934.8,1116.7,933.7,1112.8,933.7z"/>
		</g>
	</g>
	<g>
		<g>
			<path class="st11" d="M1174.9,1011.3c-0.7,0-1.8-0.4-2.1-0.7l0,0c-0.4-0.4-9.5-7.4-25.4-4.6c-1.8,0.4-3.9-0.7-4.2-2.8
				c-0.4-1.8,0.7-3.9,2.8-4.2c19-3.9,30.7,5.6,31.4,6c1.4,1.4,1.8,3.5,0.4,4.9C1177,1010.6,1176,1011.3,1174.9,1011.3z"/>
		</g>
	</g>
</g>
<g>
	<path class="st4" d="M732.7,1294.8c-4.2,12.7,28.6,36.7,73.7,53.3c45.1,16.6,85.3,19.7,89.6,7.1s-28.6-36.7-73.7-53.3
		C777.5,1285.3,737.2,1282.1,732.7,1294.8z"/>
</g>
<g>
	<g>
		<path class="st3" d="M1042.7,1735l1.4-92.4c0.4-12.7-9.5-23.3-22.2-24c-63.8-4.6-109-24.3-133.3-59.2
			c-34.2-48.3-30.3-123.1-21.2-174.9c4.9-26.5-3.9-44.4-36-61.4c0,0-27.5-15.2-61.7-21.2c-13.8-2.5-27.2,3.2-30.7,16.6
			c-5.6,20.8-12.7,53.6-15.9,91.7c-8.1,91,9.5,170.3,50.8,228.9c50.8,72.3,132.3,112.1,243,118.9
			C1031,1759.3,1042.3,1748.7,1042.7,1735z"/>
	</g>
</g>
<g class="st13">
	<path class="st14" d="M807.4,1615.4c-2.5,0-4.9-0.4-7.8-1.1c-7.1-2.1-14.1-7.1-19.4-13.8c-11.3-14.1-12.3-32.4-2.5-40.6
		c10.2-8.1,27.5-3.2,38.8,10.9c11.3,14.1,12.3,32.4,2.5,40.6C815.9,1614,811.7,1615.4,807.4,1615.4z M789.4,1562.5
		c-3.2,0-5.6,0.7-7.8,2.5c-7.4,6-5.6,20.5,3.5,31.7l0,0c4.6,5.6,10.6,9.9,16.2,11.6c5.6,1.8,10.6,1.1,13.8-1.8
		c7.4-6,5.6-20.5-3.5-31.7C805.3,1567.1,796.9,1562.5,789.4,1562.5z"/>
</g>
<g>
	<path class="st5" d="M942.9,1968.8c0,0,351.6-67.4,465.9-35.6l-54.7,81.1l-203.5,11.6L942.9,1968.8z"/>
</g>
<g>
	<g>
		<path class="st4" d="M1084.6,1627.4h303.3c6.3,0,12-3.9,14.1-9.9l63.1-188.3c3.2-9.5-3.9-19.4-14.1-19.4h-291.7
			c-13.4,0-25,8.5-29.3,20.8l-59.2,177C1067.7,1617.5,1074.8,1627.4,1084.6,1627.4z"/>
	</g>
	<g>
		<path class="st4" d="M1103.7,1627.4H1407c6.3,0,12-3.9,14.1-9.9l63.1-188.3c3.2-9.5-3.9-19.4-14.1-19.4h-291.7
			c-13.4,0-25,8.5-29.3,20.8l-59.2,177C1086.7,1617.5,1093.8,1627.4,1103.7,1627.4z"/>
	</g>
	<g>
		<path class="st15" d="M1316.3,1512.8c0-7.1-8.1-10.2-15.5-10.2c-7.1,0-19,7.8-19,18c0,10.9,8.5,12.3,15.9,12.3
			C1305.1,1532.5,1316.3,1521.6,1316.3,1512.8z"/>
	</g>
	<g>
		<path class="st16" d="M1125.5,1505l-1.8-0.4c0.7-2.5,15.2-56.4,25-74.1c9.9-17.6,21.9-21.2,22.6-21.5l0.4,1.8
			c0,0-12,3.5-21.2,20.5C1140.4,1448.6,1125.5,1504.7,1125.5,1505z"/>
	</g>
	<g>
		<polygon class="st16" points="1094.9,1596.4 1092.7,1596 1116.4,1525.1 1118.5,1525.8 		"/>
	</g>
</g>
<g>
	<g>
		<path class="st3" d="M1482.1,1560.1c0,0,4.9,39.5-28.6,43.4c-42.7,4.9-100.9-33.5-74.1-36.7c24-3.2,58.9,1.4,58.9,1.4
			s-89.2-12.7-80.8-31.7c8.5-19,84.6-7.1,84.6-7.1s-85.7-21.2-72.7-36c13.4-15.2,82.9-4.6,82.9-4.6s-85-15.9-69.1-32.8
			s58.5,0.7,77.9,3.9c18.3,2.8,22.9,16.6,19.4,35.6c0,0,6.7,21.2,1.8,32.8c-2.1,4.6,1.8,9.9,1.8,13.4
			C1484.6,1548.1,1482.1,1560.1,1482.1,1560.1z"/>
	</g>
</g>
<g>
	<g>
		<g>
			<path class="st3" d="M998.6,1612.6c0,0,22.6-68.1,61-84.6c38.4-16.6,100.2-8.8,78.6,6.7c-21.5,15.5-54.7,27.5-54.7,27.5
				s71.9-22.2,69.8-3.2c-2.1,19-64.9,38.1-64.9,38.1s87.8-19.7,80.1-2.5c-7.8,17.3-74.4,32.1-74.4,32.1s82.5-15.2,73,4.9
				c-9.5,20.1-68.1,12-70.2,31c-2.1,19-16.6,94.2-70.5,94.9L998.6,1612.6z"/>
		</g>
	</g>
	<g>
		<path class="st17" d="M1057.8,1577.7l-2.8-1.4c6-12.3,27.2-15.9,28.2-15.9l0.4,3.2C1083.6,1563.6,1063.1,1566.8,1057.8,1577.7z"/>
	</g>
	<g>
		<path class="st17" d="M1057.5,1615.8l-2.5-1.8c11.6-15.5,32.4-18.7,33.5-18.7l0.4,3.2C1088.5,1598.1,1068.4,1601,1057.5,1615.8z"
			/>
	</g>
	<g>
		<path class="st17" d="M1064.9,1643.6l-2.8-1.1c5.3-13.8,30.3-17.6,31.4-18l0.4,3.2C1093.8,1627.8,1069.5,1631.6,1064.9,1643.6z"/>
	</g>
</g>
<g>
	<path class="st17" d="M1448.9,1605.5c-12.7,0-27.2-3.5-28.2-3.9l0.7-3.2c9.2,2.1,34.6,6.7,42.3,0.4l2.1,2.5
		C1462,1604.5,1455.6,1605.5,1448.9,1605.5z"/>
</g>
<g>
	<path class="st6" d="M5087.5,3117.8l-907.1,2.1l-1033,25.7l-2.8,77.9l999.1-43.4c100.5,3.5,178.8,95.6,174.9,205.3l0,0
		c-3.9,110-88.2,196.4-188.7,192.9l-996.3-34.2l-2.1,57.5l1941.8,85.7c130.5,4.6,239.8-126.3,244.8-269.1l0,0
		C5323.7,3275.4,5217.9,3122.4,5087.5,3117.8z"/>
</g>
<g>
	<path class="st6" d="M4407.5,3386.5L4407.5,3386.5c4.9-142.8-96.6-262-227.1-266.6l-1033,25.7l-2.8,77.9l999.1-43.4
		c100.5,3.5,178.8,95.6,174.9,205.3l0,0c-3.9,110-88.2,196.4-188.7,192.9l-996.3-34.2l-2.1,93.1h1030.9
		C4292.9,3641.5,4402.6,3529.4,4407.5,3386.5z"/>
</g>
<g>
	<path class="st18" d="M4143.7,3180.2l-999.1,43l0,0c90.3,14.5,117.1,106.2,129.8,154.8c25.4,99.1-49.7,156.2-140.7,164.3v1.4
		l996.3,34.2c100.5,3.5,184.8-82.9,188.7-192.9l0,0C4322.5,3275.8,4244.2,3183.8,4143.7,3180.2z"/>
</g>
<g>
	
		<rect x="3820.4" y="3135.4" transform="matrix(2.319467e-02 -0.9997 0.9997 2.319467e-02 301.0684 7176.6177)" class="st4" width="5.3" height="597.8"/>
</g>
<g>
	<g>
		<path class="st19" d="M4344,3547c-2.8,0-5.6-1.1-7.4-3.5c-2.8-3.5-1.8-8.5,2.5-10.6c0.7-0.4,65.2-39.1,75.5-147.4
			c10.6-107.6-76.5-149.2-77.6-149.5c-4.2-2.1-6-6.7-3.5-10.6c2.5-3.9,7.8-5.3,12-3.2c3.9,1.8,98.4,46.6,86.8,164.3
			c-11.3,116.4-80.4,157.3-83.6,159.1C4347.5,3546.6,4345.8,3547,4344,3547z"/>
	</g>
</g>
<g>
	
		<rect x="3447.2" y="3369.7" transform="matrix(0.9999 -1.556368e-02 1.556368e-02 0.9999 -52.041 57.5266)" class="st4" width="445.4" height="5.3"/>
</g>
<g>
	<g>
		<path class="st19" d="M4607.8,3528L4607.8,3528l-160.1-5.6c-3.2,0-6-1.8-7.4-4.6s-1.4-6,0-8.8c0.4-0.4,27.9-48.3,44.1-112.5
			c15.5-61.7-26.5-126.3-27.2-127c-1.8-2.8-2.1-6.3-0.4-9.2c1.8-2.8,4.6-4.2,8.1-4.6l151.6,5.3c2.8,0,5.3,1.4,7.1,3.9
			c94.9,135.8-8.1,258.5-9.2,259.9C4613.1,3526.9,4610.6,3528,4607.8,3528z M4462.9,3505l141.1,4.9c15.2-19.4,83.6-118.9,7.8-231
			l-131.2-4.6c12.7,24.3,33.9,75.1,21.2,126.6C4490,3448.3,4472.4,3486.3,4462.9,3505z"/>
	</g>
</g>
<g>
	<path class="st20" d="M3142.5,3625.6l911.7,1.1l1031.2,62.4v77.9l-997-79c-100.5,0-182,88.9-182,198.9l0,0
		c0,110,81.1,199.3,181.6,199.6l997,1.1v57.5l-1943.2-2.1c-130.5,0-235.9-116-235.9-258.9l0,0
		C2906.2,3741,3012.3,3625.3,3142.5,3625.6z"/>
</g>
<g>
	<path class="st20" d="M3817.8,3884.9L3817.8,3884.9c0-142.8,106.2-258.5,236.3-258.5l1031.2,62.4v77.9l-997-79
		c-100.5,0-182,88.9-182,198.9l0,0c0,110,81.1,199.3,181.6,199.6l997,1.1v57.5l-1031.2-1.1
		C3923.3,4143.7,3817.8,4027.7,3817.8,3884.9z"/>
</g>
<g>
	<path class="st18" d="M4088.7,3688.1l997,78.6l0,0c-90.6,11.3-121,101.9-135.1,150.2c-28.9,98,44.1,157.6,134.7,169.3v1.4l-997-1.1
		c-100.5,0-181.6-89.6-181.6-199.6l0,0C3906.7,3776.9,3988.2,3688.1,4088.7,3688.1z"/>
</g>
<g>
	
		<rect x="4540" y="3562.6" transform="matrix(1.068094e-03 -1 1 1.068094e-03 572.7955 8503.3516)" class="st20" width="5.3" height="804.8"/>
</g>
<g>
	
		<rect x="4639.6" y="3592.2" transform="matrix(5.107244e-02 -0.9987 0.9987 5.107244e-02 509.1287 8338.1289)" class="st20" width="5.3" height="617.9"/>
</g>
<g>
	<path class="st6" d="M3118.5,2630.1l928.9-18.7l1051.7,41.3l1.8,79.4l-1017.1-58.9c-102.3,2.1-183.4,94.5-181.3,206.7l0,0
		c2.1,112.1,87.1,201.4,189.4,199.3l1015.3-20.5l1.1,58.5l-1979.2,39.9c-133,2.8-243-113.2-245.8-258.5l0,0
		C2880.4,2752.8,2985.9,2632.9,3118.5,2630.1z"/>
</g>
<g>
	<path class="st6" d="M3812.2,2879.7L3812.2,2879.7c-2.8-145.7,102.3-265.6,235.2-268.4l1051.7,41.3l1.8,79.4l-1017.1-58.9
		c-102.3,2.1-183.4,94.5-181.3,206.7l0,0c2.1,112.1,87.1,201.4,189.4,199.3l1015.3-20.5l1.1,58.5l-1050.6,21.2
		C3925,3141.1,3815,3025.4,3812.2,2879.7z"/>
</g>
<g>
	<path class="st18" d="M4083.7,2673.4l1017.1,58.5l0,0c-92,13.4-121,106.5-134.4,155.9c-27.2,100.5,48.3,159.8,141.1,169.6v1.4
		l-1015.3,20.5c-102.3,2.1-187.3-87.1-189.4-199.3l0,0C3900.4,2768,3981.5,2675.6,4083.7,2673.4z"/>
</g>
<g>
	
		<rect x="4141.9" y="2942.5" transform="matrix(0.9998 -1.935254e-02 1.935254e-02 0.9998 -56.1468 88.6417)" class="st4" width="820" height="5.6"/>
</g>
<g>
	<g>
		<path class="st19" d="M3836.2,3050.1c-1.4,0-3.2-0.4-4.6-1.4c-2.8-1.8-64.9-45.5-73.4-167.5c-8.5-123.4,77.6-168.9,81.5-171
			c3.9-2.1,8.8-0.4,10.9,3.5s0.4,8.8-3.5,10.9c-3.2,1.8-80.4,43-72.7,155.5c8.1,114.3,65.9,154.8,66.3,155.2
			c3.5,2.5,4.6,7.4,2.1,11.3C3841.1,3048.7,3838.6,3050.1,3836.2,3050.1z"/>
	</g>
</g>
<g>
	
		<rect x="4649.3" y="2562.9" transform="matrix(2.993087e-02 -0.9996 0.9996 2.993087e-02 1636.4243 7441.5698)" class="st4" width="5.6" height="629.5"/>
</g>
<g>
	<g>
		<path class="st19" d="M3624.2,3006c-21.9,0-42-12-52.2-31.4c-18.3-34.6-43-104-2.8-180.6c9.5-18.3,28.9-30.3,50.4-30.7l0,0
			l32.8-0.7c18.3-0.4,35.3,7.4,46.9,21.9c11.6,14.1,15.9,32.1,12,49.7c-4.2,19.4-4.6,37.7-0.7,54.3c3.2,12.7,6.7,25.7,11.3,38.8
			c6,18,3.2,37-7.8,52.5c-10.9,15.5-28.2,24.7-47.3,25l-41.6,0.7C3625.3,3006,3624.9,3006,3624.2,3006z M3620.3,2779.9
			c-15.5,0.4-29.6,8.8-36.7,21.9c-36.7,69.8-13.8,133.7,2.8,165.4c7.4,14.1,22.6,22.9,38.8,22.6l41.6-0.7
			c13.8-0.4,26.5-7.1,34.2-18.3c7.8-11.3,9.9-25,5.6-38.1c-4.6-13.4-8.5-26.8-11.6-40.2c-4.6-19-4.2-39.9,0.7-61.7
			c2.8-12.7-0.4-25.7-8.5-36c-8.5-10.2-20.8-16.2-34.2-15.9L3620.3,2779.9z"/>
	</g>
</g>
<g>
	<path class="st6" d="M2365.5,3320.6l-853.8-25.7L544,3317.4l-2.5,65.6l936-37.4c94.2,2.8,167.5,80.1,164,172.8l0,0
		c-3.5,92.8-82.5,165.4-176.7,162.6l-933.5-27.9l-1.8,48.3l1819.4,54.7c122,3.5,224.7-90.6,229.2-210.9l0,0
		C2583.1,3424.6,2487.6,3324.1,2365.5,3320.6z"/>
</g>
<g>
	<path class="st6" d="M1724.7,3519.1L1724.7,3519.1c4.6-120.3-91-220.8-213-224.3L544,3317.4l-2.5,65.6l936-37.4
		c94.2,2.8,167.5,80.1,164,172.8l0,0c-3.5,92.8-82.5,165.4-176.7,162.6l-933.5-27.9l-1.8,48.3l965.6,28.9
		C1617.9,3733.9,1720.5,3639.4,1724.7,3519.1z"/>
</g>
<g>
	<path class="st18" d="M1477.9,3345.6l-936,37.4l0,0c84.3,12,110,89.2,121.7,130.5c23.6,83.6-46.6,131.5-131.5,138.6v1.1l933.5,27.9
		c94.2,2.8,173.2-69.8,176.7-162.6l0,0C1645.4,3426,1571.7,3348.4,1477.9,3345.6z"/>
</g>
<g>
	
		<rect x="1041.1" y="3189.1" transform="matrix(3.002099e-02 -0.9995 0.9995 3.002099e-02 -2552.0715 4501.8936)" class="st4" width="4.9" height="753.6"/>
</g>
<g>
	
		<rect x="663.5" y="3506.8" transform="matrix(0.9999 -1.518914e-02 1.518914e-02 0.9999 -53.1935 14.8789)" class="st4" width="578.7" height="4.9"/>
</g>
<g>
	<path class="st5" d="M532.7,3705.7h767.8l868.3,51.5v65.6l-839.4-65.6c-84.6,0-153.1,75.1-153.1,167.9l0,0
		c0,92.8,68.4,167.9,153.1,167.9h839.4v48.3h-1636c-109.7,0-198.9-97.3-198.9-217.6l0,0C333.8,3803,422.7,3705.7,532.7,3705.7z"/>
</g>
<g>
	<path class="st5" d="M1101.2,3923.3L1101.2,3923.3c0-120.3,88.9-217.6,198.9-217.6l890.5,45.5l-22.2,71.6l-839.4-65.6
		c-84.6,0-153.1,75.1-153.1,167.9l0,0c0,92.8,68.4,167.9,153.1,167.9h839.4v48.3h-868.3C1190.4,4141.3,1101.2,4043.6,1101.2,3923.3z
		"/>
</g>
<g>
	<path class="st18" d="M1329,3757.5l839.4,65.2l0,0c-76.2,9.5-101.6,86.1-113.6,126.6c-24,82.5,37.4,132.6,113.6,142.5v1.1H1329
		c-84.6,0-153.1-75.1-153.1-167.9l0,0C1176,3832.3,1244.4,3757.5,1329,3757.5z"/>
</g>
<g>
	<rect x="1372.8" y="3987.5" class="st20" width="677.5" height="4.6"/>
</g>
<g>
	<g>
		<path class="st20" d="M726,4057.7c-2.1-1.4-53.6-39.1-58.5-141.1c-4.9-103.3,67.7-140,70.9-141.4l6,12.3l-2.8-6l2.8,6
			c-2.8,1.4-67.7,34.6-63.1,128.7c4.6,95.6,52.5,130.5,52.9,130.8L726,4057.7z"/>
	</g>
</g>
<g>
	
		<rect x="1792.1" y="3676.5" transform="matrix(5.001104e-02 -0.9987 0.9987 5.001104e-02 -2227.0525 5531.8223)" class="st20" width="4.6" height="520.2"/>
</g>
<g>
	<g>
		<path class="st20" d="M518.2,3790h41.3c36.3,0,62.4,34.2,53.3,69.1c-5.3,20.5-7.4,43.7-2.5,67.4c3.5,16.9,8.1,33.2,12.7,47.6
			c11.3,35.6-15.5,71.9-52.5,71.9h-51.5c-20.8,0-39.5-11.6-49-30c-20.5-39.9-45.1-115-0.4-196.8C479.4,3800.9,498.1,3790,518.2,3790
			z"/>
	</g>
</g>
<g>
	<path class="st5" d="M5057.8,2656.5l-2469.8-25.4c-52.9-0.7-95.6-39.1-95.6-86.1V1198.6c0-47.3,42.3-85.3,95.2-86.1l2438-33.5
		c53.3-0.7,97,37,98,84.3l31.7,1405C5156.6,2617.4,5112.5,2657.2,5057.8,2656.5z"/>
</g>
<g>
	<path class="st0" d="M5058.9,1231v1266.4c0,26.8-21.9,48.7-48.7,48.7H2637.4c-26.8,0-48.7-21.9-48.7-48.7V1231
		c0-26.8,21.9-48.7,48.7-48.7h2372.4C5037,1182.3,5058.9,1204.2,5058.9,1231z"/>
</g>
<g>
	<g>
		<path class="st19" d="M5058.9,2390.2v40.2c0,24.7-20.1,44.8-44.8,44.8H3593.2c-3.2-0.7-6.3-1.8-9.2-2.8
			c101.2-98.4,295.9-252.5,561.8-304.4c19.4-3.9,39.5-7.1,59.6-9.9c18-2.5,36-4.2,54.7-5.6c1.1,0,2.1,0,2.8-0.4
			c56.4-3.9,113.2-1.8,168.9,3.9c11.3,1.1,22.6,2.5,33.9,3.9c16.6,2.1,32.8,4.6,48.7,7.1C4780.3,2209.7,4950.6,2299.3,5058.9,2390.2
			z"/>
	</g>
	<g>
		<path class="st3" d="M4443.1,2223.1c30-46.2-13-50.4-26.8-97.3l-42.3-144.9l-12.3-42.3l-72.7-248.3l-14.1,245.5l-8.5,147.4
			l-2.8,46.6c-1.8,31.7-10.6,36-34.6,63.1c-9.9,10.9-45.8,55.4,0.4,77.9C4271.4,2290.8,4404.7,2282,4443.1,2223.1z"/>
	</g>
	<g>
		<path class="st4" d="M4429,1925.1c0,0,241.6-84.3,205.6-264.2s-220.4,162.6-220.4,162.6l-9.9,94.2L4429,1925.1z"/>
	</g>
	<g>
		<path class="st4" d="M4374.4,1976.9c-0.4,1.4-0.4,2.8-0.7,3.9c-16.2,77.6-106.9,103-106.9,103l-0.4-0.4l8.5-147.4
			c27.5-6,65.9-10.6,86.4,2.8C4372.2,1945.5,4377.9,1957.5,4374.4,1976.9z"/>
	</g>
	<g>
		<path class="st3" d="M4056.6,1727.6c18.7-142.8,130.1-246.2,248.6-230.6s199.3,143.9,180.6,286.7s-130.1,246.2-248.6,230.6
			C4118.7,1999.1,4037.5,1870.4,4056.6,1727.6z"/>
	</g>
	<g>
		<path class="st4" d="M4457.9,1749.8c0,0-71.2,14.5-101.6-38.8s-48-98.7-171.8-93.8c-123.8,4.6-223.9-68.1-218.7-134
			c5.3-65.9,73-87.5,135.1-56.1c62.1,31.4,1.1-37.7,71.9-77.2c70.9-39.5,155.2,72.3,223.9,68.1c68.8-4.6,277.9,59.2,237.7,243
			L4457.9,1749.8z"/>
	</g>
	<g>
		<path class="st3" d="M4485.1,1802.3c-21.9,14.1-49.7,9.5-62.4-10.2c-12.3-19.7-4.9-46.9,17.3-60.7c21.9-14.1,49.7-9.5,62.4,10.2
			C4514.7,1761.1,4507,1788.2,4485.1,1802.3z"/>
	</g>
	<g>
		<path class="st9" d="M4126.8,1518.8c-21.9,0-38.4-4.2-49.4-12.7c-18.7-14.8-20.1-28.2-14.8-35.6c6-8.8,22.6-12,39.9-1.8
			c29.6,17.3,51.5,14.5,51.5,14.5l0.4,2.8c-1.1,0-22.9,2.8-53.6-14.8c-15.9-9.2-30.7-6.7-36,1.1c-4.2,6.3-2.8,18,14.5,31.7
			c35.6,28.2,131.2-1.8,131.9-2.1l1.1,2.8c-0.4,0-24.7,7.8-53.3,11.6C4147.2,1517.7,4136.6,1518.8,4126.8,1518.8z"/>
	</g>
	<g>
		<path class="st9" d="M4519.7,1474.7c-25.4-18-56.4-16.2-92-14.1c-18.3,1.1-37,2.1-57.5,1.1c-61.7-3.5-112.9-61.7-114.6-67.7
			l2.8-0.7c1.4,3.5,50.1,62.4,112.1,65.6c20.5,1.1,39.1,0,57.1-1.1c36.3-2.1,68.1-3.9,94.2,14.5L4519.7,1474.7z"/>
	</g>
	<g>
		<path class="st9" d="M4590.9,1627.4h-0.4c-9.2-0.7-24-28.2-24.3-42c-0.4-7.1,3.2-8.8,5.3-8.8c17.3-2.5,25.7,39.9,26.1,41.6v0.4
			v0.4C4596.5,1625.6,4593.4,1627.4,4590.9,1627.4z M4572.9,1579.1c-0.4,0-0.7,0-1.1,0c-0.7,0-3.2,0.4-2.8,6
			c0.4,13,14.5,38.8,21.5,39.1c2.1,0,3.2-3.2,3.9-6C4592.7,1607,4584.5,1579.1,4572.9,1579.1z"/>
	</g>
	<g>
		<g>
			<path class="st10" d="M4230.5,1744.9c-1.1-0.7-1.8-1.8-2.1-3.2c-0.4-2.5,1.4-4.6,3.9-4.6c1.4,0,34.2-6,50.4,28.9
				c1.1,2.1,0.4,4.9-2.1,6c-2.1,1.1-4.2,0-6-2.1c-15.2-18.7-40.9-24-42-24C4231.9,1745.6,4231.2,1745.2,4230.5,1744.9z"/>
		</g>
	</g>
	<g>
		<path class="st10" d="M4249.5,1801.3c-2.8,10.2-10.9,16.6-18.3,14.8c-7.4-2.1-10.9-11.6-8.1-21.9s10.9-16.6,18.3-14.8
			C4248.4,1781.2,4252,1791.1,4249.5,1801.3z"/>
	</g>
	<g>
		<g>
			<path class="st10" d="M4068.2,1731.8c-1.1-0.4-1.8-1.1-2.5-2.1c-0.7-2.1,0-4.6,1.8-6c1.1-0.7,23.6-19.4,44.8,4.9
				c1.4,1.4,1.4,4.2,0,6c-1.4,1.8-3.2,1.8-4.9,0.7c-16.2-10.6-36.3-4.9-37-4.2C4069.6,1731.8,4068.6,1732.2,4068.2,1731.8z"/>
		</g>
	</g>
	<g>
		<path class="st10" d="M4108.1,1776.9c1.4,10.2-3.9,19.4-11.3,20.5c-7.4,1.1-14.8-6.7-15.9-16.9c-1.4-10.2,3.9-19.4,11.3-20.5
			C4099.6,1758.6,4106.7,1766.4,4108.1,1776.9z"/>
	</g>
	<g>
		<g>
			<path class="st7" d="M4223.8,1939.5c-38.8,0-69.5-23.6-69.8-24c-1.4-1.1-1.4-2.8-0.4-4.2c1.1-1.4,2.8-1.4,4.2-0.4
				c2.5,2.1,60.3,47.3,117.8,5.6c1.4-1.1,3.2-0.7,4.2,0.7c1.1,1.4,0.7,3.2-0.7,4.2C4260.4,1934.6,4241,1939.5,4223.8,1939.5z"/>
		</g>
		<g>
			<path class="st7" d="M4281.6,1933.5L4281.6,1933.5c-2.1-0.4-3.2-1.8-3.2-3.5c0.4-4.6-0.7-12-8.8-22.9c-0.4-0.4-0.4-0.7-0.7-0.7
				c-1.1-1.4-0.4-3.2,1.1-4.2c1.4-1.1,3.2-0.4,4.2,1.1l0.4,0.4c7.4,10.2,10.6,19.4,9.9,27.2
				C4284.4,1932.5,4283.4,1933.5,4281.6,1933.5z"/>
		</g>
	</g>
	<g>
		<path class="st9" d="M4048.8,1906.7c-10.9,0-21.9-3.2-32.1-9.5c-27.9-17.3-47.3-56.1-52.2-103.7c-8.1-77.2,25-154.8,73.7-172.5
			c18-6.7,36.3-4.6,52.9,5.6c27.9,17.3,47.3,56.1,52.2,103.7l0,0c8.1,77.2-25,154.8-73.7,172.5
			C4062.6,1905.3,4055.9,1906.7,4048.8,1906.7z M4059.1,1626.4c-6,0-11.6,1.1-17.6,3.2c-45.1,16.6-75.5,89.6-67.7,162.9
			c4.6,44.8,22.6,80.8,48,96.6c14.1,8.8,29.6,10.6,45.1,4.9c45.1-16.6,75.5-89.6,67.7-162.9l0,0c-4.6-44.8-22.6-80.8-48-96.6
			C4077.8,1629.2,4068.6,1626.4,4059.1,1626.4z"/>
	</g>
	<g class="st12">
		<path class="st9" d="M4384.9,1731.4c1.4,73.7-40.2,144.2-92.8,157.3c-52.5,13-96.3-36.3-97.7-110.4
			c-1.4-73.7,40.2-144.2,92.8-157.3C4339.8,1608,4383.5,1657.4,4384.9,1731.4z"/>
	</g>
	<g class="st12">
		<path class="st9" d="M4144.1,1736.4c1.4,74.1-36,146.7-83.6,161.5c-47.6,15.2-87.1-32.8-88.5-107.2c-1.4-74.1,36-146.7,83.6-161.5
			C4103.1,1614.4,4142.6,1662.3,4144.1,1736.4z"/>
	</g>
	<g>
		<path class="st9" d="M4271.7,1891.9c-16.6,0-32.4-5.6-46.2-16.2c-27.5-21.2-44.1-60-45.1-105.8c-1.8-79,43.7-154.5,101.6-168.2
			c23.3-5.6,45.8-0.7,64.9,14.1c27.5,21.2,44.1,60,45.1,105.8c1.8,79-43.7,154.5-101.6,168.2
			C4284.1,1891.2,4277.7,1891.9,4271.7,1891.9z M4300.3,1608.4c-5.3,0-10.9,0.7-16.2,2.1c-54,12.7-96.3,84.3-94.5,159.1
			c1.1,42.7,16.6,79.7,41.6,98.7c16.9,13,36.7,17.3,57.1,12.3c54-12.7,96.3-84.3,94.5-159.1c-1.1-42.7-16.6-79.7-41.6-98.7
			C4328.5,1613.3,4314.7,1608.4,4300.3,1608.4z"/>
	</g>
	<g>
		<path class="st9" d="M4200.1,1762.8c-1.1,0-2.1-0.4-3.2-0.7c-36-15.2-61.7-2.1-61.7-2.1c-4.2,2.1-9.2,0.7-11.6-3.5
			c-2.1-4.2-0.7-9.2,3.5-11.6c1.4-0.7,33.2-16.9,76.5,1.4c4.2,1.8,6.3,6.7,4.6,11.3C4206.5,1760.7,4203.3,1762.8,4200.1,1762.8z"/>
	</g>
	<g>
		<path class="st4" d="M4635.7,1663l-2.1-4.2c34.9-17.6,26.1-56.1,25.7-56.4l4.6-1.1C4664.2,1601.7,4674.1,1643.6,4635.7,1663z"/>
	</g>
	<g>
		<path class="st4" d="M4661.1,1714.2c-0.4-0.4-19-28.9-39.1-33.5l1.1-4.6c22.2,4.9,41.3,34.2,42.3,35.6L4661.1,1714.2z"/>
	</g>
</g>
<g class="st13">
	<path class="st21" d="M3653.5,1908.1h-664.4c-19,0-34.6-15.5-34.6-34.6v-383.7c0-19,15.5-34.6,34.6-34.6h664.4
		c19,0,34.6,15.5,34.6,34.6v383.7C3688.1,1892.6,3672.5,1908.1,3653.5,1908.1z"/>
</g>
<g>
	<path class="st6" d="M3506.1,1783.6h-664.4c-19,0-34.6-15.5-34.6-34.6v-383.7c0-19,15.5-34.6,34.6-34.6h664.4
		c19,0,34.6,15.5,34.6,34.6v383.7C3541,1768.1,3525.1,1783.6,3506.1,1783.6z"/>
</g>
<g>
	<g>
		<g>
			<g>
				<path class="st22" d="M3499.7,2324.3L3499.7,2324.3c-1.8,12-3.2,25-4.6,39.9l0,0c-2.8,30-4.9,66.3-5.6,107.2h-370.3
					c2.1-111.4,13-187.6,13.8-192.6l0,0l30.3,3.9l147.1,18.3l5.6,0.7l7.1,1.1l165.1,20.5L3499.7,2324.3L3499.7,2324.3z"/>
			</g>
		</g>
		<g>
			<path class="st22" d="M3132.2,2278.8c0,0,4.9-235.9,41.6-276.1c36.3-39.9,312.1-9.2,332.9,48c20.5,56.8-6.7,273.7-6.7,273.7
				L3132.2,2278.8z"/>
		</g>
		<g>
			<path class="st14" d="M3294.1,2394.5c-1.8,0-3.5-1.4-3.5-3.2c0-1.1-1.1-25,3.5-51.5c6.3-36.3,20.1-57.8,40.9-63.8
				c76.9-22.9,119.6-68.1,119.9-68.8c1.4-1.4,3.5-1.4,4.9-0.4c1.4,1.4,1.4,3.5,0.4,4.9c-1.8,1.8-44.4,47.3-123.1,70.5
				c-43.7,13-39.5,107.6-39.5,108.3C3298,2392.7,3296.2,2394.5,3294.1,2394.5C3294.5,2394.5,3294.5,2394.5,3294.1,2394.5z"/>
		</g>
	</g>
	<g>
		<path class="st22" d="M3513.8,2104.2c0,0,11.3-365.7-26.5-371.7c-55.4-9.2-77.2,142.5-86.8,252.5
			C3391.5,2094.7,3513.8,2104.2,3513.8,2104.2z"/>
	</g>
	<g>
		<g>
			<path class="st3" d="M3380.2,1899c20.1,3.5,39.9-2.8,49.4,109c4.6,55.7,8.5,231.7-44.1,222.5c-52.5-8.8-70.5-208.1-70.5-208.1
				s1.1,228.5-44.8,204.5c-45.8-24-63.5-204.5-63.5-204.5s13.8,222.5-38.8,193.6c-52.5-28.9-68.8-147.4-64.2-198.2
				c5.6-63.5,51.8-67.4,101.6-70.5c0,0,49-30.3,81.5-24.7C3298.3,1924.7,3341.4,1892.3,3380.2,1899z"/>
		</g>
	</g>
	<g>
		<path class="st22" d="M3495.1,2364.5c0,0,52.2-43,86.8-126.3c34.6-83.6,111.8-165.4,89.6-198.2c-22.2-33.2-132.3,40.6-168.6,115
			C3466.9,2228.7,3495.1,2364.5,3495.1,2364.5z"/>
	</g>
</g>
<g>
	<path class="st6" d="M5058.9,2424.8v72.7c0,26.8-21.9,48.7-48.7,48.7H2637.4c-26.8,0-48.7-21.9-48.7-48.7v-48.3
		C2875.8,2444.6,4497.8,2430.1,5058.9,2424.8z"/>
</g>
<g>
	<g>
		
			<rect x="2743.6" y="2482.3" transform="matrix(1 -5.524713e-03 5.524713e-03 1 -13.7085 21.0947)" class="st0" width="2135.5" height="19"/>
	</g>
</g>
<g>
	<g>
		<polygon class="st23" points="3816.1,2481.9 3813.6,2501 2743.6,2507 2743.6,2487.9 		"/>
	</g>
</g>
<g>
	<path class="st23" d="M3779.4,2491.5c0-17.6,14.1-31.7,31.7-31.7s31.7,14.1,31.7,31.7s-14.1,31.7-31.7,31.7
		S3779.4,2509.1,3779.4,2491.5z"/>
</g>
<g>
	<g>
		<path class="st24" d="M4734.8,1268.7c0-13,10.6-23.6,23.6-23.6s23.6,10.6,23.6,23.6s-10.6,23.6-23.6,23.6
			S4734.8,1281.8,4734.8,1268.7z"/>
	</g>
	<g>
		<path class="st25" d="M4819.8,1268.7c0-13,10.6-23.6,23.6-23.6c13,0,23.6,10.6,23.6,23.6s-10.6,23.6-23.6,23.6
			C4830.4,1292.4,4819.8,1281.8,4819.8,1268.7z"/>
	</g>
	<g>
		<path class="st16" d="M4907.2,1268.7c0-13,10.6-23.6,23.6-23.6s23.6,10.6,23.6,23.6s-10.6,23.6-23.6,23.6
			C4917.5,1292.4,4907.2,1281.8,4907.2,1268.7z"/>
	</g>
</g>
<g>
	<g>
		<path class="st23" d="M3205.9,1632.3l24.3-57.1c3.5-7.8,13-10.6,20.1-5.6l32.4,23.6c7.4,5.3,18,1.8,20.5-6.7l18.7-60
			c2.1-7.1,9.9-11.3,17.3-8.5l18,6.3c5.6,1.8,11.6,0,15.2-4.6l2.8-3.9c7.8-10.2,24-4.9,24,8.1v114.3c0,7.4-6,13.4-13.4,13.4h-167.5
			C3208.8,1651,3202.4,1641.2,3205.9,1632.3z"/>
	</g>
	<g>
		<path class="st15" d="M3409.4,1688.4h-0.4l-499-8.1c-13-0.4-23.6-10.2-24.7-23.3l-10.2-144.9c-0.4-7.1,1.8-13.4,6.3-18.7
			s10.9-8.1,18-8.1l509.3-9.5c6.7,0,13,2.5,18,7.1c4.9,4.6,7.4,10.9,7.4,18v162.9c0,6.7-2.8,13-7.4,18
			C3422.5,1686,3416.1,1688.4,3409.4,1688.4z M3409.4,1480.7h-0.4l-509.3,9.5c-5.6,0-10.6,2.5-14.5,6.7c-3.9,4.2-5.6,9.5-5.3,15.2
			l10.2,144.9c0.7,10.6,9.2,18.7,19.7,18.7l499,8.1c5.6,0,10.6-2.1,14.5-5.6c3.9-3.5,6-8.8,6-14.5v-162.9c0-5.3-2.1-10.6-6-14.5
			C3420,1482.5,3415.1,1480.7,3409.4,1480.7z"/>
	</g>
	<g>
		<path class="st15" d="M3123.1,1596.4h-180.6c-3.9,0-10.2-4.2-10.6-8.1c-1.1-8.1,6.7-10.2,10.6-10.2l180.6,3.9
			c3.9,0,7.1,3.2,7.1,7.1l0,0C3130.1,1593.2,3127,1596.4,3123.1,1596.4z"/>
	</g>
	<g>
		<path class="st15" d="M3076.2,1562.5H2940c-2.8,0-7.8-3.2-8.1-6.3c-0.7-6.3,4.9-8.5,8.1-8.5l136.1,3.2c2.8,0,5.3,2.5,5.3,5.6l0,0
			C3081.5,1560.1,3079,1562.5,3076.2,1562.5z"/>
	</g>
	<g>
		<path class="st15" d="M3076.2,1630.6H2940c-2.8,0-7.8-3.2-8.1-6.3c-0.7-6.3,4.9-8.5,8.1-8.5l136.1,3.2c2.8,0,5.3,2.5,5.3,5.6l0,0
			C3081.5,1628.1,3079,1630.6,3076.2,1630.6z"/>
	</g>
	<g>
		<path class="st15" d="M3074.4,1400.6h-180.6c-3.9,0-10.2-4.2-10.6-8.1c-1.1-8.1,6.7-10.2,10.6-10.2l180.6,3.9
			c3.9,0,7.1,3.2,7.1,7.1l0,0C3081.5,1397.5,3078.3,1400.6,3074.4,1400.6z"/>
	</g>
	<g>
		<path class="st15" d="M3027.5,1434.9h-136.1c-3.2,0-7.8-3.2-8.1-6.3c-0.7-6.3,4.9-8.5,8.1-8.5l136.1,3.2c3.2,0,5.3,2.5,5.3,5.6
			l0,0C3033.1,1432,3030.7,1434.9,3027.5,1434.9z"/>
	</g>
</g>
<g>
	<path class="st3" d="M3408.4,3536.1c12.7,22.9,141.8,222.5,114.6,417.6l-140.4-50.8l-64.2-263.1L3408.4,3536.1z"/>
</g>
<g>
	<path class="st23" d="M2848.3,3454.2c0,0,86.1-154.5,295.9-111.8c209.8,42.7,324.1,343.1,267.3,937.8c0,0-333.3-132.6-766.7-25.7
		C2644.8,4254.5,2716.1,3678.5,2848.3,3454.2z"/>
</g>
<g>
	<path class="st23" d="M2688.2,3391.8l147.4,147.1c0,0,378.1,102.3,483.2,100.9c105.1-1.1,146.4-77.9,146.4-77.9
		s-88.5-140.4-268-203.8c-16.9-6-34.6-11.3-52.9-15.9c-31-7.4-62.4-11.6-93.8-13.8C2864.9,3317.8,2688.2,3391.8,2688.2,3391.8z"/>
</g>
<g>
	<path class="st4" d="M2688.2,3391.8c-23.6,25.7,12.7,53.6,53.6,94.2c40.6,40.6,82.9,64.2,93.8,52.9c11.3-11.3-12.7-53.6-53.6-94.2
		C2741.5,3404.2,2699.2,3379.8,2688.2,3391.8z"/>
</g>
<g>
	<path class="st3" d="M2815.9,3539.6c0,0,2.1-29.3-34.9-67c-22.2-22.6-50.4-37.4-69.5-45.5c-11.3-4.9-24.3,0.7-28.6,12l-12,30.3
		l55,35.3L2815.9,3539.6z"/>
</g>
<g>
	<path class="st5" d="M3076.5,4084.8c0,0-454.9-246.5-617.9,22.6c-120.6,198.9,60.7,384.4,733.6,365.7c0,0,66.7-31,50.4-192.9
		C3236.3,4216,3076.5,4084.8,3076.5,4084.8z"/>
</g>
<g>
	<path class="st5" d="M3076.5,4084.8c0,0,605.9-248.3,725.8-93.1c137.9,178.5,5.6,481-633,372.8l-77.9-84.6L3076.5,4084.8z"/>
</g>
<g>
	<path class="st7" d="M3193.3,4473.8l-1.4-2.1c70.5-50.4,51.5-179.9,50.1-190.8l-459.2-167.2l0.7-2.5l460.6,167.5v0.7
		C3244,4281.3,3267.7,4420.6,3193.3,4473.8z"/>
</g>
<g>
	<path class="st4" d="M3246.5,4324.6c0,0,111.8,4.6,164,30.3c52.5,25.7,24.3,88.5-82.2,86.8s-98.4-17.6-98.4-17.6
		S3250.4,4369.1,3246.5,4324.6z"/>
</g>
<g>
	<g>
		<path class="st3" d="M3103.7,4096.5c37,0,67.4-9.5,92-27.9c46.6-34.9,55-91,48.3-128.4l-44.4-25.7c-2.1-12.3-88.2,33.2-87.8,33.2
			c-0.4,0-40.9,12-181.6-60c-98-50.1-147.4-121-150.9-217.2c-2.8-72.3,29.6-113.2,37-130.8c1.1-2.5-47.3-50.8-45.8-55.7l-36.3-18.3
			c1.1-4.2-34.9-18.3-34.2-19.4l-27.9,24c-13.8,32.1-43,105.4-39.5,206.3c3.9,105.1,47.3,249.7,231.4,343.9
			C2964,4071.1,3042.7,4096.5,3103.7,4096.5z"/>
	</g>
</g>
<g>
	<g>
		<path class="st4" d="M3133.7,4102.5h392.5c8.1,0,15.5-5.3,18-13l81.5-243.7c4.2-12.3-4.9-25-18-25h-377.7
			c-17.3,0-32.4,10.9-37.7,27.2l-76.9,229.6C3111.4,4089.8,3120.6,4102.5,3133.7,4102.5z"/>
	</g>
	<g>
		<path class="st4" d="M3158,4102.5h392.5c8.1,0,15.5-5.3,18-13l81.5-243.7c4.2-12.3-4.9-25-18-25h-377.7
			c-17.3,0-32.4,10.9-37.7,27.2l-76.9,229.6C3135.8,4089.8,3145.3,4102.5,3158,4102.5z"/>
	</g>
	<g>
		<path class="st15" d="M3433.1,3953.6c0-9.2-10.6-13-20.1-13c-9.2,0-24.7,10.2-24.3,23.3c0,14.1,10.9,15.9,20.5,15.9
			S3433.1,3965.6,3433.1,3953.6z"/>
	</g>
	<g>
		<path class="st4" d="M3013.7,4067.9h537.1v34.6h-548.4c-6.3,0-11.6-5.3-11.6-11.6l0,0C2990.8,4078.1,3001,4067.9,3013.7,4067.9z"
			/>
	</g>
	<g>
		<path class="st16" d="M3186.2,3944.1l-2.5-0.7c0.7-2.8,19.4-73.4,32.1-95.9c12.7-22.9,28.6-27.5,29.3-27.9l0.7,2.5
			c0,0-15.5,4.6-27.5,26.5C3205.6,3871.1,3186.2,3943.4,3186.2,3944.1z"/>
	</g>
	<g>
		<path class="st16" d="M3128,4069.3v-2.5c12.7,0,16.2-5.3,16.2-5.3l30.3-91l2.5,0.7l-30.7,91.3
			C3146.3,4063,3142.5,4069.3,3128,4069.3z"/>
	</g>
</g>
<g>
	<path class="st14" d="M2750.7,3885.2c-1.4,0-2.8-0.4-4.2-0.7c-8.5-2.1-17.6-10.6-24.3-22.2l0,0c-9.9-17.3-10.2-35.3-0.7-40.9
		c2.8-1.8,6.7-2.1,10.6-1.1c8.5,2.1,17.6,10.6,24.3,22.2c9.9,17.3,10.2,35.3,0.7,40.9C2755.2,3884.9,2753.1,3885.2,2750.7,3885.2z
		 M2726.7,3860.2c5.6,10.2,14.1,17.6,21.2,19.7c2.8,0.7,4.9,0.7,6.7-0.4c7.1-3.9,5.6-19.7-2.5-34.2c-5.6-10.2-14.1-17.6-21.2-19.7
		c-2.8-0.7-4.9-0.7-6.7,0.4C2717.1,3830.2,2718.2,3845.7,2726.7,3860.2L2726.7,3860.2z"/>
</g>
<g>
	<path class="st3" d="M3047.2,3328.3c25.7-0.7,45.5-3.5,60.3-20.8l45.8-54l13.4-15.9l78.6-92.4l-41.3,108.3l-24.7,64.9l-7.8,20.5
		c-5.3,14.1,1.8,20.5,6.7,36.7c2.1,6.7,15.5,47.3-19.7,47.6C3114.6,3423.6,3059.2,3372.4,3047.2,3328.3
		C3046.9,3328.3,3046.9,3328.3,3047.2,3328.3z"/>
</g>
<g>
	<path class="st4" d="M3140.7,3219c0,0-86.4-83.2-36.7-153.4c50.1-70.2,62.4,112.5,62.4,112.5l-14.1,42.3L3140.7,3219z"/>
</g>
<g>
	<path class="st4" d="M3153.8,3251.8c0,0.7-0.4,1.4-0.4,1.8c-8.1,36.3,25.7,64.9,25.7,64.9h0.4l24.7-64.9
		c-10.6-7.8-26.1-17.3-37.4-15.5C3160.8,3238.8,3156.2,3242.6,3153.8,3251.8z"/>
</g>
<g>
	<path class="st3" d="M3337.1,3206.7c19.4-64.9-8.1-130.8-61.4-147.4c-53.3-16.2-112.5,22.9-131.9,88.2
		c-19.4,64.9,8.1,130.8,61.4,147.4C3258.5,3311.1,3317.4,3271.6,3337.1,3206.7z"/>
</g>
<g>
	<path class="st4" d="M3161.9,3137.9c0,0,27.5,20.1,50.8,3.2c23.3-16.9,39.5-33.2,91-7.1c51.8,26.1,108.3,14.5,118.9-14.8
		c10.6-29.3-14.1-51.8-46.6-50.4c-32.4,1.4,6.7-16.2-15.9-47.3c-22.6-30.7-80.1,1.1-108.3-14.5c-28.6-15.2-129.8-28.6-147.8,58.2
		L3161.9,3137.9z"/>
</g>
<g>
	<path class="st3" d="M3140.4,3155.2c6.7,10.2,19.4,13.8,28.6,7.8c9.2-6,10.9-19,4.2-29.3c-6.7-10.2-19.4-13.8-28.6-7.8
		C3135.8,3131.9,3133.7,3145,3140.4,3155.2z"/>
</g>
<g>
	<path class="st9" d="M3365.4,3109c-21.9,0-51.1-26.5-52.5-27.9l2.5-2.8c0.4,0.4,34.9,31.4,54.7,26.1c7.8-1.8,12-5.6,11.3-9.5
		c-0.7-3.9-6-7.1-13.8-6.3c-16.9,1.8-26.1-3.9-26.5-4.2l2.1-3.2c0,0,8.5,5.3,24,3.5c10.2-1.1,16.9,4.2,18,9.5
		c0.7,4.6-2.5,10.9-14.1,13.8C3369.2,3108.6,3367.5,3109,3365.4,3109z"/>
</g>
<g>
	<path class="st9" d="M3276.1,3036.3c-7.1,0-14.5-1.1-21.5-3.9c-9.2-3.5-16.9-7.8-24.3-11.6c-14.8-7.8-27.5-14.5-41.3-11.6l-0.7-3.9
		c15.2-2.8,28.2,3.9,43.7,12c7.4,3.9,15.2,8.1,24,11.6c26.5,10.2,57.1-4.6,58.9-6.3l2.8,2.5
		C3316,3027.2,3296.9,3036.3,3276.1,3036.3z"/>
</g>
<g>
	<path class="st9" d="M3130.1,3061c-0.7,0-1.1,0-1.4-0.4c-1.4-0.4-3.2-2.1-2.1-6.7l0.4-0.7c2.1-3.2,13-18,20.8-13
		c1.1,0.7,3.2,2.5,1.1,6.3C3146,3051.9,3136.1,3061,3130.1,3061z M3130.1,3055.4c-0.4,1.4,0,1.8,0,1.8c1.1,0.4,6.3-2.1,11.6-7.8
		c3.5-3.9,3.9-5.6,3.9-6C3142.5,3041.6,3134.7,3049.4,3130.1,3055.4z"/>
</g>
<g>
	<g>
		<path class="st10" d="M3259.9,3180.2c0.7,0,1.1-0.4,1.4-1.1c0.7-1.1,0.4-2.1-0.7-2.8c-0.7-0.4-13.4-9.2-27.2,2.5
			c-0.7,0.7-1.1,2.1-0.4,2.8c0.7,1.1,1.8,0.7,2.8,0.4c10.2-5.3,21.9-2.5,22.6-2.1C3258.9,3180.2,3259.2,3180.2,3259.9,3180.2z"/>
	</g>
</g>
<g>
	<path class="st10" d="M3240.9,3200.7c-0.7,4.9,1.4,9.2,4.9,9.9c3.5,0.7,7.1-2.8,7.8-7.8s-1.4-9.2-4.9-9.9
		C3245.1,3192.2,3241.6,3195.7,3240.9,3200.7z"/>
</g>
<g>
	<g>
		<path class="st10" d="M3331.1,3206c0.4,0,1.1,0,1.4-0.4c0.7-0.7,1.1-2.1,0.4-2.8c-0.4-0.4-6.3-13-20.1-6.3
			c-0.7,0.4-1.4,1.4-1.1,2.5c0.4,1.1,1.1,1.4,1.8,1.1c8.8-1.4,16.2,4.9,16.6,5.3C3330.8,3205.6,3330.8,3206,3331.1,3206z"/>
	</g>
</g>
<g>
	<path class="st10" d="M3305.8,3217.6c-2.5,4.2-2.1,9.2,0.7,10.9c3.2,1.8,7.4,0,10.2-4.2c2.5-4.2,2.1-9.2-0.7-10.9
		C3312.8,3211.6,3308.2,3213.4,3305.8,3217.6z"/>
</g>
<g>
	<g>
		<path class="st7" d="M3246.9,3269.4c-12.3,0-31-3.5-42-23.3c-0.4-0.7,0-1.4,0.7-2.1c0.7-0.4,1.4,0,2.1,0.7
			c16.6,28.9,50.8,20.5,51.1,20.5c0.7-0.4,1.4,0.4,1.8,1.1s-0.4,1.4-1.1,1.8C3259.2,3268,3254.3,3269.4,3246.9,3269.4z"/>
	</g>
	<g>
		<path class="st7" d="M3202.1,3251.5h-0.4c-0.7-0.4-1.1-1.1-1.1-1.8c1.1-3.5,4.2-7.1,9.5-9.9h0.4c0.7-0.4,1.4-0.4,2.1,0.4
			c0.4,0.7,0.4,1.4-0.4,2.1c0,0-0.4,0-0.4,0.4c-5.6,3.2-7.4,6.3-8.1,8.1C3203.5,3250.8,3202.8,3251.5,3202.1,3251.5z"/>
	</g>
</g>
<g>
	
		<rect x="3369.5" y="3554.8" transform="matrix(0.9499 -0.3125 0.3125 0.9499 -953.545 1233.863)" class="st4" width="6.3" height="74.1"/>
</g>
<g>
	<path class="st9" d="M3317,3287.1c-7.4,0-14.1-2.8-19.4-8.1c-17.3-17.3-16.6-56.8,1.8-88.5c11.3-19.4,27.2-32.4,42.3-34.2
		c9.2-1.1,17.3,1.4,23.6,7.8c17.3,17.3,16.6,56.8-1.8,88.5c-11.3,19.4-27.2,32.4-42.3,34.2C3319.9,3287.1,3318.5,3287.1,3317,3287.1
		z M3346,3160.5c-1.1,0-2.5,0-3.5,0.4c-13.8,1.8-28.6,13.8-39.1,32.1c-17.3,30-18.3,67.4-2.5,83.2c5.3,5.3,12.3,7.8,20.1,6.7
		c13.8-1.8,28.6-13.8,39.1-32.1c17.3-30,18.3-67.4,2.5-83.2C3357.6,3162.6,3352,3160.5,3346,3160.5z"/>
</g>
<g class="st12">
	<path class="st9" d="M3196.8,3144.3c-14.8,31.4-10.6,69.8,9.2,85.3c19.7,15.9,48,3.2,62.8-28.6c14.8-31.4,10.6-69.8-9.2-85.3
		C3239.5,3100.2,3211.2,3112.9,3196.8,3144.3z"/>
</g>
<g class="st12">
	<path class="st9" d="M3298,3193.3c-14.8,31.7-12.7,69.8,4.6,85.7c17.3,15.9,43.4,2.8,58.2-28.9c14.8-31.7,12.7-69.8-4.6-85.7
		C3338.9,3148.8,3312.8,3161.5,3298,3193.3z"/>
</g>
<g>
	<path class="st9" d="M3227.8,3238.1c-7.8,0-15.2-2.5-21.5-7.8c-21.9-17.3-26.8-58.2-10.9-92c9.2-19.7,23.6-32.8,39.9-36.7
		c10.9-2.5,21.5-0.4,30.3,6.7c21.9,17.3,26.8,58.2,10.9,92c-9.2,19.7-23.6,32.8-39.9,36.7
		C3233.8,3237.7,3230.6,3238.1,3227.8,3238.1z M3244,3105.1c-2.5,0-4.9,0.4-7.8,1.1c-14.5,3.5-28.2,16.2-36.7,34.6
		c-15.2,31.7-10.9,70.9,9.5,86.8c7.8,6,16.9,8.1,26.5,5.6c14.5-3.5,28.2-16.2,36.7-34.6c15.2-31.7,10.9-70.9-9.5-86.8
		C3257.1,3107.6,3250.7,3105.1,3244,3105.1z"/>
</g>
<g>
	<path class="st9" d="M3300.5,3206.7c-1.1,0-2.5-0.7-3.2-1.4c-0.4-0.4-8.8-10.6-26.8-11.3c-2.1,0-3.9-1.8-3.9-4.2
		c0-2.1,1.8-3.9,4.2-3.9c21.9,0.7,32.4,13.8,32.8,14.5c1.4,1.8,1.1,4.2-0.7,5.6C3302.2,3206.3,3301.5,3206.7,3300.5,3206.7z"/>
</g>
<g>
	<path class="st3" d="M1747.3,2649.5c0,0-162.2,209.5-151.3,371.7c10.9,161.9,203.1,32.4,203.1,32.4l16.6-383.7L1747.3,2649.5z"/>
</g>
<g>
	<path class="st4" d="M1525.1,4100c0,0,1.4,47.6-30,62.8c-31.4,15.2-124.1,32.4-87.5,61c20.8,16.6,114.6,0,141.1-1.4
		c26.5-1.4,52.2,8.8,70.9-10.2c20.8-20.8-6.3-117.1-6.3-117.1s-22.2,13-43,13.8C1540.3,4109.9,1525.1,4100,1525.1,4100z"/>
</g>
<g>
	<path class="st4" d="M1235.2,4099.6c0,0,1.4,47.6-30,62.8c-31.4,15.2-124.1,32.4-87.5,61c20.8,16.6,114.6,0,141.1-1.4
		c26.5-1.4,52.2,8.8,70.9-10.2c20.8-20.8-6.3-117.1-6.3-117.1s-22.2,13-43,13.8C1250.7,4109.5,1235.2,4099.6,1235.2,4099.6z"/>
</g>
<g>
	<g>
		<path class="st20" d="M1200.7,4021c23.6-312.1,29.3-522.7,127.7-657.7c107.9-148.1,397.8-252.9,509.6-259.2
			c182-10.6,268,16.6,268,16.6c136.8,284.3-77.6,322-235.9,329.7c-5.3,0.4-10.6,0.7-15.9,0.7c-95.9,6-266.6,30.3-331.2,125.6
			c-51.1,75.5-86.4,181.3-101.6,454.6c-2.8,52.5-46.9,93.1-99.5,91.7C1322.3,4123.3,1192.2,4133.1,1200.7,4021z"/>
	</g>
</g>
<g>
	<g>
		<path class="st20" d="M1459.2,4036.9c-3.2-312.8-12.7-472.6,81.1-611.2c60.3-89.2,150.9-156.2,269.8-200
			c84.6-31,184.1-50.1,295.9-56.8c182-10.6,264.2-32.8,264.2-32.8c147.4,364-391.8,286.7-532.2,441.9
			c-61,67.7-136.8,196.1-152,469.4c-2.8,52.5-46.9,93.1-99.5,91.7C1586.5,4139.5,1460.2,4151.5,1459.2,4036.9z"/>
	</g>
</g>
<g>
	<path class="st7" d="M1460.2,3729.7h-2.1c0-1.8,9.5-188,40.6-253.2c39.5-82.5,154.5-168.6,273-204.9l0.7,2.1
		c-118.1,36-232.1,121.7-271.6,203.5C1469.4,3542.1,1460.2,3727.9,1460.2,3729.7z"/>
</g>
<g>
	<path class="st6" d="M2240.7,2558.8c0,0-77.6-132.6-256-91.7c-178.8,40.6-251.5,223.2-264.2,661.3c0,0,165.4-6,599.9,137.9
		c51.5,16.9,127,3.5,100.5-84.3C2371.5,3019.1,2323.9,2693.9,2240.7,2558.8z"/>
</g>
<g>
	<path class="st6" d="M2437.1,2597.3l-183.7,34.6c0,0-321.3,94.9-411.2,95.9c-89.9,0.7-127.3-64.9-127.3-64.9
		s72.7-123.1,224.7-181.3c14.1-5.6,29.3-10.2,44.8-14.5c26.5-7.1,53.3-13,80.1-13.4C2367.6,2450.2,2437.1,2597.3,2437.1,2597.3z"/>
</g>
<g>
	<path class="st4" d="M2437.1,2597.3c3.9,14.5-34.6,38.8-86.1,54c-51.5,15.2-96.3,15.9-100.5,1.4c-3.9-14.5,34.6-38.8,86.1-54
		C2388.1,2583.5,2433.2,2582.8,2437.1,2597.3z"/>
</g>
<g>
	<path class="st3" d="M2064,2453.7c-19.7,1.8-38.8-7.4-49.7-23.6l-34.6-51.1l-9.9-14.8l-58.9-87.1l25.7,97l15.5,58.2l4.6,16.6
		c3.5,13.4-3.5,27.5-16.9,32.4h-0.4c-4.9,13.4-10.6,39.1,21.5,43C1998.4,2529.2,2050.2,2490.4,2064,2453.7
		C2064.4,2453.7,2064.4,2453.7,2064,2453.7z"/>
</g>
<g>
	<path class="st4" d="M2019.2,2239.3c0,0-0.7,16.9,14.8,48.3c22.9,45.8-28.6,76.5-45.5,65.6c-2.1-1.4-15.5-84.3-15.5-84.3l15.9-13.8
		L2019.2,2239.3z"/>
</g>
<g>
	<path class="st4" d="M1979.7,2377.2c0,0.7,0,1.1,0.4,1.8c3.5,32.1-27.5,53.6-27.5,53.6h-0.4l-15.5-58.2c9.5-5.6,23.6-12.3,33.2-9.9
		C1974.8,2365.2,1978.7,2369.4,1979.7,2377.2z"/>
</g>
<g>
	<path class="st3" d="M1816.8,2310.9c-12-63.1,19.7-122,70.9-131.9s102.3,33.5,114.3,96.6c12,63.1-19.7,122-70.9,131.9
		C1879.9,2417,1828.8,2374,1816.8,2310.9z"/>
</g>
<g>
	<path class="st4" d="M1856.3,2212.8c3.2,3.2,0,64.5,111.4,57.8c111.4-6.7,21.2-126.3-60-113.9c-116.7,17.6-118.9,98.7-102.3,124.8
		C1821.7,2307.4,1856.3,2212.8,1856.3,2212.8z"/>
</g>
<g>
	<path class="st4" d="M2010,2108.8c0,0-42.7,42,0.7,65.6c43.4,23.6,149.5,17.3,131.2,74.8c-18.3,57.1-28.2,139,24.3,139
		s83.9-9.9,112.1,26.5c28.2,36.3,115.7-6,99.1-52.5c-16.6-46.6,54.3-104,12-141.8s-132.3-60.7-164-114.3
		C2194.1,2051.7,2045,2076,2010,2108.8z"/>
</g>
<g>
	<path class="st4" d="M1951.8,2254.1c0,0,53.3,38.4,46.9,89.2c0,0,20.5-33.2,19-43.7c-1.4-10.6-15.5-47.3-15.5-47.3L1951.8,2254.1z"
		/>
</g>
<g>
	<path class="st3" d="M1992.8,2295.4c-8.5,12-22.9,15.9-32.4,8.5c-9.2-7.4-9.9-22.9-1.4-34.9c8.5-12,22.9-15.9,32.4-8.5
		C2000.9,2267.9,2001.6,2283.4,1992.8,2295.4z"/>
</g>
<g>
	<path class="st9" d="M2276.7,2414.9c-13.8-51.5-44.1-54-76.2-56.4c-12.7-1.1-26.1-2.1-38.4-6c-6-1.8-10.2-5.3-12.3-9.9
		c-5.6-11.6,1.1-30,8.5-51.1c11.3-30.7,23.6-65.9,4.9-93.1c-36.7-52.5-91.7-55-92.4-55c-32.1,2.1-49-1.4-50.8-10.9
		c-1.8-9.5,13-20.1,18.7-22.2c45.1-15.9,97-22.2,172.5,37.4c59.6,46.9,55.4,73.4,50.1,106.9c-1.1,7.4-2.5,15.2-2.8,23.3
		c-0.4,6.7,1.1,11.3,4.2,14.8c7.4,7.8,23.6,7.4,39.1,7.4c20.5-0.4,41.3-0.4,46.9,15.5c4.6,12.7-0.7,27.5-5.6,42
		c-4.9,14.8-9.5,28.9-3.9,38.8c3.9,6.3,12,10.6,24.7,13l-0.7,3.9c-14.1-2.5-22.9-7.4-27.2-14.8c-6.7-11.3-1.8-26.1,3.5-42
		c4.6-13.8,9.5-28.2,5.6-39.5c-4.6-13.4-23.3-13.4-43.4-13c-16.6,0.4-33.5,0.4-42-8.5c-3.9-4.2-5.6-10.2-5.3-17.6
		c0.7-8.5,1.8-16.2,2.8-23.6c4.9-32.1,8.8-57.8-48.7-103.3c-74.1-58.5-124.8-52.2-168.9-37c-5.3,1.8-17.6,11.3-16.2,17.6
		c0.7,3.2,6.7,10.6,46.9,8.1c0.7,0,57.8,2.5,95.6,56.4c20.1,28.9,6.3,66.3-4.6,96.6c-7.4,20.5-13.8,38.1-8.8,48
		c1.8,3.9,5.3,6.3,10.2,7.8c12,3.9,25,4.9,37.7,6c33.5,2.5,65.2,4.9,79.7,59.2L2276.7,2414.9z"/>
</g>
<g>
	<path class="st9" d="M1948.7,2236.5c-34.6,0-56.8-24-57.1-24l2.5-2.5c0.4,0.4,26.8,28.6,66.7,21.9l0.7,3.5
		C1957.1,2236.1,1952.9,2236.5,1948.7,2236.5z"/>
</g>
<g>
	<g>
		<path class="st11" d="M1847.8,2379.7c-7.1,1.4-14.1,0.4-21.2-2.8c-11.3-4.9-20.5-15.2-25.4-27.5c-9.2-23.6-0.4-49,19.7-56.8
			c8.5-3.2,18-2.8,27.2,1.1c11.3,4.9,20.5,15.2,25.4,27.5c9.2,23.6,0.4,49-19.7,56.8C1851.7,2379,1849.6,2379.3,1847.8,2379.7z
			 M1827,2293.3c-1.8,0.4-3.5,0.7-5.3,1.4c-18.7,7.4-26.8,31.4-18.3,54c4.6,12,13.4,21.9,24,26.5c8.5,3.9,17.3,3.9,25.4,1.1
			c18.7-7.4,26.8-31.4,18.3-54c-4.6-12-13.4-21.9-24-26.5C1840.4,2292.5,1833.4,2291.8,1827,2293.3z"/>
	</g>
</g>
<g>
	<g>
		<path class="st11" d="M1934.9,2350c-7.1,1.4-14.1,0.4-21.2-2.8c-11.3-4.9-20.5-15.2-25.4-27.5c-9.2-23.6-0.4-49,19.7-56.8
			c8.5-3.2,18-2.8,27.2,1.1c11.3,4.9,20.5,15.2,25.4,27.5l0,0c9.2,23.6,0.4,49-19.7,56.8C1938.8,2349.3,1936.7,2349.7,1934.9,2350z
			 M1914.1,2263.6c-1.8,0.4-3.5,0.7-5.3,1.4c-18.7,7.4-26.8,31.4-18.3,54c4.6,12,13.4,21.9,24,26.5c8.5,3.9,17.3,3.9,25.4,1.1
			c18.7-7.4,26.8-31.4,18.3-54l0,0c-4.6-12-13.4-21.9-24-26.5C1927.5,2262.9,1920.8,2262.2,1914.1,2263.6z"/>
	</g>
</g>
<g>
	<g>
		<path class="st11" d="M1863,2327.5c-0.4,0-0.7,0-1.1-0.4c-0.4-0.4-0.4-1.1,0-1.8c0.4-0.4,10.9-10.9,32.1-12c0.7,0,1.1,0.4,1.1,1.1
			c0,0.7-0.4,1.1-1.1,1.1c-20.5,0.7-30.7,10.9-30.7,11.3C1863.3,2327.5,1863.3,2327.5,1863,2327.5z"/>
	</g>
</g>
<g>
	<path class="st8" d="M1872.5,2376.8c0,0,31.7-5.3,61.4-22.2c0,0,8.5,30.7-25.4,39.1C1888.7,2398.7,1872.5,2376.8,1872.5,2376.8z"/>
</g>
<g>
	<path class="st9" d="M1872.5,2376.8c0,0,8.8,4.9,26.8,1.4c18-3.5,34.6-24,34.6-24S1897.5,2372.3,1872.5,2376.8z"/>
</g>
<g>
	<g>
		<path class="st10" d="M1900.7,2296.1c-0.7,0-1.4-0.4-1.8-1.1c-0.7-1.1-0.4-2.5,0.7-2.8c0.7-0.4,13.4-10.2,28.6,1.1
			c1.1,0.7,1.1,2.1,0.4,2.8c-0.7,1.1-1.8,1.1-2.8,0.4c-10.9-4.6-22.9-1.1-23.6-0.7C1901.4,2296.1,1901.1,2296.1,1900.7,2296.1z"/>
	</g>
</g>
<g>
	<path class="st10" d="M1921.9,2316.2c1.1,4.9-1.1,9.5-4.6,10.6c-3.5,0.7-7.4-2.5-8.5-7.4c-1.1-4.9,1.1-9.5,4.6-10.6
		C1916.9,2307.7,1920.5,2311.2,1921.9,2316.2z"/>
</g>
<g>
	<g>
		<path class="st10" d="M1827.7,2321.5c-0.7,0.4-1.4,0-1.8-0.4c-1.1-0.7-1.1-2.1-0.7-2.8c0.4-0.7,8.5-14.8,26.5-9.9
			c1.1,0.4,1.8,1.4,1.8,2.5c-0.4,1.1-1.4,1.8-2.5,1.8c-12,0-21.9,7.8-22.2,8.1C1828.4,2321.1,1828.1,2321.1,1827.7,2321.5z"/>
	</g>
</g>
<g>
	<path class="st10" d="M1854.9,2331.7c2.8,4.2,2.8,9.2-0.4,11.3c-3.2,2.1-7.8,0.4-10.9-3.9c-2.8-4.2-2.8-9.2,0.4-11.3
		C1847.1,2326.1,1851.7,2327.8,1854.9,2331.7z"/>
</g>
<g>
	<g>
		<path class="st3" d="M2375.4,2985.9c-66.3,95.6-148.1,148.1-322,179.9l-6.7-111.4c212-77.9,235.6-330.8,224.7-394.6
			c-1.1-6,1.4-12,6.3-15.9c16.2-12.3,58.2-37.7,133.3-39.1c6.7,0,12.7,4.2,14.5,10.9C2456.5,2733.4,2453.3,2873,2375.4,2985.9z"/>
	</g>
</g>
<g class="st12">
	<path class="st14" d="M2308,3019.4c-2.8,0-5.6-0.7-8.5-1.8c-13.8-6-18.7-25.7-10.9-44.1c4.6-10.6,12.3-19,21.5-22.6
		c6-2.5,12.3-2.5,17.6-0.4c13.8,6,18.7,25.7,10.9,44.1l0,0c-4.6,10.6-12.3,19-21.5,22.6C2314.4,3018.7,2311.2,3019.4,2308,3019.4z
		 M2319.7,2954.9c-2.5,0-4.6,0.4-7.1,1.4c-7.4,3.2-14.1,10.2-18,19.4c-6.3,15.5-3.2,31.7,7.4,36.3c3.9,1.8,8.5,1.4,13-0.4
		c7.4-3.2,14.1-10.2,18-19.4l0,0c6.3-15.5,3.2-31.7-7.4-36.3C2323.9,2955.6,2321.8,2954.9,2319.7,2954.9z"/>
</g>
<g>
	<g>
		<path class="st3" d="M2046.7,3054.3c0,0-103.3-6-129.8,16.2c-26.8,22.2-44.1,70.5-24.7,60.3s40.6-30,40.6-30s-43.4,44.8-28.6,50.4
			c14.8,5.6,52.2-33.5,52.2-33.5s-47.3,57.1-31.7,58.2c15.9,0.7,51.5-43,51.5-43s-42,55-23.6,55.4s34.2-45.8,49.4-40.2
			c14.8,5.6,57.5,38.1,77.9-1.4L2046.7,3054.3z"/>
	</g>
	<g>
		<path class="st17" d="M1934.2,3101.6l-2.1-1.4c0.4-0.7,10.9-15.2,22.2-14.8v2.5h-0.4C1944.1,3087.8,1934.2,3101.2,1934.2,3101.6z"
			/>
	</g>
	<g>
		<path class="st17" d="M1957.8,3118.2l-2.1-1.4c0.4-0.7,10.2-14.8,26.1-17.6l0.4,2.5C1967.7,3104,1957.8,3117.8,1957.8,3118.2z"/>
	</g>
	<g>
		<path class="st17" d="M1977.6,3133l-2.1-1.4c0.4-0.7,13-18,25-16.6l-0.4,2.5C1989.6,3116.4,1977.6,3133,1977.6,3133z"/>
	</g>
</g>
<g>
	<g>
		<path class="st4" d="M1935.6,3213h-342.4c-7.1,0-13.4-4.6-15.9-11.3l-71.2-212.7c-3.5-10.6,4.6-21.9,15.9-21.9h329.4
			c15.2,0,28.2,9.5,33.2,23.6l67,200.3C1955,3202.1,1946.9,3213,1935.6,3213z"/>
	</g>
	<g>
		<path class="st4" d="M1914.1,3213h-342.4c-7.1,0-13.4-4.6-15.9-11.3l-71.2-212.7c-3.5-10.6,4.6-21.9,15.9-21.9h329.4
			c15.2,0,28.2,9.5,33.2,23.6l67,200.3C1933.5,3202.1,1925.4,3213,1914.1,3213z"/>
	</g>
	<g>
		<path class="st15" d="M1674.3,3083.2c0-8.1,9.2-11.3,17.3-11.3s21.5,8.8,21.2,20.1c0,12.3-9.5,13.8-17.6,13.8
			C1687,3105.8,1674.3,3093.5,1674.3,3083.2z"/>
	</g>
	<g>
		<path class="st4" d="M2040,3183h-468.7v30h478.6c5.6,0,10.2-4.6,10.2-10.2l0,0C2060.1,3191.9,2051,3183,2040,3183z"/>
	</g>
	<g>
		<path class="st16" d="M1889.8,3074.8c0-0.7-16.9-63.5-27.9-83.2c-10.6-19.4-24-23.3-24-23.3l0.7-2.1c0.7,0,14.1,4.2,25.4,24.3
			c10.9,19.7,27.5,81.1,28.2,83.6L1889.8,3074.8z"/>
	</g>
	<g>
		<path class="st16" d="M1940.6,3184.1c-12.7,0-15.9-5.6-15.9-6l-26.8-80.1l2.1-0.7l26.8,79.7l0,0c0,0,2.8,4.6,14.1,4.6v2.5
			L1940.6,3184.1L1940.6,3184.1z"/>
	</g>
</g>
<g>
	<path class="st20" d="M2466.4,1212c0,0-13.8,120.6,13.8,119.6c27.5-1.1,83.6-52.5,192.9-40.9c109.3,12,243,39.9,328.3-101.2
		c85.3-141.1-98.4-188-98.4-188L2466.4,1212L2466.4,1212z"/>
</g>
<g>
	<polygon class="st5" points="2699.9,1210.2 2145.5,1239.5 2134.9,1214.4 2676.2,838.5 3213.7,791.9 3223.2,814.2 	"/>
</g>
<g>
	<g>
		<path class="st23" d="M2339.1,1644.3c2.8-10.9,13.4-17.3,23.6-14.1c10.2,3.2,16.2,14.5,13.4,25c-2.8,10.9-13.4,17.3-23.6,14.1
			S2336.3,1654.9,2339.1,1644.3L2339.1,1644.3z"/>
	</g>
	<g>
		<path class="st23" d="M2356,1649.6c-20.1-1.4-22.6,190.8-22.6,190.8s13,6.3,19.4,4.9c6.3-1.4,9.5-27.5,9.5-27.5l1.1,27.2
			c0,0,21.9,0.7,29.3-4.9C2392.3,1840.1,2387.4,1652.1,2356,1649.6L2356,1649.6z"/>
	</g>
</g>
<g>
	<path class="st23" d="M2348.6,1635.5l-2.8-392.2c-4.2-35.6,11.6-70.5,41.3-91l240.9-167.5c5.3-3.5,12.7-2.5,16.2,2.8l0,0
		c1.8,2.5,1.1,6.3-1.4,8.1l-255.3,177.7c-19.7,13.8-30.3,37-27.5,60.7l3.2,405.9L2348.6,1635.5z"/>
</g>
<path class="st6" d="M2911.5,2355.3h-207.4c-23.6,0-43-19.4-43-43v-284.6c0-23.6,19.4-43,43-43h207.4c23.6,0,43,19.4,43,43v284.6
	C2954.5,2336.3,2935.1,2355.3,2911.5,2355.3z"/>
<path class="st15" d="M2899.1,2110.6h-180.6c-3.9,0-10.2-4.2-10.6-8.1c-1.1-8.1,6.7-10.2,10.6-10.2l180.6,3.9c3.9,0,7.1,3.2,7.1,7.1
	l0,0C2906.2,2107,2903,2110.6,2899.1,2110.6z"/>
<path class="st15" d="M2852.2,2076.4h-136.1c-3.2,0-7.8-3.2-8.1-6.3c-0.7-6.3,4.9-8.5,8.1-8.5l136.1,3.2c2.8,0,5.3,2.5,5.3,5.6l0,0
	C2857.9,2073.9,2855.4,2076.4,2852.2,2076.4z"/>
<path class="st15" d="M2852.2,2144.4h-136.1c-3.2,0-7.8-3.2-8.1-6.3c-0.7-6.3,4.9-8.5,8.1-8.5l136.1,3.2c2.8,0,5.3,2.5,5.3,5.6l0,0
	C2857.9,2142,2855.4,2144.4,2852.2,2144.4z"/>
<path class="st15" d="M2899.1,2246.3h-180.6c-3.9,0-10.2-4.2-10.6-8.1c-1.1-8.1,6.7-10.2,10.6-10.2l180.6,3.9c3.9,0,7.1,3.2,7.1,7.1
	l0,0C2906.2,2243.2,2903,2246.3,2899.1,2246.3z"/>
<path class="st15" d="M2852.2,2212.5h-136.1c-3.2,0-7.8-3.2-8.1-6.3c-0.7-6.3,4.9-8.5,8.1-8.5l136.1,3.2c2.8,0,5.3,2.5,5.3,5.6l0,0
	C2857.9,2210,2855.4,2212.5,2852.2,2212.5z"/>
<path class="st15" d="M2852.2,2280.6h-136.1c-3.2,0-7.8-3.2-8.1-6.3c-0.7-6.3,4.9-8.5,8.1-8.5l136.1,3.2c2.8,0,5.3,2.5,5.3,5.6l0,0
	C2857.9,2278.1,2855.4,2280.6,2852.2,2280.6z"/>
</svg>
