<?xml version="1.0" encoding="utf-8"?>
<!-- Generator: Adobe Illustrator 25.2.3, SVG Export Plug-In . SVG Version: 6.00 Build 0)  -->
<svg version="1.1" id="_x2018_лой_x5F_1" xmlns="http://www.w3.org/2000/svg" xmlns:xlink="http://www.w3.org/1999/xlink"
	 x="0px" y="0px" viewBox="0 0 3200 2000" style="enable-background:new 0 0 3200 2000;" xml:space="preserve">
<style type="text/css">
	.st0{display:none;fill:#FFFFFF;}
	.st1{display:none;fill:#F0F7EB;}
	.st2{fill:#BBCCB0;}
	.st3{opacity:0.6;fill:#FFFFFF;}
	.st4{fill:#5F9048;}
	.st5{fill:#DDE7FE;}
	.st6{fill:#F0F7EB;}
	.st7{fill:#F99746;}
	.st8{fill:#ED7D2B;}
	.st9{fill:#B5453C;}
	.st10{fill:#264914;}
	.st11{fill:#FCECDB;}
	.st12{fill:#F4D2B8;}
	.st13{fill:#ED985F;}
	.st14{fill:#FFB27D;}
	.st15{fill:#F9DDBF;}
	.st16{fill:#DD6D22;}
	.st17{fill:#FFFFFF;}
	.st18{fill:#163560;}
	.st19{fill:#EFDECE;}
	.st20{fill:#ED975D;}
	.st21{fill:#233862;}
	.st22{fill:#F2CCAA;}
	.st23{fill:#C65447;}
	.st24{display:none;fill:#2E3552;}
</style>
<rect class="st0" width="3200" height="2000"/>
<path class="st1" d="M336.9,1845.9l903.9-4.7l240.9-0.1l79.8,0l241.4-0.1l1102.9-0.3c0,0,252.3-323.5-17.2-630.7
	c-279.4-318.5-415.2-59.1-501.1-507.5C2171.4-426.1,34.2,230.8,594.8,1191.2C796.6,1537,197.5,1353.2,336.9,1845.9z"/>
<g>
	<g>
		<path class="st2" d="M1168.5,1610.3l-4.9-2.7c-5.2-2.9-7.1-9.4-4.3-14.6l22.5-41c2.9-5.2,9.4-7.1,14.6-4.3l7,3.8
			c1,0.6,1.4,1.8,0.8,2.9c-0.6,1-1.8,1.4-2.9,0.8l-7-3.8c-3.2-1.7-7.2-0.6-8.9,2.6l-22.5,41c-1.7,3.2-0.6,7.2,2.6,8.9l4.9,2.7
			c3.2,1.7,7.2,0.6,8.9-2.6l14.9-27.2c0.6-1,1.8-1.4,2.9-0.8c1,0.6,1.4,1.8,0.8,2.9l-14.9,27.2
			C1180.3,1611.3,1173.7,1613.2,1168.5,1610.3z"/>
	</g>
	<g>
		<path class="st2" d="M1147.6,1653.4l-8.8-4.8c-8.1-4.5-10.9-15.2-6.1-23.9l33.8-61.7c0.6-1,1.8-1.4,2.9-0.8s1.4,1.8,0.8,2.9
			l-33.8,61.7c-3.7,6.7-1.7,14.8,4.4,18.2l8.8,4.8c6.1,3.3,14,0.6,17.7-6.1l38.5-70.2c3.7-6.7,1.7-14.8-4.4-18.2
			c-1-0.6-1.4-1.8-0.8-2.9s1.8-1.4,2.9-0.8c8.1,4.5,10.9,15.2,6.1,23.9l-38.5,70.2C1166.3,1654.4,1155.8,1657.8,1147.6,1653.4z"/>
	</g>
</g>
<path class="st3" d="M1991.7,1382.2H916.2c-26.4,0-47.9-21.4-47.9-47.9V431.7c0-26.4,21.4-47.9,47.9-47.9h1075.5
	c26.4,0,47.9,21.4,47.9,47.9v902.7C2039.6,1360.8,2018.1,1382.2,1991.7,1382.2z"/>
<path class="st4" d="M2039.6,494.6H868.3v-75c0-19.7,16-35.7,35.7-35.7h1099.8c19.7,0,35.7,16,35.7,35.7V494.6z"/>
<g>
	<path class="st5" d="M915.7,438.5c0-7.3,5.9-13.2,13.2-13.2c7.3,0,13.2,5.9,13.2,13.2c0,7.3-5.9,13.2-13.2,13.2
		C921.6,451.8,915.7,445.9,915.7,438.5z"/>
	<path class="st5" d="M971.3,438.5c0-7.3,5.9-13.2,13.2-13.2c7.3,0,13.2,5.9,13.2,13.2c0,7.3-5.9,13.2-13.2,13.2
		C977.2,451.8,971.3,445.9,971.3,438.5z"/>
	<path class="st5" d="M1026.9,438.5c0-7.3,5.9-13.2,13.2-13.2c7.3,0,13.2,5.9,13.2,13.2c0,7.3-5.9,13.2-13.2,13.2
		C1032.8,451.8,1026.9,445.9,1026.9,438.5z"/>
</g>
<rect x="961.1" y="582.5" class="st2" width="332" height="332"/>
<path class="st2" d="M1647.5,607.3h-264.1c-6.9,0-12.5-5.6-12.5-12.5l0,0c0-6.9,5.6-12.5,12.5-12.5h264.1c6.9,0,12.5,5.6,12.5,12.5
	l0,0C1660.1,601.6,1654.4,607.3,1647.5,607.3z"/>
<path class="st2" d="M1963.3,590.4h-264.1c-6.9,0-12.5-5.6-12.5-12.5l0,0c0-6.9,5.6-12.5,12.5-12.5h264.1c6.9,0,12.5,5.6,12.5,12.5
	l0,0C1975.9,584.8,1970.2,590.4,1963.3,590.4z"/>
<g>
	<path class="st6" d="M1699.8,703.9H1379c-4.5,0-8.1-3.6-8.1-8.1l0,0c0-4.5,3.6-8.1,8.1-8.1h320.8c4.5,0,8.1,3.6,8.1,8.1l0,0
		C1707.9,700.2,1704.3,703.9,1699.8,703.9z"/>
	<path class="st6" d="M1821.7,703.9H1737c-4.5,0-8.1-3.6-8.1-8.1l0,0c0-4.5,3.6-8.1,8.1-8.1h84.7c4.5,0,8.1,3.6,8.1,8.1l0,0
		C1829.9,700.2,1826.2,703.9,1821.7,703.9z"/>
	<path class="st6" d="M1500,754.3h-121c-4.5,0-8.1-3.6-8.1-8.1l0,0c0-4.5,3.6-8.1,8.1-8.1h121c4.5,0,8.1,3.6,8.1,8.1l0,0
		C1508.2,750.7,1504.5,754.3,1500,754.3z"/>
	<path class="st6" d="M1696.1,754.3h-165.8c-4.5,0-8.1-3.6-8.1-8.1l0,0c0-4.5,3.6-8.1,8.1-8.1h165.8c4.5,0,8.1,3.6,8.1,8.1l0,0
		C1704.2,750.7,1700.6,754.3,1696.1,754.3z"/>
	<path class="st6" d="M1821.7,754.3H1737c-4.5,0-8.1-3.6-8.1-8.1l0,0c0-4.5,3.6-8.1,8.1-8.1h84.7c4.5,0,8.1,3.6,8.1,8.1l0,0
		C1829.9,750.7,1826.2,754.3,1821.7,754.3z"/>
	<path class="st6" d="M1543.2,797.9H1379c-4.5,0-8.1-3.6-8.1-8.1l0,0c0-4.5,3.6-8.1,8.1-8.1h164.2c4.5,0,8.1,3.6,8.1,8.1l0,0
		C1551.4,794.3,1547.7,797.9,1543.2,797.9z"/>
	<path class="st6" d="M1856.8,797.9h-268.6c-4.5,0-8.1-3.6-8.1-8.1l0,0c0-4.5,3.6-8.1,8.1-8.1h268.6c4.5,0,8.1,3.6,8.1,8.1l0,0
		C1865,794.3,1861.3,797.9,1856.8,797.9z"/>
</g>
<g>
	<path class="st6" d="M1699.8,864.1H1379c-4.5,0-8.1-3.6-8.1-8.1l0,0c0-4.5,3.6-8.1,8.1-8.1h320.8c4.5,0,8.1,3.6,8.1,8.1l0,0
		C1707.9,860.4,1704.3,864.1,1699.8,864.1z"/>
	<path class="st6" d="M1821.7,864.1H1737c-4.5,0-8.1-3.6-8.1-8.1l0,0c0-4.5,3.6-8.1,8.1-8.1h84.7c4.5,0,8.1,3.6,8.1,8.1l0,0
		C1829.9,860.4,1826.2,864.1,1821.7,864.1z"/>
	<path class="st6" d="M1500,914.5h-121c-4.5,0-8.1-3.6-8.1-8.1l0,0c0-4.5,3.6-8.1,8.1-8.1h121c4.5,0,8.1,3.6,8.1,8.1l0,0
		C1508.2,910.9,1504.5,914.5,1500,914.5z"/>
	<path class="st6" d="M1696.1,914.5h-165.8c-4.5,0-8.1-3.6-8.1-8.1l0,0c0-4.5,3.6-8.1,8.1-8.1h165.8c4.5,0,8.1,3.6,8.1,8.1l0,0
		C1704.2,910.9,1700.6,914.5,1696.1,914.5z"/>
</g>
<g>
	<path class="st4" d="M1110,632h34.3l92.6,212h-39.1l-21.4-50.8h-99.6l-21.7,50.8h-37.9L1110,632z M1162.9,760.4l-36.4-84.2
		l-36.1,84.2H1162.9z"/>
</g>
<rect x="961.1" y="981.4" class="st7" width="185.5" height="35.8"/>
<rect x="961.1" y="1017.2" class="st8" width="185.5" height="35.8"/>
<rect x="961.1" y="1053" class="st4" width="185.5" height="35.8"/>
<g>
	<path class="st2" d="M1283.2,1001.7h-102c-4.3,0-7.7-3.5-7.7-7.7l0,0c0-4.3,3.5-7.7,7.7-7.7h102c4.3,0,7.7,3.5,7.7,7.7l0,0
		C1291,998.2,1287.5,1001.7,1283.2,1001.7z"/>
	<path class="st2" d="M1248.9,1028.9h-67.7c-4.3,0-7.7-3.5-7.7-7.7l0,0c0-4.3,3.5-7.7,7.7-7.7h67.7c4.3,0,7.7,3.5,7.7,7.7l0,0
		C1256.6,1025.5,1253.1,1028.9,1248.9,1028.9z"/>
</g>
<rect x="961.1" y="1166.5" class="st7" width="185.5" height="73.2"/>
<rect x="961.1" y="1221.6" class="st9" width="185.5" height="52.3"/>
<polygon class="st4" points="961.1,1166.5 1027.7,1222.4 961.1,1273.9 "/>
<g>
	<path class="st2" d="M1283.2,1186.8h-102c-4.3,0-7.7-3.5-7.7-7.7l0,0c0-4.3,3.5-7.7,7.7-7.7h102c4.3,0,7.7,3.5,7.7,7.7l0,0
		C1291,1183.3,1287.5,1186.8,1283.2,1186.8z"/>
	<path class="st2" d="M1248.9,1214h-67.7c-4.3,0-7.7-3.5-7.7-7.7l0,0c0-4.3,3.5-7.7,7.7-7.7h67.7c4.3,0,7.7,3.5,7.7,7.7l0,0
		C1256.6,1210.6,1253.1,1214,1248.9,1214z"/>
</g>
<path class="st10" d="M2051.4,474.2c0,0,4.8,57.6-8.3,56.7c-13.1-0.9-39-26.2-91.3-22.1S1835.6,524.4,1797,456
	c-38.6-68.4,49.4-88.1,49.4-88.1L2051.4,474.2L2051.4,474.2z"/>
<polygon class="st4" points="1940.3,470 2203.6,491.7 2209.1,480 1956.6,293.6 1701.6,263.8 1696.7,274.3 1940.3,470 "/>
<g>
	<path class="st7" d="M2119.5,668.3c-1.6-5.4-7.2-8.6-12.6-7c-5.4,1.6-8.6,7.2-7,12.6c1.5,5.4,7.2,8.6,12.6,7
		C2117.9,679.4,2121,673.8,2119.5,668.3L2119.5,668.3z"/>
	<path class="st7" d="M2110.7,671.2c10.6-0.8,13,95.3,13,95.3s-6.9,3.2-10.3,2.5c-3.4-0.8-5.1-13.7-5.1-13.7l-0.3,13.6
		c0,0-11.6,0.4-15.6-2.4C2092.4,766.4,2094,672.5,2110.7,671.2L2110.7,671.2z"/>
</g>
<polygon class="st7" points="2114.2,673.3 2112.3,463.4 2110.9,462.4 1973.3,360.6 1968.4,367.3 2104.6,468 2107.7,673 "/>
<path class="st11" d="M2291.6,1663.9h-578.5v-219.8h580.4c46.9,0,84.9,38,84.9,84.9v48C2378.5,1625,2339.6,1663.9,2291.6,1663.9z"/>
<path class="st2" d="M2874.7,1534.5v33.1c0,17.7-4.4,34.2-12.2,48.4c-15.6,28.6-44.6,47.9-77.8,47.9H1695.3c-7.2,0-13-6.3-13-14v-5
	c0-7.7,5.8-14,13-14h664.1c3.6-4.6,6.7-9.6,9.3-15c6.2-12.5,9.7-26.8,9.7-42v-42c0-7.7-0.9-15.2-2.7-22.4
	c-3-12.1-8.3-23.2-15.4-32.6h-665.1c-7.2,0-13-6.3-13-14v-4.9c0-7.7,5.8-14,13-14h1094.9c38.6,0,71.1,27.7,81.2,65.5
	C2873.6,1517.5,2874.7,1525.9,2874.7,1534.5z"/>
<path class="st10" d="M2871.5,1509.6h-495.7c-3-12.1-8.3-23.2-15.4-32.6h-665.1c-7.2,0-13-6.3-13-14v-4.9c0-7.7,5.8-14,13-14h1094.9
	C2828.8,1444.1,2861.4,1471.8,2871.5,1509.6z"/>
<polygon class="st12" points="1713.1,1554 1793.8,1557.7 1713.1,1559.9 "/>
<polygon class="st12" points="1713.1,1588.5 1905,1592.2 1713.1,1594.4 "/>
<g>
	<g>
		<path class="st7" d="M1628.6,1834.4h567.9v-171h-572.9c-42.5,0-77,34.5-77,77v11.9C1546.6,1797.6,1583.3,1834.4,1628.6,1834.4z"/>
		<path class="st11" d="M2169.1,1834.4h647.2v-171h-649c-43.3,0-78.3,35.1-78.3,78.3v12.5C2089,1798.5,2124.9,1834.4,2169.1,1834.4z
			"/>
		<path class="st7" d="M2046.3,1834.4h791.9c6.6,0,11.9-5.3,11.9-11.9v-1.8c0-6.6-5.3-11.9-11.9-11.9h-791.9
			c-6.6,0-11.9,5.3-11.9,11.9v1.8C2034.4,1829,2039.7,1834.4,2046.3,1834.4z"/>
		<path class="st7" d="M2046.3,1689h791.9c6.6,0,11.9-5.3,11.9-11.9v-1.8c0-6.6-5.3-11.9-11.9-11.9h-791.9
			c-6.6,0-11.9,5.3-11.9,11.9v1.8C2034.4,1683.7,2039.7,1689,2046.3,1689z"/>
	</g>
	<polygon class="st12" points="2816.3,1748.9 2728.2,1751.8 2816.3,1753.5 	"/>
	<polygon class="st12" points="2816.3,1709.6 2606.6,1712.4 2816.3,1714.2 	"/>
</g>
<path class="st2" d="M2608.7,1711.9c0,0,9,7.3,12,19.4c0.5,2.1,0.9,4.4,0.9,6.8c0.5,16,0,52.3,0,52.3l26.5-18.2l26.5,18.2v-49.2
	c0-9.3-2.3-18.4-6.5-24.3c-2-2.9-4.5-5-7.3-5H2608.7z"/>
<path class="st4" d="M2608.7,1711.9c0,0,9,7.3,12,19.4l53.2,0.7c0,0-2.1-17.3-13.1-20.1H2608.7z"/>
<path class="st11" d="M2126.1,1444.5h-558.9v-251.2h561c49.6,0,89.8,40.2,89.8,89.8v69.5C2217.9,1403.4,2176.8,1444.5,2126.1,1444.5
	z"/>
<path class="st2" d="M2218.3,1290.8v54.1c-0.1,23.1-10.8,43.1-26.6,53.8c-7.7,5.3-16.7,8.3-26.2,8.3H1550c-7.2,0-13.1,7-13.1,15.6
	v6.4c0,8.6,5.8,15.6,13.1,15.6h1063.2c30.5,0,57.5-18.1,73.8-45.8c10.3-17.5,16.3-38.7,16.3-61.7v-42.7c0-15.7-3-30.6-8.4-43.9
	c-13.7-33.8-42.6-57.1-76.2-57.1H1550c-7.2,0-13.1,7-13.1,15.6v6.4c0,8.6,5.8,15.6,13.1,15.6h617.3c14.8,0,28.1,7.5,37.4,19.5
	C2213.1,1261.1,2218.2,1275.2,2218.3,1290.8z"/>
<path class="st10" d="M1537,1422.6v6.4c0,8.6,5.8,15.6,13.1,15.6h1063.2c30.5,0,57.5-18.1,73.8-45.8h-495.3
	c-7.7,5.3-16.7,8.3-26.2,8.3H1550C1542.8,1407,1537,1414,1537,1422.6z"/>
<polygon class="st12" points="1567.2,1319 1646.1,1323.2 1567.2,1325.7 "/>
<polygon class="st12" points="1567.2,1261.2 1754.9,1265.4 1567.2,1267.9 "/>
<g>
	<path class="st7" d="M1752.9,1264.5c0,0-12.4,8-16.5,21.1c-0.7,2.3-1.2,4.7-1.3,7.3c-0.7,17.4,0,56.8,0,56.8l-36.6-19.7l-36.5,19.7
		v-53.4c0-10.1,3.1-19.9,8.9-26.3c2.8-3.1,6.2-5.5,10.1-5.5H1752.9z"/>
	<path class="st8" d="M1752.9,1264.5c0,0-12.4,8-16.5,21.1l-73.3,0.8c0,0,2.9-18.7,18-21.8H1752.9z"/>
</g>
<path class="st13" d="M818.7,1422.3c0,0,114.6,49.9,135.4,49c20.8-0.9,148.9-39,148.9-39l-3.3,22c0,0-98.9,56.9-133.5,60.1
	c-34,3.2-150.4-30.5-161.7-37.7C793.4,1469.7,786,1429.5,818.7,1422.3z"/>
<path class="st10" d="M801.5,1238.7c0,0-42.3-8-63.3,7.3c-38.1,27.8-40.2,123.8-54.5,138.1c-14.3,14.3-48.7,8.2-51.8,82.2
	c-3.1,74,13.7,80.2-6.3,113.2c-20,33,8.5,66.1,8.5,66.1s-11.6-18.2-6.7-31.4c0,0,4.8,29,23.3,35.9c18.5,6.8,21.2,11.8,24.1,21.8
	c0,0,157.4-80.7,157.6-137.9s31-113.9,15.9-138.7c0,0,6.7,10.6,7.6,22.4c0,0,9.1-17.4-6.7-33.6c-15.7-16.2,18.5-49.7,13.4-88.5
	C859.1,1269.1,840.4,1239.9,801.5,1238.7z"/>
<path class="st14" d="M832.6,1476.8c-10.1,7-22.7,12.7-38.5,16.4c-59.4,13.7-82.1-36.5-90.7-70.9c8.1-4.6,15.7-5.7,20.1-6.2
	c4.3-0.5,8.8-0.8,12.5-1c6.7-5.1,16.6-26,18.8-58.5l2.8,0.7l46.8,12.8c0,0-2.1,14.9-3.2,28.9c-0.8,11-0.9,21.5,1.1,24.1
	c3.7,0.8,5.8,1.3,5.8,1.3s0,0,0,0C808.9,1425.6,822.5,1448,832.6,1476.8z"/>
<path class="st13" d="M804.5,1370.2c0,0-2.2,14.9-3.2,28.9c-26.5-2.7-38.8-27.9-43.6-41.7L804.5,1370.2z"/>
<path class="st14" d="M812.4,1384.2c0,0-62.9-3.5-60.2-42.6c2.8-39.2-3.5-66,36.8-65.4c40.3,0.6,47,16.1,49.3,29.3
	C840.6,1318.8,828.8,1384.1,812.4,1384.2z"/>
<path class="st10" d="M838,1283.6c-8.9-12.5-16.4-10.4-20.8-7.2c-33-21.3-57.1,5-57.1,5c-6.2,27.8-27.6,42.4-27.6,42.4
	s10.9,7.9,37.8,3c8.2-1.5,15.8-6.7,22.4-13.2c-12,17.1-27.4,29-27.4,29c32.6-12.3,48.4-55.3,50-59.8c3.6,3.7,10.6,11.7,12.4,19.2
	c2.4,10.2,12.8,26.1,18.9,25.9C846.6,1327.9,851.3,1302.3,838,1283.6z"/>
<path class="st15" d="M685.5,1604.8c-5.7-29-24.2-145.1-5.7-182.4c6.7-13.4,32.8-14.6,61.4-13.4c8.9,5.8,42.9,27.5,56.8,24.8
	c0.1,0,0.4-0.1,0.8-0.2c6.6-1.6,9.1-6.3,3.6-10.2c0,0,14.2-1.4,31.8,1.9c10,1.9,36.8,15.8,36.8,15.8s-13.5,24.4-33.4,32.8
	c3.4,30.3-1.7,43.7-33.1,113.7c-26.6,59.2,3.6,112.5,3.6,112.5s-156.5,125.8-157.3,61.7C650.1,1713.5,692.8,1641.9,685.5,1604.8z"/>
<path class="st16" d="M815.8,1836.8c8.5-1,16.2-5.6,20.9-12.7c0.8-1.1,1.6-2.3,2.4-3.6c17.8-27,24.7-109.5,64.8-197.5
	c9.8-21.4,44.8-25.3,54.3-49.5c0,0,23.5-78.5-45-80.8c-68.5-2.3-183.4,218.3-185.3,241.5C726.3,1756.6,682.7,1851.8,815.8,1836.8z"
	/>
<path class="st10" d="M1088,1835h-97.5c0,0-3.6-15.5,2.8-26.1c5.7-9.4,3.5-14.7-0.7-22.4c4.4,1.8,10.1,3.5,16.4,3.1
	c4.9-0.3,10-2.5,14.5-5.1c4.2,4.8,22.2,25.1,27.8,29.2C1057.7,1818.2,1086.1,1816.5,1088,1835z"/>
<path class="st8" d="M960.5,1515.4c5.9,44,28.8,182.9,69.2,250.7c13,21.8-32.8,34.1-33.1,34c-6.2-1.6-16.4-11.4-21.1-15.7
	c-32.8-29.6-99.5-113.4-99.5-180.5c0-32.8-0.6-95.3,23.2-111.2C913.9,1482.9,958.2,1497.9,960.5,1515.4z"/>
<path class="st7" d="M757.7,1835c0,0,3.6-5,9.9-14.6c7.5-11.4,15.8-33.7,25.9-62.4c10.6-30.1,23.1-67.1,38.8-105.6
	c4.8-11.9,10-23.9,15.4-35.9c9.8-21.4,36.6-18.5,46.1-42.7c0,0,37.3-83.9-31.2-86.2c-68.5-2.3-198.7,224.5-206.1,246.5
	C648.3,1758.2,608.3,1858,757.7,1835z"/>
<path class="st4" d="M1016.5,1835H919c0,0-3.6-15.5,2.8-26.1c5.7-9.4,3.5-14.7-0.7-22.4c4.4,1.8,10.1,3.5,16.4,3.1
	c4.9-0.3,10-2.5,14.5-5.1c4.2,4.8,22.2,25.1,27.8,29.2C986.1,1818.2,1014.5,1816.5,1016.5,1835z"/>
<path class="st8" d="M793.4,1758.1c10.6-30.1,23.1-67.1,38.8-105.6c-4.1-29.2-12.9-54.7-27.8-65
	C804.5,1587.5,768.4,1699.1,793.4,1758.1z"/>
<path class="st7" d="M903.6,1512.2c5.9,44,14.1,186,54.6,253.8c13,21.8-32.8,34.1-33.1,34c-6.2-1.6-16.4-11.4-21.1-15.7
	c-32.8-29.6-99.5-113.4-99.5-180.5c0-32.8,38.4-92.7,62.3-108.6C881.4,1485.5,901.3,1494.8,903.6,1512.2z"/>
<path class="st17" d="M824.2,1361.7c0,0-5.9-2.4-22.7-1c0,0,0.9,6.5,13.2,7.2C821.7,1368.2,824.2,1361.7,824.2,1361.7z"/>
<polygon class="st18" points="1115.2,1386.2 1095,1349.7 1051.3,1471.7 1077.1,1499.4 "/>
<polygon class="st10" points="1009.7,1407.6 969,1523.7 1077.1,1499.4 1115.2,1386.2 "/>
<polygon class="st19" points="971.2,1517.8 969.3,1514.5 1007.8,1404.6 1009.7,1407.6 "/>
<polygon class="st11" points="1007.8,1404.6 1110.2,1384.7 1115.2,1386.2 1009.7,1407.6 "/>
<polygon class="st19" points="1115.2,1386.2 1093.4,1351.5 1079.4,1390.7 1110.2,1384.7 "/>
<path class="st14" d="M1040.9,1424.4c-3.5-0.7-11.1-3.5-18.7-5.6c2.3-1.8,4.8-3.9,5.5-6.2c1.4-4.3,2.3-5.7-2.3-4.3
	c-4.5,1.4-20.4,8.6-20.4,8.6s0,0,0,0c-9,2.6-17.3,15.4-17.3,15.4s-111.7,39.3-125.1,39.9c-20.8,1-159.2-49.9-159.2-49.9
	c-32.7,7.2-25.3,47.3-14.1,54.5s110.8,43.3,169.8,44c29.9,0.3,138.6-69.5,138.6-69.5s12.7-5.8,22.7-4s33.1,0,38.1-8.2
	C1063.6,1430.9,1046.8,1425.5,1040.9,1424.4z"/>
<path class="st15" d="M774.7,1447.5c0,0-12.4,39.2-54.9,48.1c0,0-70.2-21.6-35.2-69.4C684.6,1426.1,719.1,1400.4,774.7,1447.5z"/>
<path class="st14" d="M1113.4,1427.3L1113.4,1427.3c0-1.1-0.1-2.1-0.4-3.2c0,0-10-15.8-13.3-16.5c-10-2-10,11.2-7.9,19.7
	c1.5,5.9,5.2,11.6,8.3,14.6l0,0l-0.4,12.4C1116.6,1445.1,1113.4,1427.3,1113.4,1427.3z"/>
<path class="st2" d="M2222.2,924.1c3.6-90.3-72-130.4-149.4-130.4c-77.4,0-161.6,20-168.9,140.1c-4.7,77.2,36.5,124.8,155,124.8
	c40,0,71.1-6.3,94.9-17.6l59.3,52.7l-29.1-72.8C2209.8,996.9,2220.6,963.1,2222.2,924.1z"/>
<path class="st10" d="M2198.1,1400.5c18.4,32.5,41.7,45.1,41.7,45.1l97.3,0.7C2337,1446.3,2184.1,1375.7,2198.1,1400.5z"/>
<path class="st14" d="M2271.1,1651.3c2.5,2.9,2.8,6.2,1.5,9.6c0,0,0,0,0,0c-2.4,6.4-10.1,13.5-19,20.6c-1.1,0.9-2.2,1.7-3,2.5
	c-0.2,0.2-0.5,0.4-0.7,0.6c-0.2,0.2-0.4,0.3-0.5,0.5c-8.4,7.6-5.2,9.4-20.3,24.8c-17.1,17.6-28.8,17.8-32.2,16.2
	c-2.8-1.4,3-10.7,9.4-21.2c0.3-0.5,0.6-1,0.9-1.5c0.9-1.4,1.7-2.8,2.6-4.2c7.5-12.6,5.7-18.6,4-37.5c-1.3-15.4-23.3-85.9-23.3-85.9
	l32.6-5.4c0,0,9.4,56.1,20.2,64.9c5.8,4.6,12.2,4.7,17.8,8.2c0.4,0.2,0.8,0.5,1.2,0.7C2265.3,1646.2,2268.5,1648.4,2271.1,1651.3z"
	/>
<path class="st10" d="M2271.1,1651.3c2.5,2.9,2.8,6.2,1.5,9.6c0,0,0,0,0,0c-2.9,6.4-10.4,13.5-19.1,20.5c-1.1,0.9-2.1,1.8-3,2.6
	c-0.2,0.2-0.5,0.4-0.7,0.6c-0.2,0.2-0.4,0.3-0.5,0.5c-8.4,7.6-5.2,9.4-20.3,24.8c-17.1,17.6-28.8,17.8-32.2,16.2
	c-2.8-1.4,3-10.7,9.4-21.2c3.3-1.2,18.7-7.3,30.5-22.1c10.3-13,17.3-29.7,24.3-39.4c0.4,0.2,0.8,0.5,1.2,0.7
	C2265.3,1646.2,2268.5,1648.4,2271.1,1651.3z"/>
<path class="st14" d="M2008.4,1629.1c-2.1,10-16.4,8.3-32.4,4.2c-16-4-12.2,0.7-35-2c-22.8-2.7-29.6-11.2-30.3-14.6
	c-0.6-3,10.7-4,22.8-5.3c1.5-0.2,3-0.3,4.6-0.5c13.7-1.6,23.7-10.3,36.2-17.5c11.8-6.8,29.5-34.5,29.5-34.5l31.3,2.7
	c0,0-16.6,24.8-23,35.6c-3.8,6.3-3.6,14.8-3.2,21.3C2008.9,1622,2009.2,1625.6,2008.4,1629.1z"/>
<path class="st10" d="M1976,1633.4c-16-4-12.2,0.7-35-2c-22.8-2.7-29.6-11.2-30.3-14.6c-0.6-3,10.7-4,22.8-5.3l0.1,0.2
	c0,0,13.6,9.8,32.6,10.4c15.5,0.5,31.9-3.8,42.6-3.6c0.2,3.5,0.4,7.2-0.3,10.7C2006.3,1639.2,1992,1637.4,1976,1633.4z"/>
<path class="st10" d="M2129.7,1430l28.7,78.9l37.4,103c0,0,10.3,1.1,20.3-1.7c9.1-2.6,19.7-9.4,19.7-9.4s-9.8-110.3-29.1-173.8
	c-5-16.3-10.5-29.5-16.7-36.9C2159.5,1353.6,2129.7,1430,2129.7,1430z"/>
<path class="st4" d="M2160.3,1305.3c19.2-6,73.8,2.3,128.5,13.4l11.6-18.9l118.6-8.4c0,0,38.5,87,16.7,142.1
	c-3.2,8.1-11,11.5-21.7,11.6c0,0,0,0,0,0c0,0-70.7,1.2-93.6,1.1c-58.9-0.4-124.4-41.4-132.9-43.2c-13.9-2.9-19.7,24.9-33.8,54.1
	c-14.1,29.2-131.9,128.6-131.9,128.6s-18,0.1-25.4-2.8c-8-3.1-10.9-7-10.9-7S2117,1318.9,2160.3,1305.3z"/>
<path class="st10" d="M2302.3,1136.6c42,23.5,127.3,72.3,127.8,72c0,0,31.4,12.1,49.3,0.3c29.9-19.5,46.2-72.6-7.9-118.8
	c-27-23-46.2-28.7-48.9-65.2c-1.4-19.8-28-85.2-73-79.5c-3.8,0.5-7.5,0.8-11.3,0.7c-5.2-0.2-13.9,0.5-22.8,5.7
	C2289.9,966.9,2239.1,1127.2,2302.3,1136.6z"/>
<path class="st14" d="M2337.8,1117.1c-0.2,0.1,20.7,7.4,34.8,1.3c13.2-5.7,23.4-27.3,23.2-27.4c-6-0.3-12.5-5.6-17.4-40l-2.6,0.9
	l-43,15.1c0,0,3,13.8,4.9,26.9C2339.3,1105,2340.1,1115.6,2337.8,1117.1z"/>
<path class="st20" d="M2332.8,1067.1c0,0,1.8,9.7,4.4,23.5c24.7-4.3,35.1-25.3,38.6-38.6L2332.8,1067.1z"/>
<path class="st14" d="M2326.3,1080.7c0,0,58.8-7.5,53.6-44c-5.2-36.5-1.1-62.1-38.9-58.9c-37.7,3.2-43,18.2-44.3,30.8
	C2295.5,1021.3,2310.8,1081.7,2326.3,1080.7z"/>
<path class="st10" d="M2299,988.7c0,0,37.4,32.7,62.9,35.5c25.6,2.8,35.3-5.3,35.3-5.3s-15-12.6-23.9-32.9
	c-2.6-6-8.2-10.1-14.7-10.7C2340.3,973.5,2305.7,972.5,2299,988.7z"/>
<path class="st21" d="M2322.5,985.9c0,0-12.7,12.1-16.7,21.1c-3.9,8.7-5.2,29.5-2.2,37.8c0,0-19.3-38.2-8.1-56.7
	C2307.4,968.5,2322.5,985.9,2322.5,985.9z"/>
<path class="st15" d="M2287.7,1203.3c0.9,118.9-0.2,94,12.7,105.4c3.1,2.7,11.9,4.4,23.5,5.3c36.4,2.7,100.5-2.9,103-9.6
	c8.6-23.2,2.7-30.5,10-66.2c0.8-3.8,1.7-7.9,2.8-12.4c6-24.5,11.8-32.8-8.7-72.3c-18.6-35.8-37.9-64.9-39.7-63.9
	c-49.9,29.1-53.7,4.3-53.7,4.3S2287.3,1145.3,2287.7,1203.3z"/>
<path class="st4" d="M2158.3,1508.9l37.4,103c0,0,10.3,1.1,20.3-1.7c9.1-2.6,19.7-9.4,19.7-9.4s-9.8-110.3-29.1-173.8L2158.3,1508.9
	z"/>
<path class="st15" d="M2337.7,1094c0,0-51.1,8.3-57.3,30.3c-6.2,22-42.4,151-42.4,151s25.9,4.8,38-7.1s42.5-111,42.5-111
	L2337.7,1094z"/>
<path class="st22" d="M2324,1313.9c36.4,2.7,100.5-2.9,103-9.6c8.6-23.2,2.7-30.5,10-66.2l-17.2-49.6c0,0,2.5,55.1-13.8,69.5
	c-16.3,14.4-66.8,27.5-74.7,39.6C2327.3,1303.5,2324.7,1309.3,2324,1313.9z"/>
<path class="st14" d="M2365.9,1291.1c0,0-35.9-8.3-41.7-5.1c-5.8,3.2-20.1,14.7-21.9,18.7c-1.8,4,12.9-3,17.7-4.2
	c3.1-0.8,11.2,2.1,15.3,3.5c16.9,5.8,27.4,2.9,27.4,2.9L2365.9,1291.1z"/>
<path class="st15" d="M2391.4,1089.7c0,0,48.3,3.3,64.8,26.7c23.3,33,69,173.2,42.1,191.6c-30.3,20.8-137.1,4.5-137.1,4.5
	s-3.4-16.7,1.6-24.7c5-8,85.6-20.4,89.3-24.1c3.7-3.7-45.9-72.8-45.8-83.9C2406.3,1168.7,2391.4,1089.7,2391.4,1089.7z"/>
<path class="st14" d="M2322.4,1295.9c0,0-7.6,9.7-10.1,10.8c-2.5,1.1-4.1,0.8-4.1,0.8l5.1-9.1L2322.4,1295.9z"/>
<path class="st14" d="M2324.2,1285.9l-22,10.5c0,0,0.9,1.5,3.6,1.4c2.7-0.1,9.5-2.5,9.5-2.5L2324.2,1285.9z"/>
<g>
	<g>
		<polygon class="st7" points="2317,1322.4 2143.7,1321.2 2092.5,1191.2 2265.5,1192.4 		"/>
		<polygon class="st8" points="2141.7,1316.1 2370.5,1317.8 2370.5,1322.8 2143.7,1321.2 		"/>
	</g>
	<path class="st17" d="M2187.9,1256.7c-1.3-4.6,1.4-8.2,5.9-8.2c4.6,0,9.3,3.8,10.6,8.3c1.3,4.6-1.4,8.2-5.9,8.2
		S2189.2,1261.3,2187.9,1256.7z"/>
</g>
<rect x="1474.8" y="1520.6" transform="matrix(1.958630e-04 -1 1 1.958630e-04 -257.0573 3310.6179)" class="st23" width="104.7" height="526.5"/>
<path class="st11" d="M1263.8,1836.1l-77.4-33.1l-45-19.3l46.1-19.7l76.3-32.6c0,0,10.2,25.5,10.3,49.5
	C1274.4,1818.5,1263.8,1836.1,1263.8,1836.1z"/>
<path class="st11" d="M1851.6,1766.3l0,33.1c0,20.4-16.5,36.9-36.9,36.8l-24.4,0l0-104.7l26.5,0
	C1836,1731.6,1851.6,1747.1,1851.6,1766.3z"/>
<path class="st10" d="M1187.5,1764.1c1.9,10.6,3.6,26.8-1.1,38.9l-45-19.3L1187.5,1764.1z"/>
<path class="st7" d="M1377,1186.5c0,0,9.4,40.9,36.9,40.9c23.6,0,55.9-53.3,55.9-53.3L1377,1186.5z"/>
<path class="st4" d="M1692.7,1790.9l-17.7,12.1c0,0-84.9-90.5-105.4-177.3c-3.7-15.5-5.1-30.8-3.6-45.3c0,0-1.2-3.9-3.4-10.9
	c-0.1-0.3-0.2-0.6-0.3-0.9c-0.9-3-2.1-6.6-3.4-10.7c-4.1-13.1-9.8-31.1-16.2-51.5c-14.8-47-48.8-153.1-63.3-197.2l104.3-37.7
	c0,0,11.8,27,28.9,100.4c2.6,9.6,5.2,20.2,7.7,31.7c2.8,13.1,5.4,27.4,7.5,42.8c3.7,26.2,6.1,55.6,6.3,87.9
	c0.1,13.1-0.3,26.8-1,40.8c-0.6,10.3,1,24,3.8,39.7C1650,1686.3,1692.7,1790.9,1692.7,1790.9z"/>
<path class="st10" d="M1748.2,1834.5h-84.3c0,0-3.2-13.4,2.4-22.6c4.9-8.1,3-12.7-0.6-19.4c3.8,1.6,8.8,3,14.2,2.7
	c4.2-0.2,8.6-2.1,12.5-4.4c3.6,4.1,19.2,21.7,24,25.2C1721.9,1820,1746.5,1818.6,1748.2,1834.5z"/>
<path class="st10" d="M1627.8,1446.5l-65.5,122.1c-0.9-3-2.1-6.6-3.4-10.7c-4.1-13.1-9.8-31.1-16.2-51.5
	c-14.8-47-48.8-153.1-63.3-197.2l104.3-37.7c0,0,11.8,27,28.9,100.4c2.6,9.6,5.2,20.2,7.7,31.7
	C1623,1416.8,1625.6,1431.1,1627.8,1446.5z"/>
<path class="st10" d="M1477.7,1808.2c0,0-5.8,14.3-0.3,26.4h45.9c0,0,1-10.9-15.7-23.5C1494.9,1801.5,1477.7,1808.2,1477.7,1808.2z"
	/>
<path class="st10" d="M1527.6,876c0-2.3,1.2-26.9,38.6-29.1c0,0-18.4,2.6-21.3,10.8c0,0,12.3-10.3,22.6-7.3
	c10.3,3,16.7,20.7,16.9,26.6c0.2,5.9-5,25-11.4,26.7c-2.4,0.7-5.3,0.6-7.8,0.2c1.8,2.6,3.5,5.6,5.2,8.9c15.7,30.3,2.2,66-10.6,63
	c-8.2-1.9-13.1,12.2-13.1,12.2l-78.5-67.5C1468.1,920.5,1495.6,859.9,1527.6,876z"/>
<path class="st14" d="M1478.3,1081.1c8.7,6,19.6,11,33.3,14.2c51.3,11.9,71-31.5,78.4-61.3c-7-4-13.6-4.9-17.4-5.3
	c-3.7-0.4-7.6-0.7-10.8-0.9c-5.8-4.4-14.4-22.5-16.3-50.5l-2.4,0.6l-40.5,11.1c0,0,1.9,12.9,2.8,25c0.7,9.5,0.8,18.6-1,20.8
	c-3.2,0.7-5.1,1.1-5.1,1.1s0,0,0,0C1498.8,1036.8,1487,1056.1,1478.3,1081.1z"/>
<path class="st13" d="M1502.6,988.9c0,0,1.9,12.9,2.8,25c22.9-2.3,33.6-24.1,37.7-36.1L1502.6,988.9z"/>
<path class="st14" d="M1502.1,1008.2c0,0,52.8-13.6,43.8-46.3c-9-32.7-8.2-56.5-42.2-49.3c-34.1,7.3-37.2,21.6-36.9,33.2
	S1488.2,1010.9,1502.1,1008.2z"/>
<path class="st10" d="M1463.4,927.2c5.4-12.1,12.1-11.6,16.4-9.6c24.4-23.7,49.3-5.4,49.3-5.4c10,22.5,30.6,31.3,30.6,31.3
	s-8,8.5-31.6,8.9c-7.2,0.1-14.6-3-21.3-7.4c13,12.5,28.2,20,28.2,20c-29.7-4.9-50.4-38.7-52.5-42.3c-2.4,3.8-7,11.8-7.3,18.4
	c-0.3,9.1,3.2,26.5-2,27.3C1473.3,968.4,1455.3,945.3,1463.4,927.2z"/>
<path class="st14" d="M1487,1033.1c0,0,88.6-21.5,127.2,10.3l-19.3,268.6l-173.4-41.9c0,0,4.9-17,38.1-62.2
	C1492.9,1162.7,1478.4,1096.4,1487,1033.1z"/>
<path class="st4" d="M1538.6,1282.1c0,0-0.1,0.9-0.3,2.6c-0.1,0.7-0.2,1.6-0.3,2.7c-0.7,7-2.2,20.3-4,37.7
	c-4.8,45.6-12.2,118.7-17.3,176.5c-4,45.2-6.5,80.9-5.1,86.6c4.1,17.3,0,223.7,0,223.7c-14.7,7.1-37.1,0-37.1,0
	s-39.2-186-33.8-211.9c5.5-25.9-3.7-47.9-3.7-47.9c-30.5-141.9-27.1-220.6-21.1-258.2c1.8-11,3.8-18.4,5.2-23
	c1.2-3.9,2.1-5.7,2.1-5.7C1490.6,1247.2,1538.6,1282.1,1538.6,1282.1z"/>
<path class="st7" d="M1626.1,1120c-4.3,32.3-21.4,71.9-27.5,93.2c0,0,10.2,73.9,0.5,94.2c-1.1,2.3-2.5,3.9-4.2,4.7
	c-36.1,15.7-176.9,0.5-182.9-45c-2.2-16.5,53.6-74.5,56.9-81.6c1.4-2.9,2.8-12.4-3.8-31.9c-9.3,28.6-60.4,20.4-60.4,20.4
	c6-10.3,21-81.4,37.7-113.5c12.6-24.1,46.1-27.6,46.1-27.6s14,22.1,47.7,19c33.8-3.1,39.9-23.8,39.9-23.8s29.9,4,39.2,11.4
	C1616.9,1040.8,1631.7,1077.7,1626.1,1120z"/>
<path class="st8" d="M1598.6,1213.2c0,0,10.2,73.9,0.5,94.2c-26.3-13.2-47.1-49-42.3-88.8c3.5-29.4,8.8-36.2,24.6-53
	c11.6-12.4,38.3-13.1,36.2-7.2C1611.3,1175.9,1601.8,1201.9,1598.6,1213.2z"/>
<polygon class="st4" points="1488.6,1125.8 1549,1222.6 1446.3,1222.6 1388.8,1127.9 "/>
<polygon class="st19" points="1545.9,1217.7 1546.9,1214.3 1489.8,1122.7 1488.6,1125.8 "/>
<polygon class="st11" points="1489.8,1122.7 1393,1125.5 1388.8,1127.9 1488.6,1125.8 "/>
<polygon class="st10" points="1388.8,1127.9 1334.5,1098.5 1397.8,1197.8 1446.3,1222.6 "/>
<path class="st14" d="M1676,1195.7c-5.8,2.7-20.7,20.2-26.1,22c-23.9,8-125.9-13.3-125.9-13.3l3.2-17.9c0,0,100,2.7,111-0.3
	c2.1-0.6,12.9-17.5,17-19.9L1676,1195.7z"/>
<path class="st14" d="M1527.2,1186.6c0,0-12.1-9.8-20.2-7.6c-8.2,2.2-20.1,12.5-24.6,15c-4.5,2.4-16.6,11.2-10.4,16.5
	c6.1,5.3,25.2,0.7,32.8-3.3c7.6-4,19.3-2.7,19.3-2.7L1527.2,1186.6z"/>
<path class="st14" d="M1509.3,1178.6c0,0-14.7-1.7-18.7-1.7c-4,0.1-2.9,1-0.7,4.1c2.2,3.1,9.8,4.3,10.2,5.4
	S1509.3,1178.6,1509.3,1178.6z"/>
<path class="st7" d="M1576.1,1028c0,0,43.5,5.2,55.4,23.8c15.1,23.6,50.9,117.5,49.7,141.1c0,0-26.1,44.4-115.7,37.3
	c0,0-9.3-32.9,9.5-43.8c0,0,46-8.2,51.3-12.8l-37.5-68.2L1576.1,1028z"/>
<path class="st14" d="M1402.7,1163.2c-1.3-5.5-13.3-2.1-17.3,1.1c-1,0.8-2,2.1-3.1,3.6c-0.1-0.9-0.2-1.8-0.3-2.5
	c-0.2-2.6-3.2-7.2-4-3.7c-0.7,3.5-2,17.9-2,17.9c-0.1,11.7,7.4,16.5,12.2,12.7S1404,1168.7,1402.7,1163.2z"/>
<path class="st24" d="M2998.5,1843.9H260.1c-1.9,0-3.5-1.6-3.5-3.5v-2.3c0-1.9,1.6-3.5,3.5-3.5h2738.4c1.9,0,3.5,1.6,3.5,3.5v2.3
	C3002.1,1842.3,3000.5,1843.9,2998.5,1843.9z"/>
</svg>
