<svg width="867" height="510" viewBox="0 0 867 510" fill="none" xmlns="http://www.w3.org/2000/svg">
<mask id="mask0" mask-type="alpha" maskUnits="userSpaceOnUse" x="433" y="104" width="426" height="357">
<rect x="433" y="104" width="426" height="357" rx="10" fill="white"/>
<rect x="434" y="105" width="424" height="355" rx="9" stroke="black" stroke-opacity="0.5" stroke-width="2"/>
</mask>
<g mask="url(#mask0)">
</g>
<path d="M627.632 375.078C735.031 375.078 822.095 360.294 822.095 342.056C822.095 323.818 735.031 309.033 627.632 309.033C520.233 309.033 433.169 323.818 433.169 342.056C433.169 360.294 520.233 375.078 627.632 375.078Z" fill="#C8C1E1"/>
<path d="M676.082 355.622C675.955 355.494 673.175 352.638 674.195 350.93C674.348 350.649 674.552 350.547 674.756 350.573C675.496 350.649 676.312 352.587 676.72 353.735C676.592 352.307 676.414 349.476 677.204 348.533C677.383 348.329 677.587 348.201 677.816 348.201C678.046 348.176 678.25 348.278 678.377 348.456C679.091 349.323 678.454 352.409 678.097 353.862C678.352 353.429 678.734 352.97 679.117 352.919C679.295 352.893 679.448 352.97 679.525 353.097C679.754 353.505 679.448 354.576 678.505 355.647L678.377 355.52C679.295 354.474 679.525 353.48 679.372 353.174C679.321 353.097 679.27 353.072 679.168 353.072C678.683 353.148 678.122 354.194 677.944 354.602L677.765 354.551C677.791 354.5 679.117 349.604 678.275 348.558C678.173 348.431 678.046 348.38 677.867 348.38C677.689 348.38 677.51 348.482 677.383 348.66C676.388 349.859 677.026 354.525 677.026 354.576L676.847 354.627C676.516 353.582 675.496 350.879 674.756 350.802C674.603 350.777 674.476 350.879 674.374 351.083C673.43 352.664 676.21 355.52 676.235 355.545L676.082 355.622Z" fill="#42428E"/>
<path d="M610.317 351.567C610.317 351.567 606.595 347.767 607.869 345.6C609.144 343.432 611.312 350.241 611.312 350.241C611.312 350.241 610.19 342.183 612.51 342.055C614.831 341.928 612.51 350.241 612.51 350.241C612.51 350.241 613.377 348.303 614.219 348.175C615.06 348.048 614.831 349.833 613.326 351.541H610.317V351.567Z" fill="#BED5DC"/>
<path d="M610.598 351.669C610.598 351.669 609.527 350.572 608.66 349.195C607.461 347.308 607.181 345.829 607.818 344.758C608.048 344.35 608.328 344.172 608.66 344.223C609.297 344.299 610.062 345.319 610.904 347.232C611.159 347.818 611.388 348.405 611.567 348.889C611.363 346.773 611.133 342.591 612.281 341.163C612.536 340.857 612.842 340.678 613.199 340.678C613.556 340.653 613.836 340.78 614.04 341.035C615.086 342.336 614.142 346.9 613.632 349.017C614.015 348.379 614.576 347.691 615.137 347.614C615.392 347.589 615.621 347.665 615.723 347.895C616.055 348.507 615.596 350.088 614.219 351.669L614.015 351.49C615.366 349.935 615.723 348.481 615.468 348.022C615.417 347.895 615.315 347.869 615.162 347.895C614.448 347.997 613.607 349.552 613.326 350.164L613.071 350.062C613.097 349.986 615.086 342.769 613.836 341.214C613.683 341.01 613.479 340.933 613.224 340.959C612.944 340.984 612.714 341.112 612.51 341.367C611.057 343.152 611.975 350.037 612 350.113L611.745 350.164C611.261 348.634 609.756 344.631 608.66 344.503C608.456 344.478 608.252 344.605 608.073 344.911C606.696 347.257 610.776 351.465 610.827 351.516L610.598 351.669Z" fill="#42428E"/>
<path d="M520.531 167.074C520.531 167.074 527.11 166.768 528.156 156.67C529.227 146.292 517.318 156.67 517.318 156.67L520.531 167.074Z" fill="#FDAD9B"/>
<path d="M513.8 133.95C514.208 134.103 520.863 135.914 523.821 145.961C526.779 156.008 516.86 148.077 516.86 148.077L513.8 133.95Z" fill="#FDAD9B"/>
<path d="M505.027 272.466C505.027 272.466 505.129 276.087 507.552 277.107C510 278.127 517.089 279.045 514.437 281.365C512.907 282.691 505.767 281.85 503.727 281.824C501.712 281.824 499.8 282.717 498.295 281.34C496.638 279.861 498.295 272.44 498.295 272.44C498.295 272.44 500.029 273.358 501.61 273.307C503.905 273.282 505.027 272.466 505.027 272.466Z" fill="#66192D"/>
<path d="M476.952 272.466C476.952 272.466 477.054 276.087 479.477 277.107C481.925 278.127 489.014 279.045 486.362 281.365C484.832 282.691 477.692 281.85 475.652 281.824C473.637 281.824 471.725 282.717 470.22 281.34C468.563 279.861 470.22 272.44 470.22 272.44C470.22 272.44 471.954 273.358 473.535 273.307C475.805 273.282 476.952 272.466 476.952 272.466Z" fill="#66192D"/>
<path d="M523.184 173.424C523.184 173.424 523.643 188.545 518.798 217.564C515.304 238.5 511.199 259.614 509.184 269.737C508.47 273.358 505.41 276.01 501.815 276.138L499.877 276.214C495.975 276.367 492.813 273.027 493.094 269.023L497.99 200.556L499.188 178.014L523.184 173.424Z" fill="#786AB5"/>
<path d="M479.043 186.735C479.272 188.571 489.676 188.341 502.426 186.735C515.176 185.128 525.096 182.349 524.866 180.513C524.637 178.677 514.36 178.447 501.61 180.054C488.86 181.686 478.813 184.873 479.043 186.735Z" fill="#66192D"/>
<path d="M508.572 184.211L481.364 271.625C480.216 275.271 476.927 277.796 473.178 277.847L471.546 277.872C467.696 277.949 464.738 274.379 465.426 270.477L480.318 188.342C480.522 187.373 481.262 186.582 482.205 186.327C487.28 184.874 509.057 180.615 508.572 184.211Z" fill="#786AB5"/>
<path d="M483.302 136.398C483.302 136.398 486.923 126.223 499.826 126.682C512.729 127.141 522.47 144.099 524.867 180.513C524.867 180.513 503.753 175.872 479.018 186.684C478.992 186.684 477.615 151.239 483.302 136.398Z" fill="#FFBA41"/>
<path d="M474.224 135.786L483.353 141.626C483.353 141.626 506.838 143.972 513.06 142.85C519.282 141.728 520.277 137.138 520.277 137.138C520.277 137.138 514.335 129.003 503.064 126.989C501.993 126.785 500.948 126.759 499.8 126.683C497.888 126.555 495.975 126.606 494.088 126.81C482.945 128.009 474.224 135.786 474.224 135.786Z" fill="#FFBA41"/>
<path d="M496.408 223.277L495.975 223.124L501.814 205.325C503.166 201.219 505.945 197.777 509.643 195.66L509.872 196.068C506.277 198.134 503.574 201.474 502.248 205.478L496.408 223.277Z" fill="#020202"/>
<path d="M508.649 124.413L508.624 124.26C508.649 124.26 510.281 123.852 510.74 122.73C510.97 122.144 510.868 121.481 510.409 120.716C510.179 120.359 509.975 120.027 509.797 119.747C508.522 117.707 508.037 116.942 508.394 115.284L508.547 115.31C508.216 116.916 508.649 117.605 509.924 119.67C510.103 119.976 510.307 120.282 510.536 120.639C511.021 121.455 511.148 122.169 510.893 122.807C510.383 123.98 508.726 124.388 508.649 124.413Z" fill="#66192D"/>
<path d="M508.445 115.284C508.445 115.284 507.884 117.86 509.593 120.588C511.301 123.291 509.44 125.28 507.119 124.235C504.799 123.189 503.906 126.147 500.948 124.515C497.99 122.858 508.445 115.284 508.445 115.284Z" fill="#66192D"/>
<path d="M494.752 126.708C496.027 126.581 497.149 125.765 497.659 124.592L499.265 120.869L499.724 119.798L502.453 113.474L501.968 120.027L501.688 123.98L501.611 125.102C501.535 126.02 502.198 126.836 503.09 126.989H503.116C503.6 127.779 504.263 129.386 502.274 130.023C499.903 130.763 496.078 128.927 494.752 126.708C494.726 126.734 494.726 126.734 494.752 126.708Z" fill="#FDAD9B"/>
<path d="M499.239 120.766C499.239 120.792 499.239 120.843 499.239 120.868C499.392 122.985 501.662 123.979 501.662 123.979H501.688L501.968 120.027C501.28 119.772 500.285 119.517 499.724 119.797C499.418 119.95 499.214 120.256 499.239 120.766Z" fill="#66192D"/>
<path d="M508.904 114.519C508.904 110.311 506.15 106.92 502.733 106.92C499.316 106.92 496.562 110.337 496.562 114.519C496.562 118.726 499.316 122.118 502.733 122.118C506.15 122.118 508.904 118.726 508.904 114.519Z" fill="#FDAD9B"/>
<path d="M497.403 115.666C498.092 116.329 499.086 116.406 499.596 115.819C500.106 115.233 499.953 114.213 499.239 113.55C498.551 112.887 497.556 112.81 497.046 113.397C496.536 113.983 496.689 115.003 497.403 115.666Z" fill="#FDAD9B"/>
<path d="M506.049 119.44C506.049 119.44 503.932 119.491 501.841 118.752C501.841 118.752 501.663 120.817 503.958 120.97C505.284 121.047 506.049 119.44 506.049 119.44Z" fill="#DB6B49"/>
<path d="M506.048 119.441C506.048 119.441 505.538 119.874 504.34 119.849C503.141 119.849 501.815 118.727 501.815 118.727C501.815 118.727 504.391 119.441 506.048 119.441Z" fill="white"/>
<path d="M503.319 114.596C503.37 114.596 503.396 114.545 503.421 114.519C503.447 114.443 503.421 114.366 503.345 114.341C503.294 114.315 502.35 113.831 501.534 114.749C501.483 114.8 501.483 114.902 501.534 114.953C501.585 115.004 501.662 115.004 501.738 114.953C502.376 114.519 503.217 114.596 503.243 114.621C503.268 114.596 503.294 114.596 503.319 114.596Z" fill="#060633"/>
<path d="M502.224 116.126C502.224 116.457 502.402 116.738 502.632 116.738C502.887 116.738 503.091 116.483 503.091 116.151C503.091 115.82 502.912 115.539 502.683 115.539C502.428 115.539 502.224 115.794 502.224 116.126Z" fill="#060633"/>
<path d="M508.343 115.335C508.394 115.335 508.42 115.335 508.471 115.284C508.522 115.233 508.522 115.131 508.471 115.08C508.445 115.054 507.757 114.238 506.635 114.774C506.558 114.799 506.533 114.876 506.558 114.952C506.584 115.029 506.66 115.029 506.737 115.029C507.502 114.876 508.241 115.258 508.267 115.284C508.292 115.309 508.318 115.309 508.343 115.335Z" fill="#060633"/>
<path d="M506.736 116.329C506.609 116.635 506.66 116.967 506.889 117.069C507.119 117.171 507.399 116.992 507.527 116.686C507.654 116.38 507.603 116.049 507.374 115.947C507.144 115.845 506.864 116.023 506.736 116.329Z" fill="#060633"/>
<path d="M505.36 108.297C505.36 108.297 505.232 110.949 501.943 111.383C498.653 111.842 496.384 113.219 496.817 115.59C497.251 117.962 502.58 122.883 498.679 124.795C494.777 126.708 495.593 123.138 491.36 123.98C487.127 124.796 486.362 119.16 489.269 115.871C492.176 112.581 491.003 103.911 501.943 104.294C512.882 104.676 508.879 113.397 508.879 113.397C508.879 113.397 505.36 111.204 505.36 108.297Z" fill="#66192D"/>
<path d="M497.531 125.305L497.506 125.229C498.322 124.897 498.781 124.438 498.959 123.826C499.418 122.092 497.378 119.44 495.568 117.094C495.083 116.482 494.624 115.896 494.242 115.335C493.12 113.779 493.018 111.918 493.987 110.464C495.058 108.858 497.072 108.195 499.265 108.705C501.382 109.189 502.835 108.756 503.702 108.297C504.62 107.812 505.054 107.175 505.054 107.175L505.13 107.226C505.105 107.251 503.371 109.75 499.265 108.781C497.098 108.271 495.109 108.934 494.063 110.515C493.12 111.943 493.196 113.728 494.318 115.284C494.726 115.845 495.16 116.431 495.644 117.043C497.455 119.415 499.52 122.067 499.036 123.852C498.857 124.464 498.347 124.974 497.531 125.305Z" fill="white"/>
<path d="M507.91 120.308C507.579 120.308 507.273 120.206 506.967 120.027C505.641 119.211 505.131 116.712 505.845 114.468C506.278 113.091 507.094 112.071 508.012 111.74C508.573 111.536 509.109 111.587 509.619 111.893C510.945 112.709 511.455 115.208 510.741 117.426C510.307 118.803 509.491 119.823 508.573 120.155C508.344 120.282 508.14 120.308 507.91 120.308ZM506.125 114.57C505.437 116.687 505.896 119.033 507.12 119.798C507.528 120.053 508.012 120.104 508.471 119.925C509.313 119.619 510.078 118.65 510.486 117.375C511.174 115.259 510.715 112.913 509.491 112.148C509.083 111.893 508.599 111.842 508.14 112.02C507.273 112.326 506.533 113.27 506.125 114.57Z" fill="#786AB5"/>
<g opacity="0.3">
<path opacity="0.3" d="M498.704 113.04C498.22 115.208 499.01 117.554 500.464 118.242C501.943 118.956 503.524 117.758 504.034 115.59C504.518 113.423 503.728 111.077 502.274 110.388C500.795 109.674 499.214 110.873 498.704 113.04Z" fill="white"/>
</g>
<g opacity="0.3">
<path opacity="0.3" d="M505.793 114.672C505.309 116.865 505.946 119.211 507.272 119.951C508.573 120.69 510.052 119.517 510.536 117.324C511.021 115.131 510.383 112.785 509.057 112.046C507.757 111.306 506.278 112.479 505.793 114.672Z" fill="white"/>
</g>
<path d="M501.535 118.523C501.204 118.523 500.872 118.446 500.541 118.293C498.909 117.528 498.042 115.029 498.577 112.709C498.883 111.357 499.623 110.312 500.566 109.853C501.229 109.547 501.918 109.522 502.581 109.828C504.213 110.593 505.08 113.091 504.544 115.412C504.238 116.763 503.499 117.809 502.555 118.268C502.198 118.421 501.867 118.523 501.535 118.523ZM501.586 109.878C501.28 109.878 500.974 109.955 500.694 110.083C499.827 110.491 499.138 111.511 498.858 112.76C498.348 114.953 499.164 117.324 500.668 118.038C501.229 118.293 501.841 118.293 502.428 118.038C503.295 117.63 503.983 116.61 504.264 115.361C504.774 113.168 503.958 110.797 502.453 110.083C502.173 109.955 501.867 109.878 501.586 109.878Z" fill="#786AB5"/>
<path d="M506.074 115.488C506.023 115.488 505.947 115.462 505.921 115.437C505.896 115.411 505.233 114.901 504.085 115.105C503.958 115.131 503.805 115.054 503.779 114.901C503.754 114.774 503.83 114.621 503.983 114.595C505.36 114.315 506.202 115.003 506.253 115.029C506.355 115.131 506.38 115.284 506.278 115.386C506.227 115.437 506.151 115.488 506.074 115.488Z" fill="#786AB5"/>
<path d="M474.096 135.991C473.79 136.909 476.161 138.643 479.425 139.841C482.689 141.04 485.596 141.269 485.902 140.351C486.208 139.433 483.837 137.699 480.573 136.501C477.334 135.302 474.427 135.073 474.096 135.991Z" fill="#66192D"/>
<path d="M496.511 167.814L496.613 161.133C496.638 160.215 495.924 159.45 495.006 159.399C490.391 159.067 487.127 157.639 485.367 155.115C482.894 151.621 483.174 146.215 483.837 142.467C484.194 140.554 483.557 139.254 481.236 138.03C481.236 138.03 479.247 136.933 476.774 136.5C475.779 136.321 474.81 136.729 474.555 137.698C474.147 139.203 473.637 141.574 473.408 144.328C472.821 150.907 474.096 156.645 477.08 160.878C480.752 166.105 486.642 168.987 494.649 169.471C495.669 169.573 496.485 168.808 496.511 167.814Z" fill="#FDAD9B"/>
<g opacity="0.5">
<path opacity="0.5" d="M479.503 159.17C479.324 159.17 479.146 159.144 478.942 159.093C478.432 158.94 477.922 158.583 477.539 158.099C476.723 157.079 476.647 155.753 477.361 155.166C478.1 154.58 479.35 154.937 480.166 155.957C480.982 156.977 481.058 158.303 480.344 158.889C480.115 159.068 479.809 159.17 479.503 159.17ZM478.202 155.345C477.973 155.345 477.794 155.396 477.641 155.523C477.106 155.957 477.233 157.002 477.896 157.818C478.228 158.226 478.661 158.532 479.069 158.66C479.477 158.787 479.834 158.736 480.064 158.532C480.599 158.099 480.472 157.053 479.809 156.237C479.35 155.676 478.738 155.345 478.202 155.345Z" fill="#E08B65"/>
</g>
<path d="M489.294 184.72C489.294 184.72 514.717 179.85 522.979 182.145L519.027 188.01L504.313 188.851L489.294 184.72Z" fill="#786AB5"/>
<path d="M499.545 160.037H521.475C521.934 160.037 522.342 159.757 522.495 159.323L527.06 145.706C527.289 145.018 526.779 144.304 526.04 144.304H504.951C503.982 144.304 503.141 144.916 502.835 145.808L498.551 158.609C498.321 159.323 498.831 160.037 499.545 160.037Z" fill="#66192D"/>
<path d="M500.922 160.036H522.852C523.311 160.036 523.719 159.756 523.872 159.322L528.437 145.705C528.666 145.017 528.156 144.303 527.417 144.303H506.328C505.359 144.303 504.518 144.915 504.212 145.807L499.928 158.608C499.698 159.322 500.208 160.036 500.922 160.036Z" fill="#66192D"/>
<path d="M516.299 151.749C516.299 151.239 515.712 151.01 515.177 151.01C514.667 151.01 513.8 151.571 513.8 152.31C513.8 153.101 514.412 153.203 514.947 153.203C515.483 153.177 516.299 152.387 516.299 151.749Z" fill="#FECAFF"/>
<path d="M502.503 151.188L502.376 151.162C502.427 150.984 503.473 147.082 504.187 145.807C504.901 144.532 505.768 144.277 505.819 144.252L505.844 144.379C505.844 144.379 504.977 144.634 504.314 145.858C503.575 147.108 502.503 151.162 502.503 151.188Z" fill="#553E93"/>
<path d="M500.285 157.793L500.132 157.767L501.84 152.642L501.993 152.693L500.285 157.793Z" fill="#553E93"/>
<path d="M528.284 155.166C528.284 155.166 528.641 158.022 526.218 158.303C523.133 158.66 518.925 155.88 520.863 155.651C522.597 155.421 525.122 155.753 525.122 155.753C525.122 155.753 518.67 154.835 519.282 153.458C519.894 152.081 525.402 152.948 525.402 152.948C525.402 152.948 519.206 151.418 520.149 150.347C521.118 149.25 526.142 150.015 526.142 150.015C526.142 150.015 519.996 148.868 521.144 147.644C522.291 146.42 525.377 147.695 526.779 147.924C528.105 148.128 528.437 149.123 528.182 150.5C528.182 150.5 528.666 152.03 528.309 152.871C528.156 153.203 528.437 153.585 528.437 153.84C528.462 154.299 528.284 155.166 528.284 155.166Z" fill="#FDAD9B"/>
<path d="M493.323 158.965C493.323 158.965 494.955 154.044 497.735 152.845C500.514 151.647 504.977 152.208 503.421 153.33C501.866 154.452 499.469 155.319 499.469 155.319C499.469 155.319 504.671 153.712 504.518 155.089C504.365 156.466 499.826 157.843 499.826 157.843C499.826 157.843 506.175 156.415 505.614 157.665C505.053 158.914 500.234 159.985 500.234 159.985C500.234 159.985 506.201 158.889 505.512 160.342C504.824 161.796 500.591 161.209 500.438 162.586C500.285 163.963 499.239 169.395 495.338 169.446L493.323 158.965Z" fill="#FDAD9B"/>
<path d="M497.607 156.441L497.403 156.339C497.837 155.446 499.367 155.191 499.443 155.191L499.469 155.421C499.469 155.421 497.99 155.65 497.607 156.441Z" fill="#DD8964"/>
<path d="M497.582 159.195L497.403 159.067C498.245 157.945 499.749 157.716 499.826 157.716L499.851 157.945C499.826 157.92 498.372 158.124 497.582 159.195Z" fill="#DD8964"/>
<path d="M498.117 161.209L497.913 161.133C498.296 160.138 500.106 159.858 500.182 159.832L500.208 160.062C500.208 160.062 498.449 160.342 498.117 161.209Z" fill="#DD8964"/>
<path d="M525.887 158.455C524.969 158.455 523.923 158.2 523.847 158.175L523.898 157.945C524.561 158.098 526.397 158.43 526.958 157.971L527.111 158.149C526.83 158.379 526.371 158.455 525.887 158.455Z" fill="#DD8964"/>
<path d="M788.971 267.8L723.385 267.953L648.695 269.814L648.491 275.45L720.733 272.313C728 272.568 733.661 279.224 733.381 287.154C733.1 295.11 727.006 301.358 719.738 301.103L647.701 298.629L647.548 302.786L787.951 308.982C797.386 309.314 805.291 299.853 805.648 289.526C806.056 279.198 798.406 268.131 788.971 267.8Z" fill="#FFBA41"/>
<path d="M739.807 287.231C740.164 276.904 732.82 268.285 723.385 267.953L648.695 269.815L648.491 275.45L720.733 272.314C728 272.569 733.661 279.224 733.381 287.155C733.1 295.111 727.006 301.358 719.738 301.103L647.701 298.63L647.548 305.362H722.084C731.519 305.668 739.45 297.559 739.807 287.231Z" fill="#FFBA41"/>
<path d="M720.733 272.313L648.492 275.424C655.02 276.47 656.958 283.1 657.876 286.619C659.712 293.784 654.28 297.915 647.701 298.502V298.604L719.739 301.077C727.006 301.332 733.101 295.085 733.381 287.129C733.662 279.224 728.001 272.568 720.733 272.313Z" fill="#E1DCF7"/>
<path d="M675.966 289.979L675.957 290.361L719.166 291.364L719.175 290.981L675.966 289.979Z" fill="#66192D"/>
<path d="M735.217 298.834C735.013 298.834 734.809 298.757 734.681 298.579C734.477 298.324 734.554 297.967 734.86 297.814C734.911 297.788 739.577 294.983 740.317 287.155C741.082 279.377 734.783 276.368 734.707 276.343C734.401 276.19 734.273 275.858 734.452 275.578C734.63 275.297 735.013 275.195 735.319 275.348C735.599 275.476 742.433 278.714 741.592 287.231C740.776 295.646 735.778 298.604 735.548 298.732C735.472 298.808 735.344 298.834 735.217 298.834Z" fill="#552748"/>
<path d="M702.561 285.763L670.357 286.265L670.363 286.647L702.567 286.146L702.561 285.763Z" fill="#66192D"/>
<path d="M754.291 297.457L742.714 297.049C742.484 297.049 742.28 296.921 742.178 296.717C742.076 296.513 742.076 296.284 742.178 296.08C742.204 296.054 744.193 292.586 745.366 287.945C746.488 283.483 743.453 278.816 743.402 278.765C743.275 278.561 743.249 278.306 743.377 278.102C743.504 277.898 743.708 277.796 743.963 277.771L754.928 278.153C755.132 278.153 755.311 278.255 755.438 278.434C762.297 288.251 754.851 297.125 754.775 297.227C754.673 297.38 754.495 297.457 754.291 297.457ZM743.81 295.799L754.01 296.156C755.106 294.754 760.054 287.563 754.571 279.454L745.085 279.122C746.003 280.882 747.533 284.554 746.615 288.277C745.774 291.694 744.499 294.448 743.81 295.799Z" fill="#552748"/>
<path d="M648.338 304.52L714.256 304.596L788.818 309.11V314.745L716.729 309.033C709.462 309.033 703.571 315.459 703.571 323.415C703.571 331.371 709.436 337.823 716.704 337.848L788.792 337.925V342.081L648.287 341.928C638.852 341.928 631.228 333.539 631.228 323.211C631.253 312.858 638.929 304.494 648.338 304.52Z" fill="#553E93"/>
<path d="M697.171 323.262C697.171 312.934 704.846 304.57 714.256 304.57L788.818 309.084V314.719L716.729 309.007C709.462 309.007 703.571 315.433 703.571 323.389C703.571 331.345 709.436 337.797 716.704 337.822L788.792 337.899V342.055L714.23 341.979C704.795 341.979 697.171 333.589 697.171 323.262Z" fill="#553E93"/>
<path d="M716.755 309.033L788.843 314.72C782.29 315.536 780.097 322.089 779.077 325.583C776.986 332.672 782.264 336.981 788.818 337.823V337.925L716.729 337.848C709.462 337.848 703.597 331.371 703.597 323.415C703.597 315.459 709.487 309.033 716.755 309.033Z" fill="#E1DCF7"/>
<path d="M720.475 328.823L720.475 329.205L778.666 329.267L778.666 328.885L720.475 328.823Z" fill="#66192D"/>
<path d="M734.47 323.117L734.45 323.499L779.068 325.781L779.088 325.399L734.47 323.117Z" fill="#66192D"/>
<path d="M646.604 232.533L713.771 231.182L789.812 234.165L789.94 239.903L716.398 235.644C709.003 235.797 703.138 242.478 703.291 250.587C703.444 258.696 709.589 265.148 716.984 264.995L790.399 263.516L790.475 267.749L647.369 270.63C637.756 270.834 629.8 262.445 629.596 251.939C629.392 241.407 637.016 232.737 646.604 232.533Z" fill="#FF8548"/>
<path d="M696.763 250.587C696.559 240.056 704.158 231.386 713.771 231.182L789.812 234.165L789.94 239.903L716.398 235.644C709.003 235.797 703.138 242.478 703.291 250.587C703.444 258.696 709.589 265.148 716.984 264.995L790.399 263.516L790.475 267.749L714.511 269.279C704.923 269.483 696.967 261.119 696.763 250.587Z" fill="#FF8548"/>
<path d="M716.398 235.67L789.94 239.903C783.285 240.872 781.193 247.604 780.224 251.174C778.261 258.441 783.718 262.725 790.424 263.439V263.541L717.01 265.02C709.615 265.173 703.469 258.722 703.316 250.613C703.138 242.504 709.003 235.823 716.398 235.67Z" fill="#E1DCF7"/>
<path d="M779.873 254.549L720.598 255.696L720.606 256.104L779.881 254.957L779.873 254.549Z" fill="#66192D"/>
<path d="M698.497 262.903C698.395 262.903 698.268 262.878 698.166 262.801C697.962 262.674 693.474 259.512 692.862 250.689C692.25 241.764 698.472 238.474 698.752 238.321C699.033 238.168 699.39 238.296 699.543 238.576C699.696 238.857 699.568 239.214 699.288 239.367C699.058 239.494 693.474 242.478 694.035 250.612C694.621 258.874 698.803 261.807 698.829 261.832C699.084 262.011 699.16 262.368 698.982 262.648C698.854 262.801 698.676 262.903 698.497 262.903Z" fill="#552748"/>
<path d="M734.729 249.576L734.717 249.983L780.216 251.346L780.228 250.938L734.729 249.576Z" fill="#66192D"/>
<path d="M683.171 259.716C681.59 259.716 680.137 258.849 679.397 257.447C678.071 254.948 676.286 249.924 679.193 244.39C679.882 243.064 681.284 242.197 682.84 242.172L685.211 242.121C686.537 242.095 687.761 242.656 688.603 243.702C689.444 244.722 689.75 246.022 689.47 247.297C689.164 248.7 689.138 250.026 689.419 251.224C689.648 252.142 689.903 253.086 690.235 254.03C690.668 255.33 690.464 256.707 689.674 257.829C688.883 258.951 687.634 259.614 686.257 259.64L683.247 259.691C683.247 259.716 683.222 259.716 683.171 259.716ZM682.891 243.37C681.769 243.396 680.749 244.008 680.239 244.951C677.587 250 679.244 254.616 680.442 256.911C680.978 257.931 682.074 258.569 683.247 258.543L686.257 258.492C687.251 258.467 688.169 257.982 688.73 257.166C689.291 256.35 689.444 255.356 689.138 254.412C688.807 253.443 688.526 252.474 688.297 251.505C687.965 250.128 687.991 248.623 688.348 247.042C688.552 246.124 688.322 245.181 687.736 244.441C687.124 243.702 686.231 243.268 685.262 243.294L682.891 243.37Z" fill="#552748"/>
<path d="M592.161 282.462L530.426 280.601L460.454 282.233L460.275 286.976L527.952 284.273C534.761 284.477 540.065 290.061 539.81 296.768C539.555 303.474 533.843 308.727 527.034 308.523L459.536 306.509L459.408 310.002L590.963 313.955C599.786 314.21 607.206 307.401 607.538 298.706C607.895 289.985 600.984 282.717 592.161 282.462Z" fill="#FF8548"/>
<path d="M545.828 296.819C546.159 288.123 539.249 280.856 530.426 280.601L460.454 282.233L460.275 286.976L527.952 284.273C534.761 284.477 540.065 290.061 539.81 296.768C539.555 303.474 533.843 308.727 527.034 308.523L459.536 306.509L459.408 310.002L529.227 312.093C538.101 312.348 545.522 305.514 545.828 296.819Z" fill="#FF8548"/>
<path d="M527.978 284.272L460.301 286.975C466.395 287.842 468.257 293.427 469.098 296.41C470.807 302.454 465.732 305.922 459.587 306.432V306.508L527.085 308.523C533.894 308.727 539.606 303.474 539.861 296.767C540.09 290.086 534.761 284.476 527.978 284.272Z" fill="#E1DCF7"/>
<path d="M469.344 299.189L469.333 299.546L523.799 301.182L523.81 300.825L469.344 299.189Z" fill="#66192D"/>
<path d="M510.947 295.613L469.105 296.249L469.111 296.606L510.952 295.97L510.947 295.613Z" fill="#66192D"/>
<path d="M459.638 310.308H515.151L577.932 314.031V318.774L517.242 314.031C511.122 314.031 506.175 319.462 506.175 326.169C506.175 332.875 511.122 338.307 517.242 338.307H577.932V341.8H459.638C451.707 341.8 445.256 334.762 445.256 326.067C445.256 317.346 451.682 310.308 459.638 310.308Z" fill="#786AB5"/>
<path d="M500.744 326.041C500.744 317.346 507.17 310.308 515.126 310.308L579.514 313.597L577.907 318.774L517.217 314.031C511.097 314.031 506.15 319.462 506.15 326.169C506.15 332.875 511.097 338.307 517.217 338.307H577.907V341.8H515.126C507.196 341.8 500.744 334.737 500.744 326.041Z" fill="#786AB5"/>
<path d="M517.217 314.057L577.907 318.774C572.399 319.463 570.563 324.996 569.696 327.929C567.962 333.896 572.399 337.517 577.907 338.231V338.307H517.217C511.097 338.307 506.15 332.876 506.15 326.169C506.15 319.463 511.097 314.057 517.217 314.057Z" fill="#E1DCF7"/>
<path d="M569.365 330.683H520.379V331.014H569.365V330.683Z" fill="#66192D"/>
<path d="M473.612 335.757C473.459 335.655 469.736 332.926 469.379 325.557C469.022 318.085 474.275 315.433 474.504 315.331L474.938 316.224L474.734 315.79L474.938 316.224C474.734 316.326 470.042 318.723 470.373 325.531C470.705 332.442 474.173 334.966 474.198 334.992L473.612 335.757Z" fill="#552748"/>
<path d="M532.107 325.899L532.091 326.23L569.654 328.111L569.671 327.78L532.107 325.899Z" fill="#66192D"/>
<path d="M458.592 316.402H461.576C464.202 316.402 466.089 318.876 465.426 321.4C465.044 322.879 464.891 324.562 465.248 326.271C465.503 327.495 465.834 328.668 466.166 329.713C466.982 332.289 465.044 334.915 462.366 334.915H458.643C457.139 334.915 455.787 334.074 455.099 332.748C453.62 329.866 451.835 324.435 455.073 318.519C455.787 317.193 457.139 316.402 458.592 316.402Z" fill="#552748"/>
<path d="M786.829 234.445L608.252 232.609C604.427 232.558 601.342 229.778 601.342 226.387V129.028C601.342 125.611 604.402 122.857 608.227 122.806L784.508 120.384C788.359 120.333 791.521 123.061 791.597 126.478L793.892 228.07C793.969 231.614 790.781 234.496 786.829 234.445Z" fill="#786AB5"/>
<path d="M786.906 131.374V222.945C786.906 224.883 785.325 226.464 783.387 226.464H611.823C609.885 226.464 608.304 224.883 608.304 222.945V131.374C608.304 129.436 609.885 127.855 611.823 127.855H783.361C785.325 127.855 786.906 129.436 786.906 131.374Z" fill="#C8C1E1"/>
<path d="M786.906 215.192V218.099C786.906 219.884 785.452 221.338 783.667 221.338H680.928C680.698 221.287 680.469 221.21 680.265 221.134C687.583 214.019 701.659 202.876 720.886 199.127C722.289 198.847 723.742 198.617 725.196 198.413C726.496 198.235 727.797 198.107 729.148 198.005C729.225 198.005 729.301 198.005 729.352 197.98C733.432 197.699 737.538 197.852 741.567 198.26C742.383 198.337 743.199 198.439 744.015 198.541C745.213 198.694 746.386 198.872 747.534 199.051C766.761 202.136 779.077 208.613 786.906 215.192Z" fill="#552748"/>
<path d="M742.382 203.106C744.55 199.765 741.439 199.459 740.444 196.068L737.384 185.587L736.492 182.527L731.239 164.575L730.219 182.323L729.607 192.982L729.403 196.348C729.275 198.643 728.638 198.949 726.904 200.913C726.19 201.703 723.589 204.916 726.929 206.548C729.964 208.002 739.603 207.364 742.382 203.106Z" fill="#FDAD9B"/>
<path d="M741.362 181.558C741.362 181.558 758.83 175.464 756.229 162.459C753.628 149.454 740.291 174.214 740.291 174.214L739.577 181.023L741.362 181.558Z" fill="#66192D"/>
<path d="M737.41 185.307C737.385 185.409 737.385 185.511 737.359 185.587C736.186 191.197 729.633 193.033 729.633 193.033L729.607 193.008L730.219 182.349C732.208 181.915 734.988 181.584 736.467 182.553C737.257 183.037 737.665 183.904 737.41 185.307Z" fill="#66192D"/>
<path d="M714.435 167.278C715.786 156.95 723.844 149.479 732.412 150.601C740.98 151.723 746.82 161.005 745.468 171.332C744.117 181.66 736.059 189.131 727.491 188.009C718.923 186.913 713.058 177.605 714.435 167.278Z" fill="#FDAD9B"/>
<path d="M743.453 168.884C743.453 168.884 738.302 169.93 736.109 166.079C733.916 162.229 732.641 158.939 723.691 159.296C714.74 159.628 707.498 154.375 707.881 149.606C708.263 144.838 713.159 143.282 717.647 145.552C722.135 147.821 717.724 142.823 722.849 139.967C727.975 137.112 734.069 145.195 739.042 144.889C744.014 144.557 759.136 149.173 756.229 162.458L743.453 168.884Z" fill="#66192D"/>
<path d="M745.417 172.684C743.836 173.704 741.822 173.373 740.904 171.945C740.011 170.517 740.547 168.553 742.153 167.559C743.734 166.539 745.749 166.87 746.667 168.298C747.559 169.701 746.998 171.664 745.417 172.684Z" fill="#FDAD9B"/>
<path d="M719.509 152.182C717.928 152.182 716.73 151.876 715.939 151.264C714.588 150.193 714.486 149.224 714.868 148.688C715.302 148.051 716.5 147.821 717.75 148.561C719.892 149.81 721.473 149.606 721.473 149.606L721.498 149.81C721.422 149.81 719.841 150.014 717.622 148.739C716.475 148.076 715.404 148.255 715.021 148.816C714.715 149.275 714.817 150.116 716.067 151.111C718.642 153.151 725.553 150.983 725.604 150.958L725.68 151.162C725.655 151.162 723.895 151.723 721.83 152.003C720.988 152.105 720.223 152.182 719.509 152.182Z" fill="white"/>
<path d="M747.916 148.995C746.08 147.694 743.836 147.822 741.26 147.975C739.934 148.051 738.583 148.128 737.104 148.051C732.641 147.796 728.944 143.589 728.816 143.155L729.02 143.104C729.122 143.359 732.641 147.618 737.129 147.847C738.608 147.924 739.96 147.847 741.26 147.771C743.887 147.618 746.182 147.49 748.069 148.816L747.916 148.995Z" fill="white"/>
<path d="M753.067 160.036H753.042C752.379 159.985 751.308 157.996 751.282 157.001C751.257 156.491 751.512 156.364 751.665 156.364C752.914 156.185 753.526 159.245 753.552 159.373V159.398V159.424C753.475 159.908 753.246 160.036 753.067 160.036ZM751.767 156.542C751.741 156.542 751.716 156.542 751.69 156.542C751.639 156.542 751.461 156.568 751.486 156.976C751.512 157.919 752.532 159.781 753.042 159.806C753.195 159.806 753.271 159.577 753.322 159.373C753.195 158.557 752.608 156.542 751.767 156.542Z" fill="white"/>
<path d="M727.006 168.528C726.929 168.477 726.878 168.4 726.853 168.298C726.827 168.12 726.955 167.967 727.133 167.967C727.235 167.967 729.607 167.533 730.78 170.058C730.856 170.211 730.805 170.415 730.627 170.491C730.474 170.568 730.321 170.491 730.193 170.338C729.097 168.987 727.235 168.604 727.159 168.604C727.108 168.579 727.057 168.553 727.006 168.528Z" fill="#060633"/>
<path d="M728.383 172.607C728.179 173.347 727.593 173.806 727.057 173.678C726.522 173.525 726.266 172.837 726.47 172.097C726.674 171.358 727.261 170.899 727.797 171.026C728.307 171.154 728.562 171.868 728.383 172.607Z" fill="#060633"/>
<path d="M715.276 167.584C715.2 167.559 715.149 167.508 715.098 167.431C715.047 167.278 715.098 167.1 715.225 166.998C715.302 166.947 716.934 165.595 718.464 167.355C718.566 167.457 718.566 167.661 718.464 167.788C718.362 167.916 718.234 167.916 718.107 167.839C716.934 167.074 715.48 167.482 715.429 167.533C715.378 167.584 715.302 167.61 715.276 167.584Z" fill="#060633"/>
<path d="M718.158 170.848C718.26 171.588 717.877 172.251 717.342 172.327C716.806 172.404 716.271 171.843 716.194 171.103C716.092 170.364 716.475 169.701 717.01 169.624C717.546 169.522 718.056 170.083 718.158 170.848Z" fill="#060633"/>
<path d="M726.522 182.604C723.717 182.604 721.498 180.896 721.473 180.87C721.371 180.794 721.371 180.666 721.447 180.564C721.524 180.462 721.651 180.462 721.753 180.539C721.932 180.692 726.114 183.956 730.27 180.947C730.372 180.87 730.5 180.896 730.576 180.998C730.653 181.1 730.627 181.227 730.525 181.304C729.174 182.247 727.771 182.604 726.522 182.604Z" fill="#020202"/>
<path d="M730.704 182.171C730.551 182.145 730.474 182.043 730.474 181.916C730.5 181.584 730.423 181.049 729.837 180.258C729.811 180.233 729.811 180.207 729.786 180.207C729.709 180.105 729.76 179.978 729.862 179.901C729.964 179.825 730.092 179.876 730.168 179.978L730.194 180.003C730.729 180.743 730.959 181.406 730.908 181.967C730.908 182.094 730.831 182.171 730.704 182.171Z" fill="#020202"/>
<path d="M713.874 180.232C713.084 180.232 712.293 180.002 711.554 179.543C709.539 178.294 708.137 175.489 707.78 172.046C707.193 166.462 709.59 160.852 713.109 159.577C714.41 159.092 715.736 159.245 716.934 159.985C718.949 161.234 720.351 164.039 720.708 167.482C721.295 173.066 718.898 178.676 715.379 179.951C714.869 180.13 714.384 180.232 713.874 180.232ZM714.614 159.959C714.18 159.959 713.772 160.036 713.339 160.189C710.075 161.387 707.882 166.666 708.443 171.97C708.774 175.208 710.075 177.809 711.911 178.957C712.931 179.594 714.053 179.722 715.175 179.314C718.439 178.115 720.632 172.837 720.071 167.533C719.739 164.294 718.439 161.693 716.603 160.546C715.965 160.163 715.302 159.959 714.614 159.959Z" fill="white"/>
<g opacity="0.3">
<path opacity="0.3" d="M738.175 167.558C738.277 172.888 735.268 177.988 731.468 178.931C727.669 179.875 724.507 176.305 724.405 170.95C724.303 165.62 727.312 160.52 731.111 159.577C734.911 158.633 738.073 162.203 738.175 167.558Z" fill="white"/>
</g>
<g opacity="0.3">
<path opacity="0.3" d="M720.758 167.916C720.86 173.271 718.157 178.524 714.715 179.595C711.272 180.691 708.416 177.223 708.314 171.843C708.212 166.488 710.915 161.235 714.358 160.164C717.8 159.093 720.656 162.561 720.758 167.916Z" fill="white"/>
</g>
<path d="M729.99 179.16C728.791 179.16 727.644 178.752 726.649 177.987C724.66 176.457 723.462 173.652 723.385 170.337C723.258 164.625 726.547 159.168 730.729 158.174C732.412 157.766 734.044 158.123 735.421 159.194C737.41 160.724 738.609 163.529 738.685 166.844C738.813 172.556 735.523 178.013 731.341 179.007C730.882 179.109 730.423 179.16 729.99 179.16ZM732.055 158.658C731.673 158.658 731.265 158.709 730.882 158.811C726.981 159.729 723.921 164.906 724.048 170.312C724.125 173.397 725.247 176.075 727.057 177.452C728.281 178.395 729.709 178.701 731.188 178.344C735.09 177.426 738.15 172.25 738.022 166.844C737.946 163.758 736.824 161.081 735.013 159.704C734.095 159.015 733.101 158.658 732.055 158.658Z" fill="white"/>
<path d="M724.813 169.828C724.736 169.828 724.66 169.802 724.583 169.777C721.982 168.68 720.121 169.624 720.121 169.624C719.815 169.777 719.458 169.675 719.279 169.369C719.126 169.063 719.228 168.706 719.534 168.527C719.636 168.476 721.931 167.303 725.068 168.629C725.374 168.757 725.527 169.114 725.399 169.445C725.272 169.675 725.042 169.828 724.813 169.828Z" fill="white"/>
<path d="M756.305 162.611L756.152 162.305C758.677 161.03 758.039 158.25 758.014 158.225L758.345 158.148C758.371 158.174 759.085 161.208 756.305 162.611Z" fill="#66192D"/>
<path d="M758.142 166.309C758.117 166.283 756.765 164.218 755.312 163.886L755.388 163.555C756.995 163.912 758.372 166.028 758.448 166.13L758.142 166.309Z" fill="#66192D"/>
<g opacity="0.5">
<path opacity="0.5" d="M685.288 180.334H637.246C635.869 180.334 634.747 179.212 634.747 177.835V150.091C634.747 148.714 635.869 147.592 637.246 147.592H685.288C686.665 147.592 687.787 148.714 687.787 150.091V177.835C687.787 179.212 686.665 180.334 685.288 180.334Z" fill="#FF443C"/>
</g>
<path d="M674.629 171.333H626.587C625.21 171.333 624.088 170.211 624.088 168.834V141.09C624.088 139.713 625.21 138.591 626.587 138.591H674.629C676.006 138.591 677.128 139.713 677.128 141.09V168.834C677.153 170.211 676.006 171.333 674.629 171.333Z" fill="#FF443C"/>
<path d="M674.169 210.423V210.449C674.041 211.29 673.939 212.234 673.837 213.305C673.633 215.472 673.48 218.099 673.429 221.057H646.654C646.807 212.999 647.598 207.491 647.649 207.134L649.842 207.414L660.475 208.74L660.883 208.791L661.393 208.868L673.327 210.347L674.169 210.423Z" fill="#F18C7E"/>
<path d="M647.598 207.134C647.598 207.134 647.955 190.075 650.607 187.168C653.233 184.286 673.174 186.505 674.679 190.636C676.158 194.741 674.194 210.424 674.194 210.424L647.598 207.134Z" fill="#F18C7E"/>
<path d="M659.303 215.498C659.175 215.498 659.048 215.396 659.048 215.269C659.048 215.192 658.971 213.458 659.303 211.546C659.762 208.919 660.756 207.364 662.261 206.93C667.82 205.273 670.905 202.009 670.931 201.958C671.033 201.856 671.186 201.856 671.288 201.932C671.39 202.034 671.39 202.187 671.313 202.289C671.186 202.417 668.1 205.706 662.414 207.389C659.252 208.333 659.558 215.167 659.558 215.218C659.583 215.371 659.456 215.498 659.303 215.498C659.328 215.498 659.328 215.498 659.303 215.498Z" fill="#E08B65"/>
<path d="M675.19 194.512C675.19 194.512 676.006 168.069 673.277 167.635C669.274 166.972 667.693 177.937 667.004 185.893C666.341 193.824 675.19 194.512 675.19 194.512Z" fill="#F18C7E"/>
<path d="M665.525 179.671C666.978 179.926 668.406 179.467 669.095 187.551C669.426 191.58 669.707 204.305 665.907 203.642C662.108 203.004 660.807 188.596 660.807 188.596C660.807 188.596 660.884 205.121 657.569 203.387C654.254 201.653 652.979 188.596 652.979 188.596C652.979 188.596 653.973 204.687 650.174 202.596C646.374 200.505 645.201 191.937 645.533 188.265C645.941 183.675 649.281 183.394 652.877 183.165C652.877 183.165 656.421 180.972 658.767 181.38C659.609 181.533 662.72 179.187 665.525 179.671Z" fill="#FDAD9B"/>
<path d="M673.838 213.331C673.838 213.331 677.612 210.22 680.111 204.202C682.61 198.158 688.195 192.242 686.588 189.871C684.982 187.474 677.025 192.803 674.399 198.184C671.798 203.513 673.838 213.331 673.838 213.331Z" fill="#F18C7E"/>
<path d="M786.906 217.691V222.944C786.906 224.882 785.325 226.463 783.387 226.463H611.823C609.885 226.463 608.304 224.882 608.304 222.944V219.451C629.061 219.119 746.335 218.074 786.906 217.691Z" fill="#FF443C"/>
<path d="M773.907 221.424L619.505 222.277L619.512 223.654L773.915 222.801L773.907 221.424Z" fill="#C8C1E1"/>
<path d="M697.044 221.822L696.865 223.199L619.498 223.633V222.256L697.044 221.822Z" fill="#FF8548"/>
<path d="M694.392 222.511C694.392 221.236 695.412 220.216 696.687 220.216C697.962 220.216 698.982 221.236 698.982 222.511C698.982 223.786 697.962 224.806 696.687 224.806C695.412 224.806 694.392 223.786 694.392 222.511Z" fill="#FF8548"/>
<path d="M763.471 134.103C763.471 133.16 764.236 132.395 765.179 132.395C766.123 132.395 766.888 133.16 766.888 134.103C766.888 135.047 766.123 135.812 765.179 135.812C764.236 135.812 763.471 135.047 763.471 134.103Z" fill="#FFBA41"/>
<path d="M769.616 134.103C769.616 133.16 770.381 132.395 771.325 132.395C772.268 132.395 773.033 133.16 773.033 134.103C773.033 135.047 772.268 135.812 771.325 135.812C770.381 135.812 769.616 135.047 769.616 134.103Z" fill="#F22525"/>
<path d="M775.94 134.103C775.94 133.16 776.705 132.395 777.649 132.395C778.592 132.395 779.357 133.16 779.357 134.103C779.357 135.047 778.592 135.812 777.649 135.812C776.68 135.812 775.94 135.047 775.94 134.103Z" fill="#553E93"/>
<path d="M652.929 160.392L654.688 156.261C654.943 155.7 655.632 155.496 656.142 155.853L658.488 157.562C659.023 157.944 659.788 157.689 659.967 157.077L661.318 152.742C661.471 152.232 662.032 151.926 662.568 152.13L663.868 152.589C664.276 152.717 664.71 152.589 664.965 152.258L665.169 151.977C665.73 151.238 666.903 151.62 666.903 152.564V160.826C666.903 161.362 666.469 161.795 665.934 161.795H653.821C653.133 161.744 652.674 161.03 652.929 160.392Z" fill="#FF8548"/>
<path d="M667.642 164.448H667.617L631.534 163.861C630.591 163.836 629.826 163.122 629.749 162.178L629.01 151.698C628.984 151.188 629.137 150.729 629.469 150.346C629.8 149.964 630.259 149.76 630.769 149.76L667.591 149.071C668.076 149.071 668.535 149.25 668.892 149.581C669.249 149.913 669.427 150.372 669.427 150.882V162.663C669.427 163.147 669.223 163.606 668.892 163.963C668.586 164.269 668.127 164.448 667.642 164.448ZM667.642 149.428H667.617L630.795 150.117C630.387 150.117 630.03 150.295 629.749 150.601C629.469 150.907 629.341 151.29 629.367 151.698L630.106 162.178C630.157 162.943 630.769 163.53 631.534 163.53L667.617 164.116C668.025 164.116 668.382 163.963 668.662 163.708C668.943 163.453 669.096 163.071 669.096 162.663V150.882C669.096 150.499 668.943 150.117 668.662 149.836C668.407 149.556 668.05 149.428 667.642 149.428Z" fill="#FECAFF"/>
<path d="M646.936 157.792H633.88C633.6 157.792 633.141 157.486 633.115 157.205C633.039 156.619 633.6 156.466 633.88 156.466L646.936 156.746C647.217 156.746 647.446 156.976 647.446 157.256C647.446 157.562 647.217 157.792 646.936 157.792Z" fill="#FECAFF"/>
<path d="M643.544 155.344H633.701C633.497 155.344 633.14 155.115 633.115 154.885C633.064 154.426 633.472 154.273 633.701 154.273L643.544 154.503C643.748 154.503 643.927 154.681 643.927 154.911C643.927 155.166 643.748 155.344 643.544 155.344Z" fill="#FECAFF"/>
<path d="M643.544 160.265H633.701C633.497 160.265 633.14 160.036 633.115 159.806C633.064 159.347 633.472 159.194 633.701 159.194L643.544 159.424C643.748 159.424 643.927 159.602 643.927 159.832C643.927 160.087 643.748 160.265 643.544 160.265Z" fill="#FECAFF"/>
<path d="M643.417 143.639H630.361C630.08 143.639 629.621 143.333 629.596 143.053C629.519 142.466 630.08 142.313 630.361 142.313L643.417 142.594C643.697 142.594 643.927 142.823 643.927 143.104C643.927 143.41 643.697 143.639 643.417 143.639Z" fill="#FECAFF"/>
<path d="M640.026 146.113H630.183C629.953 146.113 629.622 145.884 629.596 145.654C629.545 145.195 629.953 145.042 630.183 145.042L640.026 145.272C640.255 145.272 640.408 145.45 640.408 145.68C640.434 145.909 640.255 146.113 640.026 146.113Z" fill="#FECAFF"/>
<path d="M667.565 298.043C668.483 299.7 677.816 314.133 675.853 328.235L665.704 324.563L661.062 305.54L667.565 298.043Z" fill="#FDAD9B"/>
<path d="M627.071 292.127C627.071 292.127 633.293 280.958 648.465 284.044C663.638 287.129 671.9 308.855 667.794 351.848C667.794 351.848 643.697 342.26 612.357 349.987C612.357 349.987 617.508 308.345 627.071 292.127Z" fill="#FF8548"/>
<path d="M615.494 287.613L626.153 298.247C626.153 298.247 653.489 305.642 661.088 305.54C668.687 305.463 671.671 299.904 671.671 299.904C671.671 299.904 665.27 289.755 652.291 285.165C651.067 284.732 649.792 284.349 648.466 284.018C646.222 283.482 643.952 283.176 641.683 283.023C628.27 282.258 615.494 287.613 615.494 287.613Z" fill="#FF8548"/>
<path d="M615.494 287.613C613.785 289.475 616.412 291.489 619.37 294.422C622.302 297.354 625.362 299.063 626.153 298.247C626.969 297.431 625.235 294.371 622.277 291.438C619.344 288.506 616.284 286.746 615.494 287.613Z" fill="#66192D"/>
<path d="M624.726 298.298C624.726 298.298 624.879 296.181 622.201 293.453C620.595 291.821 618.555 290.75 617.178 290.163C616.362 289.806 615.418 290.214 615.112 291.03L614.245 293.223L618.223 295.773L624.726 298.298Z" fill="#FDAD9B"/>
<path d="M643.57 337.72C643.57 337.72 610.675 319.896 598.894 339.352C590.173 353.734 603.28 367.147 651.934 365.796C651.934 365.796 656.753 363.552 655.58 351.847C655.121 347.206 643.57 337.72 643.57 337.72Z" fill="#786AB5"/>
<path d="M643.57 337.721C643.57 337.721 687.379 319.769 696.049 330.989C706.02 343.892 696.457 365.771 650.277 357.942L644.641 351.822L643.57 337.721Z" fill="#786AB5"/>
<path d="M652.01 365.848L651.908 365.695C657.008 362.048 655.631 352.69 655.529 351.899L622.328 339.812L622.379 339.634L655.682 351.746V351.797C655.682 351.925 657.391 361.997 652.01 365.848Z" fill="#020202"/>
<path d="M655.861 355.061C655.861 355.061 663.945 355.392 667.719 357.254C671.518 359.115 669.478 363.654 661.777 363.527C654.076 363.399 654.663 362.252 654.663 362.252C654.663 362.252 656.142 358.274 655.861 355.061Z" fill="#66192D"/>
<path d="M645.534 338.562C648.211 338.562 650.404 337.874 652.189 336.548C655.555 334.023 656.167 329.969 655.683 327.266L652.47 325.404C652.317 324.512 646.095 327.801 646.12 327.801C646.095 327.801 643.162 328.668 632.988 323.466C625.899 319.845 622.329 314.72 622.074 307.758C621.87 302.531 624.216 299.573 624.751 298.298C624.828 298.119 621.334 294.626 621.436 294.269L618.81 292.943C618.886 292.637 616.285 291.617 616.336 291.54L614.322 293.274C613.327 295.595 611.21 300.899 611.465 308.192C611.746 315.791 614.883 326.246 628.194 333.054C635.436 336.726 641.122 338.562 645.534 338.562Z" fill="#FDAD9B"/>
<path d="M647.7 338.996H676.082C676.668 338.996 677.204 338.613 677.382 338.052L683.273 320.432C683.579 319.539 682.916 318.621 681.972 318.621H654.662C653.412 318.621 652.316 319.412 651.933 320.585L646.374 337.185C646.094 338.078 646.757 338.996 647.7 338.996Z" fill="#66192D"/>
<path d="M649.46 338.996H677.841C678.428 338.996 678.963 338.613 679.142 338.052L685.032 320.432C685.338 319.539 684.675 318.621 683.732 318.621H656.421C655.172 318.621 654.075 319.412 653.693 320.585L648.134 337.185C647.853 338.078 648.542 338.996 649.46 338.996Z" fill="#66192D"/>
<path d="M669.35 328.235C669.35 327.572 668.585 327.291 667.897 327.291C667.234 327.291 666.112 328.031 666.137 328.974C666.137 329.994 666.928 330.122 667.616 330.122C668.305 330.122 669.35 329.102 669.35 328.235Z" fill="#FECAFF"/>
<path d="M639.031 336.497H677.867V338.996H638.215C637.756 338.996 637.373 338.614 637.373 338.155C637.373 337.237 638.113 336.497 639.031 336.497Z" fill="#66192D"/>
<path d="M651.5 327.546L651.321 327.495C651.372 327.291 652.724 322.191 653.642 320.559C654.56 318.902 655.707 318.57 655.758 318.545L655.809 318.723C655.809 318.723 654.687 319.055 653.82 320.636C652.902 322.268 651.5 327.495 651.5 327.546Z" fill="#553E93"/>
<path d="M647.292 336.599V336.42C648.21 336.42 648.465 336.038 648.465 336.038L650.658 329.459L650.836 329.51L648.618 336.114C648.618 336.14 648.337 336.599 647.292 336.599Z" fill="#553E93"/>
<path d="M620.008 323.288C619.906 323.288 619.804 323.262 619.702 323.237C619.09 323.084 618.427 322.472 617.942 321.63C617.228 320.381 617.203 319.08 617.891 318.672C618.095 318.545 618.376 318.519 618.656 318.596C619.268 318.749 619.931 319.361 620.416 320.202C621.13 321.452 621.155 322.752 620.467 323.16C620.339 323.262 620.186 323.288 620.008 323.288ZM618.274 321.477C618.682 322.217 619.294 322.752 619.804 322.905C620.008 322.956 620.161 322.956 620.288 322.88C620.798 322.599 620.696 321.452 620.11 320.406C619.702 319.667 619.09 319.131 618.58 318.978C618.376 318.927 618.223 318.927 618.095 319.004C617.585 319.31 617.662 320.432 618.274 321.477Z" fill="#E08B65"/>
<path d="M641.453 283.024C643.315 282.973 644.743 282.769 645.814 281.519L649.129 277.618L650.098 276.47L655.784 269.789L652.801 277.618L651.016 282.31L650.455 283.789C650.072 284.809 650.582 285.268 650.939 286.441C651.092 286.925 652.061 289.858 649.511 289.883C646.324 289.909 642.32 286.211 641.428 283.024C641.428 283.024 641.428 283.024 641.453 283.024Z" fill="#FDAD9B"/>
<path d="M648.211 275.118C648.211 275.118 641.963 269.1 645.559 264.026C649.18 258.951 650.072 272.16 650.072 272.16L649.052 275.22L648.211 275.118Z" fill="#66192D"/>
<path d="M649.154 277.49C649.154 277.541 649.129 277.592 649.129 277.618C648.542 280.244 650.99 282.31 650.99 282.31H651.016L652.801 277.618C652.036 277.057 650.914 276.368 650.098 276.496C649.664 276.547 649.333 276.827 649.154 277.49Z" fill="#66192D"/>
<path d="M662.415 274.226C663.817 269.534 661.828 264.765 657.978 263.567C654.127 262.394 649.843 265.224 648.441 269.942C647.038 274.634 649.027 279.402 652.878 280.601C656.728 281.774 660.987 278.918 662.415 274.226Z" fill="#FDAD9B"/>
<path d="M649.742 269.253C649.742 269.253 651.73 270.707 653.413 269.483C655.096 268.259 656.269 267.086 659.992 268.973C663.741 270.86 667.821 270.018 668.586 267.902C669.351 265.785 667.566 264.153 665.22 264.255C662.874 264.357 665.704 263.082 664.072 260.838C662.44 258.62 658.284 260.915 656.244 259.793C654.179 258.696 646.86 257.727 645.56 264L649.742 269.253Z" fill="#66192D"/>
<path d="M648.186 270.503C648.67 271.242 649.588 271.497 650.251 271.064C650.914 270.63 651.042 269.687 650.557 268.947C650.073 268.208 649.155 267.953 648.492 268.386C647.854 268.82 647.701 269.763 648.186 270.503Z" fill="#FDAD9B"/>
<path d="M664.455 267.162C662.874 267.162 660.757 265.249 660.655 265.147L660.834 264.943C660.859 264.969 663.358 267.213 664.786 266.83C665.347 266.703 665.653 266.422 665.602 266.142C665.551 265.861 665.169 265.632 664.608 265.683C663.384 265.81 662.721 265.402 662.695 265.377L662.848 265.147C662.848 265.147 663.46 265.53 664.582 265.402C665.322 265.326 665.806 265.708 665.883 266.091C665.934 266.422 665.704 266.881 664.863 267.085C664.735 267.136 664.608 267.162 664.455 267.162Z" fill="white"/>
<path d="M658.003 261.91C657.493 261.91 656.957 261.833 656.447 261.629C655.784 261.374 655.223 261.068 654.688 260.788C653.617 260.227 652.699 259.742 651.704 259.946L651.653 259.666C652.75 259.462 653.693 259.946 654.815 260.533C655.351 260.813 655.912 261.119 656.549 261.374C658.462 262.114 660.68 261.043 660.808 260.915L661.012 261.094C660.884 261.247 659.507 261.91 658.003 261.91Z" fill="white"/>
<path d="M647.446 263.694C647.395 263.694 647.37 263.694 647.344 263.668C647.242 263.643 647.115 263.515 647.191 263.184L647.217 263.133C647.37 262.903 648.16 261.832 648.721 262.189C648.798 262.24 648.951 262.368 648.798 262.648C648.594 263.031 647.88 263.694 647.446 263.694ZM647.446 263.286C647.421 263.388 647.446 263.413 647.446 263.413C647.523 263.439 647.905 263.26 648.288 262.852C648.543 262.572 648.568 262.444 648.568 262.419C648.339 262.291 647.778 262.852 647.446 263.286Z" fill="white"/>
<path d="M656.83 272.313C656.881 272.313 656.906 272.288 656.932 272.237C656.983 272.16 656.957 272.084 656.881 272.033C656.83 272.007 655.912 271.37 654.918 272.211C654.867 272.262 654.841 272.364 654.892 272.415C654.943 272.492 655.02 272.466 655.096 272.441C655.836 272.058 656.677 272.262 656.728 272.288C656.753 272.313 656.779 272.313 656.83 272.313Z" fill="#060633"/>
<path d="M655.453 273.792C655.402 274.149 655.555 274.455 655.81 274.506C656.065 274.557 656.32 274.302 656.371 273.945C656.422 273.588 656.269 273.282 656.014 273.231C655.759 273.18 655.504 273.435 655.453 273.792Z" fill="#060633"/>
<path d="M661.981 274.175C662.006 274.175 662.057 274.175 662.083 274.15C662.134 274.099 662.159 273.997 662.108 273.946C662.083 273.92 661.649 273.002 660.655 273.487C660.604 273.512 660.553 273.589 660.578 273.665C660.604 273.742 660.655 273.767 660.706 273.742C661.343 273.64 661.879 274.099 661.904 274.124C661.955 274.15 661.955 274.175 661.981 274.175Z" fill="#060633"/>
<path d="M660.145 275.016C659.966 275.322 659.992 275.679 660.196 275.807C660.425 275.934 660.731 275.807 660.935 275.501C661.114 275.195 661.088 274.838 660.884 274.71C660.655 274.583 660.323 274.71 660.145 275.016Z" fill="#060633"/>
<path d="M655.886 278.765C654.994 278.765 653.642 278.51 652.852 277.082C652.826 277.031 652.852 276.98 652.903 276.929C652.954 276.903 653.005 276.929 653.056 276.98C654.254 279.071 656.728 278.459 656.753 278.459C656.804 278.433 656.855 278.484 656.881 278.535C656.906 278.586 656.855 278.637 656.804 278.663C656.779 278.663 656.422 278.765 655.886 278.765Z" fill="#020202"/>
<path d="M652.648 277.465H652.622C652.571 277.439 652.546 277.388 652.546 277.337C652.622 277.082 652.852 276.827 653.234 276.623H653.26C653.311 276.598 653.362 276.598 653.413 276.649C653.438 276.7 653.438 276.751 653.387 276.802C653.387 276.802 653.362 276.802 653.362 276.827C652.954 277.057 652.826 277.286 652.775 277.414C652.75 277.414 652.699 277.465 652.648 277.465Z" fill="#020202"/>
<path d="M664.381 299.47L663.945 299.613L665.619 304.7L666.055 304.557L664.381 299.47Z" fill="#66192D"/>
<path d="M660.961 280.04C660.426 280.04 659.941 279.836 659.559 279.454C658.309 278.204 658.36 275.348 659.686 273.053C660.502 271.651 661.65 270.707 662.746 270.58C663.409 270.503 663.996 270.682 664.455 271.141C665.704 272.39 665.653 275.246 664.327 277.541C663.511 278.944 662.364 279.887 661.267 280.015C661.165 280.04 661.063 280.04 660.961 280.04ZM663.052 270.886C662.976 270.886 662.874 270.886 662.797 270.911C661.803 271.039 660.732 271.906 659.967 273.232C658.717 275.399 658.64 278.102 659.788 279.25C660.17 279.632 660.681 279.811 661.242 279.734C662.236 279.607 663.307 278.74 664.072 277.414C665.322 275.246 665.398 272.543 664.251 271.396C663.894 271.039 663.486 270.886 663.052 270.886Z" fill="white"/>
<g opacity="0.3">
<path opacity="0.3" d="M652.266 269.713C651.195 271.982 651.501 274.762 652.929 275.884C654.357 277.031 656.397 276.113 657.468 273.818C658.539 271.549 658.233 268.769 656.805 267.647C655.351 266.525 653.311 267.443 652.266 269.713Z" fill="white"/>
</g>
<g opacity="0.3">
<path opacity="0.3" d="M659.584 273.257C658.513 275.552 658.666 278.306 659.916 279.454C661.165 280.601 663.052 279.658 664.123 277.363C665.194 275.068 665.041 272.314 663.792 271.166C662.542 270.044 660.655 270.962 659.584 273.257Z" fill="white"/>
</g>
<path d="M654.509 276.496C653.948 276.496 653.413 276.317 652.954 275.935C651.373 274.685 651.016 271.727 652.163 269.279C652.826 267.851 653.872 266.908 655.045 266.627C655.835 266.449 656.6 266.602 657.238 267.112C658.818 268.361 659.176 271.319 658.028 273.767C657.365 275.195 656.32 276.139 655.147 276.419C654.943 276.47 654.713 276.496 654.509 276.496ZM655.682 266.882C655.504 266.882 655.325 266.908 655.121 266.959C654.076 267.214 653.081 268.132 652.469 269.458C651.373 271.753 651.679 274.583 653.158 275.731C653.719 276.164 654.382 276.317 655.07 276.139C656.116 275.884 657.11 274.966 657.722 273.64C658.819 271.345 658.513 268.514 657.034 267.367C656.626 267.061 656.167 266.882 655.682 266.882Z" fill="white"/>
<path d="M659.763 274.226C659.686 274.226 659.584 274.175 659.533 274.124C659.507 274.099 658.895 273.359 657.595 273.308C657.442 273.308 657.314 273.181 657.314 273.002C657.314 272.849 657.442 272.722 657.62 272.722C659.201 272.773 659.966 273.716 659.992 273.767C660.094 273.895 660.069 274.073 659.941 274.175C659.89 274.201 659.839 274.226 659.763 274.226Z" fill="white"/>
<path d="M547.46 233.935C547.46 233.935 535.73 249.082 536.521 260.812C537.311 272.516 551.209 263.158 551.209 263.158L552.407 235.414L547.46 233.935Z" fill="#FDAD9B"/>
<path d="M531.395 338.816C531.395 338.816 531.497 342.258 529.228 343.355C526.958 344.451 520.252 345.701 522.904 347.766C524.408 348.965 531.191 347.766 533.104 347.664C535.016 347.562 536.878 348.302 538.229 346.925C539.734 345.42 537.77 338.459 537.77 338.459C537.77 338.459 536.164 339.402 534.659 339.453C532.492 339.53 531.395 338.816 531.395 338.816Z" fill="#66192D"/>
<path d="M510.434 338.791C510.434 338.791 510.536 342.233 508.267 343.33C505.997 344.426 499.291 345.676 501.943 347.741C503.447 348.94 510.23 347.741 512.143 347.639C514.055 347.537 515.917 348.277 517.268 346.9C518.773 345.395 516.809 338.434 516.809 338.434C516.809 338.434 515.203 339.377 513.698 339.428C511.556 339.505 510.434 338.791 510.434 338.791Z" fill="#66192D"/>
<path d="M507.935 333.105C509.643 310.537 510.051 295.314 517.166 285.547C524.969 274.837 545.93 267.264 554.013 266.805C567.171 266.04 573.393 268.003 573.393 268.003C583.287 288.556 567.783 291.285 556.334 291.846C555.951 291.871 555.569 291.897 555.186 291.897C548.25 292.33 535.908 294.09 531.242 300.975C527.544 306.432 524.994 314.082 523.898 333.844C523.694 337.644 520.506 340.576 516.707 340.474C516.732 340.5 507.323 341.214 507.935 333.105Z" fill="#553E93"/>
<path d="M526.627 334.252C526.398 311.633 525.709 300.082 532.492 290.06C536.853 283.609 543.406 278.764 552 275.602C558.12 273.358 565.311 271.981 573.394 271.497C586.552 270.732 592.494 269.125 592.494 269.125C603.153 295.441 564.163 289.857 554.014 301.076C549.603 305.972 544.12 315.254 543.024 335.017C542.82 338.816 539.632 341.749 535.833 341.647C535.833 341.672 526.704 342.539 526.627 334.252Z" fill="#553E93"/>
<path d="M526.703 312.042H526.55C526.55 311.914 527.238 298.45 529.482 293.733C532.338 287.765 540.651 281.543 549.219 278.917L549.27 279.07C540.728 281.671 532.491 287.868 529.635 293.784C527.366 298.476 526.703 311.914 526.703 312.042Z" fill="#020202"/>
<path d="M583.135 227.381C583.135 227.381 577.525 217.793 564.622 220.751C551.693 223.684 546.44 236.893 545.522 268.564C545.522 268.564 557.482 268.13 588.898 278.534C592.621 279.758 598.078 278.789 596.165 272.44C592.595 260.659 589.153 237.148 583.135 227.381Z" fill="#FF443C"/>
<path d="M597.338 230.161L584.053 232.66C584.053 232.66 560.822 239.52 554.32 239.596C547.817 239.647 545.114 234.904 545.114 234.904C545.114 234.904 550.367 226.005 561.358 221.797C562.378 221.389 563.474 221.058 564.596 220.752C566.509 220.242 568.447 219.808 570.385 219.783C592.315 219.528 597.338 230.161 597.338 230.161Z" fill="#FF443C"/>
<path d="M597.338 230.161C597.618 231.206 594.839 232.965 591.116 234.062C587.393 235.158 584.155 235.209 583.849 234.164C583.568 233.118 586.348 231.359 590.071 230.262C593.793 229.166 597.057 229.115 597.338 230.161Z" fill="#66192D"/>
<path d="M570.359 219.782C568.931 219.91 567.554 219.247 566.763 218.074L564.264 214.376L563.55 213.305L559.292 207.007L561.153 214.019L562.275 218.227L562.607 219.425C562.862 220.394 562.352 221.414 561.383 221.771H561.357C561 222.74 560.592 224.602 562.913 224.882C565.616 225.239 569.364 222.434 570.359 219.782C570.384 219.782 570.384 219.782 570.359 219.782Z" fill="#FDAD9B"/>
<path d="M567.121 204.278C567.121 204.278 567.07 205.502 568.192 207.772C569.849 211.087 566.126 213.305 564.902 212.515C564.749 212.413 563.78 206.42 563.78 206.42L564.928 205.426L567.121 204.278Z" fill="#66192D"/>
<path d="M564.265 214.249C564.265 214.3 564.265 214.326 564.291 214.377C564.546 216.697 562.302 218.253 562.302 218.253H562.276L561.154 214.045C561.843 213.637 562.863 213.153 563.551 213.331C563.908 213.382 564.189 213.688 564.265 214.249Z" fill="#66192D"/>
<path d="M552.484 209.455C551.617 204.89 553.912 200.632 557.609 199.918C561.307 199.204 565.005 202.34 565.872 206.905C566.739 211.469 564.443 215.728 560.746 216.442C557.048 217.13 553.351 214.019 552.484 209.455Z" fill="#FDAD9B"/>
<path d="M555.34 202.366C555.569 202.596 555.34 207.033 563.398 206.548C571.456 206.064 564.928 197.419 559.063 198.312C550.622 199.587 550.469 205.452 551.668 207.339C552.841 209.2 555.34 202.366 555.34 202.366Z" fill="#66192D"/>
<path d="M566.458 194.843C566.458 194.843 563.372 197.878 566.509 199.586C569.645 201.295 577.321 200.836 575.995 204.992C574.669 209.123 573.955 215.039 577.754 215.039C581.554 215.039 583.823 214.325 585.863 216.952C587.903 219.578 594.227 216.518 593.029 213.152C591.83 209.786 596.956 205.63 593.896 202.901C590.836 200.173 584.333 198.515 582.038 194.639C579.769 190.712 568.982 192.472 566.458 194.843Z" fill="#66192D"/>
<path d="M562.25 205.349C562.25 205.349 566.1 208.129 565.641 211.801C565.641 211.801 567.121 209.404 567.019 208.639C566.917 207.874 565.896 205.222 565.896 205.222L562.25 205.349Z" fill="#66192D"/>
<path d="M565.208 208.333C564.596 209.2 563.55 209.48 562.862 208.945C562.199 208.409 562.148 207.287 562.76 206.42C563.372 205.553 564.417 205.273 565.106 205.808C565.794 206.344 565.845 207.466 565.208 208.333Z" fill="#FDAD9B"/>
<path d="M585.735 216.978C584.741 213.255 582.548 213.076 580.228 212.898C579.31 212.821 578.341 212.745 577.448 212.464C577.015 212.337 576.709 212.082 576.556 211.75C576.148 210.909 576.632 209.583 577.168 208.053C577.984 205.834 578.876 203.284 577.525 201.321C574.873 197.521 570.895 197.343 570.844 197.343C568.523 197.496 567.299 197.241 567.172 196.552C567.044 195.864 568.115 195.099 568.523 194.946C571.787 193.798 575.536 193.339 580.992 197.649C585.302 201.04 584.996 202.953 584.614 205.375C584.537 205.911 584.435 206.472 584.41 207.058C584.384 207.543 584.486 207.874 584.715 208.129C585.251 208.69 586.424 208.665 587.546 208.665C589.025 208.639 590.529 208.639 590.937 209.787C591.269 210.705 590.886 211.776 590.529 212.821C590.172 213.892 589.841 214.912 590.249 215.626C590.529 216.085 591.116 216.391 592.034 216.57L591.983 216.85C590.963 216.672 590.325 216.315 590.019 215.779C589.535 214.963 589.892 213.892 590.274 212.745C590.606 211.75 590.963 210.705 590.682 209.889C590.351 208.92 588.999 208.92 587.546 208.945C586.348 208.971 585.123 208.971 584.511 208.333C584.231 208.027 584.103 207.594 584.129 207.058C584.18 206.446 584.257 205.885 584.333 205.35C584.69 203.029 584.97 201.168 580.814 197.878C575.459 193.645 571.787 194.104 568.6 195.201C568.217 195.328 567.325 196.017 567.427 196.476C567.478 196.705 567.911 197.241 570.818 197.062C570.869 197.062 575 197.241 577.729 201.142C579.182 203.233 578.188 205.936 577.397 208.129C576.862 209.608 576.403 210.883 576.76 211.597C576.887 211.878 577.142 212.056 577.499 212.158C578.366 212.439 579.31 212.515 580.228 212.592C582.65 212.77 584.945 212.949 585.99 216.876L585.735 216.978Z" fill="white"/>
<path d="M562.021 204.075C559.522 204.075 557.915 202.341 557.89 202.341L558.068 202.162C558.094 202.188 560.006 204.228 562.888 203.743L562.939 203.998C562.633 204.049 562.327 204.075 562.021 204.075Z" fill="white"/>
<path d="M554.728 214.427C554.218 214.529 553.708 214.453 553.198 214.223C552.382 213.866 551.719 213.127 551.362 212.234C550.699 210.526 551.336 208.69 552.79 208.129C553.402 207.899 554.09 207.925 554.753 208.205C555.569 208.562 556.232 209.302 556.589 210.194C557.252 211.903 556.615 213.739 555.161 214.3C555.008 214.376 554.855 214.402 554.728 214.427ZM553.223 208.18C553.096 208.205 552.968 208.231 552.841 208.282C551.489 208.817 550.903 210.551 551.515 212.183C551.846 213.05 552.484 213.764 553.249 214.096C553.861 214.376 554.498 214.376 555.085 214.172C556.436 213.637 557.023 211.903 556.411 210.271C556.079 209.404 555.442 208.69 554.677 208.358C554.192 208.129 553.682 208.078 553.223 208.18Z" fill="#786AB5"/>
<path d="M561.027 212.285C560.517 212.387 560.007 212.311 559.497 212.081C558.681 211.724 558.018 210.985 557.661 210.092C556.998 208.384 557.635 206.548 559.089 205.987C559.701 205.757 560.389 205.783 561.052 206.063C561.868 206.42 562.531 207.16 562.888 208.052C563.551 209.761 562.914 211.597 561.46 212.158C561.307 212.234 561.154 212.26 561.027 212.285ZM559.522 206.038C559.395 206.063 559.267 206.089 559.14 206.14C557.788 206.675 557.202 208.409 557.814 210.041C558.145 210.908 558.783 211.622 559.548 211.954C560.16 212.234 560.797 212.234 561.384 212.03C562.735 211.495 563.322 209.761 562.71 208.129C562.378 207.262 561.741 206.548 560.976 206.216C560.491 205.987 560.007 205.936 559.522 206.038Z" fill="#786AB5"/>
<path d="M555.824 210.654C555.799 210.654 555.773 210.654 555.748 210.628C555.722 210.603 555.722 210.552 555.748 210.501C555.773 210.475 556.538 209.71 558.068 209.634C558.119 209.634 558.145 209.659 558.145 209.71C558.145 209.761 558.119 209.787 558.068 209.787C556.589 209.838 555.85 210.577 555.85 210.603C555.85 210.654 555.85 210.654 555.824 210.654Z" fill="#786AB5"/>
<path d="M556.513 214.224C556.513 214.224 558.808 213.841 560.95 212.617C560.95 212.617 561.562 214.836 559.114 215.448C557.686 215.805 556.513 214.224 556.513 214.224Z" fill="#DB6B49"/>
<path d="M556.513 214.224C556.513 214.224 557.15 214.581 558.451 214.326C559.751 214.071 560.95 212.592 560.95 212.592C560.95 212.592 558.323 213.892 556.513 214.224Z" fill="white"/>
<path d="M558.552 208.384C558.501 208.384 558.45 208.358 558.425 208.307C558.374 208.231 558.4 208.129 558.476 208.103C558.527 208.078 559.445 207.364 560.541 208.18C560.618 208.231 560.618 208.333 560.567 208.384C560.516 208.46 560.439 208.46 560.363 208.409C559.572 208.078 558.705 208.333 558.654 208.358C558.603 208.384 558.578 208.384 558.552 208.384Z" fill="#060633"/>
<path d="M560.082 209.837C560.159 210.194 560.006 210.526 559.751 210.602C559.496 210.653 559.215 210.424 559.139 210.067C559.062 209.71 559.215 209.378 559.47 209.302C559.725 209.225 559.98 209.48 560.082 209.837Z" fill="#060633"/>
<path d="M553.275 210.22C553.224 210.246 553.173 210.22 553.147 210.195C553.071 210.144 553.071 210.042 553.096 209.991C553.122 209.94 553.708 208.92 555.009 209.277C555.085 209.302 555.136 209.379 555.136 209.455C555.111 209.532 555.034 209.583 554.958 209.583C554.091 209.583 553.377 210.144 553.351 210.169C553.326 210.195 553.3 210.195 553.275 210.22Z" fill="#060633"/>
<path d="M555.237 210.959C555.441 211.265 555.441 211.622 555.212 211.775C554.982 211.928 554.651 211.8 554.421 211.494C554.217 211.188 554.217 210.831 554.447 210.678C554.676 210.551 555.008 210.678 555.237 210.959Z" fill="#060633"/>
<path d="M592.876 258.262C588.082 265.172 582.166 268.972 569.595 271.267L569.11 263.209C584.436 257.573 586.144 239.29 585.354 234.674C585.277 234.241 585.456 233.807 585.813 233.527C586.986 232.634 590.02 230.798 595.452 230.696C595.936 230.696 596.37 231.002 596.497 231.487C598.741 240.004 598.512 250.102 592.876 258.262Z" fill="#FDAD9B"/>
<g opacity="0.3">
<path opacity="0.3" d="M588.005 260.685C587.801 260.685 587.597 260.634 587.393 260.557C586.399 260.124 586.042 258.696 586.603 257.37C586.934 256.605 587.495 255.993 588.158 255.738C588.592 255.559 589.051 255.559 589.433 255.712C590.428 256.146 590.785 257.574 590.224 258.9C589.892 259.665 589.331 260.277 588.668 260.532C588.464 260.634 588.235 260.685 588.005 260.685ZM588.847 256.018C588.668 256.018 588.515 256.044 588.337 256.12C587.801 256.35 587.317 256.86 587.036 257.523C586.577 258.645 586.807 259.818 587.572 260.149C587.852 260.277 588.184 260.251 588.515 260.124C589.051 259.894 589.535 259.384 589.816 258.721C590.275 257.599 590.045 256.426 589.28 256.095C589.153 256.069 589 256.018 588.847 256.018Z" fill="#E08B65"/>
</g>
<path d="M569.11 263.209C569.11 263.209 561.639 262.775 559.726 264.382C557.788 265.988 556.539 269.482 557.941 268.742C559.344 268.003 560.874 266.575 560.874 266.575C560.874 266.575 557.737 269.813 558.808 270.221C559.879 270.629 562.582 267.799 562.582 267.799C562.582 267.799 559.165 271.93 560.287 272.006C561.435 272.057 564.01 268.895 564.01 268.895C564.01 268.895 560.976 272.873 562.302 272.899C563.628 272.924 564.775 269.584 565.872 269.992C566.943 270.4 570.028 272.746 571.507 269.89L569.11 263.209Z" fill="#FDAD9B"/>
<path d="M560.975 266.626L560.822 266.524C560.848 266.473 561.613 265.427 562.429 265.453V265.631H562.403C561.689 265.631 560.975 266.6 560.975 266.626Z" fill="#DD8964"/>
<path d="M562.684 267.824L562.531 267.722C562.557 267.671 563.271 266.651 564.418 266.447L564.444 266.626C563.398 266.804 562.684 267.799 562.684 267.824Z" fill="#DD8964"/>
<path d="M564.112 268.895L563.959 268.793C563.984 268.742 564.902 267.493 565.769 267.595L565.744 267.773C564.979 267.697 564.112 268.895 564.112 268.895Z" fill="#DD8964"/>
<path d="M561.077 274.684H536.317C535.807 274.684 535.348 274.352 535.169 273.868L530.018 258.491C529.763 257.726 530.35 256.91 531.166 256.91H554.983C556.079 256.91 557.023 257.599 557.38 258.619L562.225 273.103C562.48 273.893 561.893 274.684 561.077 274.684Z" fill="#66192D"/>
<path d="M559.522 274.685H534.761C534.251 274.685 533.792 274.353 533.614 273.869L528.463 258.492C528.208 257.727 528.794 256.911 529.61 256.911H553.427C554.524 256.911 555.467 257.6 555.824 258.62L560.669 273.104C560.924 273.894 560.338 274.685 559.522 274.685Z" fill="#66192D"/>
<path d="M542.182 265.3C542.182 264.714 542.845 264.484 543.431 264.484C544.018 264.484 544.987 265.122 544.961 265.938C544.961 266.83 544.273 266.932 543.686 266.932C543.1 266.932 542.182 266.04 542.182 265.3Z" fill="#FECAFF"/>
<path d="M568.625 272.517H534.735V274.684H569.339C569.747 274.684 570.078 274.353 570.078 273.945C570.078 273.154 569.415 272.517 568.625 272.517Z" fill="#66192D"/>
<path d="M557.762 264.688C557.762 264.637 556.538 260.098 555.748 258.67C554.983 257.267 554.014 256.987 554.014 256.987L554.065 256.834C554.116 256.834 555.085 257.14 555.901 258.593C556.691 260.021 557.89 264.458 557.941 264.637L557.762 264.688Z" fill="#553E93"/>
<path d="M561.434 272.593C560.516 272.593 560.287 272.185 560.287 272.16L558.349 266.371L558.502 266.32L560.44 272.083C560.44 272.083 560.644 272.415 561.46 272.415V272.593H561.434Z" fill="#553E93"/>
<path d="M599.454 129.997C599.454 129.997 598.459 138.718 600.448 138.641C602.437 138.565 606.492 134.842 614.397 135.683C622.302 136.55 631.966 138.565 638.137 128.365C644.308 118.165 631.023 114.773 631.023 114.773L599.454 129.997Z" fill="#553E93"/>
<path d="M616.335 129.87L576.249 131.986L575.484 130.176L614.627 102.993L653.489 99.627L654.177 101.233L616.335 129.87Z" fill="#786AB5"/>
<path d="M590.249 161.261C590.453 160.47 591.218 160.011 591.957 160.241C592.697 160.47 593.13 161.286 592.926 162.051C592.722 162.842 591.957 163.301 591.218 163.071C590.478 162.842 590.045 162.026 590.249 161.261Z" fill="#FF8548"/>
<path d="M591.473 161.643C590.019 161.541 589.841 175.439 589.841 175.439C589.841 175.439 590.784 175.898 591.243 175.796C591.702 175.694 591.932 173.807 591.932 173.807L592.008 175.77C592.008 175.77 593.589 175.821 594.125 175.413C594.099 175.413 593.742 161.822 591.473 161.643Z" fill="#FF8548"/>
<path d="M590.937 160.623L590.733 132.267C590.427 129.691 591.575 127.167 593.717 125.688L611.133 113.575C611.516 113.32 612.051 113.397 612.306 113.779C612.434 113.958 612.383 114.238 612.204 114.366L593.742 127.218C592.314 128.212 591.549 129.895 591.753 131.604L591.983 160.954L590.937 160.623Z" fill="#FF8548"/>
<g opacity="0.5">
<path opacity="0.5" d="M631.635 212.669H616.641C614.933 212.669 613.53 211.266 613.53 209.558V188.979C613.53 187.271 614.933 185.868 616.641 185.868H631.635C633.344 185.868 634.746 187.271 634.746 188.979V209.558C634.746 211.292 633.344 212.669 631.635 212.669Z" fill="#FF443C"/>
</g>
<path d="M630.743 194.972H617.687C617.407 194.972 616.948 194.666 616.922 194.385C616.846 193.799 617.407 193.646 617.687 193.646L630.743 193.926C631.024 193.926 631.253 194.156 631.253 194.436C631.253 194.717 631.024 194.972 630.743 194.972Z" fill="#FECAFF"/>
<path d="M627.352 192.498H617.509C617.279 192.498 616.948 192.268 616.922 192.039C616.871 191.58 617.279 191.427 617.509 191.427L627.352 191.656C627.556 191.656 627.734 191.835 627.734 192.064C627.76 192.319 627.581 192.498 627.352 192.498Z" fill="#FECAFF"/>
<path d="M627.352 197.42H617.509C617.279 197.42 616.948 197.19 616.922 196.961C616.871 196.502 617.279 196.349 617.509 196.349L627.352 196.578C627.556 196.578 627.734 196.757 627.734 196.986C627.76 197.241 627.581 197.42 627.352 197.42Z" fill="#FECAFF"/>
<path d="M630.743 204.789H617.687C617.407 204.789 616.948 204.483 616.922 204.202C616.846 203.616 617.407 203.463 617.687 203.463L630.743 203.743C631.024 203.743 631.253 203.973 631.253 204.253C631.253 204.559 631.024 204.789 630.743 204.789Z" fill="#FECAFF"/>
<path d="M627.352 202.342H617.509C617.279 202.342 616.948 202.112 616.922 201.883C616.871 201.424 617.279 201.271 617.509 201.271L627.352 201.5C627.556 201.5 627.734 201.679 627.734 201.908C627.76 202.163 627.581 202.342 627.352 202.342Z" fill="#FECAFF"/>
<path d="M627.352 207.262H617.509C617.279 207.262 616.948 207.033 616.922 206.803C616.871 206.344 617.279 206.191 617.509 206.191L627.352 206.421C627.556 206.421 627.734 206.599 627.734 206.829C627.76 207.084 627.581 207.262 627.352 207.262Z" fill="#FECAFF"/>
<rect x="433" y="377" width="431" height="84" fill="white" fill-opacity="0.72"/>
</svg>
