<svg width="638" height="398" viewBox="0 0 638 398" fill="none" xmlns="http://www.w3.org/2000/svg">
<path d="M368.286 339.733H368.346C368.745 339.733 369.084 339.394 369.064 338.996L367.967 291.555L364.737 291.177L367.489 338.996C367.529 339.414 367.867 339.733 368.286 339.733Z" fill="#B0D4FF"/>
<path d="M387.106 339.733H387.166C387.565 339.733 387.904 339.394 387.884 338.996L386.787 291.555L383.558 291.177L386.309 338.996C386.349 339.414 386.708 339.733 387.106 339.733Z" fill="#95C0F4"/>
<path d="M335.17 339.733H335.11C334.711 339.733 334.373 339.394 334.392 338.996L335.489 291.555L338.719 291.177L335.967 338.996C335.928 339.414 335.589 339.733 335.17 339.733Z" fill="#B0D4FF"/>
<path d="M389.26 288.61V256.093C389.26 250.382 384.615 245.745 378.893 245.745H355.426C349.704 245.745 345.059 250.382 345.059 256.093V289.844L389.26 288.61Z" fill="#B0D4FF"/>
<path d="M340.832 293.744H386.15C387.865 293.744 389.26 292.351 389.26 290.639V288.609H340.832V293.744Z" fill="#95C0F4"/>
<path d="M335.389 293.744H369.661C370.937 293.744 371.974 292.709 371.974 291.436V290.898C371.974 289.625 370.937 288.59 369.661 288.59H335.389C334.113 288.59 333.076 289.625 333.076 290.898V291.436C333.096 292.709 334.133 293.744 335.389 293.744Z" fill="#CAE5FF"/>
<path d="M414.38 117.51H279.104V234.064H414.38V117.51Z" fill="#95C0F4"/>
<path d="M411.749 119.44H281.677V231.736H411.749V119.44Z" fill="#DFEDFB"/>
<path d="M327.134 168.315H298.644V132.774L303.468 128.436H327.134V168.315Z" fill="white"/>
<path d="M298.644 132.774H303.309L303.468 128.436L298.644 132.774Z" fill="#B0D4FF"/>
<path d="M317.464 131.898H308.333V132.336H317.464V131.898Z" fill="#B0D4FF"/>
<path d="M319.598 133.191H306.18V133.629H319.598V133.191Z" fill="#B0D4FF"/>
<path d="M324.303 141.549H302.013V142.106H324.303V141.549Z" fill="#B0D4FF"/>
<path d="M324.303 143.241H302.013V143.798H324.303V143.241Z" fill="#B0D4FF"/>
<path d="M324.303 144.933H302.013V145.49H324.303V144.933Z" fill="#B0D4FF"/>
<path d="M324.303 146.624H302.013V147.181H324.303V146.624Z" fill="#B0D4FF"/>
<path d="M324.303 164.753H302.013V165.31H324.303V164.753Z" fill="#B0D4FF"/>
<path d="M360.051 217.587H331.561V182.066L336.385 177.728H360.051V217.587Z" fill="white"/>
<path d="M331.561 182.066H336.226L336.385 177.728L331.561 182.066Z" fill="#B0D4FF"/>
<path d="M350.362 181.17H341.23V181.608H350.362V181.17Z" fill="#B0D4FF"/>
<path d="M352.515 182.483H339.097V182.921H352.515V182.483Z" fill="#B0D4FF"/>
<path d="M357.22 190.842H334.93V191.399H357.22V190.842Z" fill="#B0D4FF"/>
<path d="M357.22 192.533H334.93V193.09H357.22V192.533Z" fill="#B0D4FF"/>
<path d="M357.22 194.225H334.93V194.782H357.22V194.225Z" fill="#B0D4FF"/>
<path d="M357.22 195.916H334.93V196.473H357.22V195.916Z" fill="#B0D4FF"/>
<path d="M357.22 201.13H334.93V201.687H357.22V201.13Z" fill="#B0D4FF"/>
<path d="M357.22 202.821H334.93V203.379H357.22V202.821Z" fill="#B0D4FF"/>
<path d="M357.22 204.792H334.93V205.349H357.22V204.792Z" fill="#B0D4FF"/>
<path d="M376.12 128.436H360.39V142.286H376.12V128.436Z" fill="#B0D4FF"/>
<path d="M367.587 130.087C367.587 129.709 367.886 129.391 368.285 129.391C368.683 129.391 368.983 129.689 368.983 130.087C368.983 130.465 368.683 130.784 368.285 130.784C367.886 130.784 367.587 130.465 367.587 130.087Z" fill="#FFA412"/>
<path d="M375.648 146.635L359.955 147.729L360.921 161.546L376.614 160.452L375.648 146.635Z" fill="white"/>
<path d="M367.268 149.729C367.248 149.35 367.527 149.012 367.906 148.992C368.284 148.972 368.623 149.251 368.643 149.629C368.663 150.007 368.384 150.345 368.005 150.365C367.626 150.385 367.307 150.107 367.268 149.729Z" fill="#B0D4FF"/>
<path d="M323.331 197.661L307.638 198.755L308.604 212.572L324.297 211.479L323.331 197.661Z" fill="white"/>
<path d="M314.972 200.752C314.952 200.374 315.231 200.036 315.61 200.016C315.988 199.996 316.327 200.274 316.347 200.652C316.367 201.031 316.088 201.369 315.709 201.389C315.331 201.409 314.992 201.13 314.972 200.752Z" fill="#B0D4FF"/>
<path d="M303.543 207.587L287.813 207.748L287.956 221.597L303.685 221.436L303.543 207.587Z" fill="white"/>
<path d="M295.056 210.185C295.056 209.807 295.355 209.488 295.734 209.488C296.112 209.488 296.431 209.787 296.431 210.165C296.431 210.543 296.132 210.861 295.753 210.861C295.355 210.881 295.056 210.563 295.056 210.185Z" fill="#B0D4FF"/>
<path d="M383.97 154.985L381.529 168.619L397.015 171.381L399.455 157.747L383.97 154.985Z" fill="#EEF6FF"/>
<path d="M390.795 158.125C390.855 157.807 391.174 157.588 391.493 157.648C391.812 157.707 392.031 158.026 391.971 158.344C391.911 158.662 391.592 158.881 391.273 158.822C390.955 158.762 390.735 158.443 390.795 158.125Z" fill="#78ACEA"/>
<path d="M351.106 146.357L335.467 148.047L336.96 161.817L352.599 160.128L351.106 146.357Z" fill="#EEF6FF"/>
<path d="M342.905 149.131C342.865 148.812 343.104 148.514 343.443 148.474C343.782 148.434 344.061 148.673 344.101 149.011C344.141 149.33 343.902 149.628 343.563 149.668C343.224 149.688 342.945 149.469 342.905 149.131Z" fill="#78ACEA"/>
<path d="M310.233 179.088L294.849 182.361L297.742 195.907L313.127 192.633L310.233 179.088Z" fill="#BAE8E3"/>
<path d="M302.631 183.061C302.352 182.882 302.272 182.504 302.451 182.225C302.631 181.946 303.01 181.867 303.289 182.046C303.568 182.225 303.648 182.603 303.468 182.882C303.289 183.16 302.91 183.24 302.631 183.061Z" fill="#FFA412"/>
<path d="M351.538 142.286H336.545V132.236L340.692 128.436H351.538V142.286Z" fill="white"/>
<path d="M336.465 132.236H340.552L340.692 128.436L336.465 132.236Z" fill="#B0D4FF"/>
<path d="M344.101 129.709C344.101 129.431 344.32 129.212 344.599 129.212C344.878 129.212 345.098 129.431 345.098 129.709C345.098 129.988 344.878 130.207 344.599 130.207C344.32 130.207 344.101 129.988 344.101 129.709Z" fill="#B0D4FF"/>
<path d="M395.301 224.512H380.328V214.463L384.475 210.662H395.301V224.512Z" fill="white"/>
<path d="M380.248 214.463H384.335L384.475 210.662L380.248 214.463Z" fill="#B0D4FF"/>
<path d="M387.864 211.956C387.864 211.677 388.084 211.458 388.363 211.458C388.642 211.458 388.861 211.677 388.861 211.956C388.861 212.234 388.642 212.453 388.363 212.453C388.084 212.433 387.864 212.214 387.864 211.956Z" fill="#B0D4FF"/>
<path d="M402.139 204.573H387.146V194.543L391.293 190.723H402.139V204.573Z" fill="white"/>
<path d="M387.066 194.543H391.174L391.293 190.723L387.066 194.543Z" fill="#B0D4FF"/>
<path d="M394.702 192.016C394.702 191.737 394.921 191.519 395.201 191.519C395.48 191.519 395.699 191.737 395.699 192.016C395.699 192.295 395.48 192.514 395.201 192.514C394.921 192.514 394.702 192.275 394.702 192.016Z" fill="#B0D4FF"/>
<path d="M382.362 204.573H367.389V194.543L371.536 190.723H382.362V204.573Z" fill="#BAE8E3"/>
<path d="M367.309 194.543H371.396L371.535 190.723L367.309 194.543Z" fill="#A1D6CE"/>
<path d="M374.925 192.016C374.925 191.737 375.144 191.519 375.423 191.519C375.702 191.519 375.922 191.737 375.922 192.016C375.922 192.295 375.702 192.514 375.423 192.514C375.144 192.514 374.925 192.275 374.925 192.016Z" fill="#F99746"/>
<path d="M406.366 138.823H391.373V128.774L395.52 124.973H406.366V138.823Z" fill="#BAE8E3"/>
<path d="M391.293 128.774H395.4L395.52 124.973L391.293 128.774Z" fill="#A1D6CE"/>
<path d="M398.929 126.247C398.929 125.968 399.148 125.749 399.427 125.749C399.706 125.749 399.926 125.968 399.926 126.247C399.926 126.525 399.706 126.744 399.427 126.744C399.148 126.744 398.929 126.525 398.929 126.247Z" fill="#F99746"/>
<path d="M258.23 114.684H229.74C228.424 114.684 227.367 113.609 227.367 112.315V84.8534C227.367 83.54 228.444 82.4854 229.74 82.4854H258.23C259.546 82.4854 260.603 83.5599 260.603 84.8534V112.296C260.603 113.609 259.526 114.684 258.23 114.684Z" fill="#C0D8FB"/>
<path d="M256.994 113.29H230.976C229.78 113.29 228.803 112.315 228.803 111.121V86.047C228.803 84.853 229.78 83.8779 230.976 83.8779H256.994C258.191 83.8779 259.168 84.853 259.168 86.047V111.121C259.168 112.315 258.191 113.29 256.994 113.29Z" fill="#DFEBFD"/>
<path d="M243.277 86.8235C243.277 86.4454 243.576 86.127 243.975 86.127C244.354 86.127 244.673 86.4255 244.673 86.8235C244.673 87.2016 244.374 87.52 243.975 87.52C243.596 87.5001 243.277 87.2016 243.277 86.8235Z" fill="#B7D3F3"/>
<path d="M248.84 87.7986C249.019 87.4603 249.438 87.3409 249.777 87.5399C250.115 87.719 250.235 88.1369 250.036 88.4752C249.856 88.8135 249.438 88.9329 249.099 88.7339C248.78 88.5349 248.66 88.117 248.84 87.7986Z" fill="#B7D3F3"/>
<path d="M253.605 91.5597C253.924 91.3607 254.343 91.4403 254.562 91.7587C254.761 92.0771 254.682 92.495 254.363 92.7139C254.044 92.9129 253.625 92.8333 253.406 92.5149C253.186 92.1965 253.286 91.7786 253.605 91.5597Z" fill="#B7D3F3"/>
<path d="M255.958 97.4102C256.336 97.4102 256.655 97.7087 256.655 98.1067C256.655 98.4848 256.356 98.8032 255.958 98.8032C255.579 98.8032 255.26 98.5047 255.26 98.1067C255.28 97.7087 255.579 97.4102 255.958 97.4102Z" fill="#B7D3F3"/>
<path d="M254.761 104.196C255.02 104.455 255.02 104.893 254.761 105.171C254.502 105.43 254.063 105.43 253.784 105.171C253.525 104.913 253.525 104.475 253.784 104.196C254.063 103.918 254.482 103.918 254.761 104.196Z" fill="#B7D3F3"/>
<path d="M250.435 108.514C250.694 108.773 250.694 109.211 250.435 109.489C250.176 109.748 249.737 109.748 249.458 109.489C249.199 109.231 249.199 108.793 249.458 108.514C249.737 108.256 250.156 108.256 250.435 108.514Z" fill="#B7D3F3"/>
<path d="M243.277 110.743C243.277 110.365 243.576 110.047 243.975 110.047C244.354 110.047 244.673 110.345 244.673 110.743C244.673 111.141 244.374 111.44 243.975 111.44C243.596 111.44 243.277 111.141 243.277 110.743Z" fill="#B7D3F3"/>
<path d="M239.091 87.7986C238.911 87.4603 238.493 87.3409 238.154 87.5399C237.815 87.719 237.695 88.1369 237.895 88.4752C238.074 88.8135 238.493 88.9329 238.832 88.7339C239.151 88.5349 239.27 88.117 239.091 87.7986Z" fill="#B7D3F3"/>
<path d="M234.325 91.5597C234.006 91.3607 233.588 91.4403 233.368 91.7587C233.169 92.0771 233.249 92.495 233.568 92.7139C233.887 92.9129 234.306 92.8333 234.525 92.5149C234.724 92.1965 234.644 91.7786 234.325 91.5597Z" fill="#B7D3F3"/>
<path d="M231.973 97.4102C231.594 97.4102 231.275 97.7087 231.275 98.1067C231.275 98.4848 231.574 98.8032 231.973 98.8032C232.352 98.8032 232.671 98.5047 232.671 98.1067C232.651 97.7087 232.352 97.4102 231.973 97.4102Z" fill="#B7D3F3"/>
<path d="M233.169 104.196C232.91 104.455 232.91 104.893 233.169 105.171C233.428 105.43 233.867 105.43 234.146 105.171C234.405 104.913 234.405 104.475 234.146 104.196C233.867 103.918 233.428 103.918 233.169 104.196Z" fill="#B7D3F3"/>
<path d="M237.496 108.514C237.237 108.773 237.237 109.211 237.496 109.489C237.755 109.748 238.194 109.748 238.473 109.489C238.732 109.231 238.732 108.793 238.473 108.514C238.194 108.256 237.755 108.256 237.496 108.514Z" fill="#B7D3F3"/>
<path d="M243.796 98.1067C243.796 97.7286 244.095 97.4102 244.494 97.4102C244.873 97.4102 245.192 97.7087 245.192 98.1067C245.192 98.4848 244.892 98.8032 244.494 98.8032C244.095 98.7833 243.796 98.4848 243.796 98.1067Z" fill="#B7D3F3"/>
<path d="M244.553 89.5098H244.374V98.1066H244.553V89.5098Z" fill="#B7D3F3"/>
<path d="M248.792 94.2839L244.229 97.8604L244.573 98.2986L249.136 94.7221L248.792 94.2839Z" fill="#B7D3F3"/>
<path d="M433.641 338.042C433.501 339.892 430.889 339.912 427.938 339.574C424.968 339.236 425.765 339.972 421.618 340.032C417.471 340.091 416.036 338.718 415.836 338.121C415.657 337.604 417.651 337.146 419.784 336.629C420.043 336.569 420.322 336.489 420.602 336.43C423.014 335.813 424.609 334.022 426.663 332.45C428.616 330.957 431.128 325.564 431.128 325.564L436.791 325.306C436.791 325.306 434.398 330.141 433.501 332.211C432.983 333.445 433.202 334.937 433.421 336.091C433.561 336.748 433.681 337.385 433.641 338.042Z" fill="#FFB27D"/>
<path d="M427.939 339.554C424.968 339.216 425.765 339.952 421.618 340.012C417.471 340.072 416.036 338.699 415.836 338.102C415.657 337.584 417.651 337.127 419.784 336.609L419.804 336.649C419.804 336.649 422.476 338.082 425.885 337.743C428.676 337.465 431.507 336.311 433.441 336.092C433.561 336.729 433.681 337.365 433.641 338.022C433.501 339.893 430.889 339.913 427.939 339.554Z" fill="#233862"/>
<path d="M472.778 338.419C472.639 340.27 470.027 340.289 467.076 339.951C464.105 339.613 464.903 340.349 460.756 340.429C456.609 340.488 455.174 339.115 454.974 338.538C454.795 338.021 456.788 337.563 458.922 337.046C459.181 336.986 459.46 336.906 459.739 336.847C462.152 336.23 463.747 334.439 465.8 332.847C467.754 331.354 465.8 322.519 465.8 322.519L472.041 321.922C472.041 321.922 471.742 329.364 471.742 332.728C471.742 334.061 472.36 335.334 472.579 336.489C472.699 337.125 472.818 337.762 472.778 338.419Z" fill="#FFB27D"/>
<path d="M467.076 339.952C464.106 339.613 464.903 340.35 460.756 340.429C456.609 340.489 455.174 339.116 454.974 338.539C454.795 338.021 456.788 337.563 458.922 337.046L458.942 337.086C458.942 337.086 461.613 338.519 465.023 338.161C467.814 337.882 470.645 336.708 472.559 336.509C472.679 337.146 472.798 337.782 472.758 338.439C472.639 340.27 470.027 340.29 467.076 339.952Z" fill="#233862"/>
<path d="M454.595 185.846C453.518 181.448 455.074 179.399 456.489 178.304C457.147 176.692 457.905 175.518 458.682 175.08C460.098 174.284 461.792 174.185 462.989 174.265C462.69 173.946 462.092 173.827 462.092 173.827C462.829 173.727 464.464 174.444 464.464 174.444C474.712 170.503 476.307 185.548 476.108 189.05C475.888 192.553 475.928 196.672 481.252 199.418C491.42 204.672 477.882 224.492 477.882 224.492C478.141 221.666 465.082 206.761 458.264 202.284C456.609 199.836 456.011 195.538 455.971 195.199C456.25 198.622 456.848 200.533 457.366 201.607C454.236 198.742 453.758 191.896 454.595 185.846Z" fill="#A9453D"/>
<path d="M458.642 202.502C458.602 202.522 461.932 204.234 464.424 203.557C466.776 202.92 468.312 199.876 468.272 199.856C467.275 199.657 466.996 198.284 467.016 192.413L466.557 192.493L458.981 193.985C458.981 193.985 459.16 196.373 459.16 198.602C459.18 200.512 459.061 202.303 458.642 202.502Z" fill="#FFB27D"/>
<path d="M459.001 194.005C459.001 194.005 459.18 196.393 459.18 198.622C463.427 198.503 465.66 194.642 466.577 192.513L459.001 194.005Z" fill="#ED975D"/>
<path d="M428.178 328.569C427.799 329.723 428.636 330.937 429.853 330.977L432.803 331.116L435.934 331.216C436.711 331.236 437.469 330.897 437.967 330.3C440.459 327.236 448.155 317.047 452.821 302.221C452.96 301.804 453.1 301.386 453.239 300.968C456.33 291.993 462.71 280.749 466.079 270.561C466.617 268.929 467.096 267.416 467.534 265.964C467.674 265.506 467.814 265.048 467.933 264.591C470.405 255.994 471.123 250.342 471.801 244.312L447.497 244.511C447.497 244.492 442.373 284.192 428.178 328.569Z" fill="#5F9048"/>
<path d="M450.907 230.561C450.966 242.103 449.212 247.058 449.212 247.058C449.212 247.058 459.619 252.331 471.98 248.451C472.12 248.411 482.228 246.103 482.228 246.103C482.029 245.645 480.175 237.864 479.975 237.426C477.364 231.834 475.39 229.367 475.071 227.655C474.493 224.451 474.493 221.128 474.772 217.984C475.529 209.686 477.762 202.8 477.762 202.8C474.393 202.044 471.243 200.691 467.734 199.377C466.936 200.372 464.464 201.427 462.331 201.387C459.858 201.328 459.061 200.273 459.201 199.139C456.569 200.591 454.475 201.964 454.475 201.964C452.242 205.825 447.717 209.586 447.398 215.516C447.298 216.969 450.887 230.242 450.907 230.561Z" fill="white"/>
<path d="M471.801 231.835C472.858 233.328 474.891 242.462 479.975 243.596C477.364 237.089 475.39 234.243 475.071 232.253C474.493 228.512 474.493 224.651 474.772 221.01C473.077 218.044 471.801 216.015 471.801 216.015C471.661 215.537 469.11 207.617 468.292 214.701C467.455 221.786 470.605 230.164 471.801 231.835Z" fill="#5F9AA8"/>
<path d="M457.585 196.134C457.585 196.134 467.613 196.294 467.613 190.065C467.613 183.836 468.909 179.657 462.51 179.279C456.11 178.901 454.854 181.289 454.355 183.359C453.857 185.448 454.973 195.935 457.585 196.134Z" fill="#FFB27D"/>
<path d="M457.944 179.14C457.944 179.14 460.696 186.463 464.903 187.538C469.109 188.612 470.944 187.498 470.944 187.498C470.944 187.498 467.714 184.931 467.036 180.453C467.056 180.453 460.018 175.657 457.944 179.14Z" fill="#A9453D"/>
<path d="M458.642 179.717C458.642 179.717 456.589 181.349 456.091 182.941C455.592 184.533 455.373 187.796 454.416 187.677C454.416 187.677 452.342 182.702 454.675 179.896C457.127 176.931 458.642 179.717 458.642 179.717Z" fill="#A9453D"/>
<path d="M441.815 238.562L437.07 252.989L439.782 254.064L447.597 241.328L441.815 238.562Z" fill="#FFB27D"/>
<path d="M454.574 201.109C454.574 201.109 448.992 203.318 447.377 206.761C445.762 210.204 443.31 233.327 442.333 235.715C441.356 238.103 440.618 239.974 440.618 239.974C440.618 239.974 443.429 242.342 446.26 242.521C449.092 242.7 454.574 201.109 454.574 201.109Z" fill="#ED8232"/>
<path d="M459.181 199.119C459.181 199.119 453.379 213.427 453.199 216.313C453.02 219.198 452.522 263.655 452.522 263.655C452.522 263.655 452.86 265.705 448.933 264.849C445.005 263.993 443.988 263.138 443.988 263.138C443.988 263.138 447.737 235.715 446.72 226.183C445.703 216.651 454.575 201.089 454.575 201.089L459.181 199.119Z" fill="#ED8232"/>
<path d="M432.823 331.116L436.213 331.216C436.811 331.236 437.409 330.977 437.788 330.499C440.081 327.733 448.036 317.405 452.821 302.202C452.96 301.784 453.1 301.366 453.239 300.948C456.33 291.973 462.71 280.729 466.079 270.541C466.617 268.909 467.096 267.396 467.535 265.944C467.674 265.486 467.814 265.028 467.933 264.571L464.345 261.864C464.345 261.864 453.598 279.237 450.269 295.575C447.398 309.783 435.834 326.878 432.823 331.116Z" fill="#376320"/>
<path d="M463.985 297.107C463.925 304.629 464.284 321.385 465.201 329.584C465.281 330.34 465.919 330.897 466.677 330.897H469.209C470.286 330.897 471.083 330.897 471.601 330.877C472.06 330.877 472.459 330.539 472.538 330.081C475.051 317.265 476.865 306.639 478.181 297.445C479.277 289.744 480.274 283.157 481.032 277.465C481.789 271.754 482.328 266.958 482.507 262.919C482.527 262.282 482.567 261.665 482.567 261.068C482.587 260.471 482.587 259.874 482.587 259.297L461.593 257.247C461.872 271.197 464.025 292.49 463.985 297.107Z" fill="#5F9048"/>
<path d="M469.209 330.897C470.166 330.897 470.904 330.897 471.442 330.877C472 330.877 472.479 330.479 472.578 329.922C475.091 317.186 476.885 306.599 478.201 297.445C479.297 289.744 480.294 283.157 481.052 277.466C481.809 271.755 482.348 266.959 482.527 262.919L474.831 267.436C474.831 267.436 479.756 269.168 477.882 282.282C475.988 295.416 471.821 329.047 469.209 330.897Z" fill="#376320"/>
<path d="M468.213 262.799C468.213 262.799 469.688 268.133 474.812 267.456C479.936 266.779 487.213 263.715 487.213 263.715C487.213 263.715 485.02 256.81 482.308 247.755C479.019 236.79 474.932 222.641 473.018 213.726C472.479 211.219 472.1 209.129 471.981 207.637L467.734 199.418C467.734 199.418 461.394 213.607 461.055 217.169C460.716 220.731 468.213 262.799 468.213 262.799Z" fill="#ED8232"/>
<path d="M473.336 216.632L467.734 199.398C467.754 199.398 474.811 201.488 478.36 203.279C478.36 203.279 480.573 206.145 481.949 212.731C481.949 212.731 483.405 228.552 480.155 234.343C480.155 234.343 469.927 236.393 453.538 230.761V227.02C453.538 227.02 471.442 227.955 475.11 228.373L473.336 216.632Z" fill="#FFB27D"/>
<path d="M468.451 224.651C468.671 230.442 470.046 241.685 482.208 247.695C482.248 247.715 482.268 247.735 482.308 247.735C479.018 236.77 474.931 222.621 473.017 213.706C470.784 217.049 468.332 221.467 468.451 224.651Z" fill="#EF6A30"/>
<path d="M467.734 199.418C467.734 199.418 478.122 200.154 480.634 205.706C483.126 211.278 483.923 229.765 480.753 235.218C480.753 235.218 476.367 236.472 468.611 235.019C468.512 234.999 468.412 234.979 468.332 234.959C468.332 234.959 465.86 228.91 468.073 227.716C468.073 227.716 474.613 228.054 473.935 225.905C473.217 223.756 467.734 199.418 467.734 199.418Z" fill="#ED8232"/>
<path d="M441.675 229.368L441.974 230.343L459.02 225.049C459.02 225.049 459.24 224.791 459.14 224.452C459.02 224.074 458.721 224.074 458.721 224.074L441.675 229.368Z" fill="#A9453D"/>
<path d="M440.459 230.283L441.675 229.367L441.994 230.342L440.459 230.283Z" fill="#A9453D"/>
<path d="M437.748 252.591C437.748 252.591 433.422 254.979 432.863 256.79C432.285 258.601 432.684 262.421 433.362 262.362C434.04 262.302 435.076 258.282 435.635 257.984C436.193 257.685 436.99 256.849 436.99 257.466C436.99 258.083 436.412 259.218 436.711 259.397C437.01 259.576 437.908 257.805 438.526 257.466C439.144 257.128 439.423 254.322 440.021 253.566C440.639 252.81 437.748 252.591 437.748 252.591Z" fill="#FFB27D"/>
<path d="M453.558 227.039C453.558 227.039 449.69 224.671 448.076 225.029C446.461 225.387 442.314 228.392 444.307 229.029C446.301 229.666 447.916 228.989 448.674 229.467C449.431 229.944 450.009 230.8 453.558 230.78C457.107 230.78 453.558 227.039 453.558 227.039Z" fill="#FFB27D"/>
<path d="M149.432 201.508C148.774 200.254 163.567 195.757 163.807 208.075C163.807 208.075 191.52 207.398 178.281 191.976C173.696 186.642 174.174 182.225 174.314 178.125C174.453 174.026 171.463 162.086 161.195 163.28C161.195 163.28 158.503 162.185 155.154 163.917C147.538 167.877 130.471 206.045 149.432 201.508Z" fill="#163560"/>
<path d="M194.729 215.278C194.729 215.278 196.524 212.532 197.979 212.492C199.435 212.432 202.126 211.676 201.907 212.213C201.688 212.751 200.013 212.81 199.853 213.129C199.694 213.447 202.326 213.945 203.083 213.984C203.841 214.044 205.615 213.984 205.556 214.362C205.496 214.741 202.346 216.293 200.133 216.074C197.919 215.855 195.168 216.711 195.168 216.711L194.729 215.278Z" fill="#FFB27D"/>
<path d="M168.632 216.154C168.632 216.154 169.609 218.084 171.383 220.313C173.536 222.999 176.826 226.084 180.973 226.701C182.947 226.999 184.901 226.561 186.675 225.785C191.719 223.556 195.508 218.422 195.508 218.422C196.405 215.994 194.949 214.363 194.949 214.363C194.949 214.363 184.781 216.651 183.804 216.154C182.827 215.676 177.185 199.418 175.829 197.368C174.474 195.318 169.888 194.264 169.888 194.264L168.632 216.154Z" fill="#D0F7BC"/>
<path d="M171.403 220.333C173.556 223.019 176.846 226.104 180.993 226.721C182.967 227.019 184.92 226.582 186.695 225.805C186.496 225.825 181.471 226.442 179.458 222.86C177.404 219.199 175.191 213.408 172.16 215.338C170.845 216.154 170.904 218.243 171.403 220.333Z" fill="#ABDD8A"/>
<path d="M130.67 325.783C130.67 325.783 127.56 328.608 128.178 330.618C128.776 332.628 131.587 333.961 131.966 336.429C132.345 338.877 133.86 340.23 135.216 340.23C136.572 340.23 141.716 340.23 141.716 340.23C141.716 340.23 142.712 338.499 140.3 337.981C137.868 337.464 136.97 334.578 137.11 331.892C137.269 329.205 136.891 325.643 136.891 325.643L131.747 324.449L130.67 325.783Z" fill="#233862"/>
<path d="M156.948 326.997C156.948 326.997 155.831 338.977 157.187 339.654L174.632 339.614C174.632 339.614 174.632 337.604 171.821 337.166C169.01 336.728 164.105 335.076 163.268 331.435C162.451 327.773 156.948 326.997 156.948 326.997Z" fill="#233862"/>
<path d="M144.526 241.028C148.115 232.989 150.308 230.68 149.89 228.193C149.571 226.342 150.847 193.587 150.847 193.587C151.265 193.447 152.123 193.328 152.601 193.228C154.076 192.91 155.293 191.875 155.791 190.442C156.409 188.731 156.888 186.204 156.868 183.06L157.326 183.159L165.062 184.691C165.062 184.691 164.883 187.119 164.883 189.408C164.883 189.428 164.883 189.447 164.883 189.467C164.883 191.457 166.179 193.209 168.093 193.766C169.069 194.044 169.927 194.283 169.927 194.283C169.927 194.283 172.758 202.382 173.316 210.681C173.854 218.999 168.152 222.601 173.356 239.217C178.659 256.172 142.553 245.486 144.526 241.028Z" fill="#FFB27D"/>
<path d="M165.063 184.691C165.063 184.691 164.883 187.119 164.883 189.408C160.557 189.288 158.264 185.348 157.327 183.159L165.063 184.691Z" fill="#E8945B"/>
<path d="M166.518 186.861C166.518 186.861 156.291 187.02 156.271 180.672C156.271 174.304 154.935 170.045 161.474 169.667C168.014 169.289 169.29 171.717 169.808 173.846C170.326 175.975 169.17 186.642 166.518 186.861Z" fill="#FFB27D"/>
<path d="M166.139 169.488C166.139 169.488 163.328 176.95 159.042 178.065C154.735 179.159 152.881 178.025 152.881 178.025C152.881 178.025 156.171 175.418 156.868 170.841C156.848 170.841 164.026 165.946 166.139 169.488Z" fill="#163560"/>
<path d="M165.441 170.105C165.441 170.105 167.515 170.881 168.372 172.394C169.21 173.866 169.927 175.837 169.748 178.244C169.748 178.244 171.861 173.17 169.489 170.304C166.977 167.24 165.441 170.105 165.441 170.105Z" fill="#163560"/>
<path d="M164.285 182.9C164.285 182.9 164.983 183.836 166.399 183.756C167.535 183.696 167.974 182.721 167.974 182.721C167.974 182.721 165.88 182.224 164.285 182.9Z" fill="#EBF3FA"/>
<path d="M143.53 208.074C143.53 208.074 143.271 211.736 143.53 216.114C143.71 219.019 146.66 222.92 147.079 223.895C148.136 226.322 149.312 226.701 149.312 226.701L158.463 228.949L161.693 229.745L171.841 226.72C171.841 226.72 176.467 213.825 174.613 206.582C172.759 199.318 169.927 194.283 169.927 194.283C169.927 194.283 161.633 202.383 150.847 193.587L143.53 208.074Z" fill="#D0F7BC"/>
<path d="M146.222 217.308C146.401 220.213 146.66 222.919 147.079 223.894C148.136 226.322 149.312 226.7 149.312 226.7L158.463 228.949L162.451 227.775C162.451 227.775 149.172 225.765 150.648 214.362L146.222 217.308Z" fill="#F2CCAA"/>
<path d="M171.204 228.671C171.204 228.671 176.228 244.292 176.547 249.626C176.866 254.939 166.937 325.206 166.538 327.654C166.16 329.962 163.289 331.435 163.289 331.435C163.289 331.435 161.973 332.211 160.079 331.673C157.467 330.937 156.629 330.061 156.629 330.061C156.629 330.061 152.722 279.953 155.134 262.063C157.566 244.173 157.586 228.691 157.586 228.691L171.204 228.671Z" fill="#EF6A30"/>
<path d="M149.891 228.193C149.891 228.193 142.215 238.462 141.497 245.407C140.779 252.352 140.38 276.749 138.845 283.515C137.33 290.281 131.728 303.316 131.728 324.43C131.728 324.43 132.306 325.644 134.1 326.28C134.678 326.479 135.436 326.678 136.194 326.858C137.669 327.196 139.204 326.479 139.862 325.106C143.65 317.505 155.712 292.968 156.33 287.873C156.769 284.272 160.577 260.411 168.871 246.422C170.865 243.059 167.655 229.706 167.655 229.706L149.891 228.193Z" fill="#ED8232"/>
<path d="M164.504 183.08C164.504 183.08 164.683 183.836 166.557 183.717C166.557 183.717 168.133 183.617 168.073 182.802C168.073 182.782 166.557 182.205 164.504 183.08Z" fill="white"/>
<path d="M172 226.263C172 226.263 169.987 227.855 165.979 227.934C161.194 228.034 149.311 226.72 149.311 226.72C149.311 226.72 148.793 228.193 148.813 229.745C148.813 229.745 163.308 233.387 171.721 230.282C171.701 230.263 172.798 228.233 172 226.263Z" fill="#233862"/>
<path d="M164.943 229.587C164.943 228.234 165.92 227.119 167.136 227.119C168.333 227.119 169.33 228.234 169.33 229.587C169.33 230.94 168.353 232.054 167.136 232.054C165.92 232.054 164.943 230.94 164.943 229.587ZM165.661 229.587C165.661 230.542 166.319 231.338 167.117 231.338C167.914 231.338 168.572 230.562 168.572 229.587C168.572 228.632 167.914 227.836 167.117 227.836C166.319 227.836 165.661 228.612 165.661 229.587Z" fill="white"/>
<path d="M151.398 208.775L133.696 229.066L148.553 241.978L166.254 221.686L151.398 208.775Z" fill="#B5453C"/>
<path d="M152.662 229.128C152.662 229.128 158.105 229.765 158.085 231.058C158.065 232.352 156.729 234.998 156.051 235.118C155.373 235.237 151.625 231.536 151.625 231.536L152.662 229.128Z" fill="#FFB27D"/>
<path d="M150.847 193.587C150.847 193.587 143.59 194.104 140.798 200.85C138.007 207.616 132.724 218.959 132.724 220.87C132.724 222.78 135.674 228.671 151.525 232.054C151.525 232.054 153.16 230.322 153.06 228.969C153.06 228.969 143.171 220.492 143.191 219.497C143.251 217.626 144.806 215.139 153.499 206.462C155.871 204.094 150.847 193.587 150.847 193.587Z" fill="#D0F7BC"/>
<path d="M231.136 339.852H231.076C230.677 339.852 230.338 339.514 230.358 339.116L231.455 291.674L234.685 291.296L231.933 339.116C231.893 339.534 231.535 339.852 231.136 339.852Z" fill="#B0D4FF"/>
<path d="M212.294 339.852H212.234C211.835 339.852 211.497 339.514 211.516 339.116L212.613 291.674L215.843 291.296L213.092 339.116C213.052 339.534 212.713 339.852 212.294 339.852Z" fill="#95C0F4"/>
<path d="M264.252 339.852H264.312C264.711 339.852 265.05 339.514 265.03 339.116L263.933 291.674L260.703 291.296L263.455 339.116C263.494 339.534 263.833 339.852 264.252 339.852Z" fill="#B0D4FF"/>
<path d="M210.161 288.729V256.212C210.161 250.501 214.807 245.864 220.529 245.864H243.995C249.717 245.864 254.363 250.501 254.363 256.212V289.963L210.161 288.729Z" fill="#B0D4FF"/>
<path d="M258.589 293.863H213.271C211.557 293.863 210.161 292.47 210.161 290.758V288.729H258.589V293.863Z" fill="#95C0F4"/>
<path d="M264.012 293.863H229.74C228.464 293.863 227.427 292.828 227.427 291.555V291.017C227.427 289.744 228.464 288.709 229.74 288.709H264.012C265.288 288.709 266.325 289.744 266.325 291.017V291.555C266.325 292.848 265.288 293.863 264.012 293.863Z" fill="#B0D4FF"/>
<path d="M262.697 280.63C259.327 286.461 255.101 288.729 255.101 288.729H237.516C237.516 288.729 265.249 276.172 262.697 280.63Z" fill="#376320"/>
<path d="M249.179 325.823C248.72 326.34 248.66 326.937 248.88 327.554C249.298 328.708 250.694 330.002 252.289 331.295C252.488 331.454 252.688 331.614 252.827 331.753C252.867 331.793 252.907 331.832 252.947 331.872C252.987 331.892 253.007 331.932 253.047 331.952C254.542 333.325 253.984 333.643 256.675 336.449C259.746 339.653 261.859 339.693 262.477 339.414C262.995 339.176 261.959 337.464 260.802 335.574C260.742 335.474 260.683 335.395 260.643 335.295C260.483 335.036 260.344 334.778 260.184 334.539C258.848 332.25 259.187 331.176 259.506 327.753C259.765 324.987 263.833 312.271 263.833 312.271L257.931 311.256C257.931 311.256 256.157 321.385 254.203 322.937C253.166 323.773 251.99 323.773 250.973 324.39C250.893 324.43 250.833 324.469 250.774 324.529C250.215 324.907 249.637 325.305 249.179 325.823Z" fill="#FFB27D"/>
<path d="M249.179 325.822C248.72 326.34 248.66 326.937 248.88 327.554C249.398 328.708 250.754 330.001 252.309 331.275C252.508 331.434 252.688 331.593 252.847 331.753C252.887 331.792 252.927 331.832 252.967 331.872C253.007 331.892 253.027 331.932 253.066 331.952C254.562 333.325 254.004 333.643 256.695 336.449C259.765 339.653 261.879 339.693 262.497 339.414C263.015 339.175 261.979 337.464 260.822 335.573C260.224 335.355 257.433 334.22 255.339 331.534C253.485 329.166 252.249 326.141 250.993 324.39C250.913 324.429 250.853 324.469 250.794 324.529C250.215 324.907 249.637 325.305 249.179 325.822Z" fill="#233862"/>
<path d="M296.71 322.141C297.069 323.952 299.66 323.653 302.571 322.957C305.462 322.241 304.784 323.096 308.911 322.639C313.039 322.181 314.275 320.649 314.414 320.032C314.534 319.494 312.48 319.295 310.307 319.037C310.028 318.997 309.749 318.977 309.49 318.937C307.017 318.619 305.223 317.047 302.97 315.733C300.857 314.5 297.687 309.465 297.687 309.465L292.024 309.903C292.024 309.903 294.995 314.4 296.132 316.35C296.809 317.504 296.77 319.017 296.69 320.191C296.61 320.848 296.57 321.504 296.71 322.141Z" fill="#FFB27D"/>
<path d="M302.551 322.957C305.442 322.241 304.764 323.097 308.892 322.639C313.019 322.181 314.255 320.649 314.394 320.032C314.514 319.495 312.46 319.296 310.287 319.037L310.267 319.077C310.267 319.077 307.795 320.828 304.366 320.908C301.574 320.967 298.604 320.171 296.67 320.211C296.63 320.848 296.59 321.505 296.71 322.142C297.069 323.972 299.66 323.654 302.551 322.957Z" fill="#233862"/>
<path d="M275.038 286.062L269.754 300.271L262.856 318.818C262.856 318.818 260.982 318.997 259.188 318.479C257.533 318.002 255.639 316.748 255.639 316.748C255.639 316.748 257.553 296.848 261.121 285.406C262.039 282.48 263.055 280.092 264.192 278.759C269.734 272.232 275.038 286.062 275.038 286.062Z" fill="#376320"/>
<path d="M269.655 263.496C266.186 262.382 256.317 263.814 246.388 265.745L244.314 262.322L222.882 260.65C222.882 260.65 215.804 276.312 219.672 286.282C220.25 287.754 221.366 288.69 223.3 288.709H223.619C223.619 288.709 236.379 288.709 240.526 288.709C251.193 288.709 263.076 281.386 264.631 281.088C267.143 280.59 268.16 285.605 270.672 290.898C273.184 296.172 294.358 314.281 294.358 314.281C294.358 314.281 297.607 314.321 298.963 313.803C300.399 313.266 300.937 312.57 300.937 312.57C300.937 312.57 277.47 266.023 269.655 263.496Z" fill="#5F9048"/>
<path d="M243.476 200.055C240.725 198.622 236.558 198.423 235.88 198.323C227.766 197.229 222.861 209.01 222.582 212.592C222.044 219.179 218.574 220.174 213.65 224.293C203.801 232.551 206.692 242.163 212.075 245.725C215.305 247.874 220.987 245.725 220.987 245.725C221.067 245.785 236.558 237.089 244.174 232.89C255.638 231.258 250.474 203.716 243.476 200.055Z" fill="#233862"/>
<path d="M237.794 229.308C237.834 229.328 234.046 230.621 231.514 229.507C229.121 228.452 227.327 224.532 227.367 224.532C228.443 224.472 229.64 223.537 230.557 217.328L231.015 217.487L238.771 220.273C238.771 220.273 238.213 222.761 237.854 225.129C237.535 227.119 237.375 229.029 237.794 229.308Z" fill="#FFB27D"/>
<path d="M238.771 220.293C238.771 220.293 238.213 222.78 237.854 225.148C233.388 224.352 231.654 219.915 231.016 217.507L238.771 220.293Z" fill="#ED975D"/>
<path d="M239.928 222.76C239.928 222.76 229.302 221.328 230.298 214.741C231.295 208.154 230.578 203.537 237.416 204.154C244.235 204.791 245.172 207.497 245.391 209.766C245.571 212.054 242.7 222.959 239.928 222.76Z" fill="#FFB27D"/>
<path d="M244.972 206.164C244.972 206.164 238.173 212.014 233.548 212.492C228.922 212.969 227.168 211.477 227.168 211.477C227.168 211.477 229.899 209.208 231.534 205.567C232.013 204.492 233.03 203.756 234.206 203.656C237.535 203.378 243.796 203.238 244.972 206.164Z" fill="#233862"/>
<path d="M240.726 205.647C240.726 205.647 242.998 207.836 243.716 209.467C244.414 211.039 244.613 214.801 244.055 216.293C244.055 216.293 247.604 209.408 245.59 206.064C243.477 202.522 240.726 205.647 240.726 205.647Z" fill="#233862"/>
<path d="M246.727 244.929C246.408 266.381 246.647 261.904 244.294 263.934C243.736 264.431 242.141 264.71 240.048 264.849C233.448 265.287 221.865 264.192 221.426 262.979C219.911 258.78 220.987 257.466 219.711 251.019C219.572 250.342 219.412 249.586 219.233 248.79C218.176 244.372 217.14 242.86 220.908 235.755C224.317 229.308 227.846 224.094 228.165 224.273C237.137 229.586 237.875 225.129 237.875 225.129C237.875 225.129 246.886 234.462 246.727 244.929Z" fill="white"/>
<path d="M269.754 300.251L262.856 318.798C262.856 318.798 260.982 318.977 259.188 318.46C257.533 317.982 255.639 316.728 255.639 316.728C255.639 316.728 257.553 296.828 261.121 285.386L269.754 300.251Z" fill="#5F9048"/>
<path d="M237.834 225.129C237.834 225.129 247.065 226.701 248.162 230.661C249.238 234.641 255.638 257.964 255.638 257.964C255.638 257.964 250.933 258.8 248.78 256.651C246.606 254.481 241.223 236.552 241.223 236.552L237.834 225.129Z" fill="white"/>
<path d="M240.047 264.85C233.448 265.287 221.864 264.193 221.426 262.979C219.91 258.78 220.987 257.467 219.711 251.019L222.881 242.084C222.881 242.084 222.363 252.034 225.293 254.661C228.224 257.288 237.336 259.715 238.751 261.904C239.449 262.959 239.908 264.014 240.047 264.85Z" fill="#EBF3FF"/>
<path d="M232.491 260.67C232.491 260.67 238.991 259.218 240.048 259.795C241.104 260.372 243.656 262.461 243.975 263.198C244.294 263.934 241.643 262.64 240.765 262.421C240.207 262.262 238.732 262.78 237.994 263.018C234.924 264.033 233.049 263.516 233.049 263.516L232.491 260.67Z" fill="#FFB27D"/>
<path d="M228.125 224.293C228.125 224.293 219.393 224.83 216.362 229.029C212.115 234.959 203.662 260.193 208.507 263.576C213.95 267.376 233.309 264.571 233.309 264.571C233.309 264.571 233.947 261.566 233.05 260.113C232.153 258.66 217.598 256.312 216.92 255.635C216.243 254.959 225.314 242.561 225.314 240.551C225.334 238.521 228.125 224.293 228.125 224.293Z" fill="white"/>
<path d="M240.347 261.605C240.347 261.605 241.702 263.357 242.161 263.576C242.6 263.794 242.899 263.735 242.899 263.735L241.982 262.083L240.347 261.605Z" fill="#FFB27D"/>
<path d="M240.048 259.795L244.015 261.705C244.015 261.705 243.856 261.984 243.357 261.964C242.879 261.944 241.643 261.486 241.643 261.486L240.048 259.795Z" fill="#FFB27D"/>
<path d="M242.161 266.262H273.503L282.933 242.859H251.631L242.161 266.262Z" fill="#EF6A30"/>
<path d="M273.861 265.347H232.491V266.262H273.503L273.861 265.347Z" fill="#ED7D2B"/>
<path d="M265.587 254.561C265.826 253.745 265.348 253.068 264.53 253.068C263.713 253.068 262.856 253.745 262.616 254.561C262.377 255.377 262.856 256.053 263.673 256.053C264.491 256.053 265.348 255.377 265.587 254.561Z" fill="white"/>
<path d="M405.849 340.727H405.949C406.487 340.727 406.926 340.27 406.906 339.693L405.45 273.266L401.184 272.749L404.832 339.713C404.852 340.27 405.291 340.727 405.849 340.727Z" fill="#78ACEA"/>
<path d="M232.651 340.727H232.551C232.013 340.727 231.574 340.27 231.594 339.693L233.05 273.266L237.316 272.749L233.668 339.693C233.648 340.27 233.189 340.727 232.651 340.727Z" fill="#78ACEA"/>
<path d="M410.992 274.481H228.225C226.73 274.481 225.514 273.267 225.514 271.774V269.167C225.514 267.675 226.73 266.461 228.225 266.461H410.992C412.488 266.461 413.704 267.675 413.704 269.167V271.774C413.704 273.287 412.488 274.481 410.992 274.481Z" fill="#78ACEA"/>
<path d="M188.39 152.633C187.692 135.579 202.027 127.997 216.661 127.997C231.295 127.997 247.245 131.778 248.621 154.464C249.518 169.051 241.723 178.026 219.273 178.026C211.697 178.026 205.815 176.832 201.309 174.702L190.084 184.652L195.587 170.901C190.742 166.384 188.669 159.976 188.39 152.633Z" fill="#DFEDFB"/>
<path d="M521.246 340.648C521.246 340.648 521.665 337.444 522.622 335.534C523.579 333.623 529.64 334.837 529.64 334.837C529.64 334.837 530.856 335.872 531.115 340.728L521.246 340.648Z" fill="#233862"/>
<path d="M500.551 340.609C501.987 339.733 501.169 333.246 501.169 333.246C501.169 333.246 494.51 327.932 493.613 331.992C492.716 336.052 487.292 337.882 484.222 338.38C482.109 338.718 481.451 339.892 481.231 340.589H500.551V340.609Z" fill="#233862"/>
<path d="M514.328 293.445C514.049 294.938 513.889 296.152 513.849 297.027C513.231 309.067 503.701 336.588 501.986 337.225C499.355 338.22 495.188 336.111 493.015 335.414C492.117 335.136 491.499 334.22 491.699 333.305C496.424 311.654 498.158 280.45 498.776 262.003C499.095 252.71 500.69 246.282 500.69 246.282C500.69 246.282 523.938 240.093 524.077 247.914C524.217 254.839 516.401 282.003 514.328 293.445Z" fill="#5F9048"/>
<path d="M514.327 293.445L498.796 261.984C499.115 252.69 500.71 246.263 500.71 246.263C500.71 246.263 523.957 240.074 524.097 247.894C524.216 254.839 516.401 282.003 514.327 293.445Z" fill="#376320"/>
<path d="M509.144 247.934L521.425 336.828C521.425 336.828 526.828 338.121 531.015 337.086C531.015 337.086 534.604 289.804 534.305 278.381C534.006 266.959 536.897 247.795 533.647 245.686C530.437 243.556 509.144 247.934 509.144 247.934Z" fill="#5F9048"/>
<path d="M536.059 246.442C536.119 247.238 535.601 247.974 534.823 248.193C533.109 248.69 531.135 249.029 527.327 249.825C523.738 250.561 518.933 251.218 513.012 251.257C503.601 251.317 500.032 248.073 500.032 248.073C499.634 248.073 500.252 246.123 500.81 236.77C500.989 233.606 501.189 229.586 501.308 224.512C501.428 219.955 501.508 214.522 501.508 208.094C501.528 200.353 513.53 192.035 513.749 192.035C513.749 193.15 515.504 195.199 518.215 195.378C521.425 195.597 525.373 193.985 525.373 192.135C525.373 192.115 531.195 201.428 533.248 211.338C534.325 216.333 533.886 216.214 536.059 246.442Z" fill="#D0F7BC"/>
<path d="M513.75 192.035C513.75 192.035 502.585 191.936 499.893 195.697C497.202 199.458 491.32 219.677 494.391 226.423C497.461 233.149 503.223 223.637 506.413 219.517C509.623 215.398 513.75 192.035 513.75 192.035Z" fill="#D0F7BC"/>
<path d="M513.65 190.344V191.498C513.65 191.498 513.331 195.1 517.777 195.617C522.223 196.155 525.513 194.941 525.393 192.175C524.995 190.025 524.616 187.817 524.596 186.026C524.576 185.369 524.636 184.652 524.755 183.876L516.142 183.697L513.61 184.115L513.65 190.344Z" fill="#FFB27D"/>
<path d="M513.61 184.115L513.65 190.344C514.567 190.762 515.604 191.021 516.76 191.021C520.708 191.021 523.28 188.115 524.616 186.026C524.596 185.369 524.656 184.652 524.775 183.876L516.162 183.697L513.61 184.115Z" fill="#E2915A"/>
<path d="M525.413 182.483C524.416 187.856 517.478 187.677 514.487 187.338C513.65 187.239 513.111 187.139 513.111 187.139C512.154 186.881 511.636 185.388 511.377 183.438C510.878 179.557 511.496 173.866 512.154 172.413C513.151 170.224 515.005 167.856 521.984 169.568C528.982 171.259 526.689 175.597 525.413 182.483Z" fill="#FFB27D"/>
<path d="M502.346 207.119C502.346 207.119 498.019 216.631 498.159 219.497C498.159 219.497 500.292 219.417 502.346 220.034C505.715 221.029 502.346 207.119 502.346 207.119Z" fill="#ABDD8A"/>
<path d="M510.021 167.299C510.021 167.299 513.091 167.061 516.719 165.489C519.67 164.215 523.379 165.608 524.575 166.245C524.535 166.046 524.455 165.787 524.276 165.528C524.276 165.528 524.814 165.906 524.894 166.444C524.954 166.484 524.974 166.503 524.954 166.523C524.954 166.523 525.572 166.404 525.971 166.583C525.971 166.583 525.691 166.543 525.592 166.722C525.572 166.742 525.572 166.762 525.552 166.762C530.137 168.971 530.576 176.215 529.081 177.906C527.306 179.916 524.615 184.493 524.615 184.493C524.615 184.493 524.395 183.399 524.714 181.627C525.033 179.856 523.498 179.856 521.564 179.04C519.63 178.225 521.245 175.976 519.551 174.603C517.856 173.23 511.635 174.046 511.715 172.991C509.422 172.155 510.021 167.538 510.021 167.299Z" fill="#233862"/>
<path d="M526.828 224.93C525.014 232.233 505.295 236.014 500.81 236.77C500.989 233.606 501.188 229.586 501.308 224.512L526.828 224.93Z" fill="#ABDD8A"/>
<path d="M522.502 227.318C522.681 227.318 526.888 226.701 527.626 226.323C528.363 225.945 531.813 221.069 529.56 219.836C527.307 218.582 521.266 223.577 521.266 223.577L522.502 227.318Z" fill="#FFB27D"/>
<path d="M496.982 228.75C496.982 228.75 513.191 229.626 524.077 227.298C524.077 227.298 524.356 224.154 520.927 222.761C520.927 222.761 503.96 219.179 499.893 220.174C495.826 221.189 496.982 228.75 496.982 228.75Z" fill="#D0F7BC"/>
<path d="M534.245 216.054C530.876 220.113 526.47 223.417 521.625 224.193C521.585 224.133 520.149 221.964 520.429 218.78C520.548 217.308 521.047 215.616 522.203 213.825C522.562 213.268 522.881 212.631 523.16 211.915C525.812 205.169 525.413 192.174 525.413 192.174C525.413 192.174 536.658 193.348 540.167 198.343C542.3 201.388 539.549 209.646 534.245 216.054Z" fill="#D0F7BC"/>
<path d="M514.487 187.339C513.65 187.239 513.112 187.14 513.112 187.14C512.155 186.881 511.636 185.389 511.377 183.438C513.151 183.876 513.969 185.249 514.328 185.846C514.467 186.085 514.507 186.682 514.487 187.339Z" fill="#E2915A"/>
<path d="M509.942 190.364C509.942 190.364 506.054 183.956 509.084 183.677C512.115 183.399 513.311 185.448 513.75 186.185C514.188 186.941 513.63 190.324 513.63 190.324L509.942 190.364Z" fill="#FFB27D"/>
<path d="M524.755 218.562C524.636 219.378 524.396 220.114 524.097 220.79C523.14 222.9 521.625 224.193 521.625 224.193C511.537 219.656 509.503 204.035 509.144 195.458C509.004 192.015 509.144 189.707 509.144 189.707C513.69 188.194 514.966 190.821 514.966 190.821C514.966 190.821 520.349 203.577 523.12 211.915C524.197 215.079 524.895 217.626 524.755 218.562Z" fill="#D0F7BC"/>
<path d="M534.245 216.054C530.875 220.114 526.469 223.418 521.624 224.194C511.536 219.656 509.502 204.035 509.144 195.458C509.144 195.458 513.909 212.751 520.408 218.781C521.585 219.875 522.821 220.592 524.077 220.791C524.077 220.791 532.271 218.482 533.986 216.293C534.125 216.134 534.205 216.074 534.245 216.054Z" fill="#ABDD8A"/>
<path d="M350.461 266.481H319.139L309.709 243.078H340.991L350.461 266.481Z" fill="#376320"/>
<path d="M318.761 265.565H360.151V266.481H319.14L318.761 265.565Z" fill="#376320"/>
<path d="M327.035 254.78C326.796 253.964 327.275 253.287 328.092 253.287C328.909 253.287 329.767 253.964 330.006 254.78C330.245 255.596 329.767 256.272 328.949 256.272C328.132 256.272 327.275 255.596 327.035 254.78Z" fill="white"/>
</svg>
